G04 #@! TF.GenerationSoftware,KiCad,Pcbnew,(5.99.0-1615-g0042cd509)*
G04 #@! TF.CreationDate,2020-07-12T13:46:49-05:00*
G04 #@! TF.ProjectId,my-keyboard,6d792d6b-6579-4626-9f61-72642e6b6963,rev?*
G04 #@! TF.SameCoordinates,Original*
G04 #@! TF.FileFunction,Legend,Bot*
G04 #@! TF.FilePolarity,Positive*
%FSLAX46Y46*%
G04 Gerber Fmt 4.6, Leading zero omitted, Abs format (unit mm)*
G04 Created by KiCad (PCBNEW (5.99.0-1615-g0042cd509)) date 2020-07-12 13:46:49*
%MOMM*%
%LPD*%
G01*
G04 APERTURE LIST*
%ADD10C,0.120000*%
G04 APERTURE END LIST*
X385039880Y-206748214D02*
X384039880Y-206748214D01*
X384039880Y-206986309D01*
X384087500Y-207129166D01*
X384182738Y-207224404D01*
X384277976Y-207272023D01*
X384468452Y-207319642D01*
X384611309Y-207319642D01*
X384801785Y-207272023D01*
X384897023Y-207224404D01*
X384992261Y-207129166D01*
X385039880Y-206986309D01*
X385039880Y-206748214D01*
X384468452Y-207891071D02*
X384420833Y-207795833D01*
X384373214Y-207748214D01*
X384277976Y-207700595D01*
X384230357Y-207700595D01*
X384135119Y-207748214D01*
X384087500Y-207795833D01*
X384039880Y-207891071D01*
X384039880Y-208081547D01*
X384087500Y-208176785D01*
X384135119Y-208224404D01*
X384230357Y-208272023D01*
X384277976Y-208272023D01*
X384373214Y-208224404D01*
X384420833Y-208176785D01*
X384468452Y-208081547D01*
X384468452Y-207891071D01*
X384516071Y-207795833D01*
X384563690Y-207748214D01*
X384658928Y-207700595D01*
X384849404Y-207700595D01*
X384944642Y-207748214D01*
X384992261Y-207795833D01*
X385039880Y-207891071D01*
X385039880Y-208081547D01*
X384992261Y-208176785D01*
X384944642Y-208224404D01*
X384849404Y-208272023D01*
X384658928Y-208272023D01*
X384563690Y-208224404D01*
X384516071Y-208176785D01*
X384468452Y-208081547D01*
X384039880Y-209176785D02*
X384039880Y-208700595D01*
X384516071Y-208652976D01*
X384468452Y-208700595D01*
X384420833Y-208795833D01*
X384420833Y-209033928D01*
X384468452Y-209129166D01*
X384516071Y-209176785D01*
X384611309Y-209224404D01*
X384849404Y-209224404D01*
X384944642Y-209176785D01*
X384992261Y-209129166D01*
X385039880Y-209033928D01*
X385039880Y-208795833D01*
X384992261Y-208700595D01*
X384944642Y-208652976D01*
X385039880Y-187698214D02*
X384039880Y-187698214D01*
X384039880Y-187936309D01*
X384087500Y-188079166D01*
X384182738Y-188174404D01*
X384277976Y-188222023D01*
X384468452Y-188269642D01*
X384611309Y-188269642D01*
X384801785Y-188222023D01*
X384897023Y-188174404D01*
X384992261Y-188079166D01*
X385039880Y-187936309D01*
X385039880Y-187698214D01*
X384468452Y-188841071D02*
X384420833Y-188745833D01*
X384373214Y-188698214D01*
X384277976Y-188650595D01*
X384230357Y-188650595D01*
X384135119Y-188698214D01*
X384087500Y-188745833D01*
X384039880Y-188841071D01*
X384039880Y-189031547D01*
X384087500Y-189126785D01*
X384135119Y-189174404D01*
X384230357Y-189222023D01*
X384277976Y-189222023D01*
X384373214Y-189174404D01*
X384420833Y-189126785D01*
X384468452Y-189031547D01*
X384468452Y-188841071D01*
X384516071Y-188745833D01*
X384563690Y-188698214D01*
X384658928Y-188650595D01*
X384849404Y-188650595D01*
X384944642Y-188698214D01*
X384992261Y-188745833D01*
X385039880Y-188841071D01*
X385039880Y-189031547D01*
X384992261Y-189126785D01*
X384944642Y-189174404D01*
X384849404Y-189222023D01*
X384658928Y-189222023D01*
X384563690Y-189174404D01*
X384516071Y-189126785D01*
X384468452Y-189031547D01*
X384373214Y-190079166D02*
X385039880Y-190079166D01*
X383992261Y-189841071D02*
X384706547Y-189602976D01*
X384706547Y-190222023D01*
X385039880Y-168648214D02*
X384039880Y-168648214D01*
X384039880Y-168886309D01*
X384087500Y-169029166D01*
X384182738Y-169124404D01*
X384277976Y-169172023D01*
X384468452Y-169219642D01*
X384611309Y-169219642D01*
X384801785Y-169172023D01*
X384897023Y-169124404D01*
X384992261Y-169029166D01*
X385039880Y-168886309D01*
X385039880Y-168648214D01*
X384468452Y-169791071D02*
X384420833Y-169695833D01*
X384373214Y-169648214D01*
X384277976Y-169600595D01*
X384230357Y-169600595D01*
X384135119Y-169648214D01*
X384087500Y-169695833D01*
X384039880Y-169791071D01*
X384039880Y-169981547D01*
X384087500Y-170076785D01*
X384135119Y-170124404D01*
X384230357Y-170172023D01*
X384277976Y-170172023D01*
X384373214Y-170124404D01*
X384420833Y-170076785D01*
X384468452Y-169981547D01*
X384468452Y-169791071D01*
X384516071Y-169695833D01*
X384563690Y-169648214D01*
X384658928Y-169600595D01*
X384849404Y-169600595D01*
X384944642Y-169648214D01*
X384992261Y-169695833D01*
X385039880Y-169791071D01*
X385039880Y-169981547D01*
X384992261Y-170076785D01*
X384944642Y-170124404D01*
X384849404Y-170172023D01*
X384658928Y-170172023D01*
X384563690Y-170124404D01*
X384516071Y-170076785D01*
X384468452Y-169981547D01*
X384039880Y-170505357D02*
X384039880Y-171124404D01*
X384420833Y-170791071D01*
X384420833Y-170933928D01*
X384468452Y-171029166D01*
X384516071Y-171076785D01*
X384611309Y-171124404D01*
X384849404Y-171124404D01*
X384944642Y-171076785D01*
X384992261Y-171029166D01*
X385039880Y-170933928D01*
X385039880Y-170648214D01*
X384992261Y-170552976D01*
X384944642Y-170505357D01*
X385039880Y-149598214D02*
X384039880Y-149598214D01*
X384039880Y-149836309D01*
X384087500Y-149979166D01*
X384182738Y-150074404D01*
X384277976Y-150122023D01*
X384468452Y-150169642D01*
X384611309Y-150169642D01*
X384801785Y-150122023D01*
X384897023Y-150074404D01*
X384992261Y-149979166D01*
X385039880Y-149836309D01*
X385039880Y-149598214D01*
X384468452Y-150741071D02*
X384420833Y-150645833D01*
X384373214Y-150598214D01*
X384277976Y-150550595D01*
X384230357Y-150550595D01*
X384135119Y-150598214D01*
X384087500Y-150645833D01*
X384039880Y-150741071D01*
X384039880Y-150931547D01*
X384087500Y-151026785D01*
X384135119Y-151074404D01*
X384230357Y-151122023D01*
X384277976Y-151122023D01*
X384373214Y-151074404D01*
X384420833Y-151026785D01*
X384468452Y-150931547D01*
X384468452Y-150741071D01*
X384516071Y-150645833D01*
X384563690Y-150598214D01*
X384658928Y-150550595D01*
X384849404Y-150550595D01*
X384944642Y-150598214D01*
X384992261Y-150645833D01*
X385039880Y-150741071D01*
X385039880Y-150931547D01*
X384992261Y-151026785D01*
X384944642Y-151074404D01*
X384849404Y-151122023D01*
X384658928Y-151122023D01*
X384563690Y-151074404D01*
X384516071Y-151026785D01*
X384468452Y-150931547D01*
X384135119Y-151502976D02*
X384087500Y-151550595D01*
X384039880Y-151645833D01*
X384039880Y-151883928D01*
X384087500Y-151979166D01*
X384135119Y-152026785D01*
X384230357Y-152074404D01*
X384325595Y-152074404D01*
X384468452Y-152026785D01*
X385039880Y-151455357D01*
X385039880Y-152074404D01*
X385039880Y-130548214D02*
X384039880Y-130548214D01*
X384039880Y-130786309D01*
X384087500Y-130929166D01*
X384182738Y-131024404D01*
X384277976Y-131072023D01*
X384468452Y-131119642D01*
X384611309Y-131119642D01*
X384801785Y-131072023D01*
X384897023Y-131024404D01*
X384992261Y-130929166D01*
X385039880Y-130786309D01*
X385039880Y-130548214D01*
X384468452Y-131691071D02*
X384420833Y-131595833D01*
X384373214Y-131548214D01*
X384277976Y-131500595D01*
X384230357Y-131500595D01*
X384135119Y-131548214D01*
X384087500Y-131595833D01*
X384039880Y-131691071D01*
X384039880Y-131881547D01*
X384087500Y-131976785D01*
X384135119Y-132024404D01*
X384230357Y-132072023D01*
X384277976Y-132072023D01*
X384373214Y-132024404D01*
X384420833Y-131976785D01*
X384468452Y-131881547D01*
X384468452Y-131691071D01*
X384516071Y-131595833D01*
X384563690Y-131548214D01*
X384658928Y-131500595D01*
X384849404Y-131500595D01*
X384944642Y-131548214D01*
X384992261Y-131595833D01*
X385039880Y-131691071D01*
X385039880Y-131881547D01*
X384992261Y-131976785D01*
X384944642Y-132024404D01*
X384849404Y-132072023D01*
X384658928Y-132072023D01*
X384563690Y-132024404D01*
X384516071Y-131976785D01*
X384468452Y-131881547D01*
X385039880Y-133024404D02*
X385039880Y-132452976D01*
X385039880Y-132738690D02*
X384039880Y-132738690D01*
X384182738Y-132643452D01*
X384277976Y-132548214D01*
X384325595Y-132452976D01*
X385039880Y-111498214D02*
X384039880Y-111498214D01*
X384039880Y-111736309D01*
X384087500Y-111879166D01*
X384182738Y-111974404D01*
X384277976Y-112022023D01*
X384468452Y-112069642D01*
X384611309Y-112069642D01*
X384801785Y-112022023D01*
X384897023Y-111974404D01*
X384992261Y-111879166D01*
X385039880Y-111736309D01*
X385039880Y-111498214D01*
X384468452Y-112641071D02*
X384420833Y-112545833D01*
X384373214Y-112498214D01*
X384277976Y-112450595D01*
X384230357Y-112450595D01*
X384135119Y-112498214D01*
X384087500Y-112545833D01*
X384039880Y-112641071D01*
X384039880Y-112831547D01*
X384087500Y-112926785D01*
X384135119Y-112974404D01*
X384230357Y-113022023D01*
X384277976Y-113022023D01*
X384373214Y-112974404D01*
X384420833Y-112926785D01*
X384468452Y-112831547D01*
X384468452Y-112641071D01*
X384516071Y-112545833D01*
X384563690Y-112498214D01*
X384658928Y-112450595D01*
X384849404Y-112450595D01*
X384944642Y-112498214D01*
X384992261Y-112545833D01*
X385039880Y-112641071D01*
X385039880Y-112831547D01*
X384992261Y-112926785D01*
X384944642Y-112974404D01*
X384849404Y-113022023D01*
X384658928Y-113022023D01*
X384563690Y-112974404D01*
X384516071Y-112926785D01*
X384468452Y-112831547D01*
X384039880Y-113641071D02*
X384039880Y-113736309D01*
X384087500Y-113831547D01*
X384135119Y-113879166D01*
X384230357Y-113926785D01*
X384420833Y-113974404D01*
X384658928Y-113974404D01*
X384849404Y-113926785D01*
X384944642Y-113879166D01*
X384992261Y-113831547D01*
X385039880Y-113736309D01*
X385039880Y-113641071D01*
X384992261Y-113545833D01*
X384944642Y-113498214D01*
X384849404Y-113450595D01*
X384658928Y-113402976D01*
X384420833Y-113402976D01*
X384230357Y-113450595D01*
X384135119Y-113498214D01*
X384087500Y-113545833D01*
X384039880Y-113641071D01*
X365989880Y-206748214D02*
X364989880Y-206748214D01*
X364989880Y-206986309D01*
X365037500Y-207129166D01*
X365132738Y-207224404D01*
X365227976Y-207272023D01*
X365418452Y-207319642D01*
X365561309Y-207319642D01*
X365751785Y-207272023D01*
X365847023Y-207224404D01*
X365942261Y-207129166D01*
X365989880Y-206986309D01*
X365989880Y-206748214D01*
X364989880Y-207652976D02*
X364989880Y-208319642D01*
X365989880Y-207891071D01*
X365989880Y-208748214D02*
X365989880Y-208938690D01*
X365942261Y-209033928D01*
X365894642Y-209081547D01*
X365751785Y-209176785D01*
X365561309Y-209224404D01*
X365180357Y-209224404D01*
X365085119Y-209176785D01*
X365037500Y-209129166D01*
X364989880Y-209033928D01*
X364989880Y-208843452D01*
X365037500Y-208748214D01*
X365085119Y-208700595D01*
X365180357Y-208652976D01*
X365418452Y-208652976D01*
X365513690Y-208700595D01*
X365561309Y-208748214D01*
X365608928Y-208843452D01*
X365608928Y-209033928D01*
X365561309Y-209129166D01*
X365513690Y-209176785D01*
X365418452Y-209224404D01*
X365989880Y-187698214D02*
X364989880Y-187698214D01*
X364989880Y-187936309D01*
X365037500Y-188079166D01*
X365132738Y-188174404D01*
X365227976Y-188222023D01*
X365418452Y-188269642D01*
X365561309Y-188269642D01*
X365751785Y-188222023D01*
X365847023Y-188174404D01*
X365942261Y-188079166D01*
X365989880Y-187936309D01*
X365989880Y-187698214D01*
X364989880Y-188602976D02*
X364989880Y-189269642D01*
X365989880Y-188841071D01*
X365418452Y-189793452D02*
X365370833Y-189698214D01*
X365323214Y-189650595D01*
X365227976Y-189602976D01*
X365180357Y-189602976D01*
X365085119Y-189650595D01*
X365037500Y-189698214D01*
X364989880Y-189793452D01*
X364989880Y-189983928D01*
X365037500Y-190079166D01*
X365085119Y-190126785D01*
X365180357Y-190174404D01*
X365227976Y-190174404D01*
X365323214Y-190126785D01*
X365370833Y-190079166D01*
X365418452Y-189983928D01*
X365418452Y-189793452D01*
X365466071Y-189698214D01*
X365513690Y-189650595D01*
X365608928Y-189602976D01*
X365799404Y-189602976D01*
X365894642Y-189650595D01*
X365942261Y-189698214D01*
X365989880Y-189793452D01*
X365989880Y-189983928D01*
X365942261Y-190079166D01*
X365894642Y-190126785D01*
X365799404Y-190174404D01*
X365608928Y-190174404D01*
X365513690Y-190126785D01*
X365466071Y-190079166D01*
X365418452Y-189983928D01*
X365989880Y-111498214D02*
X364989880Y-111498214D01*
X364989880Y-111736309D01*
X365037500Y-111879166D01*
X365132738Y-111974404D01*
X365227976Y-112022023D01*
X365418452Y-112069642D01*
X365561309Y-112069642D01*
X365751785Y-112022023D01*
X365847023Y-111974404D01*
X365942261Y-111879166D01*
X365989880Y-111736309D01*
X365989880Y-111498214D01*
X364989880Y-112402976D02*
X364989880Y-113069642D01*
X365989880Y-112641071D01*
X364989880Y-113355357D02*
X364989880Y-114022023D01*
X365989880Y-113593452D01*
X346939880Y-206748214D02*
X345939880Y-206748214D01*
X345939880Y-206986309D01*
X345987500Y-207129166D01*
X346082738Y-207224404D01*
X346177976Y-207272023D01*
X346368452Y-207319642D01*
X346511309Y-207319642D01*
X346701785Y-207272023D01*
X346797023Y-207224404D01*
X346892261Y-207129166D01*
X346939880Y-206986309D01*
X346939880Y-206748214D01*
X345939880Y-207652976D02*
X345939880Y-208319642D01*
X346939880Y-207891071D01*
X345939880Y-209129166D02*
X345939880Y-208938690D01*
X345987500Y-208843452D01*
X346035119Y-208795833D01*
X346177976Y-208700595D01*
X346368452Y-208652976D01*
X346749404Y-208652976D01*
X346844642Y-208700595D01*
X346892261Y-208748214D01*
X346939880Y-208843452D01*
X346939880Y-209033928D01*
X346892261Y-209129166D01*
X346844642Y-209176785D01*
X346749404Y-209224404D01*
X346511309Y-209224404D01*
X346416071Y-209176785D01*
X346368452Y-209129166D01*
X346320833Y-209033928D01*
X346320833Y-208843452D01*
X346368452Y-208748214D01*
X346416071Y-208700595D01*
X346511309Y-208652976D01*
X361227380Y-149598214D02*
X360227380Y-149598214D01*
X360227380Y-149836309D01*
X360275000Y-149979166D01*
X360370238Y-150074404D01*
X360465476Y-150122023D01*
X360655952Y-150169642D01*
X360798809Y-150169642D01*
X360989285Y-150122023D01*
X361084523Y-150074404D01*
X361179761Y-149979166D01*
X361227380Y-149836309D01*
X361227380Y-149598214D01*
X360227380Y-150502976D02*
X360227380Y-151169642D01*
X361227380Y-150741071D01*
X360560714Y-151979166D02*
X361227380Y-151979166D01*
X360179761Y-151741071D02*
X360894047Y-151502976D01*
X360894047Y-152122023D01*
X356464880Y-130548214D02*
X355464880Y-130548214D01*
X355464880Y-130786309D01*
X355512500Y-130929166D01*
X355607738Y-131024404D01*
X355702976Y-131072023D01*
X355893452Y-131119642D01*
X356036309Y-131119642D01*
X356226785Y-131072023D01*
X356322023Y-131024404D01*
X356417261Y-130929166D01*
X356464880Y-130786309D01*
X356464880Y-130548214D01*
X355464880Y-131452976D02*
X355464880Y-132119642D01*
X356464880Y-131691071D01*
X355464880Y-132405357D02*
X355464880Y-133024404D01*
X355845833Y-132691071D01*
X355845833Y-132833928D01*
X355893452Y-132929166D01*
X355941071Y-132976785D01*
X356036309Y-133024404D01*
X356274404Y-133024404D01*
X356369642Y-132976785D01*
X356417261Y-132929166D01*
X356464880Y-132833928D01*
X356464880Y-132548214D01*
X356417261Y-132452976D01*
X356369642Y-132405357D01*
X346939880Y-111498214D02*
X345939880Y-111498214D01*
X345939880Y-111736309D01*
X345987500Y-111879166D01*
X346082738Y-111974404D01*
X346177976Y-112022023D01*
X346368452Y-112069642D01*
X346511309Y-112069642D01*
X346701785Y-112022023D01*
X346797023Y-111974404D01*
X346892261Y-111879166D01*
X346939880Y-111736309D01*
X346939880Y-111498214D01*
X345939880Y-112402976D02*
X345939880Y-113069642D01*
X346939880Y-112641071D01*
X346035119Y-113402976D02*
X345987500Y-113450595D01*
X345939880Y-113545833D01*
X345939880Y-113783928D01*
X345987500Y-113879166D01*
X346035119Y-113926785D01*
X346130357Y-113974404D01*
X346225595Y-113974404D01*
X346368452Y-113926785D01*
X346939880Y-113355357D01*
X346939880Y-113974404D01*
X327889880Y-206748214D02*
X326889880Y-206748214D01*
X326889880Y-206986309D01*
X326937500Y-207129166D01*
X327032738Y-207224404D01*
X327127976Y-207272023D01*
X327318452Y-207319642D01*
X327461309Y-207319642D01*
X327651785Y-207272023D01*
X327747023Y-207224404D01*
X327842261Y-207129166D01*
X327889880Y-206986309D01*
X327889880Y-206748214D01*
X326889880Y-207652976D02*
X326889880Y-208319642D01*
X327889880Y-207891071D01*
X327889880Y-209224404D02*
X327889880Y-208652976D01*
X327889880Y-208938690D02*
X326889880Y-208938690D01*
X327032738Y-208843452D01*
X327127976Y-208748214D01*
X327175595Y-208652976D01*
X338891369Y-190126785D02*
X339891369Y-190126785D01*
X339891369Y-189888690D01*
X339843750Y-189745833D01*
X339748511Y-189650595D01*
X339653273Y-189602976D01*
X339462797Y-189555357D01*
X339319940Y-189555357D01*
X339129464Y-189602976D01*
X339034226Y-189650595D01*
X338938988Y-189745833D01*
X338891369Y-189888690D01*
X338891369Y-190126785D01*
X339891369Y-189222023D02*
X339891369Y-188555357D01*
X338891369Y-188983928D01*
X339891369Y-187983928D02*
X339891369Y-187888690D01*
X339843750Y-187793452D01*
X339796130Y-187745833D01*
X339700892Y-187698214D01*
X339510416Y-187650595D01*
X339272321Y-187650595D01*
X339081845Y-187698214D01*
X338986607Y-187745833D01*
X338938988Y-187793452D01*
X338891369Y-187888690D01*
X338891369Y-187983928D01*
X338938988Y-188079166D01*
X338986607Y-188126785D01*
X339081845Y-188174404D01*
X339272321Y-188222023D01*
X339510416Y-188222023D01*
X339700892Y-188174404D01*
X339796130Y-188126785D01*
X339843750Y-188079166D01*
X339891369Y-187983928D01*
X354083630Y-168648214D02*
X353083630Y-168648214D01*
X353083630Y-168886309D01*
X353131250Y-169029166D01*
X353226488Y-169124404D01*
X353321726Y-169172023D01*
X353512202Y-169219642D01*
X353655059Y-169219642D01*
X353845535Y-169172023D01*
X353940773Y-169124404D01*
X354036011Y-169029166D01*
X354083630Y-168886309D01*
X354083630Y-168648214D01*
X353083630Y-170076785D02*
X353083630Y-169886309D01*
X353131250Y-169791071D01*
X353178869Y-169743452D01*
X353321726Y-169648214D01*
X353512202Y-169600595D01*
X353893154Y-169600595D01*
X353988392Y-169648214D01*
X354036011Y-169695833D01*
X354083630Y-169791071D01*
X354083630Y-169981547D01*
X354036011Y-170076785D01*
X353988392Y-170124404D01*
X353893154Y-170172023D01*
X353655059Y-170172023D01*
X353559821Y-170124404D01*
X353512202Y-170076785D01*
X353464583Y-169981547D01*
X353464583Y-169791071D01*
X353512202Y-169695833D01*
X353559821Y-169648214D01*
X353655059Y-169600595D01*
X354083630Y-170648214D02*
X354083630Y-170838690D01*
X354036011Y-170933928D01*
X353988392Y-170981547D01*
X353845535Y-171076785D01*
X353655059Y-171124404D01*
X353274107Y-171124404D01*
X353178869Y-171076785D01*
X353131250Y-171029166D01*
X353083630Y-170933928D01*
X353083630Y-170743452D01*
X353131250Y-170648214D01*
X353178869Y-170600595D01*
X353274107Y-170552976D01*
X353512202Y-170552976D01*
X353607440Y-170600595D01*
X353655059Y-170648214D01*
X353702678Y-170743452D01*
X353702678Y-170933928D01*
X353655059Y-171029166D01*
X353607440Y-171076785D01*
X353512202Y-171124404D01*
X337414880Y-149598214D02*
X336414880Y-149598214D01*
X336414880Y-149836309D01*
X336462500Y-149979166D01*
X336557738Y-150074404D01*
X336652976Y-150122023D01*
X336843452Y-150169642D01*
X336986309Y-150169642D01*
X337176785Y-150122023D01*
X337272023Y-150074404D01*
X337367261Y-149979166D01*
X337414880Y-149836309D01*
X337414880Y-149598214D01*
X336414880Y-151026785D02*
X336414880Y-150836309D01*
X336462500Y-150741071D01*
X336510119Y-150693452D01*
X336652976Y-150598214D01*
X336843452Y-150550595D01*
X337224404Y-150550595D01*
X337319642Y-150598214D01*
X337367261Y-150645833D01*
X337414880Y-150741071D01*
X337414880Y-150931547D01*
X337367261Y-151026785D01*
X337319642Y-151074404D01*
X337224404Y-151122023D01*
X336986309Y-151122023D01*
X336891071Y-151074404D01*
X336843452Y-151026785D01*
X336795833Y-150931547D01*
X336795833Y-150741071D01*
X336843452Y-150645833D01*
X336891071Y-150598214D01*
X336986309Y-150550595D01*
X336843452Y-151693452D02*
X336795833Y-151598214D01*
X336748214Y-151550595D01*
X336652976Y-151502976D01*
X336605357Y-151502976D01*
X336510119Y-151550595D01*
X336462500Y-151598214D01*
X336414880Y-151693452D01*
X336414880Y-151883928D01*
X336462500Y-151979166D01*
X336510119Y-152026785D01*
X336605357Y-152074404D01*
X336652976Y-152074404D01*
X336748214Y-152026785D01*
X336795833Y-151979166D01*
X336843452Y-151883928D01*
X336843452Y-151693452D01*
X336891071Y-151598214D01*
X336938690Y-151550595D01*
X337033928Y-151502976D01*
X337224404Y-151502976D01*
X337319642Y-151550595D01*
X337367261Y-151598214D01*
X337414880Y-151693452D01*
X337414880Y-151883928D01*
X337367261Y-151979166D01*
X337319642Y-152026785D01*
X337224404Y-152074404D01*
X337033928Y-152074404D01*
X336938690Y-152026785D01*
X336891071Y-151979166D01*
X336843452Y-151883928D01*
X327889880Y-130548214D02*
X326889880Y-130548214D01*
X326889880Y-130786309D01*
X326937500Y-130929166D01*
X327032738Y-131024404D01*
X327127976Y-131072023D01*
X327318452Y-131119642D01*
X327461309Y-131119642D01*
X327651785Y-131072023D01*
X327747023Y-131024404D01*
X327842261Y-130929166D01*
X327889880Y-130786309D01*
X327889880Y-130548214D01*
X326889880Y-131976785D02*
X326889880Y-131786309D01*
X326937500Y-131691071D01*
X326985119Y-131643452D01*
X327127976Y-131548214D01*
X327318452Y-131500595D01*
X327699404Y-131500595D01*
X327794642Y-131548214D01*
X327842261Y-131595833D01*
X327889880Y-131691071D01*
X327889880Y-131881547D01*
X327842261Y-131976785D01*
X327794642Y-132024404D01*
X327699404Y-132072023D01*
X327461309Y-132072023D01*
X327366071Y-132024404D01*
X327318452Y-131976785D01*
X327270833Y-131881547D01*
X327270833Y-131691071D01*
X327318452Y-131595833D01*
X327366071Y-131548214D01*
X327461309Y-131500595D01*
X326889880Y-132405357D02*
X326889880Y-133072023D01*
X327889880Y-132643452D01*
X327889880Y-111498214D02*
X326889880Y-111498214D01*
X326889880Y-111736309D01*
X326937500Y-111879166D01*
X327032738Y-111974404D01*
X327127976Y-112022023D01*
X327318452Y-112069642D01*
X327461309Y-112069642D01*
X327651785Y-112022023D01*
X327747023Y-111974404D01*
X327842261Y-111879166D01*
X327889880Y-111736309D01*
X327889880Y-111498214D01*
X326889880Y-112926785D02*
X326889880Y-112736309D01*
X326937500Y-112641071D01*
X326985119Y-112593452D01*
X327127976Y-112498214D01*
X327318452Y-112450595D01*
X327699404Y-112450595D01*
X327794642Y-112498214D01*
X327842261Y-112545833D01*
X327889880Y-112641071D01*
X327889880Y-112831547D01*
X327842261Y-112926785D01*
X327794642Y-112974404D01*
X327699404Y-113022023D01*
X327461309Y-113022023D01*
X327366071Y-112974404D01*
X327318452Y-112926785D01*
X327270833Y-112831547D01*
X327270833Y-112641071D01*
X327318452Y-112545833D01*
X327366071Y-112498214D01*
X327461309Y-112450595D01*
X326889880Y-113879166D02*
X326889880Y-113688690D01*
X326937500Y-113593452D01*
X326985119Y-113545833D01*
X327127976Y-113450595D01*
X327318452Y-113402976D01*
X327699404Y-113402976D01*
X327794642Y-113450595D01*
X327842261Y-113498214D01*
X327889880Y-113593452D01*
X327889880Y-113783928D01*
X327842261Y-113879166D01*
X327794642Y-113926785D01*
X327699404Y-113974404D01*
X327461309Y-113974404D01*
X327366071Y-113926785D01*
X327318452Y-113879166D01*
X327270833Y-113783928D01*
X327270833Y-113593452D01*
X327318452Y-113498214D01*
X327366071Y-113450595D01*
X327461309Y-113402976D01*
X308839880Y-206748214D02*
X307839880Y-206748214D01*
X307839880Y-206986309D01*
X307887500Y-207129166D01*
X307982738Y-207224404D01*
X308077976Y-207272023D01*
X308268452Y-207319642D01*
X308411309Y-207319642D01*
X308601785Y-207272023D01*
X308697023Y-207224404D01*
X308792261Y-207129166D01*
X308839880Y-206986309D01*
X308839880Y-206748214D01*
X307839880Y-208176785D02*
X307839880Y-207986309D01*
X307887500Y-207891071D01*
X307935119Y-207843452D01*
X308077976Y-207748214D01*
X308268452Y-207700595D01*
X308649404Y-207700595D01*
X308744642Y-207748214D01*
X308792261Y-207795833D01*
X308839880Y-207891071D01*
X308839880Y-208081547D01*
X308792261Y-208176785D01*
X308744642Y-208224404D01*
X308649404Y-208272023D01*
X308411309Y-208272023D01*
X308316071Y-208224404D01*
X308268452Y-208176785D01*
X308220833Y-208081547D01*
X308220833Y-207891071D01*
X308268452Y-207795833D01*
X308316071Y-207748214D01*
X308411309Y-207700595D01*
X307839880Y-209176785D02*
X307839880Y-208700595D01*
X308316071Y-208652976D01*
X308268452Y-208700595D01*
X308220833Y-208795833D01*
X308220833Y-209033928D01*
X308268452Y-209129166D01*
X308316071Y-209176785D01*
X308411309Y-209224404D01*
X308649404Y-209224404D01*
X308744642Y-209176785D01*
X308792261Y-209129166D01*
X308839880Y-209033928D01*
X308839880Y-208795833D01*
X308792261Y-208700595D01*
X308744642Y-208652976D01*
X312697619Y-190126785D02*
X313697619Y-190126785D01*
X313697619Y-189888690D01*
X313650000Y-189745833D01*
X313554761Y-189650595D01*
X313459523Y-189602976D01*
X313269047Y-189555357D01*
X313126190Y-189555357D01*
X312935714Y-189602976D01*
X312840476Y-189650595D01*
X312745238Y-189745833D01*
X312697619Y-189888690D01*
X312697619Y-190126785D01*
X313697619Y-188698214D02*
X313697619Y-188888690D01*
X313650000Y-188983928D01*
X313602380Y-189031547D01*
X313459523Y-189126785D01*
X313269047Y-189174404D01*
X312888095Y-189174404D01*
X312792857Y-189126785D01*
X312745238Y-189079166D01*
X312697619Y-188983928D01*
X312697619Y-188793452D01*
X312745238Y-188698214D01*
X312792857Y-188650595D01*
X312888095Y-188602976D01*
X313126190Y-188602976D01*
X313221428Y-188650595D01*
X313269047Y-188698214D01*
X313316666Y-188793452D01*
X313316666Y-188983928D01*
X313269047Y-189079166D01*
X313221428Y-189126785D01*
X313126190Y-189174404D01*
X313364285Y-187745833D02*
X312697619Y-187745833D01*
X313745238Y-187983928D02*
X313030952Y-188222023D01*
X313030952Y-187602976D01*
X323127380Y-168648214D02*
X322127380Y-168648214D01*
X322127380Y-168886309D01*
X322175000Y-169029166D01*
X322270238Y-169124404D01*
X322365476Y-169172023D01*
X322555952Y-169219642D01*
X322698809Y-169219642D01*
X322889285Y-169172023D01*
X322984523Y-169124404D01*
X323079761Y-169029166D01*
X323127380Y-168886309D01*
X323127380Y-168648214D01*
X322127380Y-170076785D02*
X322127380Y-169886309D01*
X322175000Y-169791071D01*
X322222619Y-169743452D01*
X322365476Y-169648214D01*
X322555952Y-169600595D01*
X322936904Y-169600595D01*
X323032142Y-169648214D01*
X323079761Y-169695833D01*
X323127380Y-169791071D01*
X323127380Y-169981547D01*
X323079761Y-170076785D01*
X323032142Y-170124404D01*
X322936904Y-170172023D01*
X322698809Y-170172023D01*
X322603571Y-170124404D01*
X322555952Y-170076785D01*
X322508333Y-169981547D01*
X322508333Y-169791071D01*
X322555952Y-169695833D01*
X322603571Y-169648214D01*
X322698809Y-169600595D01*
X322127380Y-170505357D02*
X322127380Y-171124404D01*
X322508333Y-170791071D01*
X322508333Y-170933928D01*
X322555952Y-171029166D01*
X322603571Y-171076785D01*
X322698809Y-171124404D01*
X322936904Y-171124404D01*
X323032142Y-171076785D01*
X323079761Y-171029166D01*
X323127380Y-170933928D01*
X323127380Y-170648214D01*
X323079761Y-170552976D01*
X323032142Y-170505357D01*
X318364880Y-149598214D02*
X317364880Y-149598214D01*
X317364880Y-149836309D01*
X317412500Y-149979166D01*
X317507738Y-150074404D01*
X317602976Y-150122023D01*
X317793452Y-150169642D01*
X317936309Y-150169642D01*
X318126785Y-150122023D01*
X318222023Y-150074404D01*
X318317261Y-149979166D01*
X318364880Y-149836309D01*
X318364880Y-149598214D01*
X317364880Y-151026785D02*
X317364880Y-150836309D01*
X317412500Y-150741071D01*
X317460119Y-150693452D01*
X317602976Y-150598214D01*
X317793452Y-150550595D01*
X318174404Y-150550595D01*
X318269642Y-150598214D01*
X318317261Y-150645833D01*
X318364880Y-150741071D01*
X318364880Y-150931547D01*
X318317261Y-151026785D01*
X318269642Y-151074404D01*
X318174404Y-151122023D01*
X317936309Y-151122023D01*
X317841071Y-151074404D01*
X317793452Y-151026785D01*
X317745833Y-150931547D01*
X317745833Y-150741071D01*
X317793452Y-150645833D01*
X317841071Y-150598214D01*
X317936309Y-150550595D01*
X317460119Y-151502976D02*
X317412500Y-151550595D01*
X317364880Y-151645833D01*
X317364880Y-151883928D01*
X317412500Y-151979166D01*
X317460119Y-152026785D01*
X317555357Y-152074404D01*
X317650595Y-152074404D01*
X317793452Y-152026785D01*
X318364880Y-151455357D01*
X318364880Y-152074404D01*
X308839880Y-130548214D02*
X307839880Y-130548214D01*
X307839880Y-130786309D01*
X307887500Y-130929166D01*
X307982738Y-131024404D01*
X308077976Y-131072023D01*
X308268452Y-131119642D01*
X308411309Y-131119642D01*
X308601785Y-131072023D01*
X308697023Y-131024404D01*
X308792261Y-130929166D01*
X308839880Y-130786309D01*
X308839880Y-130548214D01*
X307839880Y-131976785D02*
X307839880Y-131786309D01*
X307887500Y-131691071D01*
X307935119Y-131643452D01*
X308077976Y-131548214D01*
X308268452Y-131500595D01*
X308649404Y-131500595D01*
X308744642Y-131548214D01*
X308792261Y-131595833D01*
X308839880Y-131691071D01*
X308839880Y-131881547D01*
X308792261Y-131976785D01*
X308744642Y-132024404D01*
X308649404Y-132072023D01*
X308411309Y-132072023D01*
X308316071Y-132024404D01*
X308268452Y-131976785D01*
X308220833Y-131881547D01*
X308220833Y-131691071D01*
X308268452Y-131595833D01*
X308316071Y-131548214D01*
X308411309Y-131500595D01*
X308839880Y-133024404D02*
X308839880Y-132452976D01*
X308839880Y-132738690D02*
X307839880Y-132738690D01*
X307982738Y-132643452D01*
X308077976Y-132548214D01*
X308125595Y-132452976D01*
X308839880Y-111498214D02*
X307839880Y-111498214D01*
X307839880Y-111736309D01*
X307887500Y-111879166D01*
X307982738Y-111974404D01*
X308077976Y-112022023D01*
X308268452Y-112069642D01*
X308411309Y-112069642D01*
X308601785Y-112022023D01*
X308697023Y-111974404D01*
X308792261Y-111879166D01*
X308839880Y-111736309D01*
X308839880Y-111498214D01*
X307839880Y-112926785D02*
X307839880Y-112736309D01*
X307887500Y-112641071D01*
X307935119Y-112593452D01*
X308077976Y-112498214D01*
X308268452Y-112450595D01*
X308649404Y-112450595D01*
X308744642Y-112498214D01*
X308792261Y-112545833D01*
X308839880Y-112641071D01*
X308839880Y-112831547D01*
X308792261Y-112926785D01*
X308744642Y-112974404D01*
X308649404Y-113022023D01*
X308411309Y-113022023D01*
X308316071Y-112974404D01*
X308268452Y-112926785D01*
X308220833Y-112831547D01*
X308220833Y-112641071D01*
X308268452Y-112545833D01*
X308316071Y-112498214D01*
X308411309Y-112450595D01*
X307839880Y-113641071D02*
X307839880Y-113736309D01*
X307887500Y-113831547D01*
X307935119Y-113879166D01*
X308030357Y-113926785D01*
X308220833Y-113974404D01*
X308458928Y-113974404D01*
X308649404Y-113926785D01*
X308744642Y-113879166D01*
X308792261Y-113831547D01*
X308839880Y-113736309D01*
X308839880Y-113641071D01*
X308792261Y-113545833D01*
X308744642Y-113498214D01*
X308649404Y-113450595D01*
X308458928Y-113402976D01*
X308220833Y-113402976D01*
X308030357Y-113450595D01*
X307935119Y-113498214D01*
X307887500Y-113545833D01*
X307839880Y-113641071D01*
X289789880Y-206748214D02*
X288789880Y-206748214D01*
X288789880Y-206986309D01*
X288837500Y-207129166D01*
X288932738Y-207224404D01*
X289027976Y-207272023D01*
X289218452Y-207319642D01*
X289361309Y-207319642D01*
X289551785Y-207272023D01*
X289647023Y-207224404D01*
X289742261Y-207129166D01*
X289789880Y-206986309D01*
X289789880Y-206748214D01*
X288789880Y-208224404D02*
X288789880Y-207748214D01*
X289266071Y-207700595D01*
X289218452Y-207748214D01*
X289170833Y-207843452D01*
X289170833Y-208081547D01*
X289218452Y-208176785D01*
X289266071Y-208224404D01*
X289361309Y-208272023D01*
X289599404Y-208272023D01*
X289694642Y-208224404D01*
X289742261Y-208176785D01*
X289789880Y-208081547D01*
X289789880Y-207843452D01*
X289742261Y-207748214D01*
X289694642Y-207700595D01*
X289789880Y-208748214D02*
X289789880Y-208938690D01*
X289742261Y-209033928D01*
X289694642Y-209081547D01*
X289551785Y-209176785D01*
X289361309Y-209224404D01*
X288980357Y-209224404D01*
X288885119Y-209176785D01*
X288837500Y-209129166D01*
X288789880Y-209033928D01*
X288789880Y-208843452D01*
X288837500Y-208748214D01*
X288885119Y-208700595D01*
X288980357Y-208652976D01*
X289218452Y-208652976D01*
X289313690Y-208700595D01*
X289361309Y-208748214D01*
X289408928Y-208843452D01*
X289408928Y-209033928D01*
X289361309Y-209129166D01*
X289313690Y-209176785D01*
X289218452Y-209224404D01*
X294552380Y-187698214D02*
X293552380Y-187698214D01*
X293552380Y-187936309D01*
X293600000Y-188079166D01*
X293695238Y-188174404D01*
X293790476Y-188222023D01*
X293980952Y-188269642D01*
X294123809Y-188269642D01*
X294314285Y-188222023D01*
X294409523Y-188174404D01*
X294504761Y-188079166D01*
X294552380Y-187936309D01*
X294552380Y-187698214D01*
X293552380Y-189174404D02*
X293552380Y-188698214D01*
X294028571Y-188650595D01*
X293980952Y-188698214D01*
X293933333Y-188793452D01*
X293933333Y-189031547D01*
X293980952Y-189126785D01*
X294028571Y-189174404D01*
X294123809Y-189222023D01*
X294361904Y-189222023D01*
X294457142Y-189174404D01*
X294504761Y-189126785D01*
X294552380Y-189031547D01*
X294552380Y-188793452D01*
X294504761Y-188698214D01*
X294457142Y-188650595D01*
X293980952Y-189793452D02*
X293933333Y-189698214D01*
X293885714Y-189650595D01*
X293790476Y-189602976D01*
X293742857Y-189602976D01*
X293647619Y-189650595D01*
X293600000Y-189698214D01*
X293552380Y-189793452D01*
X293552380Y-189983928D01*
X293600000Y-190079166D01*
X293647619Y-190126785D01*
X293742857Y-190174404D01*
X293790476Y-190174404D01*
X293885714Y-190126785D01*
X293933333Y-190079166D01*
X293980952Y-189983928D01*
X293980952Y-189793452D01*
X294028571Y-189698214D01*
X294076190Y-189650595D01*
X294171428Y-189602976D01*
X294361904Y-189602976D01*
X294457142Y-189650595D01*
X294504761Y-189698214D01*
X294552380Y-189793452D01*
X294552380Y-189983928D01*
X294504761Y-190079166D01*
X294457142Y-190126785D01*
X294361904Y-190174404D01*
X294171428Y-190174404D01*
X294076190Y-190126785D01*
X294028571Y-190079166D01*
X293980952Y-189983928D01*
X304077380Y-168648214D02*
X303077380Y-168648214D01*
X303077380Y-168886309D01*
X303125000Y-169029166D01*
X303220238Y-169124404D01*
X303315476Y-169172023D01*
X303505952Y-169219642D01*
X303648809Y-169219642D01*
X303839285Y-169172023D01*
X303934523Y-169124404D01*
X304029761Y-169029166D01*
X304077380Y-168886309D01*
X304077380Y-168648214D01*
X303077380Y-170124404D02*
X303077380Y-169648214D01*
X303553571Y-169600595D01*
X303505952Y-169648214D01*
X303458333Y-169743452D01*
X303458333Y-169981547D01*
X303505952Y-170076785D01*
X303553571Y-170124404D01*
X303648809Y-170172023D01*
X303886904Y-170172023D01*
X303982142Y-170124404D01*
X304029761Y-170076785D01*
X304077380Y-169981547D01*
X304077380Y-169743452D01*
X304029761Y-169648214D01*
X303982142Y-169600595D01*
X303077380Y-170505357D02*
X303077380Y-171172023D01*
X304077380Y-170743452D01*
X299314880Y-149598214D02*
X298314880Y-149598214D01*
X298314880Y-149836309D01*
X298362500Y-149979166D01*
X298457738Y-150074404D01*
X298552976Y-150122023D01*
X298743452Y-150169642D01*
X298886309Y-150169642D01*
X299076785Y-150122023D01*
X299172023Y-150074404D01*
X299267261Y-149979166D01*
X299314880Y-149836309D01*
X299314880Y-149598214D01*
X298314880Y-151074404D02*
X298314880Y-150598214D01*
X298791071Y-150550595D01*
X298743452Y-150598214D01*
X298695833Y-150693452D01*
X298695833Y-150931547D01*
X298743452Y-151026785D01*
X298791071Y-151074404D01*
X298886309Y-151122023D01*
X299124404Y-151122023D01*
X299219642Y-151074404D01*
X299267261Y-151026785D01*
X299314880Y-150931547D01*
X299314880Y-150693452D01*
X299267261Y-150598214D01*
X299219642Y-150550595D01*
X298314880Y-151979166D02*
X298314880Y-151788690D01*
X298362500Y-151693452D01*
X298410119Y-151645833D01*
X298552976Y-151550595D01*
X298743452Y-151502976D01*
X299124404Y-151502976D01*
X299219642Y-151550595D01*
X299267261Y-151598214D01*
X299314880Y-151693452D01*
X299314880Y-151883928D01*
X299267261Y-151979166D01*
X299219642Y-152026785D01*
X299124404Y-152074404D01*
X298886309Y-152074404D01*
X298791071Y-152026785D01*
X298743452Y-151979166D01*
X298695833Y-151883928D01*
X298695833Y-151693452D01*
X298743452Y-151598214D01*
X298791071Y-151550595D01*
X298886309Y-151502976D01*
X289789880Y-130548214D02*
X288789880Y-130548214D01*
X288789880Y-130786309D01*
X288837500Y-130929166D01*
X288932738Y-131024404D01*
X289027976Y-131072023D01*
X289218452Y-131119642D01*
X289361309Y-131119642D01*
X289551785Y-131072023D01*
X289647023Y-131024404D01*
X289742261Y-130929166D01*
X289789880Y-130786309D01*
X289789880Y-130548214D01*
X288789880Y-132024404D02*
X288789880Y-131548214D01*
X289266071Y-131500595D01*
X289218452Y-131548214D01*
X289170833Y-131643452D01*
X289170833Y-131881547D01*
X289218452Y-131976785D01*
X289266071Y-132024404D01*
X289361309Y-132072023D01*
X289599404Y-132072023D01*
X289694642Y-132024404D01*
X289742261Y-131976785D01*
X289789880Y-131881547D01*
X289789880Y-131643452D01*
X289742261Y-131548214D01*
X289694642Y-131500595D01*
X288789880Y-132976785D02*
X288789880Y-132500595D01*
X289266071Y-132452976D01*
X289218452Y-132500595D01*
X289170833Y-132595833D01*
X289170833Y-132833928D01*
X289218452Y-132929166D01*
X289266071Y-132976785D01*
X289361309Y-133024404D01*
X289599404Y-133024404D01*
X289694642Y-132976785D01*
X289742261Y-132929166D01*
X289789880Y-132833928D01*
X289789880Y-132595833D01*
X289742261Y-132500595D01*
X289694642Y-132452976D01*
X289789880Y-111560714D02*
X288789880Y-111560714D01*
X288789880Y-111798809D01*
X288837500Y-111941666D01*
X288932738Y-112036904D01*
X289027976Y-112084523D01*
X289218452Y-112132142D01*
X289361309Y-112132142D01*
X289551785Y-112084523D01*
X289647023Y-112036904D01*
X289742261Y-111941666D01*
X289789880Y-111798809D01*
X289789880Y-111560714D01*
X288789880Y-113036904D02*
X288789880Y-112560714D01*
X289266071Y-112513095D01*
X289218452Y-112560714D01*
X289170833Y-112655952D01*
X289170833Y-112894047D01*
X289218452Y-112989285D01*
X289266071Y-113036904D01*
X289361309Y-113084523D01*
X289599404Y-113084523D01*
X289694642Y-113036904D01*
X289742261Y-112989285D01*
X289789880Y-112894047D01*
X289789880Y-112655952D01*
X289742261Y-112560714D01*
X289694642Y-112513095D01*
X289123214Y-113941666D02*
X289789880Y-113941666D01*
X288742261Y-113703571D02*
X289456547Y-113465476D01*
X289456547Y-114084523D01*
X274597619Y-190126785D02*
X275597619Y-190126785D01*
X275597619Y-189888690D01*
X275550000Y-189745833D01*
X275454761Y-189650595D01*
X275359523Y-189602976D01*
X275169047Y-189555357D01*
X275026190Y-189555357D01*
X274835714Y-189602976D01*
X274740476Y-189650595D01*
X274645238Y-189745833D01*
X274597619Y-189888690D01*
X274597619Y-190126785D01*
X275597619Y-188650595D02*
X275597619Y-189126785D01*
X275121428Y-189174404D01*
X275169047Y-189126785D01*
X275216666Y-189031547D01*
X275216666Y-188793452D01*
X275169047Y-188698214D01*
X275121428Y-188650595D01*
X275026190Y-188602976D01*
X274788095Y-188602976D01*
X274692857Y-188650595D01*
X274645238Y-188698214D01*
X274597619Y-188793452D01*
X274597619Y-189031547D01*
X274645238Y-189126785D01*
X274692857Y-189174404D01*
X275597619Y-188269642D02*
X275597619Y-187650595D01*
X275216666Y-187983928D01*
X275216666Y-187841071D01*
X275169047Y-187745833D01*
X275121428Y-187698214D01*
X275026190Y-187650595D01*
X274788095Y-187650595D01*
X274692857Y-187698214D01*
X274645238Y-187745833D01*
X274597619Y-187841071D01*
X274597619Y-188126785D01*
X274645238Y-188222023D01*
X274692857Y-188269642D01*
X285027380Y-168648214D02*
X284027380Y-168648214D01*
X284027380Y-168886309D01*
X284075000Y-169029166D01*
X284170238Y-169124404D01*
X284265476Y-169172023D01*
X284455952Y-169219642D01*
X284598809Y-169219642D01*
X284789285Y-169172023D01*
X284884523Y-169124404D01*
X284979761Y-169029166D01*
X285027380Y-168886309D01*
X285027380Y-168648214D01*
X284027380Y-170124404D02*
X284027380Y-169648214D01*
X284503571Y-169600595D01*
X284455952Y-169648214D01*
X284408333Y-169743452D01*
X284408333Y-169981547D01*
X284455952Y-170076785D01*
X284503571Y-170124404D01*
X284598809Y-170172023D01*
X284836904Y-170172023D01*
X284932142Y-170124404D01*
X284979761Y-170076785D01*
X285027380Y-169981547D01*
X285027380Y-169743452D01*
X284979761Y-169648214D01*
X284932142Y-169600595D01*
X284122619Y-170552976D02*
X284075000Y-170600595D01*
X284027380Y-170695833D01*
X284027380Y-170933928D01*
X284075000Y-171029166D01*
X284122619Y-171076785D01*
X284217857Y-171124404D01*
X284313095Y-171124404D01*
X284455952Y-171076785D01*
X285027380Y-170505357D01*
X285027380Y-171124404D01*
X280264880Y-149598214D02*
X279264880Y-149598214D01*
X279264880Y-149836309D01*
X279312500Y-149979166D01*
X279407738Y-150074404D01*
X279502976Y-150122023D01*
X279693452Y-150169642D01*
X279836309Y-150169642D01*
X280026785Y-150122023D01*
X280122023Y-150074404D01*
X280217261Y-149979166D01*
X280264880Y-149836309D01*
X280264880Y-149598214D01*
X279264880Y-151074404D02*
X279264880Y-150598214D01*
X279741071Y-150550595D01*
X279693452Y-150598214D01*
X279645833Y-150693452D01*
X279645833Y-150931547D01*
X279693452Y-151026785D01*
X279741071Y-151074404D01*
X279836309Y-151122023D01*
X280074404Y-151122023D01*
X280169642Y-151074404D01*
X280217261Y-151026785D01*
X280264880Y-150931547D01*
X280264880Y-150693452D01*
X280217261Y-150598214D01*
X280169642Y-150550595D01*
X280264880Y-152074404D02*
X280264880Y-151502976D01*
X280264880Y-151788690D02*
X279264880Y-151788690D01*
X279407738Y-151693452D01*
X279502976Y-151598214D01*
X279550595Y-151502976D01*
X270739880Y-130548214D02*
X269739880Y-130548214D01*
X269739880Y-130786309D01*
X269787500Y-130929166D01*
X269882738Y-131024404D01*
X269977976Y-131072023D01*
X270168452Y-131119642D01*
X270311309Y-131119642D01*
X270501785Y-131072023D01*
X270597023Y-131024404D01*
X270692261Y-130929166D01*
X270739880Y-130786309D01*
X270739880Y-130548214D01*
X269739880Y-132024404D02*
X269739880Y-131548214D01*
X270216071Y-131500595D01*
X270168452Y-131548214D01*
X270120833Y-131643452D01*
X270120833Y-131881547D01*
X270168452Y-131976785D01*
X270216071Y-132024404D01*
X270311309Y-132072023D01*
X270549404Y-132072023D01*
X270644642Y-132024404D01*
X270692261Y-131976785D01*
X270739880Y-131881547D01*
X270739880Y-131643452D01*
X270692261Y-131548214D01*
X270644642Y-131500595D01*
X269739880Y-132691071D02*
X269739880Y-132786309D01*
X269787500Y-132881547D01*
X269835119Y-132929166D01*
X269930357Y-132976785D01*
X270120833Y-133024404D01*
X270358928Y-133024404D01*
X270549404Y-132976785D01*
X270644642Y-132929166D01*
X270692261Y-132881547D01*
X270739880Y-132786309D01*
X270739880Y-132691071D01*
X270692261Y-132595833D01*
X270644642Y-132548214D01*
X270549404Y-132500595D01*
X270358928Y-132452976D01*
X270120833Y-132452976D01*
X269930357Y-132500595D01*
X269835119Y-132548214D01*
X269787500Y-132595833D01*
X269739880Y-132691071D01*
X270739880Y-111498214D02*
X269739880Y-111498214D01*
X269739880Y-111736309D01*
X269787500Y-111879166D01*
X269882738Y-111974404D01*
X269977976Y-112022023D01*
X270168452Y-112069642D01*
X270311309Y-112069642D01*
X270501785Y-112022023D01*
X270597023Y-111974404D01*
X270692261Y-111879166D01*
X270739880Y-111736309D01*
X270739880Y-111498214D01*
X270073214Y-112926785D02*
X270739880Y-112926785D01*
X269692261Y-112688690D02*
X270406547Y-112450595D01*
X270406547Y-113069642D01*
X270739880Y-113498214D02*
X270739880Y-113688690D01*
X270692261Y-113783928D01*
X270644642Y-113831547D01*
X270501785Y-113926785D01*
X270311309Y-113974404D01*
X269930357Y-113974404D01*
X269835119Y-113926785D01*
X269787500Y-113879166D01*
X269739880Y-113783928D01*
X269739880Y-113593452D01*
X269787500Y-113498214D01*
X269835119Y-113450595D01*
X269930357Y-113402976D01*
X270168452Y-113402976D01*
X270263690Y-113450595D01*
X270311309Y-113498214D01*
X270358928Y-113593452D01*
X270358928Y-113783928D01*
X270311309Y-113879166D01*
X270263690Y-113926785D01*
X270168452Y-113974404D01*
X256452380Y-187698214D02*
X255452380Y-187698214D01*
X255452380Y-187936309D01*
X255500000Y-188079166D01*
X255595238Y-188174404D01*
X255690476Y-188222023D01*
X255880952Y-188269642D01*
X256023809Y-188269642D01*
X256214285Y-188222023D01*
X256309523Y-188174404D01*
X256404761Y-188079166D01*
X256452380Y-187936309D01*
X256452380Y-187698214D01*
X255785714Y-189126785D02*
X256452380Y-189126785D01*
X255404761Y-188888690D02*
X256119047Y-188650595D01*
X256119047Y-189269642D01*
X255880952Y-189793452D02*
X255833333Y-189698214D01*
X255785714Y-189650595D01*
X255690476Y-189602976D01*
X255642857Y-189602976D01*
X255547619Y-189650595D01*
X255500000Y-189698214D01*
X255452380Y-189793452D01*
X255452380Y-189983928D01*
X255500000Y-190079166D01*
X255547619Y-190126785D01*
X255642857Y-190174404D01*
X255690476Y-190174404D01*
X255785714Y-190126785D01*
X255833333Y-190079166D01*
X255880952Y-189983928D01*
X255880952Y-189793452D01*
X255928571Y-189698214D01*
X255976190Y-189650595D01*
X256071428Y-189602976D01*
X256261904Y-189602976D01*
X256357142Y-189650595D01*
X256404761Y-189698214D01*
X256452380Y-189793452D01*
X256452380Y-189983928D01*
X256404761Y-190079166D01*
X256357142Y-190126785D01*
X256261904Y-190174404D01*
X256071428Y-190174404D01*
X255976190Y-190126785D01*
X255928571Y-190079166D01*
X255880952Y-189983928D01*
X265977380Y-168648214D02*
X264977380Y-168648214D01*
X264977380Y-168886309D01*
X265025000Y-169029166D01*
X265120238Y-169124404D01*
X265215476Y-169172023D01*
X265405952Y-169219642D01*
X265548809Y-169219642D01*
X265739285Y-169172023D01*
X265834523Y-169124404D01*
X265929761Y-169029166D01*
X265977380Y-168886309D01*
X265977380Y-168648214D01*
X265310714Y-170076785D02*
X265977380Y-170076785D01*
X264929761Y-169838690D02*
X265644047Y-169600595D01*
X265644047Y-170219642D01*
X264977380Y-170505357D02*
X264977380Y-171172023D01*
X265977380Y-170743452D01*
X261214880Y-149598214D02*
X260214880Y-149598214D01*
X260214880Y-149836309D01*
X260262500Y-149979166D01*
X260357738Y-150074404D01*
X260452976Y-150122023D01*
X260643452Y-150169642D01*
X260786309Y-150169642D01*
X260976785Y-150122023D01*
X261072023Y-150074404D01*
X261167261Y-149979166D01*
X261214880Y-149836309D01*
X261214880Y-149598214D01*
X260548214Y-151026785D02*
X261214880Y-151026785D01*
X260167261Y-150788690D02*
X260881547Y-150550595D01*
X260881547Y-151169642D01*
X260214880Y-151979166D02*
X260214880Y-151788690D01*
X260262500Y-151693452D01*
X260310119Y-151645833D01*
X260452976Y-151550595D01*
X260643452Y-151502976D01*
X261024404Y-151502976D01*
X261119642Y-151550595D01*
X261167261Y-151598214D01*
X261214880Y-151693452D01*
X261214880Y-151883928D01*
X261167261Y-151979166D01*
X261119642Y-152026785D01*
X261024404Y-152074404D01*
X260786309Y-152074404D01*
X260691071Y-152026785D01*
X260643452Y-151979166D01*
X260595833Y-151883928D01*
X260595833Y-151693452D01*
X260643452Y-151598214D01*
X260691071Y-151550595D01*
X260786309Y-151502976D01*
X251689880Y-130548214D02*
X250689880Y-130548214D01*
X250689880Y-130786309D01*
X250737500Y-130929166D01*
X250832738Y-131024404D01*
X250927976Y-131072023D01*
X251118452Y-131119642D01*
X251261309Y-131119642D01*
X251451785Y-131072023D01*
X251547023Y-131024404D01*
X251642261Y-130929166D01*
X251689880Y-130786309D01*
X251689880Y-130548214D01*
X251023214Y-131976785D02*
X251689880Y-131976785D01*
X250642261Y-131738690D02*
X251356547Y-131500595D01*
X251356547Y-132119642D01*
X250689880Y-132976785D02*
X250689880Y-132500595D01*
X251166071Y-132452976D01*
X251118452Y-132500595D01*
X251070833Y-132595833D01*
X251070833Y-132833928D01*
X251118452Y-132929166D01*
X251166071Y-132976785D01*
X251261309Y-133024404D01*
X251499404Y-133024404D01*
X251594642Y-132976785D01*
X251642261Y-132929166D01*
X251689880Y-132833928D01*
X251689880Y-132595833D01*
X251642261Y-132500595D01*
X251594642Y-132452976D01*
X251689880Y-111498214D02*
X250689880Y-111498214D01*
X250689880Y-111736309D01*
X250737500Y-111879166D01*
X250832738Y-111974404D01*
X250927976Y-112022023D01*
X251118452Y-112069642D01*
X251261309Y-112069642D01*
X251451785Y-112022023D01*
X251547023Y-111974404D01*
X251642261Y-111879166D01*
X251689880Y-111736309D01*
X251689880Y-111498214D01*
X251023214Y-112926785D02*
X251689880Y-112926785D01*
X250642261Y-112688690D02*
X251356547Y-112450595D01*
X251356547Y-113069642D01*
X251023214Y-113879166D02*
X251689880Y-113879166D01*
X250642261Y-113641071D02*
X251356547Y-113402976D01*
X251356547Y-114022023D01*
X236497619Y-190126785D02*
X237497619Y-190126785D01*
X237497619Y-189888690D01*
X237450000Y-189745833D01*
X237354761Y-189650595D01*
X237259523Y-189602976D01*
X237069047Y-189555357D01*
X236926190Y-189555357D01*
X236735714Y-189602976D01*
X236640476Y-189650595D01*
X236545238Y-189745833D01*
X236497619Y-189888690D01*
X236497619Y-190126785D01*
X237164285Y-188698214D02*
X236497619Y-188698214D01*
X237545238Y-188936309D02*
X236830952Y-189174404D01*
X236830952Y-188555357D01*
X237497619Y-188269642D02*
X237497619Y-187650595D01*
X237116666Y-187983928D01*
X237116666Y-187841071D01*
X237069047Y-187745833D01*
X237021428Y-187698214D01*
X236926190Y-187650595D01*
X236688095Y-187650595D01*
X236592857Y-187698214D01*
X236545238Y-187745833D01*
X236497619Y-187841071D01*
X236497619Y-188126785D01*
X236545238Y-188222023D01*
X236592857Y-188269642D01*
X246927380Y-168648214D02*
X245927380Y-168648214D01*
X245927380Y-168886309D01*
X245975000Y-169029166D01*
X246070238Y-169124404D01*
X246165476Y-169172023D01*
X246355952Y-169219642D01*
X246498809Y-169219642D01*
X246689285Y-169172023D01*
X246784523Y-169124404D01*
X246879761Y-169029166D01*
X246927380Y-168886309D01*
X246927380Y-168648214D01*
X246260714Y-170076785D02*
X246927380Y-170076785D01*
X245879761Y-169838690D02*
X246594047Y-169600595D01*
X246594047Y-170219642D01*
X246022619Y-170552976D02*
X245975000Y-170600595D01*
X245927380Y-170695833D01*
X245927380Y-170933928D01*
X245975000Y-171029166D01*
X246022619Y-171076785D01*
X246117857Y-171124404D01*
X246213095Y-171124404D01*
X246355952Y-171076785D01*
X246927380Y-170505357D01*
X246927380Y-171124404D01*
X242164880Y-149598214D02*
X241164880Y-149598214D01*
X241164880Y-149836309D01*
X241212500Y-149979166D01*
X241307738Y-150074404D01*
X241402976Y-150122023D01*
X241593452Y-150169642D01*
X241736309Y-150169642D01*
X241926785Y-150122023D01*
X242022023Y-150074404D01*
X242117261Y-149979166D01*
X242164880Y-149836309D01*
X242164880Y-149598214D01*
X241498214Y-151026785D02*
X242164880Y-151026785D01*
X241117261Y-150788690D02*
X241831547Y-150550595D01*
X241831547Y-151169642D01*
X242164880Y-152074404D02*
X242164880Y-151502976D01*
X242164880Y-151788690D02*
X241164880Y-151788690D01*
X241307738Y-151693452D01*
X241402976Y-151598214D01*
X241450595Y-151502976D01*
X232639880Y-130548214D02*
X231639880Y-130548214D01*
X231639880Y-130786309D01*
X231687500Y-130929166D01*
X231782738Y-131024404D01*
X231877976Y-131072023D01*
X232068452Y-131119642D01*
X232211309Y-131119642D01*
X232401785Y-131072023D01*
X232497023Y-131024404D01*
X232592261Y-130929166D01*
X232639880Y-130786309D01*
X232639880Y-130548214D01*
X231973214Y-131976785D02*
X232639880Y-131976785D01*
X231592261Y-131738690D02*
X232306547Y-131500595D01*
X232306547Y-132119642D01*
X231639880Y-132691071D02*
X231639880Y-132786309D01*
X231687500Y-132881547D01*
X231735119Y-132929166D01*
X231830357Y-132976785D01*
X232020833Y-133024404D01*
X232258928Y-133024404D01*
X232449404Y-132976785D01*
X232544642Y-132929166D01*
X232592261Y-132881547D01*
X232639880Y-132786309D01*
X232639880Y-132691071D01*
X232592261Y-132595833D01*
X232544642Y-132548214D01*
X232449404Y-132500595D01*
X232258928Y-132452976D01*
X232020833Y-132452976D01*
X231830357Y-132500595D01*
X231735119Y-132548214D01*
X231687500Y-132595833D01*
X231639880Y-132691071D01*
X232639880Y-111498214D02*
X231639880Y-111498214D01*
X231639880Y-111736309D01*
X231687500Y-111879166D01*
X231782738Y-111974404D01*
X231877976Y-112022023D01*
X232068452Y-112069642D01*
X232211309Y-112069642D01*
X232401785Y-112022023D01*
X232497023Y-111974404D01*
X232592261Y-111879166D01*
X232639880Y-111736309D01*
X232639880Y-111498214D01*
X231639880Y-112402976D02*
X231639880Y-113022023D01*
X232020833Y-112688690D01*
X232020833Y-112831547D01*
X232068452Y-112926785D01*
X232116071Y-112974404D01*
X232211309Y-113022023D01*
X232449404Y-113022023D01*
X232544642Y-112974404D01*
X232592261Y-112926785D01*
X232639880Y-112831547D01*
X232639880Y-112545833D01*
X232592261Y-112450595D01*
X232544642Y-112402976D01*
X232639880Y-113498214D02*
X232639880Y-113688690D01*
X232592261Y-113783928D01*
X232544642Y-113831547D01*
X232401785Y-113926785D01*
X232211309Y-113974404D01*
X231830357Y-113974404D01*
X231735119Y-113926785D01*
X231687500Y-113879166D01*
X231639880Y-113783928D01*
X231639880Y-113593452D01*
X231687500Y-113498214D01*
X231735119Y-113450595D01*
X231830357Y-113402976D01*
X232068452Y-113402976D01*
X232163690Y-113450595D01*
X232211309Y-113498214D01*
X232258928Y-113593452D01*
X232258928Y-113783928D01*
X232211309Y-113879166D01*
X232163690Y-113926785D01*
X232068452Y-113974404D01*
X227877380Y-206748214D02*
X226877380Y-206748214D01*
X226877380Y-206986309D01*
X226925000Y-207129166D01*
X227020238Y-207224404D01*
X227115476Y-207272023D01*
X227305952Y-207319642D01*
X227448809Y-207319642D01*
X227639285Y-207272023D01*
X227734523Y-207224404D01*
X227829761Y-207129166D01*
X227877380Y-206986309D01*
X227877380Y-206748214D01*
X226877380Y-207652976D02*
X226877380Y-208272023D01*
X227258333Y-207938690D01*
X227258333Y-208081547D01*
X227305952Y-208176785D01*
X227353571Y-208224404D01*
X227448809Y-208272023D01*
X227686904Y-208272023D01*
X227782142Y-208224404D01*
X227829761Y-208176785D01*
X227877380Y-208081547D01*
X227877380Y-207795833D01*
X227829761Y-207700595D01*
X227782142Y-207652976D01*
X227305952Y-208843452D02*
X227258333Y-208748214D01*
X227210714Y-208700595D01*
X227115476Y-208652976D01*
X227067857Y-208652976D01*
X226972619Y-208700595D01*
X226925000Y-208748214D01*
X226877380Y-208843452D01*
X226877380Y-209033928D01*
X226925000Y-209129166D01*
X226972619Y-209176785D01*
X227067857Y-209224404D01*
X227115476Y-209224404D01*
X227210714Y-209176785D01*
X227258333Y-209129166D01*
X227305952Y-209033928D01*
X227305952Y-208843452D01*
X227353571Y-208748214D01*
X227401190Y-208700595D01*
X227496428Y-208652976D01*
X227686904Y-208652976D01*
X227782142Y-208700595D01*
X227829761Y-208748214D01*
X227877380Y-208843452D01*
X227877380Y-209033928D01*
X227829761Y-209129166D01*
X227782142Y-209176785D01*
X227686904Y-209224404D01*
X227496428Y-209224404D01*
X227401190Y-209176785D01*
X227353571Y-209129166D01*
X227305952Y-209033928D01*
X218352380Y-187698214D02*
X217352380Y-187698214D01*
X217352380Y-187936309D01*
X217400000Y-188079166D01*
X217495238Y-188174404D01*
X217590476Y-188222023D01*
X217780952Y-188269642D01*
X217923809Y-188269642D01*
X218114285Y-188222023D01*
X218209523Y-188174404D01*
X218304761Y-188079166D01*
X218352380Y-187936309D01*
X218352380Y-187698214D01*
X217352380Y-188602976D02*
X217352380Y-189222023D01*
X217733333Y-188888690D01*
X217733333Y-189031547D01*
X217780952Y-189126785D01*
X217828571Y-189174404D01*
X217923809Y-189222023D01*
X218161904Y-189222023D01*
X218257142Y-189174404D01*
X218304761Y-189126785D01*
X218352380Y-189031547D01*
X218352380Y-188745833D01*
X218304761Y-188650595D01*
X218257142Y-188602976D01*
X217352380Y-189555357D02*
X217352380Y-190222023D01*
X218352380Y-189793452D01*
X227877380Y-168648214D02*
X226877380Y-168648214D01*
X226877380Y-168886309D01*
X226925000Y-169029166D01*
X227020238Y-169124404D01*
X227115476Y-169172023D01*
X227305952Y-169219642D01*
X227448809Y-169219642D01*
X227639285Y-169172023D01*
X227734523Y-169124404D01*
X227829761Y-169029166D01*
X227877380Y-168886309D01*
X227877380Y-168648214D01*
X226877380Y-169552976D02*
X226877380Y-170172023D01*
X227258333Y-169838690D01*
X227258333Y-169981547D01*
X227305952Y-170076785D01*
X227353571Y-170124404D01*
X227448809Y-170172023D01*
X227686904Y-170172023D01*
X227782142Y-170124404D01*
X227829761Y-170076785D01*
X227877380Y-169981547D01*
X227877380Y-169695833D01*
X227829761Y-169600595D01*
X227782142Y-169552976D01*
X226877380Y-171029166D02*
X226877380Y-170838690D01*
X226925000Y-170743452D01*
X226972619Y-170695833D01*
X227115476Y-170600595D01*
X227305952Y-170552976D01*
X227686904Y-170552976D01*
X227782142Y-170600595D01*
X227829761Y-170648214D01*
X227877380Y-170743452D01*
X227877380Y-170933928D01*
X227829761Y-171029166D01*
X227782142Y-171076785D01*
X227686904Y-171124404D01*
X227448809Y-171124404D01*
X227353571Y-171076785D01*
X227305952Y-171029166D01*
X227258333Y-170933928D01*
X227258333Y-170743452D01*
X227305952Y-170648214D01*
X227353571Y-170600595D01*
X227448809Y-170552976D01*
X223114880Y-149598214D02*
X222114880Y-149598214D01*
X222114880Y-149836309D01*
X222162500Y-149979166D01*
X222257738Y-150074404D01*
X222352976Y-150122023D01*
X222543452Y-150169642D01*
X222686309Y-150169642D01*
X222876785Y-150122023D01*
X222972023Y-150074404D01*
X223067261Y-149979166D01*
X223114880Y-149836309D01*
X223114880Y-149598214D01*
X222114880Y-150502976D02*
X222114880Y-151122023D01*
X222495833Y-150788690D01*
X222495833Y-150931547D01*
X222543452Y-151026785D01*
X222591071Y-151074404D01*
X222686309Y-151122023D01*
X222924404Y-151122023D01*
X223019642Y-151074404D01*
X223067261Y-151026785D01*
X223114880Y-150931547D01*
X223114880Y-150645833D01*
X223067261Y-150550595D01*
X223019642Y-150502976D01*
X222114880Y-152026785D02*
X222114880Y-151550595D01*
X222591071Y-151502976D01*
X222543452Y-151550595D01*
X222495833Y-151645833D01*
X222495833Y-151883928D01*
X222543452Y-151979166D01*
X222591071Y-152026785D01*
X222686309Y-152074404D01*
X222924404Y-152074404D01*
X223019642Y-152026785D01*
X223067261Y-151979166D01*
X223114880Y-151883928D01*
X223114880Y-151645833D01*
X223067261Y-151550595D01*
X223019642Y-151502976D01*
X213589880Y-130548214D02*
X212589880Y-130548214D01*
X212589880Y-130786309D01*
X212637500Y-130929166D01*
X212732738Y-131024404D01*
X212827976Y-131072023D01*
X213018452Y-131119642D01*
X213161309Y-131119642D01*
X213351785Y-131072023D01*
X213447023Y-131024404D01*
X213542261Y-130929166D01*
X213589880Y-130786309D01*
X213589880Y-130548214D01*
X212589880Y-131452976D02*
X212589880Y-132072023D01*
X212970833Y-131738690D01*
X212970833Y-131881547D01*
X213018452Y-131976785D01*
X213066071Y-132024404D01*
X213161309Y-132072023D01*
X213399404Y-132072023D01*
X213494642Y-132024404D01*
X213542261Y-131976785D01*
X213589880Y-131881547D01*
X213589880Y-131595833D01*
X213542261Y-131500595D01*
X213494642Y-131452976D01*
X212923214Y-132929166D02*
X213589880Y-132929166D01*
X212542261Y-132691071D02*
X213256547Y-132452976D01*
X213256547Y-133072023D01*
X213589880Y-111498214D02*
X212589880Y-111498214D01*
X212589880Y-111736309D01*
X212637500Y-111879166D01*
X212732738Y-111974404D01*
X212827976Y-112022023D01*
X213018452Y-112069642D01*
X213161309Y-112069642D01*
X213351785Y-112022023D01*
X213447023Y-111974404D01*
X213542261Y-111879166D01*
X213589880Y-111736309D01*
X213589880Y-111498214D01*
X212589880Y-112402976D02*
X212589880Y-113022023D01*
X212970833Y-112688690D01*
X212970833Y-112831547D01*
X213018452Y-112926785D01*
X213066071Y-112974404D01*
X213161309Y-113022023D01*
X213399404Y-113022023D01*
X213494642Y-112974404D01*
X213542261Y-112926785D01*
X213589880Y-112831547D01*
X213589880Y-112545833D01*
X213542261Y-112450595D01*
X213494642Y-112402976D01*
X212589880Y-113355357D02*
X212589880Y-113974404D01*
X212970833Y-113641071D01*
X212970833Y-113783928D01*
X213018452Y-113879166D01*
X213066071Y-113926785D01*
X213161309Y-113974404D01*
X213399404Y-113974404D01*
X213494642Y-113926785D01*
X213542261Y-113879166D01*
X213589880Y-113783928D01*
X213589880Y-113498214D01*
X213542261Y-113402976D01*
X213494642Y-113355357D01*
X198397619Y-190126785D02*
X199397619Y-190126785D01*
X199397619Y-189888690D01*
X199350000Y-189745833D01*
X199254761Y-189650595D01*
X199159523Y-189602976D01*
X198969047Y-189555357D01*
X198826190Y-189555357D01*
X198635714Y-189602976D01*
X198540476Y-189650595D01*
X198445238Y-189745833D01*
X198397619Y-189888690D01*
X198397619Y-190126785D01*
X199397619Y-189222023D02*
X199397619Y-188602976D01*
X199016666Y-188936309D01*
X199016666Y-188793452D01*
X198969047Y-188698214D01*
X198921428Y-188650595D01*
X198826190Y-188602976D01*
X198588095Y-188602976D01*
X198492857Y-188650595D01*
X198445238Y-188698214D01*
X198397619Y-188793452D01*
X198397619Y-189079166D01*
X198445238Y-189174404D01*
X198492857Y-189222023D01*
X199302380Y-188222023D02*
X199350000Y-188174404D01*
X199397619Y-188079166D01*
X199397619Y-187841071D01*
X199350000Y-187745833D01*
X199302380Y-187698214D01*
X199207142Y-187650595D01*
X199111904Y-187650595D01*
X198969047Y-187698214D01*
X198397619Y-188269642D01*
X198397619Y-187650595D01*
X208827380Y-168648214D02*
X207827380Y-168648214D01*
X207827380Y-168886309D01*
X207875000Y-169029166D01*
X207970238Y-169124404D01*
X208065476Y-169172023D01*
X208255952Y-169219642D01*
X208398809Y-169219642D01*
X208589285Y-169172023D01*
X208684523Y-169124404D01*
X208779761Y-169029166D01*
X208827380Y-168886309D01*
X208827380Y-168648214D01*
X207827380Y-169552976D02*
X207827380Y-170172023D01*
X208208333Y-169838690D01*
X208208333Y-169981547D01*
X208255952Y-170076785D01*
X208303571Y-170124404D01*
X208398809Y-170172023D01*
X208636904Y-170172023D01*
X208732142Y-170124404D01*
X208779761Y-170076785D01*
X208827380Y-169981547D01*
X208827380Y-169695833D01*
X208779761Y-169600595D01*
X208732142Y-169552976D01*
X208827380Y-171124404D02*
X208827380Y-170552976D01*
X208827380Y-170838690D02*
X207827380Y-170838690D01*
X207970238Y-170743452D01*
X208065476Y-170648214D01*
X208113095Y-170552976D01*
X204064880Y-149598214D02*
X203064880Y-149598214D01*
X203064880Y-149836309D01*
X203112500Y-149979166D01*
X203207738Y-150074404D01*
X203302976Y-150122023D01*
X203493452Y-150169642D01*
X203636309Y-150169642D01*
X203826785Y-150122023D01*
X203922023Y-150074404D01*
X204017261Y-149979166D01*
X204064880Y-149836309D01*
X204064880Y-149598214D01*
X203064880Y-150502976D02*
X203064880Y-151122023D01*
X203445833Y-150788690D01*
X203445833Y-150931547D01*
X203493452Y-151026785D01*
X203541071Y-151074404D01*
X203636309Y-151122023D01*
X203874404Y-151122023D01*
X203969642Y-151074404D01*
X204017261Y-151026785D01*
X204064880Y-150931547D01*
X204064880Y-150645833D01*
X204017261Y-150550595D01*
X203969642Y-150502976D01*
X203064880Y-151741071D02*
X203064880Y-151836309D01*
X203112500Y-151931547D01*
X203160119Y-151979166D01*
X203255357Y-152026785D01*
X203445833Y-152074404D01*
X203683928Y-152074404D01*
X203874404Y-152026785D01*
X203969642Y-151979166D01*
X204017261Y-151931547D01*
X204064880Y-151836309D01*
X204064880Y-151741071D01*
X204017261Y-151645833D01*
X203969642Y-151598214D01*
X203874404Y-151550595D01*
X203683928Y-151502976D01*
X203445833Y-151502976D01*
X203255357Y-151550595D01*
X203160119Y-151598214D01*
X203112500Y-151645833D01*
X203064880Y-151741071D01*
X194539880Y-130548214D02*
X193539880Y-130548214D01*
X193539880Y-130786309D01*
X193587500Y-130929166D01*
X193682738Y-131024404D01*
X193777976Y-131072023D01*
X193968452Y-131119642D01*
X194111309Y-131119642D01*
X194301785Y-131072023D01*
X194397023Y-131024404D01*
X194492261Y-130929166D01*
X194539880Y-130786309D01*
X194539880Y-130548214D01*
X193635119Y-131500595D02*
X193587500Y-131548214D01*
X193539880Y-131643452D01*
X193539880Y-131881547D01*
X193587500Y-131976785D01*
X193635119Y-132024404D01*
X193730357Y-132072023D01*
X193825595Y-132072023D01*
X193968452Y-132024404D01*
X194539880Y-131452976D01*
X194539880Y-132072023D01*
X194539880Y-132548214D02*
X194539880Y-132738690D01*
X194492261Y-132833928D01*
X194444642Y-132881547D01*
X194301785Y-132976785D01*
X194111309Y-133024404D01*
X193730357Y-133024404D01*
X193635119Y-132976785D01*
X193587500Y-132929166D01*
X193539880Y-132833928D01*
X193539880Y-132643452D01*
X193587500Y-132548214D01*
X193635119Y-132500595D01*
X193730357Y-132452976D01*
X193968452Y-132452976D01*
X194063690Y-132500595D01*
X194111309Y-132548214D01*
X194158928Y-132643452D01*
X194158928Y-132833928D01*
X194111309Y-132929166D01*
X194063690Y-132976785D01*
X193968452Y-133024404D01*
X194539880Y-111498214D02*
X193539880Y-111498214D01*
X193539880Y-111736309D01*
X193587500Y-111879166D01*
X193682738Y-111974404D01*
X193777976Y-112022023D01*
X193968452Y-112069642D01*
X194111309Y-112069642D01*
X194301785Y-112022023D01*
X194397023Y-111974404D01*
X194492261Y-111879166D01*
X194539880Y-111736309D01*
X194539880Y-111498214D01*
X193635119Y-112450595D02*
X193587500Y-112498214D01*
X193539880Y-112593452D01*
X193539880Y-112831547D01*
X193587500Y-112926785D01*
X193635119Y-112974404D01*
X193730357Y-113022023D01*
X193825595Y-113022023D01*
X193968452Y-112974404D01*
X194539880Y-112402976D01*
X194539880Y-113022023D01*
X193968452Y-113593452D02*
X193920833Y-113498214D01*
X193873214Y-113450595D01*
X193777976Y-113402976D01*
X193730357Y-113402976D01*
X193635119Y-113450595D01*
X193587500Y-113498214D01*
X193539880Y-113593452D01*
X193539880Y-113783928D01*
X193587500Y-113879166D01*
X193635119Y-113926785D01*
X193730357Y-113974404D01*
X193777976Y-113974404D01*
X193873214Y-113926785D01*
X193920833Y-113879166D01*
X193968452Y-113783928D01*
X193968452Y-113593452D01*
X194016071Y-113498214D01*
X194063690Y-113450595D01*
X194158928Y-113402976D01*
X194349404Y-113402976D01*
X194444642Y-113450595D01*
X194492261Y-113498214D01*
X194539880Y-113593452D01*
X194539880Y-113783928D01*
X194492261Y-113879166D01*
X194444642Y-113926785D01*
X194349404Y-113974404D01*
X194158928Y-113974404D01*
X194063690Y-113926785D01*
X194016071Y-113879166D01*
X193968452Y-113783928D01*
X180252380Y-187698214D02*
X179252380Y-187698214D01*
X179252380Y-187936309D01*
X179300000Y-188079166D01*
X179395238Y-188174404D01*
X179490476Y-188222023D01*
X179680952Y-188269642D01*
X179823809Y-188269642D01*
X180014285Y-188222023D01*
X180109523Y-188174404D01*
X180204761Y-188079166D01*
X180252380Y-187936309D01*
X180252380Y-187698214D01*
X179347619Y-188650595D02*
X179300000Y-188698214D01*
X179252380Y-188793452D01*
X179252380Y-189031547D01*
X179300000Y-189126785D01*
X179347619Y-189174404D01*
X179442857Y-189222023D01*
X179538095Y-189222023D01*
X179680952Y-189174404D01*
X180252380Y-188602976D01*
X180252380Y-189222023D01*
X179252380Y-189555357D02*
X179252380Y-190222023D01*
X180252380Y-189793452D01*
X189777380Y-168648214D02*
X188777380Y-168648214D01*
X188777380Y-168886309D01*
X188825000Y-169029166D01*
X188920238Y-169124404D01*
X189015476Y-169172023D01*
X189205952Y-169219642D01*
X189348809Y-169219642D01*
X189539285Y-169172023D01*
X189634523Y-169124404D01*
X189729761Y-169029166D01*
X189777380Y-168886309D01*
X189777380Y-168648214D01*
X188872619Y-169600595D02*
X188825000Y-169648214D01*
X188777380Y-169743452D01*
X188777380Y-169981547D01*
X188825000Y-170076785D01*
X188872619Y-170124404D01*
X188967857Y-170172023D01*
X189063095Y-170172023D01*
X189205952Y-170124404D01*
X189777380Y-169552976D01*
X189777380Y-170172023D01*
X188777380Y-171029166D02*
X188777380Y-170838690D01*
X188825000Y-170743452D01*
X188872619Y-170695833D01*
X189015476Y-170600595D01*
X189205952Y-170552976D01*
X189586904Y-170552976D01*
X189682142Y-170600595D01*
X189729761Y-170648214D01*
X189777380Y-170743452D01*
X189777380Y-170933928D01*
X189729761Y-171029166D01*
X189682142Y-171076785D01*
X189586904Y-171124404D01*
X189348809Y-171124404D01*
X189253571Y-171076785D01*
X189205952Y-171029166D01*
X189158333Y-170933928D01*
X189158333Y-170743452D01*
X189205952Y-170648214D01*
X189253571Y-170600595D01*
X189348809Y-170552976D01*
X185014880Y-149598214D02*
X184014880Y-149598214D01*
X184014880Y-149836309D01*
X184062500Y-149979166D01*
X184157738Y-150074404D01*
X184252976Y-150122023D01*
X184443452Y-150169642D01*
X184586309Y-150169642D01*
X184776785Y-150122023D01*
X184872023Y-150074404D01*
X184967261Y-149979166D01*
X185014880Y-149836309D01*
X185014880Y-149598214D01*
X184110119Y-150550595D02*
X184062500Y-150598214D01*
X184014880Y-150693452D01*
X184014880Y-150931547D01*
X184062500Y-151026785D01*
X184110119Y-151074404D01*
X184205357Y-151122023D01*
X184300595Y-151122023D01*
X184443452Y-151074404D01*
X185014880Y-150502976D01*
X185014880Y-151122023D01*
X184014880Y-152026785D02*
X184014880Y-151550595D01*
X184491071Y-151502976D01*
X184443452Y-151550595D01*
X184395833Y-151645833D01*
X184395833Y-151883928D01*
X184443452Y-151979166D01*
X184491071Y-152026785D01*
X184586309Y-152074404D01*
X184824404Y-152074404D01*
X184919642Y-152026785D01*
X184967261Y-151979166D01*
X185014880Y-151883928D01*
X185014880Y-151645833D01*
X184967261Y-151550595D01*
X184919642Y-151502976D01*
X175489880Y-130548214D02*
X174489880Y-130548214D01*
X174489880Y-130786309D01*
X174537500Y-130929166D01*
X174632738Y-131024404D01*
X174727976Y-131072023D01*
X174918452Y-131119642D01*
X175061309Y-131119642D01*
X175251785Y-131072023D01*
X175347023Y-131024404D01*
X175442261Y-130929166D01*
X175489880Y-130786309D01*
X175489880Y-130548214D01*
X174585119Y-131500595D02*
X174537500Y-131548214D01*
X174489880Y-131643452D01*
X174489880Y-131881547D01*
X174537500Y-131976785D01*
X174585119Y-132024404D01*
X174680357Y-132072023D01*
X174775595Y-132072023D01*
X174918452Y-132024404D01*
X175489880Y-131452976D01*
X175489880Y-132072023D01*
X174823214Y-132929166D02*
X175489880Y-132929166D01*
X174442261Y-132691071D02*
X175156547Y-132452976D01*
X175156547Y-133072023D01*
X175489880Y-111498214D02*
X174489880Y-111498214D01*
X174489880Y-111736309D01*
X174537500Y-111879166D01*
X174632738Y-111974404D01*
X174727976Y-112022023D01*
X174918452Y-112069642D01*
X175061309Y-112069642D01*
X175251785Y-112022023D01*
X175347023Y-111974404D01*
X175442261Y-111879166D01*
X175489880Y-111736309D01*
X175489880Y-111498214D01*
X174585119Y-112450595D02*
X174537500Y-112498214D01*
X174489880Y-112593452D01*
X174489880Y-112831547D01*
X174537500Y-112926785D01*
X174585119Y-112974404D01*
X174680357Y-113022023D01*
X174775595Y-113022023D01*
X174918452Y-112974404D01*
X175489880Y-112402976D01*
X175489880Y-113022023D01*
X174489880Y-113355357D02*
X174489880Y-113974404D01*
X174870833Y-113641071D01*
X174870833Y-113783928D01*
X174918452Y-113879166D01*
X174966071Y-113926785D01*
X175061309Y-113974404D01*
X175299404Y-113974404D01*
X175394642Y-113926785D01*
X175442261Y-113879166D01*
X175489880Y-113783928D01*
X175489880Y-113498214D01*
X175442261Y-113402976D01*
X175394642Y-113355357D01*
X160297619Y-190126785D02*
X161297619Y-190126785D01*
X161297619Y-189888690D01*
X161250000Y-189745833D01*
X161154761Y-189650595D01*
X161059523Y-189602976D01*
X160869047Y-189555357D01*
X160726190Y-189555357D01*
X160535714Y-189602976D01*
X160440476Y-189650595D01*
X160345238Y-189745833D01*
X160297619Y-189888690D01*
X160297619Y-190126785D01*
X161202380Y-189174404D02*
X161250000Y-189126785D01*
X161297619Y-189031547D01*
X161297619Y-188793452D01*
X161250000Y-188698214D01*
X161202380Y-188650595D01*
X161107142Y-188602976D01*
X161011904Y-188602976D01*
X160869047Y-188650595D01*
X160297619Y-189222023D01*
X160297619Y-188602976D01*
X161202380Y-188222023D02*
X161250000Y-188174404D01*
X161297619Y-188079166D01*
X161297619Y-187841071D01*
X161250000Y-187745833D01*
X161202380Y-187698214D01*
X161107142Y-187650595D01*
X161011904Y-187650595D01*
X160869047Y-187698214D01*
X160297619Y-188269642D01*
X160297619Y-187650595D01*
X170727380Y-168648214D02*
X169727380Y-168648214D01*
X169727380Y-168886309D01*
X169775000Y-169029166D01*
X169870238Y-169124404D01*
X169965476Y-169172023D01*
X170155952Y-169219642D01*
X170298809Y-169219642D01*
X170489285Y-169172023D01*
X170584523Y-169124404D01*
X170679761Y-169029166D01*
X170727380Y-168886309D01*
X170727380Y-168648214D01*
X169822619Y-169600595D02*
X169775000Y-169648214D01*
X169727380Y-169743452D01*
X169727380Y-169981547D01*
X169775000Y-170076785D01*
X169822619Y-170124404D01*
X169917857Y-170172023D01*
X170013095Y-170172023D01*
X170155952Y-170124404D01*
X170727380Y-169552976D01*
X170727380Y-170172023D01*
X170727380Y-171124404D02*
X170727380Y-170552976D01*
X170727380Y-170838690D02*
X169727380Y-170838690D01*
X169870238Y-170743452D01*
X169965476Y-170648214D01*
X170013095Y-170552976D01*
X165964880Y-149598214D02*
X164964880Y-149598214D01*
X164964880Y-149836309D01*
X165012500Y-149979166D01*
X165107738Y-150074404D01*
X165202976Y-150122023D01*
X165393452Y-150169642D01*
X165536309Y-150169642D01*
X165726785Y-150122023D01*
X165822023Y-150074404D01*
X165917261Y-149979166D01*
X165964880Y-149836309D01*
X165964880Y-149598214D01*
X165060119Y-150550595D02*
X165012500Y-150598214D01*
X164964880Y-150693452D01*
X164964880Y-150931547D01*
X165012500Y-151026785D01*
X165060119Y-151074404D01*
X165155357Y-151122023D01*
X165250595Y-151122023D01*
X165393452Y-151074404D01*
X165964880Y-150502976D01*
X165964880Y-151122023D01*
X164964880Y-151741071D02*
X164964880Y-151836309D01*
X165012500Y-151931547D01*
X165060119Y-151979166D01*
X165155357Y-152026785D01*
X165345833Y-152074404D01*
X165583928Y-152074404D01*
X165774404Y-152026785D01*
X165869642Y-151979166D01*
X165917261Y-151931547D01*
X165964880Y-151836309D01*
X165964880Y-151741071D01*
X165917261Y-151645833D01*
X165869642Y-151598214D01*
X165774404Y-151550595D01*
X165583928Y-151502976D01*
X165345833Y-151502976D01*
X165155357Y-151550595D01*
X165060119Y-151598214D01*
X165012500Y-151645833D01*
X164964880Y-151741071D01*
X156439880Y-130548214D02*
X155439880Y-130548214D01*
X155439880Y-130786309D01*
X155487500Y-130929166D01*
X155582738Y-131024404D01*
X155677976Y-131072023D01*
X155868452Y-131119642D01*
X156011309Y-131119642D01*
X156201785Y-131072023D01*
X156297023Y-131024404D01*
X156392261Y-130929166D01*
X156439880Y-130786309D01*
X156439880Y-130548214D01*
X156439880Y-132072023D02*
X156439880Y-131500595D01*
X156439880Y-131786309D02*
X155439880Y-131786309D01*
X155582738Y-131691071D01*
X155677976Y-131595833D01*
X155725595Y-131500595D01*
X156439880Y-132548214D02*
X156439880Y-132738690D01*
X156392261Y-132833928D01*
X156344642Y-132881547D01*
X156201785Y-132976785D01*
X156011309Y-133024404D01*
X155630357Y-133024404D01*
X155535119Y-132976785D01*
X155487500Y-132929166D01*
X155439880Y-132833928D01*
X155439880Y-132643452D01*
X155487500Y-132548214D01*
X155535119Y-132500595D01*
X155630357Y-132452976D01*
X155868452Y-132452976D01*
X155963690Y-132500595D01*
X156011309Y-132548214D01*
X156058928Y-132643452D01*
X156058928Y-132833928D01*
X156011309Y-132929166D01*
X155963690Y-132976785D01*
X155868452Y-133024404D01*
X156439880Y-111498214D02*
X155439880Y-111498214D01*
X155439880Y-111736309D01*
X155487500Y-111879166D01*
X155582738Y-111974404D01*
X155677976Y-112022023D01*
X155868452Y-112069642D01*
X156011309Y-112069642D01*
X156201785Y-112022023D01*
X156297023Y-111974404D01*
X156392261Y-111879166D01*
X156439880Y-111736309D01*
X156439880Y-111498214D01*
X156439880Y-113022023D02*
X156439880Y-112450595D01*
X156439880Y-112736309D02*
X155439880Y-112736309D01*
X155582738Y-112641071D01*
X155677976Y-112545833D01*
X155725595Y-112450595D01*
X155868452Y-113593452D02*
X155820833Y-113498214D01*
X155773214Y-113450595D01*
X155677976Y-113402976D01*
X155630357Y-113402976D01*
X155535119Y-113450595D01*
X155487500Y-113498214D01*
X155439880Y-113593452D01*
X155439880Y-113783928D01*
X155487500Y-113879166D01*
X155535119Y-113926785D01*
X155630357Y-113974404D01*
X155677976Y-113974404D01*
X155773214Y-113926785D01*
X155820833Y-113879166D01*
X155868452Y-113783928D01*
X155868452Y-113593452D01*
X155916071Y-113498214D01*
X155963690Y-113450595D01*
X156058928Y-113402976D01*
X156249404Y-113402976D01*
X156344642Y-113450595D01*
X156392261Y-113498214D01*
X156439880Y-113593452D01*
X156439880Y-113783928D01*
X156392261Y-113879166D01*
X156344642Y-113926785D01*
X156249404Y-113974404D01*
X156058928Y-113974404D01*
X155963690Y-113926785D01*
X155916071Y-113879166D01*
X155868452Y-113783928D01*
X149296130Y-206748214D02*
X148296130Y-206748214D01*
X148296130Y-206986309D01*
X148343750Y-207129166D01*
X148438988Y-207224404D01*
X148534226Y-207272023D01*
X148724702Y-207319642D01*
X148867559Y-207319642D01*
X149058035Y-207272023D01*
X149153273Y-207224404D01*
X149248511Y-207129166D01*
X149296130Y-206986309D01*
X149296130Y-206748214D01*
X149296130Y-208272023D02*
X149296130Y-207700595D01*
X149296130Y-207986309D02*
X148296130Y-207986309D01*
X148438988Y-207891071D01*
X148534226Y-207795833D01*
X148581845Y-207700595D01*
X148296130Y-208605357D02*
X148296130Y-209272023D01*
X149296130Y-208843452D01*
X142152380Y-187698214D02*
X141152380Y-187698214D01*
X141152380Y-187936309D01*
X141200000Y-188079166D01*
X141295238Y-188174404D01*
X141390476Y-188222023D01*
X141580952Y-188269642D01*
X141723809Y-188269642D01*
X141914285Y-188222023D01*
X142009523Y-188174404D01*
X142104761Y-188079166D01*
X142152380Y-187936309D01*
X142152380Y-187698214D01*
X142152380Y-189222023D02*
X142152380Y-188650595D01*
X142152380Y-188936309D02*
X141152380Y-188936309D01*
X141295238Y-188841071D01*
X141390476Y-188745833D01*
X141438095Y-188650595D01*
X141152380Y-190079166D02*
X141152380Y-189888690D01*
X141200000Y-189793452D01*
X141247619Y-189745833D01*
X141390476Y-189650595D01*
X141580952Y-189602976D01*
X141961904Y-189602976D01*
X142057142Y-189650595D01*
X142104761Y-189698214D01*
X142152380Y-189793452D01*
X142152380Y-189983928D01*
X142104761Y-190079166D01*
X142057142Y-190126785D01*
X141961904Y-190174404D01*
X141723809Y-190174404D01*
X141628571Y-190126785D01*
X141580952Y-190079166D01*
X141533333Y-189983928D01*
X141533333Y-189793452D01*
X141580952Y-189698214D01*
X141628571Y-189650595D01*
X141723809Y-189602976D01*
X151677380Y-168648214D02*
X150677380Y-168648214D01*
X150677380Y-168886309D01*
X150725000Y-169029166D01*
X150820238Y-169124404D01*
X150915476Y-169172023D01*
X151105952Y-169219642D01*
X151248809Y-169219642D01*
X151439285Y-169172023D01*
X151534523Y-169124404D01*
X151629761Y-169029166D01*
X151677380Y-168886309D01*
X151677380Y-168648214D01*
X151677380Y-170172023D02*
X151677380Y-169600595D01*
X151677380Y-169886309D02*
X150677380Y-169886309D01*
X150820238Y-169791071D01*
X150915476Y-169695833D01*
X150963095Y-169600595D01*
X150677380Y-171076785D02*
X150677380Y-170600595D01*
X151153571Y-170552976D01*
X151105952Y-170600595D01*
X151058333Y-170695833D01*
X151058333Y-170933928D01*
X151105952Y-171029166D01*
X151153571Y-171076785D01*
X151248809Y-171124404D01*
X151486904Y-171124404D01*
X151582142Y-171076785D01*
X151629761Y-171029166D01*
X151677380Y-170933928D01*
X151677380Y-170695833D01*
X151629761Y-170600595D01*
X151582142Y-170552976D01*
X146914880Y-149598214D02*
X145914880Y-149598214D01*
X145914880Y-149836309D01*
X145962500Y-149979166D01*
X146057738Y-150074404D01*
X146152976Y-150122023D01*
X146343452Y-150169642D01*
X146486309Y-150169642D01*
X146676785Y-150122023D01*
X146772023Y-150074404D01*
X146867261Y-149979166D01*
X146914880Y-149836309D01*
X146914880Y-149598214D01*
X146914880Y-151122023D02*
X146914880Y-150550595D01*
X146914880Y-150836309D02*
X145914880Y-150836309D01*
X146057738Y-150741071D01*
X146152976Y-150645833D01*
X146200595Y-150550595D01*
X146248214Y-151979166D02*
X146914880Y-151979166D01*
X145867261Y-151741071D02*
X146581547Y-151502976D01*
X146581547Y-152122023D01*
X137389880Y-130548214D02*
X136389880Y-130548214D01*
X136389880Y-130786309D01*
X136437500Y-130929166D01*
X136532738Y-131024404D01*
X136627976Y-131072023D01*
X136818452Y-131119642D01*
X136961309Y-131119642D01*
X137151785Y-131072023D01*
X137247023Y-131024404D01*
X137342261Y-130929166D01*
X137389880Y-130786309D01*
X137389880Y-130548214D01*
X137389880Y-132072023D02*
X137389880Y-131500595D01*
X137389880Y-131786309D02*
X136389880Y-131786309D01*
X136532738Y-131691071D01*
X136627976Y-131595833D01*
X136675595Y-131500595D01*
X136389880Y-132405357D02*
X136389880Y-133024404D01*
X136770833Y-132691071D01*
X136770833Y-132833928D01*
X136818452Y-132929166D01*
X136866071Y-132976785D01*
X136961309Y-133024404D01*
X137199404Y-133024404D01*
X137294642Y-132976785D01*
X137342261Y-132929166D01*
X137389880Y-132833928D01*
X137389880Y-132548214D01*
X137342261Y-132452976D01*
X137294642Y-132405357D01*
X137389880Y-111498214D02*
X136389880Y-111498214D01*
X136389880Y-111736309D01*
X136437500Y-111879166D01*
X136532738Y-111974404D01*
X136627976Y-112022023D01*
X136818452Y-112069642D01*
X136961309Y-112069642D01*
X137151785Y-112022023D01*
X137247023Y-111974404D01*
X137342261Y-111879166D01*
X137389880Y-111736309D01*
X137389880Y-111498214D01*
X137389880Y-113022023D02*
X137389880Y-112450595D01*
X137389880Y-112736309D02*
X136389880Y-112736309D01*
X136532738Y-112641071D01*
X136627976Y-112545833D01*
X136675595Y-112450595D01*
X136485119Y-113402976D02*
X136437500Y-113450595D01*
X136389880Y-113545833D01*
X136389880Y-113783928D01*
X136437500Y-113879166D01*
X136485119Y-113926785D01*
X136580357Y-113974404D01*
X136675595Y-113974404D01*
X136818452Y-113926785D01*
X137389880Y-113355357D01*
X137389880Y-113974404D01*
X124578869Y-209176785D02*
X125578869Y-209176785D01*
X125578869Y-208938690D01*
X125531250Y-208795833D01*
X125436011Y-208700595D01*
X125340773Y-208652976D01*
X125150297Y-208605357D01*
X125007440Y-208605357D01*
X124816964Y-208652976D01*
X124721726Y-208700595D01*
X124626488Y-208795833D01*
X124578869Y-208938690D01*
X124578869Y-209176785D01*
X124578869Y-207652976D02*
X124578869Y-208224404D01*
X124578869Y-207938690D02*
X125578869Y-207938690D01*
X125436011Y-208033928D01*
X125340773Y-208129166D01*
X125293154Y-208224404D01*
X124578869Y-206700595D02*
X124578869Y-207272023D01*
X124578869Y-206986309D02*
X125578869Y-206986309D01*
X125436011Y-207081547D01*
X125340773Y-207176785D01*
X125293154Y-207272023D01*
X133421130Y-168648214D02*
X132421130Y-168648214D01*
X132421130Y-168886309D01*
X132468750Y-169029166D01*
X132563988Y-169124404D01*
X132659226Y-169172023D01*
X132849702Y-169219642D01*
X132992559Y-169219642D01*
X133183035Y-169172023D01*
X133278273Y-169124404D01*
X133373511Y-169029166D01*
X133421130Y-168886309D01*
X133421130Y-168648214D01*
X133421130Y-170172023D02*
X133421130Y-169600595D01*
X133421130Y-169886309D02*
X132421130Y-169886309D01*
X132563988Y-169791071D01*
X132659226Y-169695833D01*
X132706845Y-169600595D01*
X132421130Y-170791071D02*
X132421130Y-170886309D01*
X132468750Y-170981547D01*
X132516369Y-171029166D01*
X132611607Y-171076785D01*
X132802083Y-171124404D01*
X133040178Y-171124404D01*
X133230654Y-171076785D01*
X133325892Y-171029166D01*
X133373511Y-170981547D01*
X133421130Y-170886309D01*
X133421130Y-170791071D01*
X133373511Y-170695833D01*
X133325892Y-170648214D01*
X133230654Y-170600595D01*
X133040178Y-170552976D01*
X132802083Y-170552976D01*
X132611607Y-170600595D01*
X132516369Y-170648214D01*
X132468750Y-170695833D01*
X132421130Y-170791071D01*
X127864880Y-150074404D02*
X126864880Y-150074404D01*
X126864880Y-150312500D01*
X126912500Y-150455357D01*
X127007738Y-150550595D01*
X127102976Y-150598214D01*
X127293452Y-150645833D01*
X127436309Y-150645833D01*
X127626785Y-150598214D01*
X127722023Y-150550595D01*
X127817261Y-150455357D01*
X127864880Y-150312500D01*
X127864880Y-150074404D01*
X127864880Y-151122023D02*
X127864880Y-151312500D01*
X127817261Y-151407738D01*
X127769642Y-151455357D01*
X127626785Y-151550595D01*
X127436309Y-151598214D01*
X127055357Y-151598214D01*
X126960119Y-151550595D01*
X126912500Y-151502976D01*
X126864880Y-151407738D01*
X126864880Y-151217261D01*
X126912500Y-151122023D01*
X126960119Y-151074404D01*
X127055357Y-151026785D01*
X127293452Y-151026785D01*
X127388690Y-151074404D01*
X127436309Y-151122023D01*
X127483928Y-151217261D01*
X127483928Y-151407738D01*
X127436309Y-151502976D01*
X127388690Y-151550595D01*
X127293452Y-151598214D01*
X101671130Y-207224404D02*
X100671130Y-207224404D01*
X100671130Y-207462500D01*
X100718750Y-207605357D01*
X100813988Y-207700595D01*
X100909226Y-207748214D01*
X101099702Y-207795833D01*
X101242559Y-207795833D01*
X101433035Y-207748214D01*
X101528273Y-207700595D01*
X101623511Y-207605357D01*
X101671130Y-207462500D01*
X101671130Y-207224404D01*
X101099702Y-208367261D02*
X101052083Y-208272023D01*
X101004464Y-208224404D01*
X100909226Y-208176785D01*
X100861607Y-208176785D01*
X100766369Y-208224404D01*
X100718750Y-208272023D01*
X100671130Y-208367261D01*
X100671130Y-208557738D01*
X100718750Y-208652976D01*
X100766369Y-208700595D01*
X100861607Y-208748214D01*
X100909226Y-208748214D01*
X101004464Y-208700595D01*
X101052083Y-208652976D01*
X101099702Y-208557738D01*
X101099702Y-208367261D01*
X101147321Y-208272023D01*
X101194940Y-208224404D01*
X101290178Y-208176785D01*
X101480654Y-208176785D01*
X101575892Y-208224404D01*
X101623511Y-208272023D01*
X101671130Y-208367261D01*
X101671130Y-208557738D01*
X101623511Y-208652976D01*
X101575892Y-208700595D01*
X101480654Y-208748214D01*
X101290178Y-208748214D01*
X101194940Y-208700595D01*
X101147321Y-208652976D01*
X101099702Y-208557738D01*
X111196130Y-188174404D02*
X110196130Y-188174404D01*
X110196130Y-188412500D01*
X110243750Y-188555357D01*
X110338988Y-188650595D01*
X110434226Y-188698214D01*
X110624702Y-188745833D01*
X110767559Y-188745833D01*
X110958035Y-188698214D01*
X111053273Y-188650595D01*
X111148511Y-188555357D01*
X111196130Y-188412500D01*
X111196130Y-188174404D01*
X110196130Y-189079166D02*
X110196130Y-189745833D01*
X111196130Y-189317261D01*
X106433630Y-169124404D02*
X105433630Y-169124404D01*
X105433630Y-169362500D01*
X105481250Y-169505357D01*
X105576488Y-169600595D01*
X105671726Y-169648214D01*
X105862202Y-169695833D01*
X106005059Y-169695833D01*
X106195535Y-169648214D01*
X106290773Y-169600595D01*
X106386011Y-169505357D01*
X106433630Y-169362500D01*
X106433630Y-169124404D01*
X105433630Y-170552976D02*
X105433630Y-170362500D01*
X105481250Y-170267261D01*
X105528869Y-170219642D01*
X105671726Y-170124404D01*
X105862202Y-170076785D01*
X106243154Y-170076785D01*
X106338392Y-170124404D01*
X106386011Y-170172023D01*
X106433630Y-170267261D01*
X106433630Y-170457738D01*
X106386011Y-170552976D01*
X106338392Y-170600595D01*
X106243154Y-170648214D01*
X106005059Y-170648214D01*
X105909821Y-170600595D01*
X105862202Y-170552976D01*
X105814583Y-170457738D01*
X105814583Y-170267261D01*
X105862202Y-170172023D01*
X105909821Y-170124404D01*
X106005059Y-170076785D01*
X104052380Y-150074404D02*
X103052380Y-150074404D01*
X103052380Y-150312500D01*
X103100000Y-150455357D01*
X103195238Y-150550595D01*
X103290476Y-150598214D01*
X103480952Y-150645833D01*
X103623809Y-150645833D01*
X103814285Y-150598214D01*
X103909523Y-150550595D01*
X104004761Y-150455357D01*
X104052380Y-150312500D01*
X104052380Y-150074404D01*
X103052380Y-151550595D02*
X103052380Y-151074404D01*
X103528571Y-151026785D01*
X103480952Y-151074404D01*
X103433333Y-151169642D01*
X103433333Y-151407738D01*
X103480952Y-151502976D01*
X103528571Y-151550595D01*
X103623809Y-151598214D01*
X103861904Y-151598214D01*
X103957142Y-151550595D01*
X104004761Y-151502976D01*
X104052380Y-151407738D01*
X104052380Y-151169642D01*
X104004761Y-151074404D01*
X103957142Y-151026785D01*
X118339880Y-131024404D02*
X117339880Y-131024404D01*
X117339880Y-131262500D01*
X117387500Y-131405357D01*
X117482738Y-131500595D01*
X117577976Y-131548214D01*
X117768452Y-131595833D01*
X117911309Y-131595833D01*
X118101785Y-131548214D01*
X118197023Y-131500595D01*
X118292261Y-131405357D01*
X118339880Y-131262500D01*
X118339880Y-131024404D01*
X117673214Y-132452976D02*
X118339880Y-132452976D01*
X117292261Y-132214880D02*
X118006547Y-131976785D01*
X118006547Y-132595833D01*
X118339880Y-111974404D02*
X117339880Y-111974404D01*
X117339880Y-112212500D01*
X117387500Y-112355357D01*
X117482738Y-112450595D01*
X117577976Y-112498214D01*
X117768452Y-112545833D01*
X117911309Y-112545833D01*
X118101785Y-112498214D01*
X118197023Y-112450595D01*
X118292261Y-112355357D01*
X118339880Y-112212500D01*
X118339880Y-111974404D01*
X117339880Y-112879166D02*
X117339880Y-113498214D01*
X117720833Y-113164880D01*
X117720833Y-113307738D01*
X117768452Y-113402976D01*
X117816071Y-113450595D01*
X117911309Y-113498214D01*
X118149404Y-113498214D01*
X118244642Y-113450595D01*
X118292261Y-113402976D01*
X118339880Y-113307738D01*
X118339880Y-113022023D01*
X118292261Y-112926785D01*
X118244642Y-112879166D01*
X99289880Y-131024404D02*
X98289880Y-131024404D01*
X98289880Y-131262500D01*
X98337500Y-131405357D01*
X98432738Y-131500595D01*
X98527976Y-131548214D01*
X98718452Y-131595833D01*
X98861309Y-131595833D01*
X99051785Y-131548214D01*
X99147023Y-131500595D01*
X99242261Y-131405357D01*
X99289880Y-131262500D01*
X99289880Y-131024404D01*
X98385119Y-131976785D02*
X98337500Y-132024404D01*
X98289880Y-132119642D01*
X98289880Y-132357738D01*
X98337500Y-132452976D01*
X98385119Y-132500595D01*
X98480357Y-132548214D01*
X98575595Y-132548214D01*
X98718452Y-132500595D01*
X99289880Y-131929166D01*
X99289880Y-132548214D01*
X99289880Y-111974404D02*
X98289880Y-111974404D01*
X98289880Y-112212500D01*
X98337500Y-112355357D01*
X98432738Y-112450595D01*
X98527976Y-112498214D01*
X98718452Y-112545833D01*
X98861309Y-112545833D01*
X99051785Y-112498214D01*
X99147023Y-112450595D01*
X99242261Y-112355357D01*
X99289880Y-112212500D01*
X99289880Y-111974404D01*
X99289880Y-113498214D02*
X99289880Y-112926785D01*
X99289880Y-113212500D02*
X98289880Y-113212500D01*
X98432738Y-113117261D01*
X98527976Y-113022023D01*
X98575595Y-112926785D01*
D10*
X383587500Y-210212500D02*
X383587500Y-206312500D01*
X381587500Y-210212500D02*
X381587500Y-206312500D01*
X383587500Y-210212500D02*
X381587500Y-210212500D01*
X383587500Y-191162500D02*
X383587500Y-187262500D01*
X381587500Y-191162500D02*
X381587500Y-187262500D01*
X383587500Y-191162500D02*
X381587500Y-191162500D01*
X383587500Y-172112500D02*
X383587500Y-168212500D01*
X381587500Y-172112500D02*
X381587500Y-168212500D01*
X383587500Y-172112500D02*
X381587500Y-172112500D01*
X383587500Y-153062500D02*
X383587500Y-149162500D01*
X381587500Y-153062500D02*
X381587500Y-149162500D01*
X383587500Y-153062500D02*
X381587500Y-153062500D01*
X383587500Y-134012500D02*
X383587500Y-130112500D01*
X381587500Y-134012500D02*
X381587500Y-130112500D01*
X383587500Y-134012500D02*
X381587500Y-134012500D01*
X383587500Y-114962500D02*
X383587500Y-111062500D01*
X381587500Y-114962500D02*
X381587500Y-111062500D01*
X383587500Y-114962500D02*
X381587500Y-114962500D01*
X364537500Y-210212500D02*
X364537500Y-206312500D01*
X362537500Y-210212500D02*
X362537500Y-206312500D01*
X364537500Y-210212500D02*
X362537500Y-210212500D01*
X364537500Y-191162500D02*
X364537500Y-187262500D01*
X362537500Y-191162500D02*
X362537500Y-187262500D01*
X364537500Y-191162500D02*
X362537500Y-191162500D01*
X364537500Y-114962500D02*
X364537500Y-111062500D01*
X362537500Y-114962500D02*
X362537500Y-111062500D01*
X364537500Y-114962500D02*
X362537500Y-114962500D01*
X345487500Y-210212500D02*
X345487500Y-206312500D01*
X343487500Y-210212500D02*
X343487500Y-206312500D01*
X345487500Y-210212500D02*
X343487500Y-210212500D01*
X359775000Y-153062500D02*
X359775000Y-149162500D01*
X357775000Y-153062500D02*
X357775000Y-149162500D01*
X359775000Y-153062500D02*
X357775000Y-153062500D01*
X355012500Y-134012500D02*
X355012500Y-130112500D01*
X353012500Y-134012500D02*
X353012500Y-130112500D01*
X355012500Y-134012500D02*
X353012500Y-134012500D01*
X345487500Y-114962500D02*
X345487500Y-111062500D01*
X343487500Y-114962500D02*
X343487500Y-111062500D01*
X345487500Y-114962500D02*
X343487500Y-114962500D01*
X326437500Y-210212500D02*
X326437500Y-206312500D01*
X324437500Y-210212500D02*
X324437500Y-206312500D01*
X326437500Y-210212500D02*
X324437500Y-210212500D01*
X338343750Y-191162500D02*
X338343750Y-187262500D01*
X336343750Y-191162500D02*
X336343750Y-187262500D01*
X338343750Y-191162500D02*
X336343750Y-191162500D01*
X352631250Y-172112500D02*
X352631250Y-168212500D01*
X350631250Y-172112500D02*
X350631250Y-168212500D01*
X352631250Y-172112500D02*
X350631250Y-172112500D01*
X335962500Y-153062500D02*
X335962500Y-149162500D01*
X333962500Y-153062500D02*
X333962500Y-149162500D01*
X335962500Y-153062500D02*
X333962500Y-153062500D01*
X326437500Y-134012500D02*
X326437500Y-130112500D01*
X324437500Y-134012500D02*
X324437500Y-130112500D01*
X326437500Y-134012500D02*
X324437500Y-134012500D01*
X326437500Y-114962500D02*
X326437500Y-111062500D01*
X324437500Y-114962500D02*
X324437500Y-111062500D01*
X326437500Y-114962500D02*
X324437500Y-114962500D01*
X307387500Y-210212500D02*
X307387500Y-206312500D01*
X305387500Y-210212500D02*
X305387500Y-206312500D01*
X307387500Y-210212500D02*
X305387500Y-210212500D01*
X312150000Y-191162500D02*
X312150000Y-187262500D01*
X310150000Y-191162500D02*
X310150000Y-187262500D01*
X312150000Y-191162500D02*
X310150000Y-191162500D01*
X321675000Y-172112500D02*
X321675000Y-168212500D01*
X319675000Y-172112500D02*
X319675000Y-168212500D01*
X321675000Y-172112500D02*
X319675000Y-172112500D01*
X316912500Y-153062500D02*
X316912500Y-149162500D01*
X314912500Y-153062500D02*
X314912500Y-149162500D01*
X316912500Y-153062500D02*
X314912500Y-153062500D01*
X307387500Y-134012500D02*
X307387500Y-130112500D01*
X305387500Y-134012500D02*
X305387500Y-130112500D01*
X307387500Y-134012500D02*
X305387500Y-134012500D01*
X307387500Y-114962500D02*
X307387500Y-111062500D01*
X305387500Y-114962500D02*
X305387500Y-111062500D01*
X307387500Y-114962500D02*
X305387500Y-114962500D01*
X288337500Y-210212500D02*
X288337500Y-206312500D01*
X286337500Y-210212500D02*
X286337500Y-206312500D01*
X288337500Y-210212500D02*
X286337500Y-210212500D01*
X293100000Y-191162500D02*
X293100000Y-187262500D01*
X291100000Y-191162500D02*
X291100000Y-187262500D01*
X293100000Y-191162500D02*
X291100000Y-191162500D01*
X302625000Y-172112500D02*
X302625000Y-168212500D01*
X300625000Y-172112500D02*
X300625000Y-168212500D01*
X302625000Y-172112500D02*
X300625000Y-172112500D01*
X297862500Y-153062500D02*
X297862500Y-149162500D01*
X295862500Y-153062500D02*
X295862500Y-149162500D01*
X297862500Y-153062500D02*
X295862500Y-153062500D01*
X288337500Y-134012500D02*
X288337500Y-130112500D01*
X286337500Y-134012500D02*
X286337500Y-130112500D01*
X288337500Y-134012500D02*
X286337500Y-134012500D01*
X288337500Y-115025000D02*
X288337500Y-111125000D01*
X286337500Y-115025000D02*
X286337500Y-111125000D01*
X288337500Y-115025000D02*
X286337500Y-115025000D01*
X274050000Y-191162500D02*
X274050000Y-187262500D01*
X272050000Y-191162500D02*
X272050000Y-187262500D01*
X274050000Y-191162500D02*
X272050000Y-191162500D01*
X283575000Y-172112500D02*
X283575000Y-168212500D01*
X281575000Y-172112500D02*
X281575000Y-168212500D01*
X283575000Y-172112500D02*
X281575000Y-172112500D01*
X278812500Y-153062500D02*
X278812500Y-149162500D01*
X276812500Y-153062500D02*
X276812500Y-149162500D01*
X278812500Y-153062500D02*
X276812500Y-153062500D01*
X269287500Y-134012500D02*
X269287500Y-130112500D01*
X267287500Y-134012500D02*
X267287500Y-130112500D01*
X269287500Y-134012500D02*
X267287500Y-134012500D01*
X269287500Y-114962500D02*
X269287500Y-111062500D01*
X267287500Y-114962500D02*
X267287500Y-111062500D01*
X269287500Y-114962500D02*
X267287500Y-114962500D01*
X255000000Y-191162500D02*
X255000000Y-187262500D01*
X253000000Y-191162500D02*
X253000000Y-187262500D01*
X255000000Y-191162500D02*
X253000000Y-191162500D01*
X264525000Y-172112500D02*
X264525000Y-168212500D01*
X262525000Y-172112500D02*
X262525000Y-168212500D01*
X264525000Y-172112500D02*
X262525000Y-172112500D01*
X259762500Y-153062500D02*
X259762500Y-149162500D01*
X257762500Y-153062500D02*
X257762500Y-149162500D01*
X259762500Y-153062500D02*
X257762500Y-153062500D01*
X250237500Y-134012500D02*
X250237500Y-130112500D01*
X248237500Y-134012500D02*
X248237500Y-130112500D01*
X250237500Y-134012500D02*
X248237500Y-134012500D01*
X250237500Y-114962500D02*
X250237500Y-111062500D01*
X248237500Y-114962500D02*
X248237500Y-111062500D01*
X250237500Y-114962500D02*
X248237500Y-114962500D01*
X235950000Y-191162500D02*
X235950000Y-187262500D01*
X233950000Y-191162500D02*
X233950000Y-187262500D01*
X235950000Y-191162500D02*
X233950000Y-191162500D01*
X245475000Y-172112500D02*
X245475000Y-168212500D01*
X243475000Y-172112500D02*
X243475000Y-168212500D01*
X245475000Y-172112500D02*
X243475000Y-172112500D01*
X240712500Y-153062500D02*
X240712500Y-149162500D01*
X238712500Y-153062500D02*
X238712500Y-149162500D01*
X240712500Y-153062500D02*
X238712500Y-153062500D01*
X231187500Y-134012500D02*
X231187500Y-130112500D01*
X229187500Y-134012500D02*
X229187500Y-130112500D01*
X231187500Y-134012500D02*
X229187500Y-134012500D01*
X231187500Y-114962500D02*
X231187500Y-111062500D01*
X229187500Y-114962500D02*
X229187500Y-111062500D01*
X231187500Y-114962500D02*
X229187500Y-114962500D01*
X226425000Y-210212500D02*
X226425000Y-206312500D01*
X224425000Y-210212500D02*
X224425000Y-206312500D01*
X226425000Y-210212500D02*
X224425000Y-210212500D01*
X216900000Y-191162500D02*
X216900000Y-187262500D01*
X214900000Y-191162500D02*
X214900000Y-187262500D01*
X216900000Y-191162500D02*
X214900000Y-191162500D01*
X226425000Y-172112500D02*
X226425000Y-168212500D01*
X224425000Y-172112500D02*
X224425000Y-168212500D01*
X226425000Y-172112500D02*
X224425000Y-172112500D01*
X221662500Y-153062500D02*
X221662500Y-149162500D01*
X219662500Y-153062500D02*
X219662500Y-149162500D01*
X221662500Y-153062500D02*
X219662500Y-153062500D01*
X212137500Y-134012500D02*
X212137500Y-130112500D01*
X210137500Y-134012500D02*
X210137500Y-130112500D01*
X212137500Y-134012500D02*
X210137500Y-134012500D01*
X212137500Y-114962500D02*
X212137500Y-111062500D01*
X210137500Y-114962500D02*
X210137500Y-111062500D01*
X212137500Y-114962500D02*
X210137500Y-114962500D01*
X197850000Y-191162500D02*
X197850000Y-187262500D01*
X195850000Y-191162500D02*
X195850000Y-187262500D01*
X197850000Y-191162500D02*
X195850000Y-191162500D01*
X207375000Y-172112500D02*
X207375000Y-168212500D01*
X205375000Y-172112500D02*
X205375000Y-168212500D01*
X207375000Y-172112500D02*
X205375000Y-172112500D01*
X202612500Y-153062500D02*
X202612500Y-149162500D01*
X200612500Y-153062500D02*
X200612500Y-149162500D01*
X202612500Y-153062500D02*
X200612500Y-153062500D01*
X193087500Y-134012500D02*
X193087500Y-130112500D01*
X191087500Y-134012500D02*
X191087500Y-130112500D01*
X193087500Y-134012500D02*
X191087500Y-134012500D01*
X193087500Y-114962500D02*
X193087500Y-111062500D01*
X191087500Y-114962500D02*
X191087500Y-111062500D01*
X193087500Y-114962500D02*
X191087500Y-114962500D01*
X178800000Y-191162500D02*
X178800000Y-187262500D01*
X176800000Y-191162500D02*
X176800000Y-187262500D01*
X178800000Y-191162500D02*
X176800000Y-191162500D01*
X188325000Y-172112500D02*
X188325000Y-168212500D01*
X186325000Y-172112500D02*
X186325000Y-168212500D01*
X188325000Y-172112500D02*
X186325000Y-172112500D01*
X183562500Y-153062500D02*
X183562500Y-149162500D01*
X181562500Y-153062500D02*
X181562500Y-149162500D01*
X183562500Y-153062500D02*
X181562500Y-153062500D01*
X174037500Y-134012500D02*
X174037500Y-130112500D01*
X172037500Y-134012500D02*
X172037500Y-130112500D01*
X174037500Y-134012500D02*
X172037500Y-134012500D01*
X174037500Y-114962500D02*
X174037500Y-111062500D01*
X172037500Y-114962500D02*
X172037500Y-111062500D01*
X174037500Y-114962500D02*
X172037500Y-114962500D01*
X159750000Y-191162500D02*
X159750000Y-187262500D01*
X157750000Y-191162500D02*
X157750000Y-187262500D01*
X159750000Y-191162500D02*
X157750000Y-191162500D01*
X169275000Y-172112500D02*
X169275000Y-168212500D01*
X167275000Y-172112500D02*
X167275000Y-168212500D01*
X169275000Y-172112500D02*
X167275000Y-172112500D01*
X164512500Y-153062500D02*
X164512500Y-149162500D01*
X162512500Y-153062500D02*
X162512500Y-149162500D01*
X164512500Y-153062500D02*
X162512500Y-153062500D01*
X154987500Y-134012500D02*
X154987500Y-130112500D01*
X152987500Y-134012500D02*
X152987500Y-130112500D01*
X154987500Y-134012500D02*
X152987500Y-134012500D01*
X154987500Y-114962500D02*
X154987500Y-111062500D01*
X152987500Y-114962500D02*
X152987500Y-111062500D01*
X154987500Y-114962500D02*
X152987500Y-114962500D01*
X147843750Y-210212500D02*
X147843750Y-206312500D01*
X145843750Y-210212500D02*
X145843750Y-206312500D01*
X147843750Y-210212500D02*
X145843750Y-210212500D01*
X140700000Y-191162500D02*
X140700000Y-187262500D01*
X138700000Y-191162500D02*
X138700000Y-187262500D01*
X140700000Y-191162500D02*
X138700000Y-191162500D01*
X150225000Y-172112500D02*
X150225000Y-168212500D01*
X148225000Y-172112500D02*
X148225000Y-168212500D01*
X150225000Y-172112500D02*
X148225000Y-172112500D01*
X145462500Y-153062500D02*
X145462500Y-149162500D01*
X143462500Y-153062500D02*
X143462500Y-149162500D01*
X145462500Y-153062500D02*
X143462500Y-153062500D01*
X135937500Y-134012500D02*
X135937500Y-130112500D01*
X133937500Y-134012500D02*
X133937500Y-130112500D01*
X135937500Y-134012500D02*
X133937500Y-134012500D01*
X135937500Y-114962500D02*
X135937500Y-111062500D01*
X133937500Y-114962500D02*
X133937500Y-111062500D01*
X135937500Y-114962500D02*
X133937500Y-114962500D01*
X124031250Y-210212500D02*
X124031250Y-206312500D01*
X122031250Y-210212500D02*
X122031250Y-206312500D01*
X124031250Y-210212500D02*
X122031250Y-210212500D01*
X131968750Y-172112500D02*
X131968750Y-168212500D01*
X129968750Y-172112500D02*
X129968750Y-168212500D01*
X131968750Y-172112500D02*
X129968750Y-172112500D01*
X126412500Y-153062500D02*
X126412500Y-149162500D01*
X124412500Y-153062500D02*
X124412500Y-149162500D01*
X126412500Y-153062500D02*
X124412500Y-153062500D01*
X100218750Y-210212500D02*
X100218750Y-206312500D01*
X98218750Y-210212500D02*
X98218750Y-206312500D01*
X100218750Y-210212500D02*
X98218750Y-210212500D01*
X109743750Y-191162500D02*
X109743750Y-187262500D01*
X107743750Y-191162500D02*
X107743750Y-187262500D01*
X109743750Y-191162500D02*
X107743750Y-191162500D01*
X104981250Y-172112500D02*
X104981250Y-168212500D01*
X102981250Y-172112500D02*
X102981250Y-168212500D01*
X104981250Y-172112500D02*
X102981250Y-172112500D01*
X102600000Y-153062500D02*
X102600000Y-149162500D01*
X100600000Y-153062500D02*
X100600000Y-149162500D01*
X102600000Y-153062500D02*
X100600000Y-153062500D01*
X116887500Y-134012500D02*
X114887500Y-134012500D01*
X114887500Y-134012500D02*
X114887500Y-130112500D01*
X116887500Y-134012500D02*
X116887500Y-130112500D01*
X116887500Y-114962500D02*
X114887500Y-114962500D01*
X114887500Y-114962500D02*
X114887500Y-111062500D01*
X116887500Y-114962500D02*
X116887500Y-111062500D01*
X97837500Y-134012500D02*
X95837500Y-134012500D01*
X95837500Y-134012500D02*
X95837500Y-130112500D01*
X97837500Y-134012500D02*
X97837500Y-130112500D01*
X97837500Y-114962500D02*
X95837500Y-114962500D01*
X95837500Y-114962500D02*
X95837500Y-111062500D01*
X97837500Y-114962500D02*
X97837500Y-111062500D01*
M02*
