M48
; DRILL file {KiCad (5.99.0-1615-g0042cd509)} date Sunday, May 31, 2020 at 09:12:51 PM
; FORMAT={-:-/ absolute / inch / decimal}
; #@! TF.CreationDate,2020-05-31T21:12:51-05:00
; #@! TF.GenerationSoftware,Kicad,Pcbnew,(5.99.0-1615-g0042cd509)
; #@! TF.FileFunction,Plated,1,2,PTH
FMAT,2
INCH
T1C0.0157
T2C0.0197
T3C0.0276
T4C0.0409
T5C0.0579
%
G90
G05
T1
X2.06Y-4.68
X2.14Y-4.54
X2.15Y-5.25
X2.179Y-5.1861
X2.21Y-5.1536
X2.25Y-5.12
X2.3Y-4.64
X2.33Y-4.68
X2.36Y-4.54
X2.39Y-4.925
X2.42Y-4.24
X2.4302Y-4.9252
X2.4679Y-4.9129
X2.5Y-6.06
X2.5Y-6.105
X2.5Y-6.15
X2.5003Y-4.9352
X2.515Y-5.36
X2.5644Y-4.87
X2.59Y-4.55
X2.62Y-5.32
X2.655Y-4.78
X2.685Y-5.085
X2.7305Y-4.8895
X2.7336Y-4.37
X2.79Y-5.42
X2.795Y-4.64
X2.8197Y-5.3397
X2.84Y-4.82
X2.84Y-5.18
X2.875Y-4.945
X2.99Y-7.5
X2.99Y-7.55
X3.17Y-5.375
X3.17Y-5.42
X3.385Y-5.345
X3.445Y-4.77
X3.485Y-5.375
X3.485Y-5.42
X3.575Y-7.055
X3.58Y-5.375
X3.58Y-5.42
X3.605Y-4.77
X3.61Y-6.255
X3.66Y-5.345
X3.715Y-5.42
X3.75Y-5.375
X3.76Y-7.62
X3.765Y-6.255
X3.79Y-5.345
X5.465Y-7.62
X6.4714Y-6.0614
X7.195Y-6.105
X7.91Y-6.15
X8.6Y-5.42
X9.35Y-5.345
X14.29Y-5.375
T2
X2.875Y-4.2419
X2.875Y-4.2812
X2.9144Y-4.2419
X2.9144Y-4.2812
X2.9537Y-4.2419
X2.9537Y-4.2812
T4
X3.7312Y-6.8875
X3.8312Y-6.8875
T5
X3.6313Y-6.5875
X3.6828Y-6.53
X3.8797Y-6.5103
X3.8813Y-6.4875
X13.6625Y-5.8375
X13.7141Y-5.78
X13.9109Y-5.7603
X13.9125Y-5.7375
X3.5375Y-5.8375
X3.5891Y-5.78
X3.7859Y-5.7603
X3.7875Y-5.7375
X13.475Y-5.0875
X13.5266Y-5.03
X13.7234Y-5.0103
X13.725Y-4.9875
X14.6Y-8.0875
X14.6516Y-8.03
X14.8484Y-8.0103
X14.85Y-7.9875
X10.7562Y-8.0875
X10.8078Y-8.03
X11.0047Y-8.0103
X11.0062Y-7.9875
X5.3187Y-8.0875
X5.3703Y-8.03
X5.5672Y-8.0103
X5.5687Y-7.9875
X4.3812Y-8.0875
X4.4328Y-8.03
X4.6297Y-8.0103
X4.6312Y-7.9875
X3.4438Y-8.0875
X3.4953Y-8.03
X3.6922Y-8.0103
X3.6938Y-7.9875
X8.4125Y-8.0875
X8.4641Y-8.03
X8.6609Y-8.0103
X8.6625Y-7.9875
X12.1625Y-6.5875
X12.2141Y-6.53
X12.4109Y-6.5103
X12.4125Y-6.4875
X11.4125Y-6.5875
X11.4641Y-6.53
X11.6609Y-6.5103
X11.6625Y-6.4875
X10.1Y-4.3375
X10.1516Y-4.28
X10.3484Y-4.2603
X10.35Y-4.2375
X9.35Y-4.3375
X9.4016Y-4.28
X9.5984Y-4.2603
X9.6Y-4.2375
X8.6Y-4.3375
X8.6516Y-4.28
X8.8484Y-4.2603
X8.85Y-4.2375
X7.85Y-4.3375
X7.9016Y-4.28
X8.0984Y-4.2603
X8.1Y-4.2375
X13.85Y-8.0875
X13.9016Y-8.03
X14.0984Y-8.0103
X14.1Y-7.9875
X13.1Y-8.0875
X13.1516Y-8.03
X13.3484Y-8.0103
X13.35Y-7.9875
X12.8187Y-7.3375
X12.8703Y-7.28
X13.0672Y-7.2603
X13.0687Y-7.2375
X3.8188Y-7.3375
X3.8703Y-7.28
X4.0672Y-7.2603
X4.0687Y-7.2375
X13.3812Y-6.5875
X13.4328Y-6.53
X13.6297Y-6.5103
X13.6312Y-6.4875
X12.35Y-8.0875
X12.4016Y-8.03
X12.5984Y-8.0103
X12.6Y-7.9875
X11.6Y-8.0875
X11.6516Y-8.03
X11.8484Y-8.0103
X11.85Y-7.9875
X14.6Y-7.3375
X14.6516Y-7.28
X14.8484Y-7.2603
X14.85Y-7.2375
X13.85Y-7.3375
X13.9016Y-7.28
X14.0984Y-7.2603
X14.1Y-7.2375
X11.7875Y-7.3375
X11.8391Y-7.28
X12.0359Y-7.2603
X12.0375Y-7.2375
X11.0375Y-7.3375
X11.0891Y-7.28
X11.2859Y-7.2603
X11.2875Y-7.2375
X10.2875Y-7.3375
X10.3391Y-7.28
X10.5359Y-7.2603
X10.5375Y-7.2375
X9.5375Y-7.3375
X9.5891Y-7.28
X9.7859Y-7.2603
X9.7875Y-7.2375
X8.7875Y-7.3375
X8.8391Y-7.28
X9.0359Y-7.2603
X9.0375Y-7.2375
X8.0375Y-7.3375
X8.0891Y-7.28
X8.2859Y-7.2603
X8.2875Y-7.2375
X7.2875Y-7.3375
X7.3391Y-7.28
X7.5359Y-7.2603
X7.5375Y-7.2375
X6.5375Y-7.3375
X6.5891Y-7.28
X6.7859Y-7.2603
X6.7875Y-7.2375
X5.7875Y-7.3375
X5.8391Y-7.28
X6.0359Y-7.2603
X6.0375Y-7.2375
X5.0375Y-7.3375
X5.0891Y-7.28
X5.2859Y-7.2603
X5.2875Y-7.2375
X14.6Y-6.5875
X14.6516Y-6.53
X14.8484Y-6.5103
X14.85Y-6.4875
X10.6625Y-6.5875
X10.7141Y-6.53
X10.9109Y-6.5103
X10.9125Y-6.4875
X9.9125Y-6.5875
X9.9641Y-6.53
X10.1609Y-6.5103
X10.1625Y-6.4875
X9.1625Y-6.5875
X9.2141Y-6.53
X9.4109Y-6.5103
X9.4125Y-6.4875
X8.4125Y-6.5875
X8.4641Y-6.53
X8.6609Y-6.5103
X8.6625Y-6.4875
X6.9125Y-6.5875
X6.9641Y-6.53
X7.1609Y-6.5103
X7.1625Y-6.4875
X7.6625Y-6.5875
X7.7141Y-6.53
X7.9109Y-6.5103
X7.9125Y-6.4875
X6.1625Y-6.5875
X6.2141Y-6.53
X6.4109Y-6.5103
X6.4125Y-6.4875
X4.6625Y-6.5875
X4.7141Y-6.53
X4.9109Y-6.5103
X4.9125Y-6.4875
X5.4125Y-6.5875
X5.4641Y-6.53
X5.6609Y-6.5103
X5.6625Y-6.4875
X14.6Y-5.8387
X14.6516Y-5.7812
X14.8484Y-5.7616
X14.85Y-5.7387
X12.725Y-5.8375
X12.7766Y-5.78
X12.9734Y-5.7603
X12.975Y-5.7375
X11.975Y-5.8375
X12.0266Y-5.78
X12.2234Y-5.7603
X12.225Y-5.7375
X11.225Y-5.8375
X11.2766Y-5.78
X11.4734Y-5.7603
X11.475Y-5.7375
X10.475Y-5.8375
X10.5266Y-5.78
X10.7234Y-5.7603
X10.725Y-5.7375
X9.725Y-5.8375
X9.7766Y-5.78
X9.9734Y-5.7603
X9.975Y-5.7375
X8.975Y-5.8375
X9.0266Y-5.78
X9.2234Y-5.7603
X9.225Y-5.7375
X8.225Y-5.8375
X8.2766Y-5.78
X8.4734Y-5.7603
X8.475Y-5.7375
X7.475Y-5.8375
X7.5266Y-5.78
X7.7234Y-5.7603
X7.725Y-5.7375
X6.725Y-5.8375
X6.7766Y-5.78
X6.9734Y-5.7603
X6.975Y-5.7375
X5.975Y-5.8375
X6.0266Y-5.78
X6.2234Y-5.7603
X6.225Y-5.7375
X5.225Y-5.8375
X5.2766Y-5.78
X5.4734Y-5.7603
X5.475Y-5.7375
X4.475Y-5.8375
X4.5266Y-5.78
X4.7234Y-5.7603
X4.725Y-5.7375
X14.6Y-4.3375
X14.6516Y-4.28
X14.8484Y-4.2603
X14.85Y-4.2375
X13.85Y-4.3375
X13.9016Y-4.28
X14.0984Y-4.2603
X14.1Y-4.2375
X13.1Y-4.3375
X13.1516Y-4.28
X13.3484Y-4.2603
X13.35Y-4.2375
X12.35Y-4.3375
X12.4016Y-4.28
X12.5984Y-4.2603
X12.6Y-4.2375
X11.6Y-4.3375
X11.6516Y-4.28
X11.8484Y-4.2603
X11.85Y-4.2375
X10.85Y-4.3375
X10.9016Y-4.28
X11.0984Y-4.2603
X11.1Y-4.2375
X14.6Y-5.0875
X14.6516Y-5.03
X14.8484Y-5.0103
X14.85Y-4.9875
X12.35Y-5.0875
X12.4016Y-5.03
X12.5984Y-5.0103
X12.6Y-4.9875
X11.6Y-5.0875
X11.6516Y-5.03
X11.8484Y-5.0103
X11.85Y-4.9875
X10.85Y-5.0875
X10.9016Y-5.03
X11.0984Y-5.0103
X11.1Y-4.9875
X10.1Y-5.0875
X10.1516Y-5.03
X10.3484Y-5.0103
X10.35Y-4.9875
X9.35Y-5.0875
X9.4016Y-5.03
X9.5984Y-5.0103
X9.6Y-4.9875
X8.6Y-5.0875
X8.6516Y-5.03
X8.8484Y-5.0103
X8.85Y-4.9875
X7.85Y-5.0875
X7.9016Y-5.03
X8.0984Y-5.0103
X8.1Y-4.9875
X7.1Y-5.0875
X7.1516Y-5.03
X7.3484Y-5.0103
X7.35Y-4.9875
X6.35Y-5.0875
X6.4016Y-5.03
X6.5984Y-5.0103
X6.6Y-4.9875
X5.6Y-5.0875
X5.6516Y-5.03
X5.8484Y-5.0103
X5.85Y-4.9875
X4.85Y-5.0875
X4.9016Y-5.03
X5.0984Y-5.0103
X5.1Y-4.9875
X7.1Y-4.3375
X7.1516Y-4.28
X7.3484Y-4.2603
X7.35Y-4.2375
X6.35Y-4.3375
X6.4016Y-4.28
X6.5984Y-4.2603
X6.6Y-4.2375
X5.6Y-4.3375
X5.6516Y-4.28
X5.8484Y-4.2603
X5.85Y-4.2375
X4.85Y-4.3375
X4.9016Y-4.28
X5.0984Y-4.2603
X5.1Y-4.2375
X4.1Y-5.0875
X4.1516Y-5.03
X4.3484Y-5.0103
X4.35Y-4.9875
X4.1Y-4.3375
X4.1516Y-4.28
X4.3484Y-4.2603
X4.35Y-4.2375
X3.35Y-5.0875
X3.4016Y-5.03
X3.5984Y-5.0103
X3.6Y-4.9875
X3.35Y-4.3375
X3.4016Y-4.28
X3.5984Y-4.2603
X3.6Y-4.2375
T3
G00X2.0575Y-4.1639
M15
G01X2.0575Y-4.2111
M16
G05
G00X2.0575Y-4.341
M15
G01X2.0575Y-4.3883
M16
G05
G00X2.345Y-4.1639
M15
G01X2.345Y-4.2111
M16
G05
G00X2.345Y-4.341
M15
G01X2.345Y-4.3883
M16
G05
T0
M30
