G04 #@! TF.GenerationSoftware,KiCad,Pcbnew,(5.99.0-1615-g0042cd509)*
G04 #@! TF.CreationDate,2020-05-31T21:08:36-05:00*
G04 #@! TF.ProjectId,my-keyboard,6d792d6b-6579-4626-9f61-72642e6b6963,rev?*
G04 #@! TF.SameCoordinates,Original*
G04 #@! TF.FileFunction,Legend,Top*
G04 #@! TF.FilePolarity,Positive*
%FSLAX46Y46*%
G04 Gerber Fmt 4.6, Leading zero omitted, Abs format (unit mm)*
G04 Created by KiCad (PCBNEW (5.99.0-1615-g0042cd509)) date 2020-05-31 21:08:36*
%MOMM*%
%LPD*%
G01*
G04 APERTURE LIST*
%ADD10C,0.120000*%
%ADD11C,0.150000*%
G04 APERTURE END LIST*
X60014380Y-115912166D02*
X59538190Y-116245500D01*
X60014380Y-116483595D02*
X59014380Y-116483595D01*
X59014380Y-116102642D01*
X59062000Y-116007404D01*
X59109619Y-115959785D01*
X59204857Y-115912166D01*
X59347714Y-115912166D01*
X59442952Y-115959785D01*
X59490571Y-116007404D01*
X59538190Y-116102642D01*
X59538190Y-116483595D01*
X60014380Y-114959785D02*
X60014380Y-115531214D01*
X60014380Y-115245500D02*
X59014380Y-115245500D01*
X59157238Y-115340738D01*
X59252476Y-115435976D01*
X59300095Y-115531214D01*
X57982380Y-115910416D02*
X57506190Y-116243750D01*
X57982380Y-116481845D02*
X56982380Y-116481845D01*
X56982380Y-116100892D01*
X57030000Y-116005654D01*
X57077619Y-115958035D01*
X57172857Y-115910416D01*
X57315714Y-115910416D01*
X57410952Y-115958035D01*
X57458571Y-116005654D01*
X57506190Y-116100892D01*
X57506190Y-116481845D01*
X57077619Y-115529464D02*
X57030000Y-115481845D01*
X56982380Y-115386607D01*
X56982380Y-115148511D01*
X57030000Y-115053273D01*
X57077619Y-115005654D01*
X57172857Y-114958035D01*
X57268095Y-114958035D01*
X57410952Y-115005654D01*
X57982380Y-115577083D01*
X57982380Y-114958035D01*
X70977380Y-106777083D02*
X71691666Y-106777083D01*
X71834523Y-106824702D01*
X71929761Y-106919940D01*
X71977380Y-107062797D01*
X71977380Y-107158035D01*
X71977380Y-105777083D02*
X71977380Y-106348511D01*
X71977380Y-106062797D02*
X70977380Y-106062797D01*
X71120238Y-106158035D01*
X71215476Y-106253273D01*
X71263095Y-106348511D01*
X63849309Y-118891440D02*
X63849309Y-119367630D01*
X63515976Y-118367630D02*
X63849309Y-118891440D01*
X64182642Y-118367630D01*
X65039785Y-119367630D02*
X64468357Y-119367630D01*
X64754071Y-119367630D02*
X64754071Y-118367630D01*
X64658833Y-118510488D01*
X64563595Y-118605726D01*
X64468357Y-118653345D01*
X54173654Y-107846880D02*
X54173654Y-108656404D01*
X54221273Y-108751642D01*
X54268892Y-108799261D01*
X54364130Y-108846880D01*
X54554607Y-108846880D01*
X54649845Y-108799261D01*
X54697464Y-108751642D01*
X54745083Y-108656404D01*
X54745083Y-107846880D01*
X55173654Y-108799261D02*
X55316511Y-108846880D01*
X55554607Y-108846880D01*
X55649845Y-108799261D01*
X55697464Y-108751642D01*
X55745083Y-108656404D01*
X55745083Y-108561166D01*
X55697464Y-108465928D01*
X55649845Y-108418309D01*
X55554607Y-108370690D01*
X55364130Y-108323071D01*
X55268892Y-108275452D01*
X55221273Y-108227833D01*
X55173654Y-108132595D01*
X55173654Y-108037357D01*
X55221273Y-107942119D01*
X55268892Y-107894500D01*
X55364130Y-107846880D01*
X55602226Y-107846880D01*
X55745083Y-107894500D01*
X56506988Y-108323071D02*
X56649845Y-108370690D01*
X56697464Y-108418309D01*
X56745083Y-108513547D01*
X56745083Y-108656404D01*
X56697464Y-108751642D01*
X56649845Y-108799261D01*
X56554607Y-108846880D01*
X56173654Y-108846880D01*
X56173654Y-107846880D01*
X56506988Y-107846880D01*
X56602226Y-107894500D01*
X56649845Y-107942119D01*
X56697464Y-108037357D01*
X56697464Y-108132595D01*
X56649845Y-108227833D01*
X56602226Y-108275452D01*
X56506988Y-108323071D01*
X56173654Y-108323071D01*
X57697464Y-108846880D02*
X57126035Y-108846880D01*
X57411750Y-108846880D02*
X57411750Y-107846880D01*
X57316511Y-107989738D01*
X57221273Y-108084976D01*
X57126035Y-108132595D01*
X63563595Y-139331630D02*
X63563595Y-140141154D01*
X63611214Y-140236392D01*
X63658833Y-140284011D01*
X63754071Y-140331630D01*
X63944547Y-140331630D01*
X64039785Y-140284011D01*
X64087404Y-140236392D01*
X64135023Y-140141154D01*
X64135023Y-139331630D01*
X65135023Y-140331630D02*
X64563595Y-140331630D01*
X64849309Y-140331630D02*
X64849309Y-139331630D01*
X64754071Y-139474488D01*
X64658833Y-139569726D01*
X64563595Y-139617345D01*
X65341666Y-104290761D02*
X65484523Y-104338380D01*
X65722619Y-104338380D01*
X65817857Y-104290761D01*
X65865476Y-104243142D01*
X65913095Y-104147904D01*
X65913095Y-104052666D01*
X65865476Y-103957428D01*
X65817857Y-103909809D01*
X65722619Y-103862190D01*
X65532142Y-103814571D01*
X65436904Y-103766952D01*
X65389285Y-103719333D01*
X65341666Y-103624095D01*
X65341666Y-103528857D01*
X65389285Y-103433619D01*
X65436904Y-103386000D01*
X65532142Y-103338380D01*
X65770238Y-103338380D01*
X65913095Y-103386000D01*
X66246428Y-103338380D02*
X66484523Y-104338380D01*
X66675000Y-103624095D01*
X66865476Y-104338380D01*
X67103571Y-103338380D01*
X68008333Y-104338380D02*
X67436904Y-104338380D01*
X67722619Y-104338380D02*
X67722619Y-103338380D01*
X67627380Y-103481238D01*
X67532142Y-103576476D01*
X67436904Y-103624095D01*
X57220380Y-139296916D02*
X56744190Y-139630250D01*
X57220380Y-139868345D02*
X56220380Y-139868345D01*
X56220380Y-139487392D01*
X56268000Y-139392154D01*
X56315619Y-139344535D01*
X56410857Y-139296916D01*
X56553714Y-139296916D01*
X56648952Y-139344535D01*
X56696571Y-139392154D01*
X56744190Y-139487392D01*
X56744190Y-139868345D01*
X56553714Y-138439773D02*
X57220380Y-138439773D01*
X56172761Y-138677869D02*
X56887047Y-138915964D01*
X56887047Y-138296916D01*
X76270380Y-123421916D02*
X75794190Y-123755250D01*
X76270380Y-123993345D02*
X75270380Y-123993345D01*
X75270380Y-123612392D01*
X75318000Y-123517154D01*
X75365619Y-123469535D01*
X75460857Y-123421916D01*
X75603714Y-123421916D01*
X75698952Y-123469535D01*
X75746571Y-123517154D01*
X75794190Y-123612392D01*
X75794190Y-123993345D01*
X75270380Y-123088583D02*
X75270380Y-122469535D01*
X75651333Y-122802869D01*
X75651333Y-122660011D01*
X75698952Y-122564773D01*
X75746571Y-122517154D01*
X75841809Y-122469535D01*
X76079904Y-122469535D01*
X76175142Y-122517154D01*
X76222761Y-122564773D01*
X76270380Y-122660011D01*
X76270380Y-122945726D01*
X76222761Y-123040964D01*
X76175142Y-123088583D01*
X64122166Y-111695071D02*
X63788833Y-111695071D01*
X63788833Y-112218880D02*
X63788833Y-111218880D01*
X64265023Y-111218880D01*
X65169785Y-112218880D02*
X64598357Y-112218880D01*
X64884071Y-112218880D02*
X64884071Y-111218880D01*
X64788833Y-111361738D01*
X64693595Y-111456976D01*
X64598357Y-111504595D01*
X78524642Y-133137416D02*
X78572261Y-133185035D01*
X78619880Y-133327892D01*
X78619880Y-133423130D01*
X78572261Y-133565988D01*
X78477023Y-133661226D01*
X78381785Y-133708845D01*
X78191309Y-133756464D01*
X78048452Y-133756464D01*
X77857976Y-133708845D01*
X77762738Y-133661226D01*
X77667500Y-133565988D01*
X77619880Y-133423130D01*
X77619880Y-133327892D01*
X77667500Y-133185035D01*
X77715119Y-133137416D01*
X77619880Y-132804083D02*
X77619880Y-132137416D01*
X78619880Y-132565988D01*
X67507583Y-120164892D02*
X67459964Y-120212511D01*
X67317107Y-120260130D01*
X67221869Y-120260130D01*
X67079011Y-120212511D01*
X66983773Y-120117273D01*
X66936154Y-120022035D01*
X66888535Y-119831559D01*
X66888535Y-119688702D01*
X66936154Y-119498226D01*
X66983773Y-119402988D01*
X67079011Y-119307750D01*
X67221869Y-119260130D01*
X67317107Y-119260130D01*
X67459964Y-119307750D01*
X67507583Y-119355369D01*
X68364726Y-119260130D02*
X68174250Y-119260130D01*
X68079011Y-119307750D01*
X68031392Y-119355369D01*
X67936154Y-119498226D01*
X67888535Y-119688702D01*
X67888535Y-120069654D01*
X67936154Y-120164892D01*
X67983773Y-120212511D01*
X68079011Y-120260130D01*
X68269488Y-120260130D01*
X68364726Y-120212511D01*
X68412345Y-120164892D01*
X68459964Y-120069654D01*
X68459964Y-119831559D01*
X68412345Y-119736321D01*
X68364726Y-119688702D01*
X68269488Y-119641083D01*
X68079011Y-119641083D01*
X67983773Y-119688702D01*
X67936154Y-119736321D01*
X67888535Y-119831559D01*
X62332142Y-121466666D02*
X62379761Y-121514285D01*
X62427380Y-121657142D01*
X62427380Y-121752380D01*
X62379761Y-121895238D01*
X62284523Y-121990476D01*
X62189285Y-122038095D01*
X61998809Y-122085714D01*
X61855952Y-122085714D01*
X61665476Y-122038095D01*
X61570238Y-121990476D01*
X61475000Y-121895238D01*
X61427380Y-121752380D01*
X61427380Y-121657142D01*
X61475000Y-121514285D01*
X61522619Y-121466666D01*
X61427380Y-120561904D02*
X61427380Y-121038095D01*
X61903571Y-121085714D01*
X61855952Y-121038095D01*
X61808333Y-120942857D01*
X61808333Y-120704761D01*
X61855952Y-120609523D01*
X61903571Y-120561904D01*
X61998809Y-120514285D01*
X62236904Y-120514285D01*
X62332142Y-120561904D01*
X62379761Y-120609523D01*
X62427380Y-120704761D01*
X62427380Y-120942857D01*
X62379761Y-121038095D01*
X62332142Y-121085714D01*
X69160333Y-144200392D02*
X69112714Y-144248011D01*
X68969857Y-144295630D01*
X68874619Y-144295630D01*
X68731761Y-144248011D01*
X68636523Y-144152773D01*
X68588904Y-144057535D01*
X68541285Y-143867059D01*
X68541285Y-143724202D01*
X68588904Y-143533726D01*
X68636523Y-143438488D01*
X68731761Y-143343250D01*
X68874619Y-143295630D01*
X68969857Y-143295630D01*
X69112714Y-143343250D01*
X69160333Y-143390869D01*
X70017476Y-143628964D02*
X70017476Y-144295630D01*
X69779380Y-143248011D02*
X69541285Y-143962297D01*
X70160333Y-143962297D01*
X56189583Y-144200392D02*
X56141964Y-144248011D01*
X55999107Y-144295630D01*
X55903869Y-144295630D01*
X55761011Y-144248011D01*
X55665773Y-144152773D01*
X55618154Y-144057535D01*
X55570535Y-143867059D01*
X55570535Y-143724202D01*
X55618154Y-143533726D01*
X55665773Y-143438488D01*
X55761011Y-143343250D01*
X55903869Y-143295630D01*
X55999107Y-143295630D01*
X56141964Y-143343250D01*
X56189583Y-143390869D01*
X56522916Y-143295630D02*
X57141964Y-143295630D01*
X56808630Y-143676583D01*
X56951488Y-143676583D01*
X57046726Y-143724202D01*
X57094345Y-143771821D01*
X57141964Y-143867059D01*
X57141964Y-144105154D01*
X57094345Y-144200392D01*
X57046726Y-144248011D01*
X56951488Y-144295630D01*
X56665773Y-144295630D01*
X56570535Y-144248011D01*
X56522916Y-144200392D01*
X68620642Y-121531916D02*
X68668261Y-121579535D01*
X68715880Y-121722392D01*
X68715880Y-121817630D01*
X68668261Y-121960488D01*
X68573023Y-122055726D01*
X68477785Y-122103345D01*
X68287309Y-122150964D01*
X68144452Y-122150964D01*
X67953976Y-122103345D01*
X67858738Y-122055726D01*
X67763500Y-121960488D01*
X67715880Y-121817630D01*
X67715880Y-121722392D01*
X67763500Y-121579535D01*
X67811119Y-121531916D01*
X67811119Y-121150964D02*
X67763500Y-121103345D01*
X67715880Y-121008107D01*
X67715880Y-120770011D01*
X67763500Y-120674773D01*
X67811119Y-120627154D01*
X67906357Y-120579535D01*
X68001595Y-120579535D01*
X68144452Y-120627154D01*
X68715880Y-121198583D01*
X68715880Y-120579535D01*
X51031142Y-115912166D02*
X51078761Y-115959785D01*
X51126380Y-116102642D01*
X51126380Y-116197880D01*
X51078761Y-116340738D01*
X50983523Y-116435976D01*
X50888285Y-116483595D01*
X50697809Y-116531214D01*
X50554952Y-116531214D01*
X50364476Y-116483595D01*
X50269238Y-116435976D01*
X50174000Y-116340738D01*
X50126380Y-116197880D01*
X50126380Y-116102642D01*
X50174000Y-115959785D01*
X50221619Y-115912166D01*
X51126380Y-114959785D02*
X51126380Y-115531214D01*
X51126380Y-115245500D02*
X50126380Y-115245500D01*
X50269238Y-115340738D01*
X50364476Y-115435976D01*
X50412095Y-115531214D01*
D10*
X58622000Y-115486922D02*
X58622000Y-116004078D01*
X57202000Y-115486922D02*
X57202000Y-116004078D01*
X56590000Y-115485172D02*
X56590000Y-116002328D01*
X55170000Y-115485172D02*
X55170000Y-116002328D01*
X72340000Y-109428750D02*
X72340000Y-108743750D01*
X73025000Y-109428750D02*
X72340000Y-109428750D01*
X75235000Y-107091734D02*
X75235000Y-106903750D01*
X74815000Y-107091734D02*
X74815000Y-106903750D01*
X75235000Y-103583750D02*
X75235000Y-105583750D01*
X74815000Y-103583750D02*
X75235000Y-103583750D01*
X74815000Y-105583750D02*
X74815000Y-103583750D01*
X74525000Y-106903750D02*
X74525000Y-105583750D01*
X74235000Y-107091734D02*
X74235000Y-106903750D01*
X73815000Y-107091734D02*
X73815000Y-106903750D01*
X74235000Y-103583750D02*
X74235000Y-105583750D01*
X73815000Y-103583750D02*
X74235000Y-103583750D01*
X73815000Y-105583750D02*
X73815000Y-103583750D01*
X73525000Y-106903750D02*
X73525000Y-105583750D01*
X73235000Y-107091734D02*
X73235000Y-106903750D01*
X72815000Y-107091734D02*
X72815000Y-106903750D01*
X73115000Y-105583750D02*
X73115000Y-103583750D01*
X72995000Y-105583750D02*
X72995000Y-103583750D01*
X72875000Y-105583750D02*
X72875000Y-103583750D01*
X73235000Y-103583750D02*
X73235000Y-105583750D01*
X72815000Y-103583750D02*
X73235000Y-103583750D01*
X72815000Y-105583750D02*
X72815000Y-103583750D01*
X72465000Y-105583750D02*
X72465000Y-106903750D01*
X75585000Y-105583750D02*
X72465000Y-105583750D01*
X75585000Y-106903750D02*
X75585000Y-105583750D01*
X72465000Y-106903750D02*
X75585000Y-106903750D01*
X62325500Y-119715250D02*
X62325500Y-123015250D01*
X62325500Y-123015250D02*
X66325500Y-123015250D01*
D11*
X59761750Y-111812500D02*
X52061750Y-111812500D01*
X52061750Y-106362500D02*
X52061750Y-111812500D01*
X59761750Y-106362500D02*
X59761750Y-111812500D01*
X69500500Y-137604250D02*
X69500500Y-137029250D01*
X59150500Y-137604250D02*
X59150500Y-136929250D01*
X59150500Y-127254250D02*
X59150500Y-127929250D01*
X69500500Y-127254250D02*
X69500500Y-127929250D01*
X69500500Y-137604250D02*
X68825500Y-137604250D01*
X69500500Y-127254250D02*
X68825500Y-127254250D01*
X59150500Y-127254250D02*
X59825500Y-127254250D01*
X59150500Y-137604250D02*
X59825500Y-137604250D01*
X69500500Y-137029250D02*
X70775500Y-137029250D01*
X67675000Y-107950000D02*
G75*
G03*
X67675000Y-107950000I-1000000J0D01*
G01*
X69275000Y-105350000D02*
X69275000Y-110550000D01*
X64075000Y-105350000D02*
X69275000Y-105350000D01*
X64075000Y-110550000D02*
X64075000Y-105350000D01*
X69275000Y-110550000D02*
X64075000Y-110550000D01*
D10*
X55828000Y-138871672D02*
X55828000Y-139388828D01*
X54408000Y-138871672D02*
X54408000Y-139388828D01*
X74878000Y-122996672D02*
X74878000Y-123513828D01*
X73458000Y-122996672D02*
X73458000Y-123513828D01*
X63853436Y-112676500D02*
X65057564Y-112676500D01*
X63853436Y-114496500D02*
X65057564Y-114496500D01*
X77227500Y-132712172D02*
X77227500Y-133229328D01*
X75807500Y-132712172D02*
X75807500Y-133229328D01*
X67932828Y-118867750D02*
X67415672Y-118867750D01*
X67932828Y-117447750D02*
X67415672Y-117447750D01*
X61035000Y-121041422D02*
X61035000Y-121558578D01*
X59615000Y-121041422D02*
X59615000Y-121558578D01*
X69585578Y-142903250D02*
X69068422Y-142903250D01*
X69585578Y-141483250D02*
X69068422Y-141483250D01*
X56614828Y-142903250D02*
X56097672Y-142903250D01*
X56614828Y-141483250D02*
X56097672Y-141483250D01*
X69203500Y-121623828D02*
X69203500Y-121106672D01*
X70623500Y-121623828D02*
X70623500Y-121106672D01*
X51614000Y-116004078D02*
X51614000Y-115486922D01*
X53034000Y-116004078D02*
X53034000Y-115486922D01*
M02*
