G04 #@! TF.GenerationSoftware,KiCad,Pcbnew,(5.99.0-2887-gdf45a6699)*
G04 #@! TF.CreationDate,2020-09-23T12:44:11-05:00*
G04 #@! TF.ProjectId,my-keyboard,6d792d6b-6579-4626-9f61-72642e6b6963,rev?*
G04 #@! TF.SameCoordinates,Original*
G04 #@! TF.FileFunction,Copper,L1,Top*
G04 #@! TF.FilePolarity,Positive*
%FSLAX46Y46*%
G04 Gerber Fmt 4.6, Leading zero omitted, Abs format (unit mm)*
G04 Created by KiCad (PCBNEW (5.99.0-2887-gdf45a6699)) date 2020-09-23 12:44:11*
%MOMM*%
%LPD*%
G01*
G04 APERTURE LIST*
%ADD10C,0.300000*%
G04 #@! TA.AperFunction,ComponentPad*
%ADD11C,2.250000*%
G04 #@! TD*
G04 #@! TA.AperFunction,ComponentPad*
%ADD12C,1.905000*%
G04 #@! TD*
G04 #@! TA.AperFunction,ComponentPad*
%ADD13R,1.905000X1.905000*%
G04 #@! TD*
G04 #@! TA.AperFunction,SMDPad,CuDef*
%ADD14R,1.800000X1.100000*%
G04 #@! TD*
G04 #@! TA.AperFunction,SMDPad,CuDef*
%ADD15R,0.550000X1.500000*%
G04 #@! TD*
G04 #@! TA.AperFunction,SMDPad,CuDef*
%ADD16R,1.500000X0.550000*%
G04 #@! TD*
G04 #@! TA.AperFunction,SMDPad,CuDef*
%ADD17R,0.500000X2.250000*%
G04 #@! TD*
G04 #@! TA.AperFunction,ComponentPad*
%ADD18O,1.700000X2.700000*%
G04 #@! TD*
G04 #@! TA.AperFunction,SMDPad,CuDef*
%ADD19R,1.400000X1.200000*%
G04 #@! TD*
G04 #@! TA.AperFunction,ComponentPad*
%ADD20R,0.850000X0.850000*%
G04 #@! TD*
G04 #@! TA.AperFunction,ComponentPad*
%ADD21O,0.850000X0.850000*%
G04 #@! TD*
G04 #@! TA.AperFunction,ViaPad*
%ADD22C,0.800000*%
G04 #@! TD*
G04 #@! TA.AperFunction,Conductor*
%ADD23C,0.254000*%
G04 #@! TD*
G04 #@! TA.AperFunction,Conductor*
%ADD24C,0.381000*%
G04 #@! TD*
G04 APERTURE END LIST*
D10*
X392541071Y-280872321D02*
X391683928Y-280872321D01*
X392112500Y-280872321D02*
X392112500Y-279372321D01*
X391969642Y-279586607D01*
X391826785Y-279729464D01*
X391683928Y-279800892D01*
X302277678Y-266469642D02*
X302277678Y-263469642D01*
X303277678Y-265612500D01*
X304277678Y-263469642D01*
X304277678Y-266469642D01*
X306991964Y-266469642D02*
X306991964Y-264898214D01*
X306849107Y-264612500D01*
X306563392Y-264469642D01*
X305991964Y-264469642D01*
X305706250Y-264612500D01*
X306991964Y-266326785D02*
X306706250Y-266469642D01*
X305991964Y-266469642D01*
X305706250Y-266326785D01*
X305563392Y-266041071D01*
X305563392Y-265755357D01*
X305706250Y-265469642D01*
X305991964Y-265326785D01*
X306706250Y-265326785D01*
X306991964Y-265183928D01*
X307991964Y-264469642D02*
X309134821Y-264469642D01*
X308420535Y-263469642D02*
X308420535Y-266041071D01*
X308563392Y-266326785D01*
X308849107Y-266469642D01*
X309134821Y-266469642D01*
X309706250Y-264469642D02*
X310849107Y-264469642D01*
X310134821Y-263469642D02*
X310134821Y-266041071D01*
X310277678Y-266326785D01*
X310563392Y-266469642D01*
X310849107Y-266469642D01*
X315134821Y-264898214D02*
X315563392Y-265041071D01*
X315706250Y-265183928D01*
X315849107Y-265469642D01*
X315849107Y-265898214D01*
X315706250Y-266183928D01*
X315563392Y-266326785D01*
X315277678Y-266469642D01*
X314134821Y-266469642D01*
X314134821Y-263469642D01*
X315134821Y-263469642D01*
X315420535Y-263612500D01*
X315563392Y-263755357D01*
X315706250Y-264041071D01*
X315706250Y-264326785D01*
X315563392Y-264612500D01*
X315420535Y-264755357D01*
X315134821Y-264898214D01*
X314134821Y-264898214D01*
X318420535Y-266469642D02*
X318420535Y-264898214D01*
X318277678Y-264612500D01*
X317991964Y-264469642D01*
X317420535Y-264469642D01*
X317134821Y-264612500D01*
X318420535Y-266326785D02*
X318134821Y-266469642D01*
X317420535Y-266469642D01*
X317134821Y-266326785D01*
X316991964Y-266041071D01*
X316991964Y-265755357D01*
X317134821Y-265469642D01*
X317420535Y-265326785D01*
X318134821Y-265326785D01*
X318420535Y-265183928D01*
X321134821Y-264469642D02*
X321134821Y-266898214D01*
X320991964Y-267183928D01*
X320849107Y-267326785D01*
X320563392Y-267469642D01*
X320134821Y-267469642D01*
X319849107Y-267326785D01*
X321134821Y-266326785D02*
X320849107Y-266469642D01*
X320277678Y-266469642D01*
X319991964Y-266326785D01*
X319849107Y-266183928D01*
X319706250Y-265898214D01*
X319706250Y-265041071D01*
X319849107Y-264755357D01*
X319991964Y-264612500D01*
X320277678Y-264469642D01*
X320849107Y-264469642D01*
X321134821Y-264612500D01*
X322563392Y-264469642D02*
X322563392Y-266469642D01*
X322563392Y-264755357D02*
X322706250Y-264612500D01*
X322991964Y-264469642D01*
X323420535Y-264469642D01*
X323706250Y-264612500D01*
X323849107Y-264898214D01*
X323849107Y-266469642D01*
X326563392Y-266469642D02*
X326563392Y-264898214D01*
X326420535Y-264612500D01*
X326134821Y-264469642D01*
X325563392Y-264469642D01*
X325277678Y-264612500D01*
X326563392Y-266326785D02*
X326277678Y-266469642D01*
X325563392Y-266469642D01*
X325277678Y-266326785D01*
X325134821Y-266041071D01*
X325134821Y-265755357D01*
X325277678Y-265469642D01*
X325563392Y-265326785D01*
X326277678Y-265326785D01*
X326563392Y-265183928D01*
X327991964Y-266469642D02*
X327991964Y-264469642D01*
X327991964Y-265041071D02*
X328134821Y-264755357D01*
X328277678Y-264612500D01*
X328563392Y-264469642D01*
X328849107Y-264469642D01*
X331134821Y-266469642D02*
X331134821Y-264898214D01*
X330991964Y-264612500D01*
X330706250Y-264469642D01*
X330134821Y-264469642D01*
X329849107Y-264612500D01*
X331134821Y-266326785D02*
X330849107Y-266469642D01*
X330134821Y-266469642D01*
X329849107Y-266326785D01*
X329706250Y-266041071D01*
X329706250Y-265755357D01*
X329849107Y-265469642D01*
X330134821Y-265326785D01*
X330849107Y-265326785D01*
X331134821Y-265183928D01*
X311624107Y-276117857D02*
X311838392Y-276189285D01*
X311909821Y-276260714D01*
X311981250Y-276403571D01*
X311981250Y-276617857D01*
X311909821Y-276760714D01*
X311838392Y-276832142D01*
X311695535Y-276903571D01*
X311124107Y-276903571D01*
X311124107Y-275403571D01*
X311624107Y-275403571D01*
X311766964Y-275475000D01*
X311838392Y-275546428D01*
X311909821Y-275689285D01*
X311909821Y-275832142D01*
X311838392Y-275975000D01*
X311766964Y-276046428D01*
X311624107Y-276117857D01*
X311124107Y-276117857D01*
X313266964Y-276903571D02*
X313266964Y-276117857D01*
X313195535Y-275975000D01*
X313052678Y-275903571D01*
X312766964Y-275903571D01*
X312624107Y-275975000D01*
X313266964Y-276832142D02*
X313124107Y-276903571D01*
X312766964Y-276903571D01*
X312624107Y-276832142D01*
X312552678Y-276689285D01*
X312552678Y-276546428D01*
X312624107Y-276403571D01*
X312766964Y-276332142D01*
X313124107Y-276332142D01*
X313266964Y-276260714D01*
X314624107Y-275903571D02*
X314624107Y-277117857D01*
X314552678Y-277260714D01*
X314481250Y-277332142D01*
X314338392Y-277403571D01*
X314124107Y-277403571D01*
X313981250Y-277332142D01*
X314624107Y-276832142D02*
X314481250Y-276903571D01*
X314195535Y-276903571D01*
X314052678Y-276832142D01*
X313981250Y-276760714D01*
X313909821Y-276617857D01*
X313909821Y-276189285D01*
X313981250Y-276046428D01*
X314052678Y-275975000D01*
X314195535Y-275903571D01*
X314481250Y-275903571D01*
X314624107Y-275975000D01*
X315338392Y-275903571D02*
X315338392Y-276903571D01*
X315338392Y-276046428D02*
X315409821Y-275975000D01*
X315552678Y-275903571D01*
X315766964Y-275903571D01*
X315909821Y-275975000D01*
X315981250Y-276117857D01*
X315981250Y-276903571D01*
X317338392Y-276903571D02*
X317338392Y-276117857D01*
X317266964Y-275975000D01*
X317124107Y-275903571D01*
X316838392Y-275903571D01*
X316695535Y-275975000D01*
X317338392Y-276832142D02*
X317195535Y-276903571D01*
X316838392Y-276903571D01*
X316695535Y-276832142D01*
X316624107Y-276689285D01*
X316624107Y-276546428D01*
X316695535Y-276403571D01*
X316838392Y-276332142D01*
X317195535Y-276332142D01*
X317338392Y-276260714D01*
X318052678Y-276903571D02*
X318052678Y-275903571D01*
X318052678Y-276189285D02*
X318124107Y-276046428D01*
X318195535Y-275975000D01*
X318338392Y-275903571D01*
X318481250Y-275903571D01*
X319624107Y-276903571D02*
X319624107Y-276117857D01*
X319552678Y-275975000D01*
X319409821Y-275903571D01*
X319124107Y-275903571D01*
X318981250Y-275975000D01*
X319624107Y-276832142D02*
X319481250Y-276903571D01*
X319124107Y-276903571D01*
X318981250Y-276832142D01*
X318909821Y-276689285D01*
X318909821Y-276546428D01*
X318981250Y-276403571D01*
X319124107Y-276332142D01*
X319481250Y-276332142D01*
X319624107Y-276260714D01*
X320338392Y-276903571D02*
X320338392Y-275903571D01*
X320338392Y-276046428D02*
X320409821Y-275975000D01*
X320552678Y-275903571D01*
X320766964Y-275903571D01*
X320909821Y-275975000D01*
X320981250Y-276117857D01*
X320981250Y-276903571D01*
X320981250Y-276117857D02*
X321052678Y-275975000D01*
X321195535Y-275903571D01*
X321409821Y-275903571D01*
X321552678Y-275975000D01*
X321624107Y-276117857D01*
X321624107Y-276903571D01*
X322409821Y-275403571D02*
X322266964Y-275689285D01*
X322981250Y-276832142D02*
X323124107Y-276903571D01*
X323409821Y-276903571D01*
X323552678Y-276832142D01*
X323624107Y-276689285D01*
X323624107Y-276617857D01*
X323552678Y-276475000D01*
X323409821Y-276403571D01*
X323195535Y-276403571D01*
X323052678Y-276332142D01*
X322981250Y-276189285D01*
X322981250Y-276117857D01*
X323052678Y-275975000D01*
X323195535Y-275903571D01*
X323409821Y-275903571D01*
X323552678Y-275975000D01*
X325409821Y-276903571D02*
X325409821Y-275403571D01*
X325909821Y-276475000D01*
X326409821Y-275403571D01*
X326409821Y-276903571D01*
X327695535Y-276832142D02*
X327552678Y-276903571D01*
X327266964Y-276903571D01*
X327124107Y-276832142D01*
X327052678Y-276689285D01*
X327052678Y-276117857D01*
X327124107Y-275975000D01*
X327266964Y-275903571D01*
X327552678Y-275903571D01*
X327695535Y-275975000D01*
X327766964Y-276117857D01*
X327766964Y-276260714D01*
X327052678Y-276403571D01*
X329052678Y-276832142D02*
X328909821Y-276903571D01*
X328624107Y-276903571D01*
X328481250Y-276832142D01*
X328409821Y-276760714D01*
X328338392Y-276617857D01*
X328338392Y-276189285D01*
X328409821Y-276046428D01*
X328481250Y-275975000D01*
X328624107Y-275903571D01*
X328909821Y-275903571D01*
X329052678Y-275975000D01*
X329695535Y-276903571D02*
X329695535Y-275403571D01*
X330338392Y-276903571D02*
X330338392Y-276117857D01*
X330266964Y-275975000D01*
X330124107Y-275903571D01*
X329909821Y-275903571D01*
X329766964Y-275975000D01*
X329695535Y-276046428D01*
X331695535Y-276903571D02*
X331695535Y-276117857D01*
X331624107Y-275975000D01*
X331481250Y-275903571D01*
X331195535Y-275903571D01*
X331052678Y-275975000D01*
X331695535Y-276832142D02*
X331552678Y-276903571D01*
X331195535Y-276903571D01*
X331052678Y-276832142D01*
X330981250Y-276689285D01*
X330981250Y-276546428D01*
X331052678Y-276403571D01*
X331195535Y-276332142D01*
X331552678Y-276332142D01*
X331695535Y-276260714D01*
X332409821Y-275903571D02*
X332409821Y-276903571D01*
X332409821Y-276046428D02*
X332481250Y-275975000D01*
X332624107Y-275903571D01*
X332838392Y-275903571D01*
X332981250Y-275975000D01*
X333052678Y-276117857D01*
X333052678Y-276903571D01*
X333766964Y-276903571D02*
X333766964Y-275903571D01*
X333766964Y-275403571D02*
X333695535Y-275475000D01*
X333766964Y-275546428D01*
X333838392Y-275475000D01*
X333766964Y-275403571D01*
X333766964Y-275546428D01*
X335124107Y-276832142D02*
X334981250Y-276903571D01*
X334695535Y-276903571D01*
X334552678Y-276832142D01*
X334481250Y-276760714D01*
X334409821Y-276617857D01*
X334409821Y-276189285D01*
X334481250Y-276046428D01*
X334552678Y-275975000D01*
X334695535Y-275903571D01*
X334981250Y-275903571D01*
X335124107Y-275975000D01*
X336409821Y-276903571D02*
X336409821Y-276117857D01*
X336338392Y-275975000D01*
X336195535Y-275903571D01*
X335909821Y-275903571D01*
X335766964Y-275975000D01*
X336409821Y-276832142D02*
X336266964Y-276903571D01*
X335909821Y-276903571D01*
X335766964Y-276832142D01*
X335695535Y-276689285D01*
X335695535Y-276546428D01*
X335766964Y-276403571D01*
X335909821Y-276332142D01*
X336266964Y-276332142D01*
X336409821Y-276260714D01*
X337338392Y-276903571D02*
X337195535Y-276832142D01*
X337124107Y-276689285D01*
X337124107Y-275403571D01*
X339052678Y-276903571D02*
X339052678Y-275403571D01*
X339909821Y-276903571D02*
X339266964Y-276046428D01*
X339909821Y-275403571D02*
X339052678Y-276260714D01*
X341052678Y-276117857D02*
X341266964Y-276189285D01*
X341338392Y-276260714D01*
X341409821Y-276403571D01*
X341409821Y-276617857D01*
X341338392Y-276760714D01*
X341266964Y-276832142D01*
X341124107Y-276903571D01*
X340552678Y-276903571D01*
X340552678Y-275403571D01*
X341052678Y-275403571D01*
X341195535Y-275475000D01*
X341266964Y-275546428D01*
X341338392Y-275689285D01*
X341338392Y-275832142D01*
X341266964Y-275975000D01*
X341195535Y-276046428D01*
X341052678Y-276117857D01*
X340552678Y-276117857D01*
D11*
X86400000Y-127762500D03*
G04 #@! TA.AperFunction,ComponentPad*
G36*
G01*
X84338688Y-130059850D02*
X84338683Y-130059845D01*
G75*
G02*
X84252655Y-128471183I751317J837345D01*
G01*
X85562657Y-127011183D01*
G75*
G02*
X87151319Y-126925155I837345J-751317D01*
G01*
X87151319Y-126925155D01*
G75*
G02*
X87237347Y-128513817I-751317J-837345D01*
G01*
X85927345Y-129973817D01*
G75*
G02*
X84338683Y-130059845I-837345J751317D01*
G01*
G37*
G04 #@! TD.AperFunction*
X91440000Y-126682500D03*
G04 #@! TA.AperFunction,ComponentPad*
G36*
G01*
X91323483Y-128384895D02*
X91322597Y-128384834D01*
G75*
G02*
X90277666Y-127185097I77403J1122334D01*
G01*
X90317666Y-126605097D01*
G75*
G02*
X91517403Y-125560166I1122334J-77403D01*
G01*
X91517403Y-125560166D01*
G75*
G02*
X92562334Y-126759903I-77403J-1122334D01*
G01*
X92522334Y-127339903D01*
G75*
G02*
X91322597Y-128384834I-1122334J77403D01*
G01*
G37*
G04 #@! TD.AperFunction*
X372150000Y-127762500D03*
G04 #@! TA.AperFunction,ComponentPad*
G36*
G01*
X370088688Y-130059850D02*
X370088683Y-130059845D01*
G75*
G02*
X370002655Y-128471183I751317J837345D01*
G01*
X371312657Y-127011183D01*
G75*
G02*
X372901319Y-126925155I837345J-751317D01*
G01*
X372901319Y-126925155D01*
G75*
G02*
X372987347Y-128513817I-751317J-837345D01*
G01*
X371677345Y-129973817D01*
G75*
G02*
X370088683Y-130059845I-837345J751317D01*
G01*
G37*
G04 #@! TD.AperFunction*
G04 #@! TA.AperFunction,ComponentPad*
G36*
G01*
X377073483Y-128384895D02*
X377072597Y-128384834D01*
G75*
G02*
X376027666Y-127185097I77403J1122334D01*
G01*
X376067666Y-126605097D01*
G75*
G02*
X377267403Y-125560166I1122334J-77403D01*
G01*
X377267403Y-125560166D01*
G75*
G02*
X378312334Y-126759903I-77403J-1122334D01*
G01*
X378272334Y-127339903D01*
G75*
G02*
X377072597Y-128384834I-1122334J77403D01*
G01*
G37*
G04 #@! TD.AperFunction*
X377190000Y-126682500D03*
X105450000Y-127762500D03*
G04 #@! TA.AperFunction,ComponentPad*
G36*
G01*
X103388688Y-130059850D02*
X103388683Y-130059845D01*
G75*
G02*
X103302655Y-128471183I751317J837345D01*
G01*
X104612657Y-127011183D01*
G75*
G02*
X106201319Y-126925155I837345J-751317D01*
G01*
X106201319Y-126925155D01*
G75*
G02*
X106287347Y-128513817I-751317J-837345D01*
G01*
X104977345Y-129973817D01*
G75*
G02*
X103388683Y-130059845I-837345J751317D01*
G01*
G37*
G04 #@! TD.AperFunction*
X110490000Y-126682500D03*
G04 #@! TA.AperFunction,ComponentPad*
G36*
G01*
X110373483Y-128384895D02*
X110372597Y-128384834D01*
G75*
G02*
X109327666Y-127185097I77403J1122334D01*
G01*
X109367666Y-126605097D01*
G75*
G02*
X110567403Y-125560166I1122334J-77403D01*
G01*
X110567403Y-125560166D01*
G75*
G02*
X111612334Y-126759903I-77403J-1122334D01*
G01*
X111572334Y-127339903D01*
G75*
G02*
X110372597Y-128384834I-1122334J77403D01*
G01*
G37*
G04 #@! TD.AperFunction*
X124500000Y-127762500D03*
G04 #@! TA.AperFunction,ComponentPad*
G36*
G01*
X122438688Y-130059850D02*
X122438683Y-130059845D01*
G75*
G02*
X122352655Y-128471183I751317J837345D01*
G01*
X123662657Y-127011183D01*
G75*
G02*
X125251319Y-126925155I837345J-751317D01*
G01*
X125251319Y-126925155D01*
G75*
G02*
X125337347Y-128513817I-751317J-837345D01*
G01*
X124027345Y-129973817D01*
G75*
G02*
X122438683Y-130059845I-837345J751317D01*
G01*
G37*
G04 #@! TD.AperFunction*
G04 #@! TA.AperFunction,ComponentPad*
G36*
G01*
X129423483Y-128384895D02*
X129422597Y-128384834D01*
G75*
G02*
X128377666Y-127185097I77403J1122334D01*
G01*
X128417666Y-126605097D01*
G75*
G02*
X129617403Y-125560166I1122334J-77403D01*
G01*
X129617403Y-125560166D01*
G75*
G02*
X130662334Y-126759903I-77403J-1122334D01*
G01*
X130622334Y-127339903D01*
G75*
G02*
X129422597Y-128384834I-1122334J77403D01*
G01*
G37*
G04 #@! TD.AperFunction*
X129540000Y-126682500D03*
X143550000Y-127762500D03*
G04 #@! TA.AperFunction,ComponentPad*
G36*
G01*
X141488688Y-130059850D02*
X141488683Y-130059845D01*
G75*
G02*
X141402655Y-128471183I751317J837345D01*
G01*
X142712657Y-127011183D01*
G75*
G02*
X144301319Y-126925155I837345J-751317D01*
G01*
X144301319Y-126925155D01*
G75*
G02*
X144387347Y-128513817I-751317J-837345D01*
G01*
X143077345Y-129973817D01*
G75*
G02*
X141488683Y-130059845I-837345J751317D01*
G01*
G37*
G04 #@! TD.AperFunction*
X148590000Y-126682500D03*
G04 #@! TA.AperFunction,ComponentPad*
G36*
G01*
X148473483Y-128384895D02*
X148472597Y-128384834D01*
G75*
G02*
X147427666Y-127185097I77403J1122334D01*
G01*
X147467666Y-126605097D01*
G75*
G02*
X148667403Y-125560166I1122334J-77403D01*
G01*
X148667403Y-125560166D01*
G75*
G02*
X149712334Y-126759903I-77403J-1122334D01*
G01*
X149672334Y-127339903D01*
G75*
G02*
X148472597Y-128384834I-1122334J77403D01*
G01*
G37*
G04 #@! TD.AperFunction*
G04 #@! TA.AperFunction,ComponentPad*
G36*
G01*
X160538688Y-130059850D02*
X160538683Y-130059845D01*
G75*
G02*
X160452655Y-128471183I751317J837345D01*
G01*
X161762657Y-127011183D01*
G75*
G02*
X163351319Y-126925155I837345J-751317D01*
G01*
X163351319Y-126925155D01*
G75*
G02*
X163437347Y-128513817I-751317J-837345D01*
G01*
X162127345Y-129973817D01*
G75*
G02*
X160538683Y-130059845I-837345J751317D01*
G01*
G37*
G04 #@! TD.AperFunction*
X162600000Y-127762500D03*
X167640000Y-126682500D03*
G04 #@! TA.AperFunction,ComponentPad*
G36*
G01*
X167523483Y-128384895D02*
X167522597Y-128384834D01*
G75*
G02*
X166477666Y-127185097I77403J1122334D01*
G01*
X166517666Y-126605097D01*
G75*
G02*
X167717403Y-125560166I1122334J-77403D01*
G01*
X167717403Y-125560166D01*
G75*
G02*
X168762334Y-126759903I-77403J-1122334D01*
G01*
X168722334Y-127339903D01*
G75*
G02*
X167522597Y-128384834I-1122334J77403D01*
G01*
G37*
G04 #@! TD.AperFunction*
G04 #@! TA.AperFunction,ComponentPad*
G36*
G01*
X179588688Y-130059850D02*
X179588683Y-130059845D01*
G75*
G02*
X179502655Y-128471183I751317J837345D01*
G01*
X180812657Y-127011183D01*
G75*
G02*
X182401319Y-126925155I837345J-751317D01*
G01*
X182401319Y-126925155D01*
G75*
G02*
X182487347Y-128513817I-751317J-837345D01*
G01*
X181177345Y-129973817D01*
G75*
G02*
X179588683Y-130059845I-837345J751317D01*
G01*
G37*
G04 #@! TD.AperFunction*
X181650000Y-127762500D03*
X186690000Y-126682500D03*
G04 #@! TA.AperFunction,ComponentPad*
G36*
G01*
X186573483Y-128384895D02*
X186572597Y-128384834D01*
G75*
G02*
X185527666Y-127185097I77403J1122334D01*
G01*
X185567666Y-126605097D01*
G75*
G02*
X186767403Y-125560166I1122334J-77403D01*
G01*
X186767403Y-125560166D01*
G75*
G02*
X187812334Y-126759903I-77403J-1122334D01*
G01*
X187772334Y-127339903D01*
G75*
G02*
X186572597Y-128384834I-1122334J77403D01*
G01*
G37*
G04 #@! TD.AperFunction*
G04 #@! TA.AperFunction,ComponentPad*
G36*
G01*
X198638688Y-130059850D02*
X198638683Y-130059845D01*
G75*
G02*
X198552655Y-128471183I751317J837345D01*
G01*
X199862657Y-127011183D01*
G75*
G02*
X201451319Y-126925155I837345J-751317D01*
G01*
X201451319Y-126925155D01*
G75*
G02*
X201537347Y-128513817I-751317J-837345D01*
G01*
X200227345Y-129973817D01*
G75*
G02*
X198638683Y-130059845I-837345J751317D01*
G01*
G37*
G04 #@! TD.AperFunction*
X200700000Y-127762500D03*
G04 #@! TA.AperFunction,ComponentPad*
G36*
G01*
X205623483Y-128384895D02*
X205622597Y-128384834D01*
G75*
G02*
X204577666Y-127185097I77403J1122334D01*
G01*
X204617666Y-126605097D01*
G75*
G02*
X205817403Y-125560166I1122334J-77403D01*
G01*
X205817403Y-125560166D01*
G75*
G02*
X206862334Y-126759903I-77403J-1122334D01*
G01*
X206822334Y-127339903D01*
G75*
G02*
X205622597Y-128384834I-1122334J77403D01*
G01*
G37*
G04 #@! TD.AperFunction*
X205740000Y-126682500D03*
G04 #@! TA.AperFunction,ComponentPad*
G36*
G01*
X217688688Y-130059850D02*
X217688683Y-130059845D01*
G75*
G02*
X217602655Y-128471183I751317J837345D01*
G01*
X218912657Y-127011183D01*
G75*
G02*
X220501319Y-126925155I837345J-751317D01*
G01*
X220501319Y-126925155D01*
G75*
G02*
X220587347Y-128513817I-751317J-837345D01*
G01*
X219277345Y-129973817D01*
G75*
G02*
X217688683Y-130059845I-837345J751317D01*
G01*
G37*
G04 #@! TD.AperFunction*
X219750000Y-127762500D03*
X224790000Y-126682500D03*
G04 #@! TA.AperFunction,ComponentPad*
G36*
G01*
X224673483Y-128384895D02*
X224672597Y-128384834D01*
G75*
G02*
X223627666Y-127185097I77403J1122334D01*
G01*
X223667666Y-126605097D01*
G75*
G02*
X224867403Y-125560166I1122334J-77403D01*
G01*
X224867403Y-125560166D01*
G75*
G02*
X225912334Y-126759903I-77403J-1122334D01*
G01*
X225872334Y-127339903D01*
G75*
G02*
X224672597Y-128384834I-1122334J77403D01*
G01*
G37*
G04 #@! TD.AperFunction*
X238800000Y-127762500D03*
G04 #@! TA.AperFunction,ComponentPad*
G36*
G01*
X236738688Y-130059850D02*
X236738683Y-130059845D01*
G75*
G02*
X236652655Y-128471183I751317J837345D01*
G01*
X237962657Y-127011183D01*
G75*
G02*
X239551319Y-126925155I837345J-751317D01*
G01*
X239551319Y-126925155D01*
G75*
G02*
X239637347Y-128513817I-751317J-837345D01*
G01*
X238327345Y-129973817D01*
G75*
G02*
X236738683Y-130059845I-837345J751317D01*
G01*
G37*
G04 #@! TD.AperFunction*
X243840000Y-126682500D03*
G04 #@! TA.AperFunction,ComponentPad*
G36*
G01*
X243723483Y-128384895D02*
X243722597Y-128384834D01*
G75*
G02*
X242677666Y-127185097I77403J1122334D01*
G01*
X242717666Y-126605097D01*
G75*
G02*
X243917403Y-125560166I1122334J-77403D01*
G01*
X243917403Y-125560166D01*
G75*
G02*
X244962334Y-126759903I-77403J-1122334D01*
G01*
X244922334Y-127339903D01*
G75*
G02*
X243722597Y-128384834I-1122334J77403D01*
G01*
G37*
G04 #@! TD.AperFunction*
G04 #@! TA.AperFunction,ComponentPad*
G36*
G01*
X255788688Y-130059850D02*
X255788683Y-130059845D01*
G75*
G02*
X255702655Y-128471183I751317J837345D01*
G01*
X257012657Y-127011183D01*
G75*
G02*
X258601319Y-126925155I837345J-751317D01*
G01*
X258601319Y-126925155D01*
G75*
G02*
X258687347Y-128513817I-751317J-837345D01*
G01*
X257377345Y-129973817D01*
G75*
G02*
X255788683Y-130059845I-837345J751317D01*
G01*
G37*
G04 #@! TD.AperFunction*
X257850000Y-127762500D03*
G04 #@! TA.AperFunction,ComponentPad*
G36*
G01*
X262773483Y-128384895D02*
X262772597Y-128384834D01*
G75*
G02*
X261727666Y-127185097I77403J1122334D01*
G01*
X261767666Y-126605097D01*
G75*
G02*
X262967403Y-125560166I1122334J-77403D01*
G01*
X262967403Y-125560166D01*
G75*
G02*
X264012334Y-126759903I-77403J-1122334D01*
G01*
X263972334Y-127339903D01*
G75*
G02*
X262772597Y-128384834I-1122334J77403D01*
G01*
G37*
G04 #@! TD.AperFunction*
X262890000Y-126682500D03*
G04 #@! TA.AperFunction,ComponentPad*
G36*
G01*
X274838688Y-130059850D02*
X274838683Y-130059845D01*
G75*
G02*
X274752655Y-128471183I751317J837345D01*
G01*
X276062657Y-127011183D01*
G75*
G02*
X277651319Y-126925155I837345J-751317D01*
G01*
X277651319Y-126925155D01*
G75*
G02*
X277737347Y-128513817I-751317J-837345D01*
G01*
X276427345Y-129973817D01*
G75*
G02*
X274838683Y-130059845I-837345J751317D01*
G01*
G37*
G04 #@! TD.AperFunction*
X276900000Y-127762500D03*
G04 #@! TA.AperFunction,ComponentPad*
G36*
G01*
X281823483Y-128384895D02*
X281822597Y-128384834D01*
G75*
G02*
X280777666Y-127185097I77403J1122334D01*
G01*
X280817666Y-126605097D01*
G75*
G02*
X282017403Y-125560166I1122334J-77403D01*
G01*
X282017403Y-125560166D01*
G75*
G02*
X283062334Y-126759903I-77403J-1122334D01*
G01*
X283022334Y-127339903D01*
G75*
G02*
X281822597Y-128384834I-1122334J77403D01*
G01*
G37*
G04 #@! TD.AperFunction*
X281940000Y-126682500D03*
G04 #@! TA.AperFunction,ComponentPad*
G36*
G01*
X293888688Y-130059850D02*
X293888683Y-130059845D01*
G75*
G02*
X293802655Y-128471183I751317J837345D01*
G01*
X295112657Y-127011183D01*
G75*
G02*
X296701319Y-126925155I837345J-751317D01*
G01*
X296701319Y-126925155D01*
G75*
G02*
X296787347Y-128513817I-751317J-837345D01*
G01*
X295477345Y-129973817D01*
G75*
G02*
X293888683Y-130059845I-837345J751317D01*
G01*
G37*
G04 #@! TD.AperFunction*
X295950000Y-127762500D03*
G04 #@! TA.AperFunction,ComponentPad*
G36*
G01*
X300873483Y-128384895D02*
X300872597Y-128384834D01*
G75*
G02*
X299827666Y-127185097I77403J1122334D01*
G01*
X299867666Y-126605097D01*
G75*
G02*
X301067403Y-125560166I1122334J-77403D01*
G01*
X301067403Y-125560166D01*
G75*
G02*
X302112334Y-126759903I-77403J-1122334D01*
G01*
X302072334Y-127339903D01*
G75*
G02*
X300872597Y-128384834I-1122334J77403D01*
G01*
G37*
G04 #@! TD.AperFunction*
X300990000Y-126682500D03*
G04 #@! TA.AperFunction,ComponentPad*
G36*
G01*
X312938688Y-130059850D02*
X312938683Y-130059845D01*
G75*
G02*
X312852655Y-128471183I751317J837345D01*
G01*
X314162657Y-127011183D01*
G75*
G02*
X315751319Y-126925155I837345J-751317D01*
G01*
X315751319Y-126925155D01*
G75*
G02*
X315837347Y-128513817I-751317J-837345D01*
G01*
X314527345Y-129973817D01*
G75*
G02*
X312938683Y-130059845I-837345J751317D01*
G01*
G37*
G04 #@! TD.AperFunction*
X315000000Y-127762500D03*
G04 #@! TA.AperFunction,ComponentPad*
G36*
G01*
X319923483Y-128384895D02*
X319922597Y-128384834D01*
G75*
G02*
X318877666Y-127185097I77403J1122334D01*
G01*
X318917666Y-126605097D01*
G75*
G02*
X320117403Y-125560166I1122334J-77403D01*
G01*
X320117403Y-125560166D01*
G75*
G02*
X321162334Y-126759903I-77403J-1122334D01*
G01*
X321122334Y-127339903D01*
G75*
G02*
X319922597Y-128384834I-1122334J77403D01*
G01*
G37*
G04 #@! TD.AperFunction*
X320040000Y-126682500D03*
X343575000Y-127762500D03*
G04 #@! TA.AperFunction,ComponentPad*
G36*
G01*
X341513688Y-130059850D02*
X341513683Y-130059845D01*
G75*
G02*
X341427655Y-128471183I751317J837345D01*
G01*
X342737657Y-127011183D01*
G75*
G02*
X344326319Y-126925155I837345J-751317D01*
G01*
X344326319Y-126925155D01*
G75*
G02*
X344412347Y-128513817I-751317J-837345D01*
G01*
X343102345Y-129973817D01*
G75*
G02*
X341513683Y-130059845I-837345J751317D01*
G01*
G37*
G04 #@! TD.AperFunction*
G04 #@! TA.AperFunction,ComponentPad*
G36*
G01*
X348498483Y-128384895D02*
X348497597Y-128384834D01*
G75*
G02*
X347452666Y-127185097I77403J1122334D01*
G01*
X347492666Y-126605097D01*
G75*
G02*
X348692403Y-125560166I1122334J-77403D01*
G01*
X348692403Y-125560166D01*
G75*
G02*
X349737334Y-126759903I-77403J-1122334D01*
G01*
X349697334Y-127339903D01*
G75*
G02*
X348497597Y-128384834I-1122334J77403D01*
G01*
G37*
G04 #@! TD.AperFunction*
X348615000Y-126682500D03*
X372150000Y-165862500D03*
G04 #@! TA.AperFunction,ComponentPad*
G36*
G01*
X370088688Y-168159850D02*
X370088683Y-168159845D01*
G75*
G02*
X370002655Y-166571183I751317J837345D01*
G01*
X371312657Y-165111183D01*
G75*
G02*
X372901319Y-165025155I837345J-751317D01*
G01*
X372901319Y-165025155D01*
G75*
G02*
X372987347Y-166613817I-751317J-837345D01*
G01*
X371677345Y-168073817D01*
G75*
G02*
X370088683Y-168159845I-837345J751317D01*
G01*
G37*
G04 #@! TD.AperFunction*
G04 #@! TA.AperFunction,ComponentPad*
G36*
G01*
X377073483Y-166484895D02*
X377072597Y-166484834D01*
G75*
G02*
X376027666Y-165285097I77403J1122334D01*
G01*
X376067666Y-164705097D01*
G75*
G02*
X377267403Y-163660166I1122334J-77403D01*
G01*
X377267403Y-163660166D01*
G75*
G02*
X378312334Y-164859903I-77403J-1122334D01*
G01*
X378272334Y-165439903D01*
G75*
G02*
X377072597Y-166484834I-1122334J77403D01*
G01*
G37*
G04 #@! TD.AperFunction*
X377190000Y-164782500D03*
G04 #@! TA.AperFunction,ComponentPad*
G36*
G01*
X370088688Y-149109850D02*
X370088683Y-149109845D01*
G75*
G02*
X370002655Y-147521183I751317J837345D01*
G01*
X371312657Y-146061183D01*
G75*
G02*
X372901319Y-145975155I837345J-751317D01*
G01*
X372901319Y-145975155D01*
G75*
G02*
X372987347Y-147563817I-751317J-837345D01*
G01*
X371677345Y-149023817D01*
G75*
G02*
X370088683Y-149109845I-837345J751317D01*
G01*
G37*
G04 #@! TD.AperFunction*
X372150000Y-146812500D03*
G04 #@! TA.AperFunction,ComponentPad*
G36*
G01*
X377073483Y-147434895D02*
X377072597Y-147434834D01*
G75*
G02*
X376027666Y-146235097I77403J1122334D01*
G01*
X376067666Y-145655097D01*
G75*
G02*
X377267403Y-144610166I1122334J-77403D01*
G01*
X377267403Y-144610166D01*
G75*
G02*
X378312334Y-145809903I-77403J-1122334D01*
G01*
X378272334Y-146389903D01*
G75*
G02*
X377072597Y-147434834I-1122334J77403D01*
G01*
G37*
G04 #@! TD.AperFunction*
X377190000Y-145732500D03*
G04 #@! TA.AperFunction,ComponentPad*
G36*
G01*
X89101188Y-149109850D02*
X89101183Y-149109845D01*
G75*
G02*
X89015155Y-147521183I751317J837345D01*
G01*
X90325157Y-146061183D01*
G75*
G02*
X91913819Y-145975155I837345J-751317D01*
G01*
X91913819Y-145975155D01*
G75*
G02*
X91999847Y-147563817I-751317J-837345D01*
G01*
X90689845Y-149023817D01*
G75*
G02*
X89101183Y-149109845I-837345J751317D01*
G01*
G37*
G04 #@! TD.AperFunction*
X91162500Y-146812500D03*
G04 #@! TA.AperFunction,ComponentPad*
G36*
G01*
X96085983Y-147434895D02*
X96085097Y-147434834D01*
G75*
G02*
X95040166Y-146235097I77403J1122334D01*
G01*
X95080166Y-145655097D01*
G75*
G02*
X96279903Y-144610166I1122334J-77403D01*
G01*
X96279903Y-144610166D01*
G75*
G02*
X97324834Y-145809903I-77403J-1122334D01*
G01*
X97284834Y-146389903D01*
G75*
G02*
X96085097Y-147434834I-1122334J77403D01*
G01*
G37*
G04 #@! TD.AperFunction*
X96202500Y-145732500D03*
G04 #@! TA.AperFunction,ComponentPad*
G36*
G01*
X112913688Y-149109850D02*
X112913683Y-149109845D01*
G75*
G02*
X112827655Y-147521183I751317J837345D01*
G01*
X114137657Y-146061183D01*
G75*
G02*
X115726319Y-145975155I837345J-751317D01*
G01*
X115726319Y-145975155D01*
G75*
G02*
X115812347Y-147563817I-751317J-837345D01*
G01*
X114502345Y-149023817D01*
G75*
G02*
X112913683Y-149109845I-837345J751317D01*
G01*
G37*
G04 #@! TD.AperFunction*
X114975000Y-146812500D03*
G04 #@! TA.AperFunction,ComponentPad*
G36*
G01*
X119898483Y-147434895D02*
X119897597Y-147434834D01*
G75*
G02*
X118852666Y-146235097I77403J1122334D01*
G01*
X118892666Y-145655097D01*
G75*
G02*
X120092403Y-144610166I1122334J-77403D01*
G01*
X120092403Y-144610166D01*
G75*
G02*
X121137334Y-145809903I-77403J-1122334D01*
G01*
X121097334Y-146389903D01*
G75*
G02*
X119897597Y-147434834I-1122334J77403D01*
G01*
G37*
G04 #@! TD.AperFunction*
X120015000Y-145732500D03*
G04 #@! TA.AperFunction,ComponentPad*
G36*
G01*
X131963688Y-149109850D02*
X131963683Y-149109845D01*
G75*
G02*
X131877655Y-147521183I751317J837345D01*
G01*
X133187657Y-146061183D01*
G75*
G02*
X134776319Y-145975155I837345J-751317D01*
G01*
X134776319Y-145975155D01*
G75*
G02*
X134862347Y-147563817I-751317J-837345D01*
G01*
X133552345Y-149023817D01*
G75*
G02*
X131963683Y-149109845I-837345J751317D01*
G01*
G37*
G04 #@! TD.AperFunction*
X134025000Y-146812500D03*
X139065000Y-145732500D03*
G04 #@! TA.AperFunction,ComponentPad*
G36*
G01*
X138948483Y-147434895D02*
X138947597Y-147434834D01*
G75*
G02*
X137902666Y-146235097I77403J1122334D01*
G01*
X137942666Y-145655097D01*
G75*
G02*
X139142403Y-144610166I1122334J-77403D01*
G01*
X139142403Y-144610166D01*
G75*
G02*
X140187334Y-145809903I-77403J-1122334D01*
G01*
X140147334Y-146389903D01*
G75*
G02*
X138947597Y-147434834I-1122334J77403D01*
G01*
G37*
G04 #@! TD.AperFunction*
G04 #@! TA.AperFunction,ComponentPad*
G36*
G01*
X151013688Y-149109850D02*
X151013683Y-149109845D01*
G75*
G02*
X150927655Y-147521183I751317J837345D01*
G01*
X152237657Y-146061183D01*
G75*
G02*
X153826319Y-145975155I837345J-751317D01*
G01*
X153826319Y-145975155D01*
G75*
G02*
X153912347Y-147563817I-751317J-837345D01*
G01*
X152602345Y-149023817D01*
G75*
G02*
X151013683Y-149109845I-837345J751317D01*
G01*
G37*
G04 #@! TD.AperFunction*
X153075000Y-146812500D03*
X158115000Y-145732500D03*
G04 #@! TA.AperFunction,ComponentPad*
G36*
G01*
X157998483Y-147434895D02*
X157997597Y-147434834D01*
G75*
G02*
X156952666Y-146235097I77403J1122334D01*
G01*
X156992666Y-145655097D01*
G75*
G02*
X158192403Y-144610166I1122334J-77403D01*
G01*
X158192403Y-144610166D01*
G75*
G02*
X159237334Y-145809903I-77403J-1122334D01*
G01*
X159197334Y-146389903D01*
G75*
G02*
X157997597Y-147434834I-1122334J77403D01*
G01*
G37*
G04 #@! TD.AperFunction*
G04 #@! TA.AperFunction,ComponentPad*
G36*
G01*
X170063688Y-149109850D02*
X170063683Y-149109845D01*
G75*
G02*
X169977655Y-147521183I751317J837345D01*
G01*
X171287657Y-146061183D01*
G75*
G02*
X172876319Y-145975155I837345J-751317D01*
G01*
X172876319Y-145975155D01*
G75*
G02*
X172962347Y-147563817I-751317J-837345D01*
G01*
X171652345Y-149023817D01*
G75*
G02*
X170063683Y-149109845I-837345J751317D01*
G01*
G37*
G04 #@! TD.AperFunction*
X172125000Y-146812500D03*
X177165000Y-145732500D03*
G04 #@! TA.AperFunction,ComponentPad*
G36*
G01*
X177048483Y-147434895D02*
X177047597Y-147434834D01*
G75*
G02*
X176002666Y-146235097I77403J1122334D01*
G01*
X176042666Y-145655097D01*
G75*
G02*
X177242403Y-144610166I1122334J-77403D01*
G01*
X177242403Y-144610166D01*
G75*
G02*
X178287334Y-145809903I-77403J-1122334D01*
G01*
X178247334Y-146389903D01*
G75*
G02*
X177047597Y-147434834I-1122334J77403D01*
G01*
G37*
G04 #@! TD.AperFunction*
X191175000Y-146812500D03*
G04 #@! TA.AperFunction,ComponentPad*
G36*
G01*
X189113688Y-149109850D02*
X189113683Y-149109845D01*
G75*
G02*
X189027655Y-147521183I751317J837345D01*
G01*
X190337657Y-146061183D01*
G75*
G02*
X191926319Y-145975155I837345J-751317D01*
G01*
X191926319Y-145975155D01*
G75*
G02*
X192012347Y-147563817I-751317J-837345D01*
G01*
X190702345Y-149023817D01*
G75*
G02*
X189113683Y-149109845I-837345J751317D01*
G01*
G37*
G04 #@! TD.AperFunction*
X196215000Y-145732500D03*
G04 #@! TA.AperFunction,ComponentPad*
G36*
G01*
X196098483Y-147434895D02*
X196097597Y-147434834D01*
G75*
G02*
X195052666Y-146235097I77403J1122334D01*
G01*
X195092666Y-145655097D01*
G75*
G02*
X196292403Y-144610166I1122334J-77403D01*
G01*
X196292403Y-144610166D01*
G75*
G02*
X197337334Y-145809903I-77403J-1122334D01*
G01*
X197297334Y-146389903D01*
G75*
G02*
X196097597Y-147434834I-1122334J77403D01*
G01*
G37*
G04 #@! TD.AperFunction*
G04 #@! TA.AperFunction,ComponentPad*
G36*
G01*
X208163688Y-149109850D02*
X208163683Y-149109845D01*
G75*
G02*
X208077655Y-147521183I751317J837345D01*
G01*
X209387657Y-146061183D01*
G75*
G02*
X210976319Y-145975155I837345J-751317D01*
G01*
X210976319Y-145975155D01*
G75*
G02*
X211062347Y-147563817I-751317J-837345D01*
G01*
X209752345Y-149023817D01*
G75*
G02*
X208163683Y-149109845I-837345J751317D01*
G01*
G37*
G04 #@! TD.AperFunction*
X210225000Y-146812500D03*
X215265000Y-145732500D03*
G04 #@! TA.AperFunction,ComponentPad*
G36*
G01*
X215148483Y-147434895D02*
X215147597Y-147434834D01*
G75*
G02*
X214102666Y-146235097I77403J1122334D01*
G01*
X214142666Y-145655097D01*
G75*
G02*
X215342403Y-144610166I1122334J-77403D01*
G01*
X215342403Y-144610166D01*
G75*
G02*
X216387334Y-145809903I-77403J-1122334D01*
G01*
X216347334Y-146389903D01*
G75*
G02*
X215147597Y-147434834I-1122334J77403D01*
G01*
G37*
G04 #@! TD.AperFunction*
G04 #@! TA.AperFunction,ComponentPad*
G36*
G01*
X227213688Y-149109850D02*
X227213683Y-149109845D01*
G75*
G02*
X227127655Y-147521183I751317J837345D01*
G01*
X228437657Y-146061183D01*
G75*
G02*
X230026319Y-145975155I837345J-751317D01*
G01*
X230026319Y-145975155D01*
G75*
G02*
X230112347Y-147563817I-751317J-837345D01*
G01*
X228802345Y-149023817D01*
G75*
G02*
X227213683Y-149109845I-837345J751317D01*
G01*
G37*
G04 #@! TD.AperFunction*
X229275000Y-146812500D03*
X234315000Y-145732500D03*
G04 #@! TA.AperFunction,ComponentPad*
G36*
G01*
X234198483Y-147434895D02*
X234197597Y-147434834D01*
G75*
G02*
X233152666Y-146235097I77403J1122334D01*
G01*
X233192666Y-145655097D01*
G75*
G02*
X234392403Y-144610166I1122334J-77403D01*
G01*
X234392403Y-144610166D01*
G75*
G02*
X235437334Y-145809903I-77403J-1122334D01*
G01*
X235397334Y-146389903D01*
G75*
G02*
X234197597Y-147434834I-1122334J77403D01*
G01*
G37*
G04 #@! TD.AperFunction*
G04 #@! TA.AperFunction,ComponentPad*
G36*
G01*
X246263688Y-149109850D02*
X246263683Y-149109845D01*
G75*
G02*
X246177655Y-147521183I751317J837345D01*
G01*
X247487657Y-146061183D01*
G75*
G02*
X249076319Y-145975155I837345J-751317D01*
G01*
X249076319Y-145975155D01*
G75*
G02*
X249162347Y-147563817I-751317J-837345D01*
G01*
X247852345Y-149023817D01*
G75*
G02*
X246263683Y-149109845I-837345J751317D01*
G01*
G37*
G04 #@! TD.AperFunction*
X248325000Y-146812500D03*
G04 #@! TA.AperFunction,ComponentPad*
G36*
G01*
X253248483Y-147434895D02*
X253247597Y-147434834D01*
G75*
G02*
X252202666Y-146235097I77403J1122334D01*
G01*
X252242666Y-145655097D01*
G75*
G02*
X253442403Y-144610166I1122334J-77403D01*
G01*
X253442403Y-144610166D01*
G75*
G02*
X254487334Y-145809903I-77403J-1122334D01*
G01*
X254447334Y-146389903D01*
G75*
G02*
X253247597Y-147434834I-1122334J77403D01*
G01*
G37*
G04 #@! TD.AperFunction*
X253365000Y-145732500D03*
G04 #@! TA.AperFunction,ComponentPad*
G36*
G01*
X265313688Y-149109850D02*
X265313683Y-149109845D01*
G75*
G02*
X265227655Y-147521183I751317J837345D01*
G01*
X266537657Y-146061183D01*
G75*
G02*
X268126319Y-145975155I837345J-751317D01*
G01*
X268126319Y-145975155D01*
G75*
G02*
X268212347Y-147563817I-751317J-837345D01*
G01*
X266902345Y-149023817D01*
G75*
G02*
X265313683Y-149109845I-837345J751317D01*
G01*
G37*
G04 #@! TD.AperFunction*
X267375000Y-146812500D03*
X272415000Y-145732500D03*
G04 #@! TA.AperFunction,ComponentPad*
G36*
G01*
X272298483Y-147434895D02*
X272297597Y-147434834D01*
G75*
G02*
X271252666Y-146235097I77403J1122334D01*
G01*
X271292666Y-145655097D01*
G75*
G02*
X272492403Y-144610166I1122334J-77403D01*
G01*
X272492403Y-144610166D01*
G75*
G02*
X273537334Y-145809903I-77403J-1122334D01*
G01*
X273497334Y-146389903D01*
G75*
G02*
X272297597Y-147434834I-1122334J77403D01*
G01*
G37*
G04 #@! TD.AperFunction*
G04 #@! TA.AperFunction,ComponentPad*
G36*
G01*
X284363688Y-149109850D02*
X284363683Y-149109845D01*
G75*
G02*
X284277655Y-147521183I751317J837345D01*
G01*
X285587657Y-146061183D01*
G75*
G02*
X287176319Y-145975155I837345J-751317D01*
G01*
X287176319Y-145975155D01*
G75*
G02*
X287262347Y-147563817I-751317J-837345D01*
G01*
X285952345Y-149023817D01*
G75*
G02*
X284363683Y-149109845I-837345J751317D01*
G01*
G37*
G04 #@! TD.AperFunction*
X286425000Y-146812500D03*
G04 #@! TA.AperFunction,ComponentPad*
G36*
G01*
X291348483Y-147434895D02*
X291347597Y-147434834D01*
G75*
G02*
X290302666Y-146235097I77403J1122334D01*
G01*
X290342666Y-145655097D01*
G75*
G02*
X291542403Y-144610166I1122334J-77403D01*
G01*
X291542403Y-144610166D01*
G75*
G02*
X292587334Y-145809903I-77403J-1122334D01*
G01*
X292547334Y-146389903D01*
G75*
G02*
X291347597Y-147434834I-1122334J77403D01*
G01*
G37*
G04 #@! TD.AperFunction*
X291465000Y-145732500D03*
G04 #@! TA.AperFunction,ComponentPad*
G36*
G01*
X303413688Y-149109850D02*
X303413683Y-149109845D01*
G75*
G02*
X303327655Y-147521183I751317J837345D01*
G01*
X304637657Y-146061183D01*
G75*
G02*
X306226319Y-145975155I837345J-751317D01*
G01*
X306226319Y-145975155D01*
G75*
G02*
X306312347Y-147563817I-751317J-837345D01*
G01*
X305002345Y-149023817D01*
G75*
G02*
X303413683Y-149109845I-837345J751317D01*
G01*
G37*
G04 #@! TD.AperFunction*
X305475000Y-146812500D03*
X310515000Y-145732500D03*
G04 #@! TA.AperFunction,ComponentPad*
G36*
G01*
X310398483Y-147434895D02*
X310397597Y-147434834D01*
G75*
G02*
X309352666Y-146235097I77403J1122334D01*
G01*
X309392666Y-145655097D01*
G75*
G02*
X310592403Y-144610166I1122334J-77403D01*
G01*
X310592403Y-144610166D01*
G75*
G02*
X311637334Y-145809903I-77403J-1122334D01*
G01*
X311597334Y-146389903D01*
G75*
G02*
X310397597Y-147434834I-1122334J77403D01*
G01*
G37*
G04 #@! TD.AperFunction*
X324525000Y-146812500D03*
G04 #@! TA.AperFunction,ComponentPad*
G36*
G01*
X322463688Y-149109850D02*
X322463683Y-149109845D01*
G75*
G02*
X322377655Y-147521183I751317J837345D01*
G01*
X323687657Y-146061183D01*
G75*
G02*
X325276319Y-145975155I837345J-751317D01*
G01*
X325276319Y-145975155D01*
G75*
G02*
X325362347Y-147563817I-751317J-837345D01*
G01*
X324052345Y-149023817D01*
G75*
G02*
X322463683Y-149109845I-837345J751317D01*
G01*
G37*
G04 #@! TD.AperFunction*
X329565000Y-145732500D03*
G04 #@! TA.AperFunction,ComponentPad*
G36*
G01*
X329448483Y-147434895D02*
X329447597Y-147434834D01*
G75*
G02*
X328402666Y-146235097I77403J1122334D01*
G01*
X328442666Y-145655097D01*
G75*
G02*
X329642403Y-144610166I1122334J-77403D01*
G01*
X329642403Y-144610166D01*
G75*
G02*
X330687334Y-145809903I-77403J-1122334D01*
G01*
X330647334Y-146389903D01*
G75*
G02*
X329447597Y-147434834I-1122334J77403D01*
G01*
G37*
G04 #@! TD.AperFunction*
X348337500Y-146812500D03*
G04 #@! TA.AperFunction,ComponentPad*
G36*
G01*
X346276188Y-149109850D02*
X346276183Y-149109845D01*
G75*
G02*
X346190155Y-147521183I751317J837345D01*
G01*
X347500157Y-146061183D01*
G75*
G02*
X349088819Y-145975155I837345J-751317D01*
G01*
X349088819Y-145975155D01*
G75*
G02*
X349174847Y-147563817I-751317J-837345D01*
G01*
X347864845Y-149023817D01*
G75*
G02*
X346276183Y-149109845I-837345J751317D01*
G01*
G37*
G04 #@! TD.AperFunction*
G04 #@! TA.AperFunction,ComponentPad*
G36*
G01*
X353260983Y-147434895D02*
X353260097Y-147434834D01*
G75*
G02*
X352215166Y-146235097I77403J1122334D01*
G01*
X352255166Y-145655097D01*
G75*
G02*
X353454903Y-144610166I1122334J-77403D01*
G01*
X353454903Y-144610166D01*
G75*
G02*
X354499834Y-145809903I-77403J-1122334D01*
G01*
X354459834Y-146389903D01*
G75*
G02*
X353260097Y-147434834I-1122334J77403D01*
G01*
G37*
G04 #@! TD.AperFunction*
X353377500Y-145732500D03*
G04 #@! TA.AperFunction,ComponentPad*
G36*
G01*
X370088688Y-187209850D02*
X370088683Y-187209845D01*
G75*
G02*
X370002655Y-185621183I751317J837345D01*
G01*
X371312657Y-184161183D01*
G75*
G02*
X372901319Y-184075155I837345J-751317D01*
G01*
X372901319Y-184075155D01*
G75*
G02*
X372987347Y-185663817I-751317J-837345D01*
G01*
X371677345Y-187123817D01*
G75*
G02*
X370088683Y-187209845I-837345J751317D01*
G01*
G37*
G04 #@! TD.AperFunction*
X372150000Y-184912500D03*
X377190000Y-183832500D03*
G04 #@! TA.AperFunction,ComponentPad*
G36*
G01*
X377073483Y-185534895D02*
X377072597Y-185534834D01*
G75*
G02*
X376027666Y-184335097I77403J1122334D01*
G01*
X376067666Y-183755097D01*
G75*
G02*
X377267403Y-182710166I1122334J-77403D01*
G01*
X377267403Y-182710166D01*
G75*
G02*
X378312334Y-183909903I-77403J-1122334D01*
G01*
X378272334Y-184489903D01*
G75*
G02*
X377072597Y-185534834I-1122334J77403D01*
G01*
G37*
G04 #@! TD.AperFunction*
X93543750Y-165862500D03*
G04 #@! TA.AperFunction,ComponentPad*
G36*
G01*
X91482438Y-168159850D02*
X91482433Y-168159845D01*
G75*
G02*
X91396405Y-166571183I751317J837345D01*
G01*
X92706407Y-165111183D01*
G75*
G02*
X94295069Y-165025155I837345J-751317D01*
G01*
X94295069Y-165025155D01*
G75*
G02*
X94381097Y-166613817I-751317J-837345D01*
G01*
X93071095Y-168073817D01*
G75*
G02*
X91482433Y-168159845I-837345J751317D01*
G01*
G37*
G04 #@! TD.AperFunction*
X98583750Y-164782500D03*
G04 #@! TA.AperFunction,ComponentPad*
G36*
G01*
X98467233Y-166484895D02*
X98466347Y-166484834D01*
G75*
G02*
X97421416Y-165285097I77403J1122334D01*
G01*
X97461416Y-164705097D01*
G75*
G02*
X98661153Y-163660166I1122334J-77403D01*
G01*
X98661153Y-163660166D01*
G75*
G02*
X99706084Y-164859903I-77403J-1122334D01*
G01*
X99666084Y-165439903D01*
G75*
G02*
X98466347Y-166484834I-1122334J77403D01*
G01*
G37*
G04 #@! TD.AperFunction*
D12*
X94773750Y-174942500D03*
D13*
X97313750Y-174942500D03*
D11*
X119737500Y-165862500D03*
G04 #@! TA.AperFunction,ComponentPad*
G36*
G01*
X117676188Y-168159850D02*
X117676183Y-168159845D01*
G75*
G02*
X117590155Y-166571183I751317J837345D01*
G01*
X118900157Y-165111183D01*
G75*
G02*
X120488819Y-165025155I837345J-751317D01*
G01*
X120488819Y-165025155D01*
G75*
G02*
X120574847Y-166613817I-751317J-837345D01*
G01*
X119264845Y-168073817D01*
G75*
G02*
X117676183Y-168159845I-837345J751317D01*
G01*
G37*
G04 #@! TD.AperFunction*
X124777500Y-164782500D03*
G04 #@! TA.AperFunction,ComponentPad*
G36*
G01*
X124660983Y-166484895D02*
X124660097Y-166484834D01*
G75*
G02*
X123615166Y-165285097I77403J1122334D01*
G01*
X123655166Y-164705097D01*
G75*
G02*
X124854903Y-163660166I1122334J-77403D01*
G01*
X124854903Y-163660166D01*
G75*
G02*
X125899834Y-164859903I-77403J-1122334D01*
G01*
X125859834Y-165439903D01*
G75*
G02*
X124660097Y-166484834I-1122334J77403D01*
G01*
G37*
G04 #@! TD.AperFunction*
X138787500Y-165862500D03*
G04 #@! TA.AperFunction,ComponentPad*
G36*
G01*
X136726188Y-168159850D02*
X136726183Y-168159845D01*
G75*
G02*
X136640155Y-166571183I751317J837345D01*
G01*
X137950157Y-165111183D01*
G75*
G02*
X139538819Y-165025155I837345J-751317D01*
G01*
X139538819Y-165025155D01*
G75*
G02*
X139624847Y-166613817I-751317J-837345D01*
G01*
X138314845Y-168073817D01*
G75*
G02*
X136726183Y-168159845I-837345J751317D01*
G01*
G37*
G04 #@! TD.AperFunction*
G04 #@! TA.AperFunction,ComponentPad*
G36*
G01*
X143710983Y-166484895D02*
X143710097Y-166484834D01*
G75*
G02*
X142665166Y-165285097I77403J1122334D01*
G01*
X142705166Y-164705097D01*
G75*
G02*
X143904903Y-163660166I1122334J-77403D01*
G01*
X143904903Y-163660166D01*
G75*
G02*
X144949834Y-164859903I-77403J-1122334D01*
G01*
X144909834Y-165439903D01*
G75*
G02*
X143710097Y-166484834I-1122334J77403D01*
G01*
G37*
G04 #@! TD.AperFunction*
X143827500Y-164782500D03*
X157837500Y-165862500D03*
G04 #@! TA.AperFunction,ComponentPad*
G36*
G01*
X155776188Y-168159850D02*
X155776183Y-168159845D01*
G75*
G02*
X155690155Y-166571183I751317J837345D01*
G01*
X157000157Y-165111183D01*
G75*
G02*
X158588819Y-165025155I837345J-751317D01*
G01*
X158588819Y-165025155D01*
G75*
G02*
X158674847Y-166613817I-751317J-837345D01*
G01*
X157364845Y-168073817D01*
G75*
G02*
X155776183Y-168159845I-837345J751317D01*
G01*
G37*
G04 #@! TD.AperFunction*
X162877500Y-164782500D03*
G04 #@! TA.AperFunction,ComponentPad*
G36*
G01*
X162760983Y-166484895D02*
X162760097Y-166484834D01*
G75*
G02*
X161715166Y-165285097I77403J1122334D01*
G01*
X161755166Y-164705097D01*
G75*
G02*
X162954903Y-163660166I1122334J-77403D01*
G01*
X162954903Y-163660166D01*
G75*
G02*
X163999834Y-164859903I-77403J-1122334D01*
G01*
X163959834Y-165439903D01*
G75*
G02*
X162760097Y-166484834I-1122334J77403D01*
G01*
G37*
G04 #@! TD.AperFunction*
X176887500Y-165862500D03*
G04 #@! TA.AperFunction,ComponentPad*
G36*
G01*
X174826188Y-168159850D02*
X174826183Y-168159845D01*
G75*
G02*
X174740155Y-166571183I751317J837345D01*
G01*
X176050157Y-165111183D01*
G75*
G02*
X177638819Y-165025155I837345J-751317D01*
G01*
X177638819Y-165025155D01*
G75*
G02*
X177724847Y-166613817I-751317J-837345D01*
G01*
X176414845Y-168073817D01*
G75*
G02*
X174826183Y-168159845I-837345J751317D01*
G01*
G37*
G04 #@! TD.AperFunction*
X181927500Y-164782500D03*
G04 #@! TA.AperFunction,ComponentPad*
G36*
G01*
X181810983Y-166484895D02*
X181810097Y-166484834D01*
G75*
G02*
X180765166Y-165285097I77403J1122334D01*
G01*
X180805166Y-164705097D01*
G75*
G02*
X182004903Y-163660166I1122334J-77403D01*
G01*
X182004903Y-163660166D01*
G75*
G02*
X183049834Y-164859903I-77403J-1122334D01*
G01*
X183009834Y-165439903D01*
G75*
G02*
X181810097Y-166484834I-1122334J77403D01*
G01*
G37*
G04 #@! TD.AperFunction*
G04 #@! TA.AperFunction,ComponentPad*
G36*
G01*
X193876188Y-168159850D02*
X193876183Y-168159845D01*
G75*
G02*
X193790155Y-166571183I751317J837345D01*
G01*
X195100157Y-165111183D01*
G75*
G02*
X196688819Y-165025155I837345J-751317D01*
G01*
X196688819Y-165025155D01*
G75*
G02*
X196774847Y-166613817I-751317J-837345D01*
G01*
X195464845Y-168073817D01*
G75*
G02*
X193876183Y-168159845I-837345J751317D01*
G01*
G37*
G04 #@! TD.AperFunction*
X195937500Y-165862500D03*
X200977500Y-164782500D03*
G04 #@! TA.AperFunction,ComponentPad*
G36*
G01*
X200860983Y-166484895D02*
X200860097Y-166484834D01*
G75*
G02*
X199815166Y-165285097I77403J1122334D01*
G01*
X199855166Y-164705097D01*
G75*
G02*
X201054903Y-163660166I1122334J-77403D01*
G01*
X201054903Y-163660166D01*
G75*
G02*
X202099834Y-164859903I-77403J-1122334D01*
G01*
X202059834Y-165439903D01*
G75*
G02*
X200860097Y-166484834I-1122334J77403D01*
G01*
G37*
G04 #@! TD.AperFunction*
G04 #@! TA.AperFunction,ComponentPad*
G36*
G01*
X212926188Y-168159850D02*
X212926183Y-168159845D01*
G75*
G02*
X212840155Y-166571183I751317J837345D01*
G01*
X214150157Y-165111183D01*
G75*
G02*
X215738819Y-165025155I837345J-751317D01*
G01*
X215738819Y-165025155D01*
G75*
G02*
X215824847Y-166613817I-751317J-837345D01*
G01*
X214514845Y-168073817D01*
G75*
G02*
X212926183Y-168159845I-837345J751317D01*
G01*
G37*
G04 #@! TD.AperFunction*
X214987500Y-165862500D03*
X220027500Y-164782500D03*
G04 #@! TA.AperFunction,ComponentPad*
G36*
G01*
X219910983Y-166484895D02*
X219910097Y-166484834D01*
G75*
G02*
X218865166Y-165285097I77403J1122334D01*
G01*
X218905166Y-164705097D01*
G75*
G02*
X220104903Y-163660166I1122334J-77403D01*
G01*
X220104903Y-163660166D01*
G75*
G02*
X221149834Y-164859903I-77403J-1122334D01*
G01*
X221109834Y-165439903D01*
G75*
G02*
X219910097Y-166484834I-1122334J77403D01*
G01*
G37*
G04 #@! TD.AperFunction*
G04 #@! TA.AperFunction,ComponentPad*
G36*
G01*
X231976188Y-168159850D02*
X231976183Y-168159845D01*
G75*
G02*
X231890155Y-166571183I751317J837345D01*
G01*
X233200157Y-165111183D01*
G75*
G02*
X234788819Y-165025155I837345J-751317D01*
G01*
X234788819Y-165025155D01*
G75*
G02*
X234874847Y-166613817I-751317J-837345D01*
G01*
X233564845Y-168073817D01*
G75*
G02*
X231976183Y-168159845I-837345J751317D01*
G01*
G37*
G04 #@! TD.AperFunction*
X234037500Y-165862500D03*
X239077500Y-164782500D03*
G04 #@! TA.AperFunction,ComponentPad*
G36*
G01*
X238960983Y-166484895D02*
X238960097Y-166484834D01*
G75*
G02*
X237915166Y-165285097I77403J1122334D01*
G01*
X237955166Y-164705097D01*
G75*
G02*
X239154903Y-163660166I1122334J-77403D01*
G01*
X239154903Y-163660166D01*
G75*
G02*
X240199834Y-164859903I-77403J-1122334D01*
G01*
X240159834Y-165439903D01*
G75*
G02*
X238960097Y-166484834I-1122334J77403D01*
G01*
G37*
G04 #@! TD.AperFunction*
G04 #@! TA.AperFunction,ComponentPad*
G36*
G01*
X251026188Y-168159850D02*
X251026183Y-168159845D01*
G75*
G02*
X250940155Y-166571183I751317J837345D01*
G01*
X252250157Y-165111183D01*
G75*
G02*
X253838819Y-165025155I837345J-751317D01*
G01*
X253838819Y-165025155D01*
G75*
G02*
X253924847Y-166613817I-751317J-837345D01*
G01*
X252614845Y-168073817D01*
G75*
G02*
X251026183Y-168159845I-837345J751317D01*
G01*
G37*
G04 #@! TD.AperFunction*
X253087500Y-165862500D03*
X258127500Y-164782500D03*
G04 #@! TA.AperFunction,ComponentPad*
G36*
G01*
X258010983Y-166484895D02*
X258010097Y-166484834D01*
G75*
G02*
X256965166Y-165285097I77403J1122334D01*
G01*
X257005166Y-164705097D01*
G75*
G02*
X258204903Y-163660166I1122334J-77403D01*
G01*
X258204903Y-163660166D01*
G75*
G02*
X259249834Y-164859903I-77403J-1122334D01*
G01*
X259209834Y-165439903D01*
G75*
G02*
X258010097Y-166484834I-1122334J77403D01*
G01*
G37*
G04 #@! TD.AperFunction*
G04 #@! TA.AperFunction,ComponentPad*
G36*
G01*
X270076188Y-168159850D02*
X270076183Y-168159845D01*
G75*
G02*
X269990155Y-166571183I751317J837345D01*
G01*
X271300157Y-165111183D01*
G75*
G02*
X272888819Y-165025155I837345J-751317D01*
G01*
X272888819Y-165025155D01*
G75*
G02*
X272974847Y-166613817I-751317J-837345D01*
G01*
X271664845Y-168073817D01*
G75*
G02*
X270076183Y-168159845I-837345J751317D01*
G01*
G37*
G04 #@! TD.AperFunction*
X272137500Y-165862500D03*
X277177500Y-164782500D03*
G04 #@! TA.AperFunction,ComponentPad*
G36*
G01*
X277060983Y-166484895D02*
X277060097Y-166484834D01*
G75*
G02*
X276015166Y-165285097I77403J1122334D01*
G01*
X276055166Y-164705097D01*
G75*
G02*
X277254903Y-163660166I1122334J-77403D01*
G01*
X277254903Y-163660166D01*
G75*
G02*
X278299834Y-164859903I-77403J-1122334D01*
G01*
X278259834Y-165439903D01*
G75*
G02*
X277060097Y-166484834I-1122334J77403D01*
G01*
G37*
G04 #@! TD.AperFunction*
G04 #@! TA.AperFunction,ComponentPad*
G36*
G01*
X289126188Y-168159850D02*
X289126183Y-168159845D01*
G75*
G02*
X289040155Y-166571183I751317J837345D01*
G01*
X290350157Y-165111183D01*
G75*
G02*
X291938819Y-165025155I837345J-751317D01*
G01*
X291938819Y-165025155D01*
G75*
G02*
X292024847Y-166613817I-751317J-837345D01*
G01*
X290714845Y-168073817D01*
G75*
G02*
X289126183Y-168159845I-837345J751317D01*
G01*
G37*
G04 #@! TD.AperFunction*
X291187500Y-165862500D03*
X296227500Y-164782500D03*
G04 #@! TA.AperFunction,ComponentPad*
G36*
G01*
X296110983Y-166484895D02*
X296110097Y-166484834D01*
G75*
G02*
X295065166Y-165285097I77403J1122334D01*
G01*
X295105166Y-164705097D01*
G75*
G02*
X296304903Y-163660166I1122334J-77403D01*
G01*
X296304903Y-163660166D01*
G75*
G02*
X297349834Y-164859903I-77403J-1122334D01*
G01*
X297309834Y-165439903D01*
G75*
G02*
X296110097Y-166484834I-1122334J77403D01*
G01*
G37*
G04 #@! TD.AperFunction*
X310237500Y-165862500D03*
G04 #@! TA.AperFunction,ComponentPad*
G36*
G01*
X308176188Y-168159850D02*
X308176183Y-168159845D01*
G75*
G02*
X308090155Y-166571183I751317J837345D01*
G01*
X309400157Y-165111183D01*
G75*
G02*
X310988819Y-165025155I837345J-751317D01*
G01*
X310988819Y-165025155D01*
G75*
G02*
X311074847Y-166613817I-751317J-837345D01*
G01*
X309764845Y-168073817D01*
G75*
G02*
X308176183Y-168159845I-837345J751317D01*
G01*
G37*
G04 #@! TD.AperFunction*
G04 #@! TA.AperFunction,ComponentPad*
G36*
G01*
X315160983Y-166484895D02*
X315160097Y-166484834D01*
G75*
G02*
X314115166Y-165285097I77403J1122334D01*
G01*
X314155166Y-164705097D01*
G75*
G02*
X315354903Y-163660166I1122334J-77403D01*
G01*
X315354903Y-163660166D01*
G75*
G02*
X316399834Y-164859903I-77403J-1122334D01*
G01*
X316359834Y-165439903D01*
G75*
G02*
X315160097Y-166484834I-1122334J77403D01*
G01*
G37*
G04 #@! TD.AperFunction*
X315277500Y-164782500D03*
G04 #@! TA.AperFunction,ComponentPad*
G36*
G01*
X339132438Y-168159850D02*
X339132433Y-168159845D01*
G75*
G02*
X339046405Y-166571183I751317J837345D01*
G01*
X340356407Y-165111183D01*
G75*
G02*
X341945069Y-165025155I837345J-751317D01*
G01*
X341945069Y-165025155D01*
G75*
G02*
X342031097Y-166613817I-751317J-837345D01*
G01*
X340721095Y-168073817D01*
G75*
G02*
X339132433Y-168159845I-837345J751317D01*
G01*
G37*
G04 #@! TD.AperFunction*
X341193750Y-165862500D03*
X346233750Y-164782500D03*
G04 #@! TA.AperFunction,ComponentPad*
G36*
G01*
X346117233Y-166484895D02*
X346116347Y-166484834D01*
G75*
G02*
X345071416Y-165285097I77403J1122334D01*
G01*
X345111416Y-164705097D01*
G75*
G02*
X346311153Y-163660166I1122334J-77403D01*
G01*
X346311153Y-163660166D01*
G75*
G02*
X347356084Y-164859903I-77403J-1122334D01*
G01*
X347316084Y-165439903D01*
G75*
G02*
X346116347Y-166484834I-1122334J77403D01*
G01*
G37*
G04 #@! TD.AperFunction*
G04 #@! TA.AperFunction,ComponentPad*
G36*
G01*
X96244938Y-187209850D02*
X96244933Y-187209845D01*
G75*
G02*
X96158905Y-185621183I751317J837345D01*
G01*
X97468907Y-184161183D01*
G75*
G02*
X99057569Y-184075155I837345J-751317D01*
G01*
X99057569Y-184075155D01*
G75*
G02*
X99143597Y-185663817I-751317J-837345D01*
G01*
X97833595Y-187123817D01*
G75*
G02*
X96244933Y-187209845I-837345J751317D01*
G01*
G37*
G04 #@! TD.AperFunction*
X98306250Y-184912500D03*
X103346250Y-183832500D03*
G04 #@! TA.AperFunction,ComponentPad*
G36*
G01*
X103229733Y-185534895D02*
X103228847Y-185534834D01*
G75*
G02*
X102183916Y-184335097I77403J1122334D01*
G01*
X102223916Y-183755097D01*
G75*
G02*
X103423653Y-182710166I1122334J-77403D01*
G01*
X103423653Y-182710166D01*
G75*
G02*
X104468584Y-183909903I-77403J-1122334D01*
G01*
X104428584Y-184489903D01*
G75*
G02*
X103228847Y-185534834I-1122334J77403D01*
G01*
G37*
G04 #@! TD.AperFunction*
G04 #@! TA.AperFunction,ComponentPad*
G36*
G01*
X127201188Y-187209850D02*
X127201183Y-187209845D01*
G75*
G02*
X127115155Y-185621183I751317J837345D01*
G01*
X128425157Y-184161183D01*
G75*
G02*
X130013819Y-184075155I837345J-751317D01*
G01*
X130013819Y-184075155D01*
G75*
G02*
X130099847Y-185663817I-751317J-837345D01*
G01*
X128789845Y-187123817D01*
G75*
G02*
X127201183Y-187209845I-837345J751317D01*
G01*
G37*
G04 #@! TD.AperFunction*
X129262500Y-184912500D03*
X134302500Y-183832500D03*
G04 #@! TA.AperFunction,ComponentPad*
G36*
G01*
X134185983Y-185534895D02*
X134185097Y-185534834D01*
G75*
G02*
X133140166Y-184335097I77403J1122334D01*
G01*
X133180166Y-183755097D01*
G75*
G02*
X134379903Y-182710166I1122334J-77403D01*
G01*
X134379903Y-182710166D01*
G75*
G02*
X135424834Y-183909903I-77403J-1122334D01*
G01*
X135384834Y-184489903D01*
G75*
G02*
X134185097Y-185534834I-1122334J77403D01*
G01*
G37*
G04 #@! TD.AperFunction*
G04 #@! TA.AperFunction,ComponentPad*
G36*
G01*
X146251188Y-187209850D02*
X146251183Y-187209845D01*
G75*
G02*
X146165155Y-185621183I751317J837345D01*
G01*
X147475157Y-184161183D01*
G75*
G02*
X149063819Y-184075155I837345J-751317D01*
G01*
X149063819Y-184075155D01*
G75*
G02*
X149149847Y-185663817I-751317J-837345D01*
G01*
X147839845Y-187123817D01*
G75*
G02*
X146251183Y-187209845I-837345J751317D01*
G01*
G37*
G04 #@! TD.AperFunction*
X148312500Y-184912500D03*
G04 #@! TA.AperFunction,ComponentPad*
G36*
G01*
X153235983Y-185534895D02*
X153235097Y-185534834D01*
G75*
G02*
X152190166Y-184335097I77403J1122334D01*
G01*
X152230166Y-183755097D01*
G75*
G02*
X153429903Y-182710166I1122334J-77403D01*
G01*
X153429903Y-182710166D01*
G75*
G02*
X154474834Y-183909903I-77403J-1122334D01*
G01*
X154434834Y-184489903D01*
G75*
G02*
X153235097Y-185534834I-1122334J77403D01*
G01*
G37*
G04 #@! TD.AperFunction*
X153352500Y-183832500D03*
G04 #@! TA.AperFunction,ComponentPad*
G36*
G01*
X165301188Y-187209850D02*
X165301183Y-187209845D01*
G75*
G02*
X165215155Y-185621183I751317J837345D01*
G01*
X166525157Y-184161183D01*
G75*
G02*
X168113819Y-184075155I837345J-751317D01*
G01*
X168113819Y-184075155D01*
G75*
G02*
X168199847Y-185663817I-751317J-837345D01*
G01*
X166889845Y-187123817D01*
G75*
G02*
X165301183Y-187209845I-837345J751317D01*
G01*
G37*
G04 #@! TD.AperFunction*
X167362500Y-184912500D03*
X172402500Y-183832500D03*
G04 #@! TA.AperFunction,ComponentPad*
G36*
G01*
X172285983Y-185534895D02*
X172285097Y-185534834D01*
G75*
G02*
X171240166Y-184335097I77403J1122334D01*
G01*
X171280166Y-183755097D01*
G75*
G02*
X172479903Y-182710166I1122334J-77403D01*
G01*
X172479903Y-182710166D01*
G75*
G02*
X173524834Y-183909903I-77403J-1122334D01*
G01*
X173484834Y-184489903D01*
G75*
G02*
X172285097Y-185534834I-1122334J77403D01*
G01*
G37*
G04 #@! TD.AperFunction*
G04 #@! TA.AperFunction,ComponentPad*
G36*
G01*
X184351188Y-187209850D02*
X184351183Y-187209845D01*
G75*
G02*
X184265155Y-185621183I751317J837345D01*
G01*
X185575157Y-184161183D01*
G75*
G02*
X187163819Y-184075155I837345J-751317D01*
G01*
X187163819Y-184075155D01*
G75*
G02*
X187249847Y-185663817I-751317J-837345D01*
G01*
X185939845Y-187123817D01*
G75*
G02*
X184351183Y-187209845I-837345J751317D01*
G01*
G37*
G04 #@! TD.AperFunction*
X186412500Y-184912500D03*
G04 #@! TA.AperFunction,ComponentPad*
G36*
G01*
X191335983Y-185534895D02*
X191335097Y-185534834D01*
G75*
G02*
X190290166Y-184335097I77403J1122334D01*
G01*
X190330166Y-183755097D01*
G75*
G02*
X191529903Y-182710166I1122334J-77403D01*
G01*
X191529903Y-182710166D01*
G75*
G02*
X192574834Y-183909903I-77403J-1122334D01*
G01*
X192534834Y-184489903D01*
G75*
G02*
X191335097Y-185534834I-1122334J77403D01*
G01*
G37*
G04 #@! TD.AperFunction*
X191452500Y-183832500D03*
G04 #@! TA.AperFunction,ComponentPad*
G36*
G01*
X203401188Y-187209850D02*
X203401183Y-187209845D01*
G75*
G02*
X203315155Y-185621183I751317J837345D01*
G01*
X204625157Y-184161183D01*
G75*
G02*
X206213819Y-184075155I837345J-751317D01*
G01*
X206213819Y-184075155D01*
G75*
G02*
X206299847Y-185663817I-751317J-837345D01*
G01*
X204989845Y-187123817D01*
G75*
G02*
X203401183Y-187209845I-837345J751317D01*
G01*
G37*
G04 #@! TD.AperFunction*
X205462500Y-184912500D03*
X210502500Y-183832500D03*
G04 #@! TA.AperFunction,ComponentPad*
G36*
G01*
X210385983Y-185534895D02*
X210385097Y-185534834D01*
G75*
G02*
X209340166Y-184335097I77403J1122334D01*
G01*
X209380166Y-183755097D01*
G75*
G02*
X210579903Y-182710166I1122334J-77403D01*
G01*
X210579903Y-182710166D01*
G75*
G02*
X211624834Y-183909903I-77403J-1122334D01*
G01*
X211584834Y-184489903D01*
G75*
G02*
X210385097Y-185534834I-1122334J77403D01*
G01*
G37*
G04 #@! TD.AperFunction*
X224512500Y-184912500D03*
G04 #@! TA.AperFunction,ComponentPad*
G36*
G01*
X222451188Y-187209850D02*
X222451183Y-187209845D01*
G75*
G02*
X222365155Y-185621183I751317J837345D01*
G01*
X223675157Y-184161183D01*
G75*
G02*
X225263819Y-184075155I837345J-751317D01*
G01*
X225263819Y-184075155D01*
G75*
G02*
X225349847Y-185663817I-751317J-837345D01*
G01*
X224039845Y-187123817D01*
G75*
G02*
X222451183Y-187209845I-837345J751317D01*
G01*
G37*
G04 #@! TD.AperFunction*
X229552500Y-183832500D03*
G04 #@! TA.AperFunction,ComponentPad*
G36*
G01*
X229435983Y-185534895D02*
X229435097Y-185534834D01*
G75*
G02*
X228390166Y-184335097I77403J1122334D01*
G01*
X228430166Y-183755097D01*
G75*
G02*
X229629903Y-182710166I1122334J-77403D01*
G01*
X229629903Y-182710166D01*
G75*
G02*
X230674834Y-183909903I-77403J-1122334D01*
G01*
X230634834Y-184489903D01*
G75*
G02*
X229435097Y-185534834I-1122334J77403D01*
G01*
G37*
G04 #@! TD.AperFunction*
G04 #@! TA.AperFunction,ComponentPad*
G36*
G01*
X241501188Y-187209850D02*
X241501183Y-187209845D01*
G75*
G02*
X241415155Y-185621183I751317J837345D01*
G01*
X242725157Y-184161183D01*
G75*
G02*
X244313819Y-184075155I837345J-751317D01*
G01*
X244313819Y-184075155D01*
G75*
G02*
X244399847Y-185663817I-751317J-837345D01*
G01*
X243089845Y-187123817D01*
G75*
G02*
X241501183Y-187209845I-837345J751317D01*
G01*
G37*
G04 #@! TD.AperFunction*
X243562500Y-184912500D03*
G04 #@! TA.AperFunction,ComponentPad*
G36*
G01*
X248485983Y-185534895D02*
X248485097Y-185534834D01*
G75*
G02*
X247440166Y-184335097I77403J1122334D01*
G01*
X247480166Y-183755097D01*
G75*
G02*
X248679903Y-182710166I1122334J-77403D01*
G01*
X248679903Y-182710166D01*
G75*
G02*
X249724834Y-183909903I-77403J-1122334D01*
G01*
X249684834Y-184489903D01*
G75*
G02*
X248485097Y-185534834I-1122334J77403D01*
G01*
G37*
G04 #@! TD.AperFunction*
X248602500Y-183832500D03*
G04 #@! TA.AperFunction,ComponentPad*
G36*
G01*
X260551188Y-187209850D02*
X260551183Y-187209845D01*
G75*
G02*
X260465155Y-185621183I751317J837345D01*
G01*
X261775157Y-184161183D01*
G75*
G02*
X263363819Y-184075155I837345J-751317D01*
G01*
X263363819Y-184075155D01*
G75*
G02*
X263449847Y-185663817I-751317J-837345D01*
G01*
X262139845Y-187123817D01*
G75*
G02*
X260551183Y-187209845I-837345J751317D01*
G01*
G37*
G04 #@! TD.AperFunction*
X262612500Y-184912500D03*
G04 #@! TA.AperFunction,ComponentPad*
G36*
G01*
X267535983Y-185534895D02*
X267535097Y-185534834D01*
G75*
G02*
X266490166Y-184335097I77403J1122334D01*
G01*
X266530166Y-183755097D01*
G75*
G02*
X267729903Y-182710166I1122334J-77403D01*
G01*
X267729903Y-182710166D01*
G75*
G02*
X268774834Y-183909903I-77403J-1122334D01*
G01*
X268734834Y-184489903D01*
G75*
G02*
X267535097Y-185534834I-1122334J77403D01*
G01*
G37*
G04 #@! TD.AperFunction*
X267652500Y-183832500D03*
X281662500Y-184912500D03*
G04 #@! TA.AperFunction,ComponentPad*
G36*
G01*
X279601188Y-187209850D02*
X279601183Y-187209845D01*
G75*
G02*
X279515155Y-185621183I751317J837345D01*
G01*
X280825157Y-184161183D01*
G75*
G02*
X282413819Y-184075155I837345J-751317D01*
G01*
X282413819Y-184075155D01*
G75*
G02*
X282499847Y-185663817I-751317J-837345D01*
G01*
X281189845Y-187123817D01*
G75*
G02*
X279601183Y-187209845I-837345J751317D01*
G01*
G37*
G04 #@! TD.AperFunction*
X286702500Y-183832500D03*
G04 #@! TA.AperFunction,ComponentPad*
G36*
G01*
X286585983Y-185534895D02*
X286585097Y-185534834D01*
G75*
G02*
X285540166Y-184335097I77403J1122334D01*
G01*
X285580166Y-183755097D01*
G75*
G02*
X286779903Y-182710166I1122334J-77403D01*
G01*
X286779903Y-182710166D01*
G75*
G02*
X287824834Y-183909903I-77403J-1122334D01*
G01*
X287784834Y-184489903D01*
G75*
G02*
X286585097Y-185534834I-1122334J77403D01*
G01*
G37*
G04 #@! TD.AperFunction*
G04 #@! TA.AperFunction,ComponentPad*
G36*
G01*
X298651188Y-187209850D02*
X298651183Y-187209845D01*
G75*
G02*
X298565155Y-185621183I751317J837345D01*
G01*
X299875157Y-184161183D01*
G75*
G02*
X301463819Y-184075155I837345J-751317D01*
G01*
X301463819Y-184075155D01*
G75*
G02*
X301549847Y-185663817I-751317J-837345D01*
G01*
X300239845Y-187123817D01*
G75*
G02*
X298651183Y-187209845I-837345J751317D01*
G01*
G37*
G04 #@! TD.AperFunction*
X300712500Y-184912500D03*
G04 #@! TA.AperFunction,ComponentPad*
G36*
G01*
X305635983Y-185534895D02*
X305635097Y-185534834D01*
G75*
G02*
X304590166Y-184335097I77403J1122334D01*
G01*
X304630166Y-183755097D01*
G75*
G02*
X305829903Y-182710166I1122334J-77403D01*
G01*
X305829903Y-182710166D01*
G75*
G02*
X306874834Y-183909903I-77403J-1122334D01*
G01*
X306834834Y-184489903D01*
G75*
G02*
X305635097Y-185534834I-1122334J77403D01*
G01*
G37*
G04 #@! TD.AperFunction*
X305752500Y-183832500D03*
X326906250Y-184912500D03*
G04 #@! TA.AperFunction,ComponentPad*
G36*
G01*
X324844938Y-187209850D02*
X324844933Y-187209845D01*
G75*
G02*
X324758905Y-185621183I751317J837345D01*
G01*
X326068907Y-184161183D01*
G75*
G02*
X327657569Y-184075155I837345J-751317D01*
G01*
X327657569Y-184075155D01*
G75*
G02*
X327743597Y-185663817I-751317J-837345D01*
G01*
X326433595Y-187123817D01*
G75*
G02*
X324844933Y-187209845I-837345J751317D01*
G01*
G37*
G04 #@! TD.AperFunction*
X331946250Y-183832500D03*
G04 #@! TA.AperFunction,ComponentPad*
G36*
G01*
X331829733Y-185534895D02*
X331828847Y-185534834D01*
G75*
G02*
X330783916Y-184335097I77403J1122334D01*
G01*
X330823916Y-183755097D01*
G75*
G02*
X332023653Y-182710166I1122334J-77403D01*
G01*
X332023653Y-182710166D01*
G75*
G02*
X333068584Y-183909903I-77403J-1122334D01*
G01*
X333028584Y-184489903D01*
G75*
G02*
X331828847Y-185534834I-1122334J77403D01*
G01*
G37*
G04 #@! TD.AperFunction*
G04 #@! TA.AperFunction,ComponentPad*
G36*
G01*
X351038688Y-187209850D02*
X351038683Y-187209845D01*
G75*
G02*
X350952655Y-185621183I751317J837345D01*
G01*
X352262657Y-184161183D01*
G75*
G02*
X353851319Y-184075155I837345J-751317D01*
G01*
X353851319Y-184075155D01*
G75*
G02*
X353937347Y-185663817I-751317J-837345D01*
G01*
X352627345Y-187123817D01*
G75*
G02*
X351038683Y-187209845I-837345J751317D01*
G01*
G37*
G04 #@! TD.AperFunction*
X353100000Y-184912500D03*
X358140000Y-183832500D03*
G04 #@! TA.AperFunction,ComponentPad*
G36*
G01*
X358023483Y-185534895D02*
X358022597Y-185534834D01*
G75*
G02*
X356977666Y-184335097I77403J1122334D01*
G01*
X357017666Y-183755097D01*
G75*
G02*
X358217403Y-182710166I1122334J-77403D01*
G01*
X358217403Y-182710166D01*
G75*
G02*
X359262334Y-183909903I-77403J-1122334D01*
G01*
X359222334Y-184489903D01*
G75*
G02*
X358022597Y-185534834I-1122334J77403D01*
G01*
G37*
G04 #@! TD.AperFunction*
X88781250Y-203962500D03*
G04 #@! TA.AperFunction,ComponentPad*
G36*
G01*
X86719938Y-206259850D02*
X86719933Y-206259845D01*
G75*
G02*
X86633905Y-204671183I751317J837345D01*
G01*
X87943907Y-203211183D01*
G75*
G02*
X89532569Y-203125155I837345J-751317D01*
G01*
X89532569Y-203125155D01*
G75*
G02*
X89618597Y-204713817I-751317J-837345D01*
G01*
X88308595Y-206173817D01*
G75*
G02*
X86719933Y-206259845I-837345J751317D01*
G01*
G37*
G04 #@! TD.AperFunction*
X93821250Y-202882500D03*
G04 #@! TA.AperFunction,ComponentPad*
G36*
G01*
X93704733Y-204584895D02*
X93703847Y-204584834D01*
G75*
G02*
X92658916Y-203385097I77403J1122334D01*
G01*
X92698916Y-202805097D01*
G75*
G02*
X93898653Y-201760166I1122334J-77403D01*
G01*
X93898653Y-201760166D01*
G75*
G02*
X94943584Y-202959903I-77403J-1122334D01*
G01*
X94903584Y-203539903D01*
G75*
G02*
X93703847Y-204584834I-1122334J77403D01*
G01*
G37*
G04 #@! TD.AperFunction*
G04 #@! TA.AperFunction,ComponentPad*
G36*
G01*
X110532438Y-206259850D02*
X110532433Y-206259845D01*
G75*
G02*
X110446405Y-204671183I751317J837345D01*
G01*
X111756407Y-203211183D01*
G75*
G02*
X113345069Y-203125155I837345J-751317D01*
G01*
X113345069Y-203125155D01*
G75*
G02*
X113431097Y-204713817I-751317J-837345D01*
G01*
X112121095Y-206173817D01*
G75*
G02*
X110532433Y-206259845I-837345J751317D01*
G01*
G37*
G04 #@! TD.AperFunction*
X112593750Y-203962500D03*
X117633750Y-202882500D03*
G04 #@! TA.AperFunction,ComponentPad*
G36*
G01*
X117517233Y-204584895D02*
X117516347Y-204584834D01*
G75*
G02*
X116471416Y-203385097I77403J1122334D01*
G01*
X116511416Y-202805097D01*
G75*
G02*
X117711153Y-201760166I1122334J-77403D01*
G01*
X117711153Y-201760166D01*
G75*
G02*
X118756084Y-202959903I-77403J-1122334D01*
G01*
X118716084Y-203539903D01*
G75*
G02*
X117516347Y-204584834I-1122334J77403D01*
G01*
G37*
G04 #@! TD.AperFunction*
G04 #@! TA.AperFunction,ComponentPad*
G36*
G01*
X134344938Y-206259850D02*
X134344933Y-206259845D01*
G75*
G02*
X134258905Y-204671183I751317J837345D01*
G01*
X135568907Y-203211183D01*
G75*
G02*
X137157569Y-203125155I837345J-751317D01*
G01*
X137157569Y-203125155D01*
G75*
G02*
X137243597Y-204713817I-751317J-837345D01*
G01*
X135933595Y-206173817D01*
G75*
G02*
X134344933Y-206259845I-837345J751317D01*
G01*
G37*
G04 #@! TD.AperFunction*
X136406250Y-203962500D03*
X141446250Y-202882500D03*
G04 #@! TA.AperFunction,ComponentPad*
G36*
G01*
X141329733Y-204584895D02*
X141328847Y-204584834D01*
G75*
G02*
X140283916Y-203385097I77403J1122334D01*
G01*
X140323916Y-202805097D01*
G75*
G02*
X141523653Y-201760166I1122334J-77403D01*
G01*
X141523653Y-201760166D01*
G75*
G02*
X142568584Y-202959903I-77403J-1122334D01*
G01*
X142528584Y-203539903D01*
G75*
G02*
X141328847Y-204584834I-1122334J77403D01*
G01*
G37*
G04 #@! TD.AperFunction*
G04 #@! TA.AperFunction,ComponentPad*
G36*
G01*
X208163688Y-206259850D02*
X208163683Y-206259845D01*
G75*
G02*
X208077655Y-204671183I751317J837345D01*
G01*
X209387657Y-203211183D01*
G75*
G02*
X210976319Y-203125155I837345J-751317D01*
G01*
X210976319Y-203125155D01*
G75*
G02*
X211062347Y-204713817I-751317J-837345D01*
G01*
X209752345Y-206173817D01*
G75*
G02*
X208163683Y-206259845I-837345J751317D01*
G01*
G37*
G04 #@! TD.AperFunction*
X210225000Y-203962500D03*
X215265000Y-202882500D03*
G04 #@! TA.AperFunction,ComponentPad*
G36*
G01*
X215148483Y-204584895D02*
X215147597Y-204584834D01*
G75*
G02*
X214102666Y-203385097I77403J1122334D01*
G01*
X214142666Y-202805097D01*
G75*
G02*
X215342403Y-201760166I1122334J-77403D01*
G01*
X215342403Y-201760166D01*
G75*
G02*
X216387334Y-202959903I-77403J-1122334D01*
G01*
X216347334Y-203539903D01*
G75*
G02*
X215147597Y-204584834I-1122334J77403D01*
G01*
G37*
G04 #@! TD.AperFunction*
X284043750Y-203962500D03*
G04 #@! TA.AperFunction,ComponentPad*
G36*
G01*
X281982438Y-206259850D02*
X281982433Y-206259845D01*
G75*
G02*
X281896405Y-204671183I751317J837345D01*
G01*
X283206407Y-203211183D01*
G75*
G02*
X284795069Y-203125155I837345J-751317D01*
G01*
X284795069Y-203125155D01*
G75*
G02*
X284881097Y-204713817I-751317J-837345D01*
G01*
X283571095Y-206173817D01*
G75*
G02*
X281982433Y-206259845I-837345J751317D01*
G01*
G37*
G04 #@! TD.AperFunction*
G04 #@! TA.AperFunction,ComponentPad*
G36*
G01*
X288967233Y-204584895D02*
X288966347Y-204584834D01*
G75*
G02*
X287921416Y-203385097I77403J1122334D01*
G01*
X287961416Y-202805097D01*
G75*
G02*
X289161153Y-201760166I1122334J-77403D01*
G01*
X289161153Y-201760166D01*
G75*
G02*
X290206084Y-202959903I-77403J-1122334D01*
G01*
X290166084Y-203539903D01*
G75*
G02*
X288966347Y-204584834I-1122334J77403D01*
G01*
G37*
G04 #@! TD.AperFunction*
X289083750Y-202882500D03*
G04 #@! TA.AperFunction,ComponentPad*
G36*
G01*
X305794938Y-206259850D02*
X305794933Y-206259845D01*
G75*
G02*
X305708905Y-204671183I751317J837345D01*
G01*
X307018907Y-203211183D01*
G75*
G02*
X308607569Y-203125155I837345J-751317D01*
G01*
X308607569Y-203125155D01*
G75*
G02*
X308693597Y-204713817I-751317J-837345D01*
G01*
X307383595Y-206173817D01*
G75*
G02*
X305794933Y-206259845I-837345J751317D01*
G01*
G37*
G04 #@! TD.AperFunction*
X307856250Y-203962500D03*
X312896250Y-202882500D03*
G04 #@! TA.AperFunction,ComponentPad*
G36*
G01*
X312779733Y-204584895D02*
X312778847Y-204584834D01*
G75*
G02*
X311733916Y-203385097I77403J1122334D01*
G01*
X311773916Y-202805097D01*
G75*
G02*
X312973653Y-201760166I1122334J-77403D01*
G01*
X312973653Y-201760166D01*
G75*
G02*
X314018584Y-202959903I-77403J-1122334D01*
G01*
X313978584Y-203539903D01*
G75*
G02*
X312778847Y-204584834I-1122334J77403D01*
G01*
G37*
G04 #@! TD.AperFunction*
X334050000Y-203962500D03*
G04 #@! TA.AperFunction,ComponentPad*
G36*
G01*
X331988688Y-206259850D02*
X331988683Y-206259845D01*
G75*
G02*
X331902655Y-204671183I751317J837345D01*
G01*
X333212657Y-203211183D01*
G75*
G02*
X334801319Y-203125155I837345J-751317D01*
G01*
X334801319Y-203125155D01*
G75*
G02*
X334887347Y-204713817I-751317J-837345D01*
G01*
X333577345Y-206173817D01*
G75*
G02*
X331988683Y-206259845I-837345J751317D01*
G01*
G37*
G04 #@! TD.AperFunction*
G04 #@! TA.AperFunction,ComponentPad*
G36*
G01*
X338973483Y-204584895D02*
X338972597Y-204584834D01*
G75*
G02*
X337927666Y-203385097I77403J1122334D01*
G01*
X337967666Y-202805097D01*
G75*
G02*
X339167403Y-201760166I1122334J-77403D01*
G01*
X339167403Y-201760166D01*
G75*
G02*
X340212334Y-202959903I-77403J-1122334D01*
G01*
X340172334Y-203539903D01*
G75*
G02*
X338972597Y-204584834I-1122334J77403D01*
G01*
G37*
G04 #@! TD.AperFunction*
X339090000Y-202882500D03*
X353100000Y-203962500D03*
G04 #@! TA.AperFunction,ComponentPad*
G36*
G01*
X351038688Y-206259850D02*
X351038683Y-206259845D01*
G75*
G02*
X350952655Y-204671183I751317J837345D01*
G01*
X352262657Y-203211183D01*
G75*
G02*
X353851319Y-203125155I837345J-751317D01*
G01*
X353851319Y-203125155D01*
G75*
G02*
X353937347Y-204713817I-751317J-837345D01*
G01*
X352627345Y-206173817D01*
G75*
G02*
X351038683Y-206259845I-837345J751317D01*
G01*
G37*
G04 #@! TD.AperFunction*
G04 #@! TA.AperFunction,ComponentPad*
G36*
G01*
X358023483Y-204584895D02*
X358022597Y-204584834D01*
G75*
G02*
X356977666Y-203385097I77403J1122334D01*
G01*
X357017666Y-202805097D01*
G75*
G02*
X358217403Y-201760166I1122334J-77403D01*
G01*
X358217403Y-201760166D01*
G75*
G02*
X359262334Y-202959903I-77403J-1122334D01*
G01*
X359222334Y-203539903D01*
G75*
G02*
X358022597Y-204584834I-1122334J77403D01*
G01*
G37*
G04 #@! TD.AperFunction*
X358140000Y-202882500D03*
X372150000Y-203962500D03*
G04 #@! TA.AperFunction,ComponentPad*
G36*
G01*
X370088688Y-206259850D02*
X370088683Y-206259845D01*
G75*
G02*
X370002655Y-204671183I751317J837345D01*
G01*
X371312657Y-203211183D01*
G75*
G02*
X372901319Y-203125155I837345J-751317D01*
G01*
X372901319Y-203125155D01*
G75*
G02*
X372987347Y-204713817I-751317J-837345D01*
G01*
X371677345Y-206173817D01*
G75*
G02*
X370088683Y-206259845I-837345J751317D01*
G01*
G37*
G04 #@! TD.AperFunction*
X377190000Y-202882500D03*
G04 #@! TA.AperFunction,ComponentPad*
G36*
G01*
X377073483Y-204584895D02*
X377072597Y-204584834D01*
G75*
G02*
X376027666Y-203385097I77403J1122334D01*
G01*
X376067666Y-202805097D01*
G75*
G02*
X377267403Y-201760166I1122334J-77403D01*
G01*
X377267403Y-201760166D01*
G75*
G02*
X378312334Y-202959903I-77403J-1122334D01*
G01*
X378272334Y-203539903D01*
G75*
G02*
X377072597Y-204584834I-1122334J77403D01*
G01*
G37*
G04 #@! TD.AperFunction*
G04 #@! TA.AperFunction,SMDPad,CuDef*
G36*
G01*
X327381250Y-110956250D02*
X327381250Y-109706250D01*
G75*
G02*
X327631250Y-109456250I250000J0D01*
G01*
X328381250Y-109456250D01*
G75*
G02*
X328631250Y-109706250I0J-250000D01*
G01*
X328631250Y-110956250D01*
G75*
G02*
X328381250Y-111206250I-250000J0D01*
G01*
X327631250Y-111206250D01*
G75*
G02*
X327381250Y-110956250I0J250000D01*
G01*
G37*
G04 #@! TD.AperFunction*
G04 #@! TA.AperFunction,SMDPad,CuDef*
G36*
G01*
X330181250Y-110956250D02*
X330181250Y-109706250D01*
G75*
G02*
X330431250Y-109456250I250000J0D01*
G01*
X331181250Y-109456250D01*
G75*
G02*
X331431250Y-109706250I0J-250000D01*
G01*
X331431250Y-110956250D01*
G75*
G02*
X331181250Y-111206250I-250000J0D01*
G01*
X330431250Y-111206250D01*
G75*
G02*
X330181250Y-110956250I0J250000D01*
G01*
G37*
G04 #@! TD.AperFunction*
G04 #@! TA.AperFunction,SMDPad,CuDef*
G36*
G01*
X341094000Y-103707250D02*
X341094000Y-102794750D01*
G75*
G02*
X341337750Y-102551000I243750J0D01*
G01*
X341825250Y-102551000D01*
G75*
G02*
X342069000Y-102794750I0J-243750D01*
G01*
X342069000Y-103707250D01*
G75*
G02*
X341825250Y-103951000I-243750J0D01*
G01*
X341337750Y-103951000D01*
G75*
G02*
X341094000Y-103707250I0J243750D01*
G01*
G37*
G04 #@! TD.AperFunction*
G04 #@! TA.AperFunction,SMDPad,CuDef*
G36*
G01*
X342969000Y-103707250D02*
X342969000Y-102794750D01*
G75*
G02*
X343212750Y-102551000I243750J0D01*
G01*
X343700250Y-102551000D01*
G75*
G02*
X343944000Y-102794750I0J-243750D01*
G01*
X343944000Y-103707250D01*
G75*
G02*
X343700250Y-103951000I-243750J0D01*
G01*
X343212750Y-103951000D01*
G75*
G02*
X342969000Y-103707250I0J243750D01*
G01*
G37*
G04 #@! TD.AperFunction*
G04 #@! TA.AperFunction,SMDPad,CuDef*
G36*
G01*
X357985000Y-107136250D02*
X357985000Y-106223750D01*
G75*
G02*
X358228750Y-105980000I243750J0D01*
G01*
X358716250Y-105980000D01*
G75*
G02*
X358960000Y-106223750I0J-243750D01*
G01*
X358960000Y-107136250D01*
G75*
G02*
X358716250Y-107380000I-243750J0D01*
G01*
X358228750Y-107380000D01*
G75*
G02*
X357985000Y-107136250I0J243750D01*
G01*
G37*
G04 #@! TD.AperFunction*
G04 #@! TA.AperFunction,SMDPad,CuDef*
G36*
G01*
X359860000Y-107136250D02*
X359860000Y-106223750D01*
G75*
G02*
X360103750Y-105980000I243750J0D01*
G01*
X360591250Y-105980000D01*
G75*
G02*
X360835000Y-106223750I0J-243750D01*
G01*
X360835000Y-107136250D01*
G75*
G02*
X360591250Y-107380000I-243750J0D01*
G01*
X360103750Y-107380000D01*
G75*
G02*
X359860000Y-107136250I0J243750D01*
G01*
G37*
G04 #@! TD.AperFunction*
G04 #@! TA.AperFunction,SMDPad,CuDef*
G36*
G01*
X372606250Y-118431250D02*
X373518750Y-118431250D01*
G75*
G02*
X373762500Y-118675000I0J-243750D01*
G01*
X373762500Y-119162500D01*
G75*
G02*
X373518750Y-119406250I-243750J0D01*
G01*
X372606250Y-119406250D01*
G75*
G02*
X372362500Y-119162500I0J243750D01*
G01*
X372362500Y-118675000D01*
G75*
G02*
X372606250Y-118431250I243750J0D01*
G01*
G37*
G04 #@! TD.AperFunction*
G04 #@! TA.AperFunction,SMDPad,CuDef*
G36*
G01*
X372606250Y-120306250D02*
X373518750Y-120306250D01*
G75*
G02*
X373762500Y-120550000I0J-243750D01*
G01*
X373762500Y-121037500D01*
G75*
G02*
X373518750Y-121281250I-243750J0D01*
G01*
X372606250Y-121281250D01*
G75*
G02*
X372362500Y-121037500I0J243750D01*
G01*
X372362500Y-120550000D01*
G75*
G02*
X372606250Y-120306250I243750J0D01*
G01*
G37*
G04 #@! TD.AperFunction*
D14*
X298525000Y-104068000D03*
X304725000Y-107768000D03*
X298525000Y-107768000D03*
X304725000Y-104068000D03*
D15*
X372300000Y-105425000D03*
X371500000Y-105425000D03*
X370700000Y-105425000D03*
X369900000Y-105425000D03*
X369100000Y-105425000D03*
X368300000Y-105425000D03*
X367500000Y-105425000D03*
X366700000Y-105425000D03*
X365900000Y-105425000D03*
X365100000Y-105425000D03*
X364300000Y-105425000D03*
D16*
X362600000Y-107125000D03*
X362600000Y-107925000D03*
X362600000Y-108725000D03*
X362600000Y-109525000D03*
X362600000Y-110325000D03*
X362600000Y-111125000D03*
X362600000Y-111925000D03*
X362600000Y-112725000D03*
X362600000Y-113525000D03*
X362600000Y-114325000D03*
X362600000Y-115125000D03*
D15*
X364300000Y-116825000D03*
X365100000Y-116825000D03*
X365900000Y-116825000D03*
X366700000Y-116825000D03*
X367500000Y-116825000D03*
X368300000Y-116825000D03*
X369100000Y-116825000D03*
X369900000Y-116825000D03*
X370700000Y-116825000D03*
X371500000Y-116825000D03*
X372300000Y-116825000D03*
D16*
X374000000Y-115125000D03*
X374000000Y-114325000D03*
X374000000Y-113525000D03*
X374000000Y-112725000D03*
X374000000Y-111925000D03*
X374000000Y-111125000D03*
X374000000Y-110325000D03*
X374000000Y-109525000D03*
X374000000Y-108725000D03*
X374000000Y-107925000D03*
X374000000Y-107125000D03*
D17*
X323837500Y-107687500D03*
X324637500Y-107687500D03*
X325437500Y-107687500D03*
X326237500Y-107687500D03*
X327037500Y-107687500D03*
D18*
X321787500Y-103187500D03*
X329087500Y-107687500D03*
X321787500Y-107687500D03*
X329087500Y-103187500D03*
D19*
X350393000Y-108634000D03*
X352593000Y-108634000D03*
X352593000Y-106934000D03*
X350393000Y-106934000D03*
G04 #@! TA.AperFunction,SMDPad,CuDef*
G36*
G01*
X360835000Y-103937750D02*
X360835000Y-104850250D01*
G75*
G02*
X360591250Y-105094000I-243750J0D01*
G01*
X360103750Y-105094000D01*
G75*
G02*
X359860000Y-104850250I0J243750D01*
G01*
X359860000Y-103937750D01*
G75*
G02*
X360103750Y-103694000I243750J0D01*
G01*
X360591250Y-103694000D01*
G75*
G02*
X360835000Y-103937750I0J-243750D01*
G01*
G37*
G04 #@! TD.AperFunction*
G04 #@! TA.AperFunction,SMDPad,CuDef*
G36*
G01*
X358960000Y-103937750D02*
X358960000Y-104850250D01*
G75*
G02*
X358716250Y-105094000I-243750J0D01*
G01*
X358228750Y-105094000D01*
G75*
G02*
X357985000Y-104850250I0J243750D01*
G01*
X357985000Y-103937750D01*
G75*
G02*
X358228750Y-103694000I243750J0D01*
G01*
X358716250Y-103694000D01*
G75*
G02*
X358960000Y-103937750I0J-243750D01*
G01*
G37*
G04 #@! TD.AperFunction*
G04 #@! TA.AperFunction,SMDPad,CuDef*
G36*
G01*
X355269852Y-109248000D02*
X354357352Y-109248000D01*
G75*
G02*
X354113602Y-109004250I0J243750D01*
G01*
X354113602Y-108516750D01*
G75*
G02*
X354357352Y-108273000I243750J0D01*
G01*
X355269852Y-108273000D01*
G75*
G02*
X355513602Y-108516750I0J-243750D01*
G01*
X355513602Y-109004250D01*
G75*
G02*
X355269852Y-109248000I-243750J0D01*
G01*
G37*
G04 #@! TD.AperFunction*
G04 #@! TA.AperFunction,SMDPad,CuDef*
G36*
G01*
X355269852Y-107373000D02*
X354357352Y-107373000D01*
G75*
G02*
X354113602Y-107129250I0J243750D01*
G01*
X354113602Y-106641750D01*
G75*
G02*
X354357352Y-106398000I243750J0D01*
G01*
X355269852Y-106398000D01*
G75*
G02*
X355513602Y-106641750I0J-243750D01*
G01*
X355513602Y-107129250D01*
G75*
G02*
X355269852Y-107373000I-243750J0D01*
G01*
G37*
G04 #@! TD.AperFunction*
G04 #@! TA.AperFunction,SMDPad,CuDef*
G36*
G01*
X376400000Y-116343750D02*
X376400000Y-115431250D01*
G75*
G02*
X376643750Y-115187500I243750J0D01*
G01*
X377131250Y-115187500D01*
G75*
G02*
X377375000Y-115431250I0J-243750D01*
G01*
X377375000Y-116343750D01*
G75*
G02*
X377131250Y-116587500I-243750J0D01*
G01*
X376643750Y-116587500D01*
G75*
G02*
X376400000Y-116343750I0J243750D01*
G01*
G37*
G04 #@! TD.AperFunction*
G04 #@! TA.AperFunction,SMDPad,CuDef*
G36*
G01*
X378275000Y-116343750D02*
X378275000Y-115431250D01*
G75*
G02*
X378518750Y-115187500I243750J0D01*
G01*
X379006250Y-115187500D01*
G75*
G02*
X379250000Y-115431250I0J-243750D01*
G01*
X379250000Y-116343750D01*
G75*
G02*
X379006250Y-116587500I-243750J0D01*
G01*
X378518750Y-116587500D01*
G75*
G02*
X378275000Y-116343750I0J243750D01*
G01*
G37*
G04 #@! TD.AperFunction*
G04 #@! TA.AperFunction,SMDPad,CuDef*
G36*
G01*
X360883500Y-108255750D02*
X360883500Y-109168250D01*
G75*
G02*
X360639750Y-109412000I-243750J0D01*
G01*
X360152250Y-109412000D01*
G75*
G02*
X359908500Y-109168250I0J243750D01*
G01*
X359908500Y-108255750D01*
G75*
G02*
X360152250Y-108012000I243750J0D01*
G01*
X360639750Y-108012000D01*
G75*
G02*
X360883500Y-108255750I0J-243750D01*
G01*
G37*
G04 #@! TD.AperFunction*
G04 #@! TA.AperFunction,SMDPad,CuDef*
G36*
G01*
X359008500Y-108255750D02*
X359008500Y-109168250D01*
G75*
G02*
X358764750Y-109412000I-243750J0D01*
G01*
X358277250Y-109412000D01*
G75*
G02*
X358033500Y-109168250I0J243750D01*
G01*
X358033500Y-108255750D01*
G75*
G02*
X358277250Y-108012000I243750J0D01*
G01*
X358764750Y-108012000D01*
G75*
G02*
X359008500Y-108255750I0J-243750D01*
G01*
G37*
G04 #@! TD.AperFunction*
G04 #@! TA.AperFunction,SMDPad,CuDef*
G36*
G01*
X371017500Y-103834250D02*
X371017500Y-102921750D01*
G75*
G02*
X371261250Y-102678000I243750J0D01*
G01*
X371748750Y-102678000D01*
G75*
G02*
X371992500Y-102921750I0J-243750D01*
G01*
X371992500Y-103834250D01*
G75*
G02*
X371748750Y-104078000I-243750J0D01*
G01*
X371261250Y-104078000D01*
G75*
G02*
X371017500Y-103834250I0J243750D01*
G01*
G37*
G04 #@! TD.AperFunction*
G04 #@! TA.AperFunction,SMDPad,CuDef*
G36*
G01*
X372892500Y-103834250D02*
X372892500Y-102921750D01*
G75*
G02*
X373136250Y-102678000I243750J0D01*
G01*
X373623750Y-102678000D01*
G75*
G02*
X373867500Y-102921750I0J-243750D01*
G01*
X373867500Y-103834250D01*
G75*
G02*
X373623750Y-104078000I-243750J0D01*
G01*
X373136250Y-104078000D01*
G75*
G02*
X372892500Y-103834250I0J243750D01*
G01*
G37*
G04 #@! TD.AperFunction*
D20*
X312039000Y-107569000D03*
D21*
X312039000Y-106569000D03*
X313039000Y-107569000D03*
X313039000Y-106569000D03*
X314039000Y-107569000D03*
X314039000Y-106569000D03*
G04 #@! TA.AperFunction,SMDPad,CuDef*
G36*
G01*
X376400000Y-106818750D02*
X376400000Y-105906250D01*
G75*
G02*
X376643750Y-105662500I243750J0D01*
G01*
X377131250Y-105662500D01*
G75*
G02*
X377375000Y-105906250I0J-243750D01*
G01*
X377375000Y-106818750D01*
G75*
G02*
X377131250Y-107062500I-243750J0D01*
G01*
X376643750Y-107062500D01*
G75*
G02*
X376400000Y-106818750I0J243750D01*
G01*
G37*
G04 #@! TD.AperFunction*
G04 #@! TA.AperFunction,SMDPad,CuDef*
G36*
G01*
X378275000Y-106818750D02*
X378275000Y-105906250D01*
G75*
G02*
X378518750Y-105662500I243750J0D01*
G01*
X379006250Y-105662500D01*
G75*
G02*
X379250000Y-105906250I0J-243750D01*
G01*
X379250000Y-106818750D01*
G75*
G02*
X379006250Y-107062500I-243750J0D01*
G01*
X378518750Y-107062500D01*
G75*
G02*
X378275000Y-106818750I0J243750D01*
G01*
G37*
G04 #@! TD.AperFunction*
G04 #@! TA.AperFunction,SMDPad,CuDef*
G36*
G01*
X341045500Y-106025000D02*
X341045500Y-105112500D01*
G75*
G02*
X341289250Y-104868750I243750J0D01*
G01*
X341776750Y-104868750D01*
G75*
G02*
X342020500Y-105112500I0J-243750D01*
G01*
X342020500Y-106025000D01*
G75*
G02*
X341776750Y-106268750I-243750J0D01*
G01*
X341289250Y-106268750D01*
G75*
G02*
X341045500Y-106025000I0J243750D01*
G01*
G37*
G04 #@! TD.AperFunction*
G04 #@! TA.AperFunction,SMDPad,CuDef*
G36*
G01*
X342920500Y-106025000D02*
X342920500Y-105112500D01*
G75*
G02*
X343164250Y-104868750I243750J0D01*
G01*
X343651750Y-104868750D01*
G75*
G02*
X343895500Y-105112500I0J-243750D01*
G01*
X343895500Y-106025000D01*
G75*
G02*
X343651750Y-106268750I-243750J0D01*
G01*
X343164250Y-106268750D01*
G75*
G02*
X342920500Y-106025000I0J243750D01*
G01*
G37*
G04 #@! TD.AperFunction*
G04 #@! TA.AperFunction,SMDPad,CuDef*
G36*
G01*
X347818750Y-106368500D02*
X348731250Y-106368500D01*
G75*
G02*
X348975000Y-106612250I0J-243750D01*
G01*
X348975000Y-107099750D01*
G75*
G02*
X348731250Y-107343500I-243750J0D01*
G01*
X347818750Y-107343500D01*
G75*
G02*
X347575000Y-107099750I0J243750D01*
G01*
X347575000Y-106612250D01*
G75*
G02*
X347818750Y-106368500I243750J0D01*
G01*
G37*
G04 #@! TD.AperFunction*
G04 #@! TA.AperFunction,SMDPad,CuDef*
G36*
G01*
X347818750Y-108243500D02*
X348731250Y-108243500D01*
G75*
G02*
X348975000Y-108487250I0J-243750D01*
G01*
X348975000Y-108974750D01*
G75*
G02*
X348731250Y-109218500I-243750J0D01*
G01*
X347818750Y-109218500D01*
G75*
G02*
X347575000Y-108974750I0J243750D01*
G01*
X347575000Y-108487250D01*
G75*
G02*
X347818750Y-108243500I243750J0D01*
G01*
G37*
G04 #@! TD.AperFunction*
D22*
X356071282Y-105221218D03*
X345440000Y-105664000D03*
X357378000Y-106172000D03*
X365506000Y-106934000D03*
X340106000Y-106934000D03*
X336109858Y-112327010D03*
X332581250Y-110331250D03*
X319047846Y-110370904D03*
X370681250Y-103187500D03*
X375412500Y-107125000D03*
X375443750Y-115887500D03*
X364982643Y-118542515D03*
X365985401Y-134083401D03*
X366747401Y-153133401D03*
X367509401Y-172183401D03*
X368271401Y-191233401D03*
X364715401Y-210283401D03*
X369062000Y-120142000D03*
X364744000Y-124460000D03*
X342138000Y-108458000D03*
X372364000Y-108712000D03*
X342845108Y-109185000D03*
X371602000Y-109474000D03*
X304800000Y-109220000D03*
X362458000Y-104635417D03*
X369887500Y-102393750D03*
X363474000Y-105410000D03*
X370840000Y-110236000D03*
X343564818Y-109912000D03*
X138811000Y-193548000D03*
X370078000Y-110998000D03*
X344287980Y-110639000D03*
X95504000Y-193548000D03*
X369316000Y-111760000D03*
X345012317Y-111366000D03*
X368554000Y-112522000D03*
X345737105Y-112093000D03*
X367792000Y-113284000D03*
X346462081Y-112820000D03*
X372372470Y-106824166D03*
X347218000Y-113547000D03*
X347980000Y-114300000D03*
X366268000Y-114554000D03*
X348742000Y-115062000D03*
X365252000Y-115062000D03*
D23*
X343904990Y-107199010D02*
X345440000Y-105664000D01*
X356119010Y-105421010D02*
X355854000Y-105156000D01*
D24*
X358472500Y-104394000D02*
X354076000Y-104394000D01*
X351568039Y-105758961D02*
X353473039Y-105758961D01*
X353473039Y-104996961D02*
X353473039Y-105758961D01*
X353473039Y-105758961D02*
X355380999Y-105758961D01*
X354076000Y-104394000D02*
X353473039Y-104996961D01*
X357886000Y-106680000D02*
X357378000Y-106172000D01*
X358472500Y-106680000D02*
X357886000Y-106680000D01*
D23*
X356108000Y-105410000D02*
X356119010Y-105421010D01*
X356119010Y-105421010D02*
X359088510Y-105421010D01*
X359088510Y-105421010D02*
X360347500Y-106680000D01*
D24*
X318257345Y-110580403D02*
X318257345Y-111501345D01*
X314245942Y-106569000D02*
X318257345Y-110580403D01*
X314039000Y-106569000D02*
X314245942Y-106569000D01*
X319087347Y-111501345D02*
X321787500Y-108801192D01*
X318257345Y-111501345D02*
X319087347Y-111501345D01*
X321787500Y-108801192D02*
X321787500Y-107687500D01*
X323837500Y-107687500D02*
X321787500Y-107687500D01*
X350393000Y-106934000D02*
X351568039Y-105758961D01*
X355380999Y-105758961D02*
X358334038Y-108712000D01*
X358334038Y-108712000D02*
X358521000Y-108712000D01*
X350393000Y-106934000D02*
X348353000Y-106934000D01*
X348353000Y-106934000D02*
X348275000Y-106856000D01*
X354813602Y-108760500D02*
X352719500Y-108760500D01*
X352719500Y-108760500D02*
X352593000Y-108634000D01*
D23*
X325437500Y-107687500D02*
X325437500Y-110224776D01*
X325437500Y-110224776D02*
X327199993Y-111987270D01*
X327199993Y-111987270D02*
X333944340Y-111987270D01*
X333944340Y-111987270D02*
X338591510Y-107340100D01*
X326237500Y-107687500D02*
X326237500Y-110382710D01*
X326237500Y-110382710D02*
X327388050Y-111533260D01*
X327388050Y-111533260D02*
X333756283Y-111533260D01*
X333756283Y-111533260D02*
X335925033Y-109364510D01*
X313039000Y-107569000D02*
X313039000Y-108170040D01*
X313039000Y-108170040D02*
X317898960Y-113030000D01*
X340106000Y-107254906D02*
X340106000Y-106934000D01*
X317898960Y-113030000D02*
X334330906Y-113030000D01*
X334330906Y-113030000D02*
X340106000Y-107254906D01*
X365506000Y-106934000D02*
X365900000Y-106540000D01*
X365900000Y-106540000D02*
X365900000Y-105425000D01*
X301025000Y-107768000D02*
X304725000Y-104068000D01*
X298525000Y-107768000D02*
X301025000Y-107768000D01*
D24*
X362600000Y-109525000D02*
X361184068Y-109525000D01*
X363731000Y-109525000D02*
X363740501Y-109534501D01*
X373996499Y-107921499D02*
X374000000Y-107925000D01*
X375140501Y-107934501D02*
X375140501Y-114112401D01*
X350590098Y-106934000D02*
X350393000Y-106934000D01*
X369100000Y-105425000D02*
X369100000Y-106202266D01*
X369100000Y-106202266D02*
X370819233Y-107921499D01*
X378762500Y-115237500D02*
X378762500Y-115887500D01*
X363740501Y-115847967D02*
X364300000Y-116407466D01*
X374927902Y-114325000D02*
X374000000Y-114325000D01*
X380206250Y-117475000D02*
X377938250Y-117475000D01*
X361184068Y-109525000D02*
X360906558Y-109802510D01*
X362600000Y-109525000D02*
X363731000Y-109525000D01*
X359611510Y-109802510D02*
X358521000Y-108712000D01*
X374000000Y-114325000D02*
X377850000Y-114325000D01*
X352290098Y-108634000D02*
X350590098Y-106934000D01*
X370819233Y-107921499D02*
X373996499Y-107921499D01*
X363740501Y-109534501D02*
X363740501Y-115847967D01*
X360906558Y-109802510D02*
X359611510Y-109802510D01*
X375131000Y-107925000D02*
X375140501Y-107934501D01*
X364300000Y-116407466D02*
X364300000Y-116825000D01*
X374000000Y-107925000D02*
X375131000Y-107925000D01*
X377850000Y-114325000D02*
X378762500Y-115237500D01*
X375140501Y-114112401D02*
X374927902Y-114325000D01*
X352593000Y-108634000D02*
X352290098Y-108634000D01*
X364321510Y-109293838D02*
X363752672Y-108725000D01*
X314340942Y-105664000D02*
X319047846Y-110370904D01*
X370681250Y-103187500D02*
X371314500Y-103187500D01*
X371314500Y-103187500D02*
X371505000Y-103378000D01*
X365100000Y-116825000D02*
X365100000Y-118425158D01*
D23*
X362587000Y-108712000D02*
X362600000Y-108725000D01*
D24*
X374650000Y-115887500D02*
X375443750Y-115887500D01*
D23*
X374033000Y-115092000D02*
X374000000Y-115125000D01*
X374094000Y-107031000D02*
X374000000Y-107125000D01*
D24*
X311912000Y-106314906D02*
X312562906Y-105664000D01*
X360299000Y-108712000D02*
X362587000Y-108712000D01*
X374000000Y-115237500D02*
X374650000Y-115887500D01*
X312039000Y-106569000D02*
X311912000Y-106442000D01*
X311912000Y-106442000D02*
X311912000Y-106314906D01*
X364321511Y-115269245D02*
X364321510Y-109293838D01*
X312562906Y-105664000D02*
X314340942Y-105664000D01*
X374000000Y-107125000D02*
X375412500Y-107125000D01*
X375443750Y-115887500D02*
X376887500Y-115887500D01*
D23*
X360299000Y-108252500D02*
X360299000Y-108712000D01*
D24*
X330806250Y-110331250D02*
X332581250Y-110331250D01*
X363752672Y-108725000D02*
X362600000Y-108725000D01*
X365100000Y-118425158D02*
X364982643Y-118542515D01*
X358472500Y-106426000D02*
X358394000Y-106426000D01*
X358472500Y-106426000D02*
X360299000Y-108252500D01*
D23*
X371500000Y-105425000D02*
X371500000Y-106175000D01*
D24*
X375412500Y-107125000D02*
X376125000Y-107125000D01*
X365100000Y-116825000D02*
X365100000Y-116047734D01*
X365100000Y-116047734D02*
X364321511Y-115269245D01*
X371505000Y-103378000D02*
X371505000Y-105420000D01*
X376125000Y-107125000D02*
X376887500Y-106362500D01*
D23*
X367500000Y-106175000D02*
X367500000Y-105425000D01*
X371505000Y-105420000D02*
X371500000Y-105425000D01*
D24*
X374000000Y-115125000D02*
X374000000Y-115237500D01*
D23*
X350393000Y-108634000D02*
X352884000Y-111125000D01*
X350393000Y-108634000D02*
X348372000Y-108634000D01*
X352884000Y-111125000D02*
X361940602Y-111125000D01*
X348372000Y-108634000D02*
X348275000Y-108731000D01*
X352641500Y-106885500D02*
X352593000Y-106934000D01*
X355840612Y-108299276D02*
X357866336Y-110325000D01*
X358813000Y-110325000D02*
X362600000Y-110325000D01*
X355840612Y-107912510D02*
X355840612Y-108299276D01*
X354813602Y-106885500D02*
X352641500Y-106885500D01*
X358525734Y-110325000D02*
X358813000Y-110325000D01*
X352593000Y-106934000D02*
X352781602Y-106934000D01*
X357866336Y-110325000D02*
X358813000Y-110325000D01*
X354813602Y-106885500D02*
X355840612Y-107912510D01*
X367446000Y-103821000D02*
X360920500Y-103821000D01*
X368300000Y-104675000D02*
X368300000Y-105425000D01*
X368300000Y-104675000D02*
X367446000Y-103821000D01*
X360920500Y-103821000D02*
X360347500Y-104394000D01*
X365900000Y-133998000D02*
X365985401Y-134083401D01*
X365900000Y-116825000D02*
X365900000Y-133998000D01*
X366712402Y-116837402D02*
X366712402Y-153098402D01*
X366712402Y-153098402D02*
X366747401Y-153133401D01*
X366700000Y-116825000D02*
X366712402Y-116837402D01*
D24*
X328006250Y-110331250D02*
X327037500Y-109362500D01*
X327037500Y-109362500D02*
X327037500Y-107687500D01*
D23*
X327025000Y-107700000D02*
X327037500Y-107687500D01*
X367500000Y-172174000D02*
X367509401Y-172183401D01*
X367500000Y-116825000D02*
X367500000Y-172174000D01*
X368300000Y-116825000D02*
X368300000Y-172468764D01*
X368300000Y-172468764D02*
X368271401Y-172497363D01*
X368271401Y-172497363D02*
X368271401Y-191233401D01*
X344029500Y-102678000D02*
X368584250Y-102678000D01*
X370700000Y-104737536D02*
X370700000Y-105425000D01*
X368584250Y-102678000D02*
X368640464Y-102678000D01*
X343456500Y-103251000D02*
X344029500Y-102678000D01*
X368640464Y-102678000D02*
X370700000Y-104737536D01*
X364744000Y-210254802D02*
X364715401Y-210283401D01*
X364744000Y-124460000D02*
X364744000Y-210254802D01*
X370700000Y-118504000D02*
X369062000Y-120142000D01*
X370700000Y-116825000D02*
X370700000Y-118504000D01*
X369900000Y-105425000D02*
X369900000Y-104675000D01*
X368412500Y-103187500D02*
X346075000Y-103187500D01*
X369900000Y-104675000D02*
X368412500Y-103187500D01*
X346075000Y-103187500D02*
X345789250Y-103187500D01*
X345789250Y-103187500D02*
X343408000Y-105568750D01*
X361442000Y-123952000D02*
X361442000Y-124206000D01*
X362600000Y-115125000D02*
X362395000Y-115125000D01*
X362395000Y-115125000D02*
X361442000Y-116078000D01*
X361442000Y-124206000D02*
X361442000Y-176720500D01*
X361442000Y-116078000D02*
X361442000Y-124206000D01*
X361442000Y-176720500D02*
X351790000Y-186372500D01*
X353100000Y-203962500D02*
X353100000Y-184912500D01*
X372268750Y-118125000D02*
X372268750Y-116856250D01*
X372268750Y-116856250D02*
X372300000Y-116825000D01*
X372315500Y-116840500D02*
X372300000Y-116825000D01*
X373062500Y-118918750D02*
X372268750Y-118125000D01*
X372364000Y-108712000D02*
X373987000Y-108712000D01*
X92165751Y-167390499D02*
X92233750Y-167322500D01*
X93543750Y-153994788D02*
X89852500Y-150303538D01*
X337089750Y-113506250D02*
X342138000Y-108458000D01*
X85090000Y-129222500D02*
X85090000Y-143510000D01*
X335819750Y-113506250D02*
X336042000Y-113506250D01*
X335819750Y-113506250D02*
X337089750Y-113506250D01*
X373987000Y-108712000D02*
X374000000Y-108725000D01*
X334962500Y-113506250D02*
X335819750Y-113506250D01*
X98306250Y-184912500D02*
X92165751Y-178772001D01*
X92165751Y-178772001D02*
X92165751Y-167390499D01*
X87471250Y-205422500D02*
X96996250Y-195897500D01*
X89852500Y-150303538D02*
X89852500Y-148272500D01*
X277812500Y-113506250D02*
X334962500Y-113506250D01*
X85090000Y-129222500D02*
X100806250Y-113506250D01*
X100806250Y-113506250D02*
X277812500Y-113506250D01*
X96996250Y-195897500D02*
X96996250Y-186372500D01*
X85090000Y-143510000D02*
X89852500Y-148272500D01*
X93543750Y-165862500D02*
X93543750Y-153994788D01*
X373949000Y-109474000D02*
X374000000Y-109525000D01*
X105450000Y-127762500D02*
X119252240Y-113960260D01*
X277624443Y-113960260D02*
X334622760Y-113960260D01*
X113665000Y-162560000D02*
X118427500Y-167322500D01*
X334622760Y-113960260D02*
X335873740Y-113960260D01*
X277358490Y-113960260D02*
X277624443Y-113960260D01*
X104140000Y-129222500D02*
X104140000Y-135977500D01*
X112593750Y-203962500D02*
X118427500Y-198128750D01*
X335873740Y-113960260D02*
X336042000Y-113960260D01*
X113665000Y-148272500D02*
X113665000Y-158877000D01*
X335873740Y-113960260D02*
X338069848Y-113960260D01*
X119252240Y-113960260D02*
X277358490Y-113960260D01*
X338069848Y-113960260D02*
X342845108Y-109185000D01*
X113665000Y-158877000D02*
X113665000Y-162560000D01*
X277358490Y-113960260D02*
X277749000Y-113960260D01*
X118427500Y-198128750D02*
X118427500Y-167322500D01*
X104140000Y-135977500D02*
X114975000Y-146812500D01*
X371602000Y-109474000D02*
X373949000Y-109474000D01*
X355464990Y-118056010D02*
X361596000Y-111925000D01*
X275590000Y-129222500D02*
X275590000Y-138747500D01*
X289877500Y-167322500D02*
X289877500Y-164909500D01*
X280352500Y-176338538D02*
X289368538Y-167322500D01*
X276900000Y-127762500D02*
X286606490Y-118056010D01*
X280352500Y-186372500D02*
X280352500Y-176338538D01*
X275590000Y-138747500D02*
X285115000Y-148272500D01*
X289877500Y-164909500D02*
X285115000Y-160147000D01*
X280987500Y-200906250D02*
X280987500Y-187007500D01*
X334571990Y-118056010D02*
X355464990Y-118056010D01*
X334571990Y-118056010D02*
X334772000Y-118056010D01*
X280987500Y-187007500D02*
X280352500Y-186372500D01*
X286606490Y-118056010D02*
X334571990Y-118056010D01*
X361596000Y-111925000D02*
X362600000Y-111925000D01*
X289368538Y-167322500D02*
X289877500Y-167322500D01*
X285115000Y-160147000D02*
X285115000Y-148272500D01*
X284043750Y-203962500D02*
X280987500Y-200906250D01*
X304165000Y-162560000D02*
X308927500Y-167322500D01*
X299402500Y-186372500D02*
X300037500Y-187007500D01*
X295950000Y-127762500D02*
X305202480Y-118510020D01*
X355653046Y-118510020D02*
X334772000Y-118510020D01*
X362600000Y-112725000D02*
X361438066Y-112725000D01*
X294640000Y-129222500D02*
X294640000Y-138747500D01*
X300037500Y-187007500D02*
X300037500Y-198913750D01*
X304165000Y-148272500D02*
X304165000Y-162560000D01*
X361438066Y-112725000D02*
X355653046Y-118510020D01*
X294640000Y-138747500D02*
X304165000Y-148272500D01*
X305202480Y-118510020D02*
X334772000Y-118510020D01*
X308418538Y-167322500D02*
X308927500Y-167322500D01*
X300037500Y-198913750D02*
X306546250Y-205422500D01*
X299402500Y-176338538D02*
X308418538Y-167322500D01*
X299402500Y-186372500D02*
X299402500Y-176338538D01*
X337910340Y-110526528D02*
X341237858Y-107199010D01*
X360347500Y-106426000D02*
X361846500Y-107925000D01*
X361846500Y-107925000D02*
X362600000Y-107925000D01*
X341237858Y-107199010D02*
X343904990Y-107199010D01*
X304800000Y-109220000D02*
X304800000Y-107843000D01*
X304800000Y-107843000D02*
X304725000Y-107768000D01*
X336109858Y-112327010D02*
X337910340Y-110526528D01*
X365100000Y-105425000D02*
X365100000Y-104647503D01*
X364727507Y-104275010D02*
X362818407Y-104275010D01*
X365100000Y-104647503D02*
X364727507Y-104275010D01*
X362818407Y-104275010D02*
X362458000Y-104635417D01*
X337912800Y-102223990D02*
X345261685Y-102223990D01*
X363474000Y-105410000D02*
X364285000Y-105410000D01*
X312593038Y-104902000D02*
X336412934Y-104902000D01*
X364285000Y-105410000D02*
X364300000Y-105425000D01*
X337379990Y-103934944D02*
X337379990Y-102756800D01*
X337379990Y-102756800D02*
X337912800Y-102223990D01*
X369717740Y-102223990D02*
X369887500Y-102393750D01*
X336412934Y-104902000D02*
X337379990Y-103934944D01*
X311286999Y-106208039D02*
X312593038Y-104902000D01*
X345261685Y-102223990D02*
X369717740Y-102223990D01*
X312039000Y-107569000D02*
X311360000Y-107569000D01*
X311360000Y-107569000D02*
X311286999Y-107495999D01*
X311286999Y-107495999D02*
X311286999Y-106208039D01*
X355841102Y-118964030D02*
X334425970Y-118964030D01*
X315000000Y-127762500D02*
X323798470Y-118964030D01*
X341193750Y-165862500D02*
X338640066Y-165862500D01*
X361280132Y-113525000D02*
X355841102Y-118964030D01*
X326906250Y-184912500D02*
X326906250Y-179532066D01*
X323215000Y-150437434D02*
X323215000Y-148272500D01*
X326898000Y-179523816D02*
X326898000Y-177546000D01*
X323798470Y-118964030D02*
X334425970Y-118964030D01*
X338610783Y-165833217D02*
X323215000Y-150437434D01*
X325528251Y-186440499D02*
X325596250Y-186372500D01*
X326906250Y-179532066D02*
X326898000Y-179523816D01*
X313690000Y-129222500D02*
X313690000Y-138747500D01*
X334425970Y-118964030D02*
X334772000Y-118964030D01*
X338640066Y-165862500D02*
X338610783Y-165833217D01*
X313690000Y-138747500D02*
X323215000Y-148272500D01*
X326898000Y-177546000D02*
X338610783Y-165833217D01*
X362600000Y-113525000D02*
X361280132Y-113525000D01*
X342265000Y-129222500D02*
X342265000Y-140740000D01*
X362600000Y-114325000D02*
X361122198Y-114325000D01*
X356029159Y-119418040D02*
X351919460Y-119418040D01*
X361122198Y-114325000D02*
X356029159Y-119418040D01*
X334050000Y-203962500D02*
X334050000Y-198588000D01*
X351919460Y-119418040D02*
X343575000Y-127762500D01*
X347027500Y-150303538D02*
X347027500Y-148272500D01*
X351282000Y-181356000D02*
X351282000Y-154558038D01*
X351282000Y-154558038D02*
X347027500Y-150303538D01*
X342265000Y-140740000D02*
X348337500Y-146812500D01*
X334050000Y-198588000D02*
X351282000Y-181356000D01*
X371500000Y-127112500D02*
X372150000Y-127762500D01*
X370840000Y-148303750D02*
X370840000Y-167322500D01*
X370840000Y-129222500D02*
X370840000Y-145502500D01*
X370840000Y-145502500D02*
X372150000Y-146812500D01*
X371500000Y-116825000D02*
X371500000Y-127112500D01*
X370840000Y-205422500D02*
X370840000Y-186372500D01*
X370840000Y-167322500D02*
X370840000Y-186372500D01*
X135096250Y-205422500D02*
X135096250Y-195681184D01*
X132715000Y-162560000D02*
X137477500Y-167322500D01*
X276904480Y-114414270D02*
X335142368Y-114414270D01*
X132715000Y-148272500D02*
X132715000Y-162560000D01*
X373911000Y-110236000D02*
X374000000Y-110325000D01*
X129262500Y-184912500D02*
X137477500Y-176697500D01*
X127952500Y-188537434D02*
X127952500Y-186372500D01*
X123190000Y-129222500D02*
X123190000Y-131318000D01*
X137477500Y-176697500D02*
X137477500Y-167322500D01*
X135096250Y-195681184D02*
X127952500Y-188537434D01*
X339062548Y-114414270D02*
X343564818Y-109912000D01*
X124500000Y-127762500D02*
X137848230Y-114414270D01*
X132715000Y-140843000D02*
X132715000Y-148272500D01*
X335419730Y-114414270D02*
X336042000Y-114414270D01*
X123190000Y-131318000D02*
X132715000Y-140843000D01*
X370840000Y-110236000D02*
X373911000Y-110236000D01*
X335142368Y-114414270D02*
X335419730Y-114414270D01*
X276904480Y-114414270D02*
X277749000Y-114414270D01*
X137848230Y-114414270D02*
X276904480Y-114414270D01*
X335419730Y-114414270D02*
X339062548Y-114414270D01*
X151765000Y-148272500D02*
X151765000Y-159790000D01*
X277561720Y-114868280D02*
X277749000Y-114868280D01*
X92075000Y-193548000D02*
X95504000Y-193548000D01*
X370078000Y-110998000D02*
X373873000Y-110998000D01*
X143550000Y-127762500D02*
X156444220Y-114868280D01*
X138811000Y-193548000D02*
X145986500Y-186372500D01*
X145986500Y-186372500D02*
X147002500Y-186372500D01*
X142240000Y-138747500D02*
X142240000Y-129222500D01*
X156444220Y-114868280D02*
X277561720Y-114868280D01*
X340058700Y-114868280D02*
X344287980Y-110639000D01*
X156527500Y-176847500D02*
X156527500Y-167322500D01*
X147002500Y-186372500D02*
X156527500Y-176847500D01*
X334772000Y-114868280D02*
X340058700Y-114868280D01*
X373873000Y-110998000D02*
X374000000Y-111125000D01*
X277561720Y-114868280D02*
X334772000Y-114868280D01*
X151765000Y-148272500D02*
X142240000Y-138747500D01*
X151765000Y-159790000D02*
X157837500Y-165862500D01*
X175040210Y-115322290D02*
X277615710Y-115322290D01*
X277615710Y-115322290D02*
X334772000Y-115322290D01*
X161290000Y-129222500D02*
X161290000Y-138747500D01*
X170058815Y-148272500D02*
X170815000Y-148272500D01*
X167362500Y-184912500D02*
X175577500Y-176697500D01*
X175577500Y-176697500D02*
X175577500Y-167322500D01*
X170815000Y-162560000D02*
X175577500Y-167322500D01*
X341056027Y-115322290D02*
X345012317Y-111366000D01*
X369316000Y-111760000D02*
X373835000Y-111760000D01*
X373835000Y-111760000D02*
X374000000Y-111925000D01*
X161290000Y-138747500D02*
X170815000Y-148272500D01*
X170815000Y-148272500D02*
X170815000Y-162560000D01*
X334772000Y-115322290D02*
X341056027Y-115322290D01*
X162600000Y-127762500D02*
X175040210Y-115322290D01*
X277615710Y-115322290D02*
X277749000Y-115322290D01*
X189865000Y-148272500D02*
X189865000Y-159790000D01*
X277415700Y-115776300D02*
X277749000Y-115776300D01*
X185102500Y-186372500D02*
X194559501Y-176915499D01*
X189865000Y-159790000D02*
X195937500Y-165862500D01*
X277415700Y-115776300D02*
X277427653Y-115776300D01*
X180340000Y-129222500D02*
X180340000Y-135977500D01*
X368554000Y-112522000D02*
X368757000Y-112725000D01*
X368757000Y-112725000D02*
X374000000Y-112725000D01*
X194559501Y-167390499D02*
X194627500Y-167322500D01*
X342053805Y-115776300D02*
X345737105Y-112093000D01*
X277427653Y-115776300D02*
X334772000Y-115776300D01*
X334772000Y-115776300D02*
X342053805Y-115776300D01*
X188981815Y-148272500D02*
X189865000Y-148272500D01*
X193636200Y-115776300D02*
X277415700Y-115776300D01*
X180340000Y-135977500D02*
X191175000Y-146812500D01*
X181650000Y-127762500D02*
X193636200Y-115776300D01*
X194559501Y-176915499D02*
X194559501Y-167390499D01*
X210225000Y-203962500D02*
X210225000Y-201970000D01*
X205462500Y-184912500D02*
X213677500Y-176697500D01*
X367792000Y-113284000D02*
X368033000Y-113525000D01*
X210225000Y-201970000D02*
X204152500Y-195897500D01*
X208285815Y-148272500D02*
X208915000Y-148272500D01*
X199390000Y-126452500D02*
X200700000Y-127762500D01*
X343051771Y-116230310D02*
X346462081Y-112820000D01*
X334772000Y-116230310D02*
X343051771Y-116230310D01*
X208915000Y-162560000D02*
X213677500Y-167322500D01*
X204152500Y-186372500D02*
X204152500Y-195897500D01*
X368033000Y-113525000D02*
X374000000Y-113525000D01*
X277749000Y-116230310D02*
X334772000Y-116230310D01*
X208915000Y-148272500D02*
X208915000Y-162560000D01*
X199390000Y-138747500D02*
X208915000Y-148272500D01*
X200700000Y-127762500D02*
X212232190Y-116230310D01*
X213677500Y-176697500D02*
X213677500Y-167322500D01*
X212232190Y-116230310D02*
X277749000Y-116230310D01*
X199390000Y-129222500D02*
X199390000Y-138747500D01*
X372364000Y-105489000D02*
X372300000Y-105425000D01*
X227965000Y-148272500D02*
X227965000Y-162560000D01*
X223202500Y-186372500D02*
X223202500Y-185991500D01*
X372372470Y-105497470D02*
X372300000Y-105425000D01*
X219750000Y-127762500D02*
X230828180Y-116684320D01*
X218440000Y-137668000D02*
X218440000Y-138747500D01*
X232659501Y-176534499D02*
X232659501Y-167390499D01*
X334673680Y-116684320D02*
X344080680Y-116684320D01*
X230828180Y-116684320D02*
X277749000Y-116684320D01*
X232659501Y-167390499D02*
X232727500Y-167322500D01*
X334772000Y-116684320D02*
X334673680Y-116684320D01*
X372372470Y-106824166D02*
X372372470Y-105497470D01*
X277749000Y-116684320D02*
X334772000Y-116684320D01*
X227965000Y-162560000D02*
X232727500Y-167322500D01*
X344080680Y-116684320D02*
X347218000Y-113547000D01*
X223202500Y-185991500D02*
X232659501Y-176534499D01*
X218440000Y-138747500D02*
X227965000Y-148272500D01*
X218440000Y-129222500D02*
X218440000Y-137668000D01*
X334473670Y-117138330D02*
X344702632Y-117138330D01*
X345141670Y-117138330D02*
X347980000Y-114300000D01*
X251709501Y-173994499D02*
X251709501Y-167390499D01*
X247015000Y-148272500D02*
X247015000Y-162560000D01*
X237490000Y-135763000D02*
X237490000Y-138747500D01*
X247015000Y-162560000D02*
X251777500Y-167322500D01*
X251709501Y-167390499D02*
X251777500Y-167322500D01*
X238800000Y-127762500D02*
X249424170Y-117138330D01*
X237490000Y-129222500D02*
X237490000Y-135763000D01*
X237490000Y-138747500D02*
X247015000Y-148272500D01*
X334473670Y-117138330D02*
X334772000Y-117138330D01*
X277749000Y-117138330D02*
X334473670Y-117138330D01*
X242252500Y-183451500D02*
X251709501Y-173994499D01*
X344702632Y-117138330D02*
X345141670Y-117138330D01*
X366268000Y-114554000D02*
X366700000Y-114122000D01*
X242252500Y-186372500D02*
X242252500Y-183451500D01*
X366700000Y-114122000D02*
X366700000Y-105425000D01*
X249424170Y-117138330D02*
X277749000Y-117138330D01*
X256540000Y-138747500D02*
X266065000Y-148272500D01*
X256540000Y-129222500D02*
X256540000Y-138747500D01*
X271018000Y-175260000D02*
X270827500Y-175069500D01*
X363604000Y-107125000D02*
X362600000Y-107125000D01*
X257850000Y-127762500D02*
X268010500Y-117602000D01*
X270827500Y-167322500D02*
X266065000Y-162560000D01*
X268010500Y-117602000D02*
X277749000Y-117602000D01*
X270827500Y-175069500D02*
X270827500Y-167322500D01*
X365252000Y-108773000D02*
X363604000Y-107125000D01*
X334772000Y-117602000D02*
X346202000Y-117602000D01*
X277749000Y-117602000D02*
X334772000Y-117602000D01*
X346202000Y-117602000D02*
X348742000Y-115062000D01*
X261302500Y-184975500D02*
X271018000Y-175260000D01*
X266065000Y-162560000D02*
X266065000Y-148272500D01*
X261302500Y-186372500D02*
X261302500Y-184975500D01*
X365252000Y-115062000D02*
X365252000Y-108773000D01*
X335925033Y-109364510D02*
X338137500Y-107152043D01*
X339661500Y-103251000D02*
X341581500Y-103251000D01*
X338137500Y-104775000D02*
X339661500Y-103251000D01*
X338137500Y-107152043D02*
X338137500Y-104775000D01*
X341041054Y-105076804D02*
X339649676Y-105076804D01*
X338591510Y-107340100D02*
X338591510Y-105913970D01*
X339428676Y-105076804D02*
X339649676Y-105076804D01*
X341533000Y-105568750D02*
X341041054Y-105076804D01*
X338591510Y-105913970D02*
X339428676Y-105076804D01*
G04 #@! TA.AperFunction,Conductor*
G36*
X369195843Y-106453859D02*
G01*
X369293427Y-106570156D01*
X369301868Y-106577238D01*
X369300568Y-106578788D01*
X369339994Y-106620139D01*
X369353999Y-106677872D01*
X369353999Y-106690837D01*
X369374998Y-106690837D01*
X369447241Y-106671480D01*
X369501732Y-106669101D01*
X369625002Y-106690837D01*
X370174998Y-106690837D01*
X370247241Y-106671480D01*
X370301732Y-106669101D01*
X370425002Y-106690837D01*
X370975001Y-106690837D01*
X371020104Y-106678752D01*
X371091081Y-106680442D01*
X371112842Y-106691464D01*
X371113269Y-106690627D01*
X371301326Y-106786448D01*
X371358181Y-106795453D01*
X371422334Y-106825866D01*
X371464470Y-106919902D01*
X371464470Y-106943704D01*
X371526349Y-107174639D01*
X371526352Y-107174645D01*
X371645887Y-107381687D01*
X371645894Y-107381697D01*
X371814939Y-107550742D01*
X371814949Y-107550749D01*
X371998148Y-107656519D01*
X372047141Y-107707901D01*
X372060577Y-107777615D01*
X372034191Y-107843526D01*
X371998148Y-107874757D01*
X371806479Y-107985417D01*
X371806469Y-107985424D01*
X371637424Y-108154469D01*
X371637417Y-108154479D01*
X371517881Y-108361520D01*
X371480420Y-108501325D01*
X371443468Y-108561947D01*
X371391325Y-108590420D01*
X371251520Y-108627881D01*
X371044479Y-108747417D01*
X371044469Y-108747424D01*
X370875424Y-108916469D01*
X370875417Y-108916479D01*
X370755881Y-109123520D01*
X370718420Y-109263325D01*
X370681468Y-109323947D01*
X370629325Y-109352420D01*
X370489520Y-109389881D01*
X370282479Y-109509417D01*
X370282469Y-109509424D01*
X370113424Y-109678469D01*
X370113417Y-109678479D01*
X369993881Y-109885520D01*
X369956420Y-110025325D01*
X369919468Y-110085947D01*
X369867325Y-110114420D01*
X369727520Y-110151881D01*
X369520479Y-110271417D01*
X369520469Y-110271424D01*
X369351424Y-110440469D01*
X369351417Y-110440479D01*
X369231881Y-110647520D01*
X369194420Y-110787325D01*
X369157468Y-110847947D01*
X369105325Y-110876420D01*
X368965520Y-110913881D01*
X368758479Y-111033417D01*
X368758469Y-111033424D01*
X368589424Y-111202469D01*
X368589417Y-111202479D01*
X368469881Y-111409520D01*
X368432420Y-111549325D01*
X368395468Y-111609947D01*
X368343325Y-111638420D01*
X368203520Y-111675881D01*
X367996479Y-111795417D01*
X367996469Y-111795424D01*
X367827424Y-111964469D01*
X367827417Y-111964479D01*
X367707881Y-112171520D01*
X367670420Y-112311325D01*
X367633468Y-112371947D01*
X367581325Y-112400420D01*
X367493612Y-112423923D01*
X367422635Y-112422233D01*
X367363839Y-112382439D01*
X367335000Y-112302216D01*
X367335000Y-106939309D01*
X367355002Y-106871188D01*
X367408658Y-106824695D01*
X367480709Y-106814860D01*
X367499999Y-106817915D01*
X367698673Y-106786448D01*
X367884409Y-106691810D01*
X367963492Y-106679991D01*
X368025002Y-106690837D01*
X368574998Y-106690837D01*
X368647241Y-106671480D01*
X368701732Y-106669101D01*
X368825002Y-106690837D01*
X368846000Y-106690837D01*
X368846000Y-106669506D01*
X368866002Y-106601385D01*
X368891009Y-106572984D01*
X368970154Y-106506574D01*
X368990202Y-106471850D01*
X369041585Y-106422857D01*
X369111298Y-106409421D01*
X369195843Y-106453859D01*
G37*
G04 #@! TD.AperFunction*
G04 #@! TA.AperFunction,Conductor*
G36*
X353783121Y-108400002D02*
G01*
X353829614Y-108453658D01*
X353841000Y-108506000D01*
X353841000Y-108506500D01*
X354611793Y-108506501D01*
X354611795Y-108506500D01*
X354941602Y-108506501D01*
X355009723Y-108526503D01*
X355056216Y-108580159D01*
X355067602Y-108632501D01*
X355067601Y-109761224D01*
X355303242Y-109761224D01*
X355586089Y-109699695D01*
X355769813Y-109581622D01*
X355892474Y-109440065D01*
X355952200Y-109401682D01*
X356023197Y-109401682D01*
X356076793Y-109433483D01*
X356918215Y-110274905D01*
X356952241Y-110337217D01*
X356947176Y-110408032D01*
X356904629Y-110464868D01*
X356829120Y-110490000D01*
X353199215Y-110490000D01*
X353110120Y-110453095D01*
X352621957Y-109964932D01*
X352587931Y-109902620D01*
X352592996Y-109831805D01*
X352635543Y-109774969D01*
X352711052Y-109749837D01*
X353292998Y-109749837D01*
X353550920Y-109680727D01*
X353688477Y-109565303D01*
X353753517Y-109536839D01*
X353851981Y-109566601D01*
X353945028Y-109647228D01*
X354143688Y-109737952D01*
X354143694Y-109737953D01*
X354305540Y-109761224D01*
X354559602Y-109761224D01*
X354559603Y-109014500D01*
X353691602Y-109014499D01*
X353623481Y-108994497D01*
X353576988Y-108940841D01*
X353565602Y-108888499D01*
X353565602Y-108888000D01*
X352465000Y-108888000D01*
X352396879Y-108867998D01*
X352350386Y-108814342D01*
X352339000Y-108762000D01*
X352339000Y-108506000D01*
X352359002Y-108437879D01*
X352412658Y-108391386D01*
X352465000Y-108380000D01*
X353715000Y-108380000D01*
X353783121Y-108400002D01*
G37*
G04 #@! TD.AperFunction*
G04 #@! TA.AperFunction,NonConductor*
G36*
X356382366Y-106098602D02*
G01*
X356441161Y-106138396D01*
X356470000Y-106218619D01*
X356470000Y-106291538D01*
X356531879Y-106522473D01*
X356531882Y-106522479D01*
X356651417Y-106729521D01*
X356651424Y-106729531D01*
X356820469Y-106898576D01*
X356820479Y-106898583D01*
X357027521Y-107018118D01*
X357027527Y-107018121D01*
X357258461Y-107080000D01*
X357258705Y-107080032D01*
X357258895Y-107080116D01*
X357266437Y-107082137D01*
X357266122Y-107083313D01*
X357323631Y-107108756D01*
X357342661Y-107130638D01*
X357342782Y-107130535D01*
X357348597Y-107137369D01*
X357405104Y-107187273D01*
X357410795Y-107192622D01*
X357427541Y-107209369D01*
X357427544Y-107209371D01*
X357440554Y-107219122D01*
X357448395Y-107225506D01*
X357461439Y-107237026D01*
X357501153Y-107304685D01*
X357533305Y-107452487D01*
X357651378Y-107636212D01*
X357657278Y-107643020D01*
X357655604Y-107644470D01*
X357687321Y-107693825D01*
X357687319Y-107764822D01*
X357661648Y-107811832D01*
X357634273Y-107843424D01*
X357543548Y-108042086D01*
X357543547Y-108042092D01*
X357520276Y-108203938D01*
X357520276Y-108458000D01*
X358649000Y-108458001D01*
X358717121Y-108478003D01*
X358763614Y-108531659D01*
X358775000Y-108584001D01*
X358774999Y-108840000D01*
X358754997Y-108908121D01*
X358701341Y-108954614D01*
X358648999Y-108966000D01*
X357493975Y-108965999D01*
X357489600Y-108968388D01*
X357418785Y-108963323D01*
X357373722Y-108934362D01*
X356512517Y-108073157D01*
X356475612Y-107984062D01*
X356475612Y-107857343D01*
X356475611Y-107857319D01*
X356475611Y-107811934D01*
X356463042Y-107773252D01*
X356458427Y-107754027D01*
X356452061Y-107713837D01*
X356433590Y-107677585D01*
X356426024Y-107659320D01*
X356413453Y-107620631D01*
X356389542Y-107587720D01*
X356379211Y-107570863D01*
X356360741Y-107534613D01*
X356330433Y-107504307D01*
X356330420Y-107504292D01*
X356063731Y-107237604D01*
X356026826Y-107148508D01*
X356026826Y-106608360D01*
X355965297Y-106325513D01*
X355963898Y-106323336D01*
X355962686Y-106319209D01*
X355960983Y-106315097D01*
X355961425Y-106314914D01*
X355943898Y-106255215D01*
X355963902Y-106187095D01*
X356017559Y-106140603D01*
X356069898Y-106129218D01*
X356190820Y-106129218D01*
X356311389Y-106096912D01*
X356382366Y-106098602D01*
G37*
G04 #@! TD.AperFunction*
G04 #@! TA.AperFunction,NonConductor*
G36*
X337420534Y-104896593D02*
G01*
X337477369Y-104939140D01*
X337502501Y-105014649D01*
X337502500Y-106836828D01*
X337465595Y-106925923D01*
X335514533Y-108876986D01*
X335514519Y-108876999D01*
X333656506Y-110735014D01*
X333594193Y-110769039D01*
X333523378Y-110763975D01*
X333466542Y-110721428D01*
X333441731Y-110654908D01*
X333445703Y-110613308D01*
X333489250Y-110450788D01*
X333489250Y-110211712D01*
X333427371Y-109980777D01*
X333427368Y-109980771D01*
X333307833Y-109773729D01*
X333307826Y-109773719D01*
X333138781Y-109604674D01*
X333138771Y-109604667D01*
X332931729Y-109485132D01*
X332931723Y-109485129D01*
X332700788Y-109423250D01*
X332461712Y-109423250D01*
X332230777Y-109485129D01*
X332230770Y-109485132D01*
X332089624Y-109566622D01*
X332020628Y-109583360D01*
X331953536Y-109560139D01*
X331903503Y-109484286D01*
X331882433Y-109387427D01*
X331763379Y-109202176D01*
X331596957Y-109057970D01*
X331596957Y-109057969D01*
X331396647Y-108966492D01*
X331233440Y-108943026D01*
X330431447Y-108943026D01*
X330363326Y-108923024D01*
X330316833Y-108869368D01*
X330306729Y-108799094D01*
X330317159Y-108763976D01*
X330366343Y-108658017D01*
X330426016Y-108442845D01*
X330426018Y-108442830D01*
X330445500Y-108236732D01*
X330445500Y-107941500D01*
X329289309Y-107941499D01*
X329289307Y-107941500D01*
X328959500Y-107941499D01*
X328891379Y-107921497D01*
X328844886Y-107867841D01*
X328833500Y-107815499D01*
X328833500Y-107433500D01*
X329341499Y-107433500D01*
X330445500Y-107433501D01*
X330445500Y-107130883D01*
X330431858Y-106964946D01*
X330377456Y-106748368D01*
X330377455Y-106748364D01*
X330288411Y-106543576D01*
X330288412Y-106543576D01*
X330167118Y-106356085D01*
X330016826Y-106190918D01*
X329841581Y-106052517D01*
X329646080Y-105944595D01*
X329435582Y-105870054D01*
X329341500Y-105853297D01*
X329341499Y-107433500D01*
X328833500Y-107433500D01*
X328833501Y-105852487D01*
X328771711Y-105861942D01*
X328771709Y-105861943D01*
X328559461Y-105931315D01*
X328559441Y-105931323D01*
X328361376Y-106034429D01*
X328182799Y-106168510D01*
X328182795Y-106168513D01*
X328028524Y-106329950D01*
X328028518Y-106329957D01*
X327976835Y-106405721D01*
X327921923Y-106450723D01*
X327851399Y-106458894D01*
X327787652Y-106427640D01*
X327751040Y-106367327D01*
X327734227Y-106304581D01*
X327619074Y-106167346D01*
X327463926Y-106077771D01*
X327287499Y-106046663D01*
X326787501Y-106046663D01*
X326695415Y-106071337D01*
X326640924Y-106073716D01*
X326487498Y-106046663D01*
X325987501Y-106046663D01*
X325895415Y-106071337D01*
X325840924Y-106073716D01*
X325687498Y-106046663D01*
X325187501Y-106046663D01*
X325095415Y-106071337D01*
X325040924Y-106073716D01*
X324887498Y-106046663D01*
X324387501Y-106046663D01*
X324295415Y-106071337D01*
X324240925Y-106073716D01*
X324087500Y-106046663D01*
X324087500Y-106092328D01*
X324067498Y-106160449D01*
X324042490Y-106188850D01*
X323992347Y-106230924D01*
X323902771Y-106386074D01*
X323871663Y-106562501D01*
X323871663Y-108812498D01*
X323940773Y-109070420D01*
X324058021Y-109210151D01*
X324087499Y-109291142D01*
X324087499Y-109328337D01*
X324179585Y-109303663D01*
X324234076Y-109301284D01*
X324387502Y-109328337D01*
X324676501Y-109328337D01*
X324744622Y-109348339D01*
X324791115Y-109401995D01*
X324802501Y-109454337D01*
X324802501Y-110325350D01*
X324815072Y-110364038D01*
X324819688Y-110383266D01*
X324826052Y-110423448D01*
X324844518Y-110459688D01*
X324852087Y-110477960D01*
X324864659Y-110516653D01*
X324864659Y-110516654D01*
X324888575Y-110549572D01*
X324898904Y-110566427D01*
X324917374Y-110602675D01*
X324953150Y-110638450D01*
X324953152Y-110638451D01*
X326494603Y-112179905D01*
X326528628Y-112242217D01*
X326523563Y-112313033D01*
X326481016Y-112369868D01*
X326405507Y-112395000D01*
X318214176Y-112395000D01*
X318125081Y-112358095D01*
X314392422Y-108625437D01*
X314358396Y-108563125D01*
X314363461Y-108492310D01*
X314418516Y-108427223D01*
X314590425Y-108327969D01*
X314590426Y-108327968D01*
X314736173Y-108196738D01*
X314851451Y-108038071D01*
X314851451Y-108038070D01*
X314931223Y-107858901D01*
X314972000Y-107667058D01*
X314972000Y-107587075D01*
X314992002Y-107518954D01*
X315045658Y-107472461D01*
X315115932Y-107462357D01*
X315187095Y-107497980D01*
X318103581Y-110414467D01*
X318137184Y-110482608D01*
X318137709Y-110482467D01*
X318138416Y-110485105D01*
X318139408Y-110487117D01*
X318139846Y-110490441D01*
X318201725Y-110721377D01*
X318201728Y-110721383D01*
X318321263Y-110928425D01*
X318321270Y-110928435D01*
X318490315Y-111097480D01*
X318490325Y-111097487D01*
X318697367Y-111217022D01*
X318697373Y-111217025D01*
X318928308Y-111278904D01*
X319167384Y-111278904D01*
X319398319Y-111217025D01*
X319398325Y-111217022D01*
X319605367Y-111097487D01*
X319605377Y-111097480D01*
X319774422Y-110928435D01*
X319774429Y-110928425D01*
X319893964Y-110721383D01*
X319893967Y-110721377D01*
X319955846Y-110490442D01*
X319955846Y-110251366D01*
X319893967Y-110020431D01*
X319893964Y-110020425D01*
X319774429Y-109813383D01*
X319774422Y-109813373D01*
X319605377Y-109644328D01*
X319605367Y-109644321D01*
X319398325Y-109524786D01*
X319398319Y-109524783D01*
X319389848Y-109522513D01*
X322041499Y-109522513D01*
X322103289Y-109513058D01*
X322103291Y-109513057D01*
X322315539Y-109443685D01*
X322315559Y-109443677D01*
X322513623Y-109340571D01*
X322513624Y-109340571D01*
X322692196Y-109206495D01*
X322692204Y-109206488D01*
X322846476Y-109045051D01*
X322846482Y-109045044D01*
X322898165Y-108969280D01*
X322953077Y-108924278D01*
X323023601Y-108916107D01*
X323087348Y-108947361D01*
X323123960Y-109007674D01*
X323140773Y-109070420D01*
X323255926Y-109207654D01*
X323411074Y-109297228D01*
X323587500Y-109328337D01*
X323587500Y-109328336D01*
X323587501Y-107937500D01*
X323138967Y-107937499D01*
X323129308Y-107941500D01*
X322041500Y-107941499D01*
X322041499Y-109522513D01*
X319389848Y-109522513D01*
X319167383Y-109462904D01*
X319164059Y-109462466D01*
X319162047Y-109461474D01*
X319159409Y-109460767D01*
X319159550Y-109460242D01*
X319091409Y-109426639D01*
X317908887Y-108244117D01*
X320429500Y-108244117D01*
X320443142Y-108410054D01*
X320497544Y-108626632D01*
X320497545Y-108626636D01*
X320586589Y-108831424D01*
X320707882Y-109018915D01*
X320858174Y-109184082D01*
X321033419Y-109322483D01*
X321228920Y-109430405D01*
X321439418Y-109504946D01*
X321533500Y-109521703D01*
X321533501Y-107941500D01*
X320429500Y-107941499D01*
X320429500Y-108244117D01*
X317908887Y-108244117D01*
X316803039Y-107138269D01*
X320429500Y-107138269D01*
X320429500Y-107433500D01*
X321533500Y-107433501D01*
X321533500Y-107433500D01*
X322041499Y-107433500D01*
X323129310Y-107433501D01*
X323138964Y-107437500D01*
X323587500Y-107437501D01*
X323587501Y-106046663D01*
X323329581Y-106115773D01*
X323192346Y-106230926D01*
X323103798Y-106384295D01*
X323052415Y-106433288D01*
X322982702Y-106446724D01*
X322916791Y-106420338D01*
X322888886Y-106389734D01*
X322867117Y-106356083D01*
X322716826Y-106190918D01*
X322541581Y-106052517D01*
X322346080Y-105944595D01*
X322135582Y-105870054D01*
X322041500Y-105853297D01*
X322041499Y-107433500D01*
X321533500Y-107433500D01*
X321533501Y-105852487D01*
X321471711Y-105861942D01*
X321471709Y-105861943D01*
X321259461Y-105931315D01*
X321259441Y-105931323D01*
X321061376Y-106034429D01*
X320882799Y-106168510D01*
X320882795Y-106168513D01*
X320728524Y-106329950D01*
X320728518Y-106329957D01*
X320602677Y-106514432D01*
X320508657Y-106716984D01*
X320448984Y-106932156D01*
X320448982Y-106932171D01*
X320429500Y-107138269D01*
X316803039Y-107138269D01*
X315416864Y-105752095D01*
X315382838Y-105689783D01*
X315387903Y-105618968D01*
X315430450Y-105562132D01*
X315505959Y-105537000D01*
X336468101Y-105537000D01*
X336468125Y-105536999D01*
X336513508Y-105536999D01*
X336552190Y-105524430D01*
X336571418Y-105519814D01*
X336611605Y-105513449D01*
X336647857Y-105494978D01*
X336666125Y-105487412D01*
X336704808Y-105474844D01*
X336704810Y-105474842D01*
X336737719Y-105450932D01*
X336754578Y-105440600D01*
X336790832Y-105422128D01*
X336940236Y-105272724D01*
X336940249Y-105272709D01*
X337287406Y-104925553D01*
X337349718Y-104891528D01*
X337420534Y-104896593D01*
G37*
G04 #@! TD.AperFunction*
G04 #@! TA.AperFunction,NonConductor*
G36*
X320441304Y-102128002D02*
G01*
X320487797Y-102181658D01*
X320494600Y-102267672D01*
X320448984Y-102432156D01*
X320448982Y-102432171D01*
X320429500Y-102638269D01*
X320429500Y-102933500D01*
X321585691Y-102933501D01*
X321585693Y-102933500D01*
X323145500Y-102933501D01*
X323145500Y-102630883D01*
X323131858Y-102464946D01*
X323081557Y-102264696D01*
X323084361Y-102193755D01*
X323125073Y-102135591D01*
X323203761Y-102108000D01*
X327673183Y-102108000D01*
X327741304Y-102128002D01*
X327787797Y-102181658D01*
X327794600Y-102267672D01*
X327748984Y-102432156D01*
X327748982Y-102432171D01*
X327729500Y-102638269D01*
X327729500Y-102933500D01*
X328885691Y-102933501D01*
X328885693Y-102933500D01*
X330445500Y-102933501D01*
X330445500Y-102630883D01*
X330431858Y-102464946D01*
X330381557Y-102264696D01*
X330384361Y-102193755D01*
X330425073Y-102135591D01*
X330503761Y-102108000D01*
X336826575Y-102108000D01*
X336894696Y-102128002D01*
X336941189Y-102181658D01*
X336951293Y-102251932D01*
X336915670Y-102323095D01*
X336859864Y-102378901D01*
X336841394Y-102415149D01*
X336831065Y-102432004D01*
X336807149Y-102464922D01*
X336807149Y-102464923D01*
X336794577Y-102503616D01*
X336787008Y-102521888D01*
X336768542Y-102558128D01*
X336762178Y-102598310D01*
X336757562Y-102617538D01*
X336744991Y-102656226D01*
X336744991Y-102706826D01*
X336744990Y-103619728D01*
X336708086Y-103708823D01*
X336186815Y-104230095D01*
X336097719Y-104267000D01*
X330501818Y-104267000D01*
X330433697Y-104246998D01*
X330387204Y-104193342D01*
X330380400Y-104107328D01*
X330426018Y-103942835D01*
X330426018Y-103942830D01*
X330445500Y-103736732D01*
X330445500Y-103441500D01*
X329289309Y-103441499D01*
X329289307Y-103441500D01*
X327729500Y-103441499D01*
X327729500Y-103744117D01*
X327743142Y-103910054D01*
X327793443Y-104110304D01*
X327790639Y-104181245D01*
X327749927Y-104239409D01*
X327671239Y-104267000D01*
X323201818Y-104267000D01*
X323133697Y-104246998D01*
X323087204Y-104193342D01*
X323080400Y-104107328D01*
X323126018Y-103942835D01*
X323126018Y-103942830D01*
X323145500Y-103736732D01*
X323145500Y-103441500D01*
X321989309Y-103441499D01*
X321989307Y-103441500D01*
X320429500Y-103441499D01*
X320429500Y-103744117D01*
X320443142Y-103910054D01*
X320493443Y-104110304D01*
X320490639Y-104181245D01*
X320449927Y-104239409D01*
X320371239Y-104267000D01*
X312537871Y-104267000D01*
X312537847Y-104267001D01*
X312492463Y-104267001D01*
X312453782Y-104279569D01*
X312434557Y-104284185D01*
X312394369Y-104290550D01*
X312358120Y-104309020D01*
X312339854Y-104316586D01*
X312301159Y-104329159D01*
X312301155Y-104329161D01*
X312268244Y-104353073D01*
X312251384Y-104363405D01*
X312215140Y-104381872D01*
X312179363Y-104417650D01*
X312179362Y-104417651D01*
X310909104Y-105687910D01*
X310766873Y-105830140D01*
X310748403Y-105866388D01*
X310738074Y-105883243D01*
X310714158Y-105916161D01*
X310714158Y-105916162D01*
X310701586Y-105954855D01*
X310694017Y-105973127D01*
X310675551Y-106009367D01*
X310669187Y-106049549D01*
X310664571Y-106068777D01*
X310652000Y-106107465D01*
X310652000Y-106158065D01*
X310651999Y-107551165D01*
X310652000Y-107551189D01*
X310652000Y-107596573D01*
X310664568Y-107635254D01*
X310669184Y-107654479D01*
X310675549Y-107694667D01*
X310694019Y-107730916D01*
X310701585Y-107749182D01*
X310714158Y-107787877D01*
X310714160Y-107787881D01*
X310738072Y-107820792D01*
X310748404Y-107837652D01*
X310766870Y-107873894D01*
X310839870Y-107946895D01*
X310982106Y-108089131D01*
X311018355Y-108107600D01*
X311035215Y-108117932D01*
X311068124Y-108141842D01*
X311079356Y-108145492D01*
X311137961Y-108185566D01*
X311162125Y-108232712D01*
X311167272Y-108251918D01*
X311167272Y-108251919D01*
X311282426Y-108389154D01*
X311437574Y-108478729D01*
X311614001Y-108509837D01*
X312428582Y-108509837D01*
X312517676Y-108546740D01*
X312554650Y-108583713D01*
X312554651Y-108583715D01*
X316627089Y-112656155D01*
X316661115Y-112718467D01*
X316656050Y-112789283D01*
X316613503Y-112846118D01*
X316537994Y-112871250D01*
X289051000Y-112871250D01*
X288982879Y-112851248D01*
X288936386Y-112797592D01*
X288925000Y-112745250D01*
X288925000Y-107218001D01*
X297109163Y-107218001D01*
X297109163Y-108317998D01*
X297178273Y-108575920D01*
X297293426Y-108713154D01*
X297448574Y-108802729D01*
X297625001Y-108833837D01*
X299424998Y-108833837D01*
X299682920Y-108764727D01*
X299820154Y-108649574D01*
X299909727Y-108494428D01*
X299912830Y-108485904D01*
X299954925Y-108428733D01*
X300031231Y-108403000D01*
X301080167Y-108403000D01*
X301080191Y-108402999D01*
X301125574Y-108402999D01*
X301164256Y-108390430D01*
X301183484Y-108385814D01*
X301223671Y-108379449D01*
X301259923Y-108360978D01*
X301278191Y-108353412D01*
X301316874Y-108340844D01*
X301316876Y-108340842D01*
X301349785Y-108316932D01*
X301366644Y-108306600D01*
X301402898Y-108288128D01*
X301552306Y-108138720D01*
X301552317Y-108138707D01*
X302473023Y-107218001D01*
X303309163Y-107218001D01*
X303309163Y-108317998D01*
X303378273Y-108575920D01*
X303493426Y-108713154D01*
X303648574Y-108802729D01*
X303821779Y-108833269D01*
X303885392Y-108864796D01*
X303921861Y-108925710D01*
X303921607Y-108989966D01*
X303892000Y-109100462D01*
X303892000Y-109339538D01*
X303953879Y-109570473D01*
X303953882Y-109570479D01*
X304073417Y-109777521D01*
X304073424Y-109777531D01*
X304242469Y-109946576D01*
X304242479Y-109946583D01*
X304449521Y-110066118D01*
X304449527Y-110066121D01*
X304680462Y-110128000D01*
X304919538Y-110128000D01*
X305150473Y-110066121D01*
X305150479Y-110066118D01*
X305357521Y-109946583D01*
X305357531Y-109946576D01*
X305526576Y-109777531D01*
X305526583Y-109777521D01*
X305646118Y-109570479D01*
X305646121Y-109570473D01*
X305708000Y-109339538D01*
X305708000Y-109100462D01*
X305668395Y-108952654D01*
X305670085Y-108881678D01*
X305709879Y-108822882D01*
X305757491Y-108798336D01*
X305882920Y-108764727D01*
X306020154Y-108649574D01*
X306109729Y-108494426D01*
X306109728Y-108494426D01*
X306140837Y-108317999D01*
X306140837Y-107218002D01*
X306071727Y-106960081D01*
X305956574Y-106822846D01*
X305801426Y-106733271D01*
X305624999Y-106702163D01*
X303825002Y-106702163D01*
X303567081Y-106771273D01*
X303429846Y-106886426D01*
X303340271Y-107041574D01*
X303309163Y-107218001D01*
X302473023Y-107218001D01*
X304520283Y-105170742D01*
X304609378Y-105133837D01*
X305624998Y-105133837D01*
X305882920Y-105064727D01*
X306020154Y-104949574D01*
X306109729Y-104794426D01*
X306109728Y-104794426D01*
X306140837Y-104617999D01*
X306140837Y-103518002D01*
X306071727Y-103260081D01*
X305956574Y-103122846D01*
X305801426Y-103033271D01*
X305624999Y-103002163D01*
X303825002Y-103002163D01*
X303567081Y-103071273D01*
X303429846Y-103186426D01*
X303340271Y-103341574D01*
X303309163Y-103518001D01*
X303309163Y-104533622D01*
X303272258Y-104622717D01*
X300798881Y-107096095D01*
X300709786Y-107133000D01*
X300014744Y-107133000D01*
X299946623Y-107112998D01*
X299893037Y-107039611D01*
X299871727Y-106960081D01*
X299756574Y-106822846D01*
X299601426Y-106733271D01*
X299424999Y-106702163D01*
X297625002Y-106702163D01*
X297367081Y-106771273D01*
X297229846Y-106886426D01*
X297140271Y-107041574D01*
X297109163Y-107218001D01*
X288925000Y-107218001D01*
X288925000Y-104617998D01*
X297109163Y-104617998D01*
X297178273Y-104875920D01*
X297293426Y-105013154D01*
X297448574Y-105102729D01*
X297625001Y-105133837D01*
X298271000Y-105133837D01*
X298778999Y-105133837D01*
X299424998Y-105133837D01*
X299682920Y-105064727D01*
X299820154Y-104949574D01*
X299909729Y-104794426D01*
X299909728Y-104794426D01*
X299940837Y-104617999D01*
X299940837Y-104322000D01*
X298779000Y-104321999D01*
X298778999Y-105133837D01*
X298271000Y-105133837D01*
X298271001Y-104322000D01*
X297109163Y-104321999D01*
X297109163Y-104617998D01*
X288925000Y-104617998D01*
X288925000Y-103518001D01*
X297109163Y-103518001D01*
X297109163Y-103814000D01*
X298271000Y-103814001D01*
X298271000Y-103814000D01*
X298778999Y-103814000D01*
X299940837Y-103814001D01*
X299940837Y-103518002D01*
X299871727Y-103260081D01*
X299756574Y-103122846D01*
X299601426Y-103033271D01*
X299424999Y-103002163D01*
X298779000Y-103002163D01*
X298778999Y-103814000D01*
X298271000Y-103814000D01*
X298271001Y-103002163D01*
X297625002Y-103002163D01*
X297367081Y-103071273D01*
X297229846Y-103186426D01*
X297140271Y-103341574D01*
X297109163Y-103518001D01*
X288925000Y-103518001D01*
X288925000Y-102234000D01*
X288945002Y-102165879D01*
X288998658Y-102119386D01*
X289051000Y-102108000D01*
X320373183Y-102108000D01*
X320441304Y-102128002D01*
G37*
G04 #@! TD.AperFunction*
G04 #@! TA.AperFunction,NonConductor*
G36*
X357413897Y-103842502D02*
G01*
X357460390Y-103896158D01*
X357471776Y-103948500D01*
X357471776Y-104140000D01*
X358600500Y-104140001D01*
X358668621Y-104160003D01*
X358715114Y-104213659D01*
X358726500Y-104266001D01*
X358726499Y-104522000D01*
X358706497Y-104590121D01*
X358652841Y-104636614D01*
X358600499Y-104648000D01*
X357471776Y-104647999D01*
X357471776Y-104660010D01*
X357451774Y-104728131D01*
X357398118Y-104774624D01*
X357345776Y-104786010D01*
X356941229Y-104786010D01*
X356873108Y-104766008D01*
X356832110Y-104723010D01*
X356797865Y-104663697D01*
X356797858Y-104663687D01*
X356628813Y-104494642D01*
X356628803Y-104494635D01*
X356421761Y-104375100D01*
X356421755Y-104375097D01*
X356190820Y-104313218D01*
X355951744Y-104313218D01*
X355720809Y-104375097D01*
X355720803Y-104375100D01*
X355513761Y-104494635D01*
X355513751Y-104494642D01*
X355344706Y-104663687D01*
X355344699Y-104663697D01*
X355225164Y-104870739D01*
X355225161Y-104870745D01*
X355163282Y-105101680D01*
X355163282Y-105340756D01*
X355225161Y-105571691D01*
X355225164Y-105571698D01*
X355296800Y-105695776D01*
X355313538Y-105764772D01*
X355290317Y-105831864D01*
X355234510Y-105875751D01*
X355187681Y-105884776D01*
X354323962Y-105884776D01*
X354041115Y-105946305D01*
X353867900Y-106057624D01*
X353799779Y-106077626D01*
X353731658Y-106057624D01*
X353703257Y-106032617D01*
X353624574Y-105938846D01*
X353469426Y-105849271D01*
X353292999Y-105818163D01*
X351893002Y-105818163D01*
X351635081Y-105887273D01*
X351580087Y-105933418D01*
X351515046Y-105961882D01*
X351437199Y-105939027D01*
X351434121Y-105944358D01*
X351269426Y-105849271D01*
X351092999Y-105818163D01*
X350647000Y-105818163D01*
X350647000Y-107062000D01*
X350626998Y-107130121D01*
X350573342Y-107176614D01*
X350521000Y-107188000D01*
X349271000Y-107188000D01*
X349202879Y-107167998D01*
X349183349Y-107145460D01*
X349181905Y-107146904D01*
X349145001Y-107110000D01*
X348476809Y-107109999D01*
X348476807Y-107110000D01*
X347061776Y-107109999D01*
X347061776Y-107133140D01*
X347123305Y-107415987D01*
X347241378Y-107599711D01*
X347352659Y-107696138D01*
X347391042Y-107755865D01*
X347391042Y-107826861D01*
X347338267Y-107897360D01*
X347318789Y-107909878D01*
X347175772Y-108074926D01*
X347085048Y-108273586D01*
X347085047Y-108273592D01*
X347061776Y-108435438D01*
X347061776Y-109008140D01*
X347123305Y-109290987D01*
X347241378Y-109474711D01*
X347406426Y-109617728D01*
X347605086Y-109708452D01*
X347605092Y-109708453D01*
X347766938Y-109731724D01*
X348764640Y-109731724D01*
X349047487Y-109670195D01*
X349180484Y-109584723D01*
X349248605Y-109564721D01*
X349316726Y-109584723D01*
X349345126Y-109609729D01*
X349361425Y-109629153D01*
X349516574Y-109718729D01*
X349693001Y-109749837D01*
X350558623Y-109749837D01*
X350647718Y-109786742D01*
X352363871Y-111502896D01*
X352506102Y-111645128D01*
X352542346Y-111663595D01*
X352559206Y-111673927D01*
X352592117Y-111697839D01*
X352592121Y-111697841D01*
X352630816Y-111710414D01*
X352649082Y-111717980D01*
X352685331Y-111736450D01*
X352725519Y-111742815D01*
X352744744Y-111747431D01*
X352783425Y-111759999D01*
X352828809Y-111759999D01*
X352828833Y-111760000D01*
X360558784Y-111760000D01*
X360626905Y-111780002D01*
X360673398Y-111833658D01*
X360683502Y-111903932D01*
X360647879Y-111975095D01*
X355238871Y-117384105D01*
X355149776Y-117421010D01*
X347585205Y-117421010D01*
X347517084Y-117401008D01*
X347470591Y-117347352D01*
X347460487Y-117277078D01*
X347496110Y-117205915D01*
X348695121Y-116006905D01*
X348784216Y-115970000D01*
X348861538Y-115970000D01*
X349092473Y-115908121D01*
X349092479Y-115908118D01*
X349299521Y-115788583D01*
X349299531Y-115788576D01*
X349468576Y-115619531D01*
X349468583Y-115619521D01*
X349588118Y-115412479D01*
X349588121Y-115412473D01*
X349650000Y-115181538D01*
X349650000Y-114942462D01*
X349588121Y-114711527D01*
X349588118Y-114711521D01*
X349468583Y-114504479D01*
X349468576Y-114504469D01*
X349299531Y-114335424D01*
X349299521Y-114335417D01*
X349092480Y-114215881D01*
X348952675Y-114178420D01*
X348892053Y-114141468D01*
X348863580Y-114089325D01*
X348826119Y-113949520D01*
X348706583Y-113742479D01*
X348706576Y-113742469D01*
X348537531Y-113573424D01*
X348537521Y-113573417D01*
X348330480Y-113453881D01*
X348188077Y-113415724D01*
X348127455Y-113378772D01*
X348098982Y-113326629D01*
X348064119Y-113196520D01*
X347944583Y-112989479D01*
X347944576Y-112989469D01*
X347775531Y-112820424D01*
X347775521Y-112820417D01*
X347568479Y-112700882D01*
X347568467Y-112700877D01*
X347425123Y-112662467D01*
X347364501Y-112625516D01*
X347336029Y-112573373D01*
X347308204Y-112469533D01*
X347308199Y-112469521D01*
X347188664Y-112262479D01*
X347188657Y-112262469D01*
X347019612Y-112093424D01*
X347019602Y-112093417D01*
X346812554Y-111973878D01*
X346702541Y-111944399D01*
X346641918Y-111907447D01*
X346613447Y-111855305D01*
X346583227Y-111742527D01*
X346463688Y-111535479D01*
X346463681Y-111535469D01*
X346294636Y-111366424D01*
X346294626Y-111366417D01*
X346087585Y-111246881D01*
X345977767Y-111217455D01*
X345917145Y-111180503D01*
X345888673Y-111128360D01*
X345858440Y-111015533D01*
X345858435Y-111015521D01*
X345738900Y-110808479D01*
X345738893Y-110808469D01*
X345569848Y-110639424D01*
X345569838Y-110639417D01*
X345362796Y-110519882D01*
X345362784Y-110519877D01*
X345253465Y-110490584D01*
X345192843Y-110453633D01*
X345164371Y-110401490D01*
X345134103Y-110288533D01*
X345134098Y-110288521D01*
X345014563Y-110081479D01*
X345014556Y-110081469D01*
X344845511Y-109912424D01*
X344845501Y-109912417D01*
X344638459Y-109792882D01*
X344638447Y-109792877D01*
X344530394Y-109763923D01*
X344469771Y-109726971D01*
X344441300Y-109674829D01*
X344410941Y-109561533D01*
X344410936Y-109561521D01*
X344291401Y-109354479D01*
X344291394Y-109354469D01*
X344122349Y-109185424D01*
X344122339Y-109185417D01*
X343915291Y-109065878D01*
X343810950Y-109037919D01*
X343750327Y-109000967D01*
X343721855Y-108948824D01*
X343691229Y-108834527D01*
X343691226Y-108834521D01*
X343571691Y-108627479D01*
X343571684Y-108627469D01*
X343402639Y-108458424D01*
X343402629Y-108458417D01*
X343195582Y-108338878D01*
X343104817Y-108314557D01*
X343044195Y-108277605D01*
X343015724Y-108225463D01*
X342984122Y-108107527D01*
X342935326Y-108023010D01*
X342918588Y-107954015D01*
X342941808Y-107886923D01*
X342997615Y-107843036D01*
X343044445Y-107834010D01*
X343960157Y-107834010D01*
X343960181Y-107834009D01*
X344005564Y-107834009D01*
X344044246Y-107821440D01*
X344063474Y-107816824D01*
X344103661Y-107810459D01*
X344139913Y-107791988D01*
X344158181Y-107784422D01*
X344196864Y-107771854D01*
X344196866Y-107771852D01*
X344229775Y-107747942D01*
X344246634Y-107737610D01*
X344282888Y-107719138D01*
X344432290Y-107569736D01*
X344432307Y-107569716D01*
X345393120Y-106608904D01*
X345482215Y-106572000D01*
X345559538Y-106572000D01*
X345602687Y-106560438D01*
X347061776Y-106560438D01*
X347061776Y-106602000D01*
X348021000Y-106602001D01*
X348021000Y-106602000D01*
X348528999Y-106602000D01*
X349397000Y-106602001D01*
X349465121Y-106622003D01*
X349484650Y-106644541D01*
X349486095Y-106643096D01*
X349522999Y-106680000D01*
X350139000Y-106680000D01*
X350139000Y-105818163D01*
X349693002Y-105818163D01*
X349435081Y-105887273D01*
X349321213Y-105982819D01*
X349256172Y-106011283D01*
X349157708Y-105981520D01*
X349143574Y-105969272D01*
X348944914Y-105878548D01*
X348944908Y-105878547D01*
X348783062Y-105855276D01*
X348529000Y-105855276D01*
X348528999Y-106602000D01*
X348021000Y-106602000D01*
X348021001Y-105855276D01*
X347785360Y-105855276D01*
X347502513Y-105916805D01*
X347318789Y-106034878D01*
X347175772Y-106199926D01*
X347085048Y-106398586D01*
X347085047Y-106398592D01*
X347061776Y-106560438D01*
X345602687Y-106560438D01*
X345790473Y-106510121D01*
X345790479Y-106510118D01*
X345997521Y-106390583D01*
X345997531Y-106390576D01*
X346166576Y-106221531D01*
X346166583Y-106221521D01*
X346286118Y-106014479D01*
X346286121Y-106014473D01*
X346348000Y-105783538D01*
X346348000Y-105544462D01*
X346286121Y-105313527D01*
X346286118Y-105313521D01*
X346166583Y-105106479D01*
X346166576Y-105106469D01*
X345997531Y-104937424D01*
X345997521Y-104937417D01*
X345790479Y-104817882D01*
X345790473Y-104817879D01*
X345559538Y-104756000D01*
X345422964Y-104756000D01*
X345354843Y-104735998D01*
X345308350Y-104682342D01*
X345298246Y-104612068D01*
X345333869Y-104540904D01*
X346015370Y-103859404D01*
X346104465Y-103822500D01*
X357345776Y-103822500D01*
X357413897Y-103842502D01*
G37*
G04 #@! TD.AperFunction*
G04 #@! TA.AperFunction,NonConductor*
G36*
X382536316Y-102110714D02*
G01*
X382536371Y-102110373D01*
X382540990Y-102111113D01*
X382547041Y-102111626D01*
X382745418Y-102127240D01*
X382764944Y-102130333D01*
X382909338Y-102164998D01*
X382928143Y-102171108D01*
X383065331Y-102227933D01*
X383082948Y-102236910D01*
X383209552Y-102314494D01*
X383225547Y-102326114D01*
X383338466Y-102422555D01*
X383352447Y-102436537D01*
X383448880Y-102549446D01*
X383460502Y-102565441D01*
X383538092Y-102692056D01*
X383547068Y-102709673D01*
X383603894Y-102846863D01*
X383610003Y-102865666D01*
X383644666Y-103010043D01*
X383647760Y-103029572D01*
X383663358Y-103227766D01*
X383663360Y-103227778D01*
X383663942Y-103230372D01*
X383667000Y-103257961D01*
X383667000Y-122111500D01*
X383646998Y-122179621D01*
X383593342Y-122226114D01*
X383541000Y-122237500D01*
X372261000Y-122237500D01*
X372192879Y-122217498D01*
X372146386Y-122163842D01*
X372135000Y-122111500D01*
X372135000Y-121849626D01*
X372155002Y-121781505D01*
X372208658Y-121735012D01*
X372278932Y-121724908D01*
X372313342Y-121735012D01*
X372392586Y-121771202D01*
X372392592Y-121771203D01*
X372554438Y-121794474D01*
X372808500Y-121794474D01*
X373316499Y-121794474D01*
X373552140Y-121794474D01*
X373834987Y-121732945D01*
X374018711Y-121614872D01*
X374161728Y-121449824D01*
X374252452Y-121251164D01*
X374252453Y-121251158D01*
X374275724Y-121089312D01*
X374275724Y-121047750D01*
X373316500Y-121047749D01*
X373316499Y-121794474D01*
X372808500Y-121794474D01*
X372808501Y-120995559D01*
X372808500Y-120995557D01*
X372808501Y-120665750D01*
X372828503Y-120597629D01*
X372882159Y-120551136D01*
X372934501Y-120539750D01*
X374275724Y-120539751D01*
X374275724Y-120516610D01*
X374214195Y-120233763D01*
X374096122Y-120050039D01*
X373984841Y-119953612D01*
X373946458Y-119893885D01*
X373946458Y-119822889D01*
X373999233Y-119752390D01*
X374018711Y-119739872D01*
X374161728Y-119574824D01*
X374252452Y-119376164D01*
X374252453Y-119376158D01*
X374275724Y-119214312D01*
X374275724Y-118641610D01*
X374214195Y-118358763D01*
X374096122Y-118175039D01*
X373931074Y-118032022D01*
X373732414Y-117941298D01*
X373732408Y-117941297D01*
X373570562Y-117918026D01*
X373179038Y-117918026D01*
X373110917Y-117898024D01*
X373064424Y-117844368D01*
X373061191Y-117762879D01*
X373057814Y-117762284D01*
X373090837Y-117574999D01*
X373090837Y-116075001D01*
X373089370Y-116069526D01*
X373091062Y-115998550D01*
X373130858Y-115939755D01*
X373196123Y-115911809D01*
X373232956Y-115912832D01*
X373250000Y-115915837D01*
X373638320Y-115915837D01*
X373727415Y-115952742D01*
X374090769Y-116316096D01*
X374108237Y-116337958D01*
X374112597Y-116344868D01*
X374112597Y-116344869D01*
X374169104Y-116394773D01*
X374174795Y-116400122D01*
X374191541Y-116416869D01*
X374191546Y-116416873D01*
X374204556Y-116426624D01*
X374212397Y-116433008D01*
X374262565Y-116477315D01*
X374276650Y-116483928D01*
X374298661Y-116497153D01*
X374311111Y-116506483D01*
X374311116Y-116506486D01*
X374373767Y-116529972D01*
X374383088Y-116533899D01*
X374443682Y-116562348D01*
X374457881Y-116564470D01*
X374483484Y-116571103D01*
X374498463Y-116576718D01*
X374576107Y-116582488D01*
X374585397Y-116583527D01*
X374601933Y-116585999D01*
X374601949Y-116586000D01*
X374618672Y-116586000D01*
X374628009Y-116586346D01*
X374697997Y-116591547D01*
X374710977Y-116588776D01*
X374737282Y-116586000D01*
X374806858Y-116586000D01*
X374878802Y-116610422D01*
X374879073Y-116609952D01*
X374881436Y-116611316D01*
X374883562Y-116612038D01*
X374886224Y-116614080D01*
X375093271Y-116733618D01*
X375093277Y-116733621D01*
X375324212Y-116795500D01*
X375563288Y-116795500D01*
X375794223Y-116733621D01*
X375794229Y-116733618D01*
X375837077Y-116708880D01*
X375906072Y-116692142D01*
X375973164Y-116715362D01*
X376006075Y-116749878D01*
X376066378Y-116843711D01*
X376231426Y-116986728D01*
X376430086Y-117077452D01*
X376430092Y-117077453D01*
X376591938Y-117100724D01*
X377164640Y-117100724D01*
X377447487Y-117039195D01*
X377631211Y-116921122D01*
X377727638Y-116809841D01*
X377787365Y-116771458D01*
X377858361Y-116771458D01*
X377928860Y-116824233D01*
X377941378Y-116843711D01*
X378106426Y-116986728D01*
X378305086Y-117077452D01*
X378305092Y-117077453D01*
X378466938Y-117100724D01*
X378508500Y-117100724D01*
X378508500Y-116141500D01*
X379016500Y-116141500D01*
X379016500Y-117100724D01*
X379039640Y-117100724D01*
X379322487Y-117039195D01*
X379506211Y-116921122D01*
X379649228Y-116756074D01*
X379739952Y-116557414D01*
X379739953Y-116557408D01*
X379763224Y-116395562D01*
X379763224Y-116141500D01*
X379016500Y-116141500D01*
X378508500Y-116141500D01*
X378508500Y-114674276D01*
X379016500Y-114674276D01*
X379016500Y-115633500D01*
X379763224Y-115633500D01*
X379763224Y-115397860D01*
X379701695Y-115115013D01*
X379583622Y-114931289D01*
X379418574Y-114788272D01*
X379219914Y-114697548D01*
X379219908Y-114697547D01*
X379058062Y-114674276D01*
X379016500Y-114674276D01*
X378508500Y-114674276D01*
X378485360Y-114674276D01*
X378202513Y-114735805D01*
X378018789Y-114853878D01*
X377922362Y-114965159D01*
X377862635Y-115003542D01*
X377791639Y-115003542D01*
X377721140Y-114950767D01*
X377708622Y-114931289D01*
X377543574Y-114788272D01*
X377344914Y-114697548D01*
X377344908Y-114697547D01*
X377183062Y-114674276D01*
X376610360Y-114674276D01*
X376327513Y-114735805D01*
X376143789Y-114853878D01*
X376000772Y-115018927D01*
X375999308Y-115021205D01*
X375997260Y-115022980D01*
X375994869Y-115025739D01*
X375994473Y-115025395D01*
X375945655Y-115067701D01*
X375875382Y-115077810D01*
X375830305Y-115062210D01*
X375794227Y-115041380D01*
X375563288Y-114979500D01*
X375391837Y-114979500D01*
X375323716Y-114959498D01*
X375277223Y-114905842D01*
X375265837Y-114853500D01*
X375265837Y-114850001D01*
X375246480Y-114777759D01*
X375244101Y-114723268D01*
X375265837Y-114599998D01*
X375265837Y-114579000D01*
X375244506Y-114579000D01*
X375176385Y-114558998D01*
X375147984Y-114533991D01*
X375081574Y-114454846D01*
X375046850Y-114434798D01*
X374997857Y-114383415D01*
X374984421Y-114313702D01*
X375028859Y-114229157D01*
X375145153Y-114131575D01*
X375152239Y-114123130D01*
X375153789Y-114124431D01*
X375195140Y-114085005D01*
X375252873Y-114071000D01*
X375265837Y-114071000D01*
X375265837Y-114050001D01*
X375246480Y-113977759D01*
X375244101Y-113923268D01*
X375265837Y-113799998D01*
X375265837Y-113250001D01*
X375246480Y-113177759D01*
X375244101Y-113123268D01*
X375265837Y-112999998D01*
X375265837Y-112450001D01*
X375246480Y-112377759D01*
X375244101Y-112323268D01*
X375265837Y-112199998D01*
X375265837Y-111650001D01*
X375246480Y-111577759D01*
X375244101Y-111523268D01*
X375265837Y-111399998D01*
X375265837Y-110850001D01*
X375246480Y-110777759D01*
X375244101Y-110723268D01*
X375265837Y-110599998D01*
X375265837Y-110050001D01*
X375246480Y-109977759D01*
X375244101Y-109923268D01*
X375265837Y-109799998D01*
X375265837Y-109250001D01*
X375246480Y-109177759D01*
X375244101Y-109123268D01*
X375265837Y-108999998D01*
X375265837Y-108450001D01*
X375246480Y-108377759D01*
X375244101Y-108323268D01*
X375265837Y-108199998D01*
X375265837Y-108159000D01*
X375285839Y-108090879D01*
X375339495Y-108044386D01*
X375391837Y-108033000D01*
X375532038Y-108033000D01*
X375762973Y-107971121D01*
X375762979Y-107971118D01*
X375977177Y-107847452D01*
X375978028Y-107848926D01*
X376035089Y-107826865D01*
X376059390Y-107828560D01*
X376059460Y-107827689D01*
X376068408Y-107828409D01*
X376143632Y-107823742D01*
X376151434Y-107823500D01*
X376175149Y-107823500D01*
X376191244Y-107821194D01*
X376201311Y-107820163D01*
X376268106Y-107816020D01*
X376268103Y-107816020D01*
X376282737Y-107810737D01*
X376307661Y-107804523D01*
X376323056Y-107802318D01*
X376323062Y-107802316D01*
X376383994Y-107774613D01*
X376393359Y-107770800D01*
X376456299Y-107748078D01*
X376467838Y-107739540D01*
X376490631Y-107726128D01*
X376505199Y-107719504D01*
X376505205Y-107719500D01*
X376564201Y-107668665D01*
X376571504Y-107662830D01*
X376584931Y-107652895D01*
X376584939Y-107652888D01*
X376596744Y-107641083D01*
X376603592Y-107634724D01*
X376636615Y-107606270D01*
X376718862Y-107575724D01*
X377164640Y-107575724D01*
X377447487Y-107514195D01*
X377631211Y-107396122D01*
X377727638Y-107284841D01*
X377787365Y-107246458D01*
X377858361Y-107246458D01*
X377928860Y-107299233D01*
X377941378Y-107318711D01*
X378106426Y-107461728D01*
X378305086Y-107552452D01*
X378305092Y-107552453D01*
X378466938Y-107575724D01*
X378508500Y-107575724D01*
X378508500Y-106616500D01*
X379016500Y-106616500D01*
X379016500Y-107575724D01*
X379039640Y-107575724D01*
X379322487Y-107514195D01*
X379506211Y-107396122D01*
X379649228Y-107231074D01*
X379739952Y-107032414D01*
X379739953Y-107032408D01*
X379763224Y-106870562D01*
X379763224Y-106616500D01*
X379016500Y-106616500D01*
X378508500Y-106616500D01*
X378508500Y-105149276D01*
X379016500Y-105149276D01*
X379016500Y-106108500D01*
X379763224Y-106108500D01*
X379763224Y-105872860D01*
X379701695Y-105590013D01*
X379583622Y-105406289D01*
X379418574Y-105263272D01*
X379219914Y-105172548D01*
X379219908Y-105172547D01*
X379058062Y-105149276D01*
X379016500Y-105149276D01*
X378508500Y-105149276D01*
X378485360Y-105149276D01*
X378202513Y-105210805D01*
X378018789Y-105328878D01*
X377922362Y-105440159D01*
X377862635Y-105478542D01*
X377791639Y-105478542D01*
X377721140Y-105425767D01*
X377708622Y-105406289D01*
X377543574Y-105263272D01*
X377344914Y-105172548D01*
X377344908Y-105172547D01*
X377183062Y-105149276D01*
X376610360Y-105149276D01*
X376327513Y-105210805D01*
X376143789Y-105328878D01*
X376000772Y-105493926D01*
X375910048Y-105692586D01*
X375910047Y-105692592D01*
X375886776Y-105854438D01*
X375886776Y-106147845D01*
X375866774Y-106215966D01*
X375813118Y-106262459D01*
X375728165Y-106269552D01*
X375532038Y-106217000D01*
X375292962Y-106217000D01*
X375062027Y-106278879D01*
X375062020Y-106278882D01*
X374955389Y-106340445D01*
X374870510Y-106355412D01*
X374749999Y-106334163D01*
X373250003Y-106334163D01*
X373246428Y-106335121D01*
X373243292Y-106335046D01*
X373241814Y-106335241D01*
X373241784Y-106335011D01*
X373175451Y-106333433D01*
X373104687Y-106276404D01*
X373103304Y-106274008D01*
X373088344Y-106189143D01*
X373090837Y-106175002D01*
X373090837Y-104678578D01*
X373126000Y-104593688D01*
X373126000Y-103632000D01*
X373634000Y-103632000D01*
X373634000Y-104591224D01*
X373657140Y-104591224D01*
X373939987Y-104529695D01*
X374123711Y-104411622D01*
X374266728Y-104246574D01*
X374357452Y-104047914D01*
X374357453Y-104047908D01*
X374380724Y-103886062D01*
X374380724Y-103632000D01*
X373634000Y-103632000D01*
X373126000Y-103632000D01*
X373126000Y-103250000D01*
X373146002Y-103181879D01*
X373199658Y-103135386D01*
X373252000Y-103124000D01*
X374380724Y-103124000D01*
X374380724Y-102888360D01*
X374319195Y-102605513D01*
X374201122Y-102421789D01*
X374094297Y-102329224D01*
X374055914Y-102269498D01*
X374055914Y-102198501D01*
X374094298Y-102138775D01*
X374176810Y-102108000D01*
X382513126Y-102108000D01*
X382536316Y-102110714D01*
G37*
G04 #@! TD.AperFunction*
G04 #@! TA.AperFunction,NonConductor*
G36*
X363426450Y-115916062D02*
G01*
X363485245Y-115955858D01*
X363513191Y-116021123D01*
X363512168Y-116057956D01*
X363509163Y-116075000D01*
X363509163Y-116571000D01*
X364183163Y-116571001D01*
X364251284Y-116591003D01*
X364297777Y-116644659D01*
X364309163Y-116697001D01*
X364309163Y-116953000D01*
X364289161Y-117021121D01*
X364235505Y-117067614D01*
X364183163Y-117079000D01*
X363509163Y-117078999D01*
X363509163Y-117574998D01*
X363578273Y-117832920D01*
X363693426Y-117970154D01*
X363848574Y-118059728D01*
X364021968Y-118090302D01*
X364085581Y-118121829D01*
X364122050Y-118182743D01*
X364121796Y-118246999D01*
X364074643Y-118422977D01*
X364074643Y-118662053D01*
X364136522Y-118892988D01*
X364136525Y-118892994D01*
X364256060Y-119100036D01*
X364256067Y-119100046D01*
X364425112Y-119269091D01*
X364425122Y-119269098D01*
X364632164Y-119388633D01*
X364632170Y-119388636D01*
X364863105Y-119450515D01*
X365102184Y-119450515D01*
X365106393Y-119449387D01*
X365110081Y-119449475D01*
X365110369Y-119449437D01*
X365110375Y-119449482D01*
X365177369Y-119451079D01*
X365236164Y-119490875D01*
X365265000Y-119571095D01*
X365265000Y-122111500D01*
X365244998Y-122179621D01*
X365191342Y-122226114D01*
X365139000Y-122237500D01*
X362203000Y-122237500D01*
X362134879Y-122217498D01*
X362088386Y-122163842D01*
X362077000Y-122111500D01*
X362077000Y-116393215D01*
X362113905Y-116304119D01*
X362465284Y-115952741D01*
X362554379Y-115915837D01*
X363349998Y-115915837D01*
X363355474Y-115914370D01*
X363426450Y-115916062D01*
G37*
G04 #@! TD.AperFunction*
M02*
