G04 #@! TF.GenerationSoftware,KiCad,Pcbnew,(5.99.0-1615-g0042cd509)*
G04 #@! TF.CreationDate,2020-07-12T13:46:49-05:00*
G04 #@! TF.ProjectId,my-keyboard,6d792d6b-6579-4626-9f61-72642e6b6963,rev?*
G04 #@! TF.SameCoordinates,Original*
G04 #@! TF.FileFunction,Soldermask,Top*
G04 #@! TF.FilePolarity,Negative*
%FSLAX46Y46*%
G04 Gerber Fmt 4.6, Leading zero omitted, Abs format (unit mm)*
G04 Created by KiCad (PCBNEW (5.99.0-1615-g0042cd509)) date 2020-07-12 13:46:49*
%MOMM*%
%LPD*%
G01*
G04 APERTURE LIST*
%ADD10C,4.089800*%
%ADD11C,3.150000*%
%ADD12C,1.852000*%
%ADD13O,0.952000X0.952000*%
%ADD14O,1.802000X2.802000*%
G04 APERTURE END LIST*
D10*
X255587500Y-199707500D03*
X160337500Y-199707500D03*
D11*
X255587500Y-214947500D03*
X160337500Y-214947500D03*
D12*
X222567500Y-207962500D03*
X212407500Y-207962500D03*
D10*
X217487500Y-207962500D03*
G36*
G01*
X57430250Y-116144500D02*
X58393750Y-116144500D01*
G75*
G02*
X58663000Y-116413750I0J-269250D01*
G01*
X58663000Y-116952250D01*
G75*
G02*
X58393750Y-117221500I-269250J0D01*
G01*
X57430250Y-117221500D01*
G75*
G02*
X57161000Y-116952250I0J269250D01*
G01*
X57161000Y-116413750D01*
G75*
G02*
X57430250Y-116144500I269250J0D01*
G01*
G37*
G36*
G01*
X57430250Y-114269500D02*
X58393750Y-114269500D01*
G75*
G02*
X58663000Y-114538750I0J-269250D01*
G01*
X58663000Y-115077250D01*
G75*
G02*
X58393750Y-115346500I-269250J0D01*
G01*
X57430250Y-115346500D01*
G75*
G02*
X57161000Y-115077250I0J269250D01*
G01*
X57161000Y-114538750D01*
G75*
G02*
X57430250Y-114269500I269250J0D01*
G01*
G37*
G36*
G01*
X55398250Y-116142750D02*
X56361750Y-116142750D01*
G75*
G02*
X56631000Y-116412000I0J-269250D01*
G01*
X56631000Y-116950500D01*
G75*
G02*
X56361750Y-117219750I-269250J0D01*
G01*
X55398250Y-117219750D01*
G75*
G02*
X55129000Y-116950500I0J269250D01*
G01*
X55129000Y-116412000D01*
G75*
G02*
X55398250Y-116142750I269250J0D01*
G01*
G37*
G36*
G01*
X55398250Y-114267750D02*
X56361750Y-114267750D01*
G75*
G02*
X56631000Y-114537000I0J-269250D01*
G01*
X56631000Y-115075500D01*
G75*
G02*
X56361750Y-115344750I-269250J0D01*
G01*
X55398250Y-115344750D01*
G75*
G02*
X55129000Y-115075500I0J269250D01*
G01*
X55129000Y-114537000D01*
G75*
G02*
X55398250Y-114267750I269250J0D01*
G01*
G37*
D12*
X334486250Y-188912500D03*
X324326250Y-188912500D03*
D10*
X329406250Y-188912500D03*
X112744250Y-197167500D03*
X88868250Y-197167500D03*
D11*
X112744250Y-181927500D03*
X88868250Y-181927500D03*
D12*
X105886250Y-188912500D03*
X95726250Y-188912500D03*
D10*
X100806250Y-188912500D03*
X355631750Y-178117500D03*
X331755750Y-178117500D03*
D11*
X355631750Y-162877500D03*
X331755750Y-162877500D03*
D12*
X348773750Y-169862500D03*
X338613750Y-169862500D03*
D10*
X343693750Y-169862500D03*
D12*
X101123750Y-169862500D03*
X90963750Y-169862500D03*
D10*
X96043750Y-169862500D03*
D12*
X355917500Y-150812500D03*
X345757500Y-150812500D03*
D10*
X350837500Y-150812500D03*
D12*
X98742500Y-150812500D03*
X88582500Y-150812500D03*
D10*
X93662500Y-150812500D03*
X358013000Y-140017500D03*
X334137000Y-140017500D03*
D11*
X358013000Y-124777500D03*
X334137000Y-124777500D03*
D12*
X351155000Y-131762500D03*
X340995000Y-131762500D03*
D10*
X346075000Y-131762500D03*
D12*
X282098750Y-207962500D03*
X271938750Y-207962500D03*
D10*
X277018750Y-207962500D03*
D12*
X143986250Y-207962500D03*
X133826250Y-207962500D03*
D10*
X138906250Y-207962500D03*
D12*
X120173750Y-207962500D03*
X110013750Y-207962500D03*
D10*
X115093750Y-207962500D03*
D12*
X96361250Y-207962500D03*
X86201250Y-207962500D03*
D10*
X91281250Y-207962500D03*
D12*
X265430000Y-112712500D03*
X255270000Y-112712500D03*
D10*
X260350000Y-112712500D03*
D12*
X246380000Y-112712500D03*
X236220000Y-112712500D03*
D10*
X241300000Y-112712500D03*
D12*
X227330000Y-112712500D03*
X217170000Y-112712500D03*
D10*
X222250000Y-112712500D03*
D12*
X208280000Y-112712500D03*
X198120000Y-112712500D03*
D10*
X203200000Y-112712500D03*
D12*
X379730000Y-207962500D03*
X369570000Y-207962500D03*
D10*
X374650000Y-207962500D03*
D12*
X360680000Y-207962500D03*
X350520000Y-207962500D03*
D10*
X355600000Y-207962500D03*
D12*
X341630000Y-207962500D03*
X331470000Y-207962500D03*
D10*
X336550000Y-207962500D03*
D12*
X322580000Y-207962500D03*
X312420000Y-207962500D03*
D10*
X317500000Y-207962500D03*
D12*
X303530000Y-207962500D03*
X293370000Y-207962500D03*
D10*
X298450000Y-207962500D03*
D12*
X379730000Y-188912500D03*
X369570000Y-188912500D03*
D10*
X374650000Y-188912500D03*
D12*
X360680000Y-188912500D03*
X350520000Y-188912500D03*
D10*
X355600000Y-188912500D03*
D12*
X308292500Y-188912500D03*
X298132500Y-188912500D03*
D10*
X303212500Y-188912500D03*
D12*
X289242500Y-188912500D03*
X279082500Y-188912500D03*
D10*
X284162500Y-188912500D03*
D12*
X270192500Y-188912500D03*
X260032500Y-188912500D03*
D10*
X265112500Y-188912500D03*
D12*
X251142500Y-188912500D03*
X240982500Y-188912500D03*
D10*
X246062500Y-188912500D03*
D12*
X232092500Y-188912500D03*
X221932500Y-188912500D03*
D10*
X227012500Y-188912500D03*
D12*
X213042500Y-188912500D03*
X202882500Y-188912500D03*
D10*
X207962500Y-188912500D03*
D12*
X193992500Y-188912500D03*
X183832500Y-188912500D03*
D10*
X188912500Y-188912500D03*
D12*
X174942500Y-188912500D03*
X164782500Y-188912500D03*
D10*
X169862500Y-188912500D03*
D12*
X155892500Y-188912500D03*
X145732500Y-188912500D03*
D10*
X150812500Y-188912500D03*
D12*
X136842500Y-188912500D03*
X126682500Y-188912500D03*
D10*
X131762500Y-188912500D03*
D12*
X379730000Y-169862500D03*
X369570000Y-169862500D03*
D10*
X374650000Y-169862500D03*
D12*
X317817500Y-169862500D03*
X307657500Y-169862500D03*
D10*
X312737500Y-169862500D03*
D12*
X298767500Y-169862500D03*
X288607500Y-169862500D03*
D10*
X293687500Y-169862500D03*
D12*
X279717500Y-169862500D03*
X269557500Y-169862500D03*
D10*
X274637500Y-169862500D03*
D12*
X260667500Y-169862500D03*
X250507500Y-169862500D03*
D10*
X255587500Y-169862500D03*
D12*
X241617500Y-169862500D03*
X231457500Y-169862500D03*
D10*
X236537500Y-169862500D03*
D12*
X222567500Y-169862500D03*
X212407500Y-169862500D03*
D10*
X217487500Y-169862500D03*
D12*
X203517500Y-169862500D03*
X193357500Y-169862500D03*
D10*
X198437500Y-169862500D03*
D12*
X184467500Y-169862500D03*
X174307500Y-169862500D03*
D10*
X179387500Y-169862500D03*
D12*
X165417500Y-169862500D03*
X155257500Y-169862500D03*
D10*
X160337500Y-169862500D03*
D12*
X146367500Y-169862500D03*
X136207500Y-169862500D03*
D10*
X141287500Y-169862500D03*
D12*
X127317500Y-169862500D03*
X117157500Y-169862500D03*
D10*
X122237500Y-169862500D03*
D12*
X379730000Y-150843750D03*
X369570000Y-150843750D03*
D10*
X374650000Y-150843750D03*
D12*
X332105000Y-150812500D03*
X321945000Y-150812500D03*
D10*
X327025000Y-150812500D03*
D12*
X313055000Y-150812500D03*
X302895000Y-150812500D03*
D10*
X307975000Y-150812500D03*
D12*
X294005000Y-150812500D03*
X283845000Y-150812500D03*
D10*
X288925000Y-150812500D03*
D12*
X274955000Y-150812500D03*
X264795000Y-150812500D03*
D10*
X269875000Y-150812500D03*
D12*
X255905000Y-150812500D03*
X245745000Y-150812500D03*
D10*
X250825000Y-150812500D03*
D12*
X236855000Y-150812500D03*
X226695000Y-150812500D03*
D10*
X231775000Y-150812500D03*
D12*
X217805000Y-150812500D03*
X207645000Y-150812500D03*
D10*
X212725000Y-150812500D03*
D12*
X198755000Y-150812500D03*
X188595000Y-150812500D03*
D10*
X193675000Y-150812500D03*
D12*
X179705000Y-150812500D03*
X169545000Y-150812500D03*
D10*
X174625000Y-150812500D03*
D12*
X160655000Y-150812500D03*
X150495000Y-150812500D03*
D10*
X155575000Y-150812500D03*
D12*
X141605000Y-150812500D03*
X131445000Y-150812500D03*
D10*
X136525000Y-150812500D03*
D12*
X122555000Y-150812500D03*
X112395000Y-150812500D03*
D10*
X117475000Y-150812500D03*
D12*
X379730000Y-112712500D03*
X369570000Y-112712500D03*
D10*
X374650000Y-112712500D03*
D12*
X360680000Y-112712500D03*
X350520000Y-112712500D03*
D10*
X355600000Y-112712500D03*
D12*
X341630000Y-112712500D03*
X331470000Y-112712500D03*
D10*
X336550000Y-112712500D03*
D12*
X322580000Y-112712500D03*
X312420000Y-112712500D03*
D10*
X317500000Y-112712500D03*
D12*
X303530000Y-112712500D03*
X293370000Y-112712500D03*
D10*
X298450000Y-112712500D03*
D12*
X284480000Y-112712500D03*
X274320000Y-112712500D03*
D10*
X279400000Y-112712500D03*
D12*
X379730000Y-131762500D03*
X369570000Y-131762500D03*
D10*
X374650000Y-131762500D03*
D12*
X322580000Y-131762500D03*
X312420000Y-131762500D03*
D10*
X317500000Y-131762500D03*
D12*
X303530000Y-131762500D03*
X293370000Y-131762500D03*
D10*
X298450000Y-131762500D03*
D12*
X284480000Y-131762500D03*
X274320000Y-131762500D03*
D10*
X279400000Y-131762500D03*
D12*
X265430000Y-131762500D03*
X255270000Y-131762500D03*
D10*
X260350000Y-131762500D03*
D12*
X246380000Y-131762500D03*
X236220000Y-131762500D03*
D10*
X241300000Y-131762500D03*
D12*
X227330000Y-131762500D03*
X217170000Y-131762500D03*
D10*
X222250000Y-131762500D03*
D12*
X208280000Y-131762500D03*
X198120000Y-131762500D03*
D10*
X203200000Y-131762500D03*
D12*
X189230000Y-131762500D03*
X179070000Y-131762500D03*
D10*
X184150000Y-131762500D03*
D12*
X170180000Y-131762500D03*
X160020000Y-131762500D03*
D10*
X165100000Y-131762500D03*
D12*
X151130000Y-131762500D03*
X140970000Y-131762500D03*
D10*
X146050000Y-131762500D03*
D12*
X132080000Y-131762500D03*
X121920000Y-131762500D03*
D10*
X127000000Y-131762500D03*
D12*
X189230000Y-112712500D03*
X179070000Y-112712500D03*
D10*
X184150000Y-112712500D03*
D12*
X170180000Y-112712500D03*
X160020000Y-112712500D03*
D10*
X165100000Y-112712500D03*
D12*
X151130000Y-112712500D03*
X140970000Y-112712500D03*
D10*
X146050000Y-112712500D03*
D12*
X132080000Y-112712500D03*
X121920000Y-112712500D03*
D10*
X127000000Y-112712500D03*
D13*
X75025000Y-107743750D03*
X75025000Y-108743750D03*
X74025000Y-107743750D03*
X74025000Y-108743750D03*
X73025000Y-107743750D03*
G36*
G01*
X73450000Y-109219750D02*
X72600000Y-109219750D01*
G75*
G02*
X72549000Y-109168750I0J51000D01*
G01*
X72549000Y-108318750D01*
G75*
G02*
X72600000Y-108267750I51000J0D01*
G01*
X73450000Y-108267750D01*
G75*
G02*
X73501000Y-108318750I0J-51000D01*
G01*
X73501000Y-109168750D01*
G75*
G02*
X73450000Y-109219750I-51000J0D01*
G01*
G37*
G36*
G01*
X62474500Y-121115251D02*
X62474500Y-119915249D01*
G75*
G02*
X62525499Y-119864250I50999J0D01*
G01*
X63925501Y-119864250D01*
G75*
G02*
X63976500Y-119915249I0J-50999D01*
G01*
X63976500Y-121115251D01*
G75*
G02*
X63925501Y-121166250I-50999J0D01*
G01*
X62525499Y-121166250D01*
G75*
G02*
X62474500Y-121115251I0J50999D01*
G01*
G37*
G36*
G01*
X64674500Y-121115251D02*
X64674500Y-119915249D01*
G75*
G02*
X64725499Y-119864250I50999J0D01*
G01*
X66125501Y-119864250D01*
G75*
G02*
X66176500Y-119915249I0J-50999D01*
G01*
X66176500Y-121115251D01*
G75*
G02*
X66125501Y-121166250I-50999J0D01*
G01*
X64725499Y-121166250D01*
G75*
G02*
X64674500Y-121115251I0J50999D01*
G01*
G37*
G36*
G01*
X64674500Y-122815251D02*
X64674500Y-121615249D01*
G75*
G02*
X64725499Y-121564250I50999J0D01*
G01*
X66125501Y-121564250D01*
G75*
G02*
X66176500Y-121615249I0J-50999D01*
G01*
X66176500Y-122815251D01*
G75*
G02*
X66125501Y-122866250I-50999J0D01*
G01*
X64725499Y-122866250D01*
G75*
G02*
X64674500Y-122815251I0J50999D01*
G01*
G37*
G36*
G01*
X62474500Y-122815251D02*
X62474500Y-121615249D01*
G75*
G02*
X62525499Y-121564250I50999J0D01*
G01*
X63925501Y-121564250D01*
G75*
G02*
X63976500Y-121615249I0J-50999D01*
G01*
X63976500Y-122815251D01*
G75*
G02*
X63925501Y-122866250I-50999J0D01*
G01*
X62525499Y-122866250D01*
G75*
G02*
X62474500Y-122815251I0J50999D01*
G01*
G37*
D14*
X59561750Y-106362500D03*
X52261750Y-106362500D03*
X52261750Y-110862500D03*
X59561750Y-110862500D03*
G36*
G01*
X57261750Y-109686500D02*
X57761750Y-109686500D01*
G75*
G02*
X57812750Y-109737500I0J-51000D01*
G01*
X57812750Y-111987500D01*
G75*
G02*
X57761750Y-112038500I-51000J0D01*
G01*
X57261750Y-112038500D01*
G75*
G02*
X57210750Y-111987500I0J51000D01*
G01*
X57210750Y-109737500D01*
G75*
G02*
X57261750Y-109686500I51000J0D01*
G01*
G37*
G36*
G01*
X56461750Y-109686500D02*
X56961750Y-109686500D01*
G75*
G02*
X57012750Y-109737500I0J-51000D01*
G01*
X57012750Y-111987500D01*
G75*
G02*
X56961750Y-112038500I-51000J0D01*
G01*
X56461750Y-112038500D01*
G75*
G02*
X56410750Y-111987500I0J51000D01*
G01*
X56410750Y-109737500D01*
G75*
G02*
X56461750Y-109686500I51000J0D01*
G01*
G37*
G36*
G01*
X55661750Y-109686500D02*
X56161750Y-109686500D01*
G75*
G02*
X56212750Y-109737500I0J-51000D01*
G01*
X56212750Y-111987500D01*
G75*
G02*
X56161750Y-112038500I-51000J0D01*
G01*
X55661750Y-112038500D01*
G75*
G02*
X55610750Y-111987500I0J51000D01*
G01*
X55610750Y-109737500D01*
G75*
G02*
X55661750Y-109686500I51000J0D01*
G01*
G37*
G36*
G01*
X54861750Y-109686500D02*
X55361750Y-109686500D01*
G75*
G02*
X55412750Y-109737500I0J-51000D01*
G01*
X55412750Y-111987500D01*
G75*
G02*
X55361750Y-112038500I-51000J0D01*
G01*
X54861750Y-112038500D01*
G75*
G02*
X54810750Y-111987500I0J51000D01*
G01*
X54810750Y-109737500D01*
G75*
G02*
X54861750Y-109686500I51000J0D01*
G01*
G37*
G36*
G01*
X54061750Y-109686500D02*
X54561750Y-109686500D01*
G75*
G02*
X54612750Y-109737500I0J-51000D01*
G01*
X54612750Y-111987500D01*
G75*
G02*
X54561750Y-112038500I-51000J0D01*
G01*
X54061750Y-112038500D01*
G75*
G02*
X54010750Y-111987500I0J51000D01*
G01*
X54010750Y-109737500D01*
G75*
G02*
X54061750Y-109686500I51000J0D01*
G01*
G37*
G36*
G01*
X68050500Y-137328250D02*
X68600500Y-137328250D01*
G75*
G02*
X68651500Y-137379250I0J-51000D01*
G01*
X68651500Y-138879250D01*
G75*
G02*
X68600500Y-138930250I-51000J0D01*
G01*
X68050500Y-138930250D01*
G75*
G02*
X67999500Y-138879250I0J51000D01*
G01*
X67999500Y-137379250D01*
G75*
G02*
X68050500Y-137328250I51000J0D01*
G01*
G37*
G36*
G01*
X67250500Y-137328250D02*
X67800500Y-137328250D01*
G75*
G02*
X67851500Y-137379250I0J-51000D01*
G01*
X67851500Y-138879250D01*
G75*
G02*
X67800500Y-138930250I-51000J0D01*
G01*
X67250500Y-138930250D01*
G75*
G02*
X67199500Y-138879250I0J51000D01*
G01*
X67199500Y-137379250D01*
G75*
G02*
X67250500Y-137328250I51000J0D01*
G01*
G37*
G36*
G01*
X66450500Y-137328250D02*
X67000500Y-137328250D01*
G75*
G02*
X67051500Y-137379250I0J-51000D01*
G01*
X67051500Y-138879250D01*
G75*
G02*
X67000500Y-138930250I-51000J0D01*
G01*
X66450500Y-138930250D01*
G75*
G02*
X66399500Y-138879250I0J51000D01*
G01*
X66399500Y-137379250D01*
G75*
G02*
X66450500Y-137328250I51000J0D01*
G01*
G37*
G36*
G01*
X65650500Y-137328250D02*
X66200500Y-137328250D01*
G75*
G02*
X66251500Y-137379250I0J-51000D01*
G01*
X66251500Y-138879250D01*
G75*
G02*
X66200500Y-138930250I-51000J0D01*
G01*
X65650500Y-138930250D01*
G75*
G02*
X65599500Y-138879250I0J51000D01*
G01*
X65599500Y-137379250D01*
G75*
G02*
X65650500Y-137328250I51000J0D01*
G01*
G37*
G36*
G01*
X64850500Y-137328250D02*
X65400500Y-137328250D01*
G75*
G02*
X65451500Y-137379250I0J-51000D01*
G01*
X65451500Y-138879250D01*
G75*
G02*
X65400500Y-138930250I-51000J0D01*
G01*
X64850500Y-138930250D01*
G75*
G02*
X64799500Y-138879250I0J51000D01*
G01*
X64799500Y-137379250D01*
G75*
G02*
X64850500Y-137328250I51000J0D01*
G01*
G37*
G36*
G01*
X64050500Y-137328250D02*
X64600500Y-137328250D01*
G75*
G02*
X64651500Y-137379250I0J-51000D01*
G01*
X64651500Y-138879250D01*
G75*
G02*
X64600500Y-138930250I-51000J0D01*
G01*
X64050500Y-138930250D01*
G75*
G02*
X63999500Y-138879250I0J51000D01*
G01*
X63999500Y-137379250D01*
G75*
G02*
X64050500Y-137328250I51000J0D01*
G01*
G37*
G36*
G01*
X63250500Y-137328250D02*
X63800500Y-137328250D01*
G75*
G02*
X63851500Y-137379250I0J-51000D01*
G01*
X63851500Y-138879250D01*
G75*
G02*
X63800500Y-138930250I-51000J0D01*
G01*
X63250500Y-138930250D01*
G75*
G02*
X63199500Y-138879250I0J51000D01*
G01*
X63199500Y-137379250D01*
G75*
G02*
X63250500Y-137328250I51000J0D01*
G01*
G37*
G36*
G01*
X62450500Y-137328250D02*
X63000500Y-137328250D01*
G75*
G02*
X63051500Y-137379250I0J-51000D01*
G01*
X63051500Y-138879250D01*
G75*
G02*
X63000500Y-138930250I-51000J0D01*
G01*
X62450500Y-138930250D01*
G75*
G02*
X62399500Y-138879250I0J51000D01*
G01*
X62399500Y-137379250D01*
G75*
G02*
X62450500Y-137328250I51000J0D01*
G01*
G37*
G36*
G01*
X61650500Y-137328250D02*
X62200500Y-137328250D01*
G75*
G02*
X62251500Y-137379250I0J-51000D01*
G01*
X62251500Y-138879250D01*
G75*
G02*
X62200500Y-138930250I-51000J0D01*
G01*
X61650500Y-138930250D01*
G75*
G02*
X61599500Y-138879250I0J51000D01*
G01*
X61599500Y-137379250D01*
G75*
G02*
X61650500Y-137328250I51000J0D01*
G01*
G37*
G36*
G01*
X60850500Y-137328250D02*
X61400500Y-137328250D01*
G75*
G02*
X61451500Y-137379250I0J-51000D01*
G01*
X61451500Y-138879250D01*
G75*
G02*
X61400500Y-138930250I-51000J0D01*
G01*
X60850500Y-138930250D01*
G75*
G02*
X60799500Y-138879250I0J51000D01*
G01*
X60799500Y-137379250D01*
G75*
G02*
X60850500Y-137328250I51000J0D01*
G01*
G37*
G36*
G01*
X60050500Y-137328250D02*
X60600500Y-137328250D01*
G75*
G02*
X60651500Y-137379250I0J-51000D01*
G01*
X60651500Y-138879250D01*
G75*
G02*
X60600500Y-138930250I-51000J0D01*
G01*
X60050500Y-138930250D01*
G75*
G02*
X59999500Y-138879250I0J51000D01*
G01*
X59999500Y-137379250D01*
G75*
G02*
X60050500Y-137328250I51000J0D01*
G01*
G37*
G36*
G01*
X59426500Y-136154250D02*
X59426500Y-136704250D01*
G75*
G02*
X59375500Y-136755250I-51000J0D01*
G01*
X57875500Y-136755250D01*
G75*
G02*
X57824500Y-136704250I0J51000D01*
G01*
X57824500Y-136154250D01*
G75*
G02*
X57875500Y-136103250I51000J0D01*
G01*
X59375500Y-136103250D01*
G75*
G02*
X59426500Y-136154250I0J-51000D01*
G01*
G37*
G36*
G01*
X59426500Y-135354250D02*
X59426500Y-135904250D01*
G75*
G02*
X59375500Y-135955250I-51000J0D01*
G01*
X57875500Y-135955250D01*
G75*
G02*
X57824500Y-135904250I0J51000D01*
G01*
X57824500Y-135354250D01*
G75*
G02*
X57875500Y-135303250I51000J0D01*
G01*
X59375500Y-135303250D01*
G75*
G02*
X59426500Y-135354250I0J-51000D01*
G01*
G37*
G36*
G01*
X59426500Y-134554250D02*
X59426500Y-135104250D01*
G75*
G02*
X59375500Y-135155250I-51000J0D01*
G01*
X57875500Y-135155250D01*
G75*
G02*
X57824500Y-135104250I0J51000D01*
G01*
X57824500Y-134554250D01*
G75*
G02*
X57875500Y-134503250I51000J0D01*
G01*
X59375500Y-134503250D01*
G75*
G02*
X59426500Y-134554250I0J-51000D01*
G01*
G37*
G36*
G01*
X59426500Y-133754250D02*
X59426500Y-134304250D01*
G75*
G02*
X59375500Y-134355250I-51000J0D01*
G01*
X57875500Y-134355250D01*
G75*
G02*
X57824500Y-134304250I0J51000D01*
G01*
X57824500Y-133754250D01*
G75*
G02*
X57875500Y-133703250I51000J0D01*
G01*
X59375500Y-133703250D01*
G75*
G02*
X59426500Y-133754250I0J-51000D01*
G01*
G37*
G36*
G01*
X59426500Y-132954250D02*
X59426500Y-133504250D01*
G75*
G02*
X59375500Y-133555250I-51000J0D01*
G01*
X57875500Y-133555250D01*
G75*
G02*
X57824500Y-133504250I0J51000D01*
G01*
X57824500Y-132954250D01*
G75*
G02*
X57875500Y-132903250I51000J0D01*
G01*
X59375500Y-132903250D01*
G75*
G02*
X59426500Y-132954250I0J-51000D01*
G01*
G37*
G36*
G01*
X59426500Y-132154250D02*
X59426500Y-132704250D01*
G75*
G02*
X59375500Y-132755250I-51000J0D01*
G01*
X57875500Y-132755250D01*
G75*
G02*
X57824500Y-132704250I0J51000D01*
G01*
X57824500Y-132154250D01*
G75*
G02*
X57875500Y-132103250I51000J0D01*
G01*
X59375500Y-132103250D01*
G75*
G02*
X59426500Y-132154250I0J-51000D01*
G01*
G37*
G36*
G01*
X59426500Y-131354250D02*
X59426500Y-131904250D01*
G75*
G02*
X59375500Y-131955250I-51000J0D01*
G01*
X57875500Y-131955250D01*
G75*
G02*
X57824500Y-131904250I0J51000D01*
G01*
X57824500Y-131354250D01*
G75*
G02*
X57875500Y-131303250I51000J0D01*
G01*
X59375500Y-131303250D01*
G75*
G02*
X59426500Y-131354250I0J-51000D01*
G01*
G37*
G36*
G01*
X59426500Y-130554250D02*
X59426500Y-131104250D01*
G75*
G02*
X59375500Y-131155250I-51000J0D01*
G01*
X57875500Y-131155250D01*
G75*
G02*
X57824500Y-131104250I0J51000D01*
G01*
X57824500Y-130554250D01*
G75*
G02*
X57875500Y-130503250I51000J0D01*
G01*
X59375500Y-130503250D01*
G75*
G02*
X59426500Y-130554250I0J-51000D01*
G01*
G37*
G36*
G01*
X59426500Y-129754250D02*
X59426500Y-130304250D01*
G75*
G02*
X59375500Y-130355250I-51000J0D01*
G01*
X57875500Y-130355250D01*
G75*
G02*
X57824500Y-130304250I0J51000D01*
G01*
X57824500Y-129754250D01*
G75*
G02*
X57875500Y-129703250I51000J0D01*
G01*
X59375500Y-129703250D01*
G75*
G02*
X59426500Y-129754250I0J-51000D01*
G01*
G37*
G36*
G01*
X59426500Y-128954250D02*
X59426500Y-129504250D01*
G75*
G02*
X59375500Y-129555250I-51000J0D01*
G01*
X57875500Y-129555250D01*
G75*
G02*
X57824500Y-129504250I0J51000D01*
G01*
X57824500Y-128954250D01*
G75*
G02*
X57875500Y-128903250I51000J0D01*
G01*
X59375500Y-128903250D01*
G75*
G02*
X59426500Y-128954250I0J-51000D01*
G01*
G37*
G36*
G01*
X59426500Y-128154250D02*
X59426500Y-128704250D01*
G75*
G02*
X59375500Y-128755250I-51000J0D01*
G01*
X57875500Y-128755250D01*
G75*
G02*
X57824500Y-128704250I0J51000D01*
G01*
X57824500Y-128154250D01*
G75*
G02*
X57875500Y-128103250I51000J0D01*
G01*
X59375500Y-128103250D01*
G75*
G02*
X59426500Y-128154250I0J-51000D01*
G01*
G37*
G36*
G01*
X60050500Y-125928250D02*
X60600500Y-125928250D01*
G75*
G02*
X60651500Y-125979250I0J-51000D01*
G01*
X60651500Y-127479250D01*
G75*
G02*
X60600500Y-127530250I-51000J0D01*
G01*
X60050500Y-127530250D01*
G75*
G02*
X59999500Y-127479250I0J51000D01*
G01*
X59999500Y-125979250D01*
G75*
G02*
X60050500Y-125928250I51000J0D01*
G01*
G37*
G36*
G01*
X60850500Y-125928250D02*
X61400500Y-125928250D01*
G75*
G02*
X61451500Y-125979250I0J-51000D01*
G01*
X61451500Y-127479250D01*
G75*
G02*
X61400500Y-127530250I-51000J0D01*
G01*
X60850500Y-127530250D01*
G75*
G02*
X60799500Y-127479250I0J51000D01*
G01*
X60799500Y-125979250D01*
G75*
G02*
X60850500Y-125928250I51000J0D01*
G01*
G37*
G36*
G01*
X61650500Y-125928250D02*
X62200500Y-125928250D01*
G75*
G02*
X62251500Y-125979250I0J-51000D01*
G01*
X62251500Y-127479250D01*
G75*
G02*
X62200500Y-127530250I-51000J0D01*
G01*
X61650500Y-127530250D01*
G75*
G02*
X61599500Y-127479250I0J51000D01*
G01*
X61599500Y-125979250D01*
G75*
G02*
X61650500Y-125928250I51000J0D01*
G01*
G37*
G36*
G01*
X62450500Y-125928250D02*
X63000500Y-125928250D01*
G75*
G02*
X63051500Y-125979250I0J-51000D01*
G01*
X63051500Y-127479250D01*
G75*
G02*
X63000500Y-127530250I-51000J0D01*
G01*
X62450500Y-127530250D01*
G75*
G02*
X62399500Y-127479250I0J51000D01*
G01*
X62399500Y-125979250D01*
G75*
G02*
X62450500Y-125928250I51000J0D01*
G01*
G37*
G36*
G01*
X63250500Y-125928250D02*
X63800500Y-125928250D01*
G75*
G02*
X63851500Y-125979250I0J-51000D01*
G01*
X63851500Y-127479250D01*
G75*
G02*
X63800500Y-127530250I-51000J0D01*
G01*
X63250500Y-127530250D01*
G75*
G02*
X63199500Y-127479250I0J51000D01*
G01*
X63199500Y-125979250D01*
G75*
G02*
X63250500Y-125928250I51000J0D01*
G01*
G37*
G36*
G01*
X64050500Y-125928250D02*
X64600500Y-125928250D01*
G75*
G02*
X64651500Y-125979250I0J-51000D01*
G01*
X64651500Y-127479250D01*
G75*
G02*
X64600500Y-127530250I-51000J0D01*
G01*
X64050500Y-127530250D01*
G75*
G02*
X63999500Y-127479250I0J51000D01*
G01*
X63999500Y-125979250D01*
G75*
G02*
X64050500Y-125928250I51000J0D01*
G01*
G37*
G36*
G01*
X64850500Y-125928250D02*
X65400500Y-125928250D01*
G75*
G02*
X65451500Y-125979250I0J-51000D01*
G01*
X65451500Y-127479250D01*
G75*
G02*
X65400500Y-127530250I-51000J0D01*
G01*
X64850500Y-127530250D01*
G75*
G02*
X64799500Y-127479250I0J51000D01*
G01*
X64799500Y-125979250D01*
G75*
G02*
X64850500Y-125928250I51000J0D01*
G01*
G37*
G36*
G01*
X65650500Y-125928250D02*
X66200500Y-125928250D01*
G75*
G02*
X66251500Y-125979250I0J-51000D01*
G01*
X66251500Y-127479250D01*
G75*
G02*
X66200500Y-127530250I-51000J0D01*
G01*
X65650500Y-127530250D01*
G75*
G02*
X65599500Y-127479250I0J51000D01*
G01*
X65599500Y-125979250D01*
G75*
G02*
X65650500Y-125928250I51000J0D01*
G01*
G37*
G36*
G01*
X66450500Y-125928250D02*
X67000500Y-125928250D01*
G75*
G02*
X67051500Y-125979250I0J-51000D01*
G01*
X67051500Y-127479250D01*
G75*
G02*
X67000500Y-127530250I-51000J0D01*
G01*
X66450500Y-127530250D01*
G75*
G02*
X66399500Y-127479250I0J51000D01*
G01*
X66399500Y-125979250D01*
G75*
G02*
X66450500Y-125928250I51000J0D01*
G01*
G37*
G36*
G01*
X67250500Y-125928250D02*
X67800500Y-125928250D01*
G75*
G02*
X67851500Y-125979250I0J-51000D01*
G01*
X67851500Y-127479250D01*
G75*
G02*
X67800500Y-127530250I-51000J0D01*
G01*
X67250500Y-127530250D01*
G75*
G02*
X67199500Y-127479250I0J51000D01*
G01*
X67199500Y-125979250D01*
G75*
G02*
X67250500Y-125928250I51000J0D01*
G01*
G37*
G36*
G01*
X68050500Y-125928250D02*
X68600500Y-125928250D01*
G75*
G02*
X68651500Y-125979250I0J-51000D01*
G01*
X68651500Y-127479250D01*
G75*
G02*
X68600500Y-127530250I-51000J0D01*
G01*
X68050500Y-127530250D01*
G75*
G02*
X67999500Y-127479250I0J51000D01*
G01*
X67999500Y-125979250D01*
G75*
G02*
X68050500Y-125928250I51000J0D01*
G01*
G37*
G36*
G01*
X70826500Y-128154250D02*
X70826500Y-128704250D01*
G75*
G02*
X70775500Y-128755250I-51000J0D01*
G01*
X69275500Y-128755250D01*
G75*
G02*
X69224500Y-128704250I0J51000D01*
G01*
X69224500Y-128154250D01*
G75*
G02*
X69275500Y-128103250I51000J0D01*
G01*
X70775500Y-128103250D01*
G75*
G02*
X70826500Y-128154250I0J-51000D01*
G01*
G37*
G36*
G01*
X70826500Y-128954250D02*
X70826500Y-129504250D01*
G75*
G02*
X70775500Y-129555250I-51000J0D01*
G01*
X69275500Y-129555250D01*
G75*
G02*
X69224500Y-129504250I0J51000D01*
G01*
X69224500Y-128954250D01*
G75*
G02*
X69275500Y-128903250I51000J0D01*
G01*
X70775500Y-128903250D01*
G75*
G02*
X70826500Y-128954250I0J-51000D01*
G01*
G37*
G36*
G01*
X70826500Y-129754250D02*
X70826500Y-130304250D01*
G75*
G02*
X70775500Y-130355250I-51000J0D01*
G01*
X69275500Y-130355250D01*
G75*
G02*
X69224500Y-130304250I0J51000D01*
G01*
X69224500Y-129754250D01*
G75*
G02*
X69275500Y-129703250I51000J0D01*
G01*
X70775500Y-129703250D01*
G75*
G02*
X70826500Y-129754250I0J-51000D01*
G01*
G37*
G36*
G01*
X70826500Y-130554250D02*
X70826500Y-131104250D01*
G75*
G02*
X70775500Y-131155250I-51000J0D01*
G01*
X69275500Y-131155250D01*
G75*
G02*
X69224500Y-131104250I0J51000D01*
G01*
X69224500Y-130554250D01*
G75*
G02*
X69275500Y-130503250I51000J0D01*
G01*
X70775500Y-130503250D01*
G75*
G02*
X70826500Y-130554250I0J-51000D01*
G01*
G37*
G36*
G01*
X70826500Y-131354250D02*
X70826500Y-131904250D01*
G75*
G02*
X70775500Y-131955250I-51000J0D01*
G01*
X69275500Y-131955250D01*
G75*
G02*
X69224500Y-131904250I0J51000D01*
G01*
X69224500Y-131354250D01*
G75*
G02*
X69275500Y-131303250I51000J0D01*
G01*
X70775500Y-131303250D01*
G75*
G02*
X70826500Y-131354250I0J-51000D01*
G01*
G37*
G36*
G01*
X70826500Y-132154250D02*
X70826500Y-132704250D01*
G75*
G02*
X70775500Y-132755250I-51000J0D01*
G01*
X69275500Y-132755250D01*
G75*
G02*
X69224500Y-132704250I0J51000D01*
G01*
X69224500Y-132154250D01*
G75*
G02*
X69275500Y-132103250I51000J0D01*
G01*
X70775500Y-132103250D01*
G75*
G02*
X70826500Y-132154250I0J-51000D01*
G01*
G37*
G36*
G01*
X70826500Y-132954250D02*
X70826500Y-133504250D01*
G75*
G02*
X70775500Y-133555250I-51000J0D01*
G01*
X69275500Y-133555250D01*
G75*
G02*
X69224500Y-133504250I0J51000D01*
G01*
X69224500Y-132954250D01*
G75*
G02*
X69275500Y-132903250I51000J0D01*
G01*
X70775500Y-132903250D01*
G75*
G02*
X70826500Y-132954250I0J-51000D01*
G01*
G37*
G36*
G01*
X70826500Y-133754250D02*
X70826500Y-134304250D01*
G75*
G02*
X70775500Y-134355250I-51000J0D01*
G01*
X69275500Y-134355250D01*
G75*
G02*
X69224500Y-134304250I0J51000D01*
G01*
X69224500Y-133754250D01*
G75*
G02*
X69275500Y-133703250I51000J0D01*
G01*
X70775500Y-133703250D01*
G75*
G02*
X70826500Y-133754250I0J-51000D01*
G01*
G37*
G36*
G01*
X70826500Y-134554250D02*
X70826500Y-135104250D01*
G75*
G02*
X70775500Y-135155250I-51000J0D01*
G01*
X69275500Y-135155250D01*
G75*
G02*
X69224500Y-135104250I0J51000D01*
G01*
X69224500Y-134554250D01*
G75*
G02*
X69275500Y-134503250I51000J0D01*
G01*
X70775500Y-134503250D01*
G75*
G02*
X70826500Y-134554250I0J-51000D01*
G01*
G37*
G36*
G01*
X70826500Y-135354250D02*
X70826500Y-135904250D01*
G75*
G02*
X70775500Y-135955250I-51000J0D01*
G01*
X69275500Y-135955250D01*
G75*
G02*
X69224500Y-135904250I0J51000D01*
G01*
X69224500Y-135354250D01*
G75*
G02*
X69275500Y-135303250I51000J0D01*
G01*
X70775500Y-135303250D01*
G75*
G02*
X70826500Y-135354250I0J-51000D01*
G01*
G37*
G36*
G01*
X70826500Y-136154250D02*
X70826500Y-136704250D01*
G75*
G02*
X70775500Y-136755250I-51000J0D01*
G01*
X69275500Y-136755250D01*
G75*
G02*
X69224500Y-136704250I0J51000D01*
G01*
X69224500Y-136154250D01*
G75*
G02*
X69275500Y-136103250I51000J0D01*
G01*
X70775500Y-136103250D01*
G75*
G02*
X70826500Y-136154250I0J-51000D01*
G01*
G37*
G36*
G01*
X70726000Y-105550000D02*
X70726000Y-106650000D01*
G75*
G02*
X70675000Y-106701000I-51000J0D01*
G01*
X68875000Y-106701000D01*
G75*
G02*
X68824000Y-106650000I0J51000D01*
G01*
X68824000Y-105550000D01*
G75*
G02*
X68875000Y-105499000I51000J0D01*
G01*
X70675000Y-105499000D01*
G75*
G02*
X70726000Y-105550000I0J-51000D01*
G01*
G37*
G36*
G01*
X64526000Y-109250000D02*
X64526000Y-110350000D01*
G75*
G02*
X64475000Y-110401000I-51000J0D01*
G01*
X62675000Y-110401000D01*
G75*
G02*
X62624000Y-110350000I0J51000D01*
G01*
X62624000Y-109250000D01*
G75*
G02*
X62675000Y-109199000I51000J0D01*
G01*
X64475000Y-109199000D01*
G75*
G02*
X64526000Y-109250000I0J-51000D01*
G01*
G37*
G36*
G01*
X70726000Y-109250000D02*
X70726000Y-110350000D01*
G75*
G02*
X70675000Y-110401000I-51000J0D01*
G01*
X68875000Y-110401000D01*
G75*
G02*
X68824000Y-110350000I0J51000D01*
G01*
X68824000Y-109250000D01*
G75*
G02*
X68875000Y-109199000I51000J0D01*
G01*
X70675000Y-109199000D01*
G75*
G02*
X70726000Y-109250000I0J-51000D01*
G01*
G37*
G36*
G01*
X64526000Y-105550000D02*
X64526000Y-106650000D01*
G75*
G02*
X64475000Y-106701000I-51000J0D01*
G01*
X62675000Y-106701000D01*
G75*
G02*
X62624000Y-106650000I0J51000D01*
G01*
X62624000Y-105550000D01*
G75*
G02*
X62675000Y-105499000I51000J0D01*
G01*
X64475000Y-105499000D01*
G75*
G02*
X64526000Y-105550000I0J-51000D01*
G01*
G37*
G36*
G01*
X54636250Y-139529250D02*
X55599750Y-139529250D01*
G75*
G02*
X55869000Y-139798500I0J-269250D01*
G01*
X55869000Y-140337000D01*
G75*
G02*
X55599750Y-140606250I-269250J0D01*
G01*
X54636250Y-140606250D01*
G75*
G02*
X54367000Y-140337000I0J269250D01*
G01*
X54367000Y-139798500D01*
G75*
G02*
X54636250Y-139529250I269250J0D01*
G01*
G37*
G36*
G01*
X54636250Y-137654250D02*
X55599750Y-137654250D01*
G75*
G02*
X55869000Y-137923500I0J-269250D01*
G01*
X55869000Y-138462000D01*
G75*
G02*
X55599750Y-138731250I-269250J0D01*
G01*
X54636250Y-138731250D01*
G75*
G02*
X54367000Y-138462000I0J269250D01*
G01*
X54367000Y-137923500D01*
G75*
G02*
X54636250Y-137654250I269250J0D01*
G01*
G37*
G36*
G01*
X73686250Y-123654250D02*
X74649750Y-123654250D01*
G75*
G02*
X74919000Y-123923500I0J-269250D01*
G01*
X74919000Y-124462000D01*
G75*
G02*
X74649750Y-124731250I-269250J0D01*
G01*
X73686250Y-124731250D01*
G75*
G02*
X73417000Y-124462000I0J269250D01*
G01*
X73417000Y-123923500D01*
G75*
G02*
X73686250Y-123654250I269250J0D01*
G01*
G37*
G36*
G01*
X73686250Y-121779250D02*
X74649750Y-121779250D01*
G75*
G02*
X74919000Y-122048500I0J-269250D01*
G01*
X74919000Y-122587000D01*
G75*
G02*
X74649750Y-122856250I-269250J0D01*
G01*
X73686250Y-122856250D01*
G75*
G02*
X73417000Y-122587000I0J269250D01*
G01*
X73417000Y-122048500D01*
G75*
G02*
X73686250Y-121779250I269250J0D01*
G01*
G37*
D12*
X113030000Y-131762500D03*
X102870000Y-131762500D03*
D10*
X107950000Y-131762500D03*
D12*
X113030000Y-112712500D03*
X102870000Y-112712500D03*
D10*
X107950000Y-112712500D03*
D12*
X93980000Y-131762500D03*
X83820000Y-131762500D03*
D10*
X88900000Y-131762500D03*
D12*
X93980000Y-112712500D03*
X83820000Y-112712500D03*
D10*
X88900000Y-112712500D03*
G36*
G01*
X65179500Y-114242100D02*
X65179500Y-112930900D01*
G75*
G02*
X65449900Y-112660500I270400J0D01*
G01*
X66261100Y-112660500D01*
G75*
G02*
X66531500Y-112930900I0J-270400D01*
G01*
X66531500Y-114242100D01*
G75*
G02*
X66261100Y-114512500I-270400J0D01*
G01*
X65449900Y-114512500D01*
G75*
G02*
X65179500Y-114242100I0J270400D01*
G01*
G37*
G36*
G01*
X62379500Y-114242100D02*
X62379500Y-112930900D01*
G75*
G02*
X62649900Y-112660500I270400J0D01*
G01*
X63461100Y-112660500D01*
G75*
G02*
X63731500Y-112930900I0J-270400D01*
G01*
X63731500Y-114242100D01*
G75*
G02*
X63461100Y-114512500I-270400J0D01*
G01*
X62649900Y-114512500D01*
G75*
G02*
X62379500Y-114242100I0J270400D01*
G01*
G37*
G36*
G01*
X76035750Y-133369750D02*
X76999250Y-133369750D01*
G75*
G02*
X77268500Y-133639000I0J-269250D01*
G01*
X77268500Y-134177500D01*
G75*
G02*
X76999250Y-134446750I-269250J0D01*
G01*
X76035750Y-134446750D01*
G75*
G02*
X75766500Y-134177500I0J269250D01*
G01*
X75766500Y-133639000D01*
G75*
G02*
X76035750Y-133369750I269250J0D01*
G01*
G37*
G36*
G01*
X76035750Y-131494750D02*
X76999250Y-131494750D01*
G75*
G02*
X77268500Y-131764000I0J-269250D01*
G01*
X77268500Y-132302500D01*
G75*
G02*
X76999250Y-132571750I-269250J0D01*
G01*
X76035750Y-132571750D01*
G75*
G02*
X75766500Y-132302500I0J269250D01*
G01*
X75766500Y-131764000D01*
G75*
G02*
X76035750Y-131494750I269250J0D01*
G01*
G37*
G36*
G01*
X67275250Y-117676000D02*
X67275250Y-118639500D01*
G75*
G02*
X67006000Y-118908750I-269250J0D01*
G01*
X66467500Y-118908750D01*
G75*
G02*
X66198250Y-118639500I0J269250D01*
G01*
X66198250Y-117676000D01*
G75*
G02*
X66467500Y-117406750I269250J0D01*
G01*
X67006000Y-117406750D01*
G75*
G02*
X67275250Y-117676000I0J-269250D01*
G01*
G37*
G36*
G01*
X69150250Y-117676000D02*
X69150250Y-118639500D01*
G75*
G02*
X68881000Y-118908750I-269250J0D01*
G01*
X68342500Y-118908750D01*
G75*
G02*
X68073250Y-118639500I0J269250D01*
G01*
X68073250Y-117676000D01*
G75*
G02*
X68342500Y-117406750I269250J0D01*
G01*
X68881000Y-117406750D01*
G75*
G02*
X69150250Y-117676000I0J-269250D01*
G01*
G37*
G36*
G01*
X59843250Y-121699000D02*
X60806750Y-121699000D01*
G75*
G02*
X61076000Y-121968250I0J-269250D01*
G01*
X61076000Y-122506750D01*
G75*
G02*
X60806750Y-122776000I-269250J0D01*
G01*
X59843250Y-122776000D01*
G75*
G02*
X59574000Y-122506750I0J269250D01*
G01*
X59574000Y-121968250D01*
G75*
G02*
X59843250Y-121699000I269250J0D01*
G01*
G37*
G36*
G01*
X59843250Y-119824000D02*
X60806750Y-119824000D01*
G75*
G02*
X61076000Y-120093250I0J-269250D01*
G01*
X61076000Y-120631750D01*
G75*
G02*
X60806750Y-120901000I-269250J0D01*
G01*
X59843250Y-120901000D01*
G75*
G02*
X59574000Y-120631750I0J269250D01*
G01*
X59574000Y-120093250D01*
G75*
G02*
X59843250Y-119824000I269250J0D01*
G01*
G37*
G36*
G01*
X68928000Y-141711500D02*
X68928000Y-142675000D01*
G75*
G02*
X68658750Y-142944250I-269250J0D01*
G01*
X68120250Y-142944250D01*
G75*
G02*
X67851000Y-142675000I0J269250D01*
G01*
X67851000Y-141711500D01*
G75*
G02*
X68120250Y-141442250I269250J0D01*
G01*
X68658750Y-141442250D01*
G75*
G02*
X68928000Y-141711500I0J-269250D01*
G01*
G37*
G36*
G01*
X70803000Y-141711500D02*
X70803000Y-142675000D01*
G75*
G02*
X70533750Y-142944250I-269250J0D01*
G01*
X69995250Y-142944250D01*
G75*
G02*
X69726000Y-142675000I0J269250D01*
G01*
X69726000Y-141711500D01*
G75*
G02*
X69995250Y-141442250I269250J0D01*
G01*
X70533750Y-141442250D01*
G75*
G02*
X70803000Y-141711500I0J-269250D01*
G01*
G37*
G36*
G01*
X55957250Y-141711500D02*
X55957250Y-142675000D01*
G75*
G02*
X55688000Y-142944250I-269250J0D01*
G01*
X55149500Y-142944250D01*
G75*
G02*
X54880250Y-142675000I0J269250D01*
G01*
X54880250Y-141711500D01*
G75*
G02*
X55149500Y-141442250I269250J0D01*
G01*
X55688000Y-141442250D01*
G75*
G02*
X55957250Y-141711500I0J-269250D01*
G01*
G37*
G36*
G01*
X57832250Y-141711500D02*
X57832250Y-142675000D01*
G75*
G02*
X57563000Y-142944250I-269250J0D01*
G01*
X57024500Y-142944250D01*
G75*
G02*
X56755250Y-142675000I0J269250D01*
G01*
X56755250Y-141711500D01*
G75*
G02*
X57024500Y-141442250I269250J0D01*
G01*
X57563000Y-141442250D01*
G75*
G02*
X57832250Y-141711500I0J-269250D01*
G01*
G37*
G36*
G01*
X70395250Y-120966250D02*
X69431750Y-120966250D01*
G75*
G02*
X69162500Y-120697000I0J269250D01*
G01*
X69162500Y-120158500D01*
G75*
G02*
X69431750Y-119889250I269250J0D01*
G01*
X70395250Y-119889250D01*
G75*
G02*
X70664500Y-120158500I0J-269250D01*
G01*
X70664500Y-120697000D01*
G75*
G02*
X70395250Y-120966250I-269250J0D01*
G01*
G37*
G36*
G01*
X70395250Y-122841250D02*
X69431750Y-122841250D01*
G75*
G02*
X69162500Y-122572000I0J269250D01*
G01*
X69162500Y-122033500D01*
G75*
G02*
X69431750Y-121764250I269250J0D01*
G01*
X70395250Y-121764250D01*
G75*
G02*
X70664500Y-122033500I0J-269250D01*
G01*
X70664500Y-122572000D01*
G75*
G02*
X70395250Y-122841250I-269250J0D01*
G01*
G37*
G36*
G01*
X52805750Y-115346500D02*
X51842250Y-115346500D01*
G75*
G02*
X51573000Y-115077250I0J269250D01*
G01*
X51573000Y-114538750D01*
G75*
G02*
X51842250Y-114269500I269250J0D01*
G01*
X52805750Y-114269500D01*
G75*
G02*
X53075000Y-114538750I0J-269250D01*
G01*
X53075000Y-115077250D01*
G75*
G02*
X52805750Y-115346500I-269250J0D01*
G01*
G37*
G36*
G01*
X52805750Y-117221500D02*
X51842250Y-117221500D01*
G75*
G02*
X51573000Y-116952250I0J269250D01*
G01*
X51573000Y-116413750D01*
G75*
G02*
X51842250Y-116144500I269250J0D01*
G01*
X52805750Y-116144500D01*
G75*
G02*
X53075000Y-116413750I0J-269250D01*
G01*
X53075000Y-116952250D01*
G75*
G02*
X52805750Y-117221500I-269250J0D01*
G01*
G37*
G36*
X60641160Y-137346743D02*
G01*
X60654952Y-137355959D01*
X60655486Y-137355160D01*
X60657280Y-137354275D01*
X60658468Y-137354767D01*
X60671139Y-137365878D01*
X60733550Y-137378288D01*
X60793869Y-137357807D01*
X60794911Y-137356765D01*
X60795214Y-137356516D01*
X60809840Y-137346743D01*
X60811836Y-137346612D01*
X60812947Y-137348275D01*
X60812614Y-137349517D01*
X60805267Y-137360512D01*
X60801500Y-137379449D01*
X60801500Y-138879051D01*
X60805267Y-138897988D01*
X60812614Y-138908983D01*
X60812745Y-138910979D01*
X60811082Y-138912090D01*
X60809840Y-138911757D01*
X60796048Y-138902541D01*
X60795514Y-138903340D01*
X60793720Y-138904225D01*
X60792532Y-138903733D01*
X60779861Y-138892622D01*
X60717450Y-138880212D01*
X60657131Y-138900693D01*
X60656089Y-138901735D01*
X60655786Y-138901984D01*
X60641160Y-138911757D01*
X60639164Y-138911888D01*
X60638053Y-138910225D01*
X60638386Y-138908983D01*
X60645733Y-138897988D01*
X60649500Y-138879051D01*
X60649500Y-137379449D01*
X60645733Y-137360512D01*
X60638386Y-137349517D01*
X60638255Y-137347521D01*
X60639918Y-137346410D01*
X60641160Y-137346743D01*
G37*
G36*
X61441160Y-137346743D02*
G01*
X61454952Y-137355959D01*
X61455486Y-137355160D01*
X61457280Y-137354275D01*
X61458468Y-137354767D01*
X61471139Y-137365878D01*
X61533550Y-137378288D01*
X61593869Y-137357807D01*
X61594911Y-137356765D01*
X61595214Y-137356516D01*
X61609840Y-137346743D01*
X61611836Y-137346612D01*
X61612947Y-137348275D01*
X61612614Y-137349517D01*
X61605267Y-137360512D01*
X61601500Y-137379449D01*
X61601500Y-138879051D01*
X61605267Y-138897988D01*
X61612614Y-138908983D01*
X61612745Y-138910979D01*
X61611082Y-138912090D01*
X61609840Y-138911757D01*
X61596048Y-138902541D01*
X61595514Y-138903340D01*
X61593720Y-138904225D01*
X61592532Y-138903733D01*
X61579861Y-138892622D01*
X61517450Y-138880212D01*
X61457131Y-138900693D01*
X61456089Y-138901735D01*
X61455786Y-138901984D01*
X61441160Y-138911757D01*
X61439164Y-138911888D01*
X61438053Y-138910225D01*
X61438386Y-138908983D01*
X61445733Y-138897988D01*
X61449500Y-138879051D01*
X61449500Y-137379449D01*
X61445733Y-137360512D01*
X61438386Y-137349517D01*
X61438255Y-137347521D01*
X61439918Y-137346410D01*
X61441160Y-137346743D01*
G37*
G36*
X62241160Y-137346743D02*
G01*
X62254952Y-137355959D01*
X62255486Y-137355160D01*
X62257280Y-137354275D01*
X62258468Y-137354767D01*
X62271139Y-137365878D01*
X62333550Y-137378288D01*
X62393869Y-137357807D01*
X62394911Y-137356765D01*
X62395214Y-137356516D01*
X62409840Y-137346743D01*
X62411836Y-137346612D01*
X62412947Y-137348275D01*
X62412614Y-137349517D01*
X62405267Y-137360512D01*
X62401500Y-137379449D01*
X62401500Y-138879051D01*
X62405267Y-138897988D01*
X62412614Y-138908983D01*
X62412745Y-138910979D01*
X62411082Y-138912090D01*
X62409840Y-138911757D01*
X62396048Y-138902541D01*
X62395514Y-138903340D01*
X62393720Y-138904225D01*
X62392532Y-138903733D01*
X62379861Y-138892622D01*
X62317450Y-138880212D01*
X62257131Y-138900693D01*
X62256089Y-138901735D01*
X62255786Y-138901984D01*
X62241160Y-138911757D01*
X62239164Y-138911888D01*
X62238053Y-138910225D01*
X62238386Y-138908983D01*
X62245733Y-138897988D01*
X62249500Y-138879051D01*
X62249500Y-137379449D01*
X62245733Y-137360512D01*
X62238386Y-137349517D01*
X62238255Y-137347521D01*
X62239918Y-137346410D01*
X62241160Y-137346743D01*
G37*
G36*
X63041160Y-137346743D02*
G01*
X63054952Y-137355959D01*
X63055486Y-137355160D01*
X63057280Y-137354275D01*
X63058468Y-137354767D01*
X63071139Y-137365878D01*
X63133550Y-137378288D01*
X63193869Y-137357807D01*
X63194911Y-137356765D01*
X63195214Y-137356516D01*
X63209840Y-137346743D01*
X63211836Y-137346612D01*
X63212947Y-137348275D01*
X63212614Y-137349517D01*
X63205267Y-137360512D01*
X63201500Y-137379449D01*
X63201500Y-138879051D01*
X63205267Y-138897988D01*
X63212614Y-138908983D01*
X63212745Y-138910979D01*
X63211082Y-138912090D01*
X63209840Y-138911757D01*
X63196048Y-138902541D01*
X63195514Y-138903340D01*
X63193720Y-138904225D01*
X63192532Y-138903733D01*
X63179861Y-138892622D01*
X63117450Y-138880212D01*
X63057131Y-138900693D01*
X63056089Y-138901735D01*
X63055786Y-138901984D01*
X63041160Y-138911757D01*
X63039164Y-138911888D01*
X63038053Y-138910225D01*
X63038386Y-138908983D01*
X63045733Y-138897988D01*
X63049500Y-138879051D01*
X63049500Y-137379449D01*
X63045733Y-137360512D01*
X63038386Y-137349517D01*
X63038255Y-137347521D01*
X63039918Y-137346410D01*
X63041160Y-137346743D01*
G37*
G36*
X63841160Y-137346743D02*
G01*
X63854952Y-137355959D01*
X63855486Y-137355160D01*
X63857280Y-137354275D01*
X63858468Y-137354767D01*
X63871139Y-137365878D01*
X63933550Y-137378288D01*
X63993869Y-137357807D01*
X63994911Y-137356765D01*
X63995214Y-137356516D01*
X64009840Y-137346743D01*
X64011836Y-137346612D01*
X64012947Y-137348275D01*
X64012614Y-137349517D01*
X64005267Y-137360512D01*
X64001500Y-137379449D01*
X64001500Y-138879051D01*
X64005267Y-138897988D01*
X64012614Y-138908983D01*
X64012745Y-138910979D01*
X64011082Y-138912090D01*
X64009840Y-138911757D01*
X63996048Y-138902541D01*
X63995514Y-138903340D01*
X63993720Y-138904225D01*
X63992532Y-138903733D01*
X63979861Y-138892622D01*
X63917450Y-138880212D01*
X63857131Y-138900693D01*
X63856089Y-138901735D01*
X63855786Y-138901984D01*
X63841160Y-138911757D01*
X63839164Y-138911888D01*
X63838053Y-138910225D01*
X63838386Y-138908983D01*
X63845733Y-138897988D01*
X63849500Y-138879051D01*
X63849500Y-137379449D01*
X63845733Y-137360512D01*
X63838386Y-137349517D01*
X63838255Y-137347521D01*
X63839918Y-137346410D01*
X63841160Y-137346743D01*
G37*
G36*
X64641160Y-137346743D02*
G01*
X64654952Y-137355959D01*
X64655486Y-137355160D01*
X64657280Y-137354275D01*
X64658468Y-137354767D01*
X64671139Y-137365878D01*
X64733550Y-137378288D01*
X64793869Y-137357807D01*
X64794911Y-137356765D01*
X64795214Y-137356516D01*
X64809840Y-137346743D01*
X64811836Y-137346612D01*
X64812947Y-137348275D01*
X64812614Y-137349517D01*
X64805267Y-137360512D01*
X64801500Y-137379449D01*
X64801500Y-138879051D01*
X64805267Y-138897988D01*
X64812614Y-138908983D01*
X64812745Y-138910979D01*
X64811082Y-138912090D01*
X64809840Y-138911757D01*
X64796048Y-138902541D01*
X64795514Y-138903340D01*
X64793720Y-138904225D01*
X64792532Y-138903733D01*
X64779861Y-138892622D01*
X64717450Y-138880212D01*
X64657131Y-138900693D01*
X64656089Y-138901735D01*
X64655786Y-138901984D01*
X64641160Y-138911757D01*
X64639164Y-138911888D01*
X64638053Y-138910225D01*
X64638386Y-138908983D01*
X64645733Y-138897988D01*
X64649500Y-138879051D01*
X64649500Y-137379449D01*
X64645733Y-137360512D01*
X64638386Y-137349517D01*
X64638255Y-137347521D01*
X64639918Y-137346410D01*
X64641160Y-137346743D01*
G37*
G36*
X65441160Y-137346743D02*
G01*
X65454952Y-137355959D01*
X65455486Y-137355160D01*
X65457280Y-137354275D01*
X65458468Y-137354767D01*
X65471139Y-137365878D01*
X65533550Y-137378288D01*
X65593869Y-137357807D01*
X65594911Y-137356765D01*
X65595214Y-137356516D01*
X65609840Y-137346743D01*
X65611836Y-137346612D01*
X65612947Y-137348275D01*
X65612614Y-137349517D01*
X65605267Y-137360512D01*
X65601500Y-137379449D01*
X65601500Y-138879051D01*
X65605267Y-138897988D01*
X65612614Y-138908983D01*
X65612745Y-138910979D01*
X65611082Y-138912090D01*
X65609840Y-138911757D01*
X65596048Y-138902541D01*
X65595514Y-138903340D01*
X65593720Y-138904225D01*
X65592532Y-138903733D01*
X65579861Y-138892622D01*
X65517450Y-138880212D01*
X65457131Y-138900693D01*
X65456089Y-138901735D01*
X65455786Y-138901984D01*
X65441160Y-138911757D01*
X65439164Y-138911888D01*
X65438053Y-138910225D01*
X65438386Y-138908983D01*
X65445733Y-138897988D01*
X65449500Y-138879051D01*
X65449500Y-137379449D01*
X65445733Y-137360512D01*
X65438386Y-137349517D01*
X65438255Y-137347521D01*
X65439918Y-137346410D01*
X65441160Y-137346743D01*
G37*
G36*
X66241160Y-137346743D02*
G01*
X66254952Y-137355959D01*
X66255486Y-137355160D01*
X66257280Y-137354275D01*
X66258468Y-137354767D01*
X66271139Y-137365878D01*
X66333550Y-137378288D01*
X66393869Y-137357807D01*
X66394911Y-137356765D01*
X66395214Y-137356516D01*
X66409840Y-137346743D01*
X66411836Y-137346612D01*
X66412947Y-137348275D01*
X66412614Y-137349517D01*
X66405267Y-137360512D01*
X66401500Y-137379449D01*
X66401500Y-138879051D01*
X66405267Y-138897988D01*
X66412614Y-138908983D01*
X66412745Y-138910979D01*
X66411082Y-138912090D01*
X66409840Y-138911757D01*
X66396048Y-138902541D01*
X66395514Y-138903340D01*
X66393720Y-138904225D01*
X66392532Y-138903733D01*
X66379861Y-138892622D01*
X66317450Y-138880212D01*
X66257131Y-138900693D01*
X66256089Y-138901735D01*
X66255786Y-138901984D01*
X66241160Y-138911757D01*
X66239164Y-138911888D01*
X66238053Y-138910225D01*
X66238386Y-138908983D01*
X66245733Y-138897988D01*
X66249500Y-138879051D01*
X66249500Y-137379449D01*
X66245733Y-137360512D01*
X66238386Y-137349517D01*
X66238255Y-137347521D01*
X66239918Y-137346410D01*
X66241160Y-137346743D01*
G37*
G36*
X67041160Y-137346743D02*
G01*
X67054952Y-137355959D01*
X67055486Y-137355160D01*
X67057280Y-137354275D01*
X67058468Y-137354767D01*
X67071139Y-137365878D01*
X67133550Y-137378288D01*
X67193869Y-137357807D01*
X67194911Y-137356765D01*
X67195214Y-137356516D01*
X67209840Y-137346743D01*
X67211836Y-137346612D01*
X67212947Y-137348275D01*
X67212614Y-137349517D01*
X67205267Y-137360512D01*
X67201500Y-137379449D01*
X67201500Y-138879051D01*
X67205267Y-138897988D01*
X67212614Y-138908983D01*
X67212745Y-138910979D01*
X67211082Y-138912090D01*
X67209840Y-138911757D01*
X67196048Y-138902541D01*
X67195514Y-138903340D01*
X67193720Y-138904225D01*
X67192532Y-138903733D01*
X67179861Y-138892622D01*
X67117450Y-138880212D01*
X67057131Y-138900693D01*
X67056089Y-138901735D01*
X67055786Y-138901984D01*
X67041160Y-138911757D01*
X67039164Y-138911888D01*
X67038053Y-138910225D01*
X67038386Y-138908983D01*
X67045733Y-138897988D01*
X67049500Y-138879051D01*
X67049500Y-137379449D01*
X67045733Y-137360512D01*
X67038386Y-137349517D01*
X67038255Y-137347521D01*
X67039918Y-137346410D01*
X67041160Y-137346743D01*
G37*
G36*
X67841160Y-137346743D02*
G01*
X67854952Y-137355959D01*
X67855486Y-137355160D01*
X67857280Y-137354275D01*
X67858468Y-137354767D01*
X67871139Y-137365878D01*
X67933550Y-137378288D01*
X67993869Y-137357807D01*
X67994911Y-137356765D01*
X67995214Y-137356516D01*
X68009840Y-137346743D01*
X68011836Y-137346612D01*
X68012947Y-137348275D01*
X68012614Y-137349517D01*
X68005267Y-137360512D01*
X68001500Y-137379449D01*
X68001500Y-138879051D01*
X68005267Y-138897988D01*
X68012614Y-138908983D01*
X68012745Y-138910979D01*
X68011082Y-138912090D01*
X68009840Y-138911757D01*
X67996048Y-138902541D01*
X67995514Y-138903340D01*
X67993720Y-138904225D01*
X67992532Y-138903733D01*
X67979861Y-138892622D01*
X67917450Y-138880212D01*
X67857131Y-138900693D01*
X67856089Y-138901735D01*
X67855786Y-138901984D01*
X67841160Y-138911757D01*
X67839164Y-138911888D01*
X67838053Y-138910225D01*
X67838386Y-138908983D01*
X67845733Y-138897988D01*
X67849500Y-138879051D01*
X67849500Y-137379449D01*
X67845733Y-137360512D01*
X67838386Y-137349517D01*
X67838255Y-137347521D01*
X67839918Y-137346410D01*
X67841160Y-137346743D01*
G37*
G36*
X69245767Y-135942136D02*
G01*
X69256762Y-135949483D01*
X69275699Y-135953250D01*
X70775301Y-135953250D01*
X70794238Y-135949483D01*
X70805233Y-135942136D01*
X70807229Y-135942005D01*
X70808340Y-135943668D01*
X70808007Y-135944910D01*
X70798791Y-135958702D01*
X70799590Y-135959236D01*
X70800475Y-135961030D01*
X70799983Y-135962218D01*
X70788872Y-135974889D01*
X70776462Y-136037300D01*
X70796943Y-136097619D01*
X70797985Y-136098661D01*
X70798234Y-136098964D01*
X70808007Y-136113590D01*
X70808138Y-136115586D01*
X70806475Y-136116697D01*
X70805233Y-136116364D01*
X70794238Y-136109017D01*
X70775301Y-136105250D01*
X69275699Y-136105250D01*
X69256762Y-136109017D01*
X69245767Y-136116364D01*
X69243771Y-136116495D01*
X69242660Y-136114832D01*
X69242993Y-136113590D01*
X69252209Y-136099798D01*
X69251410Y-136099264D01*
X69250525Y-136097470D01*
X69251017Y-136096282D01*
X69262128Y-136083611D01*
X69274538Y-136021200D01*
X69254057Y-135960881D01*
X69253015Y-135959839D01*
X69252766Y-135959536D01*
X69242993Y-135944910D01*
X69242862Y-135942914D01*
X69244525Y-135941803D01*
X69245767Y-135942136D01*
G37*
G36*
X57845767Y-135942136D02*
G01*
X57856762Y-135949483D01*
X57875699Y-135953250D01*
X59375301Y-135953250D01*
X59394238Y-135949483D01*
X59405233Y-135942136D01*
X59407229Y-135942005D01*
X59408340Y-135943668D01*
X59408007Y-135944910D01*
X59398791Y-135958702D01*
X59399590Y-135959236D01*
X59400475Y-135961030D01*
X59399983Y-135962218D01*
X59388872Y-135974889D01*
X59376462Y-136037300D01*
X59396943Y-136097619D01*
X59397985Y-136098661D01*
X59398234Y-136098964D01*
X59408007Y-136113590D01*
X59408138Y-136115586D01*
X59406475Y-136116697D01*
X59405233Y-136116364D01*
X59394238Y-136109017D01*
X59375301Y-136105250D01*
X57875699Y-136105250D01*
X57856762Y-136109017D01*
X57845767Y-136116364D01*
X57843771Y-136116495D01*
X57842660Y-136114832D01*
X57842993Y-136113590D01*
X57852209Y-136099798D01*
X57851410Y-136099264D01*
X57850525Y-136097470D01*
X57851017Y-136096282D01*
X57862128Y-136083611D01*
X57874538Y-136021200D01*
X57854057Y-135960881D01*
X57853015Y-135959839D01*
X57852766Y-135959536D01*
X57842993Y-135944910D01*
X57842862Y-135942914D01*
X57844525Y-135941803D01*
X57845767Y-135942136D01*
G37*
G36*
X57845767Y-135142136D02*
G01*
X57856762Y-135149483D01*
X57875699Y-135153250D01*
X59375301Y-135153250D01*
X59394238Y-135149483D01*
X59405233Y-135142136D01*
X59407229Y-135142005D01*
X59408340Y-135143668D01*
X59408007Y-135144910D01*
X59398791Y-135158702D01*
X59399590Y-135159236D01*
X59400475Y-135161030D01*
X59399983Y-135162218D01*
X59388872Y-135174889D01*
X59376462Y-135237300D01*
X59396943Y-135297619D01*
X59397985Y-135298661D01*
X59398234Y-135298964D01*
X59408007Y-135313590D01*
X59408138Y-135315586D01*
X59406475Y-135316697D01*
X59405233Y-135316364D01*
X59394238Y-135309017D01*
X59375301Y-135305250D01*
X57875699Y-135305250D01*
X57856762Y-135309017D01*
X57845767Y-135316364D01*
X57843771Y-135316495D01*
X57842660Y-135314832D01*
X57842993Y-135313590D01*
X57852209Y-135299798D01*
X57851410Y-135299264D01*
X57850525Y-135297470D01*
X57851017Y-135296282D01*
X57862128Y-135283611D01*
X57874538Y-135221200D01*
X57854057Y-135160881D01*
X57853015Y-135159839D01*
X57852766Y-135159536D01*
X57842993Y-135144910D01*
X57842862Y-135142914D01*
X57844525Y-135141803D01*
X57845767Y-135142136D01*
G37*
G36*
X69245767Y-135142136D02*
G01*
X69256762Y-135149483D01*
X69275699Y-135153250D01*
X70775301Y-135153250D01*
X70794238Y-135149483D01*
X70805233Y-135142136D01*
X70807229Y-135142005D01*
X70808340Y-135143668D01*
X70808007Y-135144910D01*
X70798791Y-135158702D01*
X70799590Y-135159236D01*
X70800475Y-135161030D01*
X70799983Y-135162218D01*
X70788872Y-135174889D01*
X70776462Y-135237300D01*
X70796943Y-135297619D01*
X70797985Y-135298661D01*
X70798234Y-135298964D01*
X70808007Y-135313590D01*
X70808138Y-135315586D01*
X70806475Y-135316697D01*
X70805233Y-135316364D01*
X70794238Y-135309017D01*
X70775301Y-135305250D01*
X69275699Y-135305250D01*
X69256762Y-135309017D01*
X69245767Y-135316364D01*
X69243771Y-135316495D01*
X69242660Y-135314832D01*
X69242993Y-135313590D01*
X69252209Y-135299798D01*
X69251410Y-135299264D01*
X69250525Y-135297470D01*
X69251017Y-135296282D01*
X69262128Y-135283611D01*
X69274538Y-135221200D01*
X69254057Y-135160881D01*
X69253015Y-135159839D01*
X69252766Y-135159536D01*
X69242993Y-135144910D01*
X69242862Y-135142914D01*
X69244525Y-135141803D01*
X69245767Y-135142136D01*
G37*
G36*
X57845767Y-134342136D02*
G01*
X57856762Y-134349483D01*
X57875699Y-134353250D01*
X59375301Y-134353250D01*
X59394238Y-134349483D01*
X59405233Y-134342136D01*
X59407229Y-134342005D01*
X59408340Y-134343668D01*
X59408007Y-134344910D01*
X59398791Y-134358702D01*
X59399590Y-134359236D01*
X59400475Y-134361030D01*
X59399983Y-134362218D01*
X59388872Y-134374889D01*
X59376462Y-134437300D01*
X59396943Y-134497619D01*
X59397985Y-134498661D01*
X59398234Y-134498964D01*
X59408007Y-134513590D01*
X59408138Y-134515586D01*
X59406475Y-134516697D01*
X59405233Y-134516364D01*
X59394238Y-134509017D01*
X59375301Y-134505250D01*
X57875699Y-134505250D01*
X57856762Y-134509017D01*
X57845767Y-134516364D01*
X57843771Y-134516495D01*
X57842660Y-134514832D01*
X57842993Y-134513590D01*
X57852209Y-134499798D01*
X57851410Y-134499264D01*
X57850525Y-134497470D01*
X57851017Y-134496282D01*
X57862128Y-134483611D01*
X57874538Y-134421200D01*
X57854057Y-134360881D01*
X57853015Y-134359839D01*
X57852766Y-134359536D01*
X57842993Y-134344910D01*
X57842862Y-134342914D01*
X57844525Y-134341803D01*
X57845767Y-134342136D01*
G37*
G36*
X69245767Y-134342136D02*
G01*
X69256762Y-134349483D01*
X69275699Y-134353250D01*
X70775301Y-134353250D01*
X70794238Y-134349483D01*
X70805233Y-134342136D01*
X70807229Y-134342005D01*
X70808340Y-134343668D01*
X70808007Y-134344910D01*
X70798791Y-134358702D01*
X70799590Y-134359236D01*
X70800475Y-134361030D01*
X70799983Y-134362218D01*
X70788872Y-134374889D01*
X70776462Y-134437300D01*
X70796943Y-134497619D01*
X70797985Y-134498661D01*
X70798234Y-134498964D01*
X70808007Y-134513590D01*
X70808138Y-134515586D01*
X70806475Y-134516697D01*
X70805233Y-134516364D01*
X70794238Y-134509017D01*
X70775301Y-134505250D01*
X69275699Y-134505250D01*
X69256762Y-134509017D01*
X69245767Y-134516364D01*
X69243771Y-134516495D01*
X69242660Y-134514832D01*
X69242993Y-134513590D01*
X69252209Y-134499798D01*
X69251410Y-134499264D01*
X69250525Y-134497470D01*
X69251017Y-134496282D01*
X69262128Y-134483611D01*
X69274538Y-134421200D01*
X69254057Y-134360881D01*
X69253015Y-134359839D01*
X69252766Y-134359536D01*
X69242993Y-134344910D01*
X69242862Y-134342914D01*
X69244525Y-134341803D01*
X69245767Y-134342136D01*
G37*
G36*
X57845767Y-133542136D02*
G01*
X57856762Y-133549483D01*
X57875699Y-133553250D01*
X59375301Y-133553250D01*
X59394238Y-133549483D01*
X59405233Y-133542136D01*
X59407229Y-133542005D01*
X59408340Y-133543668D01*
X59408007Y-133544910D01*
X59398791Y-133558702D01*
X59399590Y-133559236D01*
X59400475Y-133561030D01*
X59399983Y-133562218D01*
X59388872Y-133574889D01*
X59376462Y-133637300D01*
X59396943Y-133697619D01*
X59397985Y-133698661D01*
X59398234Y-133698964D01*
X59408007Y-133713590D01*
X59408138Y-133715586D01*
X59406475Y-133716697D01*
X59405233Y-133716364D01*
X59394238Y-133709017D01*
X59375301Y-133705250D01*
X57875699Y-133705250D01*
X57856762Y-133709017D01*
X57845767Y-133716364D01*
X57843771Y-133716495D01*
X57842660Y-133714832D01*
X57842993Y-133713590D01*
X57852209Y-133699798D01*
X57851410Y-133699264D01*
X57850525Y-133697470D01*
X57851017Y-133696282D01*
X57862128Y-133683611D01*
X57874538Y-133621200D01*
X57854057Y-133560881D01*
X57853015Y-133559839D01*
X57852766Y-133559536D01*
X57842993Y-133544910D01*
X57842862Y-133542914D01*
X57844525Y-133541803D01*
X57845767Y-133542136D01*
G37*
G36*
X69245767Y-133542136D02*
G01*
X69256762Y-133549483D01*
X69275699Y-133553250D01*
X70775301Y-133553250D01*
X70794238Y-133549483D01*
X70805233Y-133542136D01*
X70807229Y-133542005D01*
X70808340Y-133543668D01*
X70808007Y-133544910D01*
X70798791Y-133558702D01*
X70799590Y-133559236D01*
X70800475Y-133561030D01*
X70799983Y-133562218D01*
X70788872Y-133574889D01*
X70776462Y-133637300D01*
X70796943Y-133697619D01*
X70797985Y-133698661D01*
X70798234Y-133698964D01*
X70808007Y-133713590D01*
X70808138Y-133715586D01*
X70806475Y-133716697D01*
X70805233Y-133716364D01*
X70794238Y-133709017D01*
X70775301Y-133705250D01*
X69275699Y-133705250D01*
X69256762Y-133709017D01*
X69245767Y-133716364D01*
X69243771Y-133716495D01*
X69242660Y-133714832D01*
X69242993Y-133713590D01*
X69252209Y-133699798D01*
X69251410Y-133699264D01*
X69250525Y-133697470D01*
X69251017Y-133696282D01*
X69262128Y-133683611D01*
X69274538Y-133621200D01*
X69254057Y-133560881D01*
X69253015Y-133559839D01*
X69252766Y-133559536D01*
X69242993Y-133544910D01*
X69242862Y-133542914D01*
X69244525Y-133541803D01*
X69245767Y-133542136D01*
G37*
G36*
X57845767Y-132742136D02*
G01*
X57856762Y-132749483D01*
X57875699Y-132753250D01*
X59375301Y-132753250D01*
X59394238Y-132749483D01*
X59405233Y-132742136D01*
X59407229Y-132742005D01*
X59408340Y-132743668D01*
X59408007Y-132744910D01*
X59398791Y-132758702D01*
X59399590Y-132759236D01*
X59400475Y-132761030D01*
X59399983Y-132762218D01*
X59388872Y-132774889D01*
X59376462Y-132837300D01*
X59396943Y-132897619D01*
X59397985Y-132898661D01*
X59398234Y-132898964D01*
X59408007Y-132913590D01*
X59408138Y-132915586D01*
X59406475Y-132916697D01*
X59405233Y-132916364D01*
X59394238Y-132909017D01*
X59375301Y-132905250D01*
X57875699Y-132905250D01*
X57856762Y-132909017D01*
X57845767Y-132916364D01*
X57843771Y-132916495D01*
X57842660Y-132914832D01*
X57842993Y-132913590D01*
X57852209Y-132899798D01*
X57851410Y-132899264D01*
X57850525Y-132897470D01*
X57851017Y-132896282D01*
X57862128Y-132883611D01*
X57874538Y-132821200D01*
X57854057Y-132760881D01*
X57853015Y-132759839D01*
X57852766Y-132759536D01*
X57842993Y-132744910D01*
X57842862Y-132742914D01*
X57844525Y-132741803D01*
X57845767Y-132742136D01*
G37*
G36*
X69245767Y-132742136D02*
G01*
X69256762Y-132749483D01*
X69275699Y-132753250D01*
X70775301Y-132753250D01*
X70794238Y-132749483D01*
X70805233Y-132742136D01*
X70807229Y-132742005D01*
X70808340Y-132743668D01*
X70808007Y-132744910D01*
X70798791Y-132758702D01*
X70799590Y-132759236D01*
X70800475Y-132761030D01*
X70799983Y-132762218D01*
X70788872Y-132774889D01*
X70776462Y-132837300D01*
X70796943Y-132897619D01*
X70797985Y-132898661D01*
X70798234Y-132898964D01*
X70808007Y-132913590D01*
X70808138Y-132915586D01*
X70806475Y-132916697D01*
X70805233Y-132916364D01*
X70794238Y-132909017D01*
X70775301Y-132905250D01*
X69275699Y-132905250D01*
X69256762Y-132909017D01*
X69245767Y-132916364D01*
X69243771Y-132916495D01*
X69242660Y-132914832D01*
X69242993Y-132913590D01*
X69252209Y-132899798D01*
X69251410Y-132899264D01*
X69250525Y-132897470D01*
X69251017Y-132896282D01*
X69262128Y-132883611D01*
X69274538Y-132821200D01*
X69254057Y-132760881D01*
X69253015Y-132759839D01*
X69252766Y-132759536D01*
X69242993Y-132744910D01*
X69242862Y-132742914D01*
X69244525Y-132741803D01*
X69245767Y-132742136D01*
G37*
G36*
X57845767Y-131942136D02*
G01*
X57856762Y-131949483D01*
X57875699Y-131953250D01*
X59375301Y-131953250D01*
X59394238Y-131949483D01*
X59405233Y-131942136D01*
X59407229Y-131942005D01*
X59408340Y-131943668D01*
X59408007Y-131944910D01*
X59398791Y-131958702D01*
X59399590Y-131959236D01*
X59400475Y-131961030D01*
X59399983Y-131962218D01*
X59388872Y-131974889D01*
X59376462Y-132037300D01*
X59396943Y-132097619D01*
X59397985Y-132098661D01*
X59398234Y-132098964D01*
X59408007Y-132113590D01*
X59408138Y-132115586D01*
X59406475Y-132116697D01*
X59405233Y-132116364D01*
X59394238Y-132109017D01*
X59375301Y-132105250D01*
X57875699Y-132105250D01*
X57856762Y-132109017D01*
X57845767Y-132116364D01*
X57843771Y-132116495D01*
X57842660Y-132114832D01*
X57842993Y-132113590D01*
X57852209Y-132099798D01*
X57851410Y-132099264D01*
X57850525Y-132097470D01*
X57851017Y-132096282D01*
X57862128Y-132083611D01*
X57874538Y-132021200D01*
X57854057Y-131960881D01*
X57853015Y-131959839D01*
X57852766Y-131959536D01*
X57842993Y-131944910D01*
X57842862Y-131942914D01*
X57844525Y-131941803D01*
X57845767Y-131942136D01*
G37*
G36*
X69245767Y-131942136D02*
G01*
X69256762Y-131949483D01*
X69275699Y-131953250D01*
X70775301Y-131953250D01*
X70794238Y-131949483D01*
X70805233Y-131942136D01*
X70807229Y-131942005D01*
X70808340Y-131943668D01*
X70808007Y-131944910D01*
X70798791Y-131958702D01*
X70799590Y-131959236D01*
X70800475Y-131961030D01*
X70799983Y-131962218D01*
X70788872Y-131974889D01*
X70776462Y-132037300D01*
X70796943Y-132097619D01*
X70797985Y-132098661D01*
X70798234Y-132098964D01*
X70808007Y-132113590D01*
X70808138Y-132115586D01*
X70806475Y-132116697D01*
X70805233Y-132116364D01*
X70794238Y-132109017D01*
X70775301Y-132105250D01*
X69275699Y-132105250D01*
X69256762Y-132109017D01*
X69245767Y-132116364D01*
X69243771Y-132116495D01*
X69242660Y-132114832D01*
X69242993Y-132113590D01*
X69252209Y-132099798D01*
X69251410Y-132099264D01*
X69250525Y-132097470D01*
X69251017Y-132096282D01*
X69262128Y-132083611D01*
X69274538Y-132021200D01*
X69254057Y-131960881D01*
X69253015Y-131959839D01*
X69252766Y-131959536D01*
X69242993Y-131944910D01*
X69242862Y-131942914D01*
X69244525Y-131941803D01*
X69245767Y-131942136D01*
G37*
G36*
X57845767Y-131142136D02*
G01*
X57856762Y-131149483D01*
X57875699Y-131153250D01*
X59375301Y-131153250D01*
X59394238Y-131149483D01*
X59405233Y-131142136D01*
X59407229Y-131142005D01*
X59408340Y-131143668D01*
X59408007Y-131144910D01*
X59398791Y-131158702D01*
X59399590Y-131159236D01*
X59400475Y-131161030D01*
X59399983Y-131162218D01*
X59388872Y-131174889D01*
X59376462Y-131237300D01*
X59396943Y-131297619D01*
X59397985Y-131298661D01*
X59398234Y-131298964D01*
X59408007Y-131313590D01*
X59408138Y-131315586D01*
X59406475Y-131316697D01*
X59405233Y-131316364D01*
X59394238Y-131309017D01*
X59375301Y-131305250D01*
X57875699Y-131305250D01*
X57856762Y-131309017D01*
X57845767Y-131316364D01*
X57843771Y-131316495D01*
X57842660Y-131314832D01*
X57842993Y-131313590D01*
X57852209Y-131299798D01*
X57851410Y-131299264D01*
X57850525Y-131297470D01*
X57851017Y-131296282D01*
X57862128Y-131283611D01*
X57874538Y-131221200D01*
X57854057Y-131160881D01*
X57853015Y-131159839D01*
X57852766Y-131159536D01*
X57842993Y-131144910D01*
X57842862Y-131142914D01*
X57844525Y-131141803D01*
X57845767Y-131142136D01*
G37*
G36*
X69245767Y-131142136D02*
G01*
X69256762Y-131149483D01*
X69275699Y-131153250D01*
X70775301Y-131153250D01*
X70794238Y-131149483D01*
X70805233Y-131142136D01*
X70807229Y-131142005D01*
X70808340Y-131143668D01*
X70808007Y-131144910D01*
X70798791Y-131158702D01*
X70799590Y-131159236D01*
X70800475Y-131161030D01*
X70799983Y-131162218D01*
X70788872Y-131174889D01*
X70776462Y-131237300D01*
X70796943Y-131297619D01*
X70797985Y-131298661D01*
X70798234Y-131298964D01*
X70808007Y-131313590D01*
X70808138Y-131315586D01*
X70806475Y-131316697D01*
X70805233Y-131316364D01*
X70794238Y-131309017D01*
X70775301Y-131305250D01*
X69275699Y-131305250D01*
X69256762Y-131309017D01*
X69245767Y-131316364D01*
X69243771Y-131316495D01*
X69242660Y-131314832D01*
X69242993Y-131313590D01*
X69252209Y-131299798D01*
X69251410Y-131299264D01*
X69250525Y-131297470D01*
X69251017Y-131296282D01*
X69262128Y-131283611D01*
X69274538Y-131221200D01*
X69254057Y-131160881D01*
X69253015Y-131159839D01*
X69252766Y-131159536D01*
X69242993Y-131144910D01*
X69242862Y-131142914D01*
X69244525Y-131141803D01*
X69245767Y-131142136D01*
G37*
G36*
X57845767Y-130342136D02*
G01*
X57856762Y-130349483D01*
X57875699Y-130353250D01*
X59375301Y-130353250D01*
X59394238Y-130349483D01*
X59405233Y-130342136D01*
X59407229Y-130342005D01*
X59408340Y-130343668D01*
X59408007Y-130344910D01*
X59398791Y-130358702D01*
X59399590Y-130359236D01*
X59400475Y-130361030D01*
X59399983Y-130362218D01*
X59388872Y-130374889D01*
X59376462Y-130437300D01*
X59396943Y-130497619D01*
X59397985Y-130498661D01*
X59398234Y-130498964D01*
X59408007Y-130513590D01*
X59408138Y-130515586D01*
X59406475Y-130516697D01*
X59405233Y-130516364D01*
X59394238Y-130509017D01*
X59375301Y-130505250D01*
X57875699Y-130505250D01*
X57856762Y-130509017D01*
X57845767Y-130516364D01*
X57843771Y-130516495D01*
X57842660Y-130514832D01*
X57842993Y-130513590D01*
X57852209Y-130499798D01*
X57851410Y-130499264D01*
X57850525Y-130497470D01*
X57851017Y-130496282D01*
X57862128Y-130483611D01*
X57874538Y-130421200D01*
X57854057Y-130360881D01*
X57853015Y-130359839D01*
X57852766Y-130359536D01*
X57842993Y-130344910D01*
X57842862Y-130342914D01*
X57844525Y-130341803D01*
X57845767Y-130342136D01*
G37*
G36*
X69245767Y-130342136D02*
G01*
X69256762Y-130349483D01*
X69275699Y-130353250D01*
X70775301Y-130353250D01*
X70794238Y-130349483D01*
X70805233Y-130342136D01*
X70807229Y-130342005D01*
X70808340Y-130343668D01*
X70808007Y-130344910D01*
X70798791Y-130358702D01*
X70799590Y-130359236D01*
X70800475Y-130361030D01*
X70799983Y-130362218D01*
X70788872Y-130374889D01*
X70776462Y-130437300D01*
X70796943Y-130497619D01*
X70797985Y-130498661D01*
X70798234Y-130498964D01*
X70808007Y-130513590D01*
X70808138Y-130515586D01*
X70806475Y-130516697D01*
X70805233Y-130516364D01*
X70794238Y-130509017D01*
X70775301Y-130505250D01*
X69275699Y-130505250D01*
X69256762Y-130509017D01*
X69245767Y-130516364D01*
X69243771Y-130516495D01*
X69242660Y-130514832D01*
X69242993Y-130513590D01*
X69252209Y-130499798D01*
X69251410Y-130499264D01*
X69250525Y-130497470D01*
X69251017Y-130496282D01*
X69262128Y-130483611D01*
X69274538Y-130421200D01*
X69254057Y-130360881D01*
X69253015Y-130359839D01*
X69252766Y-130359536D01*
X69242993Y-130344910D01*
X69242862Y-130342914D01*
X69244525Y-130341803D01*
X69245767Y-130342136D01*
G37*
G36*
X57845767Y-129542136D02*
G01*
X57856762Y-129549483D01*
X57875699Y-129553250D01*
X59375301Y-129553250D01*
X59394238Y-129549483D01*
X59405233Y-129542136D01*
X59407229Y-129542005D01*
X59408340Y-129543668D01*
X59408007Y-129544910D01*
X59398791Y-129558702D01*
X59399590Y-129559236D01*
X59400475Y-129561030D01*
X59399983Y-129562218D01*
X59388872Y-129574889D01*
X59376462Y-129637300D01*
X59396943Y-129697619D01*
X59397985Y-129698661D01*
X59398234Y-129698964D01*
X59408007Y-129713590D01*
X59408138Y-129715586D01*
X59406475Y-129716697D01*
X59405233Y-129716364D01*
X59394238Y-129709017D01*
X59375301Y-129705250D01*
X57875699Y-129705250D01*
X57856762Y-129709017D01*
X57845767Y-129716364D01*
X57843771Y-129716495D01*
X57842660Y-129714832D01*
X57842993Y-129713590D01*
X57852209Y-129699798D01*
X57851410Y-129699264D01*
X57850525Y-129697470D01*
X57851017Y-129696282D01*
X57862128Y-129683611D01*
X57874538Y-129621200D01*
X57854057Y-129560881D01*
X57853015Y-129559839D01*
X57852766Y-129559536D01*
X57842993Y-129544910D01*
X57842862Y-129542914D01*
X57844525Y-129541803D01*
X57845767Y-129542136D01*
G37*
G36*
X69245767Y-129542136D02*
G01*
X69256762Y-129549483D01*
X69275699Y-129553250D01*
X70775301Y-129553250D01*
X70794238Y-129549483D01*
X70805233Y-129542136D01*
X70807229Y-129542005D01*
X70808340Y-129543668D01*
X70808007Y-129544910D01*
X70798791Y-129558702D01*
X70799590Y-129559236D01*
X70800475Y-129561030D01*
X70799983Y-129562218D01*
X70788872Y-129574889D01*
X70776462Y-129637300D01*
X70796943Y-129697619D01*
X70797985Y-129698661D01*
X70798234Y-129698964D01*
X70808007Y-129713590D01*
X70808138Y-129715586D01*
X70806475Y-129716697D01*
X70805233Y-129716364D01*
X70794238Y-129709017D01*
X70775301Y-129705250D01*
X69275699Y-129705250D01*
X69256762Y-129709017D01*
X69245767Y-129716364D01*
X69243771Y-129716495D01*
X69242660Y-129714832D01*
X69242993Y-129713590D01*
X69252209Y-129699798D01*
X69251410Y-129699264D01*
X69250525Y-129697470D01*
X69251017Y-129696282D01*
X69262128Y-129683611D01*
X69274538Y-129621200D01*
X69254057Y-129560881D01*
X69253015Y-129559839D01*
X69252766Y-129559536D01*
X69242993Y-129544910D01*
X69242862Y-129542914D01*
X69244525Y-129541803D01*
X69245767Y-129542136D01*
G37*
G36*
X57845767Y-128742136D02*
G01*
X57856762Y-128749483D01*
X57875699Y-128753250D01*
X59375301Y-128753250D01*
X59394238Y-128749483D01*
X59405233Y-128742136D01*
X59407229Y-128742005D01*
X59408340Y-128743668D01*
X59408007Y-128744910D01*
X59398791Y-128758702D01*
X59399590Y-128759236D01*
X59400475Y-128761030D01*
X59399983Y-128762218D01*
X59388872Y-128774889D01*
X59376462Y-128837300D01*
X59396943Y-128897619D01*
X59397985Y-128898661D01*
X59398234Y-128898964D01*
X59408007Y-128913590D01*
X59408138Y-128915586D01*
X59406475Y-128916697D01*
X59405233Y-128916364D01*
X59394238Y-128909017D01*
X59375301Y-128905250D01*
X57875699Y-128905250D01*
X57856762Y-128909017D01*
X57845767Y-128916364D01*
X57843771Y-128916495D01*
X57842660Y-128914832D01*
X57842993Y-128913590D01*
X57852209Y-128899798D01*
X57851410Y-128899264D01*
X57850525Y-128897470D01*
X57851017Y-128896282D01*
X57862128Y-128883611D01*
X57874538Y-128821200D01*
X57854057Y-128760881D01*
X57853015Y-128759839D01*
X57852766Y-128759536D01*
X57842993Y-128744910D01*
X57842862Y-128742914D01*
X57844525Y-128741803D01*
X57845767Y-128742136D01*
G37*
G36*
X69245767Y-128742136D02*
G01*
X69256762Y-128749483D01*
X69275699Y-128753250D01*
X70775301Y-128753250D01*
X70794238Y-128749483D01*
X70805233Y-128742136D01*
X70807229Y-128742005D01*
X70808340Y-128743668D01*
X70808007Y-128744910D01*
X70798791Y-128758702D01*
X70799590Y-128759236D01*
X70800475Y-128761030D01*
X70799983Y-128762218D01*
X70788872Y-128774889D01*
X70776462Y-128837300D01*
X70796943Y-128897619D01*
X70797985Y-128898661D01*
X70798234Y-128898964D01*
X70808007Y-128913590D01*
X70808138Y-128915586D01*
X70806475Y-128916697D01*
X70805233Y-128916364D01*
X70794238Y-128909017D01*
X70775301Y-128905250D01*
X69275699Y-128905250D01*
X69256762Y-128909017D01*
X69245767Y-128916364D01*
X69243771Y-128916495D01*
X69242660Y-128914832D01*
X69242993Y-128913590D01*
X69252209Y-128899798D01*
X69251410Y-128899264D01*
X69250525Y-128897470D01*
X69251017Y-128896282D01*
X69262128Y-128883611D01*
X69274538Y-128821200D01*
X69254057Y-128760881D01*
X69253015Y-128759839D01*
X69252766Y-128759536D01*
X69242993Y-128744910D01*
X69242862Y-128742914D01*
X69244525Y-128741803D01*
X69245767Y-128742136D01*
G37*
G36*
X65441160Y-125946743D02*
G01*
X65454952Y-125955959D01*
X65455486Y-125955160D01*
X65457280Y-125954275D01*
X65458468Y-125954767D01*
X65471139Y-125965878D01*
X65533550Y-125978288D01*
X65593869Y-125957807D01*
X65594911Y-125956765D01*
X65595214Y-125956516D01*
X65609840Y-125946743D01*
X65611836Y-125946612D01*
X65612947Y-125948275D01*
X65612614Y-125949517D01*
X65605267Y-125960512D01*
X65601500Y-125979449D01*
X65601500Y-127479051D01*
X65605267Y-127497988D01*
X65612614Y-127508983D01*
X65612745Y-127510979D01*
X65611082Y-127512090D01*
X65609840Y-127511757D01*
X65596048Y-127502541D01*
X65595514Y-127503340D01*
X65593720Y-127504225D01*
X65592532Y-127503733D01*
X65579861Y-127492622D01*
X65517450Y-127480212D01*
X65457131Y-127500693D01*
X65456089Y-127501735D01*
X65455786Y-127501984D01*
X65441160Y-127511757D01*
X65439164Y-127511888D01*
X65438053Y-127510225D01*
X65438386Y-127508983D01*
X65445733Y-127497988D01*
X65449500Y-127479051D01*
X65449500Y-125979449D01*
X65445733Y-125960512D01*
X65438386Y-125949517D01*
X65438255Y-125947521D01*
X65439918Y-125946410D01*
X65441160Y-125946743D01*
G37*
G36*
X61441160Y-125946743D02*
G01*
X61454952Y-125955959D01*
X61455486Y-125955160D01*
X61457280Y-125954275D01*
X61458468Y-125954767D01*
X61471139Y-125965878D01*
X61533550Y-125978288D01*
X61593869Y-125957807D01*
X61594911Y-125956765D01*
X61595214Y-125956516D01*
X61609840Y-125946743D01*
X61611836Y-125946612D01*
X61612947Y-125948275D01*
X61612614Y-125949517D01*
X61605267Y-125960512D01*
X61601500Y-125979449D01*
X61601500Y-127479051D01*
X61605267Y-127497988D01*
X61612614Y-127508983D01*
X61612745Y-127510979D01*
X61611082Y-127512090D01*
X61609840Y-127511757D01*
X61596048Y-127502541D01*
X61595514Y-127503340D01*
X61593720Y-127504225D01*
X61592532Y-127503733D01*
X61579861Y-127492622D01*
X61517450Y-127480212D01*
X61457131Y-127500693D01*
X61456089Y-127501735D01*
X61455786Y-127501984D01*
X61441160Y-127511757D01*
X61439164Y-127511888D01*
X61438053Y-127510225D01*
X61438386Y-127508983D01*
X61445733Y-127497988D01*
X61449500Y-127479051D01*
X61449500Y-125979449D01*
X61445733Y-125960512D01*
X61438386Y-125949517D01*
X61438255Y-125947521D01*
X61439918Y-125946410D01*
X61441160Y-125946743D01*
G37*
G36*
X62241160Y-125946743D02*
G01*
X62254952Y-125955959D01*
X62255486Y-125955160D01*
X62257280Y-125954275D01*
X62258468Y-125954767D01*
X62271139Y-125965878D01*
X62333550Y-125978288D01*
X62393869Y-125957807D01*
X62394911Y-125956765D01*
X62395214Y-125956516D01*
X62409840Y-125946743D01*
X62411836Y-125946612D01*
X62412947Y-125948275D01*
X62412614Y-125949517D01*
X62405267Y-125960512D01*
X62401500Y-125979449D01*
X62401500Y-127479051D01*
X62405267Y-127497988D01*
X62412614Y-127508983D01*
X62412745Y-127510979D01*
X62411082Y-127512090D01*
X62409840Y-127511757D01*
X62396048Y-127502541D01*
X62395514Y-127503340D01*
X62393720Y-127504225D01*
X62392532Y-127503733D01*
X62379861Y-127492622D01*
X62317450Y-127480212D01*
X62257131Y-127500693D01*
X62256089Y-127501735D01*
X62255786Y-127501984D01*
X62241160Y-127511757D01*
X62239164Y-127511888D01*
X62238053Y-127510225D01*
X62238386Y-127508983D01*
X62245733Y-127497988D01*
X62249500Y-127479051D01*
X62249500Y-125979449D01*
X62245733Y-125960512D01*
X62238386Y-125949517D01*
X62238255Y-125947521D01*
X62239918Y-125946410D01*
X62241160Y-125946743D01*
G37*
G36*
X66241160Y-125946743D02*
G01*
X66254952Y-125955959D01*
X66255486Y-125955160D01*
X66257280Y-125954275D01*
X66258468Y-125954767D01*
X66271139Y-125965878D01*
X66333550Y-125978288D01*
X66393869Y-125957807D01*
X66394911Y-125956765D01*
X66395214Y-125956516D01*
X66409840Y-125946743D01*
X66411836Y-125946612D01*
X66412947Y-125948275D01*
X66412614Y-125949517D01*
X66405267Y-125960512D01*
X66401500Y-125979449D01*
X66401500Y-127479051D01*
X66405267Y-127497988D01*
X66412614Y-127508983D01*
X66412745Y-127510979D01*
X66411082Y-127512090D01*
X66409840Y-127511757D01*
X66396048Y-127502541D01*
X66395514Y-127503340D01*
X66393720Y-127504225D01*
X66392532Y-127503733D01*
X66379861Y-127492622D01*
X66317450Y-127480212D01*
X66257131Y-127500693D01*
X66256089Y-127501735D01*
X66255786Y-127501984D01*
X66241160Y-127511757D01*
X66239164Y-127511888D01*
X66238053Y-127510225D01*
X66238386Y-127508983D01*
X66245733Y-127497988D01*
X66249500Y-127479051D01*
X66249500Y-125979449D01*
X66245733Y-125960512D01*
X66238386Y-125949517D01*
X66238255Y-125947521D01*
X66239918Y-125946410D01*
X66241160Y-125946743D01*
G37*
G36*
X64641160Y-125946743D02*
G01*
X64654952Y-125955959D01*
X64655486Y-125955160D01*
X64657280Y-125954275D01*
X64658468Y-125954767D01*
X64671139Y-125965878D01*
X64733550Y-125978288D01*
X64793869Y-125957807D01*
X64794911Y-125956765D01*
X64795214Y-125956516D01*
X64809840Y-125946743D01*
X64811836Y-125946612D01*
X64812947Y-125948275D01*
X64812614Y-125949517D01*
X64805267Y-125960512D01*
X64801500Y-125979449D01*
X64801500Y-127479051D01*
X64805267Y-127497988D01*
X64812614Y-127508983D01*
X64812745Y-127510979D01*
X64811082Y-127512090D01*
X64809840Y-127511757D01*
X64796048Y-127502541D01*
X64795514Y-127503340D01*
X64793720Y-127504225D01*
X64792532Y-127503733D01*
X64779861Y-127492622D01*
X64717450Y-127480212D01*
X64657131Y-127500693D01*
X64656089Y-127501735D01*
X64655786Y-127501984D01*
X64641160Y-127511757D01*
X64639164Y-127511888D01*
X64638053Y-127510225D01*
X64638386Y-127508983D01*
X64645733Y-127497988D01*
X64649500Y-127479051D01*
X64649500Y-125979449D01*
X64645733Y-125960512D01*
X64638386Y-125949517D01*
X64638255Y-125947521D01*
X64639918Y-125946410D01*
X64641160Y-125946743D01*
G37*
G36*
X67041160Y-125946743D02*
G01*
X67054952Y-125955959D01*
X67055486Y-125955160D01*
X67057280Y-125954275D01*
X67058468Y-125954767D01*
X67071139Y-125965878D01*
X67133550Y-125978288D01*
X67193869Y-125957807D01*
X67194911Y-125956765D01*
X67195214Y-125956516D01*
X67209840Y-125946743D01*
X67211836Y-125946612D01*
X67212947Y-125948275D01*
X67212614Y-125949517D01*
X67205267Y-125960512D01*
X67201500Y-125979449D01*
X67201500Y-127479051D01*
X67205267Y-127497988D01*
X67212614Y-127508983D01*
X67212745Y-127510979D01*
X67211082Y-127512090D01*
X67209840Y-127511757D01*
X67196048Y-127502541D01*
X67195514Y-127503340D01*
X67193720Y-127504225D01*
X67192532Y-127503733D01*
X67179861Y-127492622D01*
X67117450Y-127480212D01*
X67057131Y-127500693D01*
X67056089Y-127501735D01*
X67055786Y-127501984D01*
X67041160Y-127511757D01*
X67039164Y-127511888D01*
X67038053Y-127510225D01*
X67038386Y-127508983D01*
X67045733Y-127497988D01*
X67049500Y-127479051D01*
X67049500Y-125979449D01*
X67045733Y-125960512D01*
X67038386Y-125949517D01*
X67038255Y-125947521D01*
X67039918Y-125946410D01*
X67041160Y-125946743D01*
G37*
G36*
X63841160Y-125946743D02*
G01*
X63854952Y-125955959D01*
X63855486Y-125955160D01*
X63857280Y-125954275D01*
X63858468Y-125954767D01*
X63871139Y-125965878D01*
X63933550Y-125978288D01*
X63993869Y-125957807D01*
X63994911Y-125956765D01*
X63995214Y-125956516D01*
X64009840Y-125946743D01*
X64011836Y-125946612D01*
X64012947Y-125948275D01*
X64012614Y-125949517D01*
X64005267Y-125960512D01*
X64001500Y-125979449D01*
X64001500Y-127479051D01*
X64005267Y-127497988D01*
X64012614Y-127508983D01*
X64012745Y-127510979D01*
X64011082Y-127512090D01*
X64009840Y-127511757D01*
X63996048Y-127502541D01*
X63995514Y-127503340D01*
X63993720Y-127504225D01*
X63992532Y-127503733D01*
X63979861Y-127492622D01*
X63917450Y-127480212D01*
X63857131Y-127500693D01*
X63856089Y-127501735D01*
X63855786Y-127501984D01*
X63841160Y-127511757D01*
X63839164Y-127511888D01*
X63838053Y-127510225D01*
X63838386Y-127508983D01*
X63845733Y-127497988D01*
X63849500Y-127479051D01*
X63849500Y-125979449D01*
X63845733Y-125960512D01*
X63838386Y-125949517D01*
X63838255Y-125947521D01*
X63839918Y-125946410D01*
X63841160Y-125946743D01*
G37*
G36*
X67841160Y-125946743D02*
G01*
X67854952Y-125955959D01*
X67855486Y-125955160D01*
X67857280Y-125954275D01*
X67858468Y-125954767D01*
X67871139Y-125965878D01*
X67933550Y-125978288D01*
X67993869Y-125957807D01*
X67994911Y-125956765D01*
X67995214Y-125956516D01*
X68009840Y-125946743D01*
X68011836Y-125946612D01*
X68012947Y-125948275D01*
X68012614Y-125949517D01*
X68005267Y-125960512D01*
X68001500Y-125979449D01*
X68001500Y-127479051D01*
X68005267Y-127497988D01*
X68012614Y-127508983D01*
X68012745Y-127510979D01*
X68011082Y-127512090D01*
X68009840Y-127511757D01*
X67996048Y-127502541D01*
X67995514Y-127503340D01*
X67993720Y-127504225D01*
X67992532Y-127503733D01*
X67979861Y-127492622D01*
X67917450Y-127480212D01*
X67857131Y-127500693D01*
X67856089Y-127501735D01*
X67855786Y-127501984D01*
X67841160Y-127511757D01*
X67839164Y-127511888D01*
X67838053Y-127510225D01*
X67838386Y-127508983D01*
X67845733Y-127497988D01*
X67849500Y-127479051D01*
X67849500Y-125979449D01*
X67845733Y-125960512D01*
X67838386Y-125949517D01*
X67838255Y-125947521D01*
X67839918Y-125946410D01*
X67841160Y-125946743D01*
G37*
G36*
X63041160Y-125946743D02*
G01*
X63054952Y-125955959D01*
X63055486Y-125955160D01*
X63057280Y-125954275D01*
X63058468Y-125954767D01*
X63071139Y-125965878D01*
X63133550Y-125978288D01*
X63193869Y-125957807D01*
X63194911Y-125956765D01*
X63195214Y-125956516D01*
X63209840Y-125946743D01*
X63211836Y-125946612D01*
X63212947Y-125948275D01*
X63212614Y-125949517D01*
X63205267Y-125960512D01*
X63201500Y-125979449D01*
X63201500Y-127479051D01*
X63205267Y-127497988D01*
X63212614Y-127508983D01*
X63212745Y-127510979D01*
X63211082Y-127512090D01*
X63209840Y-127511757D01*
X63196048Y-127502541D01*
X63195514Y-127503340D01*
X63193720Y-127504225D01*
X63192532Y-127503733D01*
X63179861Y-127492622D01*
X63117450Y-127480212D01*
X63057131Y-127500693D01*
X63056089Y-127501735D01*
X63055786Y-127501984D01*
X63041160Y-127511757D01*
X63039164Y-127511888D01*
X63038053Y-127510225D01*
X63038386Y-127508983D01*
X63045733Y-127497988D01*
X63049500Y-127479051D01*
X63049500Y-125979449D01*
X63045733Y-125960512D01*
X63038386Y-125949517D01*
X63038255Y-125947521D01*
X63039918Y-125946410D01*
X63041160Y-125946743D01*
G37*
G36*
X60641160Y-125946743D02*
G01*
X60654952Y-125955959D01*
X60655486Y-125955160D01*
X60657280Y-125954275D01*
X60658468Y-125954767D01*
X60671139Y-125965878D01*
X60733550Y-125978288D01*
X60793869Y-125957807D01*
X60794911Y-125956765D01*
X60795214Y-125956516D01*
X60809840Y-125946743D01*
X60811836Y-125946612D01*
X60812947Y-125948275D01*
X60812614Y-125949517D01*
X60805267Y-125960512D01*
X60801500Y-125979449D01*
X60801500Y-127479051D01*
X60805267Y-127497988D01*
X60812614Y-127508983D01*
X60812745Y-127510979D01*
X60811082Y-127512090D01*
X60809840Y-127511757D01*
X60796048Y-127502541D01*
X60795514Y-127503340D01*
X60793720Y-127504225D01*
X60792532Y-127503733D01*
X60779861Y-127492622D01*
X60717450Y-127480212D01*
X60657131Y-127500693D01*
X60656089Y-127501735D01*
X60655786Y-127501984D01*
X60641160Y-127511757D01*
X60639164Y-127511888D01*
X60638053Y-127510225D01*
X60638386Y-127508983D01*
X60645733Y-127497988D01*
X60649500Y-127479051D01*
X60649500Y-125979449D01*
X60645733Y-125960512D01*
X60638386Y-125949517D01*
X60638255Y-125947521D01*
X60639918Y-125946410D01*
X60641160Y-125946743D01*
G37*
G36*
X54815650Y-109723119D02*
G01*
X54812750Y-109737699D01*
X54812750Y-111987301D01*
X54815709Y-112002178D01*
X54815066Y-112004072D01*
X54812428Y-112004072D01*
X54766119Y-111963461D01*
X54703709Y-111951047D01*
X54643388Y-111971523D01*
X54611226Y-112003685D01*
X54609294Y-112004203D01*
X54607850Y-112001881D01*
X54610750Y-111987301D01*
X54610750Y-109737699D01*
X54607791Y-109722822D01*
X54608434Y-109720928D01*
X54611072Y-109720928D01*
X54657381Y-109761539D01*
X54719791Y-109773953D01*
X54780112Y-109753477D01*
X54812274Y-109721315D01*
X54814206Y-109720797D01*
X54815650Y-109723119D01*
G37*
G36*
X55615650Y-109723119D02*
G01*
X55612750Y-109737699D01*
X55612750Y-111987301D01*
X55615709Y-112002178D01*
X55615066Y-112004072D01*
X55612428Y-112004072D01*
X55566119Y-111963461D01*
X55503709Y-111951047D01*
X55443388Y-111971523D01*
X55411226Y-112003685D01*
X55409294Y-112004203D01*
X55407850Y-112001881D01*
X55410750Y-111987301D01*
X55410750Y-109737699D01*
X55407791Y-109722822D01*
X55408434Y-109720928D01*
X55411072Y-109720928D01*
X55457381Y-109761539D01*
X55519791Y-109773953D01*
X55580112Y-109753477D01*
X55612274Y-109721315D01*
X55614206Y-109720797D01*
X55615650Y-109723119D01*
G37*
G36*
X56415650Y-109723119D02*
G01*
X56412750Y-109737699D01*
X56412750Y-111987301D01*
X56415709Y-112002178D01*
X56415066Y-112004072D01*
X56412428Y-112004072D01*
X56366119Y-111963461D01*
X56303709Y-111951047D01*
X56243388Y-111971523D01*
X56211226Y-112003685D01*
X56209294Y-112004203D01*
X56207850Y-112001881D01*
X56210750Y-111987301D01*
X56210750Y-109737699D01*
X56207791Y-109722822D01*
X56208434Y-109720928D01*
X56211072Y-109720928D01*
X56257381Y-109761539D01*
X56319791Y-109773953D01*
X56380112Y-109753477D01*
X56412274Y-109721315D01*
X56414206Y-109720797D01*
X56415650Y-109723119D01*
G37*
G36*
X57215650Y-109723119D02*
G01*
X57212750Y-109737699D01*
X57212750Y-111987301D01*
X57215709Y-112002178D01*
X57215066Y-112004072D01*
X57212428Y-112004072D01*
X57166119Y-111963461D01*
X57103709Y-111951047D01*
X57043388Y-111971523D01*
X57011226Y-112003685D01*
X57009294Y-112004203D01*
X57007850Y-112001881D01*
X57010750Y-111987301D01*
X57010750Y-109737699D01*
X57007791Y-109722822D01*
X57008434Y-109720928D01*
X57011072Y-109720928D01*
X57057381Y-109761539D01*
X57119791Y-109773953D01*
X57180112Y-109753477D01*
X57212274Y-109721315D01*
X57214206Y-109720797D01*
X57215650Y-109723119D01*
G37*
G36*
X73502794Y-108328089D02*
G01*
X73530480Y-108384231D01*
X73583388Y-108419583D01*
X73646850Y-108423742D01*
X73710087Y-108389941D01*
X73734475Y-108365553D01*
X73734889Y-108365235D01*
X73749861Y-108356591D01*
X73751861Y-108356591D01*
X73752861Y-108358323D01*
X73752157Y-108359846D01*
X73669738Y-108429990D01*
X73595955Y-108542313D01*
X73556663Y-108670830D01*
X73555021Y-108805208D01*
X73591161Y-108934642D01*
X73662177Y-109048735D01*
X73747354Y-109124891D01*
X73747979Y-109126791D01*
X73746646Y-109128282D01*
X73745021Y-109128114D01*
X73734889Y-109122265D01*
X73734475Y-109121947D01*
X73710063Y-109097535D01*
X73654718Y-109065582D01*
X73591086Y-109065582D01*
X73536009Y-109097380D01*
X73502764Y-109159578D01*
X73501065Y-109160634D01*
X73499302Y-109159691D01*
X73499000Y-109158635D01*
X73499000Y-108328974D01*
X73500000Y-108327242D01*
X73502000Y-108327242D01*
X73502794Y-108328089D01*
G37*
G36*
X74658706Y-108445564D02*
G01*
X74658446Y-108447180D01*
X74595955Y-108542313D01*
X74556663Y-108670830D01*
X74555021Y-108805208D01*
X74591161Y-108934642D01*
X74654479Y-109036368D01*
X74654545Y-109038367D01*
X74652847Y-109039424D01*
X74651367Y-109038839D01*
X74646803Y-109034275D01*
X74646485Y-109033861D01*
X74631651Y-109008168D01*
X74586466Y-108962982D01*
X74525000Y-108946512D01*
X74463535Y-108962982D01*
X74418349Y-109008168D01*
X74403515Y-109033861D01*
X74403197Y-109034275D01*
X74392660Y-109044812D01*
X74390728Y-109045330D01*
X74389314Y-109043916D01*
X74389588Y-109042280D01*
X74451553Y-108950413D01*
X74492407Y-108822400D01*
X74494189Y-108676545D01*
X74456475Y-108547571D01*
X74393534Y-108449153D01*
X74393443Y-108447155D01*
X74395128Y-108446077D01*
X74396633Y-108446661D01*
X74403197Y-108453225D01*
X74403515Y-108453639D01*
X74418349Y-108479332D01*
X74463534Y-108524518D01*
X74525000Y-108540988D01*
X74586465Y-108524518D01*
X74631651Y-108479332D01*
X74646485Y-108453639D01*
X74646803Y-108453225D01*
X74655360Y-108444668D01*
X74657292Y-108444150D01*
X74658706Y-108445564D01*
G37*
G36*
X74771777Y-108142800D02*
G01*
X74883656Y-108196164D01*
X75016312Y-108217650D01*
X75149671Y-108201039D01*
X75273008Y-108147667D01*
X75274173Y-108146699D01*
X75276144Y-108146361D01*
X75277422Y-108147899D01*
X75276865Y-108149651D01*
X75244232Y-108182284D01*
X75227762Y-108243750D01*
X75244232Y-108305215D01*
X75279005Y-108339988D01*
X75279523Y-108341920D01*
X75278109Y-108343334D01*
X75276752Y-108343218D01*
X75160806Y-108289642D01*
X75027894Y-108269779D01*
X74894755Y-108288017D01*
X74774762Y-108341692D01*
X74772772Y-108341486D01*
X74771956Y-108339660D01*
X74772531Y-108338452D01*
X74805768Y-108305216D01*
X74822238Y-108243750D01*
X74805768Y-108182285D01*
X74769502Y-108146019D01*
X74768984Y-108144087D01*
X74770398Y-108142673D01*
X74771777Y-108142800D01*
G37*
G36*
X73771777Y-108142800D02*
G01*
X73883656Y-108196164D01*
X74016312Y-108217650D01*
X74149671Y-108201039D01*
X74273008Y-108147667D01*
X74274173Y-108146699D01*
X74276144Y-108146361D01*
X74277422Y-108147899D01*
X74276865Y-108149651D01*
X74244232Y-108182284D01*
X74227762Y-108243750D01*
X74244232Y-108305215D01*
X74279005Y-108339988D01*
X74279523Y-108341920D01*
X74278109Y-108343334D01*
X74276752Y-108343218D01*
X74160806Y-108289642D01*
X74027894Y-108269779D01*
X73894755Y-108288017D01*
X73774762Y-108341692D01*
X73772772Y-108341486D01*
X73771956Y-108339660D01*
X73772531Y-108338452D01*
X73805768Y-108305216D01*
X73822238Y-108243750D01*
X73805768Y-108182285D01*
X73769502Y-108146019D01*
X73768984Y-108144087D01*
X73770398Y-108142673D01*
X73771777Y-108142800D01*
G37*
G36*
X72677702Y-108062616D02*
G01*
X72762360Y-108138309D01*
X72883656Y-108196164D01*
X73016312Y-108217650D01*
X73149671Y-108201039D01*
X73273005Y-108147668D01*
X73368901Y-108068053D01*
X73370873Y-108067716D01*
X73372150Y-108069255D01*
X73371911Y-108070592D01*
X73346832Y-108114032D01*
X73346832Y-108177664D01*
X73378630Y-108232741D01*
X73440828Y-108265986D01*
X73441884Y-108267685D01*
X73440941Y-108269448D01*
X73439885Y-108269750D01*
X72610224Y-108269750D01*
X72608492Y-108268750D01*
X72608492Y-108266750D01*
X72609339Y-108265956D01*
X72665481Y-108238270D01*
X72700833Y-108185362D01*
X72704992Y-108121900D01*
X72674605Y-108065050D01*
X72674671Y-108063051D01*
X72676434Y-108062108D01*
X72677702Y-108062616D01*
G37*
G36*
X73658706Y-107445564D02*
G01*
X73658446Y-107447180D01*
X73595955Y-107542313D01*
X73556663Y-107670830D01*
X73555021Y-107805208D01*
X73591161Y-107934642D01*
X73654479Y-108036368D01*
X73654545Y-108038367D01*
X73652847Y-108039424D01*
X73651367Y-108038839D01*
X73646803Y-108034275D01*
X73646485Y-108033861D01*
X73631651Y-108008168D01*
X73586466Y-107962982D01*
X73525000Y-107946512D01*
X73463535Y-107962982D01*
X73418349Y-108008168D01*
X73403515Y-108033861D01*
X73403197Y-108034275D01*
X73392660Y-108044812D01*
X73390728Y-108045330D01*
X73389314Y-108043916D01*
X73389588Y-108042280D01*
X73451553Y-107950413D01*
X73492407Y-107822400D01*
X73494189Y-107676545D01*
X73456475Y-107547571D01*
X73393534Y-107449153D01*
X73393443Y-107447155D01*
X73395128Y-107446077D01*
X73396633Y-107446661D01*
X73403197Y-107453225D01*
X73403515Y-107453639D01*
X73418349Y-107479332D01*
X73463534Y-107524518D01*
X73525000Y-107540988D01*
X73586465Y-107524518D01*
X73631651Y-107479332D01*
X73646485Y-107453639D01*
X73646803Y-107453225D01*
X73655360Y-107444668D01*
X73657292Y-107444150D01*
X73658706Y-107445564D01*
G37*
G36*
X74658706Y-107445564D02*
G01*
X74658446Y-107447180D01*
X74595955Y-107542313D01*
X74556663Y-107670830D01*
X74555021Y-107805208D01*
X74591161Y-107934642D01*
X74654479Y-108036368D01*
X74654545Y-108038367D01*
X74652847Y-108039424D01*
X74651367Y-108038839D01*
X74646803Y-108034275D01*
X74646485Y-108033861D01*
X74631651Y-108008168D01*
X74586466Y-107962982D01*
X74525000Y-107946512D01*
X74463535Y-107962982D01*
X74418349Y-108008168D01*
X74403515Y-108033861D01*
X74403197Y-108034275D01*
X74392660Y-108044812D01*
X74390728Y-108045330D01*
X74389314Y-108043916D01*
X74389588Y-108042280D01*
X74451553Y-107950413D01*
X74492407Y-107822400D01*
X74494189Y-107676545D01*
X74456475Y-107547571D01*
X74393534Y-107449153D01*
X74393443Y-107447155D01*
X74395128Y-107446077D01*
X74396633Y-107446661D01*
X74403197Y-107453225D01*
X74403515Y-107453639D01*
X74418349Y-107479332D01*
X74463534Y-107524518D01*
X74525000Y-107540988D01*
X74586465Y-107524518D01*
X74631651Y-107479332D01*
X74646485Y-107453639D01*
X74646803Y-107453225D01*
X74655360Y-107444668D01*
X74657292Y-107444150D01*
X74658706Y-107445564D01*
G37*
M02*
