G04 #@! TF.GenerationSoftware,KiCad,Pcbnew,(5.99.0-1615-g0042cd509)*
G04 #@! TF.CreationDate,2020-07-12T13:46:49-05:00*
G04 #@! TF.ProjectId,my-keyboard,6d792d6b-6579-4626-9f61-72642e6b6963,rev?*
G04 #@! TF.SameCoordinates,Original*
G04 #@! TF.FileFunction,Copper,L1,Top*
G04 #@! TF.FilePolarity,Positive*
%FSLAX46Y46*%
G04 Gerber Fmt 4.6, Leading zero omitted, Abs format (unit mm)*
G04 Created by KiCad (PCBNEW (5.99.0-1615-g0042cd509)) date 2020-07-12 13:46:49*
%MOMM*%
%LPD*%
G01*
G04 APERTURE LIST*
%ADD10C,0.300000*%
G04 #@! TA.AperFunction,ComponentPad*
%ADD11C,2.250000*%
G04 #@! TD*
G04 #@! TA.AperFunction,ComponentPad*
%ADD12R,1.905000X1.905000*%
G04 #@! TD*
G04 #@! TA.AperFunction,ComponentPad*
%ADD13C,1.905000*%
G04 #@! TD*
G04 #@! TA.AperFunction,ComponentPad*
%ADD14O,0.850000X0.850000*%
G04 #@! TD*
G04 #@! TA.AperFunction,ComponentPad*
%ADD15R,0.850000X0.850000*%
G04 #@! TD*
G04 #@! TA.AperFunction,SMDPad,CuDef*
%ADD16R,1.400000X1.200000*%
G04 #@! TD*
G04 #@! TA.AperFunction,ComponentPad*
%ADD17O,1.700000X2.700000*%
G04 #@! TD*
G04 #@! TA.AperFunction,SMDPad,CuDef*
%ADD18R,0.500000X2.250000*%
G04 #@! TD*
G04 #@! TA.AperFunction,SMDPad,CuDef*
%ADD19R,0.550000X1.500000*%
G04 #@! TD*
G04 #@! TA.AperFunction,SMDPad,CuDef*
%ADD20R,1.500000X0.550000*%
G04 #@! TD*
G04 #@! TA.AperFunction,SMDPad,CuDef*
%ADD21R,1.800000X1.100000*%
G04 #@! TD*
G04 #@! TA.AperFunction,ViaPad*
%ADD22C,0.800000*%
G04 #@! TD*
G04 #@! TA.AperFunction,Conductor*
%ADD23C,0.381000*%
G04 #@! TD*
G04 #@! TA.AperFunction,Conductor*
%ADD24C,0.254000*%
G04 #@! TD*
G04 #@! TA.AperFunction,Conductor*
%ADD25C,0.203200*%
G04 #@! TD*
G04 APERTURE END LIST*
D10*
X302277678Y-266469642D02*
X302277678Y-263469642D01*
X303277678Y-265612500D01*
X304277678Y-263469642D01*
X304277678Y-266469642D01*
X306991964Y-266469642D02*
X306991964Y-264898214D01*
X306849107Y-264612500D01*
X306563392Y-264469642D01*
X305991964Y-264469642D01*
X305706250Y-264612500D01*
X306991964Y-266326785D02*
X306706250Y-266469642D01*
X305991964Y-266469642D01*
X305706250Y-266326785D01*
X305563392Y-266041071D01*
X305563392Y-265755357D01*
X305706250Y-265469642D01*
X305991964Y-265326785D01*
X306706250Y-265326785D01*
X306991964Y-265183928D01*
X307991964Y-264469642D02*
X309134821Y-264469642D01*
X308420535Y-263469642D02*
X308420535Y-266041071D01*
X308563392Y-266326785D01*
X308849107Y-266469642D01*
X309134821Y-266469642D01*
X309706250Y-264469642D02*
X310849107Y-264469642D01*
X310134821Y-263469642D02*
X310134821Y-266041071D01*
X310277678Y-266326785D01*
X310563392Y-266469642D01*
X310849107Y-266469642D01*
X315134821Y-264898214D02*
X315563392Y-265041071D01*
X315706250Y-265183928D01*
X315849107Y-265469642D01*
X315849107Y-265898214D01*
X315706250Y-266183928D01*
X315563392Y-266326785D01*
X315277678Y-266469642D01*
X314134821Y-266469642D01*
X314134821Y-263469642D01*
X315134821Y-263469642D01*
X315420535Y-263612500D01*
X315563392Y-263755357D01*
X315706250Y-264041071D01*
X315706250Y-264326785D01*
X315563392Y-264612500D01*
X315420535Y-264755357D01*
X315134821Y-264898214D01*
X314134821Y-264898214D01*
X318420535Y-266469642D02*
X318420535Y-264898214D01*
X318277678Y-264612500D01*
X317991964Y-264469642D01*
X317420535Y-264469642D01*
X317134821Y-264612500D01*
X318420535Y-266326785D02*
X318134821Y-266469642D01*
X317420535Y-266469642D01*
X317134821Y-266326785D01*
X316991964Y-266041071D01*
X316991964Y-265755357D01*
X317134821Y-265469642D01*
X317420535Y-265326785D01*
X318134821Y-265326785D01*
X318420535Y-265183928D01*
X321134821Y-264469642D02*
X321134821Y-266898214D01*
X320991964Y-267183928D01*
X320849107Y-267326785D01*
X320563392Y-267469642D01*
X320134821Y-267469642D01*
X319849107Y-267326785D01*
X321134821Y-266326785D02*
X320849107Y-266469642D01*
X320277678Y-266469642D01*
X319991964Y-266326785D01*
X319849107Y-266183928D01*
X319706250Y-265898214D01*
X319706250Y-265041071D01*
X319849107Y-264755357D01*
X319991964Y-264612500D01*
X320277678Y-264469642D01*
X320849107Y-264469642D01*
X321134821Y-264612500D01*
X322563392Y-264469642D02*
X322563392Y-266469642D01*
X322563392Y-264755357D02*
X322706250Y-264612500D01*
X322991964Y-264469642D01*
X323420535Y-264469642D01*
X323706250Y-264612500D01*
X323849107Y-264898214D01*
X323849107Y-266469642D01*
X326563392Y-266469642D02*
X326563392Y-264898214D01*
X326420535Y-264612500D01*
X326134821Y-264469642D01*
X325563392Y-264469642D01*
X325277678Y-264612500D01*
X326563392Y-266326785D02*
X326277678Y-266469642D01*
X325563392Y-266469642D01*
X325277678Y-266326785D01*
X325134821Y-266041071D01*
X325134821Y-265755357D01*
X325277678Y-265469642D01*
X325563392Y-265326785D01*
X326277678Y-265326785D01*
X326563392Y-265183928D01*
X327991964Y-266469642D02*
X327991964Y-264469642D01*
X327991964Y-265041071D02*
X328134821Y-264755357D01*
X328277678Y-264612500D01*
X328563392Y-264469642D01*
X328849107Y-264469642D01*
X331134821Y-266469642D02*
X331134821Y-264898214D01*
X330991964Y-264612500D01*
X330706250Y-264469642D01*
X330134821Y-264469642D01*
X329849107Y-264612500D01*
X331134821Y-266326785D02*
X330849107Y-266469642D01*
X330134821Y-266469642D01*
X329849107Y-266326785D01*
X329706250Y-266041071D01*
X329706250Y-265755357D01*
X329849107Y-265469642D01*
X330134821Y-265326785D01*
X330849107Y-265326785D01*
X331134821Y-265183928D01*
X392541071Y-280872321D02*
X391683928Y-280872321D01*
X392112500Y-280872321D02*
X392112500Y-279372321D01*
X391969642Y-279586607D01*
X391826785Y-279729464D01*
X391683928Y-279800892D01*
X311624107Y-276117857D02*
X311838392Y-276189285D01*
X311909821Y-276260714D01*
X311981250Y-276403571D01*
X311981250Y-276617857D01*
X311909821Y-276760714D01*
X311838392Y-276832142D01*
X311695535Y-276903571D01*
X311124107Y-276903571D01*
X311124107Y-275403571D01*
X311624107Y-275403571D01*
X311766964Y-275475000D01*
X311838392Y-275546428D01*
X311909821Y-275689285D01*
X311909821Y-275832142D01*
X311838392Y-275975000D01*
X311766964Y-276046428D01*
X311624107Y-276117857D01*
X311124107Y-276117857D01*
X313266964Y-276903571D02*
X313266964Y-276117857D01*
X313195535Y-275975000D01*
X313052678Y-275903571D01*
X312766964Y-275903571D01*
X312624107Y-275975000D01*
X313266964Y-276832142D02*
X313124107Y-276903571D01*
X312766964Y-276903571D01*
X312624107Y-276832142D01*
X312552678Y-276689285D01*
X312552678Y-276546428D01*
X312624107Y-276403571D01*
X312766964Y-276332142D01*
X313124107Y-276332142D01*
X313266964Y-276260714D01*
X314624107Y-275903571D02*
X314624107Y-277117857D01*
X314552678Y-277260714D01*
X314481250Y-277332142D01*
X314338392Y-277403571D01*
X314124107Y-277403571D01*
X313981250Y-277332142D01*
X314624107Y-276832142D02*
X314481250Y-276903571D01*
X314195535Y-276903571D01*
X314052678Y-276832142D01*
X313981250Y-276760714D01*
X313909821Y-276617857D01*
X313909821Y-276189285D01*
X313981250Y-276046428D01*
X314052678Y-275975000D01*
X314195535Y-275903571D01*
X314481250Y-275903571D01*
X314624107Y-275975000D01*
X315338392Y-275903571D02*
X315338392Y-276903571D01*
X315338392Y-276046428D02*
X315409821Y-275975000D01*
X315552678Y-275903571D01*
X315766964Y-275903571D01*
X315909821Y-275975000D01*
X315981250Y-276117857D01*
X315981250Y-276903571D01*
X317338392Y-276903571D02*
X317338392Y-276117857D01*
X317266964Y-275975000D01*
X317124107Y-275903571D01*
X316838392Y-275903571D01*
X316695535Y-275975000D01*
X317338392Y-276832142D02*
X317195535Y-276903571D01*
X316838392Y-276903571D01*
X316695535Y-276832142D01*
X316624107Y-276689285D01*
X316624107Y-276546428D01*
X316695535Y-276403571D01*
X316838392Y-276332142D01*
X317195535Y-276332142D01*
X317338392Y-276260714D01*
X318052678Y-276903571D02*
X318052678Y-275903571D01*
X318052678Y-276189285D02*
X318124107Y-276046428D01*
X318195535Y-275975000D01*
X318338392Y-275903571D01*
X318481250Y-275903571D01*
X319624107Y-276903571D02*
X319624107Y-276117857D01*
X319552678Y-275975000D01*
X319409821Y-275903571D01*
X319124107Y-275903571D01*
X318981250Y-275975000D01*
X319624107Y-276832142D02*
X319481250Y-276903571D01*
X319124107Y-276903571D01*
X318981250Y-276832142D01*
X318909821Y-276689285D01*
X318909821Y-276546428D01*
X318981250Y-276403571D01*
X319124107Y-276332142D01*
X319481250Y-276332142D01*
X319624107Y-276260714D01*
X320338392Y-276903571D02*
X320338392Y-275903571D01*
X320338392Y-276046428D02*
X320409821Y-275975000D01*
X320552678Y-275903571D01*
X320766964Y-275903571D01*
X320909821Y-275975000D01*
X320981250Y-276117857D01*
X320981250Y-276903571D01*
X320981250Y-276117857D02*
X321052678Y-275975000D01*
X321195535Y-275903571D01*
X321409821Y-275903571D01*
X321552678Y-275975000D01*
X321624107Y-276117857D01*
X321624107Y-276903571D01*
X322409821Y-275403571D02*
X322266964Y-275689285D01*
X322981250Y-276832142D02*
X323124107Y-276903571D01*
X323409821Y-276903571D01*
X323552678Y-276832142D01*
X323624107Y-276689285D01*
X323624107Y-276617857D01*
X323552678Y-276475000D01*
X323409821Y-276403571D01*
X323195535Y-276403571D01*
X323052678Y-276332142D01*
X322981250Y-276189285D01*
X322981250Y-276117857D01*
X323052678Y-275975000D01*
X323195535Y-275903571D01*
X323409821Y-275903571D01*
X323552678Y-275975000D01*
X325409821Y-276903571D02*
X325409821Y-275403571D01*
X325909821Y-276475000D01*
X326409821Y-275403571D01*
X326409821Y-276903571D01*
X327695535Y-276832142D02*
X327552678Y-276903571D01*
X327266964Y-276903571D01*
X327124107Y-276832142D01*
X327052678Y-276689285D01*
X327052678Y-276117857D01*
X327124107Y-275975000D01*
X327266964Y-275903571D01*
X327552678Y-275903571D01*
X327695535Y-275975000D01*
X327766964Y-276117857D01*
X327766964Y-276260714D01*
X327052678Y-276403571D01*
X329052678Y-276832142D02*
X328909821Y-276903571D01*
X328624107Y-276903571D01*
X328481250Y-276832142D01*
X328409821Y-276760714D01*
X328338392Y-276617857D01*
X328338392Y-276189285D01*
X328409821Y-276046428D01*
X328481250Y-275975000D01*
X328624107Y-275903571D01*
X328909821Y-275903571D01*
X329052678Y-275975000D01*
X329695535Y-276903571D02*
X329695535Y-275403571D01*
X330338392Y-276903571D02*
X330338392Y-276117857D01*
X330266964Y-275975000D01*
X330124107Y-275903571D01*
X329909821Y-275903571D01*
X329766964Y-275975000D01*
X329695535Y-276046428D01*
X331695535Y-276903571D02*
X331695535Y-276117857D01*
X331624107Y-275975000D01*
X331481250Y-275903571D01*
X331195535Y-275903571D01*
X331052678Y-275975000D01*
X331695535Y-276832142D02*
X331552678Y-276903571D01*
X331195535Y-276903571D01*
X331052678Y-276832142D01*
X330981250Y-276689285D01*
X330981250Y-276546428D01*
X331052678Y-276403571D01*
X331195535Y-276332142D01*
X331552678Y-276332142D01*
X331695535Y-276260714D01*
X332409821Y-275903571D02*
X332409821Y-276903571D01*
X332409821Y-276046428D02*
X332481250Y-275975000D01*
X332624107Y-275903571D01*
X332838392Y-275903571D01*
X332981250Y-275975000D01*
X333052678Y-276117857D01*
X333052678Y-276903571D01*
X333766964Y-276903571D02*
X333766964Y-275903571D01*
X333766964Y-275403571D02*
X333695535Y-275475000D01*
X333766964Y-275546428D01*
X333838392Y-275475000D01*
X333766964Y-275403571D01*
X333766964Y-275546428D01*
X335124107Y-276832142D02*
X334981250Y-276903571D01*
X334695535Y-276903571D01*
X334552678Y-276832142D01*
X334481250Y-276760714D01*
X334409821Y-276617857D01*
X334409821Y-276189285D01*
X334481250Y-276046428D01*
X334552678Y-275975000D01*
X334695535Y-275903571D01*
X334981250Y-275903571D01*
X335124107Y-275975000D01*
X336409821Y-276903571D02*
X336409821Y-276117857D01*
X336338392Y-275975000D01*
X336195535Y-275903571D01*
X335909821Y-275903571D01*
X335766964Y-275975000D01*
X336409821Y-276832142D02*
X336266964Y-276903571D01*
X335909821Y-276903571D01*
X335766964Y-276832142D01*
X335695535Y-276689285D01*
X335695535Y-276546428D01*
X335766964Y-276403571D01*
X335909821Y-276332142D01*
X336266964Y-276332142D01*
X336409821Y-276260714D01*
X337338392Y-276903571D02*
X337195535Y-276832142D01*
X337124107Y-276689285D01*
X337124107Y-275403571D01*
X339052678Y-276903571D02*
X339052678Y-275403571D01*
X339909821Y-276903571D02*
X339266964Y-276046428D01*
X339909821Y-275403571D02*
X339052678Y-276260714D01*
X341052678Y-276117857D02*
X341266964Y-276189285D01*
X341338392Y-276260714D01*
X341409821Y-276403571D01*
X341409821Y-276617857D01*
X341338392Y-276760714D01*
X341266964Y-276832142D01*
X341124107Y-276903571D01*
X340552678Y-276903571D01*
X340552678Y-275403571D01*
X341052678Y-275403571D01*
X341195535Y-275475000D01*
X341266964Y-275546428D01*
X341338392Y-275689285D01*
X341338392Y-275832142D01*
X341266964Y-275975000D01*
X341195535Y-276046428D01*
X341052678Y-276117857D01*
X340552678Y-276117857D01*
D11*
X214987500Y-203962500D03*
G04 #@! TA.AperFunction,ComponentPad*
G36*
G01*
X212926183Y-206259845D02*
X212926183Y-206259845D01*
G75*
G02*
X212840155Y-204671183I751317J837345D01*
G01*
X214150157Y-203211183D01*
G75*
G02*
X215738819Y-203125155I837345J-751317D01*
G01*
X215738819Y-203125155D01*
G75*
G02*
X215824847Y-204713817I-751317J-837345D01*
G01*
X214514845Y-206173817D01*
G75*
G02*
X212926183Y-206259845I-837345J751317D01*
G01*
G37*
G04 #@! TD.AperFunction*
X220027500Y-202882500D03*
G04 #@! TA.AperFunction,ComponentPad*
G36*
G01*
X219910097Y-204584834D02*
X219910097Y-204584834D01*
G75*
G02*
X218865166Y-203385097I77403J1122334D01*
G01*
X218905166Y-202805097D01*
G75*
G02*
X220104903Y-201760166I1122334J-77403D01*
G01*
X220104903Y-201760166D01*
G75*
G02*
X221149834Y-202959903I-77403J-1122334D01*
G01*
X221109834Y-203539903D01*
G75*
G02*
X219910097Y-204584834I-1122334J77403D01*
G01*
G37*
G04 #@! TD.AperFunction*
G04 #@! TA.AperFunction,SMDPad,CuDef*
G36*
G01*
X57455750Y-116195500D02*
X58368250Y-116195500D01*
G75*
G02*
X58612000Y-116439250I0J-243750D01*
G01*
X58612000Y-116926750D01*
G75*
G02*
X58368250Y-117170500I-243750J0D01*
G01*
X57455750Y-117170500D01*
G75*
G02*
X57212000Y-116926750I0J243750D01*
G01*
X57212000Y-116439250D01*
G75*
G02*
X57455750Y-116195500I243750J0D01*
G01*
G37*
G04 #@! TD.AperFunction*
G04 #@! TA.AperFunction,SMDPad,CuDef*
G36*
G01*
X57455750Y-114320500D02*
X58368250Y-114320500D01*
G75*
G02*
X58612000Y-114564250I0J-243750D01*
G01*
X58612000Y-115051750D01*
G75*
G02*
X58368250Y-115295500I-243750J0D01*
G01*
X57455750Y-115295500D01*
G75*
G02*
X57212000Y-115051750I0J243750D01*
G01*
X57212000Y-114564250D01*
G75*
G02*
X57455750Y-114320500I243750J0D01*
G01*
G37*
G04 #@! TD.AperFunction*
G04 #@! TA.AperFunction,SMDPad,CuDef*
G36*
G01*
X55423750Y-116193750D02*
X56336250Y-116193750D01*
G75*
G02*
X56580000Y-116437500I0J-243750D01*
G01*
X56580000Y-116925000D01*
G75*
G02*
X56336250Y-117168750I-243750J0D01*
G01*
X55423750Y-117168750D01*
G75*
G02*
X55180000Y-116925000I0J243750D01*
G01*
X55180000Y-116437500D01*
G75*
G02*
X55423750Y-116193750I243750J0D01*
G01*
G37*
G04 #@! TD.AperFunction*
G04 #@! TA.AperFunction,SMDPad,CuDef*
G36*
G01*
X55423750Y-114318750D02*
X56336250Y-114318750D01*
G75*
G02*
X56580000Y-114562500I0J-243750D01*
G01*
X56580000Y-115050000D01*
G75*
G02*
X56336250Y-115293750I-243750J0D01*
G01*
X55423750Y-115293750D01*
G75*
G02*
X55180000Y-115050000I0J243750D01*
G01*
X55180000Y-114562500D01*
G75*
G02*
X55423750Y-114318750I243750J0D01*
G01*
G37*
G04 #@! TD.AperFunction*
X326906250Y-184912500D03*
G04 #@! TA.AperFunction,ComponentPad*
G36*
G01*
X324844933Y-187209845D02*
X324844933Y-187209845D01*
G75*
G02*
X324758905Y-185621183I751317J837345D01*
G01*
X326068907Y-184161183D01*
G75*
G02*
X327657569Y-184075155I837345J-751317D01*
G01*
X327657569Y-184075155D01*
G75*
G02*
X327743597Y-185663817I-751317J-837345D01*
G01*
X326433595Y-187123817D01*
G75*
G02*
X324844933Y-187209845I-837345J751317D01*
G01*
G37*
G04 #@! TD.AperFunction*
X331946250Y-183832500D03*
G04 #@! TA.AperFunction,ComponentPad*
G36*
G01*
X331828847Y-185534834D02*
X331828847Y-185534834D01*
G75*
G02*
X330783916Y-184335097I77403J1122334D01*
G01*
X330823916Y-183755097D01*
G75*
G02*
X332023653Y-182710166I1122334J-77403D01*
G01*
X332023653Y-182710166D01*
G75*
G02*
X333068584Y-183909903I-77403J-1122334D01*
G01*
X333028584Y-184489903D01*
G75*
G02*
X331828847Y-185534834I-1122334J77403D01*
G01*
G37*
G04 #@! TD.AperFunction*
X98306250Y-184912500D03*
G04 #@! TA.AperFunction,ComponentPad*
G36*
G01*
X96244933Y-187209845D02*
X96244933Y-187209845D01*
G75*
G02*
X96158905Y-185621183I751317J837345D01*
G01*
X97468907Y-184161183D01*
G75*
G02*
X99057569Y-184075155I837345J-751317D01*
G01*
X99057569Y-184075155D01*
G75*
G02*
X99143597Y-185663817I-751317J-837345D01*
G01*
X97833595Y-187123817D01*
G75*
G02*
X96244933Y-187209845I-837345J751317D01*
G01*
G37*
G04 #@! TD.AperFunction*
X103346250Y-183832500D03*
G04 #@! TA.AperFunction,ComponentPad*
G36*
G01*
X103228847Y-185534834D02*
X103228847Y-185534834D01*
G75*
G02*
X102183916Y-184335097I77403J1122334D01*
G01*
X102223916Y-183755097D01*
G75*
G02*
X103423653Y-182710166I1122334J-77403D01*
G01*
X103423653Y-182710166D01*
G75*
G02*
X104468584Y-183909903I-77403J-1122334D01*
G01*
X104428584Y-184489903D01*
G75*
G02*
X103228847Y-185534834I-1122334J77403D01*
G01*
G37*
G04 #@! TD.AperFunction*
X341193750Y-165862500D03*
G04 #@! TA.AperFunction,ComponentPad*
G36*
G01*
X339132433Y-168159845D02*
X339132433Y-168159845D01*
G75*
G02*
X339046405Y-166571183I751317J837345D01*
G01*
X340356407Y-165111183D01*
G75*
G02*
X341945069Y-165025155I837345J-751317D01*
G01*
X341945069Y-165025155D01*
G75*
G02*
X342031097Y-166613817I-751317J-837345D01*
G01*
X340721095Y-168073817D01*
G75*
G02*
X339132433Y-168159845I-837345J751317D01*
G01*
G37*
G04 #@! TD.AperFunction*
X346233750Y-164782500D03*
G04 #@! TA.AperFunction,ComponentPad*
G36*
G01*
X346116347Y-166484834D02*
X346116347Y-166484834D01*
G75*
G02*
X345071416Y-165285097I77403J1122334D01*
G01*
X345111416Y-164705097D01*
G75*
G02*
X346311153Y-163660166I1122334J-77403D01*
G01*
X346311153Y-163660166D01*
G75*
G02*
X347356084Y-164859903I-77403J-1122334D01*
G01*
X347316084Y-165439903D01*
G75*
G02*
X346116347Y-166484834I-1122334J77403D01*
G01*
G37*
G04 #@! TD.AperFunction*
D12*
X97313750Y-174942500D03*
D13*
X94773750Y-174942500D03*
D11*
X93543750Y-165862500D03*
G04 #@! TA.AperFunction,ComponentPad*
G36*
G01*
X91482433Y-168159845D02*
X91482433Y-168159845D01*
G75*
G02*
X91396405Y-166571183I751317J837345D01*
G01*
X92706407Y-165111183D01*
G75*
G02*
X94295069Y-165025155I837345J-751317D01*
G01*
X94295069Y-165025155D01*
G75*
G02*
X94381097Y-166613817I-751317J-837345D01*
G01*
X93071095Y-168073817D01*
G75*
G02*
X91482433Y-168159845I-837345J751317D01*
G01*
G37*
G04 #@! TD.AperFunction*
X98583750Y-164782500D03*
G04 #@! TA.AperFunction,ComponentPad*
G36*
G01*
X98466347Y-166484834D02*
X98466347Y-166484834D01*
G75*
G02*
X97421416Y-165285097I77403J1122334D01*
G01*
X97461416Y-164705097D01*
G75*
G02*
X98661153Y-163660166I1122334J-77403D01*
G01*
X98661153Y-163660166D01*
G75*
G02*
X99706084Y-164859903I-77403J-1122334D01*
G01*
X99666084Y-165439903D01*
G75*
G02*
X98466347Y-166484834I-1122334J77403D01*
G01*
G37*
G04 #@! TD.AperFunction*
X348337500Y-146812500D03*
G04 #@! TA.AperFunction,ComponentPad*
G36*
G01*
X346276183Y-149109845D02*
X346276183Y-149109845D01*
G75*
G02*
X346190155Y-147521183I751317J837345D01*
G01*
X347500157Y-146061183D01*
G75*
G02*
X349088819Y-145975155I837345J-751317D01*
G01*
X349088819Y-145975155D01*
G75*
G02*
X349174847Y-147563817I-751317J-837345D01*
G01*
X347864845Y-149023817D01*
G75*
G02*
X346276183Y-149109845I-837345J751317D01*
G01*
G37*
G04 #@! TD.AperFunction*
X353377500Y-145732500D03*
G04 #@! TA.AperFunction,ComponentPad*
G36*
G01*
X353260097Y-147434834D02*
X353260097Y-147434834D01*
G75*
G02*
X352215166Y-146235097I77403J1122334D01*
G01*
X352255166Y-145655097D01*
G75*
G02*
X353454903Y-144610166I1122334J-77403D01*
G01*
X353454903Y-144610166D01*
G75*
G02*
X354499834Y-145809903I-77403J-1122334D01*
G01*
X354459834Y-146389903D01*
G75*
G02*
X353260097Y-147434834I-1122334J77403D01*
G01*
G37*
G04 #@! TD.AperFunction*
X91162500Y-146812500D03*
G04 #@! TA.AperFunction,ComponentPad*
G36*
G01*
X89101183Y-149109845D02*
X89101183Y-149109845D01*
G75*
G02*
X89015155Y-147521183I751317J837345D01*
G01*
X90325157Y-146061183D01*
G75*
G02*
X91913819Y-145975155I837345J-751317D01*
G01*
X91913819Y-145975155D01*
G75*
G02*
X91999847Y-147563817I-751317J-837345D01*
G01*
X90689845Y-149023817D01*
G75*
G02*
X89101183Y-149109845I-837345J751317D01*
G01*
G37*
G04 #@! TD.AperFunction*
X96202500Y-145732500D03*
G04 #@! TA.AperFunction,ComponentPad*
G36*
G01*
X96085097Y-147434834D02*
X96085097Y-147434834D01*
G75*
G02*
X95040166Y-146235097I77403J1122334D01*
G01*
X95080166Y-145655097D01*
G75*
G02*
X96279903Y-144610166I1122334J-77403D01*
G01*
X96279903Y-144610166D01*
G75*
G02*
X97324834Y-145809903I-77403J-1122334D01*
G01*
X97284834Y-146389903D01*
G75*
G02*
X96085097Y-147434834I-1122334J77403D01*
G01*
G37*
G04 #@! TD.AperFunction*
X343575000Y-127762500D03*
G04 #@! TA.AperFunction,ComponentPad*
G36*
G01*
X341513683Y-130059845D02*
X341513683Y-130059845D01*
G75*
G02*
X341427655Y-128471183I751317J837345D01*
G01*
X342737657Y-127011183D01*
G75*
G02*
X344326319Y-126925155I837345J-751317D01*
G01*
X344326319Y-126925155D01*
G75*
G02*
X344412347Y-128513817I-751317J-837345D01*
G01*
X343102345Y-129973817D01*
G75*
G02*
X341513683Y-130059845I-837345J751317D01*
G01*
G37*
G04 #@! TD.AperFunction*
X348615000Y-126682500D03*
G04 #@! TA.AperFunction,ComponentPad*
G36*
G01*
X348497597Y-128384834D02*
X348497597Y-128384834D01*
G75*
G02*
X347452666Y-127185097I77403J1122334D01*
G01*
X347492666Y-126605097D01*
G75*
G02*
X348692403Y-125560166I1122334J-77403D01*
G01*
X348692403Y-125560166D01*
G75*
G02*
X349737334Y-126759903I-77403J-1122334D01*
G01*
X349697334Y-127339903D01*
G75*
G02*
X348497597Y-128384834I-1122334J77403D01*
G01*
G37*
G04 #@! TD.AperFunction*
X274518750Y-203962500D03*
G04 #@! TA.AperFunction,ComponentPad*
G36*
G01*
X272457433Y-206259845D02*
X272457433Y-206259845D01*
G75*
G02*
X272371405Y-204671183I751317J837345D01*
G01*
X273681407Y-203211183D01*
G75*
G02*
X275270069Y-203125155I837345J-751317D01*
G01*
X275270069Y-203125155D01*
G75*
G02*
X275356097Y-204713817I-751317J-837345D01*
G01*
X274046095Y-206173817D01*
G75*
G02*
X272457433Y-206259845I-837345J751317D01*
G01*
G37*
G04 #@! TD.AperFunction*
X279558750Y-202882500D03*
G04 #@! TA.AperFunction,ComponentPad*
G36*
G01*
X279441347Y-204584834D02*
X279441347Y-204584834D01*
G75*
G02*
X278396416Y-203385097I77403J1122334D01*
G01*
X278436416Y-202805097D01*
G75*
G02*
X279636153Y-201760166I1122334J-77403D01*
G01*
X279636153Y-201760166D01*
G75*
G02*
X280681084Y-202959903I-77403J-1122334D01*
G01*
X280641084Y-203539903D01*
G75*
G02*
X279441347Y-204584834I-1122334J77403D01*
G01*
G37*
G04 #@! TD.AperFunction*
X136406250Y-203962500D03*
G04 #@! TA.AperFunction,ComponentPad*
G36*
G01*
X134344933Y-206259845D02*
X134344933Y-206259845D01*
G75*
G02*
X134258905Y-204671183I751317J837345D01*
G01*
X135568907Y-203211183D01*
G75*
G02*
X137157569Y-203125155I837345J-751317D01*
G01*
X137157569Y-203125155D01*
G75*
G02*
X137243597Y-204713817I-751317J-837345D01*
G01*
X135933595Y-206173817D01*
G75*
G02*
X134344933Y-206259845I-837345J751317D01*
G01*
G37*
G04 #@! TD.AperFunction*
X141446250Y-202882500D03*
G04 #@! TA.AperFunction,ComponentPad*
G36*
G01*
X141328847Y-204584834D02*
X141328847Y-204584834D01*
G75*
G02*
X140283916Y-203385097I77403J1122334D01*
G01*
X140323916Y-202805097D01*
G75*
G02*
X141523653Y-201760166I1122334J-77403D01*
G01*
X141523653Y-201760166D01*
G75*
G02*
X142568584Y-202959903I-77403J-1122334D01*
G01*
X142528584Y-203539903D01*
G75*
G02*
X141328847Y-204584834I-1122334J77403D01*
G01*
G37*
G04 #@! TD.AperFunction*
X112593750Y-203962500D03*
G04 #@! TA.AperFunction,ComponentPad*
G36*
G01*
X110532433Y-206259845D02*
X110532433Y-206259845D01*
G75*
G02*
X110446405Y-204671183I751317J837345D01*
G01*
X111756407Y-203211183D01*
G75*
G02*
X113345069Y-203125155I837345J-751317D01*
G01*
X113345069Y-203125155D01*
G75*
G02*
X113431097Y-204713817I-751317J-837345D01*
G01*
X112121095Y-206173817D01*
G75*
G02*
X110532433Y-206259845I-837345J751317D01*
G01*
G37*
G04 #@! TD.AperFunction*
X117633750Y-202882500D03*
G04 #@! TA.AperFunction,ComponentPad*
G36*
G01*
X117516347Y-204584834D02*
X117516347Y-204584834D01*
G75*
G02*
X116471416Y-203385097I77403J1122334D01*
G01*
X116511416Y-202805097D01*
G75*
G02*
X117711153Y-201760166I1122334J-77403D01*
G01*
X117711153Y-201760166D01*
G75*
G02*
X118756084Y-202959903I-77403J-1122334D01*
G01*
X118716084Y-203539903D01*
G75*
G02*
X117516347Y-204584834I-1122334J77403D01*
G01*
G37*
G04 #@! TD.AperFunction*
X88781250Y-203962500D03*
G04 #@! TA.AperFunction,ComponentPad*
G36*
G01*
X86719933Y-206259845D02*
X86719933Y-206259845D01*
G75*
G02*
X86633905Y-204671183I751317J837345D01*
G01*
X87943907Y-203211183D01*
G75*
G02*
X89532569Y-203125155I837345J-751317D01*
G01*
X89532569Y-203125155D01*
G75*
G02*
X89618597Y-204713817I-751317J-837345D01*
G01*
X88308595Y-206173817D01*
G75*
G02*
X86719933Y-206259845I-837345J751317D01*
G01*
G37*
G04 #@! TD.AperFunction*
X93821250Y-202882500D03*
G04 #@! TA.AperFunction,ComponentPad*
G36*
G01*
X93703847Y-204584834D02*
X93703847Y-204584834D01*
G75*
G02*
X92658916Y-203385097I77403J1122334D01*
G01*
X92698916Y-202805097D01*
G75*
G02*
X93898653Y-201760166I1122334J-77403D01*
G01*
X93898653Y-201760166D01*
G75*
G02*
X94943584Y-202959903I-77403J-1122334D01*
G01*
X94903584Y-203539903D01*
G75*
G02*
X93703847Y-204584834I-1122334J77403D01*
G01*
G37*
G04 #@! TD.AperFunction*
X257850000Y-108712500D03*
G04 #@! TA.AperFunction,ComponentPad*
G36*
G01*
X255788683Y-111009845D02*
X255788683Y-111009845D01*
G75*
G02*
X255702655Y-109421183I751317J837345D01*
G01*
X257012657Y-107961183D01*
G75*
G02*
X258601319Y-107875155I837345J-751317D01*
G01*
X258601319Y-107875155D01*
G75*
G02*
X258687347Y-109463817I-751317J-837345D01*
G01*
X257377345Y-110923817D01*
G75*
G02*
X255788683Y-111009845I-837345J751317D01*
G01*
G37*
G04 #@! TD.AperFunction*
X262890000Y-107632500D03*
G04 #@! TA.AperFunction,ComponentPad*
G36*
G01*
X262772597Y-109334834D02*
X262772597Y-109334834D01*
G75*
G02*
X261727666Y-108135097I77403J1122334D01*
G01*
X261767666Y-107555097D01*
G75*
G02*
X262967403Y-106510166I1122334J-77403D01*
G01*
X262967403Y-106510166D01*
G75*
G02*
X264012334Y-107709903I-77403J-1122334D01*
G01*
X263972334Y-108289903D01*
G75*
G02*
X262772597Y-109334834I-1122334J77403D01*
G01*
G37*
G04 #@! TD.AperFunction*
X238800000Y-108712500D03*
G04 #@! TA.AperFunction,ComponentPad*
G36*
G01*
X236738683Y-111009845D02*
X236738683Y-111009845D01*
G75*
G02*
X236652655Y-109421183I751317J837345D01*
G01*
X237962657Y-107961183D01*
G75*
G02*
X239551319Y-107875155I837345J-751317D01*
G01*
X239551319Y-107875155D01*
G75*
G02*
X239637347Y-109463817I-751317J-837345D01*
G01*
X238327345Y-110923817D01*
G75*
G02*
X236738683Y-111009845I-837345J751317D01*
G01*
G37*
G04 #@! TD.AperFunction*
X243840000Y-107632500D03*
G04 #@! TA.AperFunction,ComponentPad*
G36*
G01*
X243722597Y-109334834D02*
X243722597Y-109334834D01*
G75*
G02*
X242677666Y-108135097I77403J1122334D01*
G01*
X242717666Y-107555097D01*
G75*
G02*
X243917403Y-106510166I1122334J-77403D01*
G01*
X243917403Y-106510166D01*
G75*
G02*
X244962334Y-107709903I-77403J-1122334D01*
G01*
X244922334Y-108289903D01*
G75*
G02*
X243722597Y-109334834I-1122334J77403D01*
G01*
G37*
G04 #@! TD.AperFunction*
X219750000Y-108712500D03*
G04 #@! TA.AperFunction,ComponentPad*
G36*
G01*
X217688683Y-111009845D02*
X217688683Y-111009845D01*
G75*
G02*
X217602655Y-109421183I751317J837345D01*
G01*
X218912657Y-107961183D01*
G75*
G02*
X220501319Y-107875155I837345J-751317D01*
G01*
X220501319Y-107875155D01*
G75*
G02*
X220587347Y-109463817I-751317J-837345D01*
G01*
X219277345Y-110923817D01*
G75*
G02*
X217688683Y-111009845I-837345J751317D01*
G01*
G37*
G04 #@! TD.AperFunction*
X224790000Y-107632500D03*
G04 #@! TA.AperFunction,ComponentPad*
G36*
G01*
X224672597Y-109334834D02*
X224672597Y-109334834D01*
G75*
G02*
X223627666Y-108135097I77403J1122334D01*
G01*
X223667666Y-107555097D01*
G75*
G02*
X224867403Y-106510166I1122334J-77403D01*
G01*
X224867403Y-106510166D01*
G75*
G02*
X225912334Y-107709903I-77403J-1122334D01*
G01*
X225872334Y-108289903D01*
G75*
G02*
X224672597Y-109334834I-1122334J77403D01*
G01*
G37*
G04 #@! TD.AperFunction*
X200700000Y-108712500D03*
G04 #@! TA.AperFunction,ComponentPad*
G36*
G01*
X198638683Y-111009845D02*
X198638683Y-111009845D01*
G75*
G02*
X198552655Y-109421183I751317J837345D01*
G01*
X199862657Y-107961183D01*
G75*
G02*
X201451319Y-107875155I837345J-751317D01*
G01*
X201451319Y-107875155D01*
G75*
G02*
X201537347Y-109463817I-751317J-837345D01*
G01*
X200227345Y-110923817D01*
G75*
G02*
X198638683Y-111009845I-837345J751317D01*
G01*
G37*
G04 #@! TD.AperFunction*
X205740000Y-107632500D03*
G04 #@! TA.AperFunction,ComponentPad*
G36*
G01*
X205622597Y-109334834D02*
X205622597Y-109334834D01*
G75*
G02*
X204577666Y-108135097I77403J1122334D01*
G01*
X204617666Y-107555097D01*
G75*
G02*
X205817403Y-106510166I1122334J-77403D01*
G01*
X205817403Y-106510166D01*
G75*
G02*
X206862334Y-107709903I-77403J-1122334D01*
G01*
X206822334Y-108289903D01*
G75*
G02*
X205622597Y-109334834I-1122334J77403D01*
G01*
G37*
G04 #@! TD.AperFunction*
X372150000Y-203962500D03*
G04 #@! TA.AperFunction,ComponentPad*
G36*
G01*
X370088683Y-206259845D02*
X370088683Y-206259845D01*
G75*
G02*
X370002655Y-204671183I751317J837345D01*
G01*
X371312657Y-203211183D01*
G75*
G02*
X372901319Y-203125155I837345J-751317D01*
G01*
X372901319Y-203125155D01*
G75*
G02*
X372987347Y-204713817I-751317J-837345D01*
G01*
X371677345Y-206173817D01*
G75*
G02*
X370088683Y-206259845I-837345J751317D01*
G01*
G37*
G04 #@! TD.AperFunction*
X377190000Y-202882500D03*
G04 #@! TA.AperFunction,ComponentPad*
G36*
G01*
X377072597Y-204584834D02*
X377072597Y-204584834D01*
G75*
G02*
X376027666Y-203385097I77403J1122334D01*
G01*
X376067666Y-202805097D01*
G75*
G02*
X377267403Y-201760166I1122334J-77403D01*
G01*
X377267403Y-201760166D01*
G75*
G02*
X378312334Y-202959903I-77403J-1122334D01*
G01*
X378272334Y-203539903D01*
G75*
G02*
X377072597Y-204584834I-1122334J77403D01*
G01*
G37*
G04 #@! TD.AperFunction*
X353100000Y-203962500D03*
G04 #@! TA.AperFunction,ComponentPad*
G36*
G01*
X351038683Y-206259845D02*
X351038683Y-206259845D01*
G75*
G02*
X350952655Y-204671183I751317J837345D01*
G01*
X352262657Y-203211183D01*
G75*
G02*
X353851319Y-203125155I837345J-751317D01*
G01*
X353851319Y-203125155D01*
G75*
G02*
X353937347Y-204713817I-751317J-837345D01*
G01*
X352627345Y-206173817D01*
G75*
G02*
X351038683Y-206259845I-837345J751317D01*
G01*
G37*
G04 #@! TD.AperFunction*
X358140000Y-202882500D03*
G04 #@! TA.AperFunction,ComponentPad*
G36*
G01*
X358022597Y-204584834D02*
X358022597Y-204584834D01*
G75*
G02*
X356977666Y-203385097I77403J1122334D01*
G01*
X357017666Y-202805097D01*
G75*
G02*
X358217403Y-201760166I1122334J-77403D01*
G01*
X358217403Y-201760166D01*
G75*
G02*
X359262334Y-202959903I-77403J-1122334D01*
G01*
X359222334Y-203539903D01*
G75*
G02*
X358022597Y-204584834I-1122334J77403D01*
G01*
G37*
G04 #@! TD.AperFunction*
X334050000Y-203962500D03*
G04 #@! TA.AperFunction,ComponentPad*
G36*
G01*
X331988683Y-206259845D02*
X331988683Y-206259845D01*
G75*
G02*
X331902655Y-204671183I751317J837345D01*
G01*
X333212657Y-203211183D01*
G75*
G02*
X334801319Y-203125155I837345J-751317D01*
G01*
X334801319Y-203125155D01*
G75*
G02*
X334887347Y-204713817I-751317J-837345D01*
G01*
X333577345Y-206173817D01*
G75*
G02*
X331988683Y-206259845I-837345J751317D01*
G01*
G37*
G04 #@! TD.AperFunction*
X339090000Y-202882500D03*
G04 #@! TA.AperFunction,ComponentPad*
G36*
G01*
X338972597Y-204584834D02*
X338972597Y-204584834D01*
G75*
G02*
X337927666Y-203385097I77403J1122334D01*
G01*
X337967666Y-202805097D01*
G75*
G02*
X339167403Y-201760166I1122334J-77403D01*
G01*
X339167403Y-201760166D01*
G75*
G02*
X340212334Y-202959903I-77403J-1122334D01*
G01*
X340172334Y-203539903D01*
G75*
G02*
X338972597Y-204584834I-1122334J77403D01*
G01*
G37*
G04 #@! TD.AperFunction*
X315000000Y-203962500D03*
G04 #@! TA.AperFunction,ComponentPad*
G36*
G01*
X312938683Y-206259845D02*
X312938683Y-206259845D01*
G75*
G02*
X312852655Y-204671183I751317J837345D01*
G01*
X314162657Y-203211183D01*
G75*
G02*
X315751319Y-203125155I837345J-751317D01*
G01*
X315751319Y-203125155D01*
G75*
G02*
X315837347Y-204713817I-751317J-837345D01*
G01*
X314527345Y-206173817D01*
G75*
G02*
X312938683Y-206259845I-837345J751317D01*
G01*
G37*
G04 #@! TD.AperFunction*
X320040000Y-202882500D03*
G04 #@! TA.AperFunction,ComponentPad*
G36*
G01*
X319922597Y-204584834D02*
X319922597Y-204584834D01*
G75*
G02*
X318877666Y-203385097I77403J1122334D01*
G01*
X318917666Y-202805097D01*
G75*
G02*
X320117403Y-201760166I1122334J-77403D01*
G01*
X320117403Y-201760166D01*
G75*
G02*
X321162334Y-202959903I-77403J-1122334D01*
G01*
X321122334Y-203539903D01*
G75*
G02*
X319922597Y-204584834I-1122334J77403D01*
G01*
G37*
G04 #@! TD.AperFunction*
X295950000Y-203962500D03*
G04 #@! TA.AperFunction,ComponentPad*
G36*
G01*
X293888683Y-206259845D02*
X293888683Y-206259845D01*
G75*
G02*
X293802655Y-204671183I751317J837345D01*
G01*
X295112657Y-203211183D01*
G75*
G02*
X296701319Y-203125155I837345J-751317D01*
G01*
X296701319Y-203125155D01*
G75*
G02*
X296787347Y-204713817I-751317J-837345D01*
G01*
X295477345Y-206173817D01*
G75*
G02*
X293888683Y-206259845I-837345J751317D01*
G01*
G37*
G04 #@! TD.AperFunction*
X300990000Y-202882500D03*
G04 #@! TA.AperFunction,ComponentPad*
G36*
G01*
X300872597Y-204584834D02*
X300872597Y-204584834D01*
G75*
G02*
X299827666Y-203385097I77403J1122334D01*
G01*
X299867666Y-202805097D01*
G75*
G02*
X301067403Y-201760166I1122334J-77403D01*
G01*
X301067403Y-201760166D01*
G75*
G02*
X302112334Y-202959903I-77403J-1122334D01*
G01*
X302072334Y-203539903D01*
G75*
G02*
X300872597Y-204584834I-1122334J77403D01*
G01*
G37*
G04 #@! TD.AperFunction*
X372150000Y-184912500D03*
G04 #@! TA.AperFunction,ComponentPad*
G36*
G01*
X370088683Y-187209845D02*
X370088683Y-187209845D01*
G75*
G02*
X370002655Y-185621183I751317J837345D01*
G01*
X371312657Y-184161183D01*
G75*
G02*
X372901319Y-184075155I837345J-751317D01*
G01*
X372901319Y-184075155D01*
G75*
G02*
X372987347Y-185663817I-751317J-837345D01*
G01*
X371677345Y-187123817D01*
G75*
G02*
X370088683Y-187209845I-837345J751317D01*
G01*
G37*
G04 #@! TD.AperFunction*
X377190000Y-183832500D03*
G04 #@! TA.AperFunction,ComponentPad*
G36*
G01*
X377072597Y-185534834D02*
X377072597Y-185534834D01*
G75*
G02*
X376027666Y-184335097I77403J1122334D01*
G01*
X376067666Y-183755097D01*
G75*
G02*
X377267403Y-182710166I1122334J-77403D01*
G01*
X377267403Y-182710166D01*
G75*
G02*
X378312334Y-183909903I-77403J-1122334D01*
G01*
X378272334Y-184489903D01*
G75*
G02*
X377072597Y-185534834I-1122334J77403D01*
G01*
G37*
G04 #@! TD.AperFunction*
X353100000Y-184912500D03*
G04 #@! TA.AperFunction,ComponentPad*
G36*
G01*
X351038683Y-187209845D02*
X351038683Y-187209845D01*
G75*
G02*
X350952655Y-185621183I751317J837345D01*
G01*
X352262657Y-184161183D01*
G75*
G02*
X353851319Y-184075155I837345J-751317D01*
G01*
X353851319Y-184075155D01*
G75*
G02*
X353937347Y-185663817I-751317J-837345D01*
G01*
X352627345Y-187123817D01*
G75*
G02*
X351038683Y-187209845I-837345J751317D01*
G01*
G37*
G04 #@! TD.AperFunction*
X358140000Y-183832500D03*
G04 #@! TA.AperFunction,ComponentPad*
G36*
G01*
X358022597Y-185534834D02*
X358022597Y-185534834D01*
G75*
G02*
X356977666Y-184335097I77403J1122334D01*
G01*
X357017666Y-183755097D01*
G75*
G02*
X358217403Y-182710166I1122334J-77403D01*
G01*
X358217403Y-182710166D01*
G75*
G02*
X359262334Y-183909903I-77403J-1122334D01*
G01*
X359222334Y-184489903D01*
G75*
G02*
X358022597Y-185534834I-1122334J77403D01*
G01*
G37*
G04 #@! TD.AperFunction*
X300712500Y-184912500D03*
G04 #@! TA.AperFunction,ComponentPad*
G36*
G01*
X298651183Y-187209845D02*
X298651183Y-187209845D01*
G75*
G02*
X298565155Y-185621183I751317J837345D01*
G01*
X299875157Y-184161183D01*
G75*
G02*
X301463819Y-184075155I837345J-751317D01*
G01*
X301463819Y-184075155D01*
G75*
G02*
X301549847Y-185663817I-751317J-837345D01*
G01*
X300239845Y-187123817D01*
G75*
G02*
X298651183Y-187209845I-837345J751317D01*
G01*
G37*
G04 #@! TD.AperFunction*
X305752500Y-183832500D03*
G04 #@! TA.AperFunction,ComponentPad*
G36*
G01*
X305635097Y-185534834D02*
X305635097Y-185534834D01*
G75*
G02*
X304590166Y-184335097I77403J1122334D01*
G01*
X304630166Y-183755097D01*
G75*
G02*
X305829903Y-182710166I1122334J-77403D01*
G01*
X305829903Y-182710166D01*
G75*
G02*
X306874834Y-183909903I-77403J-1122334D01*
G01*
X306834834Y-184489903D01*
G75*
G02*
X305635097Y-185534834I-1122334J77403D01*
G01*
G37*
G04 #@! TD.AperFunction*
X281662500Y-184912500D03*
G04 #@! TA.AperFunction,ComponentPad*
G36*
G01*
X279601183Y-187209845D02*
X279601183Y-187209845D01*
G75*
G02*
X279515155Y-185621183I751317J837345D01*
G01*
X280825157Y-184161183D01*
G75*
G02*
X282413819Y-184075155I837345J-751317D01*
G01*
X282413819Y-184075155D01*
G75*
G02*
X282499847Y-185663817I-751317J-837345D01*
G01*
X281189845Y-187123817D01*
G75*
G02*
X279601183Y-187209845I-837345J751317D01*
G01*
G37*
G04 #@! TD.AperFunction*
X286702500Y-183832500D03*
G04 #@! TA.AperFunction,ComponentPad*
G36*
G01*
X286585097Y-185534834D02*
X286585097Y-185534834D01*
G75*
G02*
X285540166Y-184335097I77403J1122334D01*
G01*
X285580166Y-183755097D01*
G75*
G02*
X286779903Y-182710166I1122334J-77403D01*
G01*
X286779903Y-182710166D01*
G75*
G02*
X287824834Y-183909903I-77403J-1122334D01*
G01*
X287784834Y-184489903D01*
G75*
G02*
X286585097Y-185534834I-1122334J77403D01*
G01*
G37*
G04 #@! TD.AperFunction*
X262612500Y-184912500D03*
G04 #@! TA.AperFunction,ComponentPad*
G36*
G01*
X260551183Y-187209845D02*
X260551183Y-187209845D01*
G75*
G02*
X260465155Y-185621183I751317J837345D01*
G01*
X261775157Y-184161183D01*
G75*
G02*
X263363819Y-184075155I837345J-751317D01*
G01*
X263363819Y-184075155D01*
G75*
G02*
X263449847Y-185663817I-751317J-837345D01*
G01*
X262139845Y-187123817D01*
G75*
G02*
X260551183Y-187209845I-837345J751317D01*
G01*
G37*
G04 #@! TD.AperFunction*
X267652500Y-183832500D03*
G04 #@! TA.AperFunction,ComponentPad*
G36*
G01*
X267535097Y-185534834D02*
X267535097Y-185534834D01*
G75*
G02*
X266490166Y-184335097I77403J1122334D01*
G01*
X266530166Y-183755097D01*
G75*
G02*
X267729903Y-182710166I1122334J-77403D01*
G01*
X267729903Y-182710166D01*
G75*
G02*
X268774834Y-183909903I-77403J-1122334D01*
G01*
X268734834Y-184489903D01*
G75*
G02*
X267535097Y-185534834I-1122334J77403D01*
G01*
G37*
G04 #@! TD.AperFunction*
X243562500Y-184912500D03*
G04 #@! TA.AperFunction,ComponentPad*
G36*
G01*
X241501183Y-187209845D02*
X241501183Y-187209845D01*
G75*
G02*
X241415155Y-185621183I751317J837345D01*
G01*
X242725157Y-184161183D01*
G75*
G02*
X244313819Y-184075155I837345J-751317D01*
G01*
X244313819Y-184075155D01*
G75*
G02*
X244399847Y-185663817I-751317J-837345D01*
G01*
X243089845Y-187123817D01*
G75*
G02*
X241501183Y-187209845I-837345J751317D01*
G01*
G37*
G04 #@! TD.AperFunction*
X248602500Y-183832500D03*
G04 #@! TA.AperFunction,ComponentPad*
G36*
G01*
X248485097Y-185534834D02*
X248485097Y-185534834D01*
G75*
G02*
X247440166Y-184335097I77403J1122334D01*
G01*
X247480166Y-183755097D01*
G75*
G02*
X248679903Y-182710166I1122334J-77403D01*
G01*
X248679903Y-182710166D01*
G75*
G02*
X249724834Y-183909903I-77403J-1122334D01*
G01*
X249684834Y-184489903D01*
G75*
G02*
X248485097Y-185534834I-1122334J77403D01*
G01*
G37*
G04 #@! TD.AperFunction*
X224512500Y-184912500D03*
G04 #@! TA.AperFunction,ComponentPad*
G36*
G01*
X222451183Y-187209845D02*
X222451183Y-187209845D01*
G75*
G02*
X222365155Y-185621183I751317J837345D01*
G01*
X223675157Y-184161183D01*
G75*
G02*
X225263819Y-184075155I837345J-751317D01*
G01*
X225263819Y-184075155D01*
G75*
G02*
X225349847Y-185663817I-751317J-837345D01*
G01*
X224039845Y-187123817D01*
G75*
G02*
X222451183Y-187209845I-837345J751317D01*
G01*
G37*
G04 #@! TD.AperFunction*
X229552500Y-183832500D03*
G04 #@! TA.AperFunction,ComponentPad*
G36*
G01*
X229435097Y-185534834D02*
X229435097Y-185534834D01*
G75*
G02*
X228390166Y-184335097I77403J1122334D01*
G01*
X228430166Y-183755097D01*
G75*
G02*
X229629903Y-182710166I1122334J-77403D01*
G01*
X229629903Y-182710166D01*
G75*
G02*
X230674834Y-183909903I-77403J-1122334D01*
G01*
X230634834Y-184489903D01*
G75*
G02*
X229435097Y-185534834I-1122334J77403D01*
G01*
G37*
G04 #@! TD.AperFunction*
X205462500Y-184912500D03*
G04 #@! TA.AperFunction,ComponentPad*
G36*
G01*
X203401183Y-187209845D02*
X203401183Y-187209845D01*
G75*
G02*
X203315155Y-185621183I751317J837345D01*
G01*
X204625157Y-184161183D01*
G75*
G02*
X206213819Y-184075155I837345J-751317D01*
G01*
X206213819Y-184075155D01*
G75*
G02*
X206299847Y-185663817I-751317J-837345D01*
G01*
X204989845Y-187123817D01*
G75*
G02*
X203401183Y-187209845I-837345J751317D01*
G01*
G37*
G04 #@! TD.AperFunction*
X210502500Y-183832500D03*
G04 #@! TA.AperFunction,ComponentPad*
G36*
G01*
X210385097Y-185534834D02*
X210385097Y-185534834D01*
G75*
G02*
X209340166Y-184335097I77403J1122334D01*
G01*
X209380166Y-183755097D01*
G75*
G02*
X210579903Y-182710166I1122334J-77403D01*
G01*
X210579903Y-182710166D01*
G75*
G02*
X211624834Y-183909903I-77403J-1122334D01*
G01*
X211584834Y-184489903D01*
G75*
G02*
X210385097Y-185534834I-1122334J77403D01*
G01*
G37*
G04 #@! TD.AperFunction*
X186412500Y-184912500D03*
G04 #@! TA.AperFunction,ComponentPad*
G36*
G01*
X184351183Y-187209845D02*
X184351183Y-187209845D01*
G75*
G02*
X184265155Y-185621183I751317J837345D01*
G01*
X185575157Y-184161183D01*
G75*
G02*
X187163819Y-184075155I837345J-751317D01*
G01*
X187163819Y-184075155D01*
G75*
G02*
X187249847Y-185663817I-751317J-837345D01*
G01*
X185939845Y-187123817D01*
G75*
G02*
X184351183Y-187209845I-837345J751317D01*
G01*
G37*
G04 #@! TD.AperFunction*
X191452500Y-183832500D03*
G04 #@! TA.AperFunction,ComponentPad*
G36*
G01*
X191335097Y-185534834D02*
X191335097Y-185534834D01*
G75*
G02*
X190290166Y-184335097I77403J1122334D01*
G01*
X190330166Y-183755097D01*
G75*
G02*
X191529903Y-182710166I1122334J-77403D01*
G01*
X191529903Y-182710166D01*
G75*
G02*
X192574834Y-183909903I-77403J-1122334D01*
G01*
X192534834Y-184489903D01*
G75*
G02*
X191335097Y-185534834I-1122334J77403D01*
G01*
G37*
G04 #@! TD.AperFunction*
X167362500Y-184912500D03*
G04 #@! TA.AperFunction,ComponentPad*
G36*
G01*
X165301183Y-187209845D02*
X165301183Y-187209845D01*
G75*
G02*
X165215155Y-185621183I751317J837345D01*
G01*
X166525157Y-184161183D01*
G75*
G02*
X168113819Y-184075155I837345J-751317D01*
G01*
X168113819Y-184075155D01*
G75*
G02*
X168199847Y-185663817I-751317J-837345D01*
G01*
X166889845Y-187123817D01*
G75*
G02*
X165301183Y-187209845I-837345J751317D01*
G01*
G37*
G04 #@! TD.AperFunction*
X172402500Y-183832500D03*
G04 #@! TA.AperFunction,ComponentPad*
G36*
G01*
X172285097Y-185534834D02*
X172285097Y-185534834D01*
G75*
G02*
X171240166Y-184335097I77403J1122334D01*
G01*
X171280166Y-183755097D01*
G75*
G02*
X172479903Y-182710166I1122334J-77403D01*
G01*
X172479903Y-182710166D01*
G75*
G02*
X173524834Y-183909903I-77403J-1122334D01*
G01*
X173484834Y-184489903D01*
G75*
G02*
X172285097Y-185534834I-1122334J77403D01*
G01*
G37*
G04 #@! TD.AperFunction*
X148312500Y-184912500D03*
G04 #@! TA.AperFunction,ComponentPad*
G36*
G01*
X146251183Y-187209845D02*
X146251183Y-187209845D01*
G75*
G02*
X146165155Y-185621183I751317J837345D01*
G01*
X147475157Y-184161183D01*
G75*
G02*
X149063819Y-184075155I837345J-751317D01*
G01*
X149063819Y-184075155D01*
G75*
G02*
X149149847Y-185663817I-751317J-837345D01*
G01*
X147839845Y-187123817D01*
G75*
G02*
X146251183Y-187209845I-837345J751317D01*
G01*
G37*
G04 #@! TD.AperFunction*
X153352500Y-183832500D03*
G04 #@! TA.AperFunction,ComponentPad*
G36*
G01*
X153235097Y-185534834D02*
X153235097Y-185534834D01*
G75*
G02*
X152190166Y-184335097I77403J1122334D01*
G01*
X152230166Y-183755097D01*
G75*
G02*
X153429903Y-182710166I1122334J-77403D01*
G01*
X153429903Y-182710166D01*
G75*
G02*
X154474834Y-183909903I-77403J-1122334D01*
G01*
X154434834Y-184489903D01*
G75*
G02*
X153235097Y-185534834I-1122334J77403D01*
G01*
G37*
G04 #@! TD.AperFunction*
X129262500Y-184912500D03*
G04 #@! TA.AperFunction,ComponentPad*
G36*
G01*
X127201183Y-187209845D02*
X127201183Y-187209845D01*
G75*
G02*
X127115155Y-185621183I751317J837345D01*
G01*
X128425157Y-184161183D01*
G75*
G02*
X130013819Y-184075155I837345J-751317D01*
G01*
X130013819Y-184075155D01*
G75*
G02*
X130099847Y-185663817I-751317J-837345D01*
G01*
X128789845Y-187123817D01*
G75*
G02*
X127201183Y-187209845I-837345J751317D01*
G01*
G37*
G04 #@! TD.AperFunction*
X134302500Y-183832500D03*
G04 #@! TA.AperFunction,ComponentPad*
G36*
G01*
X134185097Y-185534834D02*
X134185097Y-185534834D01*
G75*
G02*
X133140166Y-184335097I77403J1122334D01*
G01*
X133180166Y-183755097D01*
G75*
G02*
X134379903Y-182710166I1122334J-77403D01*
G01*
X134379903Y-182710166D01*
G75*
G02*
X135424834Y-183909903I-77403J-1122334D01*
G01*
X135384834Y-184489903D01*
G75*
G02*
X134185097Y-185534834I-1122334J77403D01*
G01*
G37*
G04 #@! TD.AperFunction*
X372150000Y-165862500D03*
G04 #@! TA.AperFunction,ComponentPad*
G36*
G01*
X370088683Y-168159845D02*
X370088683Y-168159845D01*
G75*
G02*
X370002655Y-166571183I751317J837345D01*
G01*
X371312657Y-165111183D01*
G75*
G02*
X372901319Y-165025155I837345J-751317D01*
G01*
X372901319Y-165025155D01*
G75*
G02*
X372987347Y-166613817I-751317J-837345D01*
G01*
X371677345Y-168073817D01*
G75*
G02*
X370088683Y-168159845I-837345J751317D01*
G01*
G37*
G04 #@! TD.AperFunction*
X377190000Y-164782500D03*
G04 #@! TA.AperFunction,ComponentPad*
G36*
G01*
X377072597Y-166484834D02*
X377072597Y-166484834D01*
G75*
G02*
X376027666Y-165285097I77403J1122334D01*
G01*
X376067666Y-164705097D01*
G75*
G02*
X377267403Y-163660166I1122334J-77403D01*
G01*
X377267403Y-163660166D01*
G75*
G02*
X378312334Y-164859903I-77403J-1122334D01*
G01*
X378272334Y-165439903D01*
G75*
G02*
X377072597Y-166484834I-1122334J77403D01*
G01*
G37*
G04 #@! TD.AperFunction*
X310237500Y-165862500D03*
G04 #@! TA.AperFunction,ComponentPad*
G36*
G01*
X308176183Y-168159845D02*
X308176183Y-168159845D01*
G75*
G02*
X308090155Y-166571183I751317J837345D01*
G01*
X309400157Y-165111183D01*
G75*
G02*
X310988819Y-165025155I837345J-751317D01*
G01*
X310988819Y-165025155D01*
G75*
G02*
X311074847Y-166613817I-751317J-837345D01*
G01*
X309764845Y-168073817D01*
G75*
G02*
X308176183Y-168159845I-837345J751317D01*
G01*
G37*
G04 #@! TD.AperFunction*
X315277500Y-164782500D03*
G04 #@! TA.AperFunction,ComponentPad*
G36*
G01*
X315160097Y-166484834D02*
X315160097Y-166484834D01*
G75*
G02*
X314115166Y-165285097I77403J1122334D01*
G01*
X314155166Y-164705097D01*
G75*
G02*
X315354903Y-163660166I1122334J-77403D01*
G01*
X315354903Y-163660166D01*
G75*
G02*
X316399834Y-164859903I-77403J-1122334D01*
G01*
X316359834Y-165439903D01*
G75*
G02*
X315160097Y-166484834I-1122334J77403D01*
G01*
G37*
G04 #@! TD.AperFunction*
X291187500Y-165862500D03*
G04 #@! TA.AperFunction,ComponentPad*
G36*
G01*
X289126183Y-168159845D02*
X289126183Y-168159845D01*
G75*
G02*
X289040155Y-166571183I751317J837345D01*
G01*
X290350157Y-165111183D01*
G75*
G02*
X291938819Y-165025155I837345J-751317D01*
G01*
X291938819Y-165025155D01*
G75*
G02*
X292024847Y-166613817I-751317J-837345D01*
G01*
X290714845Y-168073817D01*
G75*
G02*
X289126183Y-168159845I-837345J751317D01*
G01*
G37*
G04 #@! TD.AperFunction*
X296227500Y-164782500D03*
G04 #@! TA.AperFunction,ComponentPad*
G36*
G01*
X296110097Y-166484834D02*
X296110097Y-166484834D01*
G75*
G02*
X295065166Y-165285097I77403J1122334D01*
G01*
X295105166Y-164705097D01*
G75*
G02*
X296304903Y-163660166I1122334J-77403D01*
G01*
X296304903Y-163660166D01*
G75*
G02*
X297349834Y-164859903I-77403J-1122334D01*
G01*
X297309834Y-165439903D01*
G75*
G02*
X296110097Y-166484834I-1122334J77403D01*
G01*
G37*
G04 #@! TD.AperFunction*
X272137500Y-165862500D03*
G04 #@! TA.AperFunction,ComponentPad*
G36*
G01*
X270076183Y-168159845D02*
X270076183Y-168159845D01*
G75*
G02*
X269990155Y-166571183I751317J837345D01*
G01*
X271300157Y-165111183D01*
G75*
G02*
X272888819Y-165025155I837345J-751317D01*
G01*
X272888819Y-165025155D01*
G75*
G02*
X272974847Y-166613817I-751317J-837345D01*
G01*
X271664845Y-168073817D01*
G75*
G02*
X270076183Y-168159845I-837345J751317D01*
G01*
G37*
G04 #@! TD.AperFunction*
X277177500Y-164782500D03*
G04 #@! TA.AperFunction,ComponentPad*
G36*
G01*
X277060097Y-166484834D02*
X277060097Y-166484834D01*
G75*
G02*
X276015166Y-165285097I77403J1122334D01*
G01*
X276055166Y-164705097D01*
G75*
G02*
X277254903Y-163660166I1122334J-77403D01*
G01*
X277254903Y-163660166D01*
G75*
G02*
X278299834Y-164859903I-77403J-1122334D01*
G01*
X278259834Y-165439903D01*
G75*
G02*
X277060097Y-166484834I-1122334J77403D01*
G01*
G37*
G04 #@! TD.AperFunction*
X253087500Y-165862500D03*
G04 #@! TA.AperFunction,ComponentPad*
G36*
G01*
X251026183Y-168159845D02*
X251026183Y-168159845D01*
G75*
G02*
X250940155Y-166571183I751317J837345D01*
G01*
X252250157Y-165111183D01*
G75*
G02*
X253838819Y-165025155I837345J-751317D01*
G01*
X253838819Y-165025155D01*
G75*
G02*
X253924847Y-166613817I-751317J-837345D01*
G01*
X252614845Y-168073817D01*
G75*
G02*
X251026183Y-168159845I-837345J751317D01*
G01*
G37*
G04 #@! TD.AperFunction*
X258127500Y-164782500D03*
G04 #@! TA.AperFunction,ComponentPad*
G36*
G01*
X258010097Y-166484834D02*
X258010097Y-166484834D01*
G75*
G02*
X256965166Y-165285097I77403J1122334D01*
G01*
X257005166Y-164705097D01*
G75*
G02*
X258204903Y-163660166I1122334J-77403D01*
G01*
X258204903Y-163660166D01*
G75*
G02*
X259249834Y-164859903I-77403J-1122334D01*
G01*
X259209834Y-165439903D01*
G75*
G02*
X258010097Y-166484834I-1122334J77403D01*
G01*
G37*
G04 #@! TD.AperFunction*
X234037500Y-165862500D03*
G04 #@! TA.AperFunction,ComponentPad*
G36*
G01*
X231976183Y-168159845D02*
X231976183Y-168159845D01*
G75*
G02*
X231890155Y-166571183I751317J837345D01*
G01*
X233200157Y-165111183D01*
G75*
G02*
X234788819Y-165025155I837345J-751317D01*
G01*
X234788819Y-165025155D01*
G75*
G02*
X234874847Y-166613817I-751317J-837345D01*
G01*
X233564845Y-168073817D01*
G75*
G02*
X231976183Y-168159845I-837345J751317D01*
G01*
G37*
G04 #@! TD.AperFunction*
X239077500Y-164782500D03*
G04 #@! TA.AperFunction,ComponentPad*
G36*
G01*
X238960097Y-166484834D02*
X238960097Y-166484834D01*
G75*
G02*
X237915166Y-165285097I77403J1122334D01*
G01*
X237955166Y-164705097D01*
G75*
G02*
X239154903Y-163660166I1122334J-77403D01*
G01*
X239154903Y-163660166D01*
G75*
G02*
X240199834Y-164859903I-77403J-1122334D01*
G01*
X240159834Y-165439903D01*
G75*
G02*
X238960097Y-166484834I-1122334J77403D01*
G01*
G37*
G04 #@! TD.AperFunction*
X214987500Y-165862500D03*
G04 #@! TA.AperFunction,ComponentPad*
G36*
G01*
X212926183Y-168159845D02*
X212926183Y-168159845D01*
G75*
G02*
X212840155Y-166571183I751317J837345D01*
G01*
X214150157Y-165111183D01*
G75*
G02*
X215738819Y-165025155I837345J-751317D01*
G01*
X215738819Y-165025155D01*
G75*
G02*
X215824847Y-166613817I-751317J-837345D01*
G01*
X214514845Y-168073817D01*
G75*
G02*
X212926183Y-168159845I-837345J751317D01*
G01*
G37*
G04 #@! TD.AperFunction*
X220027500Y-164782500D03*
G04 #@! TA.AperFunction,ComponentPad*
G36*
G01*
X219910097Y-166484834D02*
X219910097Y-166484834D01*
G75*
G02*
X218865166Y-165285097I77403J1122334D01*
G01*
X218905166Y-164705097D01*
G75*
G02*
X220104903Y-163660166I1122334J-77403D01*
G01*
X220104903Y-163660166D01*
G75*
G02*
X221149834Y-164859903I-77403J-1122334D01*
G01*
X221109834Y-165439903D01*
G75*
G02*
X219910097Y-166484834I-1122334J77403D01*
G01*
G37*
G04 #@! TD.AperFunction*
X195937500Y-165862500D03*
G04 #@! TA.AperFunction,ComponentPad*
G36*
G01*
X193876183Y-168159845D02*
X193876183Y-168159845D01*
G75*
G02*
X193790155Y-166571183I751317J837345D01*
G01*
X195100157Y-165111183D01*
G75*
G02*
X196688819Y-165025155I837345J-751317D01*
G01*
X196688819Y-165025155D01*
G75*
G02*
X196774847Y-166613817I-751317J-837345D01*
G01*
X195464845Y-168073817D01*
G75*
G02*
X193876183Y-168159845I-837345J751317D01*
G01*
G37*
G04 #@! TD.AperFunction*
X200977500Y-164782500D03*
G04 #@! TA.AperFunction,ComponentPad*
G36*
G01*
X200860097Y-166484834D02*
X200860097Y-166484834D01*
G75*
G02*
X199815166Y-165285097I77403J1122334D01*
G01*
X199855166Y-164705097D01*
G75*
G02*
X201054903Y-163660166I1122334J-77403D01*
G01*
X201054903Y-163660166D01*
G75*
G02*
X202099834Y-164859903I-77403J-1122334D01*
G01*
X202059834Y-165439903D01*
G75*
G02*
X200860097Y-166484834I-1122334J77403D01*
G01*
G37*
G04 #@! TD.AperFunction*
X176887500Y-165862500D03*
G04 #@! TA.AperFunction,ComponentPad*
G36*
G01*
X174826183Y-168159845D02*
X174826183Y-168159845D01*
G75*
G02*
X174740155Y-166571183I751317J837345D01*
G01*
X176050157Y-165111183D01*
G75*
G02*
X177638819Y-165025155I837345J-751317D01*
G01*
X177638819Y-165025155D01*
G75*
G02*
X177724847Y-166613817I-751317J-837345D01*
G01*
X176414845Y-168073817D01*
G75*
G02*
X174826183Y-168159845I-837345J751317D01*
G01*
G37*
G04 #@! TD.AperFunction*
X181927500Y-164782500D03*
G04 #@! TA.AperFunction,ComponentPad*
G36*
G01*
X181810097Y-166484834D02*
X181810097Y-166484834D01*
G75*
G02*
X180765166Y-165285097I77403J1122334D01*
G01*
X180805166Y-164705097D01*
G75*
G02*
X182004903Y-163660166I1122334J-77403D01*
G01*
X182004903Y-163660166D01*
G75*
G02*
X183049834Y-164859903I-77403J-1122334D01*
G01*
X183009834Y-165439903D01*
G75*
G02*
X181810097Y-166484834I-1122334J77403D01*
G01*
G37*
G04 #@! TD.AperFunction*
X157837500Y-165862500D03*
G04 #@! TA.AperFunction,ComponentPad*
G36*
G01*
X155776183Y-168159845D02*
X155776183Y-168159845D01*
G75*
G02*
X155690155Y-166571183I751317J837345D01*
G01*
X157000157Y-165111183D01*
G75*
G02*
X158588819Y-165025155I837345J-751317D01*
G01*
X158588819Y-165025155D01*
G75*
G02*
X158674847Y-166613817I-751317J-837345D01*
G01*
X157364845Y-168073817D01*
G75*
G02*
X155776183Y-168159845I-837345J751317D01*
G01*
G37*
G04 #@! TD.AperFunction*
X162877500Y-164782500D03*
G04 #@! TA.AperFunction,ComponentPad*
G36*
G01*
X162760097Y-166484834D02*
X162760097Y-166484834D01*
G75*
G02*
X161715166Y-165285097I77403J1122334D01*
G01*
X161755166Y-164705097D01*
G75*
G02*
X162954903Y-163660166I1122334J-77403D01*
G01*
X162954903Y-163660166D01*
G75*
G02*
X163999834Y-164859903I-77403J-1122334D01*
G01*
X163959834Y-165439903D01*
G75*
G02*
X162760097Y-166484834I-1122334J77403D01*
G01*
G37*
G04 #@! TD.AperFunction*
X138787500Y-165862500D03*
G04 #@! TA.AperFunction,ComponentPad*
G36*
G01*
X136726183Y-168159845D02*
X136726183Y-168159845D01*
G75*
G02*
X136640155Y-166571183I751317J837345D01*
G01*
X137950157Y-165111183D01*
G75*
G02*
X139538819Y-165025155I837345J-751317D01*
G01*
X139538819Y-165025155D01*
G75*
G02*
X139624847Y-166613817I-751317J-837345D01*
G01*
X138314845Y-168073817D01*
G75*
G02*
X136726183Y-168159845I-837345J751317D01*
G01*
G37*
G04 #@! TD.AperFunction*
X143827500Y-164782500D03*
G04 #@! TA.AperFunction,ComponentPad*
G36*
G01*
X143710097Y-166484834D02*
X143710097Y-166484834D01*
G75*
G02*
X142665166Y-165285097I77403J1122334D01*
G01*
X142705166Y-164705097D01*
G75*
G02*
X143904903Y-163660166I1122334J-77403D01*
G01*
X143904903Y-163660166D01*
G75*
G02*
X144949834Y-164859903I-77403J-1122334D01*
G01*
X144909834Y-165439903D01*
G75*
G02*
X143710097Y-166484834I-1122334J77403D01*
G01*
G37*
G04 #@! TD.AperFunction*
X119737500Y-165862500D03*
G04 #@! TA.AperFunction,ComponentPad*
G36*
G01*
X117676183Y-168159845D02*
X117676183Y-168159845D01*
G75*
G02*
X117590155Y-166571183I751317J837345D01*
G01*
X118900157Y-165111183D01*
G75*
G02*
X120488819Y-165025155I837345J-751317D01*
G01*
X120488819Y-165025155D01*
G75*
G02*
X120574847Y-166613817I-751317J-837345D01*
G01*
X119264845Y-168073817D01*
G75*
G02*
X117676183Y-168159845I-837345J751317D01*
G01*
G37*
G04 #@! TD.AperFunction*
X124777500Y-164782500D03*
G04 #@! TA.AperFunction,ComponentPad*
G36*
G01*
X124660097Y-166484834D02*
X124660097Y-166484834D01*
G75*
G02*
X123615166Y-165285097I77403J1122334D01*
G01*
X123655166Y-164705097D01*
G75*
G02*
X124854903Y-163660166I1122334J-77403D01*
G01*
X124854903Y-163660166D01*
G75*
G02*
X125899834Y-164859903I-77403J-1122334D01*
G01*
X125859834Y-165439903D01*
G75*
G02*
X124660097Y-166484834I-1122334J77403D01*
G01*
G37*
G04 #@! TD.AperFunction*
X372150000Y-146843750D03*
G04 #@! TA.AperFunction,ComponentPad*
G36*
G01*
X370088683Y-149141095D02*
X370088683Y-149141095D01*
G75*
G02*
X370002655Y-147552433I751317J837345D01*
G01*
X371312657Y-146092433D01*
G75*
G02*
X372901319Y-146006405I837345J-751317D01*
G01*
X372901319Y-146006405D01*
G75*
G02*
X372987347Y-147595067I-751317J-837345D01*
G01*
X371677345Y-149055067D01*
G75*
G02*
X370088683Y-149141095I-837345J751317D01*
G01*
G37*
G04 #@! TD.AperFunction*
X377190000Y-145763750D03*
G04 #@! TA.AperFunction,ComponentPad*
G36*
G01*
X377072597Y-147466084D02*
X377072597Y-147466084D01*
G75*
G02*
X376027666Y-146266347I77403J1122334D01*
G01*
X376067666Y-145686347D01*
G75*
G02*
X377267403Y-144641416I1122334J-77403D01*
G01*
X377267403Y-144641416D01*
G75*
G02*
X378312334Y-145841153I-77403J-1122334D01*
G01*
X378272334Y-146421153D01*
G75*
G02*
X377072597Y-147466084I-1122334J77403D01*
G01*
G37*
G04 #@! TD.AperFunction*
X324525000Y-146812500D03*
G04 #@! TA.AperFunction,ComponentPad*
G36*
G01*
X322463683Y-149109845D02*
X322463683Y-149109845D01*
G75*
G02*
X322377655Y-147521183I751317J837345D01*
G01*
X323687657Y-146061183D01*
G75*
G02*
X325276319Y-145975155I837345J-751317D01*
G01*
X325276319Y-145975155D01*
G75*
G02*
X325362347Y-147563817I-751317J-837345D01*
G01*
X324052345Y-149023817D01*
G75*
G02*
X322463683Y-149109845I-837345J751317D01*
G01*
G37*
G04 #@! TD.AperFunction*
X329565000Y-145732500D03*
G04 #@! TA.AperFunction,ComponentPad*
G36*
G01*
X329447597Y-147434834D02*
X329447597Y-147434834D01*
G75*
G02*
X328402666Y-146235097I77403J1122334D01*
G01*
X328442666Y-145655097D01*
G75*
G02*
X329642403Y-144610166I1122334J-77403D01*
G01*
X329642403Y-144610166D01*
G75*
G02*
X330687334Y-145809903I-77403J-1122334D01*
G01*
X330647334Y-146389903D01*
G75*
G02*
X329447597Y-147434834I-1122334J77403D01*
G01*
G37*
G04 #@! TD.AperFunction*
X305475000Y-146812500D03*
G04 #@! TA.AperFunction,ComponentPad*
G36*
G01*
X303413683Y-149109845D02*
X303413683Y-149109845D01*
G75*
G02*
X303327655Y-147521183I751317J837345D01*
G01*
X304637657Y-146061183D01*
G75*
G02*
X306226319Y-145975155I837345J-751317D01*
G01*
X306226319Y-145975155D01*
G75*
G02*
X306312347Y-147563817I-751317J-837345D01*
G01*
X305002345Y-149023817D01*
G75*
G02*
X303413683Y-149109845I-837345J751317D01*
G01*
G37*
G04 #@! TD.AperFunction*
X310515000Y-145732500D03*
G04 #@! TA.AperFunction,ComponentPad*
G36*
G01*
X310397597Y-147434834D02*
X310397597Y-147434834D01*
G75*
G02*
X309352666Y-146235097I77403J1122334D01*
G01*
X309392666Y-145655097D01*
G75*
G02*
X310592403Y-144610166I1122334J-77403D01*
G01*
X310592403Y-144610166D01*
G75*
G02*
X311637334Y-145809903I-77403J-1122334D01*
G01*
X311597334Y-146389903D01*
G75*
G02*
X310397597Y-147434834I-1122334J77403D01*
G01*
G37*
G04 #@! TD.AperFunction*
X286425000Y-146812500D03*
G04 #@! TA.AperFunction,ComponentPad*
G36*
G01*
X284363683Y-149109845D02*
X284363683Y-149109845D01*
G75*
G02*
X284277655Y-147521183I751317J837345D01*
G01*
X285587657Y-146061183D01*
G75*
G02*
X287176319Y-145975155I837345J-751317D01*
G01*
X287176319Y-145975155D01*
G75*
G02*
X287262347Y-147563817I-751317J-837345D01*
G01*
X285952345Y-149023817D01*
G75*
G02*
X284363683Y-149109845I-837345J751317D01*
G01*
G37*
G04 #@! TD.AperFunction*
X291465000Y-145732500D03*
G04 #@! TA.AperFunction,ComponentPad*
G36*
G01*
X291347597Y-147434834D02*
X291347597Y-147434834D01*
G75*
G02*
X290302666Y-146235097I77403J1122334D01*
G01*
X290342666Y-145655097D01*
G75*
G02*
X291542403Y-144610166I1122334J-77403D01*
G01*
X291542403Y-144610166D01*
G75*
G02*
X292587334Y-145809903I-77403J-1122334D01*
G01*
X292547334Y-146389903D01*
G75*
G02*
X291347597Y-147434834I-1122334J77403D01*
G01*
G37*
G04 #@! TD.AperFunction*
X267375000Y-146812500D03*
G04 #@! TA.AperFunction,ComponentPad*
G36*
G01*
X265313683Y-149109845D02*
X265313683Y-149109845D01*
G75*
G02*
X265227655Y-147521183I751317J837345D01*
G01*
X266537657Y-146061183D01*
G75*
G02*
X268126319Y-145975155I837345J-751317D01*
G01*
X268126319Y-145975155D01*
G75*
G02*
X268212347Y-147563817I-751317J-837345D01*
G01*
X266902345Y-149023817D01*
G75*
G02*
X265313683Y-149109845I-837345J751317D01*
G01*
G37*
G04 #@! TD.AperFunction*
X272415000Y-145732500D03*
G04 #@! TA.AperFunction,ComponentPad*
G36*
G01*
X272297597Y-147434834D02*
X272297597Y-147434834D01*
G75*
G02*
X271252666Y-146235097I77403J1122334D01*
G01*
X271292666Y-145655097D01*
G75*
G02*
X272492403Y-144610166I1122334J-77403D01*
G01*
X272492403Y-144610166D01*
G75*
G02*
X273537334Y-145809903I-77403J-1122334D01*
G01*
X273497334Y-146389903D01*
G75*
G02*
X272297597Y-147434834I-1122334J77403D01*
G01*
G37*
G04 #@! TD.AperFunction*
X248325000Y-146812500D03*
G04 #@! TA.AperFunction,ComponentPad*
G36*
G01*
X246263683Y-149109845D02*
X246263683Y-149109845D01*
G75*
G02*
X246177655Y-147521183I751317J837345D01*
G01*
X247487657Y-146061183D01*
G75*
G02*
X249076319Y-145975155I837345J-751317D01*
G01*
X249076319Y-145975155D01*
G75*
G02*
X249162347Y-147563817I-751317J-837345D01*
G01*
X247852345Y-149023817D01*
G75*
G02*
X246263683Y-149109845I-837345J751317D01*
G01*
G37*
G04 #@! TD.AperFunction*
X253365000Y-145732500D03*
G04 #@! TA.AperFunction,ComponentPad*
G36*
G01*
X253247597Y-147434834D02*
X253247597Y-147434834D01*
G75*
G02*
X252202666Y-146235097I77403J1122334D01*
G01*
X252242666Y-145655097D01*
G75*
G02*
X253442403Y-144610166I1122334J-77403D01*
G01*
X253442403Y-144610166D01*
G75*
G02*
X254487334Y-145809903I-77403J-1122334D01*
G01*
X254447334Y-146389903D01*
G75*
G02*
X253247597Y-147434834I-1122334J77403D01*
G01*
G37*
G04 #@! TD.AperFunction*
X229275000Y-146812500D03*
G04 #@! TA.AperFunction,ComponentPad*
G36*
G01*
X227213683Y-149109845D02*
X227213683Y-149109845D01*
G75*
G02*
X227127655Y-147521183I751317J837345D01*
G01*
X228437657Y-146061183D01*
G75*
G02*
X230026319Y-145975155I837345J-751317D01*
G01*
X230026319Y-145975155D01*
G75*
G02*
X230112347Y-147563817I-751317J-837345D01*
G01*
X228802345Y-149023817D01*
G75*
G02*
X227213683Y-149109845I-837345J751317D01*
G01*
G37*
G04 #@! TD.AperFunction*
X234315000Y-145732500D03*
G04 #@! TA.AperFunction,ComponentPad*
G36*
G01*
X234197597Y-147434834D02*
X234197597Y-147434834D01*
G75*
G02*
X233152666Y-146235097I77403J1122334D01*
G01*
X233192666Y-145655097D01*
G75*
G02*
X234392403Y-144610166I1122334J-77403D01*
G01*
X234392403Y-144610166D01*
G75*
G02*
X235437334Y-145809903I-77403J-1122334D01*
G01*
X235397334Y-146389903D01*
G75*
G02*
X234197597Y-147434834I-1122334J77403D01*
G01*
G37*
G04 #@! TD.AperFunction*
X210225000Y-146812500D03*
G04 #@! TA.AperFunction,ComponentPad*
G36*
G01*
X208163683Y-149109845D02*
X208163683Y-149109845D01*
G75*
G02*
X208077655Y-147521183I751317J837345D01*
G01*
X209387657Y-146061183D01*
G75*
G02*
X210976319Y-145975155I837345J-751317D01*
G01*
X210976319Y-145975155D01*
G75*
G02*
X211062347Y-147563817I-751317J-837345D01*
G01*
X209752345Y-149023817D01*
G75*
G02*
X208163683Y-149109845I-837345J751317D01*
G01*
G37*
G04 #@! TD.AperFunction*
X215265000Y-145732500D03*
G04 #@! TA.AperFunction,ComponentPad*
G36*
G01*
X215147597Y-147434834D02*
X215147597Y-147434834D01*
G75*
G02*
X214102666Y-146235097I77403J1122334D01*
G01*
X214142666Y-145655097D01*
G75*
G02*
X215342403Y-144610166I1122334J-77403D01*
G01*
X215342403Y-144610166D01*
G75*
G02*
X216387334Y-145809903I-77403J-1122334D01*
G01*
X216347334Y-146389903D01*
G75*
G02*
X215147597Y-147434834I-1122334J77403D01*
G01*
G37*
G04 #@! TD.AperFunction*
X191175000Y-146812500D03*
G04 #@! TA.AperFunction,ComponentPad*
G36*
G01*
X189113683Y-149109845D02*
X189113683Y-149109845D01*
G75*
G02*
X189027655Y-147521183I751317J837345D01*
G01*
X190337657Y-146061183D01*
G75*
G02*
X191926319Y-145975155I837345J-751317D01*
G01*
X191926319Y-145975155D01*
G75*
G02*
X192012347Y-147563817I-751317J-837345D01*
G01*
X190702345Y-149023817D01*
G75*
G02*
X189113683Y-149109845I-837345J751317D01*
G01*
G37*
G04 #@! TD.AperFunction*
X196215000Y-145732500D03*
G04 #@! TA.AperFunction,ComponentPad*
G36*
G01*
X196097597Y-147434834D02*
X196097597Y-147434834D01*
G75*
G02*
X195052666Y-146235097I77403J1122334D01*
G01*
X195092666Y-145655097D01*
G75*
G02*
X196292403Y-144610166I1122334J-77403D01*
G01*
X196292403Y-144610166D01*
G75*
G02*
X197337334Y-145809903I-77403J-1122334D01*
G01*
X197297334Y-146389903D01*
G75*
G02*
X196097597Y-147434834I-1122334J77403D01*
G01*
G37*
G04 #@! TD.AperFunction*
X172125000Y-146812500D03*
G04 #@! TA.AperFunction,ComponentPad*
G36*
G01*
X170063683Y-149109845D02*
X170063683Y-149109845D01*
G75*
G02*
X169977655Y-147521183I751317J837345D01*
G01*
X171287657Y-146061183D01*
G75*
G02*
X172876319Y-145975155I837345J-751317D01*
G01*
X172876319Y-145975155D01*
G75*
G02*
X172962347Y-147563817I-751317J-837345D01*
G01*
X171652345Y-149023817D01*
G75*
G02*
X170063683Y-149109845I-837345J751317D01*
G01*
G37*
G04 #@! TD.AperFunction*
X177165000Y-145732500D03*
G04 #@! TA.AperFunction,ComponentPad*
G36*
G01*
X177047597Y-147434834D02*
X177047597Y-147434834D01*
G75*
G02*
X176002666Y-146235097I77403J1122334D01*
G01*
X176042666Y-145655097D01*
G75*
G02*
X177242403Y-144610166I1122334J-77403D01*
G01*
X177242403Y-144610166D01*
G75*
G02*
X178287334Y-145809903I-77403J-1122334D01*
G01*
X178247334Y-146389903D01*
G75*
G02*
X177047597Y-147434834I-1122334J77403D01*
G01*
G37*
G04 #@! TD.AperFunction*
X153075000Y-146812500D03*
G04 #@! TA.AperFunction,ComponentPad*
G36*
G01*
X151013683Y-149109845D02*
X151013683Y-149109845D01*
G75*
G02*
X150927655Y-147521183I751317J837345D01*
G01*
X152237657Y-146061183D01*
G75*
G02*
X153826319Y-145975155I837345J-751317D01*
G01*
X153826319Y-145975155D01*
G75*
G02*
X153912347Y-147563817I-751317J-837345D01*
G01*
X152602345Y-149023817D01*
G75*
G02*
X151013683Y-149109845I-837345J751317D01*
G01*
G37*
G04 #@! TD.AperFunction*
X158115000Y-145732500D03*
G04 #@! TA.AperFunction,ComponentPad*
G36*
G01*
X157997597Y-147434834D02*
X157997597Y-147434834D01*
G75*
G02*
X156952666Y-146235097I77403J1122334D01*
G01*
X156992666Y-145655097D01*
G75*
G02*
X158192403Y-144610166I1122334J-77403D01*
G01*
X158192403Y-144610166D01*
G75*
G02*
X159237334Y-145809903I-77403J-1122334D01*
G01*
X159197334Y-146389903D01*
G75*
G02*
X157997597Y-147434834I-1122334J77403D01*
G01*
G37*
G04 #@! TD.AperFunction*
X134025000Y-146812500D03*
G04 #@! TA.AperFunction,ComponentPad*
G36*
G01*
X131963683Y-149109845D02*
X131963683Y-149109845D01*
G75*
G02*
X131877655Y-147521183I751317J837345D01*
G01*
X133187657Y-146061183D01*
G75*
G02*
X134776319Y-145975155I837345J-751317D01*
G01*
X134776319Y-145975155D01*
G75*
G02*
X134862347Y-147563817I-751317J-837345D01*
G01*
X133552345Y-149023817D01*
G75*
G02*
X131963683Y-149109845I-837345J751317D01*
G01*
G37*
G04 #@! TD.AperFunction*
X139065000Y-145732500D03*
G04 #@! TA.AperFunction,ComponentPad*
G36*
G01*
X138947597Y-147434834D02*
X138947597Y-147434834D01*
G75*
G02*
X137902666Y-146235097I77403J1122334D01*
G01*
X137942666Y-145655097D01*
G75*
G02*
X139142403Y-144610166I1122334J-77403D01*
G01*
X139142403Y-144610166D01*
G75*
G02*
X140187334Y-145809903I-77403J-1122334D01*
G01*
X140147334Y-146389903D01*
G75*
G02*
X138947597Y-147434834I-1122334J77403D01*
G01*
G37*
G04 #@! TD.AperFunction*
X114975000Y-146812500D03*
G04 #@! TA.AperFunction,ComponentPad*
G36*
G01*
X112913683Y-149109845D02*
X112913683Y-149109845D01*
G75*
G02*
X112827655Y-147521183I751317J837345D01*
G01*
X114137657Y-146061183D01*
G75*
G02*
X115726319Y-145975155I837345J-751317D01*
G01*
X115726319Y-145975155D01*
G75*
G02*
X115812347Y-147563817I-751317J-837345D01*
G01*
X114502345Y-149023817D01*
G75*
G02*
X112913683Y-149109845I-837345J751317D01*
G01*
G37*
G04 #@! TD.AperFunction*
X120015000Y-145732500D03*
G04 #@! TA.AperFunction,ComponentPad*
G36*
G01*
X119897597Y-147434834D02*
X119897597Y-147434834D01*
G75*
G02*
X118852666Y-146235097I77403J1122334D01*
G01*
X118892666Y-145655097D01*
G75*
G02*
X120092403Y-144610166I1122334J-77403D01*
G01*
X120092403Y-144610166D01*
G75*
G02*
X121137334Y-145809903I-77403J-1122334D01*
G01*
X121097334Y-146389903D01*
G75*
G02*
X119897597Y-147434834I-1122334J77403D01*
G01*
G37*
G04 #@! TD.AperFunction*
X372150000Y-108712500D03*
G04 #@! TA.AperFunction,ComponentPad*
G36*
G01*
X370088683Y-111009845D02*
X370088683Y-111009845D01*
G75*
G02*
X370002655Y-109421183I751317J837345D01*
G01*
X371312657Y-107961183D01*
G75*
G02*
X372901319Y-107875155I837345J-751317D01*
G01*
X372901319Y-107875155D01*
G75*
G02*
X372987347Y-109463817I-751317J-837345D01*
G01*
X371677345Y-110923817D01*
G75*
G02*
X370088683Y-111009845I-837345J751317D01*
G01*
G37*
G04 #@! TD.AperFunction*
X377190000Y-107632500D03*
G04 #@! TA.AperFunction,ComponentPad*
G36*
G01*
X377072597Y-109334834D02*
X377072597Y-109334834D01*
G75*
G02*
X376027666Y-108135097I77403J1122334D01*
G01*
X376067666Y-107555097D01*
G75*
G02*
X377267403Y-106510166I1122334J-77403D01*
G01*
X377267403Y-106510166D01*
G75*
G02*
X378312334Y-107709903I-77403J-1122334D01*
G01*
X378272334Y-108289903D01*
G75*
G02*
X377072597Y-109334834I-1122334J77403D01*
G01*
G37*
G04 #@! TD.AperFunction*
X353100000Y-108712500D03*
G04 #@! TA.AperFunction,ComponentPad*
G36*
G01*
X351038683Y-111009845D02*
X351038683Y-111009845D01*
G75*
G02*
X350952655Y-109421183I751317J837345D01*
G01*
X352262657Y-107961183D01*
G75*
G02*
X353851319Y-107875155I837345J-751317D01*
G01*
X353851319Y-107875155D01*
G75*
G02*
X353937347Y-109463817I-751317J-837345D01*
G01*
X352627345Y-110923817D01*
G75*
G02*
X351038683Y-111009845I-837345J751317D01*
G01*
G37*
G04 #@! TD.AperFunction*
X358140000Y-107632500D03*
G04 #@! TA.AperFunction,ComponentPad*
G36*
G01*
X358022597Y-109334834D02*
X358022597Y-109334834D01*
G75*
G02*
X356977666Y-108135097I77403J1122334D01*
G01*
X357017666Y-107555097D01*
G75*
G02*
X358217403Y-106510166I1122334J-77403D01*
G01*
X358217403Y-106510166D01*
G75*
G02*
X359262334Y-107709903I-77403J-1122334D01*
G01*
X359222334Y-108289903D01*
G75*
G02*
X358022597Y-109334834I-1122334J77403D01*
G01*
G37*
G04 #@! TD.AperFunction*
X334050000Y-108712500D03*
G04 #@! TA.AperFunction,ComponentPad*
G36*
G01*
X331988683Y-111009845D02*
X331988683Y-111009845D01*
G75*
G02*
X331902655Y-109421183I751317J837345D01*
G01*
X333212657Y-107961183D01*
G75*
G02*
X334801319Y-107875155I837345J-751317D01*
G01*
X334801319Y-107875155D01*
G75*
G02*
X334887347Y-109463817I-751317J-837345D01*
G01*
X333577345Y-110923817D01*
G75*
G02*
X331988683Y-111009845I-837345J751317D01*
G01*
G37*
G04 #@! TD.AperFunction*
X339090000Y-107632500D03*
G04 #@! TA.AperFunction,ComponentPad*
G36*
G01*
X338972597Y-109334834D02*
X338972597Y-109334834D01*
G75*
G02*
X337927666Y-108135097I77403J1122334D01*
G01*
X337967666Y-107555097D01*
G75*
G02*
X339167403Y-106510166I1122334J-77403D01*
G01*
X339167403Y-106510166D01*
G75*
G02*
X340212334Y-107709903I-77403J-1122334D01*
G01*
X340172334Y-108289903D01*
G75*
G02*
X338972597Y-109334834I-1122334J77403D01*
G01*
G37*
G04 #@! TD.AperFunction*
X315000000Y-108712500D03*
G04 #@! TA.AperFunction,ComponentPad*
G36*
G01*
X312938683Y-111009845D02*
X312938683Y-111009845D01*
G75*
G02*
X312852655Y-109421183I751317J837345D01*
G01*
X314162657Y-107961183D01*
G75*
G02*
X315751319Y-107875155I837345J-751317D01*
G01*
X315751319Y-107875155D01*
G75*
G02*
X315837347Y-109463817I-751317J-837345D01*
G01*
X314527345Y-110923817D01*
G75*
G02*
X312938683Y-111009845I-837345J751317D01*
G01*
G37*
G04 #@! TD.AperFunction*
X320040000Y-107632500D03*
G04 #@! TA.AperFunction,ComponentPad*
G36*
G01*
X319922597Y-109334834D02*
X319922597Y-109334834D01*
G75*
G02*
X318877666Y-108135097I77403J1122334D01*
G01*
X318917666Y-107555097D01*
G75*
G02*
X320117403Y-106510166I1122334J-77403D01*
G01*
X320117403Y-106510166D01*
G75*
G02*
X321162334Y-107709903I-77403J-1122334D01*
G01*
X321122334Y-108289903D01*
G75*
G02*
X319922597Y-109334834I-1122334J77403D01*
G01*
G37*
G04 #@! TD.AperFunction*
X295950000Y-108712500D03*
G04 #@! TA.AperFunction,ComponentPad*
G36*
G01*
X293888683Y-111009845D02*
X293888683Y-111009845D01*
G75*
G02*
X293802655Y-109421183I751317J837345D01*
G01*
X295112657Y-107961183D01*
G75*
G02*
X296701319Y-107875155I837345J-751317D01*
G01*
X296701319Y-107875155D01*
G75*
G02*
X296787347Y-109463817I-751317J-837345D01*
G01*
X295477345Y-110923817D01*
G75*
G02*
X293888683Y-111009845I-837345J751317D01*
G01*
G37*
G04 #@! TD.AperFunction*
X300990000Y-107632500D03*
G04 #@! TA.AperFunction,ComponentPad*
G36*
G01*
X300872597Y-109334834D02*
X300872597Y-109334834D01*
G75*
G02*
X299827666Y-108135097I77403J1122334D01*
G01*
X299867666Y-107555097D01*
G75*
G02*
X301067403Y-106510166I1122334J-77403D01*
G01*
X301067403Y-106510166D01*
G75*
G02*
X302112334Y-107709903I-77403J-1122334D01*
G01*
X302072334Y-108289903D01*
G75*
G02*
X300872597Y-109334834I-1122334J77403D01*
G01*
G37*
G04 #@! TD.AperFunction*
X276900000Y-108712500D03*
G04 #@! TA.AperFunction,ComponentPad*
G36*
G01*
X274838683Y-111009845D02*
X274838683Y-111009845D01*
G75*
G02*
X274752655Y-109421183I751317J837345D01*
G01*
X276062657Y-107961183D01*
G75*
G02*
X277651319Y-107875155I837345J-751317D01*
G01*
X277651319Y-107875155D01*
G75*
G02*
X277737347Y-109463817I-751317J-837345D01*
G01*
X276427345Y-110923817D01*
G75*
G02*
X274838683Y-111009845I-837345J751317D01*
G01*
G37*
G04 #@! TD.AperFunction*
X281940000Y-107632500D03*
G04 #@! TA.AperFunction,ComponentPad*
G36*
G01*
X281822597Y-109334834D02*
X281822597Y-109334834D01*
G75*
G02*
X280777666Y-108135097I77403J1122334D01*
G01*
X280817666Y-107555097D01*
G75*
G02*
X282017403Y-106510166I1122334J-77403D01*
G01*
X282017403Y-106510166D01*
G75*
G02*
X283062334Y-107709903I-77403J-1122334D01*
G01*
X283022334Y-108289903D01*
G75*
G02*
X281822597Y-109334834I-1122334J77403D01*
G01*
G37*
G04 #@! TD.AperFunction*
X372150000Y-127762500D03*
G04 #@! TA.AperFunction,ComponentPad*
G36*
G01*
X370088683Y-130059845D02*
X370088683Y-130059845D01*
G75*
G02*
X370002655Y-128471183I751317J837345D01*
G01*
X371312657Y-127011183D01*
G75*
G02*
X372901319Y-126925155I837345J-751317D01*
G01*
X372901319Y-126925155D01*
G75*
G02*
X372987347Y-128513817I-751317J-837345D01*
G01*
X371677345Y-129973817D01*
G75*
G02*
X370088683Y-130059845I-837345J751317D01*
G01*
G37*
G04 #@! TD.AperFunction*
X377190000Y-126682500D03*
G04 #@! TA.AperFunction,ComponentPad*
G36*
G01*
X377072597Y-128384834D02*
X377072597Y-128384834D01*
G75*
G02*
X376027666Y-127185097I77403J1122334D01*
G01*
X376067666Y-126605097D01*
G75*
G02*
X377267403Y-125560166I1122334J-77403D01*
G01*
X377267403Y-125560166D01*
G75*
G02*
X378312334Y-126759903I-77403J-1122334D01*
G01*
X378272334Y-127339903D01*
G75*
G02*
X377072597Y-128384834I-1122334J77403D01*
G01*
G37*
G04 #@! TD.AperFunction*
X315000000Y-127762500D03*
G04 #@! TA.AperFunction,ComponentPad*
G36*
G01*
X312938683Y-130059845D02*
X312938683Y-130059845D01*
G75*
G02*
X312852655Y-128471183I751317J837345D01*
G01*
X314162657Y-127011183D01*
G75*
G02*
X315751319Y-126925155I837345J-751317D01*
G01*
X315751319Y-126925155D01*
G75*
G02*
X315837347Y-128513817I-751317J-837345D01*
G01*
X314527345Y-129973817D01*
G75*
G02*
X312938683Y-130059845I-837345J751317D01*
G01*
G37*
G04 #@! TD.AperFunction*
X320040000Y-126682500D03*
G04 #@! TA.AperFunction,ComponentPad*
G36*
G01*
X319922597Y-128384834D02*
X319922597Y-128384834D01*
G75*
G02*
X318877666Y-127185097I77403J1122334D01*
G01*
X318917666Y-126605097D01*
G75*
G02*
X320117403Y-125560166I1122334J-77403D01*
G01*
X320117403Y-125560166D01*
G75*
G02*
X321162334Y-126759903I-77403J-1122334D01*
G01*
X321122334Y-127339903D01*
G75*
G02*
X319922597Y-128384834I-1122334J77403D01*
G01*
G37*
G04 #@! TD.AperFunction*
X295950000Y-127762500D03*
G04 #@! TA.AperFunction,ComponentPad*
G36*
G01*
X293888683Y-130059845D02*
X293888683Y-130059845D01*
G75*
G02*
X293802655Y-128471183I751317J837345D01*
G01*
X295112657Y-127011183D01*
G75*
G02*
X296701319Y-126925155I837345J-751317D01*
G01*
X296701319Y-126925155D01*
G75*
G02*
X296787347Y-128513817I-751317J-837345D01*
G01*
X295477345Y-129973817D01*
G75*
G02*
X293888683Y-130059845I-837345J751317D01*
G01*
G37*
G04 #@! TD.AperFunction*
X300990000Y-126682500D03*
G04 #@! TA.AperFunction,ComponentPad*
G36*
G01*
X300872597Y-128384834D02*
X300872597Y-128384834D01*
G75*
G02*
X299827666Y-127185097I77403J1122334D01*
G01*
X299867666Y-126605097D01*
G75*
G02*
X301067403Y-125560166I1122334J-77403D01*
G01*
X301067403Y-125560166D01*
G75*
G02*
X302112334Y-126759903I-77403J-1122334D01*
G01*
X302072334Y-127339903D01*
G75*
G02*
X300872597Y-128384834I-1122334J77403D01*
G01*
G37*
G04 #@! TD.AperFunction*
X276900000Y-127762500D03*
G04 #@! TA.AperFunction,ComponentPad*
G36*
G01*
X274838683Y-130059845D02*
X274838683Y-130059845D01*
G75*
G02*
X274752655Y-128471183I751317J837345D01*
G01*
X276062657Y-127011183D01*
G75*
G02*
X277651319Y-126925155I837345J-751317D01*
G01*
X277651319Y-126925155D01*
G75*
G02*
X277737347Y-128513817I-751317J-837345D01*
G01*
X276427345Y-129973817D01*
G75*
G02*
X274838683Y-130059845I-837345J751317D01*
G01*
G37*
G04 #@! TD.AperFunction*
X281940000Y-126682500D03*
G04 #@! TA.AperFunction,ComponentPad*
G36*
G01*
X281822597Y-128384834D02*
X281822597Y-128384834D01*
G75*
G02*
X280777666Y-127185097I77403J1122334D01*
G01*
X280817666Y-126605097D01*
G75*
G02*
X282017403Y-125560166I1122334J-77403D01*
G01*
X282017403Y-125560166D01*
G75*
G02*
X283062334Y-126759903I-77403J-1122334D01*
G01*
X283022334Y-127339903D01*
G75*
G02*
X281822597Y-128384834I-1122334J77403D01*
G01*
G37*
G04 #@! TD.AperFunction*
X257850000Y-127762500D03*
G04 #@! TA.AperFunction,ComponentPad*
G36*
G01*
X255788683Y-130059845D02*
X255788683Y-130059845D01*
G75*
G02*
X255702655Y-128471183I751317J837345D01*
G01*
X257012657Y-127011183D01*
G75*
G02*
X258601319Y-126925155I837345J-751317D01*
G01*
X258601319Y-126925155D01*
G75*
G02*
X258687347Y-128513817I-751317J-837345D01*
G01*
X257377345Y-129973817D01*
G75*
G02*
X255788683Y-130059845I-837345J751317D01*
G01*
G37*
G04 #@! TD.AperFunction*
X262890000Y-126682500D03*
G04 #@! TA.AperFunction,ComponentPad*
G36*
G01*
X262772597Y-128384834D02*
X262772597Y-128384834D01*
G75*
G02*
X261727666Y-127185097I77403J1122334D01*
G01*
X261767666Y-126605097D01*
G75*
G02*
X262967403Y-125560166I1122334J-77403D01*
G01*
X262967403Y-125560166D01*
G75*
G02*
X264012334Y-126759903I-77403J-1122334D01*
G01*
X263972334Y-127339903D01*
G75*
G02*
X262772597Y-128384834I-1122334J77403D01*
G01*
G37*
G04 #@! TD.AperFunction*
X238800000Y-127762500D03*
G04 #@! TA.AperFunction,ComponentPad*
G36*
G01*
X236738683Y-130059845D02*
X236738683Y-130059845D01*
G75*
G02*
X236652655Y-128471183I751317J837345D01*
G01*
X237962657Y-127011183D01*
G75*
G02*
X239551319Y-126925155I837345J-751317D01*
G01*
X239551319Y-126925155D01*
G75*
G02*
X239637347Y-128513817I-751317J-837345D01*
G01*
X238327345Y-129973817D01*
G75*
G02*
X236738683Y-130059845I-837345J751317D01*
G01*
G37*
G04 #@! TD.AperFunction*
X243840000Y-126682500D03*
G04 #@! TA.AperFunction,ComponentPad*
G36*
G01*
X243722597Y-128384834D02*
X243722597Y-128384834D01*
G75*
G02*
X242677666Y-127185097I77403J1122334D01*
G01*
X242717666Y-126605097D01*
G75*
G02*
X243917403Y-125560166I1122334J-77403D01*
G01*
X243917403Y-125560166D01*
G75*
G02*
X244962334Y-126759903I-77403J-1122334D01*
G01*
X244922334Y-127339903D01*
G75*
G02*
X243722597Y-128384834I-1122334J77403D01*
G01*
G37*
G04 #@! TD.AperFunction*
X219750000Y-127762500D03*
G04 #@! TA.AperFunction,ComponentPad*
G36*
G01*
X217688683Y-130059845D02*
X217688683Y-130059845D01*
G75*
G02*
X217602655Y-128471183I751317J837345D01*
G01*
X218912657Y-127011183D01*
G75*
G02*
X220501319Y-126925155I837345J-751317D01*
G01*
X220501319Y-126925155D01*
G75*
G02*
X220587347Y-128513817I-751317J-837345D01*
G01*
X219277345Y-129973817D01*
G75*
G02*
X217688683Y-130059845I-837345J751317D01*
G01*
G37*
G04 #@! TD.AperFunction*
X224790000Y-126682500D03*
G04 #@! TA.AperFunction,ComponentPad*
G36*
G01*
X224672597Y-128384834D02*
X224672597Y-128384834D01*
G75*
G02*
X223627666Y-127185097I77403J1122334D01*
G01*
X223667666Y-126605097D01*
G75*
G02*
X224867403Y-125560166I1122334J-77403D01*
G01*
X224867403Y-125560166D01*
G75*
G02*
X225912334Y-126759903I-77403J-1122334D01*
G01*
X225872334Y-127339903D01*
G75*
G02*
X224672597Y-128384834I-1122334J77403D01*
G01*
G37*
G04 #@! TD.AperFunction*
X200700000Y-127762500D03*
G04 #@! TA.AperFunction,ComponentPad*
G36*
G01*
X198638683Y-130059845D02*
X198638683Y-130059845D01*
G75*
G02*
X198552655Y-128471183I751317J837345D01*
G01*
X199862657Y-127011183D01*
G75*
G02*
X201451319Y-126925155I837345J-751317D01*
G01*
X201451319Y-126925155D01*
G75*
G02*
X201537347Y-128513817I-751317J-837345D01*
G01*
X200227345Y-129973817D01*
G75*
G02*
X198638683Y-130059845I-837345J751317D01*
G01*
G37*
G04 #@! TD.AperFunction*
X205740000Y-126682500D03*
G04 #@! TA.AperFunction,ComponentPad*
G36*
G01*
X205622597Y-128384834D02*
X205622597Y-128384834D01*
G75*
G02*
X204577666Y-127185097I77403J1122334D01*
G01*
X204617666Y-126605097D01*
G75*
G02*
X205817403Y-125560166I1122334J-77403D01*
G01*
X205817403Y-125560166D01*
G75*
G02*
X206862334Y-126759903I-77403J-1122334D01*
G01*
X206822334Y-127339903D01*
G75*
G02*
X205622597Y-128384834I-1122334J77403D01*
G01*
G37*
G04 #@! TD.AperFunction*
X181650000Y-127762500D03*
G04 #@! TA.AperFunction,ComponentPad*
G36*
G01*
X179588683Y-130059845D02*
X179588683Y-130059845D01*
G75*
G02*
X179502655Y-128471183I751317J837345D01*
G01*
X180812657Y-127011183D01*
G75*
G02*
X182401319Y-126925155I837345J-751317D01*
G01*
X182401319Y-126925155D01*
G75*
G02*
X182487347Y-128513817I-751317J-837345D01*
G01*
X181177345Y-129973817D01*
G75*
G02*
X179588683Y-130059845I-837345J751317D01*
G01*
G37*
G04 #@! TD.AperFunction*
X186690000Y-126682500D03*
G04 #@! TA.AperFunction,ComponentPad*
G36*
G01*
X186572597Y-128384834D02*
X186572597Y-128384834D01*
G75*
G02*
X185527666Y-127185097I77403J1122334D01*
G01*
X185567666Y-126605097D01*
G75*
G02*
X186767403Y-125560166I1122334J-77403D01*
G01*
X186767403Y-125560166D01*
G75*
G02*
X187812334Y-126759903I-77403J-1122334D01*
G01*
X187772334Y-127339903D01*
G75*
G02*
X186572597Y-128384834I-1122334J77403D01*
G01*
G37*
G04 #@! TD.AperFunction*
X162600000Y-127762500D03*
G04 #@! TA.AperFunction,ComponentPad*
G36*
G01*
X160538683Y-130059845D02*
X160538683Y-130059845D01*
G75*
G02*
X160452655Y-128471183I751317J837345D01*
G01*
X161762657Y-127011183D01*
G75*
G02*
X163351319Y-126925155I837345J-751317D01*
G01*
X163351319Y-126925155D01*
G75*
G02*
X163437347Y-128513817I-751317J-837345D01*
G01*
X162127345Y-129973817D01*
G75*
G02*
X160538683Y-130059845I-837345J751317D01*
G01*
G37*
G04 #@! TD.AperFunction*
X167640000Y-126682500D03*
G04 #@! TA.AperFunction,ComponentPad*
G36*
G01*
X167522597Y-128384834D02*
X167522597Y-128384834D01*
G75*
G02*
X166477666Y-127185097I77403J1122334D01*
G01*
X166517666Y-126605097D01*
G75*
G02*
X167717403Y-125560166I1122334J-77403D01*
G01*
X167717403Y-125560166D01*
G75*
G02*
X168762334Y-126759903I-77403J-1122334D01*
G01*
X168722334Y-127339903D01*
G75*
G02*
X167522597Y-128384834I-1122334J77403D01*
G01*
G37*
G04 #@! TD.AperFunction*
X143550000Y-127762500D03*
G04 #@! TA.AperFunction,ComponentPad*
G36*
G01*
X141488683Y-130059845D02*
X141488683Y-130059845D01*
G75*
G02*
X141402655Y-128471183I751317J837345D01*
G01*
X142712657Y-127011183D01*
G75*
G02*
X144301319Y-126925155I837345J-751317D01*
G01*
X144301319Y-126925155D01*
G75*
G02*
X144387347Y-128513817I-751317J-837345D01*
G01*
X143077345Y-129973817D01*
G75*
G02*
X141488683Y-130059845I-837345J751317D01*
G01*
G37*
G04 #@! TD.AperFunction*
X148590000Y-126682500D03*
G04 #@! TA.AperFunction,ComponentPad*
G36*
G01*
X148472597Y-128384834D02*
X148472597Y-128384834D01*
G75*
G02*
X147427666Y-127185097I77403J1122334D01*
G01*
X147467666Y-126605097D01*
G75*
G02*
X148667403Y-125560166I1122334J-77403D01*
G01*
X148667403Y-125560166D01*
G75*
G02*
X149712334Y-126759903I-77403J-1122334D01*
G01*
X149672334Y-127339903D01*
G75*
G02*
X148472597Y-128384834I-1122334J77403D01*
G01*
G37*
G04 #@! TD.AperFunction*
X124500000Y-127762500D03*
G04 #@! TA.AperFunction,ComponentPad*
G36*
G01*
X122438683Y-130059845D02*
X122438683Y-130059845D01*
G75*
G02*
X122352655Y-128471183I751317J837345D01*
G01*
X123662657Y-127011183D01*
G75*
G02*
X125251319Y-126925155I837345J-751317D01*
G01*
X125251319Y-126925155D01*
G75*
G02*
X125337347Y-128513817I-751317J-837345D01*
G01*
X124027345Y-129973817D01*
G75*
G02*
X122438683Y-130059845I-837345J751317D01*
G01*
G37*
G04 #@! TD.AperFunction*
X129540000Y-126682500D03*
G04 #@! TA.AperFunction,ComponentPad*
G36*
G01*
X129422597Y-128384834D02*
X129422597Y-128384834D01*
G75*
G02*
X128377666Y-127185097I77403J1122334D01*
G01*
X128417666Y-126605097D01*
G75*
G02*
X129617403Y-125560166I1122334J-77403D01*
G01*
X129617403Y-125560166D01*
G75*
G02*
X130662334Y-126759903I-77403J-1122334D01*
G01*
X130622334Y-127339903D01*
G75*
G02*
X129422597Y-128384834I-1122334J77403D01*
G01*
G37*
G04 #@! TD.AperFunction*
X181650000Y-108712500D03*
G04 #@! TA.AperFunction,ComponentPad*
G36*
G01*
X179588683Y-111009845D02*
X179588683Y-111009845D01*
G75*
G02*
X179502655Y-109421183I751317J837345D01*
G01*
X180812657Y-107961183D01*
G75*
G02*
X182401319Y-107875155I837345J-751317D01*
G01*
X182401319Y-107875155D01*
G75*
G02*
X182487347Y-109463817I-751317J-837345D01*
G01*
X181177345Y-110923817D01*
G75*
G02*
X179588683Y-111009845I-837345J751317D01*
G01*
G37*
G04 #@! TD.AperFunction*
X186690000Y-107632500D03*
G04 #@! TA.AperFunction,ComponentPad*
G36*
G01*
X186572597Y-109334834D02*
X186572597Y-109334834D01*
G75*
G02*
X185527666Y-108135097I77403J1122334D01*
G01*
X185567666Y-107555097D01*
G75*
G02*
X186767403Y-106510166I1122334J-77403D01*
G01*
X186767403Y-106510166D01*
G75*
G02*
X187812334Y-107709903I-77403J-1122334D01*
G01*
X187772334Y-108289903D01*
G75*
G02*
X186572597Y-109334834I-1122334J77403D01*
G01*
G37*
G04 #@! TD.AperFunction*
X162600000Y-108712500D03*
G04 #@! TA.AperFunction,ComponentPad*
G36*
G01*
X160538683Y-111009845D02*
X160538683Y-111009845D01*
G75*
G02*
X160452655Y-109421183I751317J837345D01*
G01*
X161762657Y-107961183D01*
G75*
G02*
X163351319Y-107875155I837345J-751317D01*
G01*
X163351319Y-107875155D01*
G75*
G02*
X163437347Y-109463817I-751317J-837345D01*
G01*
X162127345Y-110923817D01*
G75*
G02*
X160538683Y-111009845I-837345J751317D01*
G01*
G37*
G04 #@! TD.AperFunction*
X167640000Y-107632500D03*
G04 #@! TA.AperFunction,ComponentPad*
G36*
G01*
X167522597Y-109334834D02*
X167522597Y-109334834D01*
G75*
G02*
X166477666Y-108135097I77403J1122334D01*
G01*
X166517666Y-107555097D01*
G75*
G02*
X167717403Y-106510166I1122334J-77403D01*
G01*
X167717403Y-106510166D01*
G75*
G02*
X168762334Y-107709903I-77403J-1122334D01*
G01*
X168722334Y-108289903D01*
G75*
G02*
X167522597Y-109334834I-1122334J77403D01*
G01*
G37*
G04 #@! TD.AperFunction*
X143550000Y-108712500D03*
G04 #@! TA.AperFunction,ComponentPad*
G36*
G01*
X141488683Y-111009845D02*
X141488683Y-111009845D01*
G75*
G02*
X141402655Y-109421183I751317J837345D01*
G01*
X142712657Y-107961183D01*
G75*
G02*
X144301319Y-107875155I837345J-751317D01*
G01*
X144301319Y-107875155D01*
G75*
G02*
X144387347Y-109463817I-751317J-837345D01*
G01*
X143077345Y-110923817D01*
G75*
G02*
X141488683Y-111009845I-837345J751317D01*
G01*
G37*
G04 #@! TD.AperFunction*
X148590000Y-107632500D03*
G04 #@! TA.AperFunction,ComponentPad*
G36*
G01*
X148472597Y-109334834D02*
X148472597Y-109334834D01*
G75*
G02*
X147427666Y-108135097I77403J1122334D01*
G01*
X147467666Y-107555097D01*
G75*
G02*
X148667403Y-106510166I1122334J-77403D01*
G01*
X148667403Y-106510166D01*
G75*
G02*
X149712334Y-107709903I-77403J-1122334D01*
G01*
X149672334Y-108289903D01*
G75*
G02*
X148472597Y-109334834I-1122334J77403D01*
G01*
G37*
G04 #@! TD.AperFunction*
X124500000Y-108712500D03*
G04 #@! TA.AperFunction,ComponentPad*
G36*
G01*
X122438683Y-111009845D02*
X122438683Y-111009845D01*
G75*
G02*
X122352655Y-109421183I751317J837345D01*
G01*
X123662657Y-107961183D01*
G75*
G02*
X125251319Y-107875155I837345J-751317D01*
G01*
X125251319Y-107875155D01*
G75*
G02*
X125337347Y-109463817I-751317J-837345D01*
G01*
X124027345Y-110923817D01*
G75*
G02*
X122438683Y-111009845I-837345J751317D01*
G01*
G37*
G04 #@! TD.AperFunction*
X129540000Y-107632500D03*
G04 #@! TA.AperFunction,ComponentPad*
G36*
G01*
X129422597Y-109334834D02*
X129422597Y-109334834D01*
G75*
G02*
X128377666Y-108135097I77403J1122334D01*
G01*
X128417666Y-107555097D01*
G75*
G02*
X129617403Y-106510166I1122334J-77403D01*
G01*
X129617403Y-106510166D01*
G75*
G02*
X130662334Y-107709903I-77403J-1122334D01*
G01*
X130622334Y-108289903D01*
G75*
G02*
X129422597Y-109334834I-1122334J77403D01*
G01*
G37*
G04 #@! TD.AperFunction*
D14*
X75025000Y-107743750D03*
X75025000Y-108743750D03*
X74025000Y-107743750D03*
X74025000Y-108743750D03*
X73025000Y-107743750D03*
D15*
X73025000Y-108743750D03*
D16*
X63225500Y-120515250D03*
X65425500Y-120515250D03*
X65425500Y-122215250D03*
X63225500Y-122215250D03*
D17*
X59561750Y-106362500D03*
X52261750Y-106362500D03*
X52261750Y-110862500D03*
X59561750Y-110862500D03*
D18*
X57511750Y-110862500D03*
X56711750Y-110862500D03*
X55911750Y-110862500D03*
X55111750Y-110862500D03*
X54311750Y-110862500D03*
D19*
X68325500Y-138129250D03*
X67525500Y-138129250D03*
X66725500Y-138129250D03*
X65925500Y-138129250D03*
X65125500Y-138129250D03*
X64325500Y-138129250D03*
X63525500Y-138129250D03*
X62725500Y-138129250D03*
X61925500Y-138129250D03*
X61125500Y-138129250D03*
X60325500Y-138129250D03*
D20*
X58625500Y-136429250D03*
X58625500Y-135629250D03*
X58625500Y-134829250D03*
X58625500Y-134029250D03*
X58625500Y-133229250D03*
X58625500Y-132429250D03*
X58625500Y-131629250D03*
X58625500Y-130829250D03*
X58625500Y-130029250D03*
X58625500Y-129229250D03*
X58625500Y-128429250D03*
D19*
X60325500Y-126729250D03*
X61125500Y-126729250D03*
X61925500Y-126729250D03*
X62725500Y-126729250D03*
X63525500Y-126729250D03*
X64325500Y-126729250D03*
X65125500Y-126729250D03*
X65925500Y-126729250D03*
X66725500Y-126729250D03*
X67525500Y-126729250D03*
X68325500Y-126729250D03*
D20*
X70025500Y-128429250D03*
X70025500Y-129229250D03*
X70025500Y-130029250D03*
X70025500Y-130829250D03*
X70025500Y-131629250D03*
X70025500Y-132429250D03*
X70025500Y-133229250D03*
X70025500Y-134029250D03*
X70025500Y-134829250D03*
X70025500Y-135629250D03*
X70025500Y-136429250D03*
D21*
X69775000Y-106100000D03*
X63575000Y-109800000D03*
X69775000Y-109800000D03*
X63575000Y-106100000D03*
G04 #@! TA.AperFunction,SMDPad,CuDef*
G36*
G01*
X54661750Y-139580250D02*
X55574250Y-139580250D01*
G75*
G02*
X55818000Y-139824000I0J-243750D01*
G01*
X55818000Y-140311500D01*
G75*
G02*
X55574250Y-140555250I-243750J0D01*
G01*
X54661750Y-140555250D01*
G75*
G02*
X54418000Y-140311500I0J243750D01*
G01*
X54418000Y-139824000D01*
G75*
G02*
X54661750Y-139580250I243750J0D01*
G01*
G37*
G04 #@! TD.AperFunction*
G04 #@! TA.AperFunction,SMDPad,CuDef*
G36*
G01*
X54661750Y-137705250D02*
X55574250Y-137705250D01*
G75*
G02*
X55818000Y-137949000I0J-243750D01*
G01*
X55818000Y-138436500D01*
G75*
G02*
X55574250Y-138680250I-243750J0D01*
G01*
X54661750Y-138680250D01*
G75*
G02*
X54418000Y-138436500I0J243750D01*
G01*
X54418000Y-137949000D01*
G75*
G02*
X54661750Y-137705250I243750J0D01*
G01*
G37*
G04 #@! TD.AperFunction*
G04 #@! TA.AperFunction,SMDPad,CuDef*
G36*
G01*
X73711750Y-123705250D02*
X74624250Y-123705250D01*
G75*
G02*
X74868000Y-123949000I0J-243750D01*
G01*
X74868000Y-124436500D01*
G75*
G02*
X74624250Y-124680250I-243750J0D01*
G01*
X73711750Y-124680250D01*
G75*
G02*
X73468000Y-124436500I0J243750D01*
G01*
X73468000Y-123949000D01*
G75*
G02*
X73711750Y-123705250I243750J0D01*
G01*
G37*
G04 #@! TD.AperFunction*
G04 #@! TA.AperFunction,SMDPad,CuDef*
G36*
G01*
X73711750Y-121830250D02*
X74624250Y-121830250D01*
G75*
G02*
X74868000Y-122074000I0J-243750D01*
G01*
X74868000Y-122561500D01*
G75*
G02*
X74624250Y-122805250I-243750J0D01*
G01*
X73711750Y-122805250D01*
G75*
G02*
X73468000Y-122561500I0J243750D01*
G01*
X73468000Y-122074000D01*
G75*
G02*
X73711750Y-121830250I243750J0D01*
G01*
G37*
G04 #@! TD.AperFunction*
D11*
X105450000Y-127762500D03*
G04 #@! TA.AperFunction,ComponentPad*
G36*
G01*
X103388683Y-130059845D02*
X103388683Y-130059845D01*
G75*
G02*
X103302655Y-128471183I751317J837345D01*
G01*
X104612657Y-127011183D01*
G75*
G02*
X106201319Y-126925155I837345J-751317D01*
G01*
X106201319Y-126925155D01*
G75*
G02*
X106287347Y-128513817I-751317J-837345D01*
G01*
X104977345Y-129973817D01*
G75*
G02*
X103388683Y-130059845I-837345J751317D01*
G01*
G37*
G04 #@! TD.AperFunction*
X110490000Y-126682500D03*
G04 #@! TA.AperFunction,ComponentPad*
G36*
G01*
X110372597Y-128384834D02*
X110372597Y-128384834D01*
G75*
G02*
X109327666Y-127185097I77403J1122334D01*
G01*
X109367666Y-126605097D01*
G75*
G02*
X110567403Y-125560166I1122334J-77403D01*
G01*
X110567403Y-125560166D01*
G75*
G02*
X111612334Y-126759903I-77403J-1122334D01*
G01*
X111572334Y-127339903D01*
G75*
G02*
X110372597Y-128384834I-1122334J77403D01*
G01*
G37*
G04 #@! TD.AperFunction*
X105450000Y-108712500D03*
G04 #@! TA.AperFunction,ComponentPad*
G36*
G01*
X103388683Y-111009845D02*
X103388683Y-111009845D01*
G75*
G02*
X103302655Y-109421183I751317J837345D01*
G01*
X104612657Y-107961183D01*
G75*
G02*
X106201319Y-107875155I837345J-751317D01*
G01*
X106201319Y-107875155D01*
G75*
G02*
X106287347Y-109463817I-751317J-837345D01*
G01*
X104977345Y-110923817D01*
G75*
G02*
X103388683Y-111009845I-837345J751317D01*
G01*
G37*
G04 #@! TD.AperFunction*
X110490000Y-107632500D03*
G04 #@! TA.AperFunction,ComponentPad*
G36*
G01*
X110372597Y-109334834D02*
X110372597Y-109334834D01*
G75*
G02*
X109327666Y-108135097I77403J1122334D01*
G01*
X109367666Y-107555097D01*
G75*
G02*
X110567403Y-106510166I1122334J-77403D01*
G01*
X110567403Y-106510166D01*
G75*
G02*
X111612334Y-107709903I-77403J-1122334D01*
G01*
X111572334Y-108289903D01*
G75*
G02*
X110372597Y-109334834I-1122334J77403D01*
G01*
G37*
G04 #@! TD.AperFunction*
X86400000Y-127762500D03*
G04 #@! TA.AperFunction,ComponentPad*
G36*
G01*
X84338683Y-130059845D02*
X84338683Y-130059845D01*
G75*
G02*
X84252655Y-128471183I751317J837345D01*
G01*
X85562657Y-127011183D01*
G75*
G02*
X87151319Y-126925155I837345J-751317D01*
G01*
X87151319Y-126925155D01*
G75*
G02*
X87237347Y-128513817I-751317J-837345D01*
G01*
X85927345Y-129973817D01*
G75*
G02*
X84338683Y-130059845I-837345J751317D01*
G01*
G37*
G04 #@! TD.AperFunction*
X91440000Y-126682500D03*
G04 #@! TA.AperFunction,ComponentPad*
G36*
G01*
X91322597Y-128384834D02*
X91322597Y-128384834D01*
G75*
G02*
X90277666Y-127185097I77403J1122334D01*
G01*
X90317666Y-126605097D01*
G75*
G02*
X91517403Y-125560166I1122334J-77403D01*
G01*
X91517403Y-125560166D01*
G75*
G02*
X92562334Y-126759903I-77403J-1122334D01*
G01*
X92522334Y-127339903D01*
G75*
G02*
X91322597Y-128384834I-1122334J77403D01*
G01*
G37*
G04 #@! TD.AperFunction*
X86400000Y-108712500D03*
G04 #@! TA.AperFunction,ComponentPad*
G36*
G01*
X84338683Y-111009845D02*
X84338683Y-111009845D01*
G75*
G02*
X84252655Y-109421183I751317J837345D01*
G01*
X85562657Y-107961183D01*
G75*
G02*
X87151319Y-107875155I837345J-751317D01*
G01*
X87151319Y-107875155D01*
G75*
G02*
X87237347Y-109463817I-751317J-837345D01*
G01*
X85927345Y-110923817D01*
G75*
G02*
X84338683Y-111009845I-837345J751317D01*
G01*
G37*
G04 #@! TD.AperFunction*
X91440000Y-107632500D03*
G04 #@! TA.AperFunction,ComponentPad*
G36*
G01*
X91322597Y-109334834D02*
X91322597Y-109334834D01*
G75*
G02*
X90277666Y-108135097I77403J1122334D01*
G01*
X90317666Y-107555097D01*
G75*
G02*
X91517403Y-106510166I1122334J-77403D01*
G01*
X91517403Y-106510166D01*
G75*
G02*
X92562334Y-107709903I-77403J-1122334D01*
G01*
X92522334Y-108289903D01*
G75*
G02*
X91322597Y-109334834I-1122334J77403D01*
G01*
G37*
G04 #@! TD.AperFunction*
G04 #@! TA.AperFunction,SMDPad,CuDef*
G36*
G01*
X65230500Y-114211500D02*
X65230500Y-112961500D01*
G75*
G02*
X65480500Y-112711500I250000J0D01*
G01*
X66230500Y-112711500D01*
G75*
G02*
X66480500Y-112961500I0J-250000D01*
G01*
X66480500Y-114211500D01*
G75*
G02*
X66230500Y-114461500I-250000J0D01*
G01*
X65480500Y-114461500D01*
G75*
G02*
X65230500Y-114211500I0J250000D01*
G01*
G37*
G04 #@! TD.AperFunction*
G04 #@! TA.AperFunction,SMDPad,CuDef*
G36*
G01*
X62430500Y-114211500D02*
X62430500Y-112961500D01*
G75*
G02*
X62680500Y-112711500I250000J0D01*
G01*
X63430500Y-112711500D01*
G75*
G02*
X63680500Y-112961500I0J-250000D01*
G01*
X63680500Y-114211500D01*
G75*
G02*
X63430500Y-114461500I-250000J0D01*
G01*
X62680500Y-114461500D01*
G75*
G02*
X62430500Y-114211500I0J250000D01*
G01*
G37*
G04 #@! TD.AperFunction*
G04 #@! TA.AperFunction,SMDPad,CuDef*
G36*
G01*
X76061250Y-133420750D02*
X76973750Y-133420750D01*
G75*
G02*
X77217500Y-133664500I0J-243750D01*
G01*
X77217500Y-134152000D01*
G75*
G02*
X76973750Y-134395750I-243750J0D01*
G01*
X76061250Y-134395750D01*
G75*
G02*
X75817500Y-134152000I0J243750D01*
G01*
X75817500Y-133664500D01*
G75*
G02*
X76061250Y-133420750I243750J0D01*
G01*
G37*
G04 #@! TD.AperFunction*
G04 #@! TA.AperFunction,SMDPad,CuDef*
G36*
G01*
X76061250Y-131545750D02*
X76973750Y-131545750D01*
G75*
G02*
X77217500Y-131789500I0J-243750D01*
G01*
X77217500Y-132277000D01*
G75*
G02*
X76973750Y-132520750I-243750J0D01*
G01*
X76061250Y-132520750D01*
G75*
G02*
X75817500Y-132277000I0J243750D01*
G01*
X75817500Y-131789500D01*
G75*
G02*
X76061250Y-131545750I243750J0D01*
G01*
G37*
G04 #@! TD.AperFunction*
G04 #@! TA.AperFunction,SMDPad,CuDef*
G36*
G01*
X67224250Y-117701500D02*
X67224250Y-118614000D01*
G75*
G02*
X66980500Y-118857750I-243750J0D01*
G01*
X66493000Y-118857750D01*
G75*
G02*
X66249250Y-118614000I0J243750D01*
G01*
X66249250Y-117701500D01*
G75*
G02*
X66493000Y-117457750I243750J0D01*
G01*
X66980500Y-117457750D01*
G75*
G02*
X67224250Y-117701500I0J-243750D01*
G01*
G37*
G04 #@! TD.AperFunction*
G04 #@! TA.AperFunction,SMDPad,CuDef*
G36*
G01*
X69099250Y-117701500D02*
X69099250Y-118614000D01*
G75*
G02*
X68855500Y-118857750I-243750J0D01*
G01*
X68368000Y-118857750D01*
G75*
G02*
X68124250Y-118614000I0J243750D01*
G01*
X68124250Y-117701500D01*
G75*
G02*
X68368000Y-117457750I243750J0D01*
G01*
X68855500Y-117457750D01*
G75*
G02*
X69099250Y-117701500I0J-243750D01*
G01*
G37*
G04 #@! TD.AperFunction*
G04 #@! TA.AperFunction,SMDPad,CuDef*
G36*
G01*
X59868750Y-121750000D02*
X60781250Y-121750000D01*
G75*
G02*
X61025000Y-121993750I0J-243750D01*
G01*
X61025000Y-122481250D01*
G75*
G02*
X60781250Y-122725000I-243750J0D01*
G01*
X59868750Y-122725000D01*
G75*
G02*
X59625000Y-122481250I0J243750D01*
G01*
X59625000Y-121993750D01*
G75*
G02*
X59868750Y-121750000I243750J0D01*
G01*
G37*
G04 #@! TD.AperFunction*
G04 #@! TA.AperFunction,SMDPad,CuDef*
G36*
G01*
X59868750Y-119875000D02*
X60781250Y-119875000D01*
G75*
G02*
X61025000Y-120118750I0J-243750D01*
G01*
X61025000Y-120606250D01*
G75*
G02*
X60781250Y-120850000I-243750J0D01*
G01*
X59868750Y-120850000D01*
G75*
G02*
X59625000Y-120606250I0J243750D01*
G01*
X59625000Y-120118750D01*
G75*
G02*
X59868750Y-119875000I243750J0D01*
G01*
G37*
G04 #@! TD.AperFunction*
G04 #@! TA.AperFunction,SMDPad,CuDef*
G36*
G01*
X68877000Y-141737000D02*
X68877000Y-142649500D01*
G75*
G02*
X68633250Y-142893250I-243750J0D01*
G01*
X68145750Y-142893250D01*
G75*
G02*
X67902000Y-142649500I0J243750D01*
G01*
X67902000Y-141737000D01*
G75*
G02*
X68145750Y-141493250I243750J0D01*
G01*
X68633250Y-141493250D01*
G75*
G02*
X68877000Y-141737000I0J-243750D01*
G01*
G37*
G04 #@! TD.AperFunction*
G04 #@! TA.AperFunction,SMDPad,CuDef*
G36*
G01*
X70752000Y-141737000D02*
X70752000Y-142649500D01*
G75*
G02*
X70508250Y-142893250I-243750J0D01*
G01*
X70020750Y-142893250D01*
G75*
G02*
X69777000Y-142649500I0J243750D01*
G01*
X69777000Y-141737000D01*
G75*
G02*
X70020750Y-141493250I243750J0D01*
G01*
X70508250Y-141493250D01*
G75*
G02*
X70752000Y-141737000I0J-243750D01*
G01*
G37*
G04 #@! TD.AperFunction*
G04 #@! TA.AperFunction,SMDPad,CuDef*
G36*
G01*
X55906250Y-141737000D02*
X55906250Y-142649500D01*
G75*
G02*
X55662500Y-142893250I-243750J0D01*
G01*
X55175000Y-142893250D01*
G75*
G02*
X54931250Y-142649500I0J243750D01*
G01*
X54931250Y-141737000D01*
G75*
G02*
X55175000Y-141493250I243750J0D01*
G01*
X55662500Y-141493250D01*
G75*
G02*
X55906250Y-141737000I0J-243750D01*
G01*
G37*
G04 #@! TD.AperFunction*
G04 #@! TA.AperFunction,SMDPad,CuDef*
G36*
G01*
X57781250Y-141737000D02*
X57781250Y-142649500D01*
G75*
G02*
X57537500Y-142893250I-243750J0D01*
G01*
X57050000Y-142893250D01*
G75*
G02*
X56806250Y-142649500I0J243750D01*
G01*
X56806250Y-141737000D01*
G75*
G02*
X57050000Y-141493250I243750J0D01*
G01*
X57537500Y-141493250D01*
G75*
G02*
X57781250Y-141737000I0J-243750D01*
G01*
G37*
G04 #@! TD.AperFunction*
G04 #@! TA.AperFunction,SMDPad,CuDef*
G36*
G01*
X70369750Y-120915250D02*
X69457250Y-120915250D01*
G75*
G02*
X69213500Y-120671500I0J243750D01*
G01*
X69213500Y-120184000D01*
G75*
G02*
X69457250Y-119940250I243750J0D01*
G01*
X70369750Y-119940250D01*
G75*
G02*
X70613500Y-120184000I0J-243750D01*
G01*
X70613500Y-120671500D01*
G75*
G02*
X70369750Y-120915250I-243750J0D01*
G01*
G37*
G04 #@! TD.AperFunction*
G04 #@! TA.AperFunction,SMDPad,CuDef*
G36*
G01*
X70369750Y-122790250D02*
X69457250Y-122790250D01*
G75*
G02*
X69213500Y-122546500I0J243750D01*
G01*
X69213500Y-122059000D01*
G75*
G02*
X69457250Y-121815250I243750J0D01*
G01*
X70369750Y-121815250D01*
G75*
G02*
X70613500Y-122059000I0J-243750D01*
G01*
X70613500Y-122546500D01*
G75*
G02*
X70369750Y-122790250I-243750J0D01*
G01*
G37*
G04 #@! TD.AperFunction*
G04 #@! TA.AperFunction,SMDPad,CuDef*
G36*
G01*
X52780250Y-115295500D02*
X51867750Y-115295500D01*
G75*
G02*
X51624000Y-115051750I0J243750D01*
G01*
X51624000Y-114564250D01*
G75*
G02*
X51867750Y-114320500I243750J0D01*
G01*
X52780250Y-114320500D01*
G75*
G02*
X53024000Y-114564250I0J-243750D01*
G01*
X53024000Y-115051750D01*
G75*
G02*
X52780250Y-115295500I-243750J0D01*
G01*
G37*
G04 #@! TD.AperFunction*
G04 #@! TA.AperFunction,SMDPad,CuDef*
G36*
G01*
X52780250Y-117170500D02*
X51867750Y-117170500D01*
G75*
G02*
X51624000Y-116926750I0J243750D01*
G01*
X51624000Y-116439250D01*
G75*
G02*
X51867750Y-116195500I243750J0D01*
G01*
X52780250Y-116195500D01*
G75*
G02*
X53024000Y-116439250I0J-243750D01*
G01*
X53024000Y-116926750D01*
G75*
G02*
X52780250Y-117170500I-243750J0D01*
G01*
G37*
G04 #@! TD.AperFunction*
D22*
X68199000Y-129159000D03*
X91567000Y-121158000D03*
X73025000Y-125603000D03*
X87503000Y-121158000D03*
X69434000Y-110998000D03*
X69355250Y-124192750D03*
X67437000Y-121412000D03*
X65135000Y-123698000D03*
X63507781Y-125354366D03*
X62684564Y-124786637D03*
X61728067Y-125101067D03*
X60706000Y-125095000D03*
X59182000Y-118872000D03*
X85979000Y-135763000D03*
X237490000Y-135763000D03*
X96266000Y-135763000D03*
X92964000Y-135763000D03*
X95250000Y-136525000D03*
X88519000Y-136525000D03*
X63881000Y-136144000D03*
X80518000Y-136525000D03*
X90932000Y-136525000D03*
X362966000Y-136525000D03*
X200914000Y-156210000D03*
X63500000Y-156210000D03*
X182753000Y-155067000D03*
X164372657Y-153958657D03*
X63500000Y-155067000D03*
X63500000Y-153924000D03*
X138811000Y-193548000D03*
X95504000Y-193548000D03*
X90805000Y-179197000D03*
X95631000Y-158877000D03*
X91694000Y-158877000D03*
X94361000Y-137668000D03*
X70866000Y-137668000D03*
X88519000Y-137668000D03*
X90932000Y-137668000D03*
X80518000Y-137668000D03*
X218440000Y-137668000D03*
X57150000Y-130048000D03*
X56134000Y-130902250D03*
X55345733Y-131726186D03*
X54610000Y-133350000D03*
X75946000Y-191770000D03*
X75946000Y-190500000D03*
X71621250Y-135629250D03*
X65786000Y-115570000D03*
X52324000Y-118872000D03*
X61468000Y-107696000D03*
X70993000Y-117856000D03*
X72136000Y-122428000D03*
X72136000Y-131572000D03*
X54356000Y-115316000D03*
X59944000Y-115316000D03*
X66548000Y-135128000D03*
X58420000Y-117856000D03*
D23*
X70768174Y-143283760D02*
X71092240Y-143283760D01*
X71092240Y-143283760D02*
X76517500Y-137858500D01*
X76517500Y-137858500D02*
X76517500Y-137534434D01*
D24*
X75892010Y-125283057D02*
X75892010Y-121231010D01*
X74025000Y-119364000D02*
X74025000Y-108743750D01*
X71145816Y-130029250D02*
X75892010Y-125283057D01*
X70025500Y-130029250D02*
X71145816Y-130029250D01*
X75892010Y-121231010D02*
X74025000Y-119364000D01*
X73025000Y-108743750D02*
X73025000Y-119126000D01*
X75438000Y-125095000D02*
X75438000Y-121539000D01*
X75438000Y-121539000D02*
X73025000Y-119126000D01*
X72103750Y-128429250D02*
X75438000Y-125095000D01*
X71435882Y-128429250D02*
X72103750Y-128429250D01*
D23*
X70993000Y-117856000D02*
X68913500Y-117856000D01*
X68913500Y-117856000D02*
X68611750Y-118157750D01*
D24*
X68199000Y-129159000D02*
X69955250Y-129159000D01*
X69955250Y-129159000D02*
X70025500Y-129229250D01*
X315000000Y-127762500D02*
X315000000Y-111482500D01*
X315000000Y-111482500D02*
X313690000Y-110172500D01*
X295950000Y-127762500D02*
X295950000Y-111482500D01*
X295950000Y-111482500D02*
X294640000Y-110172500D01*
X276900000Y-127762500D02*
X276900000Y-111482500D01*
X276900000Y-111482500D02*
X275590000Y-110172500D01*
X257850000Y-127762500D02*
X257850000Y-111482500D01*
X257850000Y-111482500D02*
X256540000Y-110172500D01*
X219750000Y-127762500D02*
X219750000Y-111482500D01*
X219750000Y-111482500D02*
X218440000Y-110172500D01*
X181650000Y-127762500D02*
X181650000Y-111482500D01*
X181650000Y-111482500D02*
X180340000Y-110172500D01*
X199390000Y-110172500D02*
X199390000Y-126452500D01*
X199390000Y-126452500D02*
X200700000Y-127762500D01*
X238800000Y-127762500D02*
X238800000Y-111482500D01*
X238800000Y-111482500D02*
X237490000Y-110172500D01*
X87503000Y-121158000D02*
X91567000Y-121158000D01*
X68325500Y-126729250D02*
X71898750Y-126729250D01*
X71898750Y-126729250D02*
X73025000Y-125603000D01*
X69775000Y-110657000D02*
X69434000Y-110998000D01*
X69775000Y-109800000D02*
X69775000Y-110657000D01*
X69355250Y-124192750D02*
X69058000Y-124192750D01*
X74168000Y-124192750D02*
X69355250Y-124192750D01*
X65125500Y-126729250D02*
X65125500Y-123707500D01*
X65125500Y-123707500D02*
X65135000Y-123698000D01*
X67437000Y-121412000D02*
X66540250Y-120515250D01*
X66540250Y-120515250D02*
X65425500Y-120515250D01*
X63525500Y-126729250D02*
X63525500Y-125372085D01*
X63525500Y-125372085D02*
X63507781Y-125354366D01*
X62725500Y-124827573D02*
X62684564Y-124786637D01*
X62725500Y-126729250D02*
X62725500Y-124827573D01*
X61925500Y-126729250D02*
X61925500Y-125298500D01*
X61925500Y-125298500D02*
X61728067Y-125101067D01*
X61125500Y-125514500D02*
X60706000Y-125095000D01*
X61125500Y-126729250D02*
X61125500Y-125514500D01*
X59182000Y-125110750D02*
X59182000Y-118872000D01*
X60325500Y-126254250D02*
X59182000Y-125110750D01*
X60325500Y-126729250D02*
X60325500Y-126254250D01*
X70025500Y-130829250D02*
X81107788Y-130829250D01*
X85979000Y-135700462D02*
X85979000Y-135763000D01*
X81107788Y-130829250D02*
X85979000Y-135700462D01*
X237490000Y-135763000D02*
X237490000Y-138747500D01*
X92964000Y-135763000D02*
X96266000Y-135763000D01*
X237490000Y-129222500D02*
X237490000Y-135763000D01*
X368109500Y-129222500D02*
X370840000Y-129222500D01*
X90932000Y-136525000D02*
X95250000Y-136525000D01*
X362966000Y-134366000D02*
X368109500Y-129222500D01*
X362966000Y-136525000D02*
X362966000Y-134366000D01*
X58625500Y-135629250D02*
X63366250Y-135629250D01*
X63366250Y-135629250D02*
X63881000Y-136144000D01*
X80518000Y-136525000D02*
X88519000Y-136525000D01*
X61925500Y-138129250D02*
X61925500Y-154635500D01*
X61925500Y-154635500D02*
X63500000Y-156210000D01*
X208285815Y-148272500D02*
X208915000Y-148272500D01*
X200914000Y-156210000D02*
X200914000Y-155644315D01*
X200914000Y-155644315D02*
X208285815Y-148272500D01*
X188981815Y-148272500D02*
X189865000Y-148272500D01*
X182753000Y-155067000D02*
X182753000Y-154501315D01*
X182753000Y-154501315D02*
X188981815Y-148272500D01*
X62725500Y-138129250D02*
X62725500Y-154292500D01*
X62725500Y-154292500D02*
X63500000Y-155067000D01*
X164372657Y-153958657D02*
X170058815Y-148272500D01*
X63525500Y-138129250D02*
X63525500Y-153898500D01*
X63525500Y-153898500D02*
X63500000Y-153924000D01*
X170058815Y-148272500D02*
X170815000Y-148272500D01*
X64325500Y-138129250D02*
X64325500Y-165798500D01*
X145986500Y-186372500D02*
X147002500Y-186372500D01*
X64325500Y-165798500D02*
X92075000Y-193548000D01*
X92075000Y-193548000D02*
X95504000Y-193548000D01*
X138811000Y-193548000D02*
X145986500Y-186372500D01*
X65125500Y-156565500D02*
X87757000Y-179197000D01*
X65125500Y-138129250D02*
X65125500Y-156565500D01*
X87757000Y-179197000D02*
X90805000Y-179197000D01*
X65925500Y-138129250D02*
X65925500Y-143275566D01*
X65925500Y-143275566D02*
X81526934Y-158877000D01*
X81526934Y-158877000D02*
X91694000Y-158877000D01*
X113665000Y-148272500D02*
X113665000Y-158877000D01*
X113665000Y-158877000D02*
X113665000Y-162560000D01*
X95631000Y-158877000D02*
X113665000Y-158877000D01*
X66725500Y-138129250D02*
X66725500Y-143433500D01*
X66725500Y-143433500D02*
X71564500Y-148272500D01*
X71564500Y-148272500D02*
X89852500Y-148272500D01*
X80518000Y-137668000D02*
X88519000Y-137668000D01*
X90932000Y-137668000D02*
X94361000Y-137668000D01*
X70025500Y-136827500D02*
X70866000Y-137668000D01*
X218440000Y-129222500D02*
X218440000Y-137668000D01*
X70025500Y-136429250D02*
X70025500Y-136827500D01*
X218440000Y-137668000D02*
X218440000Y-138747500D01*
X57150000Y-130048000D02*
X58606750Y-130048000D01*
X58606750Y-130048000D02*
X58625500Y-130029250D01*
X58625500Y-130829250D02*
X56207000Y-130829250D01*
X56207000Y-130829250D02*
X56134000Y-130902250D01*
X58625500Y-131629250D02*
X55442669Y-131629250D01*
X55442669Y-131629250D02*
X55345733Y-131726186D01*
X54610000Y-133350000D02*
X55530750Y-132429250D01*
X55530750Y-132429250D02*
X58625500Y-132429250D01*
X58625500Y-133229250D02*
X55866683Y-133229250D01*
X55866683Y-133229250D02*
X53636980Y-135458953D01*
X53636980Y-135458953D02*
X53636980Y-169460980D01*
X53636980Y-169460980D02*
X75946000Y-191770000D01*
X54908750Y-134829250D02*
X54090990Y-135647010D01*
X54090990Y-135647010D02*
X54090990Y-168644990D01*
X54090990Y-168644990D02*
X75946000Y-190500000D01*
X58625500Y-134829250D02*
X54908750Y-134829250D01*
D23*
X68389500Y-142193250D02*
X69480010Y-143283760D01*
X69480010Y-143283760D02*
X70768174Y-143283760D01*
X76517500Y-137534434D02*
X76517500Y-133908250D01*
X65786000Y-115570000D02*
X65786000Y-113656000D01*
X65786000Y-113656000D02*
X65855500Y-113586500D01*
X52324000Y-116683000D02*
X52324000Y-118872000D01*
D24*
X67525500Y-125725250D02*
X67525500Y-126729250D01*
X69058000Y-124192750D02*
X67525500Y-125725250D01*
X204152500Y-186372500D02*
X204152500Y-195897500D01*
X204152500Y-195897500D02*
X213677500Y-205422500D01*
X247015000Y-148272500D02*
X247015000Y-162560000D01*
X247015000Y-162560000D02*
X251777500Y-167322500D01*
X170815000Y-148272500D02*
X170815000Y-162560000D01*
X170815000Y-162560000D02*
X175577500Y-167322500D01*
X161290000Y-129222500D02*
X161290000Y-138747500D01*
X161290000Y-138747500D02*
X170815000Y-148272500D01*
X208915000Y-148272500D02*
X208915000Y-162560000D01*
X208915000Y-162560000D02*
X213677500Y-167322500D01*
X199390000Y-129222500D02*
X199390000Y-138747500D01*
X199390000Y-138747500D02*
X208915000Y-148272500D01*
X227965000Y-148272500D02*
X227965000Y-162560000D01*
X227965000Y-162560000D02*
X232727500Y-167322500D01*
X218440000Y-138747500D02*
X227965000Y-148272500D01*
X237490000Y-138747500D02*
X247015000Y-148272500D01*
X256540000Y-129222500D02*
X256540000Y-138747500D01*
X256540000Y-138747500D02*
X266065000Y-148272500D01*
X313690000Y-129222500D02*
X313690000Y-138747500D01*
X313690000Y-138747500D02*
X323215000Y-148272500D01*
X294640000Y-129222500D02*
X294640000Y-138747500D01*
X294640000Y-138747500D02*
X304165000Y-148272500D01*
X275590000Y-129222500D02*
X275590000Y-138747500D01*
X275590000Y-138747500D02*
X285115000Y-148272500D01*
X304165000Y-148272500D02*
X304165000Y-162560000D01*
X304165000Y-162560000D02*
X308927500Y-167322500D01*
X289877500Y-164909500D02*
X285115000Y-160147000D01*
X285115000Y-160147000D02*
X285115000Y-148272500D01*
X289877500Y-167322500D02*
X289877500Y-164909500D01*
X270827500Y-167322500D02*
X266065000Y-162560000D01*
X266065000Y-162560000D02*
X266065000Y-148272500D01*
X280352500Y-186372500D02*
X280352500Y-176338538D01*
X280352500Y-176338538D02*
X289368538Y-167322500D01*
X289368538Y-167322500D02*
X289877500Y-167322500D01*
X299402500Y-186372500D02*
X299402500Y-176338538D01*
X299402500Y-176338538D02*
X308418538Y-167322500D01*
X308418538Y-167322500D02*
X308927500Y-167322500D01*
X338640066Y-165862500D02*
X338610783Y-165833217D01*
X338610783Y-165833217D02*
X323215000Y-150437434D01*
X326898000Y-179523816D02*
X326898000Y-177546000D01*
X326898000Y-177546000D02*
X338610783Y-165833217D01*
X326906250Y-184912500D02*
X326906250Y-179532066D01*
X326906250Y-179532066D02*
X326898000Y-179523816D01*
X341193750Y-165862500D02*
X338640066Y-165862500D01*
X323215000Y-150437434D02*
X323215000Y-148272500D01*
X342265000Y-129222500D02*
X342265000Y-140740000D01*
X342265000Y-140740000D02*
X348337500Y-146812500D01*
X343575000Y-127762500D02*
X332740000Y-116927500D01*
X332740000Y-116927500D02*
X332740000Y-110172500D01*
X361442000Y-123952000D02*
X361442000Y-176720500D01*
X361442000Y-176720500D02*
X351790000Y-186372500D01*
X351790000Y-114300000D02*
X361442000Y-123952000D01*
X351790000Y-110172500D02*
X351790000Y-114300000D01*
X370840000Y-129222500D02*
X370840000Y-110172500D01*
X370840000Y-129222500D02*
X370840000Y-148303750D01*
X370840000Y-148303750D02*
X370840000Y-167322500D01*
X370840000Y-167322500D02*
X370840000Y-186372500D01*
X370840000Y-205422500D02*
X370840000Y-186372500D01*
X353100000Y-203962500D02*
X353100000Y-184912500D01*
X334050000Y-203962500D02*
X334050000Y-198588000D01*
X351282000Y-154558038D02*
X347027500Y-150303538D01*
X334050000Y-198588000D02*
X351282000Y-181356000D01*
X351282000Y-181356000D02*
X351282000Y-154558038D01*
X347027500Y-150303538D02*
X347027500Y-148272500D01*
X315000000Y-203962500D02*
X325528251Y-193434249D01*
X325528251Y-193434249D02*
X325528251Y-186440499D01*
X325528251Y-186440499D02*
X325596250Y-186372500D01*
X295950000Y-203962500D02*
X299402500Y-200510000D01*
X299402500Y-200510000D02*
X299402500Y-186372500D01*
X273208750Y-200501250D02*
X280352500Y-193357500D01*
X280352500Y-193357500D02*
X280352500Y-186372500D01*
X273208750Y-205422500D02*
X273208750Y-200501250D01*
X271018000Y-175260000D02*
X270827500Y-175069500D01*
X270827500Y-175069500D02*
X270827500Y-167322500D01*
X261302500Y-184975500D02*
X271018000Y-175260000D01*
X261302500Y-186372500D02*
X261302500Y-184975500D01*
X242252500Y-183451500D02*
X251709501Y-173994499D01*
X251709501Y-167390499D02*
X251777500Y-167322500D01*
X251709501Y-173994499D02*
X251709501Y-167390499D01*
X242252500Y-186372500D02*
X242252500Y-183451500D01*
X223202500Y-185991500D02*
X232659501Y-176534499D01*
X232659501Y-176534499D02*
X232659501Y-167390499D01*
X232659501Y-167390499D02*
X232727500Y-167322500D01*
X223202500Y-186372500D02*
X223202500Y-185991500D01*
X205462500Y-184912500D02*
X213677500Y-176697500D01*
X213677500Y-176697500D02*
X213677500Y-167322500D01*
X185102500Y-186372500D02*
X194559501Y-176915499D01*
X194559501Y-167390499D02*
X194627500Y-167322500D01*
X194559501Y-176915499D02*
X194559501Y-167390499D01*
X167362500Y-184912500D02*
X175577500Y-176697500D01*
X175577500Y-176697500D02*
X175577500Y-167322500D01*
X189865000Y-148272500D02*
X189865000Y-159790000D01*
X189865000Y-159790000D02*
X195937500Y-165862500D01*
X180340000Y-129222500D02*
X180340000Y-135977500D01*
X180340000Y-135977500D02*
X191175000Y-146812500D01*
X162600000Y-127762500D02*
X162600000Y-111482500D01*
X162600000Y-111482500D02*
X161290000Y-110172500D01*
X143550000Y-127762500D02*
X143550000Y-113513538D01*
X143550000Y-113513538D02*
X142240000Y-112203538D01*
X142240000Y-112203538D02*
X142240000Y-110172500D01*
X151765000Y-148272500D02*
X142240000Y-138747500D01*
X142240000Y-138747500D02*
X142240000Y-129222500D01*
X151765000Y-148272500D02*
X151765000Y-159790000D01*
X151765000Y-159790000D02*
X157837500Y-165862500D01*
X147002500Y-186372500D02*
X156527500Y-176847500D01*
X156527500Y-176847500D02*
X156527500Y-167322500D01*
X132715000Y-148272500D02*
X132715000Y-162560000D01*
X132715000Y-162560000D02*
X137477500Y-167322500D01*
X123190000Y-129222500D02*
X123190000Y-131318000D01*
X123190000Y-131318000D02*
X132715000Y-140843000D01*
X132715000Y-140843000D02*
X132715000Y-148272500D01*
X123190000Y-110172500D02*
X123190000Y-129222500D01*
X113665000Y-162560000D02*
X118427500Y-167322500D01*
X104140000Y-129222500D02*
X104140000Y-135977500D01*
X104140000Y-135977500D02*
X114975000Y-146812500D01*
X104140000Y-110172500D02*
X104140000Y-129222500D01*
X86400000Y-127762500D02*
X86400000Y-113513538D01*
X86400000Y-113513538D02*
X85090000Y-112203538D01*
X85090000Y-112203538D02*
X85090000Y-110172500D01*
X89852500Y-148272500D02*
X89852500Y-136016038D01*
X89852500Y-136016038D02*
X85090000Y-131253538D01*
X85090000Y-131253538D02*
X85090000Y-129222500D01*
X93543750Y-165862500D02*
X93543750Y-153994788D01*
X89852500Y-150303538D02*
X89852500Y-148272500D01*
X93543750Y-153994788D02*
X89852500Y-150303538D01*
X98306250Y-184912500D02*
X92165751Y-178772001D01*
X92165751Y-178772001D02*
X92165751Y-167390499D01*
X92165751Y-167390499D02*
X92233750Y-167322500D01*
X87471250Y-205422500D02*
X96996250Y-195897500D01*
X96996250Y-195897500D02*
X96996250Y-186372500D01*
X112593750Y-203962500D02*
X118427500Y-198128750D01*
X118427500Y-198128750D02*
X118427500Y-167322500D01*
X129262500Y-184912500D02*
X137477500Y-176697500D01*
X137477500Y-176697500D02*
X137477500Y-167322500D01*
X135096250Y-205422500D02*
X135096250Y-195681184D01*
X127952500Y-188537434D02*
X127952500Y-186372500D01*
X135096250Y-195681184D02*
X127952500Y-188537434D01*
X85090000Y-110172500D02*
X85090000Y-110998000D01*
D23*
X61468000Y-107696000D02*
X61979000Y-107696000D01*
X61979000Y-107696000D02*
X63575000Y-106100000D01*
D24*
X75025000Y-108743750D02*
X75626040Y-108743750D01*
X75626040Y-108743750D02*
X75777001Y-108592789D01*
X75777001Y-108592789D02*
X75777001Y-107382789D01*
X75777001Y-107382789D02*
X75385961Y-106991749D01*
X69775000Y-108996000D02*
X69775000Y-109800000D01*
X75385961Y-106991749D02*
X71779251Y-106991749D01*
X71779251Y-106991749D02*
X69775000Y-108996000D01*
X71029500Y-130029250D02*
X70025500Y-130029250D01*
X69828250Y-129032000D02*
X70025500Y-129229250D01*
X71435882Y-128429250D02*
X70025500Y-128429250D01*
D23*
X68141402Y-113586500D02*
X72136000Y-117581098D01*
X72136000Y-117581098D02*
X72136000Y-122428000D01*
X72136000Y-108031710D02*
X72136000Y-109591902D01*
X72136000Y-109591902D02*
X68141402Y-113586500D01*
X68141402Y-113586500D02*
X65855500Y-113586500D01*
X73025000Y-107743750D02*
X72423960Y-107743750D01*
X72423960Y-107743750D02*
X72136000Y-108031710D01*
X72136000Y-136144000D02*
X72136000Y-138196750D01*
X72136000Y-138196750D02*
X70264500Y-140068250D01*
X70264500Y-140068250D02*
X68325500Y-138129250D01*
X71621250Y-135629250D02*
X72136000Y-136144000D01*
X70025500Y-135629250D02*
X71621250Y-135629250D01*
X55418750Y-142193250D02*
X55418750Y-140368500D01*
X55418750Y-140368500D02*
X55118000Y-140067750D01*
X59408240Y-143283760D02*
X56509260Y-143283760D01*
X56509260Y-143283760D02*
X55418750Y-142193250D01*
X60991001Y-141700999D02*
X59408240Y-143283760D01*
X61125500Y-138129250D02*
X61006750Y-138129250D01*
X61006750Y-138129250D02*
X60991001Y-138144999D01*
X60991001Y-138144999D02*
X60991001Y-141700999D01*
X68389500Y-142193250D02*
X67525500Y-141329250D01*
X67525500Y-141329250D02*
X67525500Y-138129250D01*
X74168000Y-122317750D02*
X72246250Y-122317750D01*
X72246250Y-122317750D02*
X72136000Y-122428000D01*
X69913500Y-122302750D02*
X72010750Y-122302750D01*
X72010750Y-122302750D02*
X72136000Y-122428000D01*
X70025500Y-131629250D02*
X72078750Y-131629250D01*
X72078750Y-131629250D02*
X72136000Y-131572000D01*
X65925500Y-126729250D02*
X65925500Y-130260250D01*
X68894500Y-133229250D02*
X70025500Y-133229250D01*
X65925500Y-130260250D02*
X68894500Y-133229250D01*
X54356000Y-115316000D02*
X52832000Y-115316000D01*
X52832000Y-115316000D02*
X52324000Y-114808000D01*
X60325000Y-120362500D02*
X60325000Y-115697000D01*
X60325000Y-115697000D02*
X59944000Y-115316000D01*
X53848000Y-116840000D02*
X57775490Y-120767490D01*
X57775490Y-127579240D02*
X58625500Y-128429250D01*
X57775490Y-120767490D02*
X57775490Y-127579240D01*
X53848000Y-116332000D02*
X53848000Y-116840000D01*
X52324000Y-114808000D02*
X53848000Y-116332000D01*
X65925500Y-126729250D02*
X65925500Y-122715250D01*
X65925500Y-122715250D02*
X65425500Y-122215250D01*
X68611750Y-118157750D02*
X68611750Y-119126000D01*
X68611750Y-119126000D02*
X69913500Y-120427750D01*
X65425500Y-122215250D02*
X68126000Y-122215250D01*
X68126000Y-122215250D02*
X69913500Y-120427750D01*
X56356250Y-124999750D02*
X56356250Y-127793750D01*
X56356250Y-124762500D02*
X56356250Y-124999750D01*
X56356250Y-124999750D02*
X56356250Y-120715250D01*
X56356250Y-120715250D02*
X52324000Y-116683000D01*
D24*
X66548000Y-135128000D02*
X66846750Y-134829250D01*
X66846750Y-134829250D02*
X70025500Y-134829250D01*
X57912000Y-116683000D02*
X57912000Y-117348000D01*
X57912000Y-117348000D02*
X58420000Y-117856000D01*
X55880000Y-116681250D02*
X58293000Y-119094250D01*
X58293000Y-119094250D02*
X58293000Y-126310352D01*
X57912000Y-114808000D02*
X56711750Y-113607750D01*
X56711750Y-113607750D02*
X56711750Y-110862500D01*
X55911750Y-110862500D02*
X55911750Y-114774500D01*
X55911750Y-114774500D02*
X55880000Y-114806250D01*
D23*
X52324000Y-114808000D02*
X54311750Y-112820250D01*
X54311750Y-112820250D02*
X54311750Y-110862500D01*
D24*
X58293000Y-126310352D02*
X66011898Y-134029250D01*
X66011898Y-134029250D02*
X70025500Y-134029250D01*
X63225500Y-122215250D02*
X64325500Y-123315250D01*
X64325500Y-123315250D02*
X64325500Y-126729250D01*
D23*
X60325000Y-120362500D02*
X63072750Y-120362500D01*
X63072750Y-120362500D02*
X63225500Y-120515250D01*
D24*
X60325000Y-122237500D02*
X63203250Y-122237500D01*
X63203250Y-122237500D02*
X63225500Y-122215250D01*
D23*
X69913500Y-122302750D02*
X66725500Y-125490750D01*
X66725500Y-125490750D02*
X66725500Y-126729250D01*
D24*
X65425500Y-120515250D02*
X65425500Y-119469000D01*
X65425500Y-119469000D02*
X66736750Y-118157750D01*
D25*
X65425500Y-122215250D02*
X65325500Y-122215250D01*
X65325500Y-122215250D02*
X63625500Y-120515250D01*
X63625500Y-120515250D02*
X63225500Y-120515250D01*
D23*
X57511750Y-112280500D02*
X58365740Y-113134490D01*
X58365740Y-113134490D02*
X62603490Y-113134490D01*
X62603490Y-113134490D02*
X63055500Y-113586500D01*
X57511750Y-110862500D02*
X57511750Y-112280500D01*
X56356250Y-127793750D02*
X57791750Y-129229250D01*
X57791750Y-129229250D02*
X58625500Y-129229250D01*
D24*
X76517500Y-132033250D02*
X76121500Y-132429250D01*
X76121500Y-132429250D02*
X70025500Y-132429250D01*
D23*
X76517500Y-133908250D02*
X75838500Y-133229250D01*
X75838500Y-133229250D02*
X70025500Y-133229250D01*
D24*
X55118000Y-138192750D02*
X56862000Y-138192750D01*
X56862000Y-138192750D02*
X58625500Y-136429250D01*
D23*
X57721500Y-142193250D02*
X57721500Y-139805348D01*
X57721500Y-139805348D02*
X59397598Y-138129250D01*
X59397598Y-138129250D02*
X60325500Y-138129250D01*
X70264500Y-142193250D02*
X70264500Y-140068250D01*
D24*
X63125500Y-122215250D02*
X63225500Y-122215250D01*
X55911750Y-112331250D02*
X55911750Y-110862500D01*
M02*
