G04 #@! TF.GenerationSoftware,KiCad,Pcbnew,(5.99.0-1615-g0042cd509)*
G04 #@! TF.CreationDate,2020-05-31T21:08:36-05:00*
G04 #@! TF.ProjectId,my-keyboard,6d792d6b-6579-4626-9f61-72642e6b6963,rev?*
G04 #@! TF.SameCoordinates,Original*
G04 #@! TF.FileFunction,Paste,Top*
G04 #@! TF.FilePolarity,Positive*
%FSLAX46Y46*%
G04 Gerber Fmt 4.6, Leading zero omitted, Abs format (unit mm)*
G04 Created by KiCad (PCBNEW (5.99.0-1615-g0042cd509)) date 2020-05-31 21:08:36*
%MOMM*%
%LPD*%
G01*
G04 APERTURE LIST*
%ADD10R,1.400000X1.200000*%
%ADD11R,0.500000X2.250000*%
%ADD12R,0.550000X1.500000*%
%ADD13R,1.500000X0.550000*%
%ADD14R,1.800000X1.100000*%
G04 APERTURE END LIST*
G36*
G01*
X57455750Y-116195500D02*
X58368250Y-116195500D01*
G75*
G02*
X58612000Y-116439250I0J-243750D01*
G01*
X58612000Y-116926750D01*
G75*
G02*
X58368250Y-117170500I-243750J0D01*
G01*
X57455750Y-117170500D01*
G75*
G02*
X57212000Y-116926750I0J243750D01*
G01*
X57212000Y-116439250D01*
G75*
G02*
X57455750Y-116195500I243750J0D01*
G01*
G37*
G36*
G01*
X57455750Y-114320500D02*
X58368250Y-114320500D01*
G75*
G02*
X58612000Y-114564250I0J-243750D01*
G01*
X58612000Y-115051750D01*
G75*
G02*
X58368250Y-115295500I-243750J0D01*
G01*
X57455750Y-115295500D01*
G75*
G02*
X57212000Y-115051750I0J243750D01*
G01*
X57212000Y-114564250D01*
G75*
G02*
X57455750Y-114320500I243750J0D01*
G01*
G37*
G36*
G01*
X55423750Y-116193750D02*
X56336250Y-116193750D01*
G75*
G02*
X56580000Y-116437500I0J-243750D01*
G01*
X56580000Y-116925000D01*
G75*
G02*
X56336250Y-117168750I-243750J0D01*
G01*
X55423750Y-117168750D01*
G75*
G02*
X55180000Y-116925000I0J243750D01*
G01*
X55180000Y-116437500D01*
G75*
G02*
X55423750Y-116193750I243750J0D01*
G01*
G37*
G36*
G01*
X55423750Y-114318750D02*
X56336250Y-114318750D01*
G75*
G02*
X56580000Y-114562500I0J-243750D01*
G01*
X56580000Y-115050000D01*
G75*
G02*
X56336250Y-115293750I-243750J0D01*
G01*
X55423750Y-115293750D01*
G75*
G02*
X55180000Y-115050000I0J243750D01*
G01*
X55180000Y-114562500D01*
G75*
G02*
X55423750Y-114318750I243750J0D01*
G01*
G37*
D10*
X63225500Y-120515250D03*
X65425500Y-120515250D03*
X65425500Y-122215250D03*
X63225500Y-122215250D03*
D11*
X57511750Y-110862500D03*
X56711750Y-110862500D03*
X55911750Y-110862500D03*
X55111750Y-110862500D03*
X54311750Y-110862500D03*
D12*
X68325500Y-138129250D03*
X67525500Y-138129250D03*
X66725500Y-138129250D03*
X65925500Y-138129250D03*
X65125500Y-138129250D03*
X64325500Y-138129250D03*
X63525500Y-138129250D03*
X62725500Y-138129250D03*
X61925500Y-138129250D03*
X61125500Y-138129250D03*
X60325500Y-138129250D03*
D13*
X58625500Y-136429250D03*
X58625500Y-135629250D03*
X58625500Y-134829250D03*
X58625500Y-134029250D03*
X58625500Y-133229250D03*
X58625500Y-132429250D03*
X58625500Y-131629250D03*
X58625500Y-130829250D03*
X58625500Y-130029250D03*
X58625500Y-129229250D03*
X58625500Y-128429250D03*
D12*
X60325500Y-126729250D03*
X61125500Y-126729250D03*
X61925500Y-126729250D03*
X62725500Y-126729250D03*
X63525500Y-126729250D03*
X64325500Y-126729250D03*
X65125500Y-126729250D03*
X65925500Y-126729250D03*
X66725500Y-126729250D03*
X67525500Y-126729250D03*
X68325500Y-126729250D03*
D13*
X70025500Y-128429250D03*
X70025500Y-129229250D03*
X70025500Y-130029250D03*
X70025500Y-130829250D03*
X70025500Y-131629250D03*
X70025500Y-132429250D03*
X70025500Y-133229250D03*
X70025500Y-134029250D03*
X70025500Y-134829250D03*
X70025500Y-135629250D03*
X70025500Y-136429250D03*
D14*
X69775000Y-106100000D03*
X63575000Y-109800000D03*
X69775000Y-109800000D03*
X63575000Y-106100000D03*
G36*
G01*
X54661750Y-139580250D02*
X55574250Y-139580250D01*
G75*
G02*
X55818000Y-139824000I0J-243750D01*
G01*
X55818000Y-140311500D01*
G75*
G02*
X55574250Y-140555250I-243750J0D01*
G01*
X54661750Y-140555250D01*
G75*
G02*
X54418000Y-140311500I0J243750D01*
G01*
X54418000Y-139824000D01*
G75*
G02*
X54661750Y-139580250I243750J0D01*
G01*
G37*
G36*
G01*
X54661750Y-137705250D02*
X55574250Y-137705250D01*
G75*
G02*
X55818000Y-137949000I0J-243750D01*
G01*
X55818000Y-138436500D01*
G75*
G02*
X55574250Y-138680250I-243750J0D01*
G01*
X54661750Y-138680250D01*
G75*
G02*
X54418000Y-138436500I0J243750D01*
G01*
X54418000Y-137949000D01*
G75*
G02*
X54661750Y-137705250I243750J0D01*
G01*
G37*
G36*
G01*
X73711750Y-123705250D02*
X74624250Y-123705250D01*
G75*
G02*
X74868000Y-123949000I0J-243750D01*
G01*
X74868000Y-124436500D01*
G75*
G02*
X74624250Y-124680250I-243750J0D01*
G01*
X73711750Y-124680250D01*
G75*
G02*
X73468000Y-124436500I0J243750D01*
G01*
X73468000Y-123949000D01*
G75*
G02*
X73711750Y-123705250I243750J0D01*
G01*
G37*
G36*
G01*
X73711750Y-121830250D02*
X74624250Y-121830250D01*
G75*
G02*
X74868000Y-122074000I0J-243750D01*
G01*
X74868000Y-122561500D01*
G75*
G02*
X74624250Y-122805250I-243750J0D01*
G01*
X73711750Y-122805250D01*
G75*
G02*
X73468000Y-122561500I0J243750D01*
G01*
X73468000Y-122074000D01*
G75*
G02*
X73711750Y-121830250I243750J0D01*
G01*
G37*
G36*
G01*
X65230500Y-114211500D02*
X65230500Y-112961500D01*
G75*
G02*
X65480500Y-112711500I250000J0D01*
G01*
X66230500Y-112711500D01*
G75*
G02*
X66480500Y-112961500I0J-250000D01*
G01*
X66480500Y-114211500D01*
G75*
G02*
X66230500Y-114461500I-250000J0D01*
G01*
X65480500Y-114461500D01*
G75*
G02*
X65230500Y-114211500I0J250000D01*
G01*
G37*
G36*
G01*
X62430500Y-114211500D02*
X62430500Y-112961500D01*
G75*
G02*
X62680500Y-112711500I250000J0D01*
G01*
X63430500Y-112711500D01*
G75*
G02*
X63680500Y-112961500I0J-250000D01*
G01*
X63680500Y-114211500D01*
G75*
G02*
X63430500Y-114461500I-250000J0D01*
G01*
X62680500Y-114461500D01*
G75*
G02*
X62430500Y-114211500I0J250000D01*
G01*
G37*
G36*
G01*
X76061250Y-133420750D02*
X76973750Y-133420750D01*
G75*
G02*
X77217500Y-133664500I0J-243750D01*
G01*
X77217500Y-134152000D01*
G75*
G02*
X76973750Y-134395750I-243750J0D01*
G01*
X76061250Y-134395750D01*
G75*
G02*
X75817500Y-134152000I0J243750D01*
G01*
X75817500Y-133664500D01*
G75*
G02*
X76061250Y-133420750I243750J0D01*
G01*
G37*
G36*
G01*
X76061250Y-131545750D02*
X76973750Y-131545750D01*
G75*
G02*
X77217500Y-131789500I0J-243750D01*
G01*
X77217500Y-132277000D01*
G75*
G02*
X76973750Y-132520750I-243750J0D01*
G01*
X76061250Y-132520750D01*
G75*
G02*
X75817500Y-132277000I0J243750D01*
G01*
X75817500Y-131789500D01*
G75*
G02*
X76061250Y-131545750I243750J0D01*
G01*
G37*
G36*
G01*
X67224250Y-117701500D02*
X67224250Y-118614000D01*
G75*
G02*
X66980500Y-118857750I-243750J0D01*
G01*
X66493000Y-118857750D01*
G75*
G02*
X66249250Y-118614000I0J243750D01*
G01*
X66249250Y-117701500D01*
G75*
G02*
X66493000Y-117457750I243750J0D01*
G01*
X66980500Y-117457750D01*
G75*
G02*
X67224250Y-117701500I0J-243750D01*
G01*
G37*
G36*
G01*
X69099250Y-117701500D02*
X69099250Y-118614000D01*
G75*
G02*
X68855500Y-118857750I-243750J0D01*
G01*
X68368000Y-118857750D01*
G75*
G02*
X68124250Y-118614000I0J243750D01*
G01*
X68124250Y-117701500D01*
G75*
G02*
X68368000Y-117457750I243750J0D01*
G01*
X68855500Y-117457750D01*
G75*
G02*
X69099250Y-117701500I0J-243750D01*
G01*
G37*
G36*
G01*
X59868750Y-121750000D02*
X60781250Y-121750000D01*
G75*
G02*
X61025000Y-121993750I0J-243750D01*
G01*
X61025000Y-122481250D01*
G75*
G02*
X60781250Y-122725000I-243750J0D01*
G01*
X59868750Y-122725000D01*
G75*
G02*
X59625000Y-122481250I0J243750D01*
G01*
X59625000Y-121993750D01*
G75*
G02*
X59868750Y-121750000I243750J0D01*
G01*
G37*
G36*
G01*
X59868750Y-119875000D02*
X60781250Y-119875000D01*
G75*
G02*
X61025000Y-120118750I0J-243750D01*
G01*
X61025000Y-120606250D01*
G75*
G02*
X60781250Y-120850000I-243750J0D01*
G01*
X59868750Y-120850000D01*
G75*
G02*
X59625000Y-120606250I0J243750D01*
G01*
X59625000Y-120118750D01*
G75*
G02*
X59868750Y-119875000I243750J0D01*
G01*
G37*
G36*
G01*
X68877000Y-141737000D02*
X68877000Y-142649500D01*
G75*
G02*
X68633250Y-142893250I-243750J0D01*
G01*
X68145750Y-142893250D01*
G75*
G02*
X67902000Y-142649500I0J243750D01*
G01*
X67902000Y-141737000D01*
G75*
G02*
X68145750Y-141493250I243750J0D01*
G01*
X68633250Y-141493250D01*
G75*
G02*
X68877000Y-141737000I0J-243750D01*
G01*
G37*
G36*
G01*
X70752000Y-141737000D02*
X70752000Y-142649500D01*
G75*
G02*
X70508250Y-142893250I-243750J0D01*
G01*
X70020750Y-142893250D01*
G75*
G02*
X69777000Y-142649500I0J243750D01*
G01*
X69777000Y-141737000D01*
G75*
G02*
X70020750Y-141493250I243750J0D01*
G01*
X70508250Y-141493250D01*
G75*
G02*
X70752000Y-141737000I0J-243750D01*
G01*
G37*
G36*
G01*
X55906250Y-141737000D02*
X55906250Y-142649500D01*
G75*
G02*
X55662500Y-142893250I-243750J0D01*
G01*
X55175000Y-142893250D01*
G75*
G02*
X54931250Y-142649500I0J243750D01*
G01*
X54931250Y-141737000D01*
G75*
G02*
X55175000Y-141493250I243750J0D01*
G01*
X55662500Y-141493250D01*
G75*
G02*
X55906250Y-141737000I0J-243750D01*
G01*
G37*
G36*
G01*
X57781250Y-141737000D02*
X57781250Y-142649500D01*
G75*
G02*
X57537500Y-142893250I-243750J0D01*
G01*
X57050000Y-142893250D01*
G75*
G02*
X56806250Y-142649500I0J243750D01*
G01*
X56806250Y-141737000D01*
G75*
G02*
X57050000Y-141493250I243750J0D01*
G01*
X57537500Y-141493250D01*
G75*
G02*
X57781250Y-141737000I0J-243750D01*
G01*
G37*
G36*
G01*
X70369750Y-120915250D02*
X69457250Y-120915250D01*
G75*
G02*
X69213500Y-120671500I0J243750D01*
G01*
X69213500Y-120184000D01*
G75*
G02*
X69457250Y-119940250I243750J0D01*
G01*
X70369750Y-119940250D01*
G75*
G02*
X70613500Y-120184000I0J-243750D01*
G01*
X70613500Y-120671500D01*
G75*
G02*
X70369750Y-120915250I-243750J0D01*
G01*
G37*
G36*
G01*
X70369750Y-122790250D02*
X69457250Y-122790250D01*
G75*
G02*
X69213500Y-122546500I0J243750D01*
G01*
X69213500Y-122059000D01*
G75*
G02*
X69457250Y-121815250I243750J0D01*
G01*
X70369750Y-121815250D01*
G75*
G02*
X70613500Y-122059000I0J-243750D01*
G01*
X70613500Y-122546500D01*
G75*
G02*
X70369750Y-122790250I-243750J0D01*
G01*
G37*
G36*
G01*
X52780250Y-115295500D02*
X51867750Y-115295500D01*
G75*
G02*
X51624000Y-115051750I0J243750D01*
G01*
X51624000Y-114564250D01*
G75*
G02*
X51867750Y-114320500I243750J0D01*
G01*
X52780250Y-114320500D01*
G75*
G02*
X53024000Y-114564250I0J-243750D01*
G01*
X53024000Y-115051750D01*
G75*
G02*
X52780250Y-115295500I-243750J0D01*
G01*
G37*
G36*
G01*
X52780250Y-117170500D02*
X51867750Y-117170500D01*
G75*
G02*
X51624000Y-116926750I0J243750D01*
G01*
X51624000Y-116439250D01*
G75*
G02*
X51867750Y-116195500I243750J0D01*
G01*
X52780250Y-116195500D01*
G75*
G02*
X53024000Y-116439250I0J-243750D01*
G01*
X53024000Y-116926750D01*
G75*
G02*
X52780250Y-117170500I-243750J0D01*
G01*
G37*
M02*
