G04 #@! TF.GenerationSoftware,KiCad,Pcbnew,(5.99.0-1615-g0042cd509)*
G04 #@! TF.CreationDate,2020-07-12T13:46:49-05:00*
G04 #@! TF.ProjectId,my-keyboard,6d792d6b-6579-4626-9f61-72642e6b6963,rev?*
G04 #@! TF.SameCoordinates,Original*
G04 #@! TF.FileFunction,Copper,L2,Bot*
G04 #@! TF.FilePolarity,Positive*
%FSLAX46Y46*%
G04 Gerber Fmt 4.6, Leading zero omitted, Abs format (unit mm)*
G04 Created by KiCad (PCBNEW (5.99.0-1615-g0042cd509)) date 2020-07-12 13:46:49*
%MOMM*%
%LPD*%
G01*
G04 APERTURE LIST*
G04 #@! TA.AperFunction,ComponentPad*
%ADD10C,2.250000*%
G04 #@! TD*
G04 #@! TA.AperFunction,ComponentPad*
%ADD11R,1.905000X1.905000*%
G04 #@! TD*
G04 #@! TA.AperFunction,ComponentPad*
%ADD12C,1.905000*%
G04 #@! TD*
G04 #@! TA.AperFunction,ComponentPad*
%ADD13O,0.850000X0.850000*%
G04 #@! TD*
G04 #@! TA.AperFunction,ComponentPad*
%ADD14R,0.850000X0.850000*%
G04 #@! TD*
G04 #@! TA.AperFunction,SMDPad,CuDef*
%ADD15R,1.200000X0.900000*%
G04 #@! TD*
G04 #@! TA.AperFunction,ComponentPad*
%ADD16O,1.700000X2.700000*%
G04 #@! TD*
G04 #@! TA.AperFunction,ViaPad*
%ADD17C,0.800000*%
G04 #@! TD*
G04 #@! TA.AperFunction,Conductor*
%ADD18C,0.381000*%
G04 #@! TD*
G04 #@! TA.AperFunction,Conductor*
%ADD19C,0.254000*%
G04 #@! TD*
G04 APERTURE END LIST*
D10*
X214987500Y-203962500D03*
G04 #@! TA.AperFunction,ComponentPad*
G36*
G01*
X212926183Y-206259845D02*
X212926183Y-206259845D01*
G75*
G02*
X212840155Y-204671183I751317J837345D01*
G01*
X214150157Y-203211183D01*
G75*
G02*
X215738819Y-203125155I837345J-751317D01*
G01*
X215738819Y-203125155D01*
G75*
G02*
X215824847Y-204713817I-751317J-837345D01*
G01*
X214514845Y-206173817D01*
G75*
G02*
X212926183Y-206259845I-837345J751317D01*
G01*
G37*
G04 #@! TD.AperFunction*
X220027500Y-202882500D03*
G04 #@! TA.AperFunction,ComponentPad*
G36*
G01*
X219910097Y-204584834D02*
X219910097Y-204584834D01*
G75*
G02*
X218865166Y-203385097I77403J1122334D01*
G01*
X218905166Y-202805097D01*
G75*
G02*
X220104903Y-201760166I1122334J-77403D01*
G01*
X220104903Y-201760166D01*
G75*
G02*
X221149834Y-202959903I-77403J-1122334D01*
G01*
X221109834Y-203539903D01*
G75*
G02*
X219910097Y-204584834I-1122334J77403D01*
G01*
G37*
G04 #@! TD.AperFunction*
X326906250Y-184912500D03*
G04 #@! TA.AperFunction,ComponentPad*
G36*
G01*
X324844933Y-187209845D02*
X324844933Y-187209845D01*
G75*
G02*
X324758905Y-185621183I751317J837345D01*
G01*
X326068907Y-184161183D01*
G75*
G02*
X327657569Y-184075155I837345J-751317D01*
G01*
X327657569Y-184075155D01*
G75*
G02*
X327743597Y-185663817I-751317J-837345D01*
G01*
X326433595Y-187123817D01*
G75*
G02*
X324844933Y-187209845I-837345J751317D01*
G01*
G37*
G04 #@! TD.AperFunction*
X331946250Y-183832500D03*
G04 #@! TA.AperFunction,ComponentPad*
G36*
G01*
X331828847Y-185534834D02*
X331828847Y-185534834D01*
G75*
G02*
X330783916Y-184335097I77403J1122334D01*
G01*
X330823916Y-183755097D01*
G75*
G02*
X332023653Y-182710166I1122334J-77403D01*
G01*
X332023653Y-182710166D01*
G75*
G02*
X333068584Y-183909903I-77403J-1122334D01*
G01*
X333028584Y-184489903D01*
G75*
G02*
X331828847Y-185534834I-1122334J77403D01*
G01*
G37*
G04 #@! TD.AperFunction*
X98306250Y-184912500D03*
G04 #@! TA.AperFunction,ComponentPad*
G36*
G01*
X96244933Y-187209845D02*
X96244933Y-187209845D01*
G75*
G02*
X96158905Y-185621183I751317J837345D01*
G01*
X97468907Y-184161183D01*
G75*
G02*
X99057569Y-184075155I837345J-751317D01*
G01*
X99057569Y-184075155D01*
G75*
G02*
X99143597Y-185663817I-751317J-837345D01*
G01*
X97833595Y-187123817D01*
G75*
G02*
X96244933Y-187209845I-837345J751317D01*
G01*
G37*
G04 #@! TD.AperFunction*
X103346250Y-183832500D03*
G04 #@! TA.AperFunction,ComponentPad*
G36*
G01*
X103228847Y-185534834D02*
X103228847Y-185534834D01*
G75*
G02*
X102183916Y-184335097I77403J1122334D01*
G01*
X102223916Y-183755097D01*
G75*
G02*
X103423653Y-182710166I1122334J-77403D01*
G01*
X103423653Y-182710166D01*
G75*
G02*
X104468584Y-183909903I-77403J-1122334D01*
G01*
X104428584Y-184489903D01*
G75*
G02*
X103228847Y-185534834I-1122334J77403D01*
G01*
G37*
G04 #@! TD.AperFunction*
X341193750Y-165862500D03*
G04 #@! TA.AperFunction,ComponentPad*
G36*
G01*
X339132433Y-168159845D02*
X339132433Y-168159845D01*
G75*
G02*
X339046405Y-166571183I751317J837345D01*
G01*
X340356407Y-165111183D01*
G75*
G02*
X341945069Y-165025155I837345J-751317D01*
G01*
X341945069Y-165025155D01*
G75*
G02*
X342031097Y-166613817I-751317J-837345D01*
G01*
X340721095Y-168073817D01*
G75*
G02*
X339132433Y-168159845I-837345J751317D01*
G01*
G37*
G04 #@! TD.AperFunction*
X346233750Y-164782500D03*
G04 #@! TA.AperFunction,ComponentPad*
G36*
G01*
X346116347Y-166484834D02*
X346116347Y-166484834D01*
G75*
G02*
X345071416Y-165285097I77403J1122334D01*
G01*
X345111416Y-164705097D01*
G75*
G02*
X346311153Y-163660166I1122334J-77403D01*
G01*
X346311153Y-163660166D01*
G75*
G02*
X347356084Y-164859903I-77403J-1122334D01*
G01*
X347316084Y-165439903D01*
G75*
G02*
X346116347Y-166484834I-1122334J77403D01*
G01*
G37*
G04 #@! TD.AperFunction*
D11*
X97313750Y-174942500D03*
D12*
X94773750Y-174942500D03*
D10*
X93543750Y-165862500D03*
G04 #@! TA.AperFunction,ComponentPad*
G36*
G01*
X91482433Y-168159845D02*
X91482433Y-168159845D01*
G75*
G02*
X91396405Y-166571183I751317J837345D01*
G01*
X92706407Y-165111183D01*
G75*
G02*
X94295069Y-165025155I837345J-751317D01*
G01*
X94295069Y-165025155D01*
G75*
G02*
X94381097Y-166613817I-751317J-837345D01*
G01*
X93071095Y-168073817D01*
G75*
G02*
X91482433Y-168159845I-837345J751317D01*
G01*
G37*
G04 #@! TD.AperFunction*
X98583750Y-164782500D03*
G04 #@! TA.AperFunction,ComponentPad*
G36*
G01*
X98466347Y-166484834D02*
X98466347Y-166484834D01*
G75*
G02*
X97421416Y-165285097I77403J1122334D01*
G01*
X97461416Y-164705097D01*
G75*
G02*
X98661153Y-163660166I1122334J-77403D01*
G01*
X98661153Y-163660166D01*
G75*
G02*
X99706084Y-164859903I-77403J-1122334D01*
G01*
X99666084Y-165439903D01*
G75*
G02*
X98466347Y-166484834I-1122334J77403D01*
G01*
G37*
G04 #@! TD.AperFunction*
X348337500Y-146812500D03*
G04 #@! TA.AperFunction,ComponentPad*
G36*
G01*
X346276183Y-149109845D02*
X346276183Y-149109845D01*
G75*
G02*
X346190155Y-147521183I751317J837345D01*
G01*
X347500157Y-146061183D01*
G75*
G02*
X349088819Y-145975155I837345J-751317D01*
G01*
X349088819Y-145975155D01*
G75*
G02*
X349174847Y-147563817I-751317J-837345D01*
G01*
X347864845Y-149023817D01*
G75*
G02*
X346276183Y-149109845I-837345J751317D01*
G01*
G37*
G04 #@! TD.AperFunction*
X353377500Y-145732500D03*
G04 #@! TA.AperFunction,ComponentPad*
G36*
G01*
X353260097Y-147434834D02*
X353260097Y-147434834D01*
G75*
G02*
X352215166Y-146235097I77403J1122334D01*
G01*
X352255166Y-145655097D01*
G75*
G02*
X353454903Y-144610166I1122334J-77403D01*
G01*
X353454903Y-144610166D01*
G75*
G02*
X354499834Y-145809903I-77403J-1122334D01*
G01*
X354459834Y-146389903D01*
G75*
G02*
X353260097Y-147434834I-1122334J77403D01*
G01*
G37*
G04 #@! TD.AperFunction*
X91162500Y-146812500D03*
G04 #@! TA.AperFunction,ComponentPad*
G36*
G01*
X89101183Y-149109845D02*
X89101183Y-149109845D01*
G75*
G02*
X89015155Y-147521183I751317J837345D01*
G01*
X90325157Y-146061183D01*
G75*
G02*
X91913819Y-145975155I837345J-751317D01*
G01*
X91913819Y-145975155D01*
G75*
G02*
X91999847Y-147563817I-751317J-837345D01*
G01*
X90689845Y-149023817D01*
G75*
G02*
X89101183Y-149109845I-837345J751317D01*
G01*
G37*
G04 #@! TD.AperFunction*
X96202500Y-145732500D03*
G04 #@! TA.AperFunction,ComponentPad*
G36*
G01*
X96085097Y-147434834D02*
X96085097Y-147434834D01*
G75*
G02*
X95040166Y-146235097I77403J1122334D01*
G01*
X95080166Y-145655097D01*
G75*
G02*
X96279903Y-144610166I1122334J-77403D01*
G01*
X96279903Y-144610166D01*
G75*
G02*
X97324834Y-145809903I-77403J-1122334D01*
G01*
X97284834Y-146389903D01*
G75*
G02*
X96085097Y-147434834I-1122334J77403D01*
G01*
G37*
G04 #@! TD.AperFunction*
X343575000Y-127762500D03*
G04 #@! TA.AperFunction,ComponentPad*
G36*
G01*
X341513683Y-130059845D02*
X341513683Y-130059845D01*
G75*
G02*
X341427655Y-128471183I751317J837345D01*
G01*
X342737657Y-127011183D01*
G75*
G02*
X344326319Y-126925155I837345J-751317D01*
G01*
X344326319Y-126925155D01*
G75*
G02*
X344412347Y-128513817I-751317J-837345D01*
G01*
X343102345Y-129973817D01*
G75*
G02*
X341513683Y-130059845I-837345J751317D01*
G01*
G37*
G04 #@! TD.AperFunction*
X348615000Y-126682500D03*
G04 #@! TA.AperFunction,ComponentPad*
G36*
G01*
X348497597Y-128384834D02*
X348497597Y-128384834D01*
G75*
G02*
X347452666Y-127185097I77403J1122334D01*
G01*
X347492666Y-126605097D01*
G75*
G02*
X348692403Y-125560166I1122334J-77403D01*
G01*
X348692403Y-125560166D01*
G75*
G02*
X349737334Y-126759903I-77403J-1122334D01*
G01*
X349697334Y-127339903D01*
G75*
G02*
X348497597Y-128384834I-1122334J77403D01*
G01*
G37*
G04 #@! TD.AperFunction*
X274518750Y-203962500D03*
G04 #@! TA.AperFunction,ComponentPad*
G36*
G01*
X272457433Y-206259845D02*
X272457433Y-206259845D01*
G75*
G02*
X272371405Y-204671183I751317J837345D01*
G01*
X273681407Y-203211183D01*
G75*
G02*
X275270069Y-203125155I837345J-751317D01*
G01*
X275270069Y-203125155D01*
G75*
G02*
X275356097Y-204713817I-751317J-837345D01*
G01*
X274046095Y-206173817D01*
G75*
G02*
X272457433Y-206259845I-837345J751317D01*
G01*
G37*
G04 #@! TD.AperFunction*
X279558750Y-202882500D03*
G04 #@! TA.AperFunction,ComponentPad*
G36*
G01*
X279441347Y-204584834D02*
X279441347Y-204584834D01*
G75*
G02*
X278396416Y-203385097I77403J1122334D01*
G01*
X278436416Y-202805097D01*
G75*
G02*
X279636153Y-201760166I1122334J-77403D01*
G01*
X279636153Y-201760166D01*
G75*
G02*
X280681084Y-202959903I-77403J-1122334D01*
G01*
X280641084Y-203539903D01*
G75*
G02*
X279441347Y-204584834I-1122334J77403D01*
G01*
G37*
G04 #@! TD.AperFunction*
X136406250Y-203962500D03*
G04 #@! TA.AperFunction,ComponentPad*
G36*
G01*
X134344933Y-206259845D02*
X134344933Y-206259845D01*
G75*
G02*
X134258905Y-204671183I751317J837345D01*
G01*
X135568907Y-203211183D01*
G75*
G02*
X137157569Y-203125155I837345J-751317D01*
G01*
X137157569Y-203125155D01*
G75*
G02*
X137243597Y-204713817I-751317J-837345D01*
G01*
X135933595Y-206173817D01*
G75*
G02*
X134344933Y-206259845I-837345J751317D01*
G01*
G37*
G04 #@! TD.AperFunction*
X141446250Y-202882500D03*
G04 #@! TA.AperFunction,ComponentPad*
G36*
G01*
X141328847Y-204584834D02*
X141328847Y-204584834D01*
G75*
G02*
X140283916Y-203385097I77403J1122334D01*
G01*
X140323916Y-202805097D01*
G75*
G02*
X141523653Y-201760166I1122334J-77403D01*
G01*
X141523653Y-201760166D01*
G75*
G02*
X142568584Y-202959903I-77403J-1122334D01*
G01*
X142528584Y-203539903D01*
G75*
G02*
X141328847Y-204584834I-1122334J77403D01*
G01*
G37*
G04 #@! TD.AperFunction*
X112593750Y-203962500D03*
G04 #@! TA.AperFunction,ComponentPad*
G36*
G01*
X110532433Y-206259845D02*
X110532433Y-206259845D01*
G75*
G02*
X110446405Y-204671183I751317J837345D01*
G01*
X111756407Y-203211183D01*
G75*
G02*
X113345069Y-203125155I837345J-751317D01*
G01*
X113345069Y-203125155D01*
G75*
G02*
X113431097Y-204713817I-751317J-837345D01*
G01*
X112121095Y-206173817D01*
G75*
G02*
X110532433Y-206259845I-837345J751317D01*
G01*
G37*
G04 #@! TD.AperFunction*
X117633750Y-202882500D03*
G04 #@! TA.AperFunction,ComponentPad*
G36*
G01*
X117516347Y-204584834D02*
X117516347Y-204584834D01*
G75*
G02*
X116471416Y-203385097I77403J1122334D01*
G01*
X116511416Y-202805097D01*
G75*
G02*
X117711153Y-201760166I1122334J-77403D01*
G01*
X117711153Y-201760166D01*
G75*
G02*
X118756084Y-202959903I-77403J-1122334D01*
G01*
X118716084Y-203539903D01*
G75*
G02*
X117516347Y-204584834I-1122334J77403D01*
G01*
G37*
G04 #@! TD.AperFunction*
X88781250Y-203962500D03*
G04 #@! TA.AperFunction,ComponentPad*
G36*
G01*
X86719933Y-206259845D02*
X86719933Y-206259845D01*
G75*
G02*
X86633905Y-204671183I751317J837345D01*
G01*
X87943907Y-203211183D01*
G75*
G02*
X89532569Y-203125155I837345J-751317D01*
G01*
X89532569Y-203125155D01*
G75*
G02*
X89618597Y-204713817I-751317J-837345D01*
G01*
X88308595Y-206173817D01*
G75*
G02*
X86719933Y-206259845I-837345J751317D01*
G01*
G37*
G04 #@! TD.AperFunction*
X93821250Y-202882500D03*
G04 #@! TA.AperFunction,ComponentPad*
G36*
G01*
X93703847Y-204584834D02*
X93703847Y-204584834D01*
G75*
G02*
X92658916Y-203385097I77403J1122334D01*
G01*
X92698916Y-202805097D01*
G75*
G02*
X93898653Y-201760166I1122334J-77403D01*
G01*
X93898653Y-201760166D01*
G75*
G02*
X94943584Y-202959903I-77403J-1122334D01*
G01*
X94903584Y-203539903D01*
G75*
G02*
X93703847Y-204584834I-1122334J77403D01*
G01*
G37*
G04 #@! TD.AperFunction*
X257850000Y-108712500D03*
G04 #@! TA.AperFunction,ComponentPad*
G36*
G01*
X255788683Y-111009845D02*
X255788683Y-111009845D01*
G75*
G02*
X255702655Y-109421183I751317J837345D01*
G01*
X257012657Y-107961183D01*
G75*
G02*
X258601319Y-107875155I837345J-751317D01*
G01*
X258601319Y-107875155D01*
G75*
G02*
X258687347Y-109463817I-751317J-837345D01*
G01*
X257377345Y-110923817D01*
G75*
G02*
X255788683Y-111009845I-837345J751317D01*
G01*
G37*
G04 #@! TD.AperFunction*
X262890000Y-107632500D03*
G04 #@! TA.AperFunction,ComponentPad*
G36*
G01*
X262772597Y-109334834D02*
X262772597Y-109334834D01*
G75*
G02*
X261727666Y-108135097I77403J1122334D01*
G01*
X261767666Y-107555097D01*
G75*
G02*
X262967403Y-106510166I1122334J-77403D01*
G01*
X262967403Y-106510166D01*
G75*
G02*
X264012334Y-107709903I-77403J-1122334D01*
G01*
X263972334Y-108289903D01*
G75*
G02*
X262772597Y-109334834I-1122334J77403D01*
G01*
G37*
G04 #@! TD.AperFunction*
X238800000Y-108712500D03*
G04 #@! TA.AperFunction,ComponentPad*
G36*
G01*
X236738683Y-111009845D02*
X236738683Y-111009845D01*
G75*
G02*
X236652655Y-109421183I751317J837345D01*
G01*
X237962657Y-107961183D01*
G75*
G02*
X239551319Y-107875155I837345J-751317D01*
G01*
X239551319Y-107875155D01*
G75*
G02*
X239637347Y-109463817I-751317J-837345D01*
G01*
X238327345Y-110923817D01*
G75*
G02*
X236738683Y-111009845I-837345J751317D01*
G01*
G37*
G04 #@! TD.AperFunction*
X243840000Y-107632500D03*
G04 #@! TA.AperFunction,ComponentPad*
G36*
G01*
X243722597Y-109334834D02*
X243722597Y-109334834D01*
G75*
G02*
X242677666Y-108135097I77403J1122334D01*
G01*
X242717666Y-107555097D01*
G75*
G02*
X243917403Y-106510166I1122334J-77403D01*
G01*
X243917403Y-106510166D01*
G75*
G02*
X244962334Y-107709903I-77403J-1122334D01*
G01*
X244922334Y-108289903D01*
G75*
G02*
X243722597Y-109334834I-1122334J77403D01*
G01*
G37*
G04 #@! TD.AperFunction*
X219750000Y-108712500D03*
G04 #@! TA.AperFunction,ComponentPad*
G36*
G01*
X217688683Y-111009845D02*
X217688683Y-111009845D01*
G75*
G02*
X217602655Y-109421183I751317J837345D01*
G01*
X218912657Y-107961183D01*
G75*
G02*
X220501319Y-107875155I837345J-751317D01*
G01*
X220501319Y-107875155D01*
G75*
G02*
X220587347Y-109463817I-751317J-837345D01*
G01*
X219277345Y-110923817D01*
G75*
G02*
X217688683Y-111009845I-837345J751317D01*
G01*
G37*
G04 #@! TD.AperFunction*
X224790000Y-107632500D03*
G04 #@! TA.AperFunction,ComponentPad*
G36*
G01*
X224672597Y-109334834D02*
X224672597Y-109334834D01*
G75*
G02*
X223627666Y-108135097I77403J1122334D01*
G01*
X223667666Y-107555097D01*
G75*
G02*
X224867403Y-106510166I1122334J-77403D01*
G01*
X224867403Y-106510166D01*
G75*
G02*
X225912334Y-107709903I-77403J-1122334D01*
G01*
X225872334Y-108289903D01*
G75*
G02*
X224672597Y-109334834I-1122334J77403D01*
G01*
G37*
G04 #@! TD.AperFunction*
X200700000Y-108712500D03*
G04 #@! TA.AperFunction,ComponentPad*
G36*
G01*
X198638683Y-111009845D02*
X198638683Y-111009845D01*
G75*
G02*
X198552655Y-109421183I751317J837345D01*
G01*
X199862657Y-107961183D01*
G75*
G02*
X201451319Y-107875155I837345J-751317D01*
G01*
X201451319Y-107875155D01*
G75*
G02*
X201537347Y-109463817I-751317J-837345D01*
G01*
X200227345Y-110923817D01*
G75*
G02*
X198638683Y-111009845I-837345J751317D01*
G01*
G37*
G04 #@! TD.AperFunction*
X205740000Y-107632500D03*
G04 #@! TA.AperFunction,ComponentPad*
G36*
G01*
X205622597Y-109334834D02*
X205622597Y-109334834D01*
G75*
G02*
X204577666Y-108135097I77403J1122334D01*
G01*
X204617666Y-107555097D01*
G75*
G02*
X205817403Y-106510166I1122334J-77403D01*
G01*
X205817403Y-106510166D01*
G75*
G02*
X206862334Y-107709903I-77403J-1122334D01*
G01*
X206822334Y-108289903D01*
G75*
G02*
X205622597Y-109334834I-1122334J77403D01*
G01*
G37*
G04 #@! TD.AperFunction*
X372150000Y-203962500D03*
G04 #@! TA.AperFunction,ComponentPad*
G36*
G01*
X370088683Y-206259845D02*
X370088683Y-206259845D01*
G75*
G02*
X370002655Y-204671183I751317J837345D01*
G01*
X371312657Y-203211183D01*
G75*
G02*
X372901319Y-203125155I837345J-751317D01*
G01*
X372901319Y-203125155D01*
G75*
G02*
X372987347Y-204713817I-751317J-837345D01*
G01*
X371677345Y-206173817D01*
G75*
G02*
X370088683Y-206259845I-837345J751317D01*
G01*
G37*
G04 #@! TD.AperFunction*
X377190000Y-202882500D03*
G04 #@! TA.AperFunction,ComponentPad*
G36*
G01*
X377072597Y-204584834D02*
X377072597Y-204584834D01*
G75*
G02*
X376027666Y-203385097I77403J1122334D01*
G01*
X376067666Y-202805097D01*
G75*
G02*
X377267403Y-201760166I1122334J-77403D01*
G01*
X377267403Y-201760166D01*
G75*
G02*
X378312334Y-202959903I-77403J-1122334D01*
G01*
X378272334Y-203539903D01*
G75*
G02*
X377072597Y-204584834I-1122334J77403D01*
G01*
G37*
G04 #@! TD.AperFunction*
X353100000Y-203962500D03*
G04 #@! TA.AperFunction,ComponentPad*
G36*
G01*
X351038683Y-206259845D02*
X351038683Y-206259845D01*
G75*
G02*
X350952655Y-204671183I751317J837345D01*
G01*
X352262657Y-203211183D01*
G75*
G02*
X353851319Y-203125155I837345J-751317D01*
G01*
X353851319Y-203125155D01*
G75*
G02*
X353937347Y-204713817I-751317J-837345D01*
G01*
X352627345Y-206173817D01*
G75*
G02*
X351038683Y-206259845I-837345J751317D01*
G01*
G37*
G04 #@! TD.AperFunction*
X358140000Y-202882500D03*
G04 #@! TA.AperFunction,ComponentPad*
G36*
G01*
X358022597Y-204584834D02*
X358022597Y-204584834D01*
G75*
G02*
X356977666Y-203385097I77403J1122334D01*
G01*
X357017666Y-202805097D01*
G75*
G02*
X358217403Y-201760166I1122334J-77403D01*
G01*
X358217403Y-201760166D01*
G75*
G02*
X359262334Y-202959903I-77403J-1122334D01*
G01*
X359222334Y-203539903D01*
G75*
G02*
X358022597Y-204584834I-1122334J77403D01*
G01*
G37*
G04 #@! TD.AperFunction*
X334050000Y-203962500D03*
G04 #@! TA.AperFunction,ComponentPad*
G36*
G01*
X331988683Y-206259845D02*
X331988683Y-206259845D01*
G75*
G02*
X331902655Y-204671183I751317J837345D01*
G01*
X333212657Y-203211183D01*
G75*
G02*
X334801319Y-203125155I837345J-751317D01*
G01*
X334801319Y-203125155D01*
G75*
G02*
X334887347Y-204713817I-751317J-837345D01*
G01*
X333577345Y-206173817D01*
G75*
G02*
X331988683Y-206259845I-837345J751317D01*
G01*
G37*
G04 #@! TD.AperFunction*
X339090000Y-202882500D03*
G04 #@! TA.AperFunction,ComponentPad*
G36*
G01*
X338972597Y-204584834D02*
X338972597Y-204584834D01*
G75*
G02*
X337927666Y-203385097I77403J1122334D01*
G01*
X337967666Y-202805097D01*
G75*
G02*
X339167403Y-201760166I1122334J-77403D01*
G01*
X339167403Y-201760166D01*
G75*
G02*
X340212334Y-202959903I-77403J-1122334D01*
G01*
X340172334Y-203539903D01*
G75*
G02*
X338972597Y-204584834I-1122334J77403D01*
G01*
G37*
G04 #@! TD.AperFunction*
X315000000Y-203962500D03*
G04 #@! TA.AperFunction,ComponentPad*
G36*
G01*
X312938683Y-206259845D02*
X312938683Y-206259845D01*
G75*
G02*
X312852655Y-204671183I751317J837345D01*
G01*
X314162657Y-203211183D01*
G75*
G02*
X315751319Y-203125155I837345J-751317D01*
G01*
X315751319Y-203125155D01*
G75*
G02*
X315837347Y-204713817I-751317J-837345D01*
G01*
X314527345Y-206173817D01*
G75*
G02*
X312938683Y-206259845I-837345J751317D01*
G01*
G37*
G04 #@! TD.AperFunction*
X320040000Y-202882500D03*
G04 #@! TA.AperFunction,ComponentPad*
G36*
G01*
X319922597Y-204584834D02*
X319922597Y-204584834D01*
G75*
G02*
X318877666Y-203385097I77403J1122334D01*
G01*
X318917666Y-202805097D01*
G75*
G02*
X320117403Y-201760166I1122334J-77403D01*
G01*
X320117403Y-201760166D01*
G75*
G02*
X321162334Y-202959903I-77403J-1122334D01*
G01*
X321122334Y-203539903D01*
G75*
G02*
X319922597Y-204584834I-1122334J77403D01*
G01*
G37*
G04 #@! TD.AperFunction*
X295950000Y-203962500D03*
G04 #@! TA.AperFunction,ComponentPad*
G36*
G01*
X293888683Y-206259845D02*
X293888683Y-206259845D01*
G75*
G02*
X293802655Y-204671183I751317J837345D01*
G01*
X295112657Y-203211183D01*
G75*
G02*
X296701319Y-203125155I837345J-751317D01*
G01*
X296701319Y-203125155D01*
G75*
G02*
X296787347Y-204713817I-751317J-837345D01*
G01*
X295477345Y-206173817D01*
G75*
G02*
X293888683Y-206259845I-837345J751317D01*
G01*
G37*
G04 #@! TD.AperFunction*
X300990000Y-202882500D03*
G04 #@! TA.AperFunction,ComponentPad*
G36*
G01*
X300872597Y-204584834D02*
X300872597Y-204584834D01*
G75*
G02*
X299827666Y-203385097I77403J1122334D01*
G01*
X299867666Y-202805097D01*
G75*
G02*
X301067403Y-201760166I1122334J-77403D01*
G01*
X301067403Y-201760166D01*
G75*
G02*
X302112334Y-202959903I-77403J-1122334D01*
G01*
X302072334Y-203539903D01*
G75*
G02*
X300872597Y-204584834I-1122334J77403D01*
G01*
G37*
G04 #@! TD.AperFunction*
X372150000Y-184912500D03*
G04 #@! TA.AperFunction,ComponentPad*
G36*
G01*
X370088683Y-187209845D02*
X370088683Y-187209845D01*
G75*
G02*
X370002655Y-185621183I751317J837345D01*
G01*
X371312657Y-184161183D01*
G75*
G02*
X372901319Y-184075155I837345J-751317D01*
G01*
X372901319Y-184075155D01*
G75*
G02*
X372987347Y-185663817I-751317J-837345D01*
G01*
X371677345Y-187123817D01*
G75*
G02*
X370088683Y-187209845I-837345J751317D01*
G01*
G37*
G04 #@! TD.AperFunction*
X377190000Y-183832500D03*
G04 #@! TA.AperFunction,ComponentPad*
G36*
G01*
X377072597Y-185534834D02*
X377072597Y-185534834D01*
G75*
G02*
X376027666Y-184335097I77403J1122334D01*
G01*
X376067666Y-183755097D01*
G75*
G02*
X377267403Y-182710166I1122334J-77403D01*
G01*
X377267403Y-182710166D01*
G75*
G02*
X378312334Y-183909903I-77403J-1122334D01*
G01*
X378272334Y-184489903D01*
G75*
G02*
X377072597Y-185534834I-1122334J77403D01*
G01*
G37*
G04 #@! TD.AperFunction*
X353100000Y-184912500D03*
G04 #@! TA.AperFunction,ComponentPad*
G36*
G01*
X351038683Y-187209845D02*
X351038683Y-187209845D01*
G75*
G02*
X350952655Y-185621183I751317J837345D01*
G01*
X352262657Y-184161183D01*
G75*
G02*
X353851319Y-184075155I837345J-751317D01*
G01*
X353851319Y-184075155D01*
G75*
G02*
X353937347Y-185663817I-751317J-837345D01*
G01*
X352627345Y-187123817D01*
G75*
G02*
X351038683Y-187209845I-837345J751317D01*
G01*
G37*
G04 #@! TD.AperFunction*
X358140000Y-183832500D03*
G04 #@! TA.AperFunction,ComponentPad*
G36*
G01*
X358022597Y-185534834D02*
X358022597Y-185534834D01*
G75*
G02*
X356977666Y-184335097I77403J1122334D01*
G01*
X357017666Y-183755097D01*
G75*
G02*
X358217403Y-182710166I1122334J-77403D01*
G01*
X358217403Y-182710166D01*
G75*
G02*
X359262334Y-183909903I-77403J-1122334D01*
G01*
X359222334Y-184489903D01*
G75*
G02*
X358022597Y-185534834I-1122334J77403D01*
G01*
G37*
G04 #@! TD.AperFunction*
X300712500Y-184912500D03*
G04 #@! TA.AperFunction,ComponentPad*
G36*
G01*
X298651183Y-187209845D02*
X298651183Y-187209845D01*
G75*
G02*
X298565155Y-185621183I751317J837345D01*
G01*
X299875157Y-184161183D01*
G75*
G02*
X301463819Y-184075155I837345J-751317D01*
G01*
X301463819Y-184075155D01*
G75*
G02*
X301549847Y-185663817I-751317J-837345D01*
G01*
X300239845Y-187123817D01*
G75*
G02*
X298651183Y-187209845I-837345J751317D01*
G01*
G37*
G04 #@! TD.AperFunction*
X305752500Y-183832500D03*
G04 #@! TA.AperFunction,ComponentPad*
G36*
G01*
X305635097Y-185534834D02*
X305635097Y-185534834D01*
G75*
G02*
X304590166Y-184335097I77403J1122334D01*
G01*
X304630166Y-183755097D01*
G75*
G02*
X305829903Y-182710166I1122334J-77403D01*
G01*
X305829903Y-182710166D01*
G75*
G02*
X306874834Y-183909903I-77403J-1122334D01*
G01*
X306834834Y-184489903D01*
G75*
G02*
X305635097Y-185534834I-1122334J77403D01*
G01*
G37*
G04 #@! TD.AperFunction*
X281662500Y-184912500D03*
G04 #@! TA.AperFunction,ComponentPad*
G36*
G01*
X279601183Y-187209845D02*
X279601183Y-187209845D01*
G75*
G02*
X279515155Y-185621183I751317J837345D01*
G01*
X280825157Y-184161183D01*
G75*
G02*
X282413819Y-184075155I837345J-751317D01*
G01*
X282413819Y-184075155D01*
G75*
G02*
X282499847Y-185663817I-751317J-837345D01*
G01*
X281189845Y-187123817D01*
G75*
G02*
X279601183Y-187209845I-837345J751317D01*
G01*
G37*
G04 #@! TD.AperFunction*
X286702500Y-183832500D03*
G04 #@! TA.AperFunction,ComponentPad*
G36*
G01*
X286585097Y-185534834D02*
X286585097Y-185534834D01*
G75*
G02*
X285540166Y-184335097I77403J1122334D01*
G01*
X285580166Y-183755097D01*
G75*
G02*
X286779903Y-182710166I1122334J-77403D01*
G01*
X286779903Y-182710166D01*
G75*
G02*
X287824834Y-183909903I-77403J-1122334D01*
G01*
X287784834Y-184489903D01*
G75*
G02*
X286585097Y-185534834I-1122334J77403D01*
G01*
G37*
G04 #@! TD.AperFunction*
X262612500Y-184912500D03*
G04 #@! TA.AperFunction,ComponentPad*
G36*
G01*
X260551183Y-187209845D02*
X260551183Y-187209845D01*
G75*
G02*
X260465155Y-185621183I751317J837345D01*
G01*
X261775157Y-184161183D01*
G75*
G02*
X263363819Y-184075155I837345J-751317D01*
G01*
X263363819Y-184075155D01*
G75*
G02*
X263449847Y-185663817I-751317J-837345D01*
G01*
X262139845Y-187123817D01*
G75*
G02*
X260551183Y-187209845I-837345J751317D01*
G01*
G37*
G04 #@! TD.AperFunction*
X267652500Y-183832500D03*
G04 #@! TA.AperFunction,ComponentPad*
G36*
G01*
X267535097Y-185534834D02*
X267535097Y-185534834D01*
G75*
G02*
X266490166Y-184335097I77403J1122334D01*
G01*
X266530166Y-183755097D01*
G75*
G02*
X267729903Y-182710166I1122334J-77403D01*
G01*
X267729903Y-182710166D01*
G75*
G02*
X268774834Y-183909903I-77403J-1122334D01*
G01*
X268734834Y-184489903D01*
G75*
G02*
X267535097Y-185534834I-1122334J77403D01*
G01*
G37*
G04 #@! TD.AperFunction*
X243562500Y-184912500D03*
G04 #@! TA.AperFunction,ComponentPad*
G36*
G01*
X241501183Y-187209845D02*
X241501183Y-187209845D01*
G75*
G02*
X241415155Y-185621183I751317J837345D01*
G01*
X242725157Y-184161183D01*
G75*
G02*
X244313819Y-184075155I837345J-751317D01*
G01*
X244313819Y-184075155D01*
G75*
G02*
X244399847Y-185663817I-751317J-837345D01*
G01*
X243089845Y-187123817D01*
G75*
G02*
X241501183Y-187209845I-837345J751317D01*
G01*
G37*
G04 #@! TD.AperFunction*
X248602500Y-183832500D03*
G04 #@! TA.AperFunction,ComponentPad*
G36*
G01*
X248485097Y-185534834D02*
X248485097Y-185534834D01*
G75*
G02*
X247440166Y-184335097I77403J1122334D01*
G01*
X247480166Y-183755097D01*
G75*
G02*
X248679903Y-182710166I1122334J-77403D01*
G01*
X248679903Y-182710166D01*
G75*
G02*
X249724834Y-183909903I-77403J-1122334D01*
G01*
X249684834Y-184489903D01*
G75*
G02*
X248485097Y-185534834I-1122334J77403D01*
G01*
G37*
G04 #@! TD.AperFunction*
X224512500Y-184912500D03*
G04 #@! TA.AperFunction,ComponentPad*
G36*
G01*
X222451183Y-187209845D02*
X222451183Y-187209845D01*
G75*
G02*
X222365155Y-185621183I751317J837345D01*
G01*
X223675157Y-184161183D01*
G75*
G02*
X225263819Y-184075155I837345J-751317D01*
G01*
X225263819Y-184075155D01*
G75*
G02*
X225349847Y-185663817I-751317J-837345D01*
G01*
X224039845Y-187123817D01*
G75*
G02*
X222451183Y-187209845I-837345J751317D01*
G01*
G37*
G04 #@! TD.AperFunction*
X229552500Y-183832500D03*
G04 #@! TA.AperFunction,ComponentPad*
G36*
G01*
X229435097Y-185534834D02*
X229435097Y-185534834D01*
G75*
G02*
X228390166Y-184335097I77403J1122334D01*
G01*
X228430166Y-183755097D01*
G75*
G02*
X229629903Y-182710166I1122334J-77403D01*
G01*
X229629903Y-182710166D01*
G75*
G02*
X230674834Y-183909903I-77403J-1122334D01*
G01*
X230634834Y-184489903D01*
G75*
G02*
X229435097Y-185534834I-1122334J77403D01*
G01*
G37*
G04 #@! TD.AperFunction*
X205462500Y-184912500D03*
G04 #@! TA.AperFunction,ComponentPad*
G36*
G01*
X203401183Y-187209845D02*
X203401183Y-187209845D01*
G75*
G02*
X203315155Y-185621183I751317J837345D01*
G01*
X204625157Y-184161183D01*
G75*
G02*
X206213819Y-184075155I837345J-751317D01*
G01*
X206213819Y-184075155D01*
G75*
G02*
X206299847Y-185663817I-751317J-837345D01*
G01*
X204989845Y-187123817D01*
G75*
G02*
X203401183Y-187209845I-837345J751317D01*
G01*
G37*
G04 #@! TD.AperFunction*
X210502500Y-183832500D03*
G04 #@! TA.AperFunction,ComponentPad*
G36*
G01*
X210385097Y-185534834D02*
X210385097Y-185534834D01*
G75*
G02*
X209340166Y-184335097I77403J1122334D01*
G01*
X209380166Y-183755097D01*
G75*
G02*
X210579903Y-182710166I1122334J-77403D01*
G01*
X210579903Y-182710166D01*
G75*
G02*
X211624834Y-183909903I-77403J-1122334D01*
G01*
X211584834Y-184489903D01*
G75*
G02*
X210385097Y-185534834I-1122334J77403D01*
G01*
G37*
G04 #@! TD.AperFunction*
X186412500Y-184912500D03*
G04 #@! TA.AperFunction,ComponentPad*
G36*
G01*
X184351183Y-187209845D02*
X184351183Y-187209845D01*
G75*
G02*
X184265155Y-185621183I751317J837345D01*
G01*
X185575157Y-184161183D01*
G75*
G02*
X187163819Y-184075155I837345J-751317D01*
G01*
X187163819Y-184075155D01*
G75*
G02*
X187249847Y-185663817I-751317J-837345D01*
G01*
X185939845Y-187123817D01*
G75*
G02*
X184351183Y-187209845I-837345J751317D01*
G01*
G37*
G04 #@! TD.AperFunction*
X191452500Y-183832500D03*
G04 #@! TA.AperFunction,ComponentPad*
G36*
G01*
X191335097Y-185534834D02*
X191335097Y-185534834D01*
G75*
G02*
X190290166Y-184335097I77403J1122334D01*
G01*
X190330166Y-183755097D01*
G75*
G02*
X191529903Y-182710166I1122334J-77403D01*
G01*
X191529903Y-182710166D01*
G75*
G02*
X192574834Y-183909903I-77403J-1122334D01*
G01*
X192534834Y-184489903D01*
G75*
G02*
X191335097Y-185534834I-1122334J77403D01*
G01*
G37*
G04 #@! TD.AperFunction*
X167362500Y-184912500D03*
G04 #@! TA.AperFunction,ComponentPad*
G36*
G01*
X165301183Y-187209845D02*
X165301183Y-187209845D01*
G75*
G02*
X165215155Y-185621183I751317J837345D01*
G01*
X166525157Y-184161183D01*
G75*
G02*
X168113819Y-184075155I837345J-751317D01*
G01*
X168113819Y-184075155D01*
G75*
G02*
X168199847Y-185663817I-751317J-837345D01*
G01*
X166889845Y-187123817D01*
G75*
G02*
X165301183Y-187209845I-837345J751317D01*
G01*
G37*
G04 #@! TD.AperFunction*
X172402500Y-183832500D03*
G04 #@! TA.AperFunction,ComponentPad*
G36*
G01*
X172285097Y-185534834D02*
X172285097Y-185534834D01*
G75*
G02*
X171240166Y-184335097I77403J1122334D01*
G01*
X171280166Y-183755097D01*
G75*
G02*
X172479903Y-182710166I1122334J-77403D01*
G01*
X172479903Y-182710166D01*
G75*
G02*
X173524834Y-183909903I-77403J-1122334D01*
G01*
X173484834Y-184489903D01*
G75*
G02*
X172285097Y-185534834I-1122334J77403D01*
G01*
G37*
G04 #@! TD.AperFunction*
X148312500Y-184912500D03*
G04 #@! TA.AperFunction,ComponentPad*
G36*
G01*
X146251183Y-187209845D02*
X146251183Y-187209845D01*
G75*
G02*
X146165155Y-185621183I751317J837345D01*
G01*
X147475157Y-184161183D01*
G75*
G02*
X149063819Y-184075155I837345J-751317D01*
G01*
X149063819Y-184075155D01*
G75*
G02*
X149149847Y-185663817I-751317J-837345D01*
G01*
X147839845Y-187123817D01*
G75*
G02*
X146251183Y-187209845I-837345J751317D01*
G01*
G37*
G04 #@! TD.AperFunction*
X153352500Y-183832500D03*
G04 #@! TA.AperFunction,ComponentPad*
G36*
G01*
X153235097Y-185534834D02*
X153235097Y-185534834D01*
G75*
G02*
X152190166Y-184335097I77403J1122334D01*
G01*
X152230166Y-183755097D01*
G75*
G02*
X153429903Y-182710166I1122334J-77403D01*
G01*
X153429903Y-182710166D01*
G75*
G02*
X154474834Y-183909903I-77403J-1122334D01*
G01*
X154434834Y-184489903D01*
G75*
G02*
X153235097Y-185534834I-1122334J77403D01*
G01*
G37*
G04 #@! TD.AperFunction*
X129262500Y-184912500D03*
G04 #@! TA.AperFunction,ComponentPad*
G36*
G01*
X127201183Y-187209845D02*
X127201183Y-187209845D01*
G75*
G02*
X127115155Y-185621183I751317J837345D01*
G01*
X128425157Y-184161183D01*
G75*
G02*
X130013819Y-184075155I837345J-751317D01*
G01*
X130013819Y-184075155D01*
G75*
G02*
X130099847Y-185663817I-751317J-837345D01*
G01*
X128789845Y-187123817D01*
G75*
G02*
X127201183Y-187209845I-837345J751317D01*
G01*
G37*
G04 #@! TD.AperFunction*
X134302500Y-183832500D03*
G04 #@! TA.AperFunction,ComponentPad*
G36*
G01*
X134185097Y-185534834D02*
X134185097Y-185534834D01*
G75*
G02*
X133140166Y-184335097I77403J1122334D01*
G01*
X133180166Y-183755097D01*
G75*
G02*
X134379903Y-182710166I1122334J-77403D01*
G01*
X134379903Y-182710166D01*
G75*
G02*
X135424834Y-183909903I-77403J-1122334D01*
G01*
X135384834Y-184489903D01*
G75*
G02*
X134185097Y-185534834I-1122334J77403D01*
G01*
G37*
G04 #@! TD.AperFunction*
X372150000Y-165862500D03*
G04 #@! TA.AperFunction,ComponentPad*
G36*
G01*
X370088683Y-168159845D02*
X370088683Y-168159845D01*
G75*
G02*
X370002655Y-166571183I751317J837345D01*
G01*
X371312657Y-165111183D01*
G75*
G02*
X372901319Y-165025155I837345J-751317D01*
G01*
X372901319Y-165025155D01*
G75*
G02*
X372987347Y-166613817I-751317J-837345D01*
G01*
X371677345Y-168073817D01*
G75*
G02*
X370088683Y-168159845I-837345J751317D01*
G01*
G37*
G04 #@! TD.AperFunction*
X377190000Y-164782500D03*
G04 #@! TA.AperFunction,ComponentPad*
G36*
G01*
X377072597Y-166484834D02*
X377072597Y-166484834D01*
G75*
G02*
X376027666Y-165285097I77403J1122334D01*
G01*
X376067666Y-164705097D01*
G75*
G02*
X377267403Y-163660166I1122334J-77403D01*
G01*
X377267403Y-163660166D01*
G75*
G02*
X378312334Y-164859903I-77403J-1122334D01*
G01*
X378272334Y-165439903D01*
G75*
G02*
X377072597Y-166484834I-1122334J77403D01*
G01*
G37*
G04 #@! TD.AperFunction*
X310237500Y-165862500D03*
G04 #@! TA.AperFunction,ComponentPad*
G36*
G01*
X308176183Y-168159845D02*
X308176183Y-168159845D01*
G75*
G02*
X308090155Y-166571183I751317J837345D01*
G01*
X309400157Y-165111183D01*
G75*
G02*
X310988819Y-165025155I837345J-751317D01*
G01*
X310988819Y-165025155D01*
G75*
G02*
X311074847Y-166613817I-751317J-837345D01*
G01*
X309764845Y-168073817D01*
G75*
G02*
X308176183Y-168159845I-837345J751317D01*
G01*
G37*
G04 #@! TD.AperFunction*
X315277500Y-164782500D03*
G04 #@! TA.AperFunction,ComponentPad*
G36*
G01*
X315160097Y-166484834D02*
X315160097Y-166484834D01*
G75*
G02*
X314115166Y-165285097I77403J1122334D01*
G01*
X314155166Y-164705097D01*
G75*
G02*
X315354903Y-163660166I1122334J-77403D01*
G01*
X315354903Y-163660166D01*
G75*
G02*
X316399834Y-164859903I-77403J-1122334D01*
G01*
X316359834Y-165439903D01*
G75*
G02*
X315160097Y-166484834I-1122334J77403D01*
G01*
G37*
G04 #@! TD.AperFunction*
X291187500Y-165862500D03*
G04 #@! TA.AperFunction,ComponentPad*
G36*
G01*
X289126183Y-168159845D02*
X289126183Y-168159845D01*
G75*
G02*
X289040155Y-166571183I751317J837345D01*
G01*
X290350157Y-165111183D01*
G75*
G02*
X291938819Y-165025155I837345J-751317D01*
G01*
X291938819Y-165025155D01*
G75*
G02*
X292024847Y-166613817I-751317J-837345D01*
G01*
X290714845Y-168073817D01*
G75*
G02*
X289126183Y-168159845I-837345J751317D01*
G01*
G37*
G04 #@! TD.AperFunction*
X296227500Y-164782500D03*
G04 #@! TA.AperFunction,ComponentPad*
G36*
G01*
X296110097Y-166484834D02*
X296110097Y-166484834D01*
G75*
G02*
X295065166Y-165285097I77403J1122334D01*
G01*
X295105166Y-164705097D01*
G75*
G02*
X296304903Y-163660166I1122334J-77403D01*
G01*
X296304903Y-163660166D01*
G75*
G02*
X297349834Y-164859903I-77403J-1122334D01*
G01*
X297309834Y-165439903D01*
G75*
G02*
X296110097Y-166484834I-1122334J77403D01*
G01*
G37*
G04 #@! TD.AperFunction*
X272137500Y-165862500D03*
G04 #@! TA.AperFunction,ComponentPad*
G36*
G01*
X270076183Y-168159845D02*
X270076183Y-168159845D01*
G75*
G02*
X269990155Y-166571183I751317J837345D01*
G01*
X271300157Y-165111183D01*
G75*
G02*
X272888819Y-165025155I837345J-751317D01*
G01*
X272888819Y-165025155D01*
G75*
G02*
X272974847Y-166613817I-751317J-837345D01*
G01*
X271664845Y-168073817D01*
G75*
G02*
X270076183Y-168159845I-837345J751317D01*
G01*
G37*
G04 #@! TD.AperFunction*
X277177500Y-164782500D03*
G04 #@! TA.AperFunction,ComponentPad*
G36*
G01*
X277060097Y-166484834D02*
X277060097Y-166484834D01*
G75*
G02*
X276015166Y-165285097I77403J1122334D01*
G01*
X276055166Y-164705097D01*
G75*
G02*
X277254903Y-163660166I1122334J-77403D01*
G01*
X277254903Y-163660166D01*
G75*
G02*
X278299834Y-164859903I-77403J-1122334D01*
G01*
X278259834Y-165439903D01*
G75*
G02*
X277060097Y-166484834I-1122334J77403D01*
G01*
G37*
G04 #@! TD.AperFunction*
X253087500Y-165862500D03*
G04 #@! TA.AperFunction,ComponentPad*
G36*
G01*
X251026183Y-168159845D02*
X251026183Y-168159845D01*
G75*
G02*
X250940155Y-166571183I751317J837345D01*
G01*
X252250157Y-165111183D01*
G75*
G02*
X253838819Y-165025155I837345J-751317D01*
G01*
X253838819Y-165025155D01*
G75*
G02*
X253924847Y-166613817I-751317J-837345D01*
G01*
X252614845Y-168073817D01*
G75*
G02*
X251026183Y-168159845I-837345J751317D01*
G01*
G37*
G04 #@! TD.AperFunction*
X258127500Y-164782500D03*
G04 #@! TA.AperFunction,ComponentPad*
G36*
G01*
X258010097Y-166484834D02*
X258010097Y-166484834D01*
G75*
G02*
X256965166Y-165285097I77403J1122334D01*
G01*
X257005166Y-164705097D01*
G75*
G02*
X258204903Y-163660166I1122334J-77403D01*
G01*
X258204903Y-163660166D01*
G75*
G02*
X259249834Y-164859903I-77403J-1122334D01*
G01*
X259209834Y-165439903D01*
G75*
G02*
X258010097Y-166484834I-1122334J77403D01*
G01*
G37*
G04 #@! TD.AperFunction*
X234037500Y-165862500D03*
G04 #@! TA.AperFunction,ComponentPad*
G36*
G01*
X231976183Y-168159845D02*
X231976183Y-168159845D01*
G75*
G02*
X231890155Y-166571183I751317J837345D01*
G01*
X233200157Y-165111183D01*
G75*
G02*
X234788819Y-165025155I837345J-751317D01*
G01*
X234788819Y-165025155D01*
G75*
G02*
X234874847Y-166613817I-751317J-837345D01*
G01*
X233564845Y-168073817D01*
G75*
G02*
X231976183Y-168159845I-837345J751317D01*
G01*
G37*
G04 #@! TD.AperFunction*
X239077500Y-164782500D03*
G04 #@! TA.AperFunction,ComponentPad*
G36*
G01*
X238960097Y-166484834D02*
X238960097Y-166484834D01*
G75*
G02*
X237915166Y-165285097I77403J1122334D01*
G01*
X237955166Y-164705097D01*
G75*
G02*
X239154903Y-163660166I1122334J-77403D01*
G01*
X239154903Y-163660166D01*
G75*
G02*
X240199834Y-164859903I-77403J-1122334D01*
G01*
X240159834Y-165439903D01*
G75*
G02*
X238960097Y-166484834I-1122334J77403D01*
G01*
G37*
G04 #@! TD.AperFunction*
X214987500Y-165862500D03*
G04 #@! TA.AperFunction,ComponentPad*
G36*
G01*
X212926183Y-168159845D02*
X212926183Y-168159845D01*
G75*
G02*
X212840155Y-166571183I751317J837345D01*
G01*
X214150157Y-165111183D01*
G75*
G02*
X215738819Y-165025155I837345J-751317D01*
G01*
X215738819Y-165025155D01*
G75*
G02*
X215824847Y-166613817I-751317J-837345D01*
G01*
X214514845Y-168073817D01*
G75*
G02*
X212926183Y-168159845I-837345J751317D01*
G01*
G37*
G04 #@! TD.AperFunction*
X220027500Y-164782500D03*
G04 #@! TA.AperFunction,ComponentPad*
G36*
G01*
X219910097Y-166484834D02*
X219910097Y-166484834D01*
G75*
G02*
X218865166Y-165285097I77403J1122334D01*
G01*
X218905166Y-164705097D01*
G75*
G02*
X220104903Y-163660166I1122334J-77403D01*
G01*
X220104903Y-163660166D01*
G75*
G02*
X221149834Y-164859903I-77403J-1122334D01*
G01*
X221109834Y-165439903D01*
G75*
G02*
X219910097Y-166484834I-1122334J77403D01*
G01*
G37*
G04 #@! TD.AperFunction*
X195937500Y-165862500D03*
G04 #@! TA.AperFunction,ComponentPad*
G36*
G01*
X193876183Y-168159845D02*
X193876183Y-168159845D01*
G75*
G02*
X193790155Y-166571183I751317J837345D01*
G01*
X195100157Y-165111183D01*
G75*
G02*
X196688819Y-165025155I837345J-751317D01*
G01*
X196688819Y-165025155D01*
G75*
G02*
X196774847Y-166613817I-751317J-837345D01*
G01*
X195464845Y-168073817D01*
G75*
G02*
X193876183Y-168159845I-837345J751317D01*
G01*
G37*
G04 #@! TD.AperFunction*
X200977500Y-164782500D03*
G04 #@! TA.AperFunction,ComponentPad*
G36*
G01*
X200860097Y-166484834D02*
X200860097Y-166484834D01*
G75*
G02*
X199815166Y-165285097I77403J1122334D01*
G01*
X199855166Y-164705097D01*
G75*
G02*
X201054903Y-163660166I1122334J-77403D01*
G01*
X201054903Y-163660166D01*
G75*
G02*
X202099834Y-164859903I-77403J-1122334D01*
G01*
X202059834Y-165439903D01*
G75*
G02*
X200860097Y-166484834I-1122334J77403D01*
G01*
G37*
G04 #@! TD.AperFunction*
X176887500Y-165862500D03*
G04 #@! TA.AperFunction,ComponentPad*
G36*
G01*
X174826183Y-168159845D02*
X174826183Y-168159845D01*
G75*
G02*
X174740155Y-166571183I751317J837345D01*
G01*
X176050157Y-165111183D01*
G75*
G02*
X177638819Y-165025155I837345J-751317D01*
G01*
X177638819Y-165025155D01*
G75*
G02*
X177724847Y-166613817I-751317J-837345D01*
G01*
X176414845Y-168073817D01*
G75*
G02*
X174826183Y-168159845I-837345J751317D01*
G01*
G37*
G04 #@! TD.AperFunction*
X181927500Y-164782500D03*
G04 #@! TA.AperFunction,ComponentPad*
G36*
G01*
X181810097Y-166484834D02*
X181810097Y-166484834D01*
G75*
G02*
X180765166Y-165285097I77403J1122334D01*
G01*
X180805166Y-164705097D01*
G75*
G02*
X182004903Y-163660166I1122334J-77403D01*
G01*
X182004903Y-163660166D01*
G75*
G02*
X183049834Y-164859903I-77403J-1122334D01*
G01*
X183009834Y-165439903D01*
G75*
G02*
X181810097Y-166484834I-1122334J77403D01*
G01*
G37*
G04 #@! TD.AperFunction*
X157837500Y-165862500D03*
G04 #@! TA.AperFunction,ComponentPad*
G36*
G01*
X155776183Y-168159845D02*
X155776183Y-168159845D01*
G75*
G02*
X155690155Y-166571183I751317J837345D01*
G01*
X157000157Y-165111183D01*
G75*
G02*
X158588819Y-165025155I837345J-751317D01*
G01*
X158588819Y-165025155D01*
G75*
G02*
X158674847Y-166613817I-751317J-837345D01*
G01*
X157364845Y-168073817D01*
G75*
G02*
X155776183Y-168159845I-837345J751317D01*
G01*
G37*
G04 #@! TD.AperFunction*
X162877500Y-164782500D03*
G04 #@! TA.AperFunction,ComponentPad*
G36*
G01*
X162760097Y-166484834D02*
X162760097Y-166484834D01*
G75*
G02*
X161715166Y-165285097I77403J1122334D01*
G01*
X161755166Y-164705097D01*
G75*
G02*
X162954903Y-163660166I1122334J-77403D01*
G01*
X162954903Y-163660166D01*
G75*
G02*
X163999834Y-164859903I-77403J-1122334D01*
G01*
X163959834Y-165439903D01*
G75*
G02*
X162760097Y-166484834I-1122334J77403D01*
G01*
G37*
G04 #@! TD.AperFunction*
X138787500Y-165862500D03*
G04 #@! TA.AperFunction,ComponentPad*
G36*
G01*
X136726183Y-168159845D02*
X136726183Y-168159845D01*
G75*
G02*
X136640155Y-166571183I751317J837345D01*
G01*
X137950157Y-165111183D01*
G75*
G02*
X139538819Y-165025155I837345J-751317D01*
G01*
X139538819Y-165025155D01*
G75*
G02*
X139624847Y-166613817I-751317J-837345D01*
G01*
X138314845Y-168073817D01*
G75*
G02*
X136726183Y-168159845I-837345J751317D01*
G01*
G37*
G04 #@! TD.AperFunction*
X143827500Y-164782500D03*
G04 #@! TA.AperFunction,ComponentPad*
G36*
G01*
X143710097Y-166484834D02*
X143710097Y-166484834D01*
G75*
G02*
X142665166Y-165285097I77403J1122334D01*
G01*
X142705166Y-164705097D01*
G75*
G02*
X143904903Y-163660166I1122334J-77403D01*
G01*
X143904903Y-163660166D01*
G75*
G02*
X144949834Y-164859903I-77403J-1122334D01*
G01*
X144909834Y-165439903D01*
G75*
G02*
X143710097Y-166484834I-1122334J77403D01*
G01*
G37*
G04 #@! TD.AperFunction*
X119737500Y-165862500D03*
G04 #@! TA.AperFunction,ComponentPad*
G36*
G01*
X117676183Y-168159845D02*
X117676183Y-168159845D01*
G75*
G02*
X117590155Y-166571183I751317J837345D01*
G01*
X118900157Y-165111183D01*
G75*
G02*
X120488819Y-165025155I837345J-751317D01*
G01*
X120488819Y-165025155D01*
G75*
G02*
X120574847Y-166613817I-751317J-837345D01*
G01*
X119264845Y-168073817D01*
G75*
G02*
X117676183Y-168159845I-837345J751317D01*
G01*
G37*
G04 #@! TD.AperFunction*
X124777500Y-164782500D03*
G04 #@! TA.AperFunction,ComponentPad*
G36*
G01*
X124660097Y-166484834D02*
X124660097Y-166484834D01*
G75*
G02*
X123615166Y-165285097I77403J1122334D01*
G01*
X123655166Y-164705097D01*
G75*
G02*
X124854903Y-163660166I1122334J-77403D01*
G01*
X124854903Y-163660166D01*
G75*
G02*
X125899834Y-164859903I-77403J-1122334D01*
G01*
X125859834Y-165439903D01*
G75*
G02*
X124660097Y-166484834I-1122334J77403D01*
G01*
G37*
G04 #@! TD.AperFunction*
X372150000Y-146843750D03*
G04 #@! TA.AperFunction,ComponentPad*
G36*
G01*
X370088683Y-149141095D02*
X370088683Y-149141095D01*
G75*
G02*
X370002655Y-147552433I751317J837345D01*
G01*
X371312657Y-146092433D01*
G75*
G02*
X372901319Y-146006405I837345J-751317D01*
G01*
X372901319Y-146006405D01*
G75*
G02*
X372987347Y-147595067I-751317J-837345D01*
G01*
X371677345Y-149055067D01*
G75*
G02*
X370088683Y-149141095I-837345J751317D01*
G01*
G37*
G04 #@! TD.AperFunction*
X377190000Y-145763750D03*
G04 #@! TA.AperFunction,ComponentPad*
G36*
G01*
X377072597Y-147466084D02*
X377072597Y-147466084D01*
G75*
G02*
X376027666Y-146266347I77403J1122334D01*
G01*
X376067666Y-145686347D01*
G75*
G02*
X377267403Y-144641416I1122334J-77403D01*
G01*
X377267403Y-144641416D01*
G75*
G02*
X378312334Y-145841153I-77403J-1122334D01*
G01*
X378272334Y-146421153D01*
G75*
G02*
X377072597Y-147466084I-1122334J77403D01*
G01*
G37*
G04 #@! TD.AperFunction*
X324525000Y-146812500D03*
G04 #@! TA.AperFunction,ComponentPad*
G36*
G01*
X322463683Y-149109845D02*
X322463683Y-149109845D01*
G75*
G02*
X322377655Y-147521183I751317J837345D01*
G01*
X323687657Y-146061183D01*
G75*
G02*
X325276319Y-145975155I837345J-751317D01*
G01*
X325276319Y-145975155D01*
G75*
G02*
X325362347Y-147563817I-751317J-837345D01*
G01*
X324052345Y-149023817D01*
G75*
G02*
X322463683Y-149109845I-837345J751317D01*
G01*
G37*
G04 #@! TD.AperFunction*
X329565000Y-145732500D03*
G04 #@! TA.AperFunction,ComponentPad*
G36*
G01*
X329447597Y-147434834D02*
X329447597Y-147434834D01*
G75*
G02*
X328402666Y-146235097I77403J1122334D01*
G01*
X328442666Y-145655097D01*
G75*
G02*
X329642403Y-144610166I1122334J-77403D01*
G01*
X329642403Y-144610166D01*
G75*
G02*
X330687334Y-145809903I-77403J-1122334D01*
G01*
X330647334Y-146389903D01*
G75*
G02*
X329447597Y-147434834I-1122334J77403D01*
G01*
G37*
G04 #@! TD.AperFunction*
X305475000Y-146812500D03*
G04 #@! TA.AperFunction,ComponentPad*
G36*
G01*
X303413683Y-149109845D02*
X303413683Y-149109845D01*
G75*
G02*
X303327655Y-147521183I751317J837345D01*
G01*
X304637657Y-146061183D01*
G75*
G02*
X306226319Y-145975155I837345J-751317D01*
G01*
X306226319Y-145975155D01*
G75*
G02*
X306312347Y-147563817I-751317J-837345D01*
G01*
X305002345Y-149023817D01*
G75*
G02*
X303413683Y-149109845I-837345J751317D01*
G01*
G37*
G04 #@! TD.AperFunction*
X310515000Y-145732500D03*
G04 #@! TA.AperFunction,ComponentPad*
G36*
G01*
X310397597Y-147434834D02*
X310397597Y-147434834D01*
G75*
G02*
X309352666Y-146235097I77403J1122334D01*
G01*
X309392666Y-145655097D01*
G75*
G02*
X310592403Y-144610166I1122334J-77403D01*
G01*
X310592403Y-144610166D01*
G75*
G02*
X311637334Y-145809903I-77403J-1122334D01*
G01*
X311597334Y-146389903D01*
G75*
G02*
X310397597Y-147434834I-1122334J77403D01*
G01*
G37*
G04 #@! TD.AperFunction*
X286425000Y-146812500D03*
G04 #@! TA.AperFunction,ComponentPad*
G36*
G01*
X284363683Y-149109845D02*
X284363683Y-149109845D01*
G75*
G02*
X284277655Y-147521183I751317J837345D01*
G01*
X285587657Y-146061183D01*
G75*
G02*
X287176319Y-145975155I837345J-751317D01*
G01*
X287176319Y-145975155D01*
G75*
G02*
X287262347Y-147563817I-751317J-837345D01*
G01*
X285952345Y-149023817D01*
G75*
G02*
X284363683Y-149109845I-837345J751317D01*
G01*
G37*
G04 #@! TD.AperFunction*
X291465000Y-145732500D03*
G04 #@! TA.AperFunction,ComponentPad*
G36*
G01*
X291347597Y-147434834D02*
X291347597Y-147434834D01*
G75*
G02*
X290302666Y-146235097I77403J1122334D01*
G01*
X290342666Y-145655097D01*
G75*
G02*
X291542403Y-144610166I1122334J-77403D01*
G01*
X291542403Y-144610166D01*
G75*
G02*
X292587334Y-145809903I-77403J-1122334D01*
G01*
X292547334Y-146389903D01*
G75*
G02*
X291347597Y-147434834I-1122334J77403D01*
G01*
G37*
G04 #@! TD.AperFunction*
X267375000Y-146812500D03*
G04 #@! TA.AperFunction,ComponentPad*
G36*
G01*
X265313683Y-149109845D02*
X265313683Y-149109845D01*
G75*
G02*
X265227655Y-147521183I751317J837345D01*
G01*
X266537657Y-146061183D01*
G75*
G02*
X268126319Y-145975155I837345J-751317D01*
G01*
X268126319Y-145975155D01*
G75*
G02*
X268212347Y-147563817I-751317J-837345D01*
G01*
X266902345Y-149023817D01*
G75*
G02*
X265313683Y-149109845I-837345J751317D01*
G01*
G37*
G04 #@! TD.AperFunction*
X272415000Y-145732500D03*
G04 #@! TA.AperFunction,ComponentPad*
G36*
G01*
X272297597Y-147434834D02*
X272297597Y-147434834D01*
G75*
G02*
X271252666Y-146235097I77403J1122334D01*
G01*
X271292666Y-145655097D01*
G75*
G02*
X272492403Y-144610166I1122334J-77403D01*
G01*
X272492403Y-144610166D01*
G75*
G02*
X273537334Y-145809903I-77403J-1122334D01*
G01*
X273497334Y-146389903D01*
G75*
G02*
X272297597Y-147434834I-1122334J77403D01*
G01*
G37*
G04 #@! TD.AperFunction*
X248325000Y-146812500D03*
G04 #@! TA.AperFunction,ComponentPad*
G36*
G01*
X246263683Y-149109845D02*
X246263683Y-149109845D01*
G75*
G02*
X246177655Y-147521183I751317J837345D01*
G01*
X247487657Y-146061183D01*
G75*
G02*
X249076319Y-145975155I837345J-751317D01*
G01*
X249076319Y-145975155D01*
G75*
G02*
X249162347Y-147563817I-751317J-837345D01*
G01*
X247852345Y-149023817D01*
G75*
G02*
X246263683Y-149109845I-837345J751317D01*
G01*
G37*
G04 #@! TD.AperFunction*
X253365000Y-145732500D03*
G04 #@! TA.AperFunction,ComponentPad*
G36*
G01*
X253247597Y-147434834D02*
X253247597Y-147434834D01*
G75*
G02*
X252202666Y-146235097I77403J1122334D01*
G01*
X252242666Y-145655097D01*
G75*
G02*
X253442403Y-144610166I1122334J-77403D01*
G01*
X253442403Y-144610166D01*
G75*
G02*
X254487334Y-145809903I-77403J-1122334D01*
G01*
X254447334Y-146389903D01*
G75*
G02*
X253247597Y-147434834I-1122334J77403D01*
G01*
G37*
G04 #@! TD.AperFunction*
X229275000Y-146812500D03*
G04 #@! TA.AperFunction,ComponentPad*
G36*
G01*
X227213683Y-149109845D02*
X227213683Y-149109845D01*
G75*
G02*
X227127655Y-147521183I751317J837345D01*
G01*
X228437657Y-146061183D01*
G75*
G02*
X230026319Y-145975155I837345J-751317D01*
G01*
X230026319Y-145975155D01*
G75*
G02*
X230112347Y-147563817I-751317J-837345D01*
G01*
X228802345Y-149023817D01*
G75*
G02*
X227213683Y-149109845I-837345J751317D01*
G01*
G37*
G04 #@! TD.AperFunction*
X234315000Y-145732500D03*
G04 #@! TA.AperFunction,ComponentPad*
G36*
G01*
X234197597Y-147434834D02*
X234197597Y-147434834D01*
G75*
G02*
X233152666Y-146235097I77403J1122334D01*
G01*
X233192666Y-145655097D01*
G75*
G02*
X234392403Y-144610166I1122334J-77403D01*
G01*
X234392403Y-144610166D01*
G75*
G02*
X235437334Y-145809903I-77403J-1122334D01*
G01*
X235397334Y-146389903D01*
G75*
G02*
X234197597Y-147434834I-1122334J77403D01*
G01*
G37*
G04 #@! TD.AperFunction*
X210225000Y-146812500D03*
G04 #@! TA.AperFunction,ComponentPad*
G36*
G01*
X208163683Y-149109845D02*
X208163683Y-149109845D01*
G75*
G02*
X208077655Y-147521183I751317J837345D01*
G01*
X209387657Y-146061183D01*
G75*
G02*
X210976319Y-145975155I837345J-751317D01*
G01*
X210976319Y-145975155D01*
G75*
G02*
X211062347Y-147563817I-751317J-837345D01*
G01*
X209752345Y-149023817D01*
G75*
G02*
X208163683Y-149109845I-837345J751317D01*
G01*
G37*
G04 #@! TD.AperFunction*
X215265000Y-145732500D03*
G04 #@! TA.AperFunction,ComponentPad*
G36*
G01*
X215147597Y-147434834D02*
X215147597Y-147434834D01*
G75*
G02*
X214102666Y-146235097I77403J1122334D01*
G01*
X214142666Y-145655097D01*
G75*
G02*
X215342403Y-144610166I1122334J-77403D01*
G01*
X215342403Y-144610166D01*
G75*
G02*
X216387334Y-145809903I-77403J-1122334D01*
G01*
X216347334Y-146389903D01*
G75*
G02*
X215147597Y-147434834I-1122334J77403D01*
G01*
G37*
G04 #@! TD.AperFunction*
X191175000Y-146812500D03*
G04 #@! TA.AperFunction,ComponentPad*
G36*
G01*
X189113683Y-149109845D02*
X189113683Y-149109845D01*
G75*
G02*
X189027655Y-147521183I751317J837345D01*
G01*
X190337657Y-146061183D01*
G75*
G02*
X191926319Y-145975155I837345J-751317D01*
G01*
X191926319Y-145975155D01*
G75*
G02*
X192012347Y-147563817I-751317J-837345D01*
G01*
X190702345Y-149023817D01*
G75*
G02*
X189113683Y-149109845I-837345J751317D01*
G01*
G37*
G04 #@! TD.AperFunction*
X196215000Y-145732500D03*
G04 #@! TA.AperFunction,ComponentPad*
G36*
G01*
X196097597Y-147434834D02*
X196097597Y-147434834D01*
G75*
G02*
X195052666Y-146235097I77403J1122334D01*
G01*
X195092666Y-145655097D01*
G75*
G02*
X196292403Y-144610166I1122334J-77403D01*
G01*
X196292403Y-144610166D01*
G75*
G02*
X197337334Y-145809903I-77403J-1122334D01*
G01*
X197297334Y-146389903D01*
G75*
G02*
X196097597Y-147434834I-1122334J77403D01*
G01*
G37*
G04 #@! TD.AperFunction*
X172125000Y-146812500D03*
G04 #@! TA.AperFunction,ComponentPad*
G36*
G01*
X170063683Y-149109845D02*
X170063683Y-149109845D01*
G75*
G02*
X169977655Y-147521183I751317J837345D01*
G01*
X171287657Y-146061183D01*
G75*
G02*
X172876319Y-145975155I837345J-751317D01*
G01*
X172876319Y-145975155D01*
G75*
G02*
X172962347Y-147563817I-751317J-837345D01*
G01*
X171652345Y-149023817D01*
G75*
G02*
X170063683Y-149109845I-837345J751317D01*
G01*
G37*
G04 #@! TD.AperFunction*
X177165000Y-145732500D03*
G04 #@! TA.AperFunction,ComponentPad*
G36*
G01*
X177047597Y-147434834D02*
X177047597Y-147434834D01*
G75*
G02*
X176002666Y-146235097I77403J1122334D01*
G01*
X176042666Y-145655097D01*
G75*
G02*
X177242403Y-144610166I1122334J-77403D01*
G01*
X177242403Y-144610166D01*
G75*
G02*
X178287334Y-145809903I-77403J-1122334D01*
G01*
X178247334Y-146389903D01*
G75*
G02*
X177047597Y-147434834I-1122334J77403D01*
G01*
G37*
G04 #@! TD.AperFunction*
X153075000Y-146812500D03*
G04 #@! TA.AperFunction,ComponentPad*
G36*
G01*
X151013683Y-149109845D02*
X151013683Y-149109845D01*
G75*
G02*
X150927655Y-147521183I751317J837345D01*
G01*
X152237657Y-146061183D01*
G75*
G02*
X153826319Y-145975155I837345J-751317D01*
G01*
X153826319Y-145975155D01*
G75*
G02*
X153912347Y-147563817I-751317J-837345D01*
G01*
X152602345Y-149023817D01*
G75*
G02*
X151013683Y-149109845I-837345J751317D01*
G01*
G37*
G04 #@! TD.AperFunction*
X158115000Y-145732500D03*
G04 #@! TA.AperFunction,ComponentPad*
G36*
G01*
X157997597Y-147434834D02*
X157997597Y-147434834D01*
G75*
G02*
X156952666Y-146235097I77403J1122334D01*
G01*
X156992666Y-145655097D01*
G75*
G02*
X158192403Y-144610166I1122334J-77403D01*
G01*
X158192403Y-144610166D01*
G75*
G02*
X159237334Y-145809903I-77403J-1122334D01*
G01*
X159197334Y-146389903D01*
G75*
G02*
X157997597Y-147434834I-1122334J77403D01*
G01*
G37*
G04 #@! TD.AperFunction*
X134025000Y-146812500D03*
G04 #@! TA.AperFunction,ComponentPad*
G36*
G01*
X131963683Y-149109845D02*
X131963683Y-149109845D01*
G75*
G02*
X131877655Y-147521183I751317J837345D01*
G01*
X133187657Y-146061183D01*
G75*
G02*
X134776319Y-145975155I837345J-751317D01*
G01*
X134776319Y-145975155D01*
G75*
G02*
X134862347Y-147563817I-751317J-837345D01*
G01*
X133552345Y-149023817D01*
G75*
G02*
X131963683Y-149109845I-837345J751317D01*
G01*
G37*
G04 #@! TD.AperFunction*
X139065000Y-145732500D03*
G04 #@! TA.AperFunction,ComponentPad*
G36*
G01*
X138947597Y-147434834D02*
X138947597Y-147434834D01*
G75*
G02*
X137902666Y-146235097I77403J1122334D01*
G01*
X137942666Y-145655097D01*
G75*
G02*
X139142403Y-144610166I1122334J-77403D01*
G01*
X139142403Y-144610166D01*
G75*
G02*
X140187334Y-145809903I-77403J-1122334D01*
G01*
X140147334Y-146389903D01*
G75*
G02*
X138947597Y-147434834I-1122334J77403D01*
G01*
G37*
G04 #@! TD.AperFunction*
X114975000Y-146812500D03*
G04 #@! TA.AperFunction,ComponentPad*
G36*
G01*
X112913683Y-149109845D02*
X112913683Y-149109845D01*
G75*
G02*
X112827655Y-147521183I751317J837345D01*
G01*
X114137657Y-146061183D01*
G75*
G02*
X115726319Y-145975155I837345J-751317D01*
G01*
X115726319Y-145975155D01*
G75*
G02*
X115812347Y-147563817I-751317J-837345D01*
G01*
X114502345Y-149023817D01*
G75*
G02*
X112913683Y-149109845I-837345J751317D01*
G01*
G37*
G04 #@! TD.AperFunction*
X120015000Y-145732500D03*
G04 #@! TA.AperFunction,ComponentPad*
G36*
G01*
X119897597Y-147434834D02*
X119897597Y-147434834D01*
G75*
G02*
X118852666Y-146235097I77403J1122334D01*
G01*
X118892666Y-145655097D01*
G75*
G02*
X120092403Y-144610166I1122334J-77403D01*
G01*
X120092403Y-144610166D01*
G75*
G02*
X121137334Y-145809903I-77403J-1122334D01*
G01*
X121097334Y-146389903D01*
G75*
G02*
X119897597Y-147434834I-1122334J77403D01*
G01*
G37*
G04 #@! TD.AperFunction*
X372150000Y-108712500D03*
G04 #@! TA.AperFunction,ComponentPad*
G36*
G01*
X370088683Y-111009845D02*
X370088683Y-111009845D01*
G75*
G02*
X370002655Y-109421183I751317J837345D01*
G01*
X371312657Y-107961183D01*
G75*
G02*
X372901319Y-107875155I837345J-751317D01*
G01*
X372901319Y-107875155D01*
G75*
G02*
X372987347Y-109463817I-751317J-837345D01*
G01*
X371677345Y-110923817D01*
G75*
G02*
X370088683Y-111009845I-837345J751317D01*
G01*
G37*
G04 #@! TD.AperFunction*
X377190000Y-107632500D03*
G04 #@! TA.AperFunction,ComponentPad*
G36*
G01*
X377072597Y-109334834D02*
X377072597Y-109334834D01*
G75*
G02*
X376027666Y-108135097I77403J1122334D01*
G01*
X376067666Y-107555097D01*
G75*
G02*
X377267403Y-106510166I1122334J-77403D01*
G01*
X377267403Y-106510166D01*
G75*
G02*
X378312334Y-107709903I-77403J-1122334D01*
G01*
X378272334Y-108289903D01*
G75*
G02*
X377072597Y-109334834I-1122334J77403D01*
G01*
G37*
G04 #@! TD.AperFunction*
X353100000Y-108712500D03*
G04 #@! TA.AperFunction,ComponentPad*
G36*
G01*
X351038683Y-111009845D02*
X351038683Y-111009845D01*
G75*
G02*
X350952655Y-109421183I751317J837345D01*
G01*
X352262657Y-107961183D01*
G75*
G02*
X353851319Y-107875155I837345J-751317D01*
G01*
X353851319Y-107875155D01*
G75*
G02*
X353937347Y-109463817I-751317J-837345D01*
G01*
X352627345Y-110923817D01*
G75*
G02*
X351038683Y-111009845I-837345J751317D01*
G01*
G37*
G04 #@! TD.AperFunction*
X358140000Y-107632500D03*
G04 #@! TA.AperFunction,ComponentPad*
G36*
G01*
X358022597Y-109334834D02*
X358022597Y-109334834D01*
G75*
G02*
X356977666Y-108135097I77403J1122334D01*
G01*
X357017666Y-107555097D01*
G75*
G02*
X358217403Y-106510166I1122334J-77403D01*
G01*
X358217403Y-106510166D01*
G75*
G02*
X359262334Y-107709903I-77403J-1122334D01*
G01*
X359222334Y-108289903D01*
G75*
G02*
X358022597Y-109334834I-1122334J77403D01*
G01*
G37*
G04 #@! TD.AperFunction*
X334050000Y-108712500D03*
G04 #@! TA.AperFunction,ComponentPad*
G36*
G01*
X331988683Y-111009845D02*
X331988683Y-111009845D01*
G75*
G02*
X331902655Y-109421183I751317J837345D01*
G01*
X333212657Y-107961183D01*
G75*
G02*
X334801319Y-107875155I837345J-751317D01*
G01*
X334801319Y-107875155D01*
G75*
G02*
X334887347Y-109463817I-751317J-837345D01*
G01*
X333577345Y-110923817D01*
G75*
G02*
X331988683Y-111009845I-837345J751317D01*
G01*
G37*
G04 #@! TD.AperFunction*
X339090000Y-107632500D03*
G04 #@! TA.AperFunction,ComponentPad*
G36*
G01*
X338972597Y-109334834D02*
X338972597Y-109334834D01*
G75*
G02*
X337927666Y-108135097I77403J1122334D01*
G01*
X337967666Y-107555097D01*
G75*
G02*
X339167403Y-106510166I1122334J-77403D01*
G01*
X339167403Y-106510166D01*
G75*
G02*
X340212334Y-107709903I-77403J-1122334D01*
G01*
X340172334Y-108289903D01*
G75*
G02*
X338972597Y-109334834I-1122334J77403D01*
G01*
G37*
G04 #@! TD.AperFunction*
X315000000Y-108712500D03*
G04 #@! TA.AperFunction,ComponentPad*
G36*
G01*
X312938683Y-111009845D02*
X312938683Y-111009845D01*
G75*
G02*
X312852655Y-109421183I751317J837345D01*
G01*
X314162657Y-107961183D01*
G75*
G02*
X315751319Y-107875155I837345J-751317D01*
G01*
X315751319Y-107875155D01*
G75*
G02*
X315837347Y-109463817I-751317J-837345D01*
G01*
X314527345Y-110923817D01*
G75*
G02*
X312938683Y-111009845I-837345J751317D01*
G01*
G37*
G04 #@! TD.AperFunction*
X320040000Y-107632500D03*
G04 #@! TA.AperFunction,ComponentPad*
G36*
G01*
X319922597Y-109334834D02*
X319922597Y-109334834D01*
G75*
G02*
X318877666Y-108135097I77403J1122334D01*
G01*
X318917666Y-107555097D01*
G75*
G02*
X320117403Y-106510166I1122334J-77403D01*
G01*
X320117403Y-106510166D01*
G75*
G02*
X321162334Y-107709903I-77403J-1122334D01*
G01*
X321122334Y-108289903D01*
G75*
G02*
X319922597Y-109334834I-1122334J77403D01*
G01*
G37*
G04 #@! TD.AperFunction*
X295950000Y-108712500D03*
G04 #@! TA.AperFunction,ComponentPad*
G36*
G01*
X293888683Y-111009845D02*
X293888683Y-111009845D01*
G75*
G02*
X293802655Y-109421183I751317J837345D01*
G01*
X295112657Y-107961183D01*
G75*
G02*
X296701319Y-107875155I837345J-751317D01*
G01*
X296701319Y-107875155D01*
G75*
G02*
X296787347Y-109463817I-751317J-837345D01*
G01*
X295477345Y-110923817D01*
G75*
G02*
X293888683Y-111009845I-837345J751317D01*
G01*
G37*
G04 #@! TD.AperFunction*
X300990000Y-107632500D03*
G04 #@! TA.AperFunction,ComponentPad*
G36*
G01*
X300872597Y-109334834D02*
X300872597Y-109334834D01*
G75*
G02*
X299827666Y-108135097I77403J1122334D01*
G01*
X299867666Y-107555097D01*
G75*
G02*
X301067403Y-106510166I1122334J-77403D01*
G01*
X301067403Y-106510166D01*
G75*
G02*
X302112334Y-107709903I-77403J-1122334D01*
G01*
X302072334Y-108289903D01*
G75*
G02*
X300872597Y-109334834I-1122334J77403D01*
G01*
G37*
G04 #@! TD.AperFunction*
X276900000Y-108712500D03*
G04 #@! TA.AperFunction,ComponentPad*
G36*
G01*
X274838683Y-111009845D02*
X274838683Y-111009845D01*
G75*
G02*
X274752655Y-109421183I751317J837345D01*
G01*
X276062657Y-107961183D01*
G75*
G02*
X277651319Y-107875155I837345J-751317D01*
G01*
X277651319Y-107875155D01*
G75*
G02*
X277737347Y-109463817I-751317J-837345D01*
G01*
X276427345Y-110923817D01*
G75*
G02*
X274838683Y-111009845I-837345J751317D01*
G01*
G37*
G04 #@! TD.AperFunction*
X281940000Y-107632500D03*
G04 #@! TA.AperFunction,ComponentPad*
G36*
G01*
X281822597Y-109334834D02*
X281822597Y-109334834D01*
G75*
G02*
X280777666Y-108135097I77403J1122334D01*
G01*
X280817666Y-107555097D01*
G75*
G02*
X282017403Y-106510166I1122334J-77403D01*
G01*
X282017403Y-106510166D01*
G75*
G02*
X283062334Y-107709903I-77403J-1122334D01*
G01*
X283022334Y-108289903D01*
G75*
G02*
X281822597Y-109334834I-1122334J77403D01*
G01*
G37*
G04 #@! TD.AperFunction*
X372150000Y-127762500D03*
G04 #@! TA.AperFunction,ComponentPad*
G36*
G01*
X370088683Y-130059845D02*
X370088683Y-130059845D01*
G75*
G02*
X370002655Y-128471183I751317J837345D01*
G01*
X371312657Y-127011183D01*
G75*
G02*
X372901319Y-126925155I837345J-751317D01*
G01*
X372901319Y-126925155D01*
G75*
G02*
X372987347Y-128513817I-751317J-837345D01*
G01*
X371677345Y-129973817D01*
G75*
G02*
X370088683Y-130059845I-837345J751317D01*
G01*
G37*
G04 #@! TD.AperFunction*
X377190000Y-126682500D03*
G04 #@! TA.AperFunction,ComponentPad*
G36*
G01*
X377072597Y-128384834D02*
X377072597Y-128384834D01*
G75*
G02*
X376027666Y-127185097I77403J1122334D01*
G01*
X376067666Y-126605097D01*
G75*
G02*
X377267403Y-125560166I1122334J-77403D01*
G01*
X377267403Y-125560166D01*
G75*
G02*
X378312334Y-126759903I-77403J-1122334D01*
G01*
X378272334Y-127339903D01*
G75*
G02*
X377072597Y-128384834I-1122334J77403D01*
G01*
G37*
G04 #@! TD.AperFunction*
X315000000Y-127762500D03*
G04 #@! TA.AperFunction,ComponentPad*
G36*
G01*
X312938683Y-130059845D02*
X312938683Y-130059845D01*
G75*
G02*
X312852655Y-128471183I751317J837345D01*
G01*
X314162657Y-127011183D01*
G75*
G02*
X315751319Y-126925155I837345J-751317D01*
G01*
X315751319Y-126925155D01*
G75*
G02*
X315837347Y-128513817I-751317J-837345D01*
G01*
X314527345Y-129973817D01*
G75*
G02*
X312938683Y-130059845I-837345J751317D01*
G01*
G37*
G04 #@! TD.AperFunction*
X320040000Y-126682500D03*
G04 #@! TA.AperFunction,ComponentPad*
G36*
G01*
X319922597Y-128384834D02*
X319922597Y-128384834D01*
G75*
G02*
X318877666Y-127185097I77403J1122334D01*
G01*
X318917666Y-126605097D01*
G75*
G02*
X320117403Y-125560166I1122334J-77403D01*
G01*
X320117403Y-125560166D01*
G75*
G02*
X321162334Y-126759903I-77403J-1122334D01*
G01*
X321122334Y-127339903D01*
G75*
G02*
X319922597Y-128384834I-1122334J77403D01*
G01*
G37*
G04 #@! TD.AperFunction*
X295950000Y-127762500D03*
G04 #@! TA.AperFunction,ComponentPad*
G36*
G01*
X293888683Y-130059845D02*
X293888683Y-130059845D01*
G75*
G02*
X293802655Y-128471183I751317J837345D01*
G01*
X295112657Y-127011183D01*
G75*
G02*
X296701319Y-126925155I837345J-751317D01*
G01*
X296701319Y-126925155D01*
G75*
G02*
X296787347Y-128513817I-751317J-837345D01*
G01*
X295477345Y-129973817D01*
G75*
G02*
X293888683Y-130059845I-837345J751317D01*
G01*
G37*
G04 #@! TD.AperFunction*
X300990000Y-126682500D03*
G04 #@! TA.AperFunction,ComponentPad*
G36*
G01*
X300872597Y-128384834D02*
X300872597Y-128384834D01*
G75*
G02*
X299827666Y-127185097I77403J1122334D01*
G01*
X299867666Y-126605097D01*
G75*
G02*
X301067403Y-125560166I1122334J-77403D01*
G01*
X301067403Y-125560166D01*
G75*
G02*
X302112334Y-126759903I-77403J-1122334D01*
G01*
X302072334Y-127339903D01*
G75*
G02*
X300872597Y-128384834I-1122334J77403D01*
G01*
G37*
G04 #@! TD.AperFunction*
X276900000Y-127762500D03*
G04 #@! TA.AperFunction,ComponentPad*
G36*
G01*
X274838683Y-130059845D02*
X274838683Y-130059845D01*
G75*
G02*
X274752655Y-128471183I751317J837345D01*
G01*
X276062657Y-127011183D01*
G75*
G02*
X277651319Y-126925155I837345J-751317D01*
G01*
X277651319Y-126925155D01*
G75*
G02*
X277737347Y-128513817I-751317J-837345D01*
G01*
X276427345Y-129973817D01*
G75*
G02*
X274838683Y-130059845I-837345J751317D01*
G01*
G37*
G04 #@! TD.AperFunction*
X281940000Y-126682500D03*
G04 #@! TA.AperFunction,ComponentPad*
G36*
G01*
X281822597Y-128384834D02*
X281822597Y-128384834D01*
G75*
G02*
X280777666Y-127185097I77403J1122334D01*
G01*
X280817666Y-126605097D01*
G75*
G02*
X282017403Y-125560166I1122334J-77403D01*
G01*
X282017403Y-125560166D01*
G75*
G02*
X283062334Y-126759903I-77403J-1122334D01*
G01*
X283022334Y-127339903D01*
G75*
G02*
X281822597Y-128384834I-1122334J77403D01*
G01*
G37*
G04 #@! TD.AperFunction*
X257850000Y-127762500D03*
G04 #@! TA.AperFunction,ComponentPad*
G36*
G01*
X255788683Y-130059845D02*
X255788683Y-130059845D01*
G75*
G02*
X255702655Y-128471183I751317J837345D01*
G01*
X257012657Y-127011183D01*
G75*
G02*
X258601319Y-126925155I837345J-751317D01*
G01*
X258601319Y-126925155D01*
G75*
G02*
X258687347Y-128513817I-751317J-837345D01*
G01*
X257377345Y-129973817D01*
G75*
G02*
X255788683Y-130059845I-837345J751317D01*
G01*
G37*
G04 #@! TD.AperFunction*
X262890000Y-126682500D03*
G04 #@! TA.AperFunction,ComponentPad*
G36*
G01*
X262772597Y-128384834D02*
X262772597Y-128384834D01*
G75*
G02*
X261727666Y-127185097I77403J1122334D01*
G01*
X261767666Y-126605097D01*
G75*
G02*
X262967403Y-125560166I1122334J-77403D01*
G01*
X262967403Y-125560166D01*
G75*
G02*
X264012334Y-126759903I-77403J-1122334D01*
G01*
X263972334Y-127339903D01*
G75*
G02*
X262772597Y-128384834I-1122334J77403D01*
G01*
G37*
G04 #@! TD.AperFunction*
X238800000Y-127762500D03*
G04 #@! TA.AperFunction,ComponentPad*
G36*
G01*
X236738683Y-130059845D02*
X236738683Y-130059845D01*
G75*
G02*
X236652655Y-128471183I751317J837345D01*
G01*
X237962657Y-127011183D01*
G75*
G02*
X239551319Y-126925155I837345J-751317D01*
G01*
X239551319Y-126925155D01*
G75*
G02*
X239637347Y-128513817I-751317J-837345D01*
G01*
X238327345Y-129973817D01*
G75*
G02*
X236738683Y-130059845I-837345J751317D01*
G01*
G37*
G04 #@! TD.AperFunction*
X243840000Y-126682500D03*
G04 #@! TA.AperFunction,ComponentPad*
G36*
G01*
X243722597Y-128384834D02*
X243722597Y-128384834D01*
G75*
G02*
X242677666Y-127185097I77403J1122334D01*
G01*
X242717666Y-126605097D01*
G75*
G02*
X243917403Y-125560166I1122334J-77403D01*
G01*
X243917403Y-125560166D01*
G75*
G02*
X244962334Y-126759903I-77403J-1122334D01*
G01*
X244922334Y-127339903D01*
G75*
G02*
X243722597Y-128384834I-1122334J77403D01*
G01*
G37*
G04 #@! TD.AperFunction*
X219750000Y-127762500D03*
G04 #@! TA.AperFunction,ComponentPad*
G36*
G01*
X217688683Y-130059845D02*
X217688683Y-130059845D01*
G75*
G02*
X217602655Y-128471183I751317J837345D01*
G01*
X218912657Y-127011183D01*
G75*
G02*
X220501319Y-126925155I837345J-751317D01*
G01*
X220501319Y-126925155D01*
G75*
G02*
X220587347Y-128513817I-751317J-837345D01*
G01*
X219277345Y-129973817D01*
G75*
G02*
X217688683Y-130059845I-837345J751317D01*
G01*
G37*
G04 #@! TD.AperFunction*
X224790000Y-126682500D03*
G04 #@! TA.AperFunction,ComponentPad*
G36*
G01*
X224672597Y-128384834D02*
X224672597Y-128384834D01*
G75*
G02*
X223627666Y-127185097I77403J1122334D01*
G01*
X223667666Y-126605097D01*
G75*
G02*
X224867403Y-125560166I1122334J-77403D01*
G01*
X224867403Y-125560166D01*
G75*
G02*
X225912334Y-126759903I-77403J-1122334D01*
G01*
X225872334Y-127339903D01*
G75*
G02*
X224672597Y-128384834I-1122334J77403D01*
G01*
G37*
G04 #@! TD.AperFunction*
X200700000Y-127762500D03*
G04 #@! TA.AperFunction,ComponentPad*
G36*
G01*
X198638683Y-130059845D02*
X198638683Y-130059845D01*
G75*
G02*
X198552655Y-128471183I751317J837345D01*
G01*
X199862657Y-127011183D01*
G75*
G02*
X201451319Y-126925155I837345J-751317D01*
G01*
X201451319Y-126925155D01*
G75*
G02*
X201537347Y-128513817I-751317J-837345D01*
G01*
X200227345Y-129973817D01*
G75*
G02*
X198638683Y-130059845I-837345J751317D01*
G01*
G37*
G04 #@! TD.AperFunction*
X205740000Y-126682500D03*
G04 #@! TA.AperFunction,ComponentPad*
G36*
G01*
X205622597Y-128384834D02*
X205622597Y-128384834D01*
G75*
G02*
X204577666Y-127185097I77403J1122334D01*
G01*
X204617666Y-126605097D01*
G75*
G02*
X205817403Y-125560166I1122334J-77403D01*
G01*
X205817403Y-125560166D01*
G75*
G02*
X206862334Y-126759903I-77403J-1122334D01*
G01*
X206822334Y-127339903D01*
G75*
G02*
X205622597Y-128384834I-1122334J77403D01*
G01*
G37*
G04 #@! TD.AperFunction*
X181650000Y-127762500D03*
G04 #@! TA.AperFunction,ComponentPad*
G36*
G01*
X179588683Y-130059845D02*
X179588683Y-130059845D01*
G75*
G02*
X179502655Y-128471183I751317J837345D01*
G01*
X180812657Y-127011183D01*
G75*
G02*
X182401319Y-126925155I837345J-751317D01*
G01*
X182401319Y-126925155D01*
G75*
G02*
X182487347Y-128513817I-751317J-837345D01*
G01*
X181177345Y-129973817D01*
G75*
G02*
X179588683Y-130059845I-837345J751317D01*
G01*
G37*
G04 #@! TD.AperFunction*
X186690000Y-126682500D03*
G04 #@! TA.AperFunction,ComponentPad*
G36*
G01*
X186572597Y-128384834D02*
X186572597Y-128384834D01*
G75*
G02*
X185527666Y-127185097I77403J1122334D01*
G01*
X185567666Y-126605097D01*
G75*
G02*
X186767403Y-125560166I1122334J-77403D01*
G01*
X186767403Y-125560166D01*
G75*
G02*
X187812334Y-126759903I-77403J-1122334D01*
G01*
X187772334Y-127339903D01*
G75*
G02*
X186572597Y-128384834I-1122334J77403D01*
G01*
G37*
G04 #@! TD.AperFunction*
X162600000Y-127762500D03*
G04 #@! TA.AperFunction,ComponentPad*
G36*
G01*
X160538683Y-130059845D02*
X160538683Y-130059845D01*
G75*
G02*
X160452655Y-128471183I751317J837345D01*
G01*
X161762657Y-127011183D01*
G75*
G02*
X163351319Y-126925155I837345J-751317D01*
G01*
X163351319Y-126925155D01*
G75*
G02*
X163437347Y-128513817I-751317J-837345D01*
G01*
X162127345Y-129973817D01*
G75*
G02*
X160538683Y-130059845I-837345J751317D01*
G01*
G37*
G04 #@! TD.AperFunction*
X167640000Y-126682500D03*
G04 #@! TA.AperFunction,ComponentPad*
G36*
G01*
X167522597Y-128384834D02*
X167522597Y-128384834D01*
G75*
G02*
X166477666Y-127185097I77403J1122334D01*
G01*
X166517666Y-126605097D01*
G75*
G02*
X167717403Y-125560166I1122334J-77403D01*
G01*
X167717403Y-125560166D01*
G75*
G02*
X168762334Y-126759903I-77403J-1122334D01*
G01*
X168722334Y-127339903D01*
G75*
G02*
X167522597Y-128384834I-1122334J77403D01*
G01*
G37*
G04 #@! TD.AperFunction*
X143550000Y-127762500D03*
G04 #@! TA.AperFunction,ComponentPad*
G36*
G01*
X141488683Y-130059845D02*
X141488683Y-130059845D01*
G75*
G02*
X141402655Y-128471183I751317J837345D01*
G01*
X142712657Y-127011183D01*
G75*
G02*
X144301319Y-126925155I837345J-751317D01*
G01*
X144301319Y-126925155D01*
G75*
G02*
X144387347Y-128513817I-751317J-837345D01*
G01*
X143077345Y-129973817D01*
G75*
G02*
X141488683Y-130059845I-837345J751317D01*
G01*
G37*
G04 #@! TD.AperFunction*
X148590000Y-126682500D03*
G04 #@! TA.AperFunction,ComponentPad*
G36*
G01*
X148472597Y-128384834D02*
X148472597Y-128384834D01*
G75*
G02*
X147427666Y-127185097I77403J1122334D01*
G01*
X147467666Y-126605097D01*
G75*
G02*
X148667403Y-125560166I1122334J-77403D01*
G01*
X148667403Y-125560166D01*
G75*
G02*
X149712334Y-126759903I-77403J-1122334D01*
G01*
X149672334Y-127339903D01*
G75*
G02*
X148472597Y-128384834I-1122334J77403D01*
G01*
G37*
G04 #@! TD.AperFunction*
X124500000Y-127762500D03*
G04 #@! TA.AperFunction,ComponentPad*
G36*
G01*
X122438683Y-130059845D02*
X122438683Y-130059845D01*
G75*
G02*
X122352655Y-128471183I751317J837345D01*
G01*
X123662657Y-127011183D01*
G75*
G02*
X125251319Y-126925155I837345J-751317D01*
G01*
X125251319Y-126925155D01*
G75*
G02*
X125337347Y-128513817I-751317J-837345D01*
G01*
X124027345Y-129973817D01*
G75*
G02*
X122438683Y-130059845I-837345J751317D01*
G01*
G37*
G04 #@! TD.AperFunction*
X129540000Y-126682500D03*
G04 #@! TA.AperFunction,ComponentPad*
G36*
G01*
X129422597Y-128384834D02*
X129422597Y-128384834D01*
G75*
G02*
X128377666Y-127185097I77403J1122334D01*
G01*
X128417666Y-126605097D01*
G75*
G02*
X129617403Y-125560166I1122334J-77403D01*
G01*
X129617403Y-125560166D01*
G75*
G02*
X130662334Y-126759903I-77403J-1122334D01*
G01*
X130622334Y-127339903D01*
G75*
G02*
X129422597Y-128384834I-1122334J77403D01*
G01*
G37*
G04 #@! TD.AperFunction*
X181650000Y-108712500D03*
G04 #@! TA.AperFunction,ComponentPad*
G36*
G01*
X179588683Y-111009845D02*
X179588683Y-111009845D01*
G75*
G02*
X179502655Y-109421183I751317J837345D01*
G01*
X180812657Y-107961183D01*
G75*
G02*
X182401319Y-107875155I837345J-751317D01*
G01*
X182401319Y-107875155D01*
G75*
G02*
X182487347Y-109463817I-751317J-837345D01*
G01*
X181177345Y-110923817D01*
G75*
G02*
X179588683Y-111009845I-837345J751317D01*
G01*
G37*
G04 #@! TD.AperFunction*
X186690000Y-107632500D03*
G04 #@! TA.AperFunction,ComponentPad*
G36*
G01*
X186572597Y-109334834D02*
X186572597Y-109334834D01*
G75*
G02*
X185527666Y-108135097I77403J1122334D01*
G01*
X185567666Y-107555097D01*
G75*
G02*
X186767403Y-106510166I1122334J-77403D01*
G01*
X186767403Y-106510166D01*
G75*
G02*
X187812334Y-107709903I-77403J-1122334D01*
G01*
X187772334Y-108289903D01*
G75*
G02*
X186572597Y-109334834I-1122334J77403D01*
G01*
G37*
G04 #@! TD.AperFunction*
X162600000Y-108712500D03*
G04 #@! TA.AperFunction,ComponentPad*
G36*
G01*
X160538683Y-111009845D02*
X160538683Y-111009845D01*
G75*
G02*
X160452655Y-109421183I751317J837345D01*
G01*
X161762657Y-107961183D01*
G75*
G02*
X163351319Y-107875155I837345J-751317D01*
G01*
X163351319Y-107875155D01*
G75*
G02*
X163437347Y-109463817I-751317J-837345D01*
G01*
X162127345Y-110923817D01*
G75*
G02*
X160538683Y-111009845I-837345J751317D01*
G01*
G37*
G04 #@! TD.AperFunction*
X167640000Y-107632500D03*
G04 #@! TA.AperFunction,ComponentPad*
G36*
G01*
X167522597Y-109334834D02*
X167522597Y-109334834D01*
G75*
G02*
X166477666Y-108135097I77403J1122334D01*
G01*
X166517666Y-107555097D01*
G75*
G02*
X167717403Y-106510166I1122334J-77403D01*
G01*
X167717403Y-106510166D01*
G75*
G02*
X168762334Y-107709903I-77403J-1122334D01*
G01*
X168722334Y-108289903D01*
G75*
G02*
X167522597Y-109334834I-1122334J77403D01*
G01*
G37*
G04 #@! TD.AperFunction*
X143550000Y-108712500D03*
G04 #@! TA.AperFunction,ComponentPad*
G36*
G01*
X141488683Y-111009845D02*
X141488683Y-111009845D01*
G75*
G02*
X141402655Y-109421183I751317J837345D01*
G01*
X142712657Y-107961183D01*
G75*
G02*
X144301319Y-107875155I837345J-751317D01*
G01*
X144301319Y-107875155D01*
G75*
G02*
X144387347Y-109463817I-751317J-837345D01*
G01*
X143077345Y-110923817D01*
G75*
G02*
X141488683Y-111009845I-837345J751317D01*
G01*
G37*
G04 #@! TD.AperFunction*
X148590000Y-107632500D03*
G04 #@! TA.AperFunction,ComponentPad*
G36*
G01*
X148472597Y-109334834D02*
X148472597Y-109334834D01*
G75*
G02*
X147427666Y-108135097I77403J1122334D01*
G01*
X147467666Y-107555097D01*
G75*
G02*
X148667403Y-106510166I1122334J-77403D01*
G01*
X148667403Y-106510166D01*
G75*
G02*
X149712334Y-107709903I-77403J-1122334D01*
G01*
X149672334Y-108289903D01*
G75*
G02*
X148472597Y-109334834I-1122334J77403D01*
G01*
G37*
G04 #@! TD.AperFunction*
X124500000Y-108712500D03*
G04 #@! TA.AperFunction,ComponentPad*
G36*
G01*
X122438683Y-111009845D02*
X122438683Y-111009845D01*
G75*
G02*
X122352655Y-109421183I751317J837345D01*
G01*
X123662657Y-107961183D01*
G75*
G02*
X125251319Y-107875155I837345J-751317D01*
G01*
X125251319Y-107875155D01*
G75*
G02*
X125337347Y-109463817I-751317J-837345D01*
G01*
X124027345Y-110923817D01*
G75*
G02*
X122438683Y-111009845I-837345J751317D01*
G01*
G37*
G04 #@! TD.AperFunction*
X129540000Y-107632500D03*
G04 #@! TA.AperFunction,ComponentPad*
G36*
G01*
X129422597Y-109334834D02*
X129422597Y-109334834D01*
G75*
G02*
X128377666Y-108135097I77403J1122334D01*
G01*
X128417666Y-107555097D01*
G75*
G02*
X129617403Y-106510166I1122334J-77403D01*
G01*
X129617403Y-106510166D01*
G75*
G02*
X130662334Y-107709903I-77403J-1122334D01*
G01*
X130622334Y-108289903D01*
G75*
G02*
X129422597Y-109334834I-1122334J77403D01*
G01*
G37*
G04 #@! TD.AperFunction*
D13*
X75025000Y-107743750D03*
X75025000Y-108743750D03*
X74025000Y-107743750D03*
X74025000Y-108743750D03*
X73025000Y-107743750D03*
D14*
X73025000Y-108743750D03*
D15*
X382587500Y-206312500D03*
X382587500Y-209612500D03*
X382587500Y-187262500D03*
X382587500Y-190562500D03*
X382587500Y-168212500D03*
X382587500Y-171512500D03*
X382587500Y-149162500D03*
X382587500Y-152462500D03*
X382587500Y-130112500D03*
X382587500Y-133412500D03*
X382587500Y-111062500D03*
X382587500Y-114362500D03*
X363537500Y-206312500D03*
X363537500Y-209612500D03*
X363537500Y-187262500D03*
X363537500Y-190562500D03*
X363537500Y-111062500D03*
X363537500Y-114362500D03*
X344487500Y-206312500D03*
X344487500Y-209612500D03*
X358775000Y-149162500D03*
X358775000Y-152462500D03*
X354012500Y-130112500D03*
X354012500Y-133412500D03*
X344487500Y-111062500D03*
X344487500Y-114362500D03*
X325437500Y-206312500D03*
X325437500Y-209612500D03*
X337343750Y-187262500D03*
X337343750Y-190562500D03*
X351631250Y-168212500D03*
X351631250Y-171512500D03*
X334962500Y-149162500D03*
X334962500Y-152462500D03*
X325437500Y-130112500D03*
X325437500Y-133412500D03*
X325437500Y-111062500D03*
X325437500Y-114362500D03*
X306387500Y-206312500D03*
X306387500Y-209612500D03*
X311150000Y-187262500D03*
X311150000Y-190562500D03*
X320675000Y-168212500D03*
X320675000Y-171512500D03*
X315912500Y-149162500D03*
X315912500Y-152462500D03*
X306387500Y-130112500D03*
X306387500Y-133412500D03*
X306387500Y-111062500D03*
X306387500Y-114362500D03*
X287337500Y-206312500D03*
X287337500Y-209612500D03*
X292100000Y-187262500D03*
X292100000Y-190562500D03*
X301625000Y-168212500D03*
X301625000Y-171512500D03*
X296862500Y-149162500D03*
X296862500Y-152462500D03*
X287337500Y-130112500D03*
X287337500Y-133412500D03*
X287337500Y-111125000D03*
X287337500Y-114425000D03*
X273050000Y-187262500D03*
X273050000Y-190562500D03*
X282575000Y-168212500D03*
X282575000Y-171512500D03*
X277812500Y-149162500D03*
X277812500Y-152462500D03*
X268287500Y-130112500D03*
X268287500Y-133412500D03*
X268287500Y-111062500D03*
X268287500Y-114362500D03*
X254000000Y-187262500D03*
X254000000Y-190562500D03*
X263525000Y-168212500D03*
X263525000Y-171512500D03*
X258762500Y-149162500D03*
X258762500Y-152462500D03*
X249237500Y-130112500D03*
X249237500Y-133412500D03*
X249237500Y-111062500D03*
X249237500Y-114362500D03*
X234950000Y-187262500D03*
X234950000Y-190562500D03*
X244475000Y-168212500D03*
X244475000Y-171512500D03*
X239712500Y-149162500D03*
X239712500Y-152462500D03*
X230187500Y-130112500D03*
X230187500Y-133412500D03*
X230187500Y-111062500D03*
X230187500Y-114362500D03*
X225425000Y-206312500D03*
X225425000Y-209612500D03*
X215900000Y-187262500D03*
X215900000Y-190562500D03*
X225425000Y-168212500D03*
X225425000Y-171512500D03*
X220662500Y-149162500D03*
X220662500Y-152462500D03*
X211137500Y-130112500D03*
X211137500Y-133412500D03*
X211137500Y-111062500D03*
X211137500Y-114362500D03*
X196850000Y-187262500D03*
X196850000Y-190562500D03*
X206375000Y-168212500D03*
X206375000Y-171512500D03*
X201612500Y-149162500D03*
X201612500Y-152462500D03*
X192087500Y-130112500D03*
X192087500Y-133412500D03*
X192087500Y-111062500D03*
X192087500Y-114362500D03*
X177800000Y-187262500D03*
X177800000Y-190562500D03*
X187325000Y-168212500D03*
X187325000Y-171512500D03*
X182562500Y-149162500D03*
X182562500Y-152462500D03*
X173037500Y-130112500D03*
X173037500Y-133412500D03*
X173037500Y-111062500D03*
X173037500Y-114362500D03*
X158750000Y-187262500D03*
X158750000Y-190562500D03*
X168275000Y-168212500D03*
X168275000Y-171512500D03*
X163512500Y-149162500D03*
X163512500Y-152462500D03*
X153987500Y-130112500D03*
X153987500Y-133412500D03*
X153987500Y-111062500D03*
X153987500Y-114362500D03*
X146843750Y-206312500D03*
X146843750Y-209612500D03*
X139700000Y-187262500D03*
X139700000Y-190562500D03*
X149225000Y-168212500D03*
X149225000Y-171512500D03*
X144462500Y-149162500D03*
X144462500Y-152462500D03*
X134937500Y-130112500D03*
X134937500Y-133412500D03*
X134937500Y-111062500D03*
X134937500Y-114362500D03*
X123031250Y-206312500D03*
X123031250Y-209612500D03*
X130968750Y-168212500D03*
X130968750Y-171512500D03*
X125412500Y-149162500D03*
X125412500Y-152462500D03*
X99218750Y-206312500D03*
X99218750Y-209612500D03*
X108743750Y-187262500D03*
X108743750Y-190562500D03*
X103981250Y-168212500D03*
X103981250Y-171512500D03*
X101600000Y-149162500D03*
X101600000Y-152462500D03*
D16*
X59561750Y-106362500D03*
X52261750Y-106362500D03*
X52261750Y-110862500D03*
X59561750Y-110862500D03*
D10*
X105450000Y-127762500D03*
G04 #@! TA.AperFunction,ComponentPad*
G36*
G01*
X103388683Y-130059845D02*
X103388683Y-130059845D01*
G75*
G02*
X103302655Y-128471183I751317J837345D01*
G01*
X104612657Y-127011183D01*
G75*
G02*
X106201319Y-126925155I837345J-751317D01*
G01*
X106201319Y-126925155D01*
G75*
G02*
X106287347Y-128513817I-751317J-837345D01*
G01*
X104977345Y-129973817D01*
G75*
G02*
X103388683Y-130059845I-837345J751317D01*
G01*
G37*
G04 #@! TD.AperFunction*
X110490000Y-126682500D03*
G04 #@! TA.AperFunction,ComponentPad*
G36*
G01*
X110372597Y-128384834D02*
X110372597Y-128384834D01*
G75*
G02*
X109327666Y-127185097I77403J1122334D01*
G01*
X109367666Y-126605097D01*
G75*
G02*
X110567403Y-125560166I1122334J-77403D01*
G01*
X110567403Y-125560166D01*
G75*
G02*
X111612334Y-126759903I-77403J-1122334D01*
G01*
X111572334Y-127339903D01*
G75*
G02*
X110372597Y-128384834I-1122334J77403D01*
G01*
G37*
G04 #@! TD.AperFunction*
X105450000Y-108712500D03*
G04 #@! TA.AperFunction,ComponentPad*
G36*
G01*
X103388683Y-111009845D02*
X103388683Y-111009845D01*
G75*
G02*
X103302655Y-109421183I751317J837345D01*
G01*
X104612657Y-107961183D01*
G75*
G02*
X106201319Y-107875155I837345J-751317D01*
G01*
X106201319Y-107875155D01*
G75*
G02*
X106287347Y-109463817I-751317J-837345D01*
G01*
X104977345Y-110923817D01*
G75*
G02*
X103388683Y-111009845I-837345J751317D01*
G01*
G37*
G04 #@! TD.AperFunction*
X110490000Y-107632500D03*
G04 #@! TA.AperFunction,ComponentPad*
G36*
G01*
X110372597Y-109334834D02*
X110372597Y-109334834D01*
G75*
G02*
X109327666Y-108135097I77403J1122334D01*
G01*
X109367666Y-107555097D01*
G75*
G02*
X110567403Y-106510166I1122334J-77403D01*
G01*
X110567403Y-106510166D01*
G75*
G02*
X111612334Y-107709903I-77403J-1122334D01*
G01*
X111572334Y-108289903D01*
G75*
G02*
X110372597Y-109334834I-1122334J77403D01*
G01*
G37*
G04 #@! TD.AperFunction*
X86400000Y-127762500D03*
G04 #@! TA.AperFunction,ComponentPad*
G36*
G01*
X84338683Y-130059845D02*
X84338683Y-130059845D01*
G75*
G02*
X84252655Y-128471183I751317J837345D01*
G01*
X85562657Y-127011183D01*
G75*
G02*
X87151319Y-126925155I837345J-751317D01*
G01*
X87151319Y-126925155D01*
G75*
G02*
X87237347Y-128513817I-751317J-837345D01*
G01*
X85927345Y-129973817D01*
G75*
G02*
X84338683Y-130059845I-837345J751317D01*
G01*
G37*
G04 #@! TD.AperFunction*
X91440000Y-126682500D03*
G04 #@! TA.AperFunction,ComponentPad*
G36*
G01*
X91322597Y-128384834D02*
X91322597Y-128384834D01*
G75*
G02*
X90277666Y-127185097I77403J1122334D01*
G01*
X90317666Y-126605097D01*
G75*
G02*
X91517403Y-125560166I1122334J-77403D01*
G01*
X91517403Y-125560166D01*
G75*
G02*
X92562334Y-126759903I-77403J-1122334D01*
G01*
X92522334Y-127339903D01*
G75*
G02*
X91322597Y-128384834I-1122334J77403D01*
G01*
G37*
G04 #@! TD.AperFunction*
X86400000Y-108712500D03*
G04 #@! TA.AperFunction,ComponentPad*
G36*
G01*
X84338683Y-111009845D02*
X84338683Y-111009845D01*
G75*
G02*
X84252655Y-109421183I751317J837345D01*
G01*
X85562657Y-107961183D01*
G75*
G02*
X87151319Y-107875155I837345J-751317D01*
G01*
X87151319Y-107875155D01*
G75*
G02*
X87237347Y-109463817I-751317J-837345D01*
G01*
X85927345Y-110923817D01*
G75*
G02*
X84338683Y-111009845I-837345J751317D01*
G01*
G37*
G04 #@! TD.AperFunction*
X91440000Y-107632500D03*
G04 #@! TA.AperFunction,ComponentPad*
G36*
G01*
X91322597Y-109334834D02*
X91322597Y-109334834D01*
G75*
G02*
X90277666Y-108135097I77403J1122334D01*
G01*
X90317666Y-107555097D01*
G75*
G02*
X91517403Y-106510166I1122334J-77403D01*
G01*
X91517403Y-106510166D01*
G75*
G02*
X92562334Y-107709903I-77403J-1122334D01*
G01*
X92522334Y-108289903D01*
G75*
G02*
X91322597Y-109334834I-1122334J77403D01*
G01*
G37*
G04 #@! TD.AperFunction*
D15*
X115887500Y-130112500D03*
X115887500Y-133412500D03*
X115887500Y-111062500D03*
X115887500Y-114362500D03*
X96837500Y-130112500D03*
X96837500Y-133412500D03*
X96837500Y-111062500D03*
X96837500Y-114362500D03*
D17*
X68199000Y-129159000D03*
X91567000Y-121158000D03*
X73025000Y-125603000D03*
X87503000Y-121158000D03*
X69434000Y-110998000D03*
X69355250Y-124192750D03*
X67437000Y-121412000D03*
X65135000Y-123698000D03*
X63507781Y-125354366D03*
X62684564Y-124786637D03*
X61728067Y-125101067D03*
X60706000Y-125095000D03*
X59182000Y-118872000D03*
X85979000Y-135763000D03*
X237490000Y-135763000D03*
X96266000Y-135763000D03*
X92964000Y-135763000D03*
X95250000Y-136525000D03*
X88519000Y-136525000D03*
X63881000Y-136144000D03*
X80518000Y-136525000D03*
X90932000Y-136525000D03*
X362966000Y-136525000D03*
X200914000Y-156210000D03*
X63500000Y-156210000D03*
X182753000Y-155067000D03*
X164372657Y-153958657D03*
X63500000Y-155067000D03*
X63500000Y-153924000D03*
X138811000Y-193548000D03*
X95504000Y-193548000D03*
X90805000Y-179197000D03*
X95631000Y-158877000D03*
X91694000Y-158877000D03*
X94361000Y-137668000D03*
X70866000Y-137668000D03*
X88519000Y-137668000D03*
X90932000Y-137668000D03*
X80518000Y-137668000D03*
X218440000Y-137668000D03*
X57150000Y-130048000D03*
X56134000Y-130902250D03*
X55345733Y-131726186D03*
X54610000Y-133350000D03*
X75946000Y-191770000D03*
X75946000Y-190500000D03*
X71621250Y-135629250D03*
X65786000Y-115570000D03*
X52324000Y-118872000D03*
X61468000Y-107696000D03*
X70993000Y-117856000D03*
X72136000Y-122428000D03*
X72136000Y-131572000D03*
X54356000Y-115316000D03*
X59944000Y-115316000D03*
X66548000Y-135128000D03*
X58420000Y-117856000D03*
D18*
X76200000Y-112268000D02*
X76200000Y-112649000D01*
X76200000Y-112649000D02*
X70993000Y-117856000D01*
D19*
X68199000Y-128524000D02*
X68199000Y-129159000D01*
X70231000Y-116967000D02*
X70231000Y-126492000D01*
X70231000Y-126492000D02*
X68199000Y-128524000D01*
X74025000Y-107743750D02*
X74025000Y-107299000D01*
X70231000Y-109424788D02*
X70231000Y-116967000D01*
X74025000Y-107299000D02*
X73406000Y-106680000D01*
X72975788Y-106680000D02*
X70231000Y-109424788D01*
X73406000Y-106680000D02*
X72975788Y-106680000D01*
X91567000Y-121158000D02*
X251245500Y-121158000D01*
X83058000Y-125603000D02*
X87503000Y-121158000D01*
X73025000Y-125603000D02*
X83058000Y-125603000D01*
X251245500Y-121158000D02*
X257850000Y-127762500D01*
X69434000Y-124114000D02*
X69355250Y-124192750D01*
X69434000Y-110998000D02*
X69434000Y-124114000D01*
X65135000Y-123698000D02*
X67421000Y-121412000D01*
X67421000Y-121412000D02*
X67437000Y-121412000D01*
X68707000Y-109869132D02*
X72395633Y-106180499D01*
X72395633Y-106180499D02*
X271597999Y-106180499D01*
X271597999Y-106180499D02*
X275590000Y-110172500D01*
X180109572Y-105629030D02*
X72305036Y-105629030D01*
X72305036Y-105629030D02*
X71753567Y-106180499D01*
X68707000Y-109982000D02*
X68707000Y-109869132D01*
X63507781Y-125354366D02*
X63507781Y-124219418D01*
X68707000Y-119020199D02*
X68707000Y-109982000D01*
X63507781Y-124219418D02*
X68707000Y-119020199D01*
X180109572Y-105629030D02*
X290096530Y-105629030D01*
X68199029Y-109735037D02*
X71753567Y-106180499D01*
X67825066Y-119260067D02*
X68199029Y-118886105D01*
X68199029Y-118886105D02*
X68199029Y-109735037D01*
X290096530Y-105629030D02*
X294640000Y-110172500D01*
X62684564Y-124400569D02*
X67825066Y-119260067D01*
X62684564Y-124786637D02*
X62684564Y-124400569D01*
X67745019Y-118698048D02*
X67745019Y-109546981D01*
X61722000Y-125095000D02*
X61722000Y-124721066D01*
X308692520Y-105175020D02*
X313690000Y-110172500D01*
X61722000Y-124721066D02*
X67745019Y-118698048D01*
X61728067Y-125101067D02*
X61722000Y-125095000D01*
X72116980Y-105175020D02*
X308692520Y-105175020D01*
X67745019Y-109546981D02*
X72116980Y-105175020D01*
X71883094Y-104721010D02*
X329184000Y-104721010D01*
X67291009Y-109313095D02*
X71883094Y-104721010D01*
X329184000Y-104721010D02*
X330058510Y-104721010D01*
X330058510Y-104721010D02*
X334050000Y-108712500D01*
X67291009Y-118509991D02*
X67291009Y-109313095D01*
X60706000Y-125095000D02*
X67291009Y-118509991D01*
X345884500Y-104267000D02*
X351790000Y-110172500D01*
X59182000Y-118872000D02*
X63559962Y-118872000D01*
X66836999Y-115594963D02*
X66836999Y-109125039D01*
X63559962Y-118872000D02*
X66836999Y-115594963D01*
X66836999Y-109125039D02*
X71695038Y-104267000D01*
X71695038Y-104267000D02*
X345884500Y-104267000D01*
X85979000Y-135763000D02*
X92964000Y-135763000D01*
X96266000Y-135763000D02*
X237490000Y-135763000D01*
X88519000Y-136525000D02*
X90932000Y-136525000D01*
X218372962Y-136525000D02*
X362966000Y-136525000D01*
X64280999Y-136543999D02*
X80499001Y-136543999D01*
X63881000Y-136144000D02*
X64280999Y-136543999D01*
X80499001Y-136543999D02*
X80518000Y-136525000D01*
X95250000Y-136525000D02*
X218372962Y-136525000D01*
X63500000Y-156210000D02*
X200914000Y-156210000D01*
X63500000Y-155067000D02*
X182753000Y-155067000D01*
X63500000Y-153924000D02*
X164338000Y-153924000D01*
X164338000Y-153924000D02*
X164372657Y-153958657D01*
X95504000Y-193548000D02*
X138811000Y-193548000D01*
X90805000Y-179197000D02*
X120777000Y-179197000D01*
X120777000Y-179197000D02*
X127952500Y-186372500D01*
X91694000Y-158877000D02*
X95631000Y-158877000D01*
X70866000Y-137668000D02*
X80518000Y-137668000D01*
X88519000Y-137668000D02*
X90932000Y-137668000D01*
X94361000Y-137668000D02*
X218440000Y-137668000D01*
X56896000Y-147574000D02*
X56896000Y-130302000D01*
X56896000Y-130302000D02*
X57150000Y-130048000D01*
X60960000Y-151638000D02*
X56896000Y-147574000D01*
X77470000Y-151638000D02*
X60960000Y-151638000D01*
X82042000Y-147066000D02*
X77470000Y-151638000D01*
X96203500Y-114362500D02*
X82042000Y-128524000D01*
X82042000Y-128524000D02*
X82042000Y-147066000D01*
X96837500Y-114362500D02*
X96203500Y-114362500D01*
X60706000Y-152400000D02*
X77850000Y-152400000D01*
X77850000Y-152400000D02*
X96837500Y-133412500D01*
X56134000Y-147828000D02*
X60706000Y-152400000D01*
X56134000Y-130902250D02*
X56134000Y-147828000D01*
X55345733Y-147801733D02*
X60677401Y-153133401D01*
X60677401Y-153133401D02*
X100929099Y-153133401D01*
X100929099Y-153133401D02*
X101600000Y-152462500D01*
X55345733Y-131726186D02*
X55345733Y-147801733D01*
X58391401Y-172183401D02*
X54610000Y-168402000D01*
X54610000Y-168402000D02*
X54610000Y-133350000D01*
X103981250Y-171512500D02*
X103310349Y-172183401D01*
X103310349Y-172183401D02*
X58391401Y-172183401D01*
X75946000Y-202438000D02*
X83791401Y-210283401D01*
X83791401Y-210283401D02*
X98547849Y-210283401D01*
X98547849Y-210283401D02*
X99218750Y-209612500D01*
X75946000Y-191770000D02*
X75946000Y-202438000D01*
X75946000Y-190500000D02*
X76679401Y-191233401D01*
X76679401Y-191233401D02*
X108072849Y-191233401D01*
X108072849Y-191233401D02*
X108743750Y-190562500D01*
D18*
X72136000Y-131572000D02*
X72136000Y-135114500D01*
X72136000Y-135114500D02*
X71621250Y-135629250D01*
X52324000Y-118872000D02*
X54130501Y-117065499D01*
X54130501Y-117065499D02*
X64290501Y-117065499D01*
X64290501Y-117065499D02*
X65786000Y-115570000D01*
D19*
X123031250Y-209612500D02*
X122360349Y-210283401D01*
X122360349Y-210283401D02*
X99889651Y-210283401D01*
X99889651Y-210283401D02*
X99218750Y-209612500D01*
X146843750Y-209612500D02*
X146172849Y-210283401D01*
X123702151Y-210283401D02*
X123031250Y-209612500D01*
X146172849Y-210283401D02*
X123702151Y-210283401D01*
X225425000Y-209612500D02*
X224754099Y-210283401D01*
X147514651Y-210283401D02*
X146843750Y-209612500D01*
X224754099Y-210283401D02*
X147514651Y-210283401D01*
X287337500Y-209612500D02*
X286666599Y-210283401D01*
X286666599Y-210283401D02*
X226095901Y-210283401D01*
X226095901Y-210283401D02*
X225425000Y-209612500D01*
X306387500Y-209612500D02*
X305716599Y-210283401D01*
X288008401Y-210283401D02*
X287337500Y-209612500D01*
X305716599Y-210283401D02*
X288008401Y-210283401D01*
X325437500Y-209612500D02*
X324766599Y-210283401D01*
X324766599Y-210283401D02*
X307058401Y-210283401D01*
X307058401Y-210283401D02*
X306387500Y-209612500D01*
X344487500Y-209612500D02*
X343816599Y-210283401D01*
X343816599Y-210283401D02*
X326108401Y-210283401D01*
X326108401Y-210283401D02*
X325437500Y-209612500D01*
X363537500Y-209612500D02*
X362866599Y-210283401D01*
X345158401Y-210283401D02*
X344487500Y-209612500D01*
X362866599Y-210283401D02*
X345158401Y-210283401D01*
X382587500Y-209612500D02*
X381916599Y-210283401D01*
X364208401Y-210283401D02*
X363537500Y-209612500D01*
X381916599Y-210283401D02*
X364208401Y-210283401D01*
X363537500Y-190562500D02*
X364208401Y-191233401D01*
X364208401Y-191233401D02*
X381916599Y-191233401D01*
X381916599Y-191233401D02*
X382587500Y-190562500D01*
X337343750Y-190562500D02*
X338014651Y-191233401D01*
X338014651Y-191233401D02*
X362866599Y-191233401D01*
X362866599Y-191233401D02*
X363537500Y-190562500D01*
X311150000Y-190562500D02*
X311820901Y-191233401D01*
X311820901Y-191233401D02*
X336672849Y-191233401D01*
X336672849Y-191233401D02*
X337343750Y-190562500D01*
X292100000Y-190562500D02*
X292770901Y-191233401D01*
X292770901Y-191233401D02*
X310479099Y-191233401D01*
X310479099Y-191233401D02*
X311150000Y-190562500D01*
X273050000Y-190562500D02*
X273720901Y-191233401D01*
X273720901Y-191233401D02*
X291429099Y-191233401D01*
X291429099Y-191233401D02*
X292100000Y-190562500D01*
X254000000Y-190562500D02*
X254670901Y-191233401D01*
X254670901Y-191233401D02*
X272379099Y-191233401D01*
X272379099Y-191233401D02*
X273050000Y-190562500D01*
X234950000Y-190562500D02*
X235620901Y-191233401D01*
X235620901Y-191233401D02*
X253329099Y-191233401D01*
X253329099Y-191233401D02*
X254000000Y-190562500D01*
X215900000Y-190562500D02*
X216570901Y-191233401D01*
X234279099Y-191233401D02*
X234950000Y-190562500D01*
X216570901Y-191233401D02*
X234279099Y-191233401D01*
X196850000Y-190562500D02*
X197520901Y-191233401D01*
X197520901Y-191233401D02*
X215229099Y-191233401D01*
X215229099Y-191233401D02*
X215900000Y-190562500D01*
X177800000Y-190562500D02*
X178470901Y-191233401D01*
X178470901Y-191233401D02*
X196179099Y-191233401D01*
X196179099Y-191233401D02*
X196850000Y-190562500D01*
X158750000Y-190562500D02*
X159420901Y-191233401D01*
X159420901Y-191233401D02*
X177129099Y-191233401D01*
X177129099Y-191233401D02*
X177800000Y-190562500D01*
X139700000Y-190562500D02*
X140370901Y-191233401D01*
X140370901Y-191233401D02*
X158079099Y-191233401D01*
X158079099Y-191233401D02*
X158750000Y-190562500D01*
X108743750Y-190562500D02*
X109414651Y-191233401D01*
X109414651Y-191233401D02*
X139029099Y-191233401D01*
X139029099Y-191233401D02*
X139700000Y-190562500D01*
X130968750Y-171512500D02*
X130297849Y-172183401D01*
X130297849Y-172183401D02*
X104652151Y-172183401D01*
X104652151Y-172183401D02*
X103981250Y-171512500D01*
X149225000Y-171512500D02*
X148554099Y-172183401D01*
X148554099Y-172183401D02*
X131639651Y-172183401D01*
X131639651Y-172183401D02*
X130968750Y-171512500D01*
X168275000Y-171512500D02*
X167604099Y-172183401D01*
X167604099Y-172183401D02*
X149895901Y-172183401D01*
X149895901Y-172183401D02*
X149225000Y-171512500D01*
X187325000Y-171512500D02*
X186654099Y-172183401D01*
X186654099Y-172183401D02*
X168945901Y-172183401D01*
X168945901Y-172183401D02*
X168275000Y-171512500D01*
X206375000Y-171512500D02*
X205704099Y-172183401D01*
X205704099Y-172183401D02*
X187995901Y-172183401D01*
X187995901Y-172183401D02*
X187325000Y-171512500D01*
X225425000Y-171512500D02*
X224754099Y-172183401D01*
X207045901Y-172183401D02*
X206375000Y-171512500D01*
X224754099Y-172183401D02*
X207045901Y-172183401D01*
X244475000Y-171512500D02*
X243804099Y-172183401D01*
X226095901Y-172183401D02*
X225425000Y-171512500D01*
X243804099Y-172183401D02*
X226095901Y-172183401D01*
X263525000Y-171512500D02*
X262854099Y-172183401D01*
X245145901Y-172183401D02*
X244475000Y-171512500D01*
X262854099Y-172183401D02*
X245145901Y-172183401D01*
X282575000Y-171512500D02*
X281904099Y-172183401D01*
X281904099Y-172183401D02*
X264195901Y-172183401D01*
X264195901Y-172183401D02*
X263525000Y-171512500D01*
X301625000Y-171512500D02*
X300954099Y-172183401D01*
X300954099Y-172183401D02*
X283245901Y-172183401D01*
X283245901Y-172183401D02*
X282575000Y-171512500D01*
X320675000Y-171512500D02*
X320004099Y-172183401D01*
X320004099Y-172183401D02*
X302295901Y-172183401D01*
X302295901Y-172183401D02*
X301625000Y-171512500D01*
X351631250Y-171512500D02*
X350960349Y-172183401D01*
X350960349Y-172183401D02*
X321345901Y-172183401D01*
X321345901Y-172183401D02*
X320675000Y-171512500D01*
X382587500Y-171512500D02*
X381916599Y-172183401D01*
X352302151Y-172183401D02*
X351631250Y-171512500D01*
X381916599Y-172183401D02*
X352302151Y-172183401D01*
X358775000Y-152462500D02*
X359477151Y-153164651D01*
X381885349Y-153164651D02*
X382587500Y-152462500D01*
X359477151Y-153164651D02*
X381885349Y-153164651D01*
X334962500Y-152462500D02*
X335633401Y-153133401D01*
X358104099Y-153133401D02*
X358775000Y-152462500D01*
X335633401Y-153133401D02*
X358104099Y-153133401D01*
X315912500Y-152462500D02*
X316583401Y-153133401D01*
X334291599Y-153133401D02*
X334962500Y-152462500D01*
X316583401Y-153133401D02*
X334291599Y-153133401D01*
X296862500Y-152462500D02*
X297533401Y-153133401D01*
X297533401Y-153133401D02*
X315241599Y-153133401D01*
X315241599Y-153133401D02*
X315912500Y-152462500D01*
X277812500Y-152462500D02*
X278483401Y-153133401D01*
X278483401Y-153133401D02*
X296191599Y-153133401D01*
X296191599Y-153133401D02*
X296862500Y-152462500D01*
X258762500Y-152462500D02*
X259433401Y-153133401D01*
X259433401Y-153133401D02*
X277141599Y-153133401D01*
X277141599Y-153133401D02*
X277812500Y-152462500D01*
X239712500Y-152462500D02*
X240383401Y-153133401D01*
X240383401Y-153133401D02*
X258091599Y-153133401D01*
X258091599Y-153133401D02*
X258762500Y-152462500D01*
X220662500Y-152462500D02*
X221333401Y-153133401D01*
X221333401Y-153133401D02*
X239041599Y-153133401D01*
X239041599Y-153133401D02*
X239712500Y-152462500D01*
X201612500Y-152462500D02*
X202283401Y-153133401D01*
X219991599Y-153133401D02*
X220662500Y-152462500D01*
X202283401Y-153133401D02*
X219991599Y-153133401D01*
X182562500Y-152462500D02*
X183233401Y-153133401D01*
X183233401Y-153133401D02*
X200941599Y-153133401D01*
X200941599Y-153133401D02*
X201612500Y-152462500D01*
X163512500Y-152462500D02*
X164183401Y-153133401D01*
X164183401Y-153133401D02*
X181891599Y-153133401D01*
X181891599Y-153133401D02*
X182562500Y-152462500D01*
X144462500Y-152462500D02*
X145133401Y-153133401D01*
X145133401Y-153133401D02*
X162841599Y-153133401D01*
X162841599Y-153133401D02*
X163512500Y-152462500D01*
X125412500Y-152462500D02*
X126083401Y-153133401D01*
X143791599Y-153133401D02*
X144462500Y-152462500D01*
X126083401Y-153133401D02*
X143791599Y-153133401D01*
X101600000Y-152462500D02*
X102270901Y-153133401D01*
X102270901Y-153133401D02*
X124741599Y-153133401D01*
X124741599Y-153133401D02*
X125412500Y-152462500D01*
X115887500Y-133412500D02*
X115216599Y-134083401D01*
X115216599Y-134083401D02*
X97508401Y-134083401D01*
X97508401Y-134083401D02*
X96837500Y-133412500D01*
X134937500Y-133412500D02*
X134266599Y-134083401D01*
X134266599Y-134083401D02*
X116558401Y-134083401D01*
X116558401Y-134083401D02*
X115887500Y-133412500D01*
X153987500Y-133412500D02*
X153316599Y-134083401D01*
X153316599Y-134083401D02*
X135608401Y-134083401D01*
X135608401Y-134083401D02*
X134937500Y-133412500D01*
X173037500Y-133412500D02*
X172366599Y-134083401D01*
X172366599Y-134083401D02*
X154658401Y-134083401D01*
X154658401Y-134083401D02*
X153987500Y-133412500D01*
X192087500Y-133412500D02*
X191416599Y-134083401D01*
X191416599Y-134083401D02*
X173708401Y-134083401D01*
X173708401Y-134083401D02*
X173037500Y-133412500D01*
X211137500Y-133412500D02*
X210466599Y-134083401D01*
X192758401Y-134083401D02*
X192087500Y-133412500D01*
X210466599Y-134083401D02*
X192758401Y-134083401D01*
X230187500Y-133412500D02*
X229516599Y-134083401D01*
X211808401Y-134083401D02*
X211137500Y-133412500D01*
X229516599Y-134083401D02*
X211808401Y-134083401D01*
X249237500Y-133412500D02*
X248566599Y-134083401D01*
X248566599Y-134083401D02*
X230858401Y-134083401D01*
X230858401Y-134083401D02*
X230187500Y-133412500D01*
X268287500Y-133412500D02*
X267616599Y-134083401D01*
X267616599Y-134083401D02*
X249908401Y-134083401D01*
X249908401Y-134083401D02*
X249237500Y-133412500D01*
X287337500Y-133412500D02*
X286666599Y-134083401D01*
X286666599Y-134083401D02*
X268958401Y-134083401D01*
X268958401Y-134083401D02*
X268287500Y-133412500D01*
X306387500Y-133412500D02*
X305716599Y-134083401D01*
X305716599Y-134083401D02*
X288008401Y-134083401D01*
X288008401Y-134083401D02*
X287337500Y-133412500D01*
X325437500Y-133412500D02*
X324766599Y-134083401D01*
X324766599Y-134083401D02*
X307058401Y-134083401D01*
X307058401Y-134083401D02*
X306387500Y-133412500D01*
X354012500Y-133412500D02*
X353341599Y-134083401D01*
X353341599Y-134083401D02*
X326108401Y-134083401D01*
X326108401Y-134083401D02*
X325437500Y-133412500D01*
X382587500Y-133412500D02*
X381916599Y-134083401D01*
X381916599Y-134083401D02*
X354683401Y-134083401D01*
X354683401Y-134083401D02*
X354012500Y-133412500D01*
X363537500Y-114362500D02*
X364208401Y-115033401D01*
X364208401Y-115033401D02*
X381916599Y-115033401D01*
X381916599Y-115033401D02*
X382587500Y-114362500D01*
X344487500Y-114362500D02*
X345158401Y-115033401D01*
X345158401Y-115033401D02*
X362866599Y-115033401D01*
X362866599Y-115033401D02*
X363537500Y-114362500D01*
X325437500Y-114362500D02*
X326108401Y-115033401D01*
X326108401Y-115033401D02*
X343816599Y-115033401D01*
X343816599Y-115033401D02*
X344487500Y-114362500D01*
X306387500Y-114362500D02*
X307058401Y-115033401D01*
X307058401Y-115033401D02*
X324766599Y-115033401D01*
X324766599Y-115033401D02*
X325437500Y-114362500D01*
X287337500Y-114425000D02*
X287945901Y-115033401D01*
X287945901Y-115033401D02*
X305716599Y-115033401D01*
X305716599Y-115033401D02*
X306387500Y-114362500D01*
X268287500Y-114362500D02*
X268958401Y-115033401D01*
X268958401Y-115033401D02*
X286729099Y-115033401D01*
X286729099Y-115033401D02*
X287337500Y-114425000D01*
X249237500Y-114362500D02*
X249908401Y-115033401D01*
X249908401Y-115033401D02*
X267616599Y-115033401D01*
X267616599Y-115033401D02*
X268287500Y-114362500D01*
X230187500Y-114362500D02*
X230858401Y-115033401D01*
X230858401Y-115033401D02*
X248566599Y-115033401D01*
X248566599Y-115033401D02*
X249237500Y-114362500D01*
X211137500Y-114362500D02*
X211808401Y-115033401D01*
X229516599Y-115033401D02*
X230187500Y-114362500D01*
X211808401Y-115033401D02*
X229516599Y-115033401D01*
X192087500Y-114362500D02*
X192758401Y-115033401D01*
X192758401Y-115033401D02*
X210466599Y-115033401D01*
X210466599Y-115033401D02*
X211137500Y-114362500D01*
X173037500Y-114362500D02*
X173708401Y-115033401D01*
X191416599Y-115033401D02*
X192087500Y-114362500D01*
X173708401Y-115033401D02*
X191416599Y-115033401D01*
X153987500Y-114362500D02*
X154658401Y-115033401D01*
X154658401Y-115033401D02*
X172366599Y-115033401D01*
X172366599Y-115033401D02*
X173037500Y-114362500D01*
X134937500Y-114362500D02*
X135608401Y-115033401D01*
X135608401Y-115033401D02*
X153316599Y-115033401D01*
X153316599Y-115033401D02*
X153987500Y-114362500D01*
X115887500Y-114362500D02*
X116558401Y-115033401D01*
X134266599Y-115033401D02*
X134937500Y-114362500D01*
X116558401Y-115033401D02*
X134266599Y-115033401D01*
X96837500Y-114362500D02*
X97508401Y-115033401D01*
X115216599Y-115033401D02*
X115887500Y-114362500D01*
X97508401Y-115033401D02*
X115216599Y-115033401D01*
D18*
X59944000Y-115316000D02*
X61468000Y-113792000D01*
X61468000Y-113792000D02*
X61468000Y-107696000D01*
X75025000Y-107743750D02*
X75626040Y-107743750D01*
X75626040Y-107743750D02*
X76200000Y-108317710D01*
X76200000Y-108317710D02*
X76200000Y-112268000D01*
X72136000Y-131572000D02*
X72136000Y-122428000D01*
X59944000Y-115316000D02*
X54356000Y-115316000D01*
D19*
X58420000Y-117856000D02*
X58420000Y-127000000D01*
X58420000Y-127000000D02*
X66548000Y-135128000D01*
X93781250Y-203462500D02*
X96368750Y-203462500D01*
X96368750Y-203462500D02*
X99218750Y-206312500D01*
X117593750Y-203462500D02*
X120181250Y-203462500D01*
X120181250Y-203462500D02*
X123031250Y-206312500D01*
X141406250Y-203462500D02*
X143993750Y-203462500D01*
X143993750Y-203462500D02*
X146843750Y-206312500D01*
X279518750Y-203462500D02*
X284487500Y-203462500D01*
X284487500Y-203462500D02*
X287337500Y-206312500D01*
X300990000Y-202882500D02*
X302957500Y-202882500D01*
X302957500Y-202882500D02*
X306387500Y-206312500D01*
X320000000Y-203462500D02*
X322587500Y-203462500D01*
X322587500Y-203462500D02*
X325437500Y-206312500D01*
X339090000Y-202882500D02*
X341057500Y-202882500D01*
X341057500Y-202882500D02*
X344487500Y-206312500D01*
X358100000Y-203462500D02*
X360687500Y-203462500D01*
X360687500Y-203462500D02*
X363537500Y-206312500D01*
X377150000Y-203462500D02*
X379737500Y-203462500D01*
X379737500Y-203462500D02*
X382587500Y-206312500D01*
X377190000Y-183832500D02*
X379157500Y-183832500D01*
X379157500Y-183832500D02*
X382587500Y-187262500D01*
X358140000Y-183832500D02*
X360107500Y-183832500D01*
X360107500Y-183832500D02*
X363537500Y-187262500D01*
X331906250Y-184412500D02*
X334493750Y-184412500D01*
X334493750Y-184412500D02*
X337343750Y-187262500D01*
X305712500Y-184412500D02*
X308300000Y-184412500D01*
X308300000Y-184412500D02*
X311150000Y-187262500D01*
X286662500Y-184412500D02*
X289250000Y-184412500D01*
X289250000Y-184412500D02*
X292100000Y-187262500D01*
X267612500Y-184412500D02*
X270200000Y-184412500D01*
X270200000Y-184412500D02*
X273050000Y-187262500D01*
X248602500Y-183832500D02*
X250570000Y-183832500D01*
X250570000Y-183832500D02*
X254000000Y-187262500D01*
X229512500Y-184412500D02*
X232100000Y-184412500D01*
X232100000Y-184412500D02*
X234950000Y-187262500D01*
X220027500Y-202882500D02*
X221995000Y-202882500D01*
X221995000Y-202882500D02*
X225425000Y-206312500D01*
X210502500Y-183832500D02*
X212470000Y-183832500D01*
X212470000Y-183832500D02*
X215900000Y-187262500D01*
X191412500Y-184412500D02*
X194000000Y-184412500D01*
X194000000Y-184412500D02*
X196850000Y-187262500D01*
X172402500Y-183832500D02*
X174370000Y-183832500D01*
X174370000Y-183832500D02*
X177800000Y-187262500D01*
X153352500Y-183832500D02*
X155320000Y-183832500D01*
X155320000Y-183832500D02*
X158750000Y-187262500D01*
X134262500Y-184412500D02*
X136850000Y-184412500D01*
X136850000Y-184412500D02*
X139700000Y-187262500D01*
X103306250Y-184412500D02*
X105893750Y-184412500D01*
X105893750Y-184412500D02*
X108743750Y-187262500D01*
X98583750Y-164782500D02*
X100551250Y-164782500D01*
X100551250Y-164782500D02*
X103981250Y-168212500D01*
X124777500Y-164782500D02*
X127538750Y-164782500D01*
X127538750Y-164782500D02*
X130968750Y-168212500D01*
X143787500Y-165362500D02*
X146375000Y-165362500D01*
X146375000Y-165362500D02*
X149225000Y-168212500D01*
X162877500Y-164782500D02*
X164845000Y-164782500D01*
X164845000Y-164782500D02*
X168275000Y-168212500D01*
X181887500Y-165362500D02*
X184475000Y-165362500D01*
X184475000Y-165362500D02*
X187325000Y-168212500D01*
X200977500Y-164782500D02*
X202945000Y-164782500D01*
X202945000Y-164782500D02*
X206375000Y-168212500D01*
X220027500Y-164782500D02*
X221995000Y-164782500D01*
X221995000Y-164782500D02*
X225425000Y-168212500D01*
X239037500Y-165362500D02*
X241625000Y-165362500D01*
X241625000Y-165362500D02*
X244475000Y-168212500D01*
X258087500Y-165362500D02*
X260675000Y-165362500D01*
X260675000Y-165362500D02*
X263525000Y-168212500D01*
X277177500Y-164782500D02*
X279145000Y-164782500D01*
X279145000Y-164782500D02*
X282575000Y-168212500D01*
X296227500Y-164782500D02*
X298195000Y-164782500D01*
X298195000Y-164782500D02*
X301625000Y-168212500D01*
X315237500Y-165362500D02*
X317825000Y-165362500D01*
X317825000Y-165362500D02*
X320675000Y-168212500D01*
X346193750Y-165362500D02*
X348781250Y-165362500D01*
X348781250Y-165362500D02*
X351631250Y-168212500D01*
X377150000Y-165362500D02*
X379737500Y-165362500D01*
X379737500Y-165362500D02*
X382587500Y-168212500D01*
X377150000Y-146343750D02*
X379768750Y-146343750D01*
X379768750Y-146343750D02*
X382587500Y-149162500D01*
X353337500Y-146312500D02*
X355925000Y-146312500D01*
X355925000Y-146312500D02*
X358775000Y-149162500D01*
X329525000Y-146312500D02*
X332112500Y-146312500D01*
X332112500Y-146312500D02*
X334962500Y-149162500D01*
X310475000Y-146312500D02*
X313062500Y-146312500D01*
X313062500Y-146312500D02*
X315912500Y-149162500D01*
X291465000Y-145732500D02*
X293432500Y-145732500D01*
X293432500Y-145732500D02*
X296862500Y-149162500D01*
X272375000Y-146312500D02*
X274962500Y-146312500D01*
X274962500Y-146312500D02*
X277812500Y-149162500D01*
X253325000Y-146312500D02*
X255912500Y-146312500D01*
X255912500Y-146312500D02*
X258762500Y-149162500D01*
X234315000Y-145732500D02*
X236282500Y-145732500D01*
X236282500Y-145732500D02*
X239712500Y-149162500D01*
X215225000Y-146312500D02*
X217812500Y-146312500D01*
X217812500Y-146312500D02*
X220662500Y-149162500D01*
X196215000Y-145732500D02*
X198182500Y-145732500D01*
X198182500Y-145732500D02*
X201612500Y-149162500D01*
X177125000Y-146312500D02*
X179712500Y-146312500D01*
X179712500Y-146312500D02*
X182562500Y-149162500D01*
X158075000Y-146312500D02*
X160662500Y-146312500D01*
X160662500Y-146312500D02*
X163512500Y-149162500D01*
X139025000Y-146312500D02*
X141612500Y-146312500D01*
X141612500Y-146312500D02*
X144462500Y-149162500D01*
X119975000Y-146312500D02*
X122562500Y-146312500D01*
X122562500Y-146312500D02*
X125412500Y-149162500D01*
X96162500Y-146312500D02*
X98750000Y-146312500D01*
X98750000Y-146312500D02*
X101600000Y-149162500D01*
X91400000Y-127262500D02*
X93987500Y-127262500D01*
X93987500Y-127262500D02*
X96837500Y-130112500D01*
X110450000Y-127262500D02*
X113037500Y-127262500D01*
X113037500Y-127262500D02*
X115887500Y-130112500D01*
X129540000Y-126682500D02*
X131507500Y-126682500D01*
X131507500Y-126682500D02*
X134937500Y-130112500D01*
X148550000Y-127262500D02*
X151137500Y-127262500D01*
X151137500Y-127262500D02*
X153987500Y-130112500D01*
X167600000Y-127262500D02*
X170187500Y-127262500D01*
X170187500Y-127262500D02*
X173037500Y-130112500D01*
X186650000Y-127262500D02*
X189237500Y-127262500D01*
X189237500Y-127262500D02*
X192087500Y-130112500D01*
X205700000Y-127262500D02*
X208287500Y-127262500D01*
X208287500Y-127262500D02*
X211137500Y-130112500D01*
X224750000Y-127262500D02*
X227337500Y-127262500D01*
X227337500Y-127262500D02*
X230187500Y-130112500D01*
X243800000Y-127262500D02*
X246387500Y-127262500D01*
X246387500Y-127262500D02*
X249237500Y-130112500D01*
X262850000Y-127262500D02*
X265437500Y-127262500D01*
X265437500Y-127262500D02*
X268287500Y-130112500D01*
X281900000Y-127262500D02*
X284487500Y-127262500D01*
X284487500Y-127262500D02*
X287337500Y-130112500D01*
X300950000Y-127262500D02*
X303537500Y-127262500D01*
X303537500Y-127262500D02*
X306387500Y-130112500D01*
X320000000Y-127262500D02*
X322587500Y-127262500D01*
X322587500Y-127262500D02*
X325437500Y-130112500D01*
X348575000Y-127262500D02*
X351162500Y-127262500D01*
X351162500Y-127262500D02*
X354012500Y-130112500D01*
X382587500Y-130112500D02*
X380000000Y-130112500D01*
X380000000Y-130112500D02*
X377150000Y-127262500D01*
X382587500Y-111062500D02*
X380000000Y-111062500D01*
X380000000Y-111062500D02*
X377150000Y-108212500D01*
X363537500Y-111062500D02*
X361570000Y-111062500D01*
X361570000Y-111062500D02*
X358140000Y-107632500D01*
X344487500Y-111062500D02*
X342520000Y-111062500D01*
X342520000Y-111062500D02*
X339090000Y-107632500D01*
X325437500Y-111062500D02*
X323470000Y-111062500D01*
X323470000Y-111062500D02*
X320040000Y-107632500D01*
X306387500Y-111062500D02*
X303800000Y-111062500D01*
X303800000Y-111062500D02*
X300950000Y-108212500D01*
X287337500Y-111125000D02*
X284812500Y-111125000D01*
X284812500Y-111125000D02*
X281900000Y-108212500D01*
X268287500Y-111062500D02*
X266320000Y-111062500D01*
X266320000Y-111062500D02*
X262890000Y-107632500D01*
X249237500Y-111062500D02*
X246650000Y-111062500D01*
X246650000Y-111062500D02*
X243800000Y-108212500D01*
X230187500Y-111062500D02*
X228220000Y-111062500D01*
X228220000Y-111062500D02*
X224790000Y-107632500D01*
X211137500Y-111062500D02*
X208550000Y-111062500D01*
X208550000Y-111062500D02*
X205700000Y-108212500D01*
X192087500Y-111062500D02*
X189500000Y-111062500D01*
X189500000Y-111062500D02*
X186650000Y-108212500D01*
X173037500Y-111062500D02*
X170450000Y-111062500D01*
X170450000Y-111062500D02*
X167600000Y-108212500D01*
X153987500Y-111062500D02*
X151400000Y-111062500D01*
X151400000Y-111062500D02*
X148550000Y-108212500D01*
X129540000Y-107632500D02*
X131507500Y-107632500D01*
X131507500Y-107632500D02*
X134937500Y-111062500D01*
X115887500Y-111062500D02*
X113920000Y-111062500D01*
X113920000Y-111062500D02*
X110490000Y-107632500D01*
X96837500Y-111062500D02*
X94870000Y-111062500D01*
X94870000Y-111062500D02*
X91440000Y-107632500D01*
M02*
