M48
; DRILL file {KiCad (5.99.0-1615-g0042cd509)} date Sunday, May 31, 2020 at 09:12:51 PM
; FORMAT={-:-/ absolute / inch / decimal}
; #@! TF.CreationDate,2020-05-31T21:12:51-05:00
; #@! TF.GenerationSoftware,Kicad,Pcbnew,(5.99.0-1615-g0042cd509)
; #@! TF.FileFunction,NonPlated,1,2,NPTH
FMAT,2
INCH
T1C0.0689
T2C0.1200
T3C0.1570
%
G90
G05
T1
X3.5812Y-6.6875
X3.9812Y-6.6875
X13.6125Y-5.9375
X14.0125Y-5.9375
X3.4875Y-5.9375
X3.8875Y-5.9375
X13.425Y-5.1875
X13.825Y-5.1875
X14.55Y-8.1875
X14.95Y-8.1875
X10.7062Y-8.1875
X11.1062Y-8.1875
X5.2687Y-8.1875
X5.6688Y-8.1875
X4.3312Y-8.1875
X4.7313Y-8.1875
X3.3937Y-8.1875
X3.7937Y-8.1875
X8.3625Y-8.1875
X8.7625Y-8.1875
X12.1125Y-6.6875
X12.5125Y-6.6875
X11.3625Y-6.6875
X11.7625Y-6.6875
X10.05Y-4.4375
X10.45Y-4.4375
X9.3Y-4.4375
X9.7Y-4.4375
X8.55Y-4.4375
X8.95Y-4.4375
X7.8Y-4.4375
X8.2Y-4.4375
X13.8Y-8.1875
X14.2Y-8.1875
X13.05Y-8.1875
X13.45Y-8.1875
X12.7687Y-7.4375
X13.1687Y-7.4375
X3.7687Y-7.4375
X4.1688Y-7.4375
X13.3312Y-6.6875
X13.7312Y-6.6875
X12.3Y-8.1875
X12.7Y-8.1875
X11.55Y-8.1875
X11.95Y-8.1875
X14.55Y-7.4375
X14.95Y-7.4375
X13.8Y-7.4375
X14.2Y-7.4375
X11.7375Y-7.4375
X12.1375Y-7.4375
X10.9875Y-7.4375
X11.3875Y-7.4375
X10.2375Y-7.4375
X10.6375Y-7.4375
X9.4875Y-7.4375
X9.8875Y-7.4375
X8.7375Y-7.4375
X9.1375Y-7.4375
X7.9875Y-7.4375
X8.3875Y-7.4375
X7.2375Y-7.4375
X7.6375Y-7.4375
X6.4875Y-7.4375
X6.8875Y-7.4375
X5.7375Y-7.4375
X6.1375Y-7.4375
X4.9875Y-7.4375
X5.3875Y-7.4375
X14.55Y-6.6875
X14.95Y-6.6875
X10.6125Y-6.6875
X11.0125Y-6.6875
X9.8625Y-6.6875
X10.2625Y-6.6875
X9.1125Y-6.6875
X9.5125Y-6.6875
X8.3625Y-6.6875
X8.7625Y-6.6875
X6.8625Y-6.6875
X7.2625Y-6.6875
X7.6125Y-6.6875
X8.0125Y-6.6875
X6.1125Y-6.6875
X6.5125Y-6.6875
X4.6125Y-6.6875
X5.0125Y-6.6875
X5.3625Y-6.6875
X5.7625Y-6.6875
X14.55Y-5.9387
X14.95Y-5.9387
X12.675Y-5.9375
X13.075Y-5.9375
X11.925Y-5.9375
X12.325Y-5.9375
X11.175Y-5.9375
X11.575Y-5.9375
X10.425Y-5.9375
X10.825Y-5.9375
X9.675Y-5.9375
X10.075Y-5.9375
X8.925Y-5.9375
X9.325Y-5.9375
X8.175Y-5.9375
X8.575Y-5.9375
X7.425Y-5.9375
X7.825Y-5.9375
X6.675Y-5.9375
X7.075Y-5.9375
X5.925Y-5.9375
X6.325Y-5.9375
X5.175Y-5.9375
X5.575Y-5.9375
X4.425Y-5.9375
X4.825Y-5.9375
X14.55Y-4.4375
X14.95Y-4.4375
X13.8Y-4.4375
X14.2Y-4.4375
X13.05Y-4.4375
X13.45Y-4.4375
X12.3Y-4.4375
X12.7Y-4.4375
X11.55Y-4.4375
X11.95Y-4.4375
X10.8Y-4.4375
X11.2Y-4.4375
X14.55Y-5.1875
X14.95Y-5.1875
X12.3Y-5.1875
X12.7Y-5.1875
X11.55Y-5.1875
X11.95Y-5.1875
X10.8Y-5.1875
X11.2Y-5.1875
X10.05Y-5.1875
X10.45Y-5.1875
X9.3Y-5.1875
X9.7Y-5.1875
X8.55Y-5.1875
X8.95Y-5.1875
X7.8Y-5.1875
X8.2Y-5.1875
X7.05Y-5.1875
X7.45Y-5.1875
X6.3Y-5.1875
X6.7Y-5.1875
X5.55Y-5.1875
X5.95Y-5.1875
X4.8Y-5.1875
X5.2Y-5.1875
X7.05Y-4.4375
X7.45Y-4.4375
X6.3Y-4.4375
X6.7Y-4.4375
X5.55Y-4.4375
X5.95Y-4.4375
X4.8Y-4.4375
X5.2Y-4.4375
X4.05Y-5.1875
X4.45Y-5.1875
X4.05Y-4.4375
X4.45Y-4.4375
X3.3Y-5.1875
X3.7Y-5.1875
X3.3Y-4.4375
X3.7Y-4.4375
T2
X13.155Y-4.9125
X14.095Y-4.9125
X6.3125Y-7.9125
X10.0625Y-7.9125
X3.4987Y-7.1625
X4.4387Y-7.1625
X13.0612Y-6.4125
X14.0012Y-6.4125
T3
X3.7812Y-6.6875
X13.8125Y-5.9375
X3.6875Y-5.9375
X13.155Y-5.5125
X13.625Y-5.1875
X14.095Y-5.5125
X14.75Y-8.1875
X10.9062Y-8.1875
X5.4688Y-8.1875
X4.5312Y-8.1875
X3.5938Y-8.1875
X6.3125Y-8.5125
X8.5625Y-8.1875
X10.0625Y-8.5125
X12.3125Y-6.6875
X11.5625Y-6.6875
X10.25Y-4.4375
X9.5Y-4.4375
X8.75Y-4.4375
X8.0Y-4.4375
X14.0Y-8.1875
X13.25Y-8.1875
X12.9688Y-7.4375
X3.4987Y-7.7625
X3.9688Y-7.4375
X4.4387Y-7.7625
X13.0612Y-7.0125
X13.5312Y-6.6875
X14.0012Y-7.0125
X12.5Y-8.1875
X11.75Y-8.1875
X14.75Y-7.4375
X14.0Y-7.4375
X11.9375Y-7.4375
X11.1875Y-7.4375
X10.4375Y-7.4375
X9.6875Y-7.4375
X8.9375Y-7.4375
X8.1875Y-7.4375
X7.4375Y-7.4375
X6.6875Y-7.4375
X5.9375Y-7.4375
X5.1875Y-7.4375
X14.75Y-6.6875
X10.8125Y-6.6875
X10.0625Y-6.6875
X9.3125Y-6.6875
X8.5625Y-6.6875
X7.0625Y-6.6875
X7.8125Y-6.6875
X6.3125Y-6.6875
X4.8125Y-6.6875
X5.5625Y-6.6875
X14.75Y-5.9387
X12.875Y-5.9375
X12.125Y-5.9375
X11.375Y-5.9375
X10.625Y-5.9375
X9.875Y-5.9375
X9.125Y-5.9375
X8.375Y-5.9375
X7.625Y-5.9375
X6.875Y-5.9375
X6.125Y-5.9375
X5.375Y-5.9375
X4.625Y-5.9375
X14.75Y-4.4375
X14.0Y-4.4375
X13.25Y-4.4375
X12.5Y-4.4375
X11.75Y-4.4375
X11.0Y-4.4375
X14.75Y-5.1875
X12.5Y-5.1875
X11.75Y-5.1875
X11.0Y-5.1875
X10.25Y-5.1875
X9.5Y-5.1875
X8.75Y-5.1875
X8.0Y-5.1875
X7.25Y-5.1875
X6.5Y-5.1875
X5.75Y-5.1875
X5.0Y-5.1875
X7.25Y-4.4375
X6.5Y-4.4375
X5.75Y-4.4375
X5.0Y-4.4375
X4.25Y-5.1875
X4.25Y-4.4375
X3.5Y-5.1875
X3.5Y-4.4375
T0
M30
