M48
; DRILL file {KiCad (5.99.0-2887-gdf45a6699)} date Monday, December 07, 2020 at 02:11:37 PM
; FORMAT={-:-/ absolute / inch / decimal}
; #@! TF.CreationDate,2020-12-07T14:11:37-06:00
; #@! TF.GenerationSoftware,Kicad,Pcbnew,(5.99.0-2887-gdf45a6699)
; #@! TF.FileFunction,Plated,1,2,PTH
FMAT,2
INCH
T1C0.0157
T2C0.0236
T3C0.0276
T4C0.0400
T5C0.0409
T6C0.0583
T7C0.0866
%
G90
G05
T1
X10.85Y-4.45
X10.9Y-4.45
X10.96Y-4.41
X11.09Y-4.52
X11.22Y-4.29
X11.375Y-4.285
X11.52Y-4.52
X13.2Y-4.55
X13.22Y-4.34
X13.23Y-4.21
X13.34Y-4.04
X13.4978Y-4.2986
X13.5262Y-4.3272
X13.5561Y-4.3559
X13.5832Y-4.3845
X13.6Y-4.16
X13.6117Y-4.4131
X13.6402Y-4.4417
X13.67Y-4.4704
X13.7Y-4.5
X13.73Y-4.53
X14.0186Y-4.1426
X14.07Y-4.18
X14.15Y-4.7
X14.27Y-4.1195
X14.28Y-5.29
X14.29Y-4.7
X14.31Y-4.15
X14.31Y-6.04
X14.34Y-6.79
X14.37Y-7.54
X14.3769Y-4.667
X14.38Y-4.53
X14.39Y-4.21
X14.4Y-8.29
X14.41Y-4.5
X14.45Y-4.09
X14.49Y-4.46
X14.52Y-4.43
X14.53Y-4.54
X14.55Y-4.4
X14.58Y-4.37
X14.5938Y-4.0625
X14.61Y-4.34
X14.64Y-4.31
X14.6603Y-4.2057
X14.78Y-4.2175
X14.7812Y-4.53
X14.81Y-4.7
X10.7648Y-4.3048
X10.7805Y-4.2773
X10.7963Y-4.3048
X10.812Y-4.2773
X10.8278Y-4.3048
X10.8435Y-4.2773
X10.8593Y-4.3048
X10.8907Y-4.3048
X10.9065Y-4.2769
X10.9222Y-4.3048
X10.938Y-4.2773
X10.9537Y-4.3048
X10.9695Y-4.2773
X10.9852Y-4.3048
T3
X11.2292Y-4.49
X11.43Y-4.49
T4
X12.4Y-4.2
X12.4Y-4.3
X12.5Y-4.2
X12.5Y-4.3
X12.6Y-4.2
X12.6Y-4.3
T5
X3.7312Y-6.8875
X3.8312Y-6.8875
T7
X9.125Y-4.6562
X13.5Y-7.7812
X14.9688Y-4.6562
X9.125Y-4.1562
X3.2812Y-4.1562
X14.9688Y-4.1562
X9.0938Y-8.0312
X3.2812Y-4.6562
X4.9375Y-7.875
T2
G00X10.7069Y-4.0851
M15
G01X10.7069Y-4.0615
M16
G05
G00X10.7069Y-4.2714
M15
G01X10.7069Y-4.2477
M16
G05
G00X11.0431Y-4.0851
M15
G01X11.0431Y-4.0615
M16
G05
G00X11.0431Y-4.2714
M15
G01X11.0431Y-4.2477
M16
G05
T6
G00X4.0999Y-5.0869
M15
G01X4.1513Y-5.0298
M16
G05
G00X4.3484Y-5.0101
M15
G01X4.35Y-4.9877
M16
G05
G00X13.3812Y-6.5869
M15
G01X13.4325Y-6.5298
M16
G05
G00X13.6297Y-6.5101
M15
G01X13.6312Y-6.4877
M16
G05
G00X13.8499Y-7.3369
M15
G01X13.9013Y-7.2798
M16
G05
G00X14.0984Y-7.2601
M15
G01X14.1Y-7.2377
M16
G05
G00X12.3499Y-5.0869
M15
G01X12.4013Y-5.0298
M16
G05
G00X12.5984Y-5.0101
M15
G01X12.6Y-4.9877
M16
G05
G00X11.9749Y-5.8369
M15
G01X12.0263Y-5.7798
M16
G05
G00X12.2234Y-5.7601
M15
G01X12.225Y-5.7377
M16
G05
G00X7.6624Y-6.5869
M15
G01X7.7138Y-6.5298
M16
G05
G00X7.9109Y-6.5101
M15
G01X7.9125Y-6.4877
M16
G05
G00X9.9124Y-6.5869
M15
G01X9.9638Y-6.5298
M16
G05
G00X10.1609Y-6.5101
M15
G01X10.1625Y-6.4877
M16
G05
G00X4.8499Y-5.0869
M15
G01X4.9013Y-5.0298
M16
G05
G00X5.0984Y-5.0101
M15
G01X5.1Y-4.9877
M16
G05
G00X6.1624Y-6.5869
M15
G01X6.2138Y-6.5298
M16
G05
G00X6.4109Y-6.5101
M15
G01X6.4125Y-6.4877
M16
G05
G00X4.4749Y-5.8369
M15
G01X4.5263Y-5.7798
M16
G05
G00X4.7234Y-5.7601
M15
G01X4.725Y-5.7377
M16
G05
G00X9.1624Y-6.5869
M15
G01X9.2138Y-6.5298
M16
G05
G00X9.4109Y-6.5101
M15
G01X9.4125Y-6.4877
M16
G05
G00X11.2249Y-5.8369
M15
G01X11.2763Y-5.7798
M16
G05
G00X11.4734Y-5.7601
M15
G01X11.475Y-5.7377
M16
G05
G00X13.8499Y-8.0869
M15
G01X13.9013Y-8.0298
M16
G05
G00X14.0984Y-8.0101
M15
G01X14.1Y-7.9877
M16
G05
G00X6.7249Y-5.8369
M15
G01X6.7763Y-5.7798
M16
G05
G00X6.9734Y-5.7601
M15
G01X6.975Y-5.7377
M16
G05
G00X14.5999Y-5.8369
M15
G01X14.6513Y-5.7798
M16
G05
G00X14.8484Y-5.7601
M15
G01X14.85Y-5.7377
M16
G05
G00X5.7874Y-7.3369
M15
G01X5.8388Y-7.2798
M16
G05
G00X6.0359Y-7.2601
M15
G01X6.0375Y-7.2377
M16
G05
G00X7.8499Y-5.0869
M15
G01X7.9013Y-5.0298
M16
G05
G00X8.0984Y-5.0101
M15
G01X8.1Y-4.9877
M16
G05
G00X8.1312Y-8.0869
M15
G01X8.1825Y-8.0298
M16
G05
G00X8.3797Y-8.0101
M15
G01X8.3812Y-7.9877
M16
G05
G00X3.8187Y-7.3369
M15
G01X3.87Y-7.2798
M16
G05
G00X4.0672Y-7.2601
M15
G01X4.0687Y-7.2377
M16
G05
G00X3.4437Y-8.0869
M15
G01X3.495Y-8.0298
M16
G05
G00X3.6922Y-8.0101
M15
G01X3.6937Y-7.9877
M16
G05
G00X13.4749Y-5.0869
M15
G01X13.5263Y-5.0298
M16
G05
G00X13.7234Y-5.0101
M15
G01X13.725Y-4.9877
M16
G05
G00X12.7249Y-5.8369
M15
G01X12.7763Y-5.7798
M16
G05
G00X12.9734Y-5.7601
M15
G01X12.975Y-5.7377
M16
G05
G00X8.4124Y-6.5869
M15
G01X8.4638Y-6.5298
M16
G05
G00X8.6609Y-6.5101
M15
G01X8.6625Y-6.4877
M16
G05
G00X8.0374Y-7.3369
M15
G01X8.0888Y-7.2798
M16
G05
G00X8.2859Y-7.2601
M15
G01X8.2875Y-7.2377
M16
G05
G00X7.4749Y-5.8369
M15
G01X7.5263Y-5.7798
M16
G05
G00X7.7234Y-5.7601
M15
G01X7.725Y-5.7377
M16
G05
G00X11.7874Y-7.3369
M15
G01X11.8388Y-7.2798
M16
G05
G00X12.0359Y-7.2601
M15
G01X12.0375Y-7.2377
M16
G05
G00X8.5999Y-5.0869
M15
G01X8.6513Y-5.0298
M16
G05
G00X8.8484Y-5.0101
M15
G01X8.85Y-4.9877
M16
G05
G00X14.5999Y-8.0869
M15
G01X14.6513Y-8.0298
M16
G05
G00X14.8484Y-8.0101
M15
G01X14.85Y-7.9877
M16
G05
G00X3.5374Y-5.8369
M15
G01X3.5888Y-5.7798
M16
G05
G00X3.7859Y-5.7601
M15
G01X3.7875Y-5.7377
M16
G05
G00X5.3187Y-8.0869
M15
G01X5.37Y-8.0298
M16
G05
G00X5.5672Y-8.0101
M15
G01X5.5687Y-7.9877
M16
G05
G00X3.3499Y-5.0869
M15
G01X3.4013Y-5.0298
M16
G05
G00X3.5984Y-5.0101
M15
G01X3.6Y-4.9877
M16
G05
G00X6.5374Y-7.3369
M15
G01X6.5888Y-7.2798
M16
G05
G00X6.7859Y-7.2601
M15
G01X6.7875Y-7.2377
M16
G05
G00X4.3812Y-8.0869
M15
G01X4.4325Y-8.0298
M16
G05
G00X4.6297Y-8.0101
M15
G01X4.6312Y-7.9877
M16
G05
G00X13.6624Y-5.8369
M15
G01X13.7138Y-5.7798
M16
G05
G00X13.9109Y-5.7601
M15
G01X13.9125Y-5.7377
M16
G05
G00X10.9437Y-8.0869
M15
G01X10.995Y-8.0298
M16
G05
G00X11.1922Y-8.0101
M15
G01X11.1937Y-7.9877
M16
G05
G00X9.5374Y-7.3369
M15
G01X9.5888Y-7.2798
M16
G05
G00X9.7859Y-7.2601
M15
G01X9.7875Y-7.2377
M16
G05
G00X11.0374Y-7.3369
M15
G01X11.0888Y-7.2798
M16
G05
G00X11.2859Y-7.2601
M15
G01X11.2875Y-7.2377
M16
G05
G00X5.0374Y-7.3369
M15
G01X5.0888Y-7.2798
M16
G05
G00X5.2859Y-7.2601
M15
G01X5.2875Y-7.2377
M16
G05
G00X14.5999Y-6.5869
M15
G01X14.6513Y-6.5298
M16
G05
G00X14.8484Y-6.5101
M15
G01X14.85Y-6.4877
M16
G05
G00X5.5999Y-5.0869
M15
G01X5.6513Y-5.0298
M16
G05
G00X5.8484Y-5.0101
M15
G01X5.85Y-4.9877
M16
G05
G00X11.4124Y-6.5869
M15
G01X11.4638Y-6.5298
M16
G05
G00X11.6609Y-6.5101
M15
G01X11.6625Y-6.4877
M16
G05
G00X4.6624Y-6.5869
M15
G01X4.7138Y-6.5298
M16
G05
G00X4.9109Y-6.5101
M15
G01X4.9125Y-6.4877
M16
G05
G00X10.8499Y-5.0869
M15
G01X10.9013Y-5.0298
M16
G05
G00X11.0984Y-5.0101
M15
G01X11.1Y-4.9877
M16
G05
G00X8.2249Y-5.8369
M15
G01X8.2763Y-5.7798
M16
G05
G00X8.4734Y-5.7601
M15
G01X8.475Y-5.7377
M16
G05
G00X3.6312Y-6.5869
M15
G01X3.6825Y-6.5298
M16
G05
G00X3.8797Y-6.5101
M15
G01X3.8812Y-6.4877
M16
G05
G00X5.4124Y-6.5869
M15
G01X5.4638Y-6.5298
M16
G05
G00X5.6609Y-6.5101
M15
G01X5.6625Y-6.4877
M16
G05
G00X10.6624Y-6.5869
M15
G01X10.7138Y-6.5298
M16
G05
G00X10.9109Y-6.5101
M15
G01X10.9125Y-6.4877
M16
G05
G00X7.2874Y-7.3369
M15
G01X7.3388Y-7.2798
M16
G05
G00X7.5359Y-7.2601
M15
G01X7.5375Y-7.2377
M16
G05
G00X9.3499Y-5.0869
M15
G01X9.4013Y-5.0298
M16
G05
G00X9.5984Y-5.0101
M15
G01X9.6Y-4.9877
M16
G05
G00X11.8812Y-8.0869
M15
G01X11.9325Y-8.0298
M16
G05
G00X12.1297Y-8.0101
M15
G01X12.1312Y-7.9877
M16
G05
G00X5.2249Y-5.8369
M15
G01X5.2763Y-5.7798
M16
G05
G00X5.4734Y-5.7601
M15
G01X5.475Y-5.7377
M16
G05
G00X14.5999Y-7.3369
M15
G01X14.6513Y-7.2798
M16
G05
G00X14.8484Y-7.2601
M15
G01X14.85Y-7.2377
M16
G05
G00X14.5999Y-5.0869
M15
G01X14.6513Y-5.0298
M16
G05
G00X14.8484Y-5.0101
M15
G01X14.85Y-4.9877
M16
G05
G00X8.7874Y-7.3369
M15
G01X8.8388Y-7.2798
M16
G05
G00X9.0359Y-7.2601
M15
G01X9.0375Y-7.2377
M16
G05
G00X10.2874Y-7.3369
M15
G01X10.3388Y-7.2798
M16
G05
G00X10.5359Y-7.2601
M15
G01X10.5375Y-7.2377
M16
G05
G00X12.8187Y-7.3369
M15
G01X12.87Y-7.2798
M16
G05
G00X13.0672Y-7.2601
M15
G01X13.0687Y-7.2377
M16
G05
G00X6.3499Y-5.0869
M15
G01X6.4013Y-5.0298
M16
G05
G00X6.5984Y-5.0101
M15
G01X6.6Y-4.9877
M16
G05
G00X12.1624Y-6.5869
M15
G01X12.2138Y-6.5298
M16
G05
G00X12.4109Y-6.5101
M15
G01X12.4125Y-6.4877
M16
G05
G00X11.5999Y-5.0869
M15
G01X11.6513Y-5.0298
M16
G05
G00X11.8484Y-5.0101
M15
G01X11.85Y-4.9877
M16
G05
G00X10.4749Y-5.8369
M15
G01X10.5263Y-5.7798
M16
G05
G00X10.7234Y-5.7601
M15
G01X10.725Y-5.7377
M16
G05
G00X8.9749Y-5.8369
M15
G01X9.0263Y-5.7798
M16
G05
G00X9.2234Y-5.7601
M15
G01X9.225Y-5.7377
M16
G05
G00X6.9124Y-6.5869
M15
G01X6.9638Y-6.5298
M16
G05
G00X7.1609Y-6.5101
M15
G01X7.1625Y-6.4877
M16
G05
G00X5.9749Y-5.8369
M15
G01X6.0263Y-5.7798
M16
G05
G00X6.2234Y-5.7601
M15
G01X6.225Y-5.7377
M16
G05
G00X9.7249Y-5.8369
M15
G01X9.7763Y-5.7798
M16
G05
G00X9.9734Y-5.7601
M15
G01X9.975Y-5.7377
M16
G05
G00X10.0999Y-5.0869
M15
G01X10.1513Y-5.0298
M16
G05
G00X10.3484Y-5.0101
M15
G01X10.35Y-4.9877
M16
G05
G00X7.0999Y-5.0869
M15
G01X7.1513Y-5.0298
M16
G05
G00X7.3484Y-5.0101
M15
G01X7.35Y-4.9877
M16
G05
G00X13.0999Y-8.0869
M15
G01X13.1513Y-8.0298
M16
G05
G00X13.3484Y-8.0101
M15
G01X13.35Y-7.9877
M16
G05
T0
M30
