G04 #@! TF.GenerationSoftware,KiCad,Pcbnew,(5.99.0-2887-gdf45a6699)*
G04 #@! TF.CreationDate,2020-09-23T12:44:11-05:00*
G04 #@! TF.ProjectId,my-keyboard,6d792d6b-6579-4626-9f61-72642e6b6963,rev?*
G04 #@! TF.SameCoordinates,Original*
G04 #@! TF.FileFunction,Paste,Top*
G04 #@! TF.FilePolarity,Positive*
%FSLAX46Y46*%
G04 Gerber Fmt 4.6, Leading zero omitted, Abs format (unit mm)*
G04 Created by KiCad (PCBNEW (5.99.0-2887-gdf45a6699)) date 2020-09-23 12:44:11*
%MOMM*%
%LPD*%
G01*
G04 APERTURE LIST*
%ADD10R,1.800000X1.100000*%
%ADD11R,0.550000X1.500000*%
%ADD12R,1.500000X0.550000*%
%ADD13R,0.500000X2.250000*%
%ADD14R,1.400000X1.200000*%
G04 APERTURE END LIST*
G36*
G01*
X327381250Y-110956250D02*
X327381250Y-109706250D01*
G75*
G02*
X327631250Y-109456250I250000J0D01*
G01*
X328381250Y-109456250D01*
G75*
G02*
X328631250Y-109706250I0J-250000D01*
G01*
X328631250Y-110956250D01*
G75*
G02*
X328381250Y-111206250I-250000J0D01*
G01*
X327631250Y-111206250D01*
G75*
G02*
X327381250Y-110956250I0J250000D01*
G01*
G37*
G36*
G01*
X330181250Y-110956250D02*
X330181250Y-109706250D01*
G75*
G02*
X330431250Y-109456250I250000J0D01*
G01*
X331181250Y-109456250D01*
G75*
G02*
X331431250Y-109706250I0J-250000D01*
G01*
X331431250Y-110956250D01*
G75*
G02*
X331181250Y-111206250I-250000J0D01*
G01*
X330431250Y-111206250D01*
G75*
G02*
X330181250Y-110956250I0J250000D01*
G01*
G37*
G36*
G01*
X341094000Y-103707250D02*
X341094000Y-102794750D01*
G75*
G02*
X341337750Y-102551000I243750J0D01*
G01*
X341825250Y-102551000D01*
G75*
G02*
X342069000Y-102794750I0J-243750D01*
G01*
X342069000Y-103707250D01*
G75*
G02*
X341825250Y-103951000I-243750J0D01*
G01*
X341337750Y-103951000D01*
G75*
G02*
X341094000Y-103707250I0J243750D01*
G01*
G37*
G36*
G01*
X342969000Y-103707250D02*
X342969000Y-102794750D01*
G75*
G02*
X343212750Y-102551000I243750J0D01*
G01*
X343700250Y-102551000D01*
G75*
G02*
X343944000Y-102794750I0J-243750D01*
G01*
X343944000Y-103707250D01*
G75*
G02*
X343700250Y-103951000I-243750J0D01*
G01*
X343212750Y-103951000D01*
G75*
G02*
X342969000Y-103707250I0J243750D01*
G01*
G37*
G36*
G01*
X357985000Y-107136250D02*
X357985000Y-106223750D01*
G75*
G02*
X358228750Y-105980000I243750J0D01*
G01*
X358716250Y-105980000D01*
G75*
G02*
X358960000Y-106223750I0J-243750D01*
G01*
X358960000Y-107136250D01*
G75*
G02*
X358716250Y-107380000I-243750J0D01*
G01*
X358228750Y-107380000D01*
G75*
G02*
X357985000Y-107136250I0J243750D01*
G01*
G37*
G36*
G01*
X359860000Y-107136250D02*
X359860000Y-106223750D01*
G75*
G02*
X360103750Y-105980000I243750J0D01*
G01*
X360591250Y-105980000D01*
G75*
G02*
X360835000Y-106223750I0J-243750D01*
G01*
X360835000Y-107136250D01*
G75*
G02*
X360591250Y-107380000I-243750J0D01*
G01*
X360103750Y-107380000D01*
G75*
G02*
X359860000Y-107136250I0J243750D01*
G01*
G37*
G36*
G01*
X372606250Y-118431250D02*
X373518750Y-118431250D01*
G75*
G02*
X373762500Y-118675000I0J-243750D01*
G01*
X373762500Y-119162500D01*
G75*
G02*
X373518750Y-119406250I-243750J0D01*
G01*
X372606250Y-119406250D01*
G75*
G02*
X372362500Y-119162500I0J243750D01*
G01*
X372362500Y-118675000D01*
G75*
G02*
X372606250Y-118431250I243750J0D01*
G01*
G37*
G36*
G01*
X372606250Y-120306250D02*
X373518750Y-120306250D01*
G75*
G02*
X373762500Y-120550000I0J-243750D01*
G01*
X373762500Y-121037500D01*
G75*
G02*
X373518750Y-121281250I-243750J0D01*
G01*
X372606250Y-121281250D01*
G75*
G02*
X372362500Y-121037500I0J243750D01*
G01*
X372362500Y-120550000D01*
G75*
G02*
X372606250Y-120306250I243750J0D01*
G01*
G37*
D10*
X298525000Y-104068000D03*
X304725000Y-107768000D03*
X298525000Y-107768000D03*
X304725000Y-104068000D03*
D11*
X372300000Y-105425000D03*
X371500000Y-105425000D03*
X370700000Y-105425000D03*
X369900000Y-105425000D03*
X369100000Y-105425000D03*
X368300000Y-105425000D03*
X367500000Y-105425000D03*
X366700000Y-105425000D03*
X365900000Y-105425000D03*
X365100000Y-105425000D03*
X364300000Y-105425000D03*
D12*
X362600000Y-107125000D03*
X362600000Y-107925000D03*
X362600000Y-108725000D03*
X362600000Y-109525000D03*
X362600000Y-110325000D03*
X362600000Y-111125000D03*
X362600000Y-111925000D03*
X362600000Y-112725000D03*
X362600000Y-113525000D03*
X362600000Y-114325000D03*
X362600000Y-115125000D03*
D11*
X364300000Y-116825000D03*
X365100000Y-116825000D03*
X365900000Y-116825000D03*
X366700000Y-116825000D03*
X367500000Y-116825000D03*
X368300000Y-116825000D03*
X369100000Y-116825000D03*
X369900000Y-116825000D03*
X370700000Y-116825000D03*
X371500000Y-116825000D03*
X372300000Y-116825000D03*
D12*
X374000000Y-115125000D03*
X374000000Y-114325000D03*
X374000000Y-113525000D03*
X374000000Y-112725000D03*
X374000000Y-111925000D03*
X374000000Y-111125000D03*
X374000000Y-110325000D03*
X374000000Y-109525000D03*
X374000000Y-108725000D03*
X374000000Y-107925000D03*
X374000000Y-107125000D03*
D13*
X323837500Y-107687500D03*
X324637500Y-107687500D03*
X325437500Y-107687500D03*
X326237500Y-107687500D03*
X327037500Y-107687500D03*
D14*
X350393000Y-108634000D03*
X352593000Y-108634000D03*
X352593000Y-106934000D03*
X350393000Y-106934000D03*
G36*
G01*
X360835000Y-103937750D02*
X360835000Y-104850250D01*
G75*
G02*
X360591250Y-105094000I-243750J0D01*
G01*
X360103750Y-105094000D01*
G75*
G02*
X359860000Y-104850250I0J243750D01*
G01*
X359860000Y-103937750D01*
G75*
G02*
X360103750Y-103694000I243750J0D01*
G01*
X360591250Y-103694000D01*
G75*
G02*
X360835000Y-103937750I0J-243750D01*
G01*
G37*
G36*
G01*
X358960000Y-103937750D02*
X358960000Y-104850250D01*
G75*
G02*
X358716250Y-105094000I-243750J0D01*
G01*
X358228750Y-105094000D01*
G75*
G02*
X357985000Y-104850250I0J243750D01*
G01*
X357985000Y-103937750D01*
G75*
G02*
X358228750Y-103694000I243750J0D01*
G01*
X358716250Y-103694000D01*
G75*
G02*
X358960000Y-103937750I0J-243750D01*
G01*
G37*
G36*
G01*
X355269852Y-109248000D02*
X354357352Y-109248000D01*
G75*
G02*
X354113602Y-109004250I0J243750D01*
G01*
X354113602Y-108516750D01*
G75*
G02*
X354357352Y-108273000I243750J0D01*
G01*
X355269852Y-108273000D01*
G75*
G02*
X355513602Y-108516750I0J-243750D01*
G01*
X355513602Y-109004250D01*
G75*
G02*
X355269852Y-109248000I-243750J0D01*
G01*
G37*
G36*
G01*
X355269852Y-107373000D02*
X354357352Y-107373000D01*
G75*
G02*
X354113602Y-107129250I0J243750D01*
G01*
X354113602Y-106641750D01*
G75*
G02*
X354357352Y-106398000I243750J0D01*
G01*
X355269852Y-106398000D01*
G75*
G02*
X355513602Y-106641750I0J-243750D01*
G01*
X355513602Y-107129250D01*
G75*
G02*
X355269852Y-107373000I-243750J0D01*
G01*
G37*
G36*
G01*
X376400000Y-116343750D02*
X376400000Y-115431250D01*
G75*
G02*
X376643750Y-115187500I243750J0D01*
G01*
X377131250Y-115187500D01*
G75*
G02*
X377375000Y-115431250I0J-243750D01*
G01*
X377375000Y-116343750D01*
G75*
G02*
X377131250Y-116587500I-243750J0D01*
G01*
X376643750Y-116587500D01*
G75*
G02*
X376400000Y-116343750I0J243750D01*
G01*
G37*
G36*
G01*
X378275000Y-116343750D02*
X378275000Y-115431250D01*
G75*
G02*
X378518750Y-115187500I243750J0D01*
G01*
X379006250Y-115187500D01*
G75*
G02*
X379250000Y-115431250I0J-243750D01*
G01*
X379250000Y-116343750D01*
G75*
G02*
X379006250Y-116587500I-243750J0D01*
G01*
X378518750Y-116587500D01*
G75*
G02*
X378275000Y-116343750I0J243750D01*
G01*
G37*
G36*
G01*
X360883500Y-108255750D02*
X360883500Y-109168250D01*
G75*
G02*
X360639750Y-109412000I-243750J0D01*
G01*
X360152250Y-109412000D01*
G75*
G02*
X359908500Y-109168250I0J243750D01*
G01*
X359908500Y-108255750D01*
G75*
G02*
X360152250Y-108012000I243750J0D01*
G01*
X360639750Y-108012000D01*
G75*
G02*
X360883500Y-108255750I0J-243750D01*
G01*
G37*
G36*
G01*
X359008500Y-108255750D02*
X359008500Y-109168250D01*
G75*
G02*
X358764750Y-109412000I-243750J0D01*
G01*
X358277250Y-109412000D01*
G75*
G02*
X358033500Y-109168250I0J243750D01*
G01*
X358033500Y-108255750D01*
G75*
G02*
X358277250Y-108012000I243750J0D01*
G01*
X358764750Y-108012000D01*
G75*
G02*
X359008500Y-108255750I0J-243750D01*
G01*
G37*
G36*
G01*
X371017500Y-103834250D02*
X371017500Y-102921750D01*
G75*
G02*
X371261250Y-102678000I243750J0D01*
G01*
X371748750Y-102678000D01*
G75*
G02*
X371992500Y-102921750I0J-243750D01*
G01*
X371992500Y-103834250D01*
G75*
G02*
X371748750Y-104078000I-243750J0D01*
G01*
X371261250Y-104078000D01*
G75*
G02*
X371017500Y-103834250I0J243750D01*
G01*
G37*
G36*
G01*
X372892500Y-103834250D02*
X372892500Y-102921750D01*
G75*
G02*
X373136250Y-102678000I243750J0D01*
G01*
X373623750Y-102678000D01*
G75*
G02*
X373867500Y-102921750I0J-243750D01*
G01*
X373867500Y-103834250D01*
G75*
G02*
X373623750Y-104078000I-243750J0D01*
G01*
X373136250Y-104078000D01*
G75*
G02*
X372892500Y-103834250I0J243750D01*
G01*
G37*
G36*
G01*
X376400000Y-106818750D02*
X376400000Y-105906250D01*
G75*
G02*
X376643750Y-105662500I243750J0D01*
G01*
X377131250Y-105662500D01*
G75*
G02*
X377375000Y-105906250I0J-243750D01*
G01*
X377375000Y-106818750D01*
G75*
G02*
X377131250Y-107062500I-243750J0D01*
G01*
X376643750Y-107062500D01*
G75*
G02*
X376400000Y-106818750I0J243750D01*
G01*
G37*
G36*
G01*
X378275000Y-106818750D02*
X378275000Y-105906250D01*
G75*
G02*
X378518750Y-105662500I243750J0D01*
G01*
X379006250Y-105662500D01*
G75*
G02*
X379250000Y-105906250I0J-243750D01*
G01*
X379250000Y-106818750D01*
G75*
G02*
X379006250Y-107062500I-243750J0D01*
G01*
X378518750Y-107062500D01*
G75*
G02*
X378275000Y-106818750I0J243750D01*
G01*
G37*
G36*
G01*
X341045500Y-106025000D02*
X341045500Y-105112500D01*
G75*
G02*
X341289250Y-104868750I243750J0D01*
G01*
X341776750Y-104868750D01*
G75*
G02*
X342020500Y-105112500I0J-243750D01*
G01*
X342020500Y-106025000D01*
G75*
G02*
X341776750Y-106268750I-243750J0D01*
G01*
X341289250Y-106268750D01*
G75*
G02*
X341045500Y-106025000I0J243750D01*
G01*
G37*
G36*
G01*
X342920500Y-106025000D02*
X342920500Y-105112500D01*
G75*
G02*
X343164250Y-104868750I243750J0D01*
G01*
X343651750Y-104868750D01*
G75*
G02*
X343895500Y-105112500I0J-243750D01*
G01*
X343895500Y-106025000D01*
G75*
G02*
X343651750Y-106268750I-243750J0D01*
G01*
X343164250Y-106268750D01*
G75*
G02*
X342920500Y-106025000I0J243750D01*
G01*
G37*
G36*
G01*
X347818750Y-106368500D02*
X348731250Y-106368500D01*
G75*
G02*
X348975000Y-106612250I0J-243750D01*
G01*
X348975000Y-107099750D01*
G75*
G02*
X348731250Y-107343500I-243750J0D01*
G01*
X347818750Y-107343500D01*
G75*
G02*
X347575000Y-107099750I0J243750D01*
G01*
X347575000Y-106612250D01*
G75*
G02*
X347818750Y-106368500I243750J0D01*
G01*
G37*
G36*
G01*
X347818750Y-108243500D02*
X348731250Y-108243500D01*
G75*
G02*
X348975000Y-108487250I0J-243750D01*
G01*
X348975000Y-108974750D01*
G75*
G02*
X348731250Y-109218500I-243750J0D01*
G01*
X347818750Y-109218500D01*
G75*
G02*
X347575000Y-108974750I0J243750D01*
G01*
X347575000Y-108487250D01*
G75*
G02*
X347818750Y-108243500I243750J0D01*
G01*
G37*
M02*
