<?xml version="1.0" encoding="UTF-8" standalone="no"?>
<svg
   xmlns:dc="http://purl.org/dc/elements/1.1/"
   xmlns:cc="http://creativecommons.org/ns#"
   xmlns:rdf="http://www.w3.org/1999/02/22-rdf-syntax-ns#"
   xmlns:svg="http://www.w3.org/2000/svg"
   xmlns="http://www.w3.org/2000/svg"
   xmlns:sodipodi="http://sodipodi.sourceforge.net/DTD/sodipodi-0.dtd"
   xmlns:inkscape="http://www.inkscape.org/namespaces/inkscape"
   inkscape:export-ydpi="69.292984"
   inkscape:export-xdpi="69.292984"
   inkscape:export-filename="/Users/mbagnara/Documents/my-keyboard/doc/splendens.png"
   sodipodi:docname="splendens.svg"
   inkscape:version="1.0 (4035a4f, 2020-05-01)"
   id="svg8"
   version="1.1"
   viewBox="0 0 30.373187 29.439807"
   height="29.439806mm"
   width="30.373188mm">
  <defs
     id="defs2" />
  <sodipodi:namedview
     inkscape:pagecheckerboard="true"
     inkscape:window-maximized="0"
     inkscape:window-y="23"
     inkscape:window-x="0"
     inkscape:window-height="796"
     inkscape:window-width="776"
     showgrid="false"
     inkscape:document-rotation="0"
     inkscape:current-layer="layer1"
     inkscape:document-units="mm"
     inkscape:cy="79.00507"
     inkscape:cx="17.592598"
     inkscape:zoom="3.5841619"
     inkscape:pageshadow="2"
     inkscape:pageopacity="0.0"
     borderopacity="1.0"
     bordercolor="#666666"
     pagecolor="#ffffff"
     id="base" />
  <metadata
     id="metadata5">
    <rdf:RDF>
      <cc:Work
         rdf:about="">
        <dc:format>image/svg+xml</dc:format>
        <dc:type
           rdf:resource="http://purl.org/dc/dcmitype/StillImage" />
        <dc:title></dc:title>
      </cc:Work>
    </rdf:RDF>
  </metadata>
  <g
     transform="translate(-9.8691356,-16.479884)"
     id="layer1"
     inkscape:groupmode="layer"
     inkscape:label="Layer 1">
    <path
       sodipodi:nodetypes="ccccc"
       id="path860"
       d="M 9.9164721,44.400457 30.682651,25.202595 30.991174,25.588966 10.800077,45.354964 Z"
       style="fill:#000000;fill-opacity:1;stroke:#000000;stroke-width:0.139464;stroke-linecap:butt;stroke-linejoin:miter;stroke-miterlimit:4;stroke-dasharray:none;stroke-opacity:1" />
    <path
       sodipodi:nodetypes="ccscc"
       id="path864"
       d="m 15.82746,38.995866 c -1.403556,-3.351777 -2.31211,-3.382161 -2.31211,-3.382161 0,0 0.285241,0.396572 0.558367,0.916062 0.493325,0.938305 0.959241,2.451853 0.46035,3.557502 z"
       style="fill:#000000;fill-opacity:1;stroke:#000000;stroke-width:0.0283844px;stroke-linecap:butt;stroke-linejoin:miter;stroke-opacity:1" />
    <path
       style="fill:#000000;fill-opacity:1;stroke:#000000;stroke-width:0.0283844px;stroke-linecap:butt;stroke-linejoin:miter;stroke-opacity:1"
       d="m 18.671276,36.33196 c -1.403556,-3.351775 -2.31211,-3.38216 -2.31211,-3.38216 0,0 0.285241,0.396573 0.558367,0.916061 0.493325,0.938307 0.959241,2.451853 0.46035,3.557502 z"
       id="path906"
       sodipodi:nodetypes="ccscc" />
    <path
       sodipodi:nodetypes="ccscc"
       id="path908"
       d="m 21.467286,33.800078 c -1.403556,-3.351775 -2.31211,-3.38216 -2.31211,-3.38216 0,0 0.285241,0.396574 0.558368,0.91606 0.493324,0.938307 0.95924,2.451853 0.46035,3.557502 z"
       style="fill:#000000;fill-opacity:1;stroke:#000000;stroke-width:0.0283844px;stroke-linecap:butt;stroke-linejoin:miter;stroke-opacity:1" />
    <path
       sodipodi:nodetypes="ccscc"
       id="path910"
       d="m 13.537985,41.162442 c -1.403556,-3.351776 -2.312109,-3.382161 -2.312109,-3.382161 0,0 0.285241,0.396573 0.558367,0.916061 0.493325,0.938307 0.95924,2.451853 0.46035,3.557502 z"
       style="fill:#000000;fill-opacity:1;stroke:#000000;stroke-width:0.0283844px;stroke-linecap:butt;stroke-linejoin:miter;stroke-opacity:1" />
    <path
       style="fill:#000000;fill-opacity:1;stroke:#000000;stroke-width:0.0283844px;stroke-linecap:butt;stroke-linejoin:miter;stroke-opacity:1"
       d="m 17.996819,38.394989 c 3.210316,1.702419 3.157988,2.609975 3.157988,2.609975 0,0 -0.369003,-0.32011 -0.861512,-0.639327 -0.889581,-0.576573 -2.354508,-1.17814 -3.500929,-0.781818 z"
       id="path910-4"
       sodipodi:nodetypes="ccscc" />
    <path
       sodipodi:nodetypes="ccscc"
       id="path927"
       d="m 21.190915,35.222952 c 3.210317,1.702419 3.157988,2.609975 3.157988,2.609975 0,0 -0.369003,-0.32011 -0.861512,-0.639325 -0.88958,-0.576573 -2.354508,-1.178142 -3.500928,-0.781819 z"
       style="fill:#000000;fill-opacity:1;stroke:#000000;stroke-width:0.0283844px;stroke-linecap:butt;stroke-linejoin:miter;stroke-opacity:1" />
    <path
       style="fill:#000000;fill-opacity:1;stroke:#000000;stroke-width:0.0283844px;stroke-linecap:butt;stroke-linejoin:miter;stroke-opacity:1"
       d="m 15.460331,40.837533 c 3.210315,1.702419 3.157987,2.609975 3.157987,2.609975 0,0 -0.369003,-0.32011 -0.861512,-0.639327 -0.88958,-0.576573 -2.354507,-1.17814 -3.500928,-0.781817 z"
       id="path929"
       sodipodi:nodetypes="ccscc" />
    <path
       sodipodi:nodetypes="ccscc"
       id="path931"
       d="m 12.923842,43.280078 c 3.210316,1.702418 3.157988,2.609975 3.157988,2.609975 0,0 -0.369003,-0.320111 -0.861512,-0.639327 -0.88958,-0.576574 -2.354508,-1.178141 -3.500928,-0.781818 z"
       style="fill:#000000;fill-opacity:1;stroke:#000000;stroke-width:0.0283844px;stroke-linecap:butt;stroke-linejoin:miter;stroke-opacity:1" />
    <path
       sodipodi:nodetypes="cscscscc"
       id="path941"
       d="m 22.924556,32.346769 c 0,0 -2.873756,-4.034366 -4.883835,-5.390036 -0.508825,-0.34317 -1.728244,-0.634966 -1.728244,-0.634966 0,0 0.7011,-1.48384 1.29824,-2.014509 0.558713,-0.49652 2.01451,-0.984872 2.01451,-0.984872 0,0 0.190856,1.289351 0.447669,1.880209 0.956865,2.201492 3.984253,5.998764 3.984253,5.998764 z"
       style="fill:#d40000;stroke:none;stroke-width:0.0443046px;stroke-linecap:butt;stroke-linejoin:miter;stroke-opacity:1" />
    <path
       style="fill:#d40000;stroke:none;stroke-width:0.0443046px;stroke-linecap:butt;stroke-linejoin:miter;stroke-opacity:1"
       d="m 26.237306,29.347387 c 0,0 -2.873756,-4.034365 -4.883835,-5.390036 -0.508825,-0.343169 -1.728244,-0.634965 -1.728244,-0.634965 0,0 0.7011,-1.483841 1.29824,-2.01451 0.558713,-0.496519 2.01451,-0.984872 2.01451,-0.984872 0,0 0.190856,1.289352 0.447669,1.88021 0.956866,2.201492 3.984254,5.998763 3.984254,5.998763 z"
       id="path941-3"
       sodipodi:nodetypes="cscscscc" />
    <path
       sodipodi:nodetypes="cscscscc"
       id="path941-3-8"
       d="m 29.550057,26.348006 c 0,0 -2.873757,-4.034366 -4.883836,-5.390036 -0.508825,-0.34317 -1.728244,-0.634966 -1.728244,-0.634966 0,0 0.701099,-1.48384 1.29824,-2.014509 0.558713,-0.49652 2.01451,-0.984872 2.01451,-0.984872 0,0 0.190857,1.289351 0.44767,1.880209 0.956866,2.201492 3.984254,5.998763 3.984254,5.998763 z"
       style="fill:#d40000;stroke:none;stroke-width:0.0443046px;stroke-linecap:butt;stroke-linejoin:miter;stroke-opacity:1" />
    <path
       style="fill:#d40000;stroke:none;stroke-width:0.0443088px;stroke-linecap:butt;stroke-linejoin:miter;stroke-opacity:1"
       d="m 30.11164,26.351331 c 0,0 3.092213,3.713013 5.210142,4.894186 0.535409,0.290586 1.776009,0.487508 1.776009,0.487508 0,0 -0.573528,1.528012 -1.123043,2.112687 -0.51407,0.548036 -1.92341,1.155497 -1.92341,1.155497 0,0 -0.299582,-1.26877 -0.605204,-1.831054 -1.140982,-2.12161 -4.382609,-5.815232 -4.382609,-5.815232 0,0 0.235736,-0.448167 0.410422,-0.615432 0.174685,-0.167266 0.637693,-0.38816 0.637693,-0.38816 z"
       id="path941-1"
       sodipodi:nodetypes="cscscscsc" />
    <path
       sodipodi:nodetypes="cscscscc"
       id="path941-3-4"
       d="m 26.564075,29.952493 c 0,0 2.873755,4.036319 4.883834,5.392924 0.508824,0.351712 1.728244,0.636432 1.728244,0.636432 0,0 -0.701099,1.490592 -1.29824,2.009786 -0.558713,0.502447 -2.01451,0.988144 -2.01451,0.988144 0,0 -0.190856,-1.289612 -0.447668,-1.8758 -0.956866,-2.210764 -3.984254,-5.99586 -3.984254,-5.99586 z"
       style="fill:#d40000;stroke:none;stroke-width:0.0443088px;stroke-linecap:butt;stroke-linejoin:miter;stroke-opacity:1" />
    <path
       style="fill:#d40000;stroke:none;stroke-width:0.0443088px;stroke-linecap:butt;stroke-linejoin:miter;stroke-opacity:1"
       d="m 23.320123,33.08802 c 0,0 2.873757,4.036319 4.883836,5.392925 0.508824,0.351714 1.728243,0.636432 1.728243,0.636432 0,0 -0.701098,1.490592 -1.29824,2.009786 -0.558713,0.502446 -2.01451,0.988144 -2.01451,0.988144 0,0 -0.190857,-1.289612 -0.447669,-1.875799 -0.956866,-2.210764 -3.984254,-5.995861 -3.984254,-5.995861 z"
       id="path941-3-8-5"
       sodipodi:nodetypes="cscscscc" />
    <path
       style="fill:#d40000;stroke:none;stroke-width:0.0443046px;stroke-linecap:butt;stroke-linejoin:miter;stroke-opacity:1"
       d="m 30.029616,25.251757 c 0,0 1.761135,-4.536966 2.078356,-6.940636 0.0803,-0.608457 -0.202219,-1.830058 -0.202219,-1.830058 0,0 1.640782,-0.03405 2.382029,0.263838 0.693548,0.278718 1.779769,1.364055 1.779769,1.364055 0,0 -1.068997,0.745721 -1.483368,1.23904 -1.543909,1.83807 -3.593009,6.24097 -3.593009,6.24097 0,0 -0.438996,0.07716 -0.599255,0.02096 -0.16026,-0.0562 -0.362303,-0.358167 -0.362303,-0.358167 z"
       id="path941-3-8-0"
       sodipodi:nodetypes="cscscscsc" />
    <path
       sodipodi:nodetypes="cscscscsc"
       id="path941-3-8-0-3"
       d="m 30.767515,25.221271 c 0,0 4.738229,-1.111232 6.900487,-2.208 0.547347,-0.277633 1.395473,-1.201109 1.395473,-1.201109 0,0 0.955402,1.334365 1.128577,2.114235 0.162032,0.729684 -0.119455,2.239186 -0.119455,2.239186 0,0 -1.219363,-0.460445 -1.860527,-0.523486 -2.388932,-0.234881 -7.179307,0.563016 -7.179307,0.563016 0,0 -0.311758,-0.318554 -0.355966,-0.482527 -0.04421,-0.163975 0.09072,-0.501315 0.09072,-0.501315 z"
       style="fill:#d40000;stroke:none;stroke-width:0.0443046px;stroke-linecap:butt;stroke-linejoin:miter;stroke-opacity:1" />
  </g>
</svg>
